<?xml version="1.0" encoding="UTF-8"?>
<!DOCTYPE svg PUBLIC "-//W3C//DTD SVG 1.1//EN" "http://www.w3.org/Graphics/SVG/1.1/DTD/svg11.dtd">
<svg xmlns="http://www.w3.org/2000/svg" version="1.1" width="238px" height="238px" style="shape-rendering:geometricPrecision; text-rendering:geometricPrecision; image-rendering:optimizeQuality; fill-rule:evenodd; clip-rule:evenodd" xmlns:xlink="http://www.w3.org/1999/xlink">
<g><path style="opacity:1" fill="#c1c3c2" d="M 108.5,-0.5 C 115.833,-0.5 123.167,-0.5 130.5,-0.5C 192.09,10.4227 227.756,46.756 237.5,108.5C 237.5,115.5 237.5,122.5 237.5,129.5C 236.007,138.487 234.007,147.487 231.5,156.5C 222.887,157.442 214.221,157.775 205.5,157.5C 205.368,154.43 205.701,151.43 206.5,148.5C 209.144,142.044 209.144,135.544 206.5,129C 210.44,116.827 208.606,105.66 201,95.5C 193.127,89.2947 186.294,82.128 180.5,74C 174.302,69.0466 167.302,67.3799 159.5,69C 148.69,71.1563 138.19,74.323 128,78.5C 121,73.1667 114,73.1667 107,78.5C 95.9921,72.9968 84.3254,69.6634 72,68.5C 67.067,68.1911 62.567,69.3578 58.5,72C 51.6667,80.1667 44.1667,87.6667 36,94.5C 28.1386,105.797 26.3053,118.131 30.5,131.5C 27.8395,137.519 27.8395,143.519 30.5,149.5C 22.1667,149.5 13.8333,149.5 5.5,149.5C 5.53792,146.819 4.87125,144.319 3.5,142C 5.44138,128.64 6.10805,115.14 5.5,101.5C 3.90097,101.768 2.56764,101.434 1.5,100.5C 10.6263,49.8688 39.9596,17.3688 89.5,3C 95.9725,1.81257 102.306,0.645903 108.5,-0.5 Z"/></g>
<g><path style="opacity:1" fill="#f4f5f5" d="M 206.5,148.5 C 201.654,153.717 195.654,155.55 188.5,154C 185.726,151.946 182.726,150.446 179.5,149.5C 172.282,152.24 164.948,154.573 157.5,156.5C 156.886,169.935 149.886,175.435 136.5,173C 134.656,171.818 132.823,170.651 131,169.5C 121.638,179.131 112.638,178.797 104,168.5C 97.4892,174.169 90.3225,175.002 82.5,171C 81.5214,168.863 80.1881,167.029 78.5,165.5C 77.8333,162.5 77.1667,159.5 76.5,156.5C 69.7862,153.128 62.7862,150.962 55.5,150C 46.9479,157.384 38.6146,157.218 30.5,149.5C 27.8395,143.519 27.8395,137.519 30.5,131.5C 26.3053,118.131 28.1386,105.797 36,94.5C 44.1667,87.6667 51.6667,80.1667 58.5,72C 62.567,69.3578 67.067,68.1911 72,68.5C 84.3254,69.6634 95.9921,72.9968 107,78.5C 114,73.1667 121,73.1667 128,78.5C 138.19,74.323 148.69,71.1563 159.5,69C 167.302,67.3799 174.302,69.0466 180.5,74C 186.294,82.128 193.127,89.2947 201,95.5C 208.606,105.66 210.44,116.827 206.5,129C 209.144,135.544 209.144,142.044 206.5,148.5 Z"/></g>
<g><path style="opacity:1" fill="#0d3724" d="M 81.5,80.5 C 76.5276,79.5784 71.5276,79.4117 66.5,80C 61.593,84.0107 57.2597,88.5107 53.5,93.5C 57.6587,80.9237 66.3254,76.0904 79.5,79C 80.4158,79.2784 81.0825,79.7784 81.5,80.5 Z"/></g>
<g><path style="opacity:1" fill="#172531" d="M 149.5,77.5 C 155.865,77.2936 162.198,77.627 168.5,78.5C 170.588,78.6198 171.922,79.6198 172.5,81.5C 171.391,81.4431 170.391,81.1098 169.5,80.5C 167.527,79.8373 165.361,79.5039 163,79.5C 159.523,79.3275 156.356,79.9942 153.5,81.5C 146.806,83.5056 140.139,85.5056 133.5,87.5C 136.215,83.8163 139.549,80.8163 143.5,78.5C 145.5,78.1667 147.5,77.8333 149.5,77.5 Z"/></g>
<g><path style="opacity:1" fill="#227097" d="M 169.5,80.5 C 164.13,80.3921 158.797,80.7255 153.5,81.5C 156.356,79.9942 159.523,79.3275 163,79.5C 165.361,79.5039 167.527,79.8373 169.5,80.5 Z"/></g>
<g><path style="opacity:1" fill="#2a2421" d="M 143.5,78.5 C 139.549,80.8163 136.215,83.8163 133.5,87.5C 124.937,87.5212 123.604,90.3545 129.5,96C 135.167,96.3333 140.833,96.6667 146.5,97C 147.602,99.4009 147.769,101.901 147,104.5C 146.8,106.32 145.966,107.653 144.5,108.5C 145.751,105.594 146.251,102.594 146,99.5C 144.057,98.193 142.223,98.193 140.5,99.5C 136.19,100.08 131.857,100.414 127.5,100.5C 125.761,95.1904 123.094,90.3571 119.5,86C 117.299,85.1751 115.466,85.6751 114,87.5C 112.546,90.0711 111.38,92.7378 110.5,95.5C 109.833,95.8333 109.167,96.1667 108.5,96.5C 106.952,96.8212 106.285,97.8212 106.5,99.5C 100.653,97.9501 94.6531,97.1167 88.5,97C 85.574,101.24 86.074,105.073 90,108.5C 90.4966,110.81 90.6633,113.143 90.5,115.5C 89.1667,116.167 88.1667,117.167 87.5,118.5C 84.7305,119.437 82.0639,120.604 79.5,122C 76.8333,124.333 76.8333,126.667 79.5,129C 83.5796,131.029 87.2463,133.529 90.5,136.5C 88.7162,136.107 87.0495,135.441 85.5,134.5C 82.8855,131.697 79.5522,130.197 75.5,130C 72.4866,125.751 73.1533,122.084 77.5,119C 80.3333,117.5 83.1667,116 86,114.5C 86.765,112.934 86.5983,111.601 85.5,110.5C 85.5,110.167 85.5,109.833 85.5,109.5C 83.6963,105.737 83.1963,101.737 84,97.5C 84.7202,95.9443 85.8868,94.9443 87.5,94.5C 92.5633,95.1773 97.5633,96.1773 102.5,97.5C 107.965,95.3945 109.965,91.3945 108.5,85.5C 111.963,80.2997 116.63,79.133 122.5,82C 123.726,83.6349 125.059,85.1349 126.5,86.5C 131.795,83.0187 137.462,80.352 143.5,78.5 Z"/></g>
<g><path style="opacity:1" fill="#182e24" d="M 93.5,84.5 C 97.0981,84.6074 100.598,85.2741 104,86.5C 105.459,86.1918 106.626,85.5251 107.5,84.5C 108.167,84.5 108.5,84.8333 108.5,85.5C 109.965,91.3945 107.965,95.3945 102.5,97.5C 97.5633,96.1773 92.5633,95.1773 87.5,94.5C 92.9101,93.9098 98.2434,93.9098 103.5,94.5C 105.3,93.1052 105.634,91.4385 104.5,89.5C 100.647,88.0044 96.9805,86.3377 93.5,84.5 Z"/></g>
<g><path style="opacity:1" fill="#de7f5a" d="M 127.5,100.5 C 125.446,97.7639 122.946,95.4305 120,93.5C 119.517,92.552 119.351,91.552 119.5,90.5C 116.255,90.2934 114.255,91.7934 113.5,95C 112.552,95.4828 111.552,95.6495 110.5,95.5C 111.38,92.7378 112.546,90.0711 114,87.5C 115.466,85.6751 117.299,85.1751 119.5,86C 123.094,90.3571 125.761,95.1904 127.5,100.5 Z"/></g>
<g><path style="opacity:1" fill="#205ca7" d="M 149.5,110.5 C 154.918,98.6196 151.252,92.953 138.5,93.5C 147.444,88.6836 157.111,86.5169 167.5,87C 172.19,90.9601 175.023,95.7935 176,101.5C 167.145,104.396 158.311,107.396 149.5,110.5 Z"/></g>
<g><path style="opacity:1" fill="#066132" d="M 103.5,94.5 C 98.2434,93.9098 92.9101,93.9098 87.5,94.5C 85.8868,94.9443 84.7202,95.9443 84,97.5C 83.1963,101.737 83.6963,105.737 85.5,109.5C 76.7428,107.144 68.0761,104.477 59.5,101.5C 58.3861,100.277 58.2195,98.9437 59,97.5C 61.4476,93.3851 64.2809,89.5518 67.5,86C 72.8742,86.0051 78.2075,86.6718 83.5,88C 90.2962,90.0111 96.9629,92.1778 103.5,94.5 Z"/></g>
<g><path style="opacity:1" fill="#113523" d="M 53.5,93.5 C 51.1395,96.5272 48.4729,99.1938 45.5,101.5C 42.9725,103.51 41.1392,106.177 40,109.5C 39.5006,114.823 39.334,120.156 39.5,125.5C 38.7784,125.082 38.2784,124.416 38,123.5C 37.3333,119.833 37.3333,116.167 38,112.5C 39.1525,108.047 40.4859,103.714 42,99.5C 42.6667,98.1667 43.3333,98.1667 44,99.5C 44.4828,98.552 44.6495,97.552 44.5,96.5C 46.1667,96.5 47.8333,96.5 49.5,96.5C 49.5,95.5 49.5,94.5 49.5,93.5C 50.8333,93.5 52.1667,93.5 53.5,93.5 Z"/></g>
<g><path style="opacity:1" fill="#44271d" d="M 108.5,96.5 C 108.359,99.4769 106.859,101.144 104,101.5C 99.2199,100.008 94.3866,99.1751 89.5,99C 88.9415,99.7247 88.6082,100.558 88.5,101.5C 89.5118,103.563 90.5118,105.563 91.5,107.5C 91.5,108.167 91.5,108.833 91.5,109.5C 91.821,110.817 92.1543,112.151 92.5,113.5C 92.2528,114.713 91.5862,115.38 90.5,115.5C 90.6633,113.143 90.4966,110.81 90,108.5C 86.074,105.073 85.574,101.24 88.5,97C 94.6531,97.1167 100.653,97.9501 106.5,99.5C 106.285,97.8212 106.952,96.8212 108.5,96.5 Z"/></g>
<g><path style="opacity:1" fill="#b9775c" d="M 140.5,99.5 C 142.223,98.193 144.057,98.193 146,99.5C 146.251,102.594 145.751,105.594 144.5,108.5C 144.5,108.833 144.5,109.167 144.5,109.5C 144.167,109.5 143.833,109.5 143.5,109.5C 143.833,106.167 144.167,102.833 144.5,99.5C 143.167,99.5 141.833,99.5 140.5,99.5 Z"/></g>
<g><path style="opacity:1" fill="#dd835e" d="M 110.5,95.5 C 110.616,100.584 108.116,102.917 103,102.5C 99.0635,102.273 95.2302,101.607 91.5,100.5C 91.5,102.833 91.5,105.167 91.5,107.5C 90.5118,105.563 89.5118,103.563 88.5,101.5C 88.6082,100.558 88.9415,99.7247 89.5,99C 94.3866,99.1751 99.2199,100.008 104,101.5C 106.859,101.144 108.359,99.4769 108.5,96.5C 109.167,96.1667 109.833,95.8333 110.5,95.5 Z"/></g>
<g><path style="opacity:1" fill="#1d2532" d="M 133.5,87.5 C 132.685,88.8366 131.518,89.8366 130,90.5C 129.221,92.9063 130.054,94.573 132.5,95.5C 134.45,94.6279 136.45,93.9612 138.5,93.5C 151.252,92.953 154.918,98.6196 149.5,110.5C 148.226,111.189 148.226,112.023 149.5,113C 152.649,114.662 155.649,116.495 158.5,118.5C 160.554,121.947 160.887,125.614 159.5,129.5C 156.098,131.288 152.764,132.954 149.5,134.5C 149.833,133.833 150.167,133.167 150.5,132.5C 150.973,131.094 151.973,130.427 153.5,130.5C 158.448,129.324 159.781,126.324 157.5,121.5C 156.311,120.571 154.978,120.238 153.5,120.5C 152.152,116.169 149.152,114.169 144.5,114.5C 144.5,112.833 144.5,111.167 144.5,109.5C 144.5,109.167 144.5,108.833 144.5,108.5C 145.966,107.653 146.8,106.32 147,104.5C 147.769,101.901 147.602,99.4009 146.5,97C 140.833,96.6667 135.167,96.3333 129.5,96C 123.604,90.3545 124.937,87.5212 133.5,87.5 Z"/></g>
<g><path style="opacity:1" fill="#fefaf5" d="M 120.5,148.5 C 119.288,149.23 118.288,150.23 117.5,151.5C 115.599,149.994 113.932,148.327 112.5,146.5C 112.714,144.856 112.38,143.356 111.5,142C 108.132,141.457 104.799,141.624 101.5,142.5C 101.665,139.15 101.498,135.817 101,132.5C 97.198,130.621 93.698,128.288 90.5,125.5C 93.6733,122.744 97.34,120.744 101.5,119.5C 102.586,119.38 103.253,118.713 103.5,117.5C 102.844,115.547 102.511,113.547 102.5,111.5C 105.187,111.664 107.854,111.497 110.5,111C 111.252,110.329 111.586,109.496 111.5,108.5C 111.557,107.391 111.89,106.391 112.5,105.5C 114.545,104.077 115.545,102.077 115.5,99.5C 116.822,99.33 117.989,99.6634 119,100.5C 120.96,103.585 122.793,106.752 124.5,110C 127.826,110.172 131.159,110.005 134.5,109.5C 133.422,112.43 132.922,115.43 133,118.5C 136.116,120.967 139.282,123.301 142.5,125.5C 139.638,128.188 136.472,130.521 133,132.5C 132.828,135.826 132.995,139.159 133.5,142.5C 130.438,141.946 127.438,141.446 124.5,141C 122.505,143.157 121.172,145.657 120.5,148.5 Z"/></g>
<g><path style="opacity:1" fill="#f9804f" d="M 127.5,100.5 C 131.857,100.414 136.19,100.08 140.5,99.5C 141.833,99.5 143.167,99.5 144.5,99.5C 144.167,102.833 143.833,106.167 143.5,109.5C 142.504,109.414 141.671,109.748 141,110.5C 140.313,112.568 140.48,114.568 141.5,116.5C 145.586,118.543 149.586,120.543 153.5,122.5C 155.319,123.936 155.652,125.603 154.5,127.5C 150.963,128.43 147.963,130.097 145.5,132.5C 143.088,132.306 142.088,130.973 142.5,128.5C 143.5,128.5 144.5,128.5 145.5,128.5C 145.785,126.712 145.452,125.045 144.5,123.5C 141.986,121.824 139.486,120.157 137,118.5C 136.502,115.183 136.335,111.85 136.5,108.5C 132.5,108.5 128.5,108.5 124.5,108.5C 123.571,103.939 121.237,100.273 117.5,97.5C 116.558,97.6082 115.725,97.9415 115,98.5C 113.587,100.652 112.754,102.986 112.5,105.5C 108.097,107.299 103.43,107.966 98.5,107.5C 98.9756,110.927 98.9756,114.26 98.5,117.5C 97.8333,116.5 97.1667,115.5 96.5,114.5C 95.914,114.709 95.414,115.043 95,115.5C 94.6667,113.833 94.3333,112.167 94,110.5C 93.3292,109.748 92.4959,109.414 91.5,109.5C 91.5,108.833 91.5,108.167 91.5,107.5C 91.5,105.167 91.5,102.833 91.5,100.5C 95.2302,101.607 99.0635,102.273 103,102.5C 108.116,102.917 110.616,100.584 110.5,95.5C 111.552,95.6495 112.552,95.4828 113.5,95C 114.255,91.7934 116.255,90.2934 119.5,90.5C 119.351,91.552 119.517,92.552 120,93.5C 122.946,95.4305 125.446,97.7639 127.5,100.5 Z"/></g>
<g><path style="opacity:1" fill="#27bd73" d="M 81.5,80.5 C 81.8333,80.5 82.1667,80.5 82.5,80.5C 85.9816,82.062 89.6483,83.3953 93.5,84.5C 96.9805,86.3377 100.647,88.0044 104.5,89.5C 105.634,91.4385 105.3,93.1052 103.5,94.5C 96.9629,92.1778 90.2962,90.0111 83.5,88C 78.2075,86.6718 72.8742,86.0051 67.5,86C 64.2809,89.5518 61.4476,93.3851 59,97.5C 58.2195,98.9437 58.3861,100.277 59.5,101.5C 68.0761,104.477 76.7428,107.144 85.5,109.5C 85.5,109.833 85.5,110.167 85.5,110.5C 84.0388,113.255 81.7054,115.088 78.5,116C 75.3483,118.471 73.015,121.471 71.5,125C 72.0362,128.072 73.3696,130.739 75.5,133C 78.8526,135.533 82.5193,137.367 86.5,138.5C 87.1098,139.391 87.4431,140.391 87.5,141.5C 86.8007,143.556 85.8007,145.556 84.5,147.5C 75.05,144.597 66.05,140.931 57.5,136.5C 62.4354,136.446 66.7687,137.946 70.5,141C 72.1667,141.333 73.8333,141.667 75.5,142C 82.969,143.242 83.969,141.576 78.5,137C 75.1667,135.333 71.8333,133.667 68.5,132C 69.1334,128.541 69.8,125.041 70.5,121.5C 73.7028,117.801 76.7028,113.967 79.5,110C 72.5712,109.172 65.7379,107.672 59,105.5C 57.3222,102.905 55.8222,100.238 54.5,97.5C 52.4835,98.1743 50.8168,99.3409 49.5,101C 48.2068,101.49 46.8734,101.657 45.5,101.5C 48.4729,99.1938 51.1395,96.5272 53.5,93.5C 57.2597,88.5107 61.593,84.0107 66.5,80C 71.5276,79.4117 76.5276,79.5784 81.5,80.5 Z"/></g>
<g><path style="opacity:1" fill="#faddcc" d="M 111.5,108.5 C 111.586,109.496 111.252,110.329 110.5,111C 107.854,111.497 105.187,111.664 102.5,111.5C 102.511,113.547 102.844,115.547 103.5,117.5C 103.253,118.713 102.586,119.38 101.5,119.5C 101.384,116.14 101.051,112.807 100.5,109.5C 104.269,109.756 107.936,109.423 111.5,108.5 Z"/></g>
<g><path style="opacity:1" fill="#38231e" d="M 143.5,109.5 C 143.833,109.5 144.167,109.5 144.5,109.5C 144.5,111.167 144.5,112.833 144.5,114.5C 149.152,114.169 152.152,116.169 153.5,120.5C 154.978,120.238 156.311,120.571 157.5,121.5C 159.781,126.324 158.448,129.324 153.5,130.5C 155.344,129.244 156.677,127.577 157.5,125.5C 156.9,123.532 155.567,122.532 153.5,122.5C 150.158,119.732 146.658,117.066 143,114.5C 142.616,112.803 142.782,111.137 143.5,109.5 Z"/></g>
<g><path style="opacity:1" fill="#5c5f5e" d="M 35.5,105.5 C 34.6591,112.465 34.3257,119.465 34.5,126.5C 33.8353,123.686 33.502,120.686 33.5,117.5C 33.2783,113.203 33.945,109.203 35.5,105.5 Z"/></g>
<g><path style="opacity:1" fill="#ef875b" d="M 112.5,105.5 C 111.89,106.391 111.557,107.391 111.5,108.5C 107.936,109.423 104.269,109.756 100.5,109.5C 101.051,112.807 101.384,116.14 101.5,119.5C 97.34,120.744 93.6733,122.744 90.5,125.5C 93.698,128.288 97.198,130.621 101,132.5C 101.498,135.817 101.665,139.15 101.5,142.5C 104.799,141.624 108.132,141.457 111.5,142C 112.38,143.356 112.714,144.856 112.5,146.5C 111.215,144.938 109.715,143.604 108,142.5C 105.566,143.322 103.066,143.656 100.5,143.5C 100.665,140.15 100.498,136.817 100,133.5C 96.2808,131.499 92.6141,129.499 89,127.5C 88.1685,123.857 89.6685,122.19 93.5,122.5C 93.5,121.167 93.5,119.833 93.5,118.5C 91.5,118.5 89.5,118.5 87.5,118.5C 88.1667,117.167 89.1667,116.167 90.5,115.5C 91.5862,115.38 92.2528,114.713 92.5,113.5C 92.1543,112.151 91.821,110.817 91.5,109.5C 92.4959,109.414 93.3292,109.748 94,110.5C 94.3333,112.167 94.6667,113.833 95,115.5C 95.414,115.043 95.914,114.709 96.5,114.5C 97.1667,115.5 97.8333,116.5 98.5,117.5C 98.9756,114.26 98.9756,110.927 98.5,107.5C 103.43,107.966 108.097,107.299 112.5,105.5 Z"/></g>
<g><path style="opacity:1" fill="#d8815e" d="M 143.5,109.5 C 142.782,111.137 142.616,112.803 143,114.5C 146.658,117.066 150.158,119.732 153.5,122.5C 149.586,120.543 145.586,118.543 141.5,116.5C 140.48,114.568 140.313,112.568 141,110.5C 141.671,109.748 142.504,109.414 143.5,109.5 Z"/></g>
<g><path style="opacity:1" fill="#22adf4" d="M 169.5,80.5 C 170.391,81.1098 171.391,81.4431 172.5,81.5C 178.417,90.2532 185.584,97.9199 194,104.5C 198.881,113.709 198.548,122.709 193,131.5C 191.729,132.883 190.229,133.883 188.5,134.5C 177.979,137.757 167.646,141.591 157.5,146C 150.215,149.588 147.049,147.421 148,139.5C 152.843,136.412 157.509,133.079 162,129.5C 163.481,124.819 162.314,121.152 158.5,118.5C 155.649,116.495 152.649,114.662 149.5,113C 148.226,112.023 148.226,111.189 149.5,110.5C 158.311,107.396 167.145,104.396 176,101.5C 175.023,95.7935 172.19,90.9601 167.5,87C 157.111,86.5169 147.444,88.6836 138.5,93.5C 136.45,93.9612 134.45,94.6279 132.5,95.5C 130.054,94.573 129.221,92.9063 130,90.5C 131.518,89.8366 132.685,88.8366 133.5,87.5C 140.139,85.5056 146.806,83.5056 153.5,81.5C 158.797,80.7255 164.13,80.3921 169.5,80.5 Z"/></g>
<g><path style="opacity:1" fill="#d9fbfe" d="M 185.5,112.5 C 175.809,111.051 173.143,114.885 177.5,124C 180.729,124.586 183.729,124.086 186.5,122.5C 186.5,119.167 186.5,115.833 186.5,112.5C 186.833,112.5 187.167,112.5 187.5,112.5C 187.5,112.833 187.5,113.167 187.5,113.5C 190.23,123.272 186.564,127.105 176.5,125C 172.229,119.922 172.563,115.255 177.5,111C 178.667,110.833 179.833,110.667 181,110.5C 183.008,110.307 184.508,110.974 185.5,112.5 Z"/></g>
<g><path style="opacity:1" fill="#fbfefd" d="M 185.5,112.5 C 185.833,112.5 186.167,112.5 186.5,112.5C 186.5,115.833 186.5,119.167 186.5,122.5C 183.729,124.086 180.729,124.586 177.5,124C 173.143,114.885 175.809,111.051 185.5,112.5 Z"/></g>
<g><path style="opacity:1" fill="#1cc873" d="M 57.5,136.5 C 57.3601,134.876 58.0267,133.71 59.5,133C 57.6161,132.784 55.9494,132.117 54.5,131C 56.531,128.757 58.8643,126.923 61.5,125.5C 62.8009,122.726 63.8009,119.893 64.5,117C 63.7307,113.73 61.7307,111.563 58.5,110.5C 58.3893,109.883 58.056,109.383 57.5,109C 53.022,108.533 48.6887,109.2 44.5,111C 43.6998,115.08 43.1998,119.247 43,123.5C 41.3991,119.017 41.0658,114.351 42,109.5C 43.7684,107.088 44.9351,104.421 45.5,101.5C 46.8734,101.657 48.2068,101.49 49.5,101C 50.8168,99.3409 52.4835,98.1743 54.5,97.5C 55.8222,100.238 57.3222,102.905 59,105.5C 65.7379,107.672 72.5712,109.172 79.5,110C 76.7028,113.967 73.7028,117.801 70.5,121.5C 69.8,125.041 69.1334,128.541 68.5,132C 71.8333,133.667 75.1667,135.333 78.5,137C 83.969,141.576 82.969,143.242 75.5,142C 73.8333,141.667 72.1667,141.333 70.5,141C 66.7687,137.946 62.4354,136.446 57.5,136.5 Z"/></g>
<g><path style="opacity:1" fill="#40b6ef" d="M 187.5,112.5 C 187.167,112.5 186.833,112.5 186.5,112.5C 186.167,112.5 185.833,112.5 185.5,112.5C 184.508,110.974 183.008,110.307 181,110.5C 179.833,110.667 178.667,110.833 177.5,111C 172.563,115.255 172.229,119.922 176.5,125C 186.564,127.105 190.23,123.272 187.5,113.5C 188.5,113.5 189.5,113.5 190.5,113.5C 190.665,116.85 190.498,120.183 190,123.5C 185.53,127.122 180.363,128.289 174.5,127C 173.024,124.357 171.024,122.19 168.5,120.5C 166.958,117.414 167.458,114.747 170,112.5C 170.414,112.957 170.914,113.291 171.5,113.5C 174.259,111.546 177.092,109.879 180,108.5C 182.498,108.917 184.998,109.251 187.5,109.5C 187.5,110.5 187.5,111.5 187.5,112.5 Z"/></g>
<g><path style="opacity:1" fill="#cf8363" d="M 153.5,122.5 C 155.567,122.532 156.9,123.532 157.5,125.5C 156.677,127.577 155.344,129.244 153.5,130.5C 151.973,130.427 150.973,131.094 150.5,132.5C 147.55,133.308 144.883,134.642 142.5,136.5C 142.771,134.57 143.771,133.236 145.5,132.5C 147.963,130.097 150.963,128.43 154.5,127.5C 155.652,125.603 155.319,123.936 153.5,122.5 Z"/></g>
<g><path style="opacity:1" fill="#0a402a" d="M 39.5,125.5 C 41.0551,128.404 43.0551,131.07 45.5,133.5C 41.5881,132.256 39.5881,129.589 39.5,125.5 Z"/></g>
<g><path style="opacity:1" fill="#2ec076" d="M 45.5,101.5 C 44.9351,104.421 43.7684,107.088 42,109.5C 41.0658,114.351 41.3991,119.017 43,123.5C 43.1998,119.247 43.6998,115.08 44.5,111C 48.6887,109.2 53.022,108.533 57.5,109C 58.056,109.383 58.3893,109.883 58.5,110.5C 61.7307,111.563 63.7307,113.73 64.5,117C 63.8009,119.893 62.8009,122.726 61.5,125.5C 58.8643,126.923 56.531,128.757 54.5,131C 55.9494,132.117 57.6161,132.784 59.5,133C 58.0267,133.71 57.3601,134.876 57.5,136.5C 53.3967,135.91 49.3967,134.91 45.5,133.5C 43.0551,131.07 41.0551,128.404 39.5,125.5C 39.334,120.156 39.5006,114.823 40,109.5C 41.1392,106.177 42.9725,103.51 45.5,101.5 Z"/></g>
<g><path style="opacity:1" fill="#d1fce7" d="M 60.5,113.5 C 63.2793,117.158 62.9459,120.658 59.5,124C 54.6222,126.621 50.6222,125.787 47.5,121.5C 50.9472,123.554 54.6138,123.887 58.5,122.5C 60.2603,119.788 60.927,116.788 60.5,113.5 Z"/></g>
<g><path style="opacity:1" fill="#fafdfc" d="M 60.5,113.5 C 60.927,116.788 60.2603,119.788 58.5,122.5C 54.6138,123.887 50.9472,123.554 47.5,121.5C 47.8394,112.145 52.1727,109.478 60.5,113.5 Z"/></g>
<g><path style="opacity:1" fill="#c9f9e3" d="M 58.5,110.5 C 59.1667,111.5 59.8333,112.5 60.5,113.5C 52.1727,109.478 47.8394,112.145 47.5,121.5C 45.4322,112.339 49.0988,108.672 58.5,110.5 Z"/></g>
<g><path style="opacity:1" fill="#ef8b5d" d="M 145.5,132.5 C 143.771,133.236 142.771,134.57 142.5,136.5C 141.596,137.209 141.263,138.209 141.5,139.5C 142.457,143.997 142.457,148.33 141.5,152.5C 140.978,149.201 140.645,145.867 140.5,142.5C 140.296,139.094 140.962,135.928 142.5,133C 141.892,132.13 141.059,131.63 140,131.5C 138.433,132.856 136.6,133.523 134.5,133.5C 134.942,137.154 135.276,140.821 135.5,144.5C 132.38,144.844 129.547,144.177 127,142.5C 124.938,144.733 122.771,146.733 120.5,148.5C 121.172,145.657 122.505,143.157 124.5,141C 127.438,141.446 130.438,141.946 133.5,142.5C 132.995,139.159 132.828,135.826 133,132.5C 136.472,130.521 139.638,128.188 142.5,125.5C 139.282,123.301 136.116,120.967 133,118.5C 132.922,115.43 133.422,112.43 134.5,109.5C 131.159,110.005 127.826,110.172 124.5,110C 122.793,106.752 120.96,103.585 119,100.5C 117.989,99.6634 116.822,99.33 115.5,99.5C 115.545,102.077 114.545,104.077 112.5,105.5C 112.754,102.986 113.587,100.652 115,98.5C 115.725,97.9415 116.558,97.6082 117.5,97.5C 121.237,100.273 123.571,103.939 124.5,108.5C 128.5,108.5 132.5,108.5 136.5,108.5C 136.335,111.85 136.502,115.183 137,118.5C 139.486,120.157 141.986,121.824 144.5,123.5C 145.452,125.045 145.785,126.712 145.5,128.5C 144.5,128.5 143.5,128.5 142.5,128.5C 142.088,130.973 143.088,132.306 145.5,132.5 Z"/></g>
<g><path style="opacity:1" fill="#0d2f44" d="M 158.5,118.5 C 162.314,121.152 163.481,124.819 162,129.5C 157.509,133.079 152.843,136.412 148,139.5C 147.049,147.421 150.215,149.588 157.5,146C 167.646,141.591 177.979,137.757 188.5,134.5C 187.251,136.136 185.584,137.303 183.5,138C 177.481,138.998 172.148,141.331 167.5,145C 160.931,146.747 154.265,147.914 147.5,148.5C 146.756,144.881 146.423,141.215 146.5,137.5C 147.9,136.9 148.9,135.9 149.5,134.5C 152.764,132.954 156.098,131.288 159.5,129.5C 160.887,125.614 160.554,121.947 158.5,118.5 Z"/></g>
<g><path style="opacity:1" fill="#163523" d="M 85.5,110.5 C 86.5983,111.601 86.765,112.934 86,114.5C 83.1667,116 80.3333,117.5 77.5,119C 73.1533,122.084 72.4866,125.751 75.5,130C 79.5522,130.197 82.8855,131.697 85.5,134.5C 85.4326,135.959 85.7659,137.292 86.5,138.5C 82.5193,137.367 78.8526,135.533 75.5,133C 73.3696,130.739 72.0362,128.072 71.5,125C 73.015,121.471 75.3483,118.471 78.5,116C 81.7054,115.088 84.0388,113.255 85.5,110.5 Z"/></g>
<g><path style="opacity:1" fill="#22262c" d="M 198.5,148.5 C 195.098,148.658 191.764,148.324 188.5,147.5C 186.661,145.803 184.828,144.137 183,142.5C 172.343,145.746 161.843,149.413 151.5,153.5C 147.784,152.166 145.617,149.499 145,145.5C 144.578,143.645 144.078,141.811 143.5,140C 144.13,138.69 145.13,137.856 146.5,137.5C 146.423,141.215 146.756,144.881 147.5,148.5C 154.265,147.914 160.931,146.747 167.5,145C 172.148,141.331 177.481,138.998 183.5,138C 185.584,137.303 187.251,136.136 188.5,134.5C 190.229,133.883 191.729,132.883 193,131.5C 198.548,122.709 198.881,113.709 194,104.5C 185.584,97.9199 178.417,90.2532 172.5,81.5C 171.922,79.6198 170.588,78.6198 168.5,78.5C 162.198,77.627 155.865,77.2936 149.5,77.5C 158.511,73.3856 167.511,73.5522 176.5,78C 179.762,80.592 182.262,83.7587 184,87.5C 188.857,91.601 193.524,95.9343 198,100.5C 203.839,109.541 205.005,119.207 201.5,129.5C 203.231,133.683 203.731,138.017 203,142.5C 202.021,144.968 200.521,146.968 198.5,148.5 Z"/></g>
<g><path style="opacity:1" fill="#3a2116" d="M 90.5,136.5 C 91.6491,136.791 92.3158,137.624 92.5,139C 90.6649,143.979 90.3315,148.979 91.5,154C 95.9558,153.575 100.289,152.408 104.5,150.5C 106.073,150.752 107.406,151.418 108.5,152.5C 108.5,153.167 108.5,153.833 108.5,154.5C 104.561,151.821 100.894,152.154 97.5,155.5C 95.5992,155.433 93.7659,155.767 92,156.5C 90.3468,156.18 89.3468,155.18 89,153.5C 88.8606,147.778 89.3606,142.111 90.5,136.5 Z"/></g>
<g><path style="opacity:1" fill="#d47f5b" d="M 87.5,118.5 C 84.9301,120.723 82.2634,123.056 79.5,125.5C 83.9544,129.142 88.7877,132.142 94,134.5C 94.5627,140.267 94.0627,145.934 92.5,151.5C 96.8002,151.05 100.967,150.05 105,148.5C 107.756,148.424 108.923,149.757 108.5,152.5C 107.406,151.418 106.073,150.752 104.5,150.5C 100.289,152.408 95.9558,153.575 91.5,154C 90.3315,148.979 90.6649,143.979 92.5,139C 92.3158,137.624 91.6491,136.791 90.5,136.5C 87.2463,133.529 83.5796,131.029 79.5,129C 76.8333,126.667 76.8333,124.333 79.5,122C 82.0639,120.604 84.7305,119.437 87.5,118.5 Z"/></g>
<g><path style="opacity:1" fill="#0e3925" d="M 45.5,133.5 C 49.3967,134.91 53.3967,135.91 57.5,136.5C 66.05,140.931 75.05,144.597 84.5,147.5C 85.8007,145.556 86.8007,143.556 87.5,141.5C 87.6621,143.527 87.4955,145.527 87,147.5C 86.1074,148.081 85.1074,148.415 84,148.5C 71.2119,145.126 58.7119,140.96 46.5,136C 45.7476,135.329 45.4142,134.496 45.5,133.5 Z"/></g>
<g><path style="opacity:1" fill="#fa8150" d="M 87.5,118.5 C 89.5,118.5 91.5,118.5 93.5,118.5C 93.5,119.833 93.5,121.167 93.5,122.5C 89.6685,122.19 88.1685,123.857 89,127.5C 92.6141,129.499 96.2808,131.499 100,133.5C 100.498,136.817 100.665,140.15 100.5,143.5C 103.066,143.656 105.566,143.322 108,142.5C 109.715,143.604 111.215,144.938 112.5,146.5C 113.932,148.327 115.599,149.994 117.5,151.5C 118.288,150.23 119.288,149.23 120.5,148.5C 122.771,146.733 124.938,144.733 127,142.5C 129.547,144.177 132.38,144.844 135.5,144.5C 135.276,140.821 134.942,137.154 134.5,133.5C 136.6,133.523 138.433,132.856 140,131.5C 141.059,131.63 141.892,132.13 142.5,133C 140.962,135.928 140.296,139.094 140.5,142.5C 140.645,145.867 140.978,149.201 141.5,152.5C 138.468,151.489 135.468,150.322 132.5,149C 130.527,148.505 128.527,148.338 126.5,148.5C 125.551,150.737 124.884,153.071 124.5,155.5C 122.281,156.828 120.948,158.828 120.5,161.5C 117.05,162.244 115.384,160.91 115.5,157.5C 114.5,157.5 113.5,157.5 112.5,157.5C 112.226,155.019 110.893,153.353 108.5,152.5C 108.923,149.757 107.756,148.424 105,148.5C 100.967,150.05 96.8002,151.05 92.5,151.5C 94.0627,145.934 94.5627,140.267 94,134.5C 88.7877,132.142 83.9544,129.142 79.5,125.5C 82.2634,123.056 84.9301,120.723 87.5,118.5 Z"/></g>
<g><path style="opacity:1" fill="#87868b" d="M 188.5,147.5 C 191.764,148.324 195.098,148.658 198.5,148.5C 195.696,149.638 192.696,149.805 189.5,149C 188.944,148.617 188.611,148.117 188.5,147.5 Z"/></g>
<g><path style="opacity:1" fill="#d0805e" d="M 141.5,139.5 C 143.9,143.792 144.734,148.458 144,153.5C 141.919,154.333 139.752,154.333 137.5,153.5C 135.082,152.134 132.416,151.134 129.5,150.5C 127.42,151.579 126.087,153.245 125.5,155.5C 125.167,155.5 124.833,155.5 124.5,155.5C 124.884,153.071 125.551,150.737 126.5,148.5C 128.527,148.338 130.527,148.505 132.5,149C 135.468,150.322 138.468,151.489 141.5,152.5C 142.457,148.33 142.457,143.997 141.5,139.5 Z"/></g>
<g><path style="opacity:0.999" fill="#c1c3c2" d="M 1.5,100.5 C 2.56764,101.434 3.90097,101.768 5.5,101.5C 6.10805,115.14 5.44138,128.64 3.5,142C 4.87125,144.319 5.53792,146.819 5.5,149.5C 13.8333,149.5 22.1667,149.5 30.5,149.5C 38.6146,157.218 46.9479,157.384 55.5,150C 62.7862,150.962 69.7862,153.128 76.5,156.5C 77.1667,159.5 77.8333,162.5 78.5,165.5C 80.1881,167.029 81.5214,168.863 82.5,171C 90.3225,175.002 97.4892,174.169 104,168.5C 112.638,178.797 121.638,179.131 131,169.5C 132.823,170.651 134.656,171.818 136.5,173C 149.886,175.435 156.886,169.935 157.5,156.5C 164.948,154.573 172.282,152.24 179.5,149.5C 182.726,150.446 185.726,151.946 188.5,154C 195.654,155.55 201.654,153.717 206.5,148.5C 205.701,151.43 205.368,154.43 205.5,157.5C 214.221,157.775 222.887,157.442 231.5,156.5C 213.552,203.116 179.885,230.116 130.5,237.5C 122.833,237.5 115.167,237.5 107.5,237.5C 46.2934,227.293 10.2934,191.627 -0.5,130.5C -0.5,123.167 -0.5,115.833 -0.5,108.5C 0.166667,105.833 0.833333,103.167 1.5,100.5 Z"/></g>
<g><path style="opacity:1" fill="#4b2315" d="M 137.5,153.5 C 132.94,151.488 128.94,152.155 125.5,155.5C 126.087,153.245 127.42,151.579 129.5,150.5C 132.416,151.134 135.082,152.134 137.5,153.5 Z"/></g>
<g><path style="opacity:1" fill="#232527" d="M 107.5,84.5 C 106.626,85.5251 105.459,86.1918 104,86.5C 100.598,85.2741 97.0981,84.6074 93.5,84.5C 90.5872,81.6345 86.9206,80.3012 82.5,80.5C 82.1667,80.5 81.8333,80.5 81.5,80.5C 81.0825,79.7784 80.4158,79.2784 79.5,79C 66.3254,76.0904 57.6587,80.9237 53.5,93.5C 52.1667,93.5 50.8333,93.5 49.5,93.5C 49.5,94.5 49.5,95.5 49.5,96.5C 47.8333,96.5 46.1667,96.5 44.5,96.5C 44.6495,97.552 44.4828,98.552 44,99.5C 43.3333,98.1667 42.6667,98.1667 42,99.5C 40.4859,103.714 39.1525,108.047 38,112.5C 37.3333,116.167 37.3333,119.833 38,123.5C 38.2784,124.416 38.7784,125.082 39.5,125.5C 39.5881,129.589 41.5881,132.256 45.5,133.5C 45.4142,134.496 45.7476,135.329 46.5,136C 58.7119,140.96 71.2119,145.126 84,148.5C 85.1074,148.415 86.1074,148.081 87,147.5C 87.4955,145.527 87.6621,143.527 87.5,141.5C 87.4431,140.391 87.1098,139.391 86.5,138.5C 85.7659,137.292 85.4326,135.959 85.5,134.5C 87.0495,135.441 88.7162,136.107 90.5,136.5C 89.3606,142.111 88.8606,147.778 89,153.5C 89.3468,155.18 90.3468,156.18 92,156.5C 93.7659,155.767 95.5992,155.433 97.5,155.5C 97.4346,155.938 97.6012,156.272 98,156.5C 100.235,154.798 102.735,153.798 105.5,153.5C 105.768,155.099 105.434,156.432 104.5,157.5C 103.624,157.369 102.957,157.702 102.5,158.5C 99.5885,168.547 93.7551,170.88 85,165.5C 82.3193,161.416 81.8193,157.083 83.5,152.5C 73.7661,149.417 64.0995,146.084 54.5,142.5C 50.502,149.379 44.8353,151.213 37.5,148C 32.5753,142.912 32.242,137.412 36.5,131.5C 35.5435,129.925 34.8769,128.258 34.5,126.5C 34.3257,119.465 34.6591,112.465 35.5,105.5C 36.0722,103.745 36.9055,102.078 38,100.5C 46.2055,93.9619 53.3722,86.4619 59.5,78C 67.3556,72.7671 75.689,72.1004 84.5,76C 92.3989,78.3534 100.066,81.1868 107.5,84.5 Z"/></g>
<g><path style="opacity:1" fill="#094025" d="M 82.5,80.5 C 86.9206,80.3012 90.5872,81.6345 93.5,84.5C 89.6483,83.3953 85.9816,82.062 82.5,80.5 Z"/></g>
<g><path style="opacity:1" fill="#292424" d="M 150.5,132.5 C 150.167,133.167 149.833,133.833 149.5,134.5C 148.9,135.9 147.9,136.9 146.5,137.5C 145.13,137.856 144.13,138.69 143.5,140C 144.078,141.811 144.578,143.645 145,145.5C 145.617,149.499 147.784,152.166 151.5,153.5C 153.444,164.89 148.777,169.556 137.5,167.5C 135.084,164.337 132.918,161.004 131,157.5C 127.955,161.756 124.788,165.923 121.5,170C 117.526,172.364 114.026,171.864 111,168.5C 108.822,164.806 106.655,161.139 104.5,157.5C 105.434,156.432 105.768,155.099 105.5,153.5C 102.735,153.798 100.235,154.798 98,156.5C 97.6012,156.272 97.4346,155.938 97.5,155.5C 100.894,152.154 104.561,151.821 108.5,154.5C 110.81,157.102 112.643,160.102 114,163.5C 115.733,165.602 117.733,165.935 120,164.5C 121.766,161.586 123.266,158.586 124.5,155.5C 124.833,155.5 125.167,155.5 125.5,155.5C 128.94,152.155 132.94,151.488 137.5,153.5C 139.752,154.333 141.919,154.333 144,153.5C 144.734,148.458 143.9,143.792 141.5,139.5C 141.263,138.209 141.596,137.209 142.5,136.5C 144.883,134.642 147.55,133.308 150.5,132.5 Z"/></g>
<g><path style="opacity:1" fill="#e08159" d="M 108.5,152.5 C 110.893,153.353 112.226,155.019 112.5,157.5C 113.5,157.5 114.5,157.5 115.5,157.5C 115.384,160.91 117.05,162.244 120.5,161.5C 120.948,158.828 122.281,156.828 124.5,155.5C 123.266,158.586 121.766,161.586 120,164.5C 117.733,165.935 115.733,165.602 114,163.5C 112.643,160.102 110.81,157.102 108.5,154.5C 108.5,153.833 108.5,153.167 108.5,152.5 Z"/></g>
</svg>
