<?xml version="1.0" encoding="UTF-8"?>
<svg id="a" data-name="APPLIQUES" xmlns="http://www.w3.org/2000/svg" viewBox="0 0 220.24 200.41">
  <g id="b" data-name="AK14">
    <g>
      <path id="c" data-name="path6" d="M1.44,172.04L90.59,17.54c1.93-3.34,5.49-5.39,9.34-5.39s7.41,2.06,9.34,5.39l89.15,154.5c1.93,3.34,1.93,7.45,0,10.79-1.93,3.34-5.49,5.39-9.34,5.39H10.78c-3.85,0-7.41-2.06-9.34-5.39-1.93-3.34-1.93-7.45,0-10.79h0Z" style="fill: #f9ba17; stroke-width: 0px;"/>
      <path id="d" data-name="path8" d="M10.89,183.84h178.36c2.3,0,4.43-1.23,5.59-3.23,1.15-2,1.15-4.46,0-6.45L105.66,19.7c-1.15-2-3.28-3.23-5.59-3.23s-4.43,1.23-5.59,3.23L5.3,174.17c-1.15,2-1.15,4.46,0,6.45,1.15,2,3.28,3.23,5.59,3.23h0Z" style="fill: #f8190d; stroke-width: 0px;"/>
      <polygon id="e" data-name="polygon10" points="99.93 35.88 177.88 170.96 21.99 170.96 99.93 35.88" style="fill: #666666; stroke-width: 0px;"/>
      <ellipse id="f" data-name="circle12" cx="99.93" cy="150.77" rx="8.93" ry="8.93" style="stroke-width: 0px;"/>
      <path id="g" data-name="path14" d="M105.36,131.78l6.41-58.47c.52-4.77-1.85-9.39-6.02-11.74-4.18-2.35-9.35-1.99-13.15.93s-5.5,7.82-4.31,12.47l6.66,58.03c.21,1.87,1.41,3.48,3.13,4.22,1.72.75,3.71.51,5.22-.61,1.51-1.12,2.3-2.96,2.08-4.83" style="stroke-width: 0px;"/>
    </g>
  </g>
</svg>
