<?xml version="1.0" encoding="utf-8"?>
<!-- Generator: Adobe Illustrator 28.1.0, SVG Export Plug-In . SVG Version: 6.00 Build 0)  -->
<svg version="1.1"
	 id="svg2" xmlns:cc="http://creativecommons.org/ns#" xmlns:sodipodi="http://sodipodi.sourceforge.net/DTD/sodipodi-0.dtd" xmlns:svg="http://www.w3.org/2000/svg" xmlns:dc="http://purl.org/dc/elements/1.1/" xmlns:inkscape="http://www.inkscape.org/namespaces/inkscape" xmlns:rdf="http://www.w3.org/1999/02/22-rdf-syntax-ns#" sodipodi:docname="AJAX.svg"
	 xmlns="http://www.w3.org/2000/svg" xmlns:xlink="http://www.w3.org/1999/xlink" x="0px" y="0px" viewBox="0 100 500 200"
	 style="enable-background:new 0 0 498.3 435.4;" xml:space="preserve">
<style type="text/css">
	.st0{fill:#F9BA17;}
	.st1{fill:#E3001B;}
</style>
<sodipodi:namedview  bordercolor="#666666" borderopacity="1" fit-margin-bottom="0" fit-margin-left="0" fit-margin-right="0" fit-margin-top="0" gridtolerance="10" guidetolerance="10" id="namedview4" inkscape:bbox-nodes="true" inkscape:bbox-paths="true" inkscape:current-layer="g3006" inkscape:cx="319.31222" inkscape:cy="139.02752" inkscape:guide-bbox="true" inkscape:object-nodes="true" inkscape:object-paths="true" inkscape:pageopacity="0" inkscape:pageshadow="2" inkscape:snap-bbox="true" inkscape:snap-bbox-edge-midpoints="true" inkscape:snap-bbox-midpoints="true" inkscape:snap-center="true" inkscape:snap-grids="false" inkscape:snap-intersection-paths="true" inkscape:snap-midpoints="true" inkscape:snap-object-midpoints="true" inkscape:snap-page="false" inkscape:snap-smooth-nodes="true" inkscape:snap-to-guides="false" inkscape:window-height="1001" inkscape:window-maximized="1" inkscape:window-width="1280" inkscape:window-x="-8" inkscape:window-y="-8" inkscape:zoom="0.6068262" objecttolerance="10" pagecolor="#ffffff" showgrid="false" showguides="true">
	</sodipodi:namedview>
<g id="layer1" transform="translate(-0.75000017,-113.81403)" inkscape:groupmode="layer" inkscape:label="Calque">
</g>
<g id="g3917" transform="translate(-31.175072,-37.076527)">
	<g id="g3006">
		<path id="path2988" inkscape:connector-curvature="0" sodipodi:nodetypes="ccccccc" class="st0" d="M49.9,472.5
			c-14.2-0.5-23.4-13.7-16.1-28L262,49.3c10.5-15.9,26.2-16.1,36.3-1.5l228.2,395.3c7.7,14.8-0.1,27.1-16.8,29.1L49.9,472.5z"/>
		<g id="g3895" transform="translate(0.2312726,0.41679355)">
			<path id="path3760" inkscape:connector-curvature="0" sodipodi:nodetypes="ccccccc" class="st1" d="M48,462.7
				c-7.9-2.4-9-7.3-7.6-13.1l229-396.7c10-12.6,15.6-6.8,21,0l228.1,395c2.3,7,2.2,13.1-8.6,14.9L48,462.7z"/>
			<g id="g3875">
				<path id="path3764" inkscape:connector-curvature="0" sodipodi:nodetypes="cccc" class="st0" d="M94.3,429.3l184.8-323.1
					l184.3,322.7L94.3,429.3z"/>
				<g id="g3857">
					<path id="path3768" inkscape:connector-curvature="0" d="M118.4,400.7l-4.1,10.5h319.9l-4.3-10.4L118.4,400.7z"/>
					<g id="g3841">
						<g id="g3800" transform="translate(1.1370856,-0.80386518)">
							<path id="path3788" inkscape:connector-curvature="0" sodipodi:nodetypes="cccccccccccccccccccccc" d="M154.4,399.9v-19.3
								c-2.3-1.4-5.6-0.1-6-6v-20.9c0.3-5.1,2.6-4.9,4.4-5.4l1.6-0.3l7.2-21.1c1.2-4.6,4.1-6.2,7.9-6.6l52.7-0.1
								c4.2,0.2,7.7,1.8,9.3,7.3l5.4,19.5c0.3,0.8,0.7,1.3,1.3,1.5c2.1,0.1,4.4-0.3,5.2,2.5l-0.2,21.8c0.2,7.2-3.5,6.4-6.7,6.7V401
								h-11.7v-20.5h-57.5V401h-13L154.4,399.9z"/>
							<path id="path3792" inkscape:connector-curvature="0" sodipodi:nodetypes="cccccccc" class="st0" d="M164.3,349h63.1v-13.3
								c-3-6.6-7.2-5.9-11.1-6.4h-43.8c-3.1,0.9-6.9,1.4-8.6,8.6V349h0.4"/>
						</g>
						<g id="g3829">
							<path id="path3772" inkscape:connector-curvature="0" sodipodi:nodetypes="cccccccccccccccc" d="M242.9,385.5l111.4-116.2
								l7.2,15.4l-65.9,68c-0.1,0.8-0.4,1.8,1,1.4l42.6-27.6l0.5,16.8l-52.7,32.4c-2,2-3.8,3.9,0.8,3l43.9-16.1l2.9,10.1l71-14.2
								l4.4,14.4l-102.3,14.2l-64.9,11.4L242.9,385.5z"/>
							<path id="path3816" inkscape:connector-curvature="0" sodipodi:nodetypes="ccccccc" d="M366,344.3c1.3-3.7,3.9-5.8,7.1-6.3
								c2.9-0.6,3.4,3.5,3.8,4c0.1,0.9,0.7,1,0.2,2.8c-0.6,1.2,0,2.5-2.4,3.6c-2.4,0.6-4,1-5.9-0.6C367.6,347,365.6,347.4,366,344.3
								L366,344.3z"/>
							<g id="g3820">
								<path id="path3804" inkscape:connector-curvature="0" sodipodi:nodetypes="cccccccccc" d="M307.7,308.9
									c1.3,0.8,0.9,1.9,1,2.9c0.1,0.8,0.1,1.7-0.6,1.7c-0.4,0.7-0.7,0.6-1.3,0.7c-0.7,0.1-1.4,0.1-1.8-0.5
									c-0.6-0.2-1.1-1.1-1.1-1.6c-0.1-1.7,0.4-1.4,0.6-2l0.8-1c0.4-0.2,0.6-0.5,1.2-0.4C307,308.8,307.4,308.1,307.7,308.9z"/>
								<path id="path3806" inkscape:connector-curvature="0" sodipodi:nodetypes="cccccc" d="M336.7,256.9c0.5-1.7,5.2,2.2,8.5,4.2
									c5,4.6,3.8,5.6,0.1,8.5c-1.5,0.7-2.4,2.4-9.1,1c-4.2-1.5-3.8-4.2-3.5-5.7C333.8,262,333.4,257.4,336.7,256.9L336.7,256.9z"
									/>
								<path id="path3808" inkscape:connector-curvature="0" sodipodi:nodetypes="ccccccc" d="M363.9,296.2c5-1.3,7.5-0.8,9.2,0.4
									c0.7,1.4,1.7,2.1,2,4.4c0.4,3.6-0.2,6.3-2.3,7.4c-1.8,1.3-3.3,0.3-4.8,0.1c-1.4,0.5-3.1-1-4.5-4.3
									C361.3,298.2,362.6,298.6,363.9,296.2L363.9,296.2z"/>
								<path id="path3810" inkscape:connector-curvature="0" sodipodi:nodetypes="ccccccc" d="M419.8,387.2c0.6-1.3,1.3-3.2,2-6.4
									c-1.6-1-3.7-3.1-5.9-2.1c-1.9,0.4-3.6,0.6-2.8,3.1c-0.7-0.4,0.2,1.9,0.2,2.5c0.1,0.7-0.1,2.2,1.2,2.5
									C416,387.3,417.8,387.1,419.8,387.2z"/>
								<path id="path3812" inkscape:connector-curvature="0" sodipodi:nodetypes="cccccc" d="M351.6,334.3c1.4,1.4,4.1,2,4.1,4.2
									c0.2,2.2-2.3,4.5-4.4,6.7c-2.4,1.1-2.1,1-2.8,0.1c-1.9-0.4-1.4-6.7-0.2-7.5C347.9,335,350.1,334.6,351.6,334.3z"/>
								<path id="path3814" inkscape:connector-curvature="0" sodipodi:nodetypes="cccccccc" d="M342.2,353.1
									c2.1-4.1,5.1-3.2,7.3-4.3c1.4-1.2,2.7,1.8,3.5,3.4l-0.4,3.2c0.2,2.8-1.2,3.4-2.3,4.1c-0.8,0.3-3.3,0.8-4-0.1
									c-1.1-1.2-5.6-0.3-4.6-4.7L342.2,353.1z"/>
								<path id="path3818" inkscape:connector-curvature="0" sodipodi:nodetypes="ccccccc" d="M394.7,341.3l1.3-4
									c1.2-1.8,4.5-0.4,5.8-0.6c1-0.1,2.3,0.8,2.4,4l-0.7,3.2c0.4,4-4.1,2.4-6.7,1.1C395.5,344.5,394.5,343.3,394.7,341.3z"/>
							</g>
						</g>
					</g>
				</g>
			</g>
		</g>
	</g>
</g>
</svg>
