<?xml version="1.0" encoding="UTF-8"?>
<svg id="a" data-name="APPLIQUES" xmlns="http://www.w3.org/2000/svg" viewBox="0 0 100 200.41">
  <g id="b" data-name="AK3">
    <g>
      <path id="c" data-name="path6" d="M1.45,172.07L90.66,17.53c1.93-3.34,5.49-5.4,9.34-5.4s7.42,2.06,9.34,5.4l89.21,154.55c1.93,3.34,1.93,7.45,0,10.79-1.93,3.34-5.49,5.4-9.34,5.4H10.79c-3.85,0-7.42-2.06-9.34-5.4s-1.93-7.45,0-10.79h0Z" style="fill: #f9ba17; stroke-width: 0px;"/>
      <path id="d" data-name="path8" d="M10.76,183.95h178.48c2.31,0,4.44-1.23,5.59-3.23,1.15-2,1.15-4.46,0-6.46L105.59,19.66c-1.15-2-3.28-3.23-5.59-3.23s-4.44,1.23-5.59,3.23L5.17,174.26c-1.15,2-1.15,4.46,0,6.46,1.15,2,3.28,3.23,5.59,3.23h0Z" style="fill: #f91a0e; stroke-width: 0px;"/>
      <polygon id="e" data-name="polygon10" points="100 35.87 178 171 22 171 100 35.87" style="fill: #f9ba17; stroke-width: 0px;"/>
      <polygon id="f" data-name="polygon12" points="119.28 82.17 106.25 82.17 106.25 112.77 121.28 135.72 121.28 165.67 133.85 165.65 133.85 136.15 119.28 110.77 119.28 82.17" style="fill: #000000; stroke-width: 0px;"/>
      <polygon id="g" data-name="polygon14" points="80.72 82.17 93.75 82.17 93.75 112.77 78.72 135.72 78.72 165.67 66.15 165.65 66.15 136.15 80.72 110.77 80.72 82.17" style="fill: #000000;stroke-width: 0px;"/>
    </g>
  </g>
</svg>
