<?xml version="1.0" encoding="utf-8"?>
<!-- Generator: Adobe Illustrator 28.1.0, SVG Export Plug-In . SVG Version: 6.00 Build 0)  -->
<svg version="1.1"
	 id="svg2" xmlns:cc="http://creativecommons.org/ns#" xmlns:sodipodi="http://sodipodi.sourceforge.net/DTD/sodipodi-0.dtd" xmlns:svg="http://www.w3.org/2000/svg" xmlns:dc="http://purl.org/dc/elements/1.1/" xmlns:inkscape="http://www.inkscape.org/namespaces/inkscape" xmlns:rdf="http://www.w3.org/1999/02/22-rdf-syntax-ns#" sodipodi:docname="AK22_French_road_sign.svg"
	 xmlns="http://www.w3.org/2000/svg" xmlns:xlink="http://www.w3.org/1999/xlink" x="0px" y="0px" viewBox="0 0 498.3 435.4"
	 style="enable-background:new 0 0 498.3 435.4;" xml:space="preserve">
<style type="text/css">
	.st0{fill:#F9BA17;}
	.st1{fill:#E3001B;}
	.st2{fill:#FF0000;}
</style>
<path id="path2988" inkscape:connector-curvature="0" sodipodi:nodetypes="ccccccc" class="st0" d="M18.7,435.4
	c-14.2-0.5-23.4-13.7-16.1-28L230.9,12.2c10.5-15.9,26.2-16.1,36.3-1.5L495.3,406c7.7,14.8-0.1,27.1-16.8,29.1L18.7,435.4z"/>
<path id="path3760" inkscape:connector-curvature="0" sodipodi:nodetypes="ccccccc" class="st1" d="M17,426c-7.9-2.4-9-7.3-7.6-13.1
	l229-396.7c10-12.6,15.6-6.8,21,0l228.1,395c2.3,7,2.2,13.1-8.6,14.9L17,426z"/>
<path id="path3764" inkscape:connector-curvature="0" sodipodi:nodetypes="cccc" class="st0" d="M63.3,392.7L248.2,69.5l184.3,322.7
	L63.3,392.7z"/>
<g>
	<path d="M363.6,315.6c-1.1-3.4-3.9-2.9-6.4-3c-0.7-0.3-1.3-0.8-1.6-1.9l-6.5-23.6c-2-6.8-6.2-8.7-11.3-8.9l-64.1,0.1
		c-4.5,0.4-8.1,2.4-9.6,8l-8.8,25.6l-1.9,0.4c-2.2,0.6-5.1,0.3-5.4,6.6v25.3c0.4,7.1,4.4,5.6,7.3,7.3v23.4l0.1,1.4h15.8v-24.9H341
		v24.9h14.2v-26.1c3.8-0.4,8.4,0.6,8.1-8.1L363.6,315.6z"/>
	<path d="M234.2,280.5c-0.6-0.2-1.1-0.7-1.4-1.6l-5.6-20.4c-1.7-5.8-5.4-7.5-9.7-7.7l-55.3,0.1c-3.9,0.3-7,2.1-8.3,6.9l-7.6,22.1
		l-1.7,0.3c-1.9,0.5-4.4,0.3-4.6,5.7v21.9c0.4,6.2,3.8,4.8,6.3,6.3v20.2l0.1,1.2h13.6V314h60.2v21.5h12.2v-22.5c3.3-0.4,7.2,0.6,7-7
		l0.2-22.8C238.8,280.2,236.4,280.6,234.2,280.5z"/>
	<path d="M257.1,254.1h48.5v17.3h9.9v-18.1c2.7-0.3,5.8,0.4,5.6-5.6l0.2-18.4c-0.7-2.3-2.7-2-4.4-2.1c-0.5-0.2-0.9-0.6-1.1-1.3
		l-4.5-16.4c-1.4-4.7-4.3-6.1-7.9-6.2l-44.6,0.1c-3.2,0.3-5.6,1.7-6.7,5.5l-6.1,17.8l-1.4,0.3c-1.5,0.4-3.5,0.2-3.7,4.6v17.6
		c0.3,5,3.1,3.9,5,5v16.3l0.1,1h11V254.1z"/>
	<path d="M185.3,220.8V232l0.1,0.7h7.6v-12h33.6v12h6.8v-12.6c1.8-0.2,4,0.3,3.9-3.9l0.1-12.7c-0.5-1.6-1.9-1.4-3.1-1.5
		c-0.3-0.1-0.6-0.4-0.8-0.9l-3.1-11.4c-1-3.3-3-4.2-5.4-4.3l-30.8,0.1c-2.2,0.2-3.9,1.2-4.6,3.8l-4.2,12.3l-0.9,0.2
		c-1,0.3-2.4,0.2-2.6,3.2v12.2C182,220.7,183.9,219.9,185.3,220.8z"/>
	<path d="M226.1,168.8v10.7l0.1,0.7h7.2v-11.4h32v11.4h6.5v-12c1.8-0.2,3.8,0.3,3.7-3.7l0.1-12.1c-0.5-1.5-1.8-1.3-2.9-1.4
		c-0.3-0.1-0.6-0.4-0.7-0.9l-3-10.8c-0.9-3.1-2.9-4-5.2-4.1l-29.4,0.1c-2.1,0.2-3.7,1.1-4.4,3.7l-4,11.8l-0.9,0.2
		c-1,0.3-2.3,0.2-2.5,3v11.6C223,168.8,224.8,168,226.1,168.8z"/>
</g>
<g>
	<path class="st0" d="M344,297c-3.7-8-8.7-7.1-13.5-7.8h-53.2c-3.8,1.1-8.4,1.7-10.4,10.4v13.6h0.5l-0.1,0H344V297z"/>
	<path class="st0" d="M211.1,260.2h-45.9c-3.3,0.9-7.2,1.5-9,9v11.7h0.5l-0.1,0h66.2V267C219.6,260.1,215.3,260.8,211.1,260.2z"/>
	<path class="st0" d="M307.8,227.5v-11.2c-2.6-5.6-6.1-5-9.4-5.4h-37c-2.6,0.8-5.8,1.2-7.2,7.2v9.4h0.4l-0.1,0H307.8z"/>
	<path class="st0" d="M266.8,151.2v-7.4c-1.7-3.7-4-3.3-6.2-3.6h-24.4c-1.7,0.5-3.8,0.8-4.8,4.8v6.2h0.2l-0.1,0H266.8z"/>
	<path class="st0" d="M221.5,190.8h-25.6c-1.8,0.5-4,0.8-5,5v6.5h0.3l-0.1,0H228v-7.8C226.2,190.7,223.8,191.1,221.5,190.8z"/>
</g>
<g>
	<ellipse transform="matrix(0.9732 -0.2298 0.2298 0.9732 -69.284 69.3942)" class="st2" cx="263.4" cy="332.2" rx="8.3" ry="8.3"/>
	
		<ellipse transform="matrix(0.7071 -0.7071 0.7071 0.7071 -133.1411 343.0154)" class="st2" cx="347.5" cy="332.2" rx="8.3" ry="8.3"/>
	
		<ellipse transform="matrix(0.7071 -0.7071 0.7071 0.7071 -165.406 195.4642)" class="st2" cx="153.2" cy="297.4" rx="7.1" ry="7.1"/>
	
		<ellipse transform="matrix(0.9732 -0.2298 0.2298 0.9732 -62.2867 59.8378)" class="st2" cx="225.8" cy="297.4" rx="7.1" ry="7.1"/>
	<circle class="st2" cx="251.7" cy="240.7" r="5.7"/>
	<circle class="st2" cx="310.2" cy="240.7" r="5.7"/>
	<path class="st2" d="M189.2,207.5c-2.2,0-4,1.8-4,4s1.8,4,4,4c2.2,0,4-1.8,4-4S191.4,207.5,189.2,207.5z"/>
	<circle class="st2" cx="229.7" cy="211.5" r="4"/>
	<circle class="st2" cx="229.8" cy="160" r="3.8"/>
	<path class="st2" d="M268.4,156.2c-2.1,0-3.8,1.7-3.8,3.8s1.7,3.8,3.8,3.8c2.1,0,3.8-1.7,3.8-3.8S270.5,156.2,268.4,156.2z"/>
</g>
</svg>
