<?xml version="1.0" encoding="utf-8"?>
<!-- Generator: Adobe Illustrator 28.1.0, SVG Export Plug-In . SVG Version: 6.00 Build 0)  -->
<svg version="1.1"
	 id="svg2" xmlns:cc="http://creativecommons.org/ns#" xmlns:sodipodi="http://sodipodi.sourceforge.net/DTD/sodipodi-0.dtd" xmlns:svg="http://www.w3.org/2000/svg" xmlns:dc="http://purl.org/dc/elements/1.1/" xmlns:inkscape="http://www.inkscape.org/namespaces/inkscape" xmlns:rdf="http://www.w3.org/1999/02/22-rdf-syntax-ns#" sodipodi:docname="AJAX1.svg"
	 xmlns="http://www.w3.org/2000/svg" xmlns:xlink="http://www.w3.org/1999/xlink" x="0px" y="0px" viewBox="0 0 574.1 505.5"
	 style="enable-background:new 0 0 574.1 505.5;" xml:space="preserve">
<style type="text/css">
	.st0{fill:#F9BA17;}
	.st1{fill:#F91A0E;}
	.st2{fill:none;}
</style>
<sodipodi:namedview  bordercolor="#666666" borderopacity="1" fit-margin-bottom="0.1" fit-margin-left="0.1" fit-margin-right="0.1" fit-margin-top="0.1" gridtolerance="10" guidetolerance="10" id="namedview18" inkscape:current-layer="svg2" inkscape:cx="165.85991" inkscape:cy="35.281759" inkscape:pageopacity="0" inkscape:pageshadow="2" inkscape:window-height="1004" inkscape:window-maximized="1" inkscape:window-width="1280" inkscape:window-x="-8" inkscape:window-y="-8" inkscape:zoom="0.77881765" objecttolerance="10" pagecolor="#ffffff" showgrid="false">
	</sodipodi:namedview>
<path id="path6" inkscape:connector-curvature="0" class="st0" d="M4.2,459l256-443.4C265.8,6,276,0.1,287.1,0.1
	c11.1,0,21.3,5.9,26.8,15.5l256,443.4c5.5,9.6,5.5,21.4,0,31c-5.5,9.6-15.8,15.5-26.8,15.5h-512c-11.1,0-21.3-5.9-26.8-15.5
	S-1.3,468.6,4.2,459L4.2,459z"/>
<path id="path8" inkscape:connector-curvature="0" class="st1" d="M31,493.1h512.2c6.6,0,12.7-3.5,16-9.3c3.3-5.7,3.3-12.8,0-18.5
	L303.1,21.7c-3.3-5.7-9.4-9.3-16-9.3c-6.6,0-12.7,3.5-16,9.3L14.9,465.3c-3.3,5.7-3.3,12.8,0,18.5C18.2,489.5,24.4,493.1,31,493.1
	L31,493.1z"/>
<polygon id="polygon10" class="st0" points="287.1,68.2 510.9,455.9 63.2,455.9 "/>
<line id="line14" class="st2" x1="206.1" y1="420.4" x2="206" y2="420.4"/>
<path id="path12" inkscape:connector-curvature="0" d="M186.6,368.2c9.9,10.8,9.9,27.5-0.2,38.3c-10,10.8-26.6,12-38.1,2.8
	l-16.5,12.5l37.1,27.3l13.2-11.2l57.6,0l80.7-78.8l0.8-61.9l47.3-61l-21.8-24.4l-15.4,12.1c11.4,11.2,12,29.5,1.4,41.5
	c-10.7,12-28.9,13.5-41.4,3.4L186.6,368.2L186.6,368.2z"/>
<polygon id="polygon22" class="st0" points="253.3,365 274.2,390.1 307.3,355.4 303.5,315.9 "/>
<polygon id="polygon24" class="st0" points="198.1,418.1 202.9,423.6 237.6,423.9 270.1,394.2 248.8,369.6 "/>
<circle id="circle26" sodipodi:cx="233.358" sodipodi:cy="294.939" sodipodi:rx="13.599" sodipodi:ry="13.599" cx="168.1" cy="388.7" r="21.9">
</circle>
<circle id="circle28" sodipodi:cx="350.88" sodipodi:cy="338.073" sodipodi:rx="14.708" sodipodi:ry="14.708" cx="311.1" cy="247" r="23.7">
</circle>
</svg>
