<?xml version="1.0" encoding="utf-8"?>
<!-- Generator: Adobe Illustrator 28.1.0, SVG Export Plug-In . SVG Version: 6.00 Build 0)  -->
<svg version="1.1"
	 id="svg2" xmlns:cc="http://creativecommons.org/ns#" xmlns:sodipodi="http://sodipodi.sourceforge.net/DTD/sodipodi-0.dtd" xmlns:svg="http://www.w3.org/2000/svg" xmlns:dc="http://purl.org/dc/elements/1.1/" xmlns:inkscape="http://www.inkscape.org/namespaces/inkscape" xmlns:rdf="http://www.w3.org/1999/02/22-rdf-syntax-ns#" sodipodi:docname="AK30_French_road_sign.svg"
	 xmlns="http://www.w3.org/2000/svg" xmlns:xlink="http://www.w3.org/1999/xlink" x="0px" y="0px" viewBox="0 0 498.3 435.4"
	 style="enable-background:new 0 0 498.3 435.4;" xml:space="preserve">
<style type="text/css">
	.st0{fill:#F9BA17;}
	.st1{fill:#E3001B;}
</style>
<g id="path2988">
	<path inkscape:connector-curvature="0" sodipodi:nodetypes="ccccccc" class="st0" d="M18.7,435.4c-14.2-0.5-23.4-13.7-16.1-28
		L230.9,12.2c10.5-15.9,26.2-16.1,36.3-1.5L495.3,406c7.7,14.8-0.1,27.1-16.8,29.1L18.7,435.4z"/>
</g>
<g id="path3760">
	<path inkscape:connector-curvature="0" sodipodi:nodetypes="ccccccc" class="st1" d="M17,426c-7.9-2.4-9-7.3-7.6-13.1l229-396.7
		c10-12.6,15.6-6.8,21,0l228.1,395c2.3,7,2.2,13.1-8.6,14.9L17,426z"/>
</g>
<g id="path3764">
	<path inkscape:connector-curvature="0" sodipodi:nodetypes="cccc" class="st0" d="M63.3,392.7L248.2,69.5l184.3,322.7L63.3,392.7z"
		/>
</g>
<g>
	<path d="M239,279.7h19.4v-9.4l-83.1,0l-43.4,44.4h-10.3c-5.4-0.1-9,2-8.8,8.3v28.8h19.6c0,0.7-0.1,1.3-0.1,2
		c0,14.3,11.6,25.8,25.8,25.8c14.3,0,25.8-11.6,25.8-25.8c0-0.7,0-1.3-0.1-2h75.2v-37.1H239V279.7z M170.1,314.7L170.1,314.7
		c-1.4-0.2-4.9-1-6.3-3.3c-0.8-1.3-0.8-2.9-0.1-4.8l26.2-26.9h39.3v35.1H170.1z"/>
	<path d="M271.4,263.9v5.3c0,0.2,0.2,0.4,0.4,0.4h73c0.2,0,0.4-0.2,0.4-0.4v-5.3c0-0.2-0.2-0.4-0.4-0.4h-73
		C271.6,263.5,271.4,263.7,271.4,263.9z"/>
	<rect x="206.9" y="184.6" width="85.1" height="6.4"/>
	<rect x="187.5" y="213.9" width="123.3" height="7.6"/>
	<rect x="242.9" y="240.6" width="85.1" height="4"/>
	<rect x="271.6" y="312.7" width="97.3" height="4"/>
	<rect x="271.1" y="349.4" width="111.3" height="4"/>
</g>
<g>
	<path class="st0" d="M158.2,380.7c-14.8,0-26.9-12-26.9-26.9s12-26.9,26.9-26.9s26.9,12,26.9,26.9S173,380.7,158.2,380.7z
		 M158.2,329.1c-13.7,0-24.8,11.1-24.8,24.8s11.1,24.8,24.8,24.8s24.8-11.1,24.8-24.8S171.8,329.1,158.2,329.1z"/>
</g>
</svg>
