<?xml version="1.0" encoding="utf-8"?>
<!-- Generator: Adobe Illustrator 28.1.0, SVG Export Plug-In . SVG Version: 6.00 Build 0)  -->
<svg version="1.1"
	 id="svg2" xmlns:sodipodi="http://sodipodi.sourceforge.net/DTD/sodipodi-0.dtd" xmlns:rdf="http://www.w3.org/1999/02/22-rdf-syntax-ns#" xmlns:inkscape="http://www.inkscape.org/namespaces/inkscape" xmlns:dc="http://purl.org/dc/elements/1.1/" xmlns:svg="http://www.w3.org/2000/svg" xmlns:cc="http://creativecommons.org/ns#" sodipodi:docname="France_road_sign_B9b.svg"
	 xmlns="http://www.w3.org/2000/svg" xmlns:xlink="http://www.w3.org/1999/xlink" x="0px" y="0px" viewBox="0 0 576 576"
	 style="enable-background:new 0 0 576 576;" xml:space="preserve">
<style type="text/css">
	.st0{fill:#F9BA17;}
	.st1{fill:#F91A0E;}
	.st2{fill:#FF0000;}
</style>
<g id="circle10">
	<circle class="st0" cx="288" cy="288" r="287"/>
	<path d="M288,576c-76.9,0-149.2-30-203.6-84.3C30,437.2,0,364.9,0,288S30,138.8,84.3,84.4S211.1,0,288,0s149.2,30,203.6,84.3
		C546,138.8,576,211.1,576,288s-30,149.2-84.3,203.6C437.2,546,364.9,576,288,576z M288,2C130.3,2,2,130.3,2,288s128.3,286,286,286
		s286-128.3,286-286S445.7,2,288,2z"/>
	<circle class="st1" cx="288" cy="288" r="274.8"/>
	<path class="st2" d="M288,562.9c-37.1,0-73.1-7.3-107-21.6c-16.3-6.9-32-15.4-46.7-25.3c-14.6-9.8-28.2-21.1-40.7-33.6
		C81.2,470,69.9,456.3,60,441.7C50.2,427,41.6,411.3,34.7,395c-14.3-33.9-21.6-69.9-21.6-107s7.3-73.1,21.6-107
		c6.9-16.3,15.4-32,25.3-46.7c9.8-14.6,21.1-28.2,33.6-40.7s26.1-23.7,40.7-33.6c14.7-9.9,30.4-18.5,46.7-25.3
		c33.9-14.3,69.9-21.6,107-21.6s73.1,7.3,107,21.6c16.3,6.9,32,15.4,46.7,25.3c14.6,9.8,28.2,21.1,40.7,33.6
		c12.4,12.4,23.7,26.1,33.6,40.7c9.9,14.7,18.5,30.4,25.3,46.7c14.3,33.9,21.6,69.9,21.6,107s-7.3,73.1-21.6,107
		c-6.9,16.3-15.4,32-25.3,46.7c-9.8,14.6-21.1,28.2-33.6,40.7c-12.4,12.4-26.1,23.7-40.7,33.6c-14.7,9.9-30.4,18.5-46.7,25.3
		C361.1,555.6,325.1,562.9,288,562.9z M288,13.3C136.5,13.3,13.3,136.5,13.3,288S136.5,562.7,288,562.7S562.7,439.5,562.7,288
		S439.5,13.3,288,13.3z"/>
	<circle class="st0" cx="288" cy="288" r="192.4"/>
	<path class="st2" d="M288,480.5c-26,0-51.2-5.1-74.9-15.1c-22.9-9.7-43.5-23.6-61.2-41.3c-17.7-17.7-31.6-38.3-41.3-61.2
		c-10-23.7-15.1-48.9-15.1-74.9s5.1-51.2,15.1-74.9c9.7-22.9,23.6-43.5,41.3-61.2s38.3-31.6,61.2-41.3c23.7-10,48.9-15.1,74.9-15.1
		s51.2,5.1,74.9,15.1c22.9,9.7,43.5,23.6,61.2,41.3s31.6,38.3,41.3,61.2c10,23.7,15.1,48.9,15.1,74.9s-5.1,51.2-15.1,74.9
		c-9.7,22.9-23.6,43.5-41.3,61.2c-17.7,17.7-38.3,31.6-61.2,41.3C339.2,475.4,314,480.5,288,480.5z M288,95.7
		C181.9,95.7,95.7,181.9,95.7,288S182,480.3,288,480.3c106.1,0,192.3-86.3,192.3-192.3C480.3,181.9,394.1,95.7,288,95.7z"/>
</g>
<g id="circle4300">
	<path inkscape:connector-curvature="0" d="M226.4,188.6c-15.3-0.5-19.8,19.7-8.2,23.7l11.3,4.2l-14.4,42.3
		c-7.1-3.2-14.8-4.8-22.5-4.8c-30.8,0-55.8,25-55.8,55.8l0,0c0,30.8,25,55.8,55.8,55.8l0,0c30.8,0,55.8-25,55.8-55.8l0,0
		c0-18.6-9.3-35.9-24.7-46.3L228,251l53,58.8c-1.1,2.4-1.7,5-1.7,7.7c0,10,8.1,18.2,18.2,18.2l2.2,12.5l-4.9,0.8l1.4,7.9l17.4-3
		L312,346l-4.3,0.7l-2.2-13c4.9-2.5,8.5-7,9.7-12.4l13.6-0.9c5.1,26.2,28,45.1,54.7,45.1c30.8,0,55.8-25,55.8-55.8l0,0
		c0-30.8-25-55.8-55.8-55.8l0,0c-8.8,0-17.4,2.1-25.2,6.1L337,229.2l4.9-14.5c6.8-1.6,12.9-3.2,15.4-6.3c3.6-4.5-1.2-10.7-8.7-10.5
		H319c-6.5-0.1-9,6.7-5,9l17.8,7.3l-3.4,10h-91.3l2.4-6.8l0,0l2-6.5c-6.7-3-20.8-4.7-18.9-10c0.6-5.9,21.3-2.4,28.4-3.8v-8.4
		L226.4,188.6L226.4,188.6z M233.9,233.6h91.7L303,300.2c-1.1-0.4-2.3-0.6-3.5-0.8l-2.1-12l4.2-0.7l-1.4-7.9l-17.4,3l1.4,7.9
		l4.9-0.8l2,11.5c-0.8,0.3-1.7,0.7-2.4,1.1l-56.6-62.9L233.9,233.6L233.9,233.6z M333.4,242.7l15.9,23.1
		c-13.6,10.5-21.6,26.8-21.6,44v0.1l-13.4,0.9c-0.6-1.6-1.5-3-2.5-4.4L333.4,242.7L333.4,242.7z M192.5,262.6
		c6.8,0,13.6,1.5,19.7,4.4l-9.9,29.1c-0.6,2.1-2.7,3.5-4.7,4.9c-1.6-1.1-3.6-1.6-5.5-1.6c-5.6,0-10.2,4.6-10.2,10.2l0,0
		c0,5.6,4.6,10.2,10.2,10.2l0,0c5.6,0,10.2-4.6,10.2-10.2l0,0c0-0.4,0-0.8-0.1-1.3c3.9-2.5,7.4-5.4,8.3-7.1l10.1-29.3
		c12,8.9,19,22.9,19.1,37.8c0,26-21.1,47.2-47.2,47.2l0,0c-26.1,0-47.2-21.1-47.2-47.2C145.4,283.7,166.5,262.6,192.5,262.6
		L192.5,262.6L192.5,262.6z M383.5,262.6c26.1,0,47.2,21.1,47.2,47.2l0,0c0,26-21.1,47.2-47.2,47.2l0,0c-22.2,0-41.3-15.5-46-37.1
		l39-2.7c1.9,2,4.6,3.1,7.3,3.1c5.6,0,10.2-4.6,10.2-10.2l0,0c0-4.9-3.5-9.1-8.3-10l-22.5-32.7C369.5,264.2,376.4,262.6,383.5,262.6
		L383.5,262.6z M354.2,272.8l21.4,31c-0.6,0.9-1.1,1.8-1.5,2.8l-37.8,2.6C336.4,295,343,281.6,354.2,272.8L354.2,272.8z"/>
</g>
</svg>
