<?xml version="1.0" encoding="UTF-8"?>
<svg id="a" data-name="APPLIQUES" xmlns="http://www.w3.org/2000/svg" viewBox="0 0 220.24 200.41">
  <g id="b" data-name="C12">
    <g>
      <g>
        <path d="M15.16,199.43h170.02c3.76,0,7.36-1.49,10.02-4.15,2.66-2.66,4.15-6.26,4.15-10.01V15.41c0-3.75-1.49-7.35-4.15-10.01-2.66-2.65-6.26-4.15-10.02-4.15H15.16c-3.76,0-7.36,1.49-10.02,4.15C2.49,8.05.99,11.65.99,15.41v169.86c0,3.75,1.49,7.35,4.15,10.01,2.66,2.65,6.26,4.15,10.02,4.15Z" style="fill: #fff; stroke-width: 0px;"/>
        <path d="M185.19,200.41H15.16c-4.05,0-7.86-1.58-10.72-4.44-2.86-2.86-4.44-6.66-4.44-10.71V15.41c0-4.05,1.58-7.85,4.44-10.71C7.3,1.84,11.11.26,15.16.26h170.02c4.05,0,7.86,1.58,10.72,4.44,2.86,2.86,4.44,6.66,4.44,10.71v169.86c0,4.05-1.58,7.85-4.44,10.71-2.86,2.86-6.67,4.44-10.72,4.44ZM15.16,2.24c-3.52,0-6.83,1.37-9.31,3.86-2.49,2.49-3.86,5.79-3.86,9.31v169.86c0,3.52,1.37,6.82,3.86,9.31,2.49,2.49,5.8,3.85,9.31,3.85h170.02c3.52,0,6.83-1.37,9.31-3.85,2.49-2.49,3.86-5.79,3.86-9.31V15.41c0-3.52-1.37-6.83-3.86-9.31-2.49-2.49-5.8-3.86-9.31-3.86H15.16Z" style="stroke-width: 0px;"/>
      </g>
      <g>
        <polyline points="12.99 187.69 187.6 187.69 187.6 12.88 12.99 12.88 12.99 187.69" style="fill: #039; stroke-width: 0px;"/>
        <path d="M187.6,188.04H12.99c-.19,0-.35-.16-.35-.35V12.88c0-.19.16-.35.35-.35h174.61c.19,0,.35.16.35.35v174.82c0,.19-.16.35-.35.35ZM13.34,187.34h173.9V13.23H13.34v174.11Z" style="fill: blue; stroke-width: 0px;"/>
      </g>
      <polygon points="163.41 93.5 100.95 29.13 41.91 94.22 42.52 96.2 75.89 96.2 75.89 173.17 125.65 173.17 129.86 172.62 129.86 95.71 162.13 95.71 163.41 93.5" style="fill: #fff; stroke-width: 0px;"/>
    </g>
  </g>
</svg>