<?xml version="1.0" encoding="UTF-8"?>
<svg id="a" data-name="APPLIQUES" xmlns="http://www.w3.org/2000/svg" viewBox="0 0 200.35 200.41">
  <g id="b" data-name="Calque 22">
    <g>
      <path d="M15.16,199.43h170.02c3.76,0,7.36-1.49,10.02-4.15,2.66-2.66,4.15-6.26,4.15-10.01V15.41c0-3.75-1.49-7.35-4.15-10.01-2.66-2.65-6.26-4.15-10.02-4.15H15.16c-3.76,0-7.36,1.49-10.02,4.15C2.49,8.05.99,11.65.99,15.41v169.86c0,3.75,1.49,7.35,4.15,10.01,2.66,2.65,6.26,4.15,10.02,4.15Z" style="fill: #fff; stroke-width: 0px;"/>
      <path d="M185.19,200.41H15.16c-4.05,0-7.86-1.58-10.72-4.44-2.86-2.86-4.44-6.66-4.44-10.71V15.41c0-4.05,1.58-7.85,4.44-10.71C7.3,1.84,11.11.26,15.16.26h170.02c4.05,0,7.86,1.58,10.72,4.44,2.86,2.86,4.44,6.66,4.44,10.71v169.86c0,4.05-1.58,7.85-4.44,10.71-2.86,2.86-6.67,4.44-10.72,4.44ZM15.16,2.24c-3.52,0-6.83,1.37-9.31,3.86-2.49,2.49-3.86,5.79-3.86,9.31v169.86c0,3.52,1.37,6.82,3.86,9.31,2.49,2.49,5.8,3.85,9.31,3.85h170.02c3.52,0,6.83-1.37,9.31-3.85,2.49-2.49,3.86-5.79,3.86-9.31V15.41c0-3.52-1.37-6.83-3.86-9.31-2.49-2.49-5.8-3.86-9.31-3.86H15.16Z" style="stroke-width: 0px;"/>
    </g>
    <g>
      <polygon points="13.17 187.26 187 187.26 187 187.26 187 13.27 187 13.27 13.17 13.27 13.17 13.27 13.17 187.26" style="fill: #039; stroke-width: 0px;"/>
      <path d="M187,187.34H13.17s-.09-.04-.09-.09V13.27s.04-.09.09-.09h173.84s.09.04.09.09v173.99s-.04.09-.09.09ZM13.26,187.17h173.66V13.36H13.26v173.81Z" style="fill: blue; stroke-width: 0px;"/>
    </g>
    <g>
      <rect x="31.25" y="31.36" width="137.68" height="137.8" style="fill: #fff; stroke-width: 0px;"/>
      <path d="M168.93,169.25H31.25s-.09-.04-.09-.09V31.36s.04-.09.09-.09h137.68s.09.04.09.09v137.8s-.04.09-.09.09ZM31.33,169.07h137.5V31.45H31.33v137.62Z" style="fill: blue; stroke-width: 0px;"/>
    </g>
    <path d="M136.81,158.51c-9.76,0-17.67-7.53-17.67-16.82v-59.12h-57.51v2.12c.37-.02.75-.04,1.13-.04,9.55,0,17.31,7.44,17.4,16.64h0v39.53h0c0,.06,0,.12,0,.17,0,9.29-7.91,16.82-17.67,16.82-.29,0-.58,0-.87-.02v2.1h75.35v-1.39c-.06,0-.12,0-.17,0Z" style="stroke-width: 0px;"/>
    <g>
      <ellipse cx="99.57" cy="58.65" rx="21.31" ry="20.8" style="stroke-width: 0px;"/>
      <path d="M99.57,79.55c-11.8,0-21.39-9.37-21.39-20.89s9.6-20.89,21.39-20.89,21.39,9.37,21.39,20.89-9.6,20.89-21.39,20.89ZM99.57,37.94c-11.7,0-21.22,9.29-21.22,20.72s9.52,20.72,21.22,20.72,21.22-9.29,21.22-20.72-9.52-20.72-21.22-20.72Z" style="fill: blue; stroke-width: 0px;"/>
    </g>
  </g>
</svg>