<?xml version="1.0" encoding="UTF-8"?>
<svg version="1.1" xmlns="http://www.w3.org/2000/svg" width="345" height="394">
<path d="M0 0 C0.84962311 0.00304138 1.69924622 0.00608276 2.57461548 0.00921631 C15.98831381 0.080001 28.73710735 0.96828143 41.75 4.4375 C42.57870605 4.64648926 43.40741211 4.85547852 44.26123047 5.07080078 C88.26933016 16.3322179 126.0785202 45.17212158 149.44384766 84.02124023 C157.31470965 97.50691389 163.24747602 111.56202226 167.5625 126.5625 C167.74546631 127.19309326 167.92843262 127.82368652 168.11694336 128.47338867 C172.02639291 143.08543124 173.30274373 157.62410654 173.1875 172.6875 C173.18293793 173.96193466 173.18293793 173.96193466 173.17828369 175.26211548 C173.107499 188.67581381 172.21921857 201.42460735 168.75 214.4375 C168.43651611 215.68055908 168.43651611 215.68055908 168.11669922 216.94873047 C156.85641859 260.95238894 128.01619929 298.77434645 89.16479492 322.1315918 C76.55470702 329.49431193 63.36667797 335.5253891 49.1875 339.125 C41.50592028 341.58829139 37.36098861 348.23000379 32.75 354.4375 C31.91192112 355.52320771 31.07084407 356.60660868 30.2265625 357.6875 C28.56407602 359.82166717 26.91662116 361.96608099 25.28125 364.12109375 C22.64312389 367.5908479 19.9499683 371.01577206 17.25 374.4375 C12.02824316 381.06214465 6.87845748 387.74046876 1.75 394.4375 C-1.70262396 393.28662535 -2.24094513 392.46545908 -4.33203125 389.59765625 C-4.92733643 388.79078369 -5.5226416 387.98391113 -6.13598633 387.15258789 C-6.77173584 386.27723389 -7.40748535 385.40187988 -8.0625 384.5 C-9.415271 382.6656366 -10.76946913 380.8323249 -12.125 379 C-12.81207031 378.06929688 -13.49914062 377.13859375 -14.20703125 376.1796875 C-17.83122158 371.31509551 -21.56421992 366.53619307 -25.31835938 361.77148438 C-27.96536113 358.40614006 -30.56600798 355.03260824 -33.03125 351.53125 C-33.46268311 350.93111084 -33.89411621 350.33097168 -34.33862305 349.71264648 C-35.46704771 348.13357227 -36.57252704 346.53816789 -37.67578125 344.94140625 C-41.17740267 341.53542851 -44.62752989 340.72525186 -49.25 339.4375 C-50.7453939 338.93643666 -52.23641624 338.4221277 -53.72265625 337.89453125 C-54.46870117 337.62979004 -55.21474609 337.36504883 -55.98339844 337.09228516 C-65.798991 333.54262118 -75.09340747 329.44545176 -84.25 324.4375 C-84.87326172 324.10024902 -85.49652344 323.76299805 -86.13867188 323.41552734 C-125.3486865 301.92346157 -153.74298187 264.02591945 -166.42797852 221.51831055 C-166.63737061 220.79039307 -166.8467627 220.06247559 -167.0625 219.3125 C-167.24546631 218.68190674 -167.42843262 218.05131348 -167.61694336 217.40161133 C-171.52639291 202.78956876 -172.80274373 188.25089346 -172.6875 173.1875 C-172.68445862 172.33787689 -172.68141724 171.48825378 -172.67828369 170.61288452 C-172.607499 157.19918619 -171.71921857 144.45039265 -168.25 131.4375 C-168.04101074 130.60879395 -167.83202148 129.78008789 -167.61669922 128.92626953 C-156.3552821 84.91816984 -127.51537842 47.1089798 -88.66625977 23.74365234 C-75.18058611 15.87279035 -61.12547774 9.94002398 -46.125 5.625 C-45.49440674 5.44203369 -44.86381348 5.25906738 -44.21411133 5.07055664 C-29.60206876 1.16110709 -15.06339346 -0.11524373 0 0 Z " fill="#FC504F" transform="translate(172.25,-0.4375)"/>
<path d="M0 0 C0.84962311 0.00304138 1.69924622 0.00608276 2.57461548 0.00921631 C15.98831381 0.080001 28.73710735 0.96828143 41.75 4.4375 C42.57870605 4.64648926 43.40741211 4.85547852 44.26123047 5.07080078 C88.26933016 16.3322179 126.0785202 45.17212158 149.44384766 84.02124023 C157.31470965 97.50691389 163.24747602 111.56202226 167.5625 126.5625 C167.74546631 127.19309326 167.92843262 127.82368652 168.11694336 128.47338867 C172.02639291 143.08543124 173.30274373 157.62410654 173.1875 172.6875 C173.18293793 173.96193466 173.18293793 173.96193466 173.17828369 175.26211548 C173.107499 188.67581381 172.21921857 201.42460735 168.75 214.4375 C168.43651611 215.68055908 168.43651611 215.68055908 168.11669922 216.94873047 C156.85641859 260.95238894 128.01619929 298.77434645 89.16479492 322.1315918 C76.55470702 329.49431193 63.36667797 335.5253891 49.1875 339.125 C41.50592028 341.58829139 37.36098861 348.23000379 32.75 354.4375 C31.91192112 355.52320771 31.07084407 356.60660868 30.2265625 357.6875 C28.56407602 359.82166717 26.91662116 361.96608099 25.28125 364.12109375 C22.64312389 367.5908479 19.9499683 371.01577206 17.25 374.4375 C12.02824316 381.06214465 6.87845748 387.74046876 1.75 394.4375 C-1.70262396 393.28662535 -2.24094513 392.46545908 -4.33203125 389.59765625 C-4.92733643 388.79078369 -5.5226416 387.98391113 -6.13598633 387.15258789 C-6.77173584 386.27723389 -7.40748535 385.40187988 -8.0625 384.5 C-9.415271 382.6656366 -10.76946913 380.8323249 -12.125 379 C-12.81207031 378.06929688 -13.49914062 377.13859375 -14.20703125 376.1796875 C-17.83122158 371.31509551 -21.56421992 366.53619307 -25.31835938 361.77148438 C-27.96536113 358.40614006 -30.56600798 355.03260824 -33.03125 351.53125 C-33.46268311 350.93111084 -33.89411621 350.33097168 -34.33862305 349.71264648 C-35.46704771 348.13357227 -36.57252704 346.53816789 -37.67578125 344.94140625 C-41.17740267 341.53542851 -44.62752989 340.72525186 -49.25 339.4375 C-50.7453939 338.93643666 -52.23641624 338.4221277 -53.72265625 337.89453125 C-54.46870117 337.62979004 -55.21474609 337.36504883 -55.98339844 337.09228516 C-65.798991 333.54262118 -75.09340747 329.44545176 -84.25 324.4375 C-84.87326172 324.10024902 -85.49652344 323.76299805 -86.13867188 323.41552734 C-125.3486865 301.92346157 -153.74298187 264.02591945 -166.42797852 221.51831055 C-166.63737061 220.79039307 -166.8467627 220.06247559 -167.0625 219.3125 C-167.24546631 218.68190674 -167.42843262 218.05131348 -167.61694336 217.40161133 C-171.52639291 202.78956876 -172.80274373 188.25089346 -172.6875 173.1875 C-172.68445862 172.33787689 -172.68141724 171.48825378 -172.67828369 170.61288452 C-172.607499 157.19918619 -171.71921857 144.45039265 -168.25 131.4375 C-168.04101074 130.60879395 -167.83202148 129.78008789 -167.61669922 128.92626953 C-156.3552821 84.91816984 -127.51537842 47.1089798 -88.66625977 23.74365234 C-75.18058611 15.87279035 -61.12547774 9.94002398 -46.125 5.625 C-45.49440674 5.44203369 -44.86381348 5.25906738 -44.21411133 5.07055664 C-29.60206876 1.16110709 -15.06339346 -0.11524373 0 0 Z M-22.25 16.4375 C-22.25 17.0975 -22.25 17.7575 -22.25 18.4375 C-23.10722656 18.49808594 -23.96445313 18.55867188 -24.84765625 18.62109375 C-35.22709967 18.93847119 -35.22709967 18.93847119 -45 21.8125 C-47.85765799 23.24132899 -49.87535656 23.83472693 -52.9375 24.5 C-84.60236309 32.80342198 -116.20074167 61.70223373 -132.45751953 89.50244141 C-135.20931742 94.40383699 -137.76493952 99.39651694 -140.25 104.4375 C-140.55454102 105.05077148 -140.85908203 105.66404297 -141.17285156 106.29589844 C-144.2774913 112.59968217 -146.89820302 118.81256591 -148.70703125 125.609375 C-149.25 127.4375 -149.25 127.4375 -150.25 128.4375 C-150.60382661 129.8247456 -150.90736887 131.22492257 -151.1875 132.62890625 C-151.36023438 133.49193359 -151.53296875 134.35496094 -151.7109375 135.24414062 C-151.88882813 136.15357422 -152.06671875 137.06300781 -152.25 138 C-152.42789063 138.88236328 -152.60578125 139.76472656 -152.7890625 140.67382812 C-154.75095799 150.57847217 -155.43645932 160.01744044 -155.43530273 170.10864258 C-155.43748434 172.23474306 -155.45567764 174.36031932 -155.47460938 176.48632812 C-155.51714464 186.57336674 -154.65893441 195.87493766 -151.25 205.4375 C-150.7607184 207.12600801 -150.28274124 208.81780938 -149.8125 210.51171875 C-149.55726563 211.42630859 -149.30203125 212.34089844 -149.0390625 213.28320312 C-148.50999921 215.18861671 -147.98399057 217.09488092 -147.4609375 219.00195312 C-147.20570313 219.91267578 -146.95046875 220.82339844 -146.6875 221.76171875 C-146.45933594 222.58760498 -146.23117188 223.41349121 -145.99609375 224.2644043 C-145.26727765 226.68723903 -145.26727765 226.68723903 -143.25 229.4375 C-142.816875 230.7678125 -142.816875 230.7678125 -142.375 232.125 C-138.33994431 244.00599731 -131.06165833 254.82435429 -123.52490234 264.75244141 C-122.22387453 266.47203045 -120.94883519 268.20884732 -119.67578125 269.94921875 C-115.06391191 276.1878746 -110.33983205 281.5896015 -104.25 286.4375 C-102.82492655 287.66614983 -101.39985669 288.89480382 -99.97485352 290.12353516 C-94.82849986 294.52208611 -89.50749312 298.37708333 -83.72265625 301.90625 C-81.52256821 303.26870579 -79.45074206 304.707764 -77.375 306.25 C-74.65883636 308.15131455 -72.34905357 309.34371639 -69.25 310.4375 C-68.92 310.7675 -68.59 311.0975 -68.25 311.4375 C-66.58382885 311.47813832 -64.91611905 311.480221 -63.25 311.4375 C-63.25 312.0975 -63.25 312.7575 -63.25 313.4375 C-32.81192887 325.87740733 -1.83924055 329.33682207 30.75 324.4375 C30.75 323.7775 30.75 323.1175 30.75 322.4375 C31.36746094 322.40011719 31.98492187 322.36273438 32.62109375 322.32421875 C38.77116866 321.84681568 43.98395574 320.55647033 49.75 318.4375 C51.2287082 317.97768968 52.70787926 317.51936535 54.1875 317.0625 C58.35728244 315.6701678 62.18455992 313.8406743 66.08203125 311.81640625 C67.93915511 310.85657503 69.81322375 309.92912414 71.69921875 309.02734375 C78.56213878 305.73208765 84.66806793 302.0056276 90.75 297.4375 C91.30993652 297.0235498 91.86987305 296.60959961 92.44677734 296.18310547 C94.26281787 294.83903027 96.07022406 293.48415528 97.875 292.125 C98.45628662 291.69219727 99.03757324 291.25939453 99.63647461 290.81347656 C101.04577861 289.73628531 102.4033556 288.59206816 103.75 287.4375 C103.75 286.7775 103.75 286.1175 103.75 285.4375 C104.3275 285.19 104.905 284.9425 105.5 284.6875 C108.07939979 283.25450012 109.81121592 281.65325324 111.75 279.4375 C111.75 278.7775 111.75 278.1175 111.75 277.4375 C112.29269531 277.24542969 112.83539063 277.05335938 113.39453125 276.85546875 C116.81252391 274.79787118 119.00418953 271.84506503 121.4375 268.75 C121.96496826 268.08299072 122.49243652 267.41598145 123.03588867 266.72875977 C149.56251155 232.50720738 158.91729047 191.04156304 154.9375 148.4375 C154.86756836 147.65608643 154.79763672 146.87467285 154.72558594 146.06958008 C154.12568264 140.54557015 152.61447603 135.65320353 150.75 130.4375 C150.30213451 129.0332938 149.86062756 127.62704231 149.42578125 126.21875 C142.61829359 104.63086115 132.60219873 84.79883172 116.61328125 68.50390625 C114.75 66.4375 114.75 66.4375 113.75 63.4375 C111.46201595 61.34847108 109.1516545 59.38937468 106.75 57.4375 C105.91726563 56.74140625 105.08453125 56.0453125 104.2265625 55.328125 C94.36807779 45.73081732 94.36807779 45.73081732 82.75 40.4375 C82.75 39.7775 82.75 39.1175 82.75 38.4375 C77.2916852 35.22052219 71.85334553 32.54747809 65.9140625 30.33203125 C63.75 29.4375 63.75 29.4375 60.75 27.4375 C59.43 27.4375 58.11 27.4375 56.75 27.4375 C56.75 26.7775 56.75 26.1175 56.75 25.4375 C41.93885616 20.66921972 41.93885616 20.66921972 26.671875 17.859375 C23.75 17.4375 23.75 17.4375 20.29296875 16.40234375 C14.08267132 14.79793113 7.67937726 15.18887283 1.3125 15.25 C0.04083984 15.25064453 -1.23082031 15.25128906 -2.54101562 15.25195312 C-9.19019246 15.28297572 -15.66042974 15.54120372 -22.25 16.4375 Z " fill="#FDFCFC" transform="translate(172.25,-0.4375)"/>
<path d="M0 0 C0.97710937 -0.01224609 1.95421875 -0.02449219 2.9609375 -0.03710938 C23.04060601 -0.07716191 41.22379765 8.73903826 55.4296875 22.734375 C58.90890613 26.36431024 61.91831352 30.26866467 64.8125 34.375 C65.49904663 35.33587524 65.49904663 35.33587524 66.19946289 36.31616211 C69.37637683 41.06367158 70.73447028 45.56476505 71.625 51.1875 C72.285 51.1875 72.945 51.1875 73.625 51.1875 C75.28600817 59.58713131 75.93595482 67.63350742 75.875 76.1875 C75.88273438 77.27289063 75.89046875 78.35828125 75.8984375 79.4765625 C75.87375468 89.81866301 75.10036343 99.80703811 70.1875 109.0625 C69.83896973 109.73176514 69.49043945 110.40103027 69.13134766 111.09057617 C59.22688261 129.39850252 43.69843233 143.26570914 24.0625 150.5 C7.50082424 155.38705186 -13.85194035 155.89138653 -29.6875 148.3125 C-30.92340664 147.61599329 -32.1526109 146.90746646 -33.375 146.1875 C-34.0659375 145.82914063 -34.756875 145.47078125 -35.46875 145.1015625 C-53.70187703 135.53559093 -67.74980373 119.39474865 -74.55859375 99.77734375 C-79.16482672 79.52314232 -78.14753671 56.01812047 -67.46875 37.96484375 C-60.12662366 26.80534376 -51.03682611 16.90317683 -39.375 10.1875 C-38.65957031 9.75050781 -37.94414062 9.31351563 -37.20703125 8.86328125 C-25.16704217 1.76714609 -13.7516448 0.00899977 0 0 Z " fill="#CE2F2F" transform="translate(172.375,94.8125)"/>
<path d="M0 0 C6.1450776 5.33739125 10.91558832 10.78595758 15.1953125 17.69140625 C16.08863281 19.04492188 16.08863281 19.04492188 17 20.42578125 C28.19770477 38.20754419 30.83321792 59.77040137 26.8359375 80.2421875 C25.95670704 83.60363565 24.67082876 86.54791509 23.1953125 89.69140625 C22.50390728 92.47029238 22.50390728 92.47029238 22.1953125 94.69140625 C21.5353125 94.69140625 20.8753125 94.69140625 20.1953125 94.69140625 C20.04835937 95.24828125 19.90140625 95.80515625 19.75 96.37890625 C17.93642361 102.54923512 15.2517194 106.76511526 11.1953125 111.69140625 C10.57269531 112.50867188 9.95007813 113.3259375 9.30859375 114.16796875 C2.17301069 123.44843237 -5.72932855 129.7739067 -15.8046875 135.69140625 C-16.59617187 136.15675781 -17.38765625 136.62210938 -18.203125 137.1015625 C-30.306367 143.67591488 -41.92593555 145.05613052 -55.4921875 145.12890625 C-56.71526611 145.13897705 -57.93834473 145.14904785 -59.19848633 145.15942383 C-79.56450854 144.96564495 -99.49491755 136.26030684 -113.8046875 121.69140625 C-114.39378906 121.10101563 -114.98289062 120.510625 -115.58984375 119.90234375 C-121.99454937 113.04536962 -131.8046875 101.36520327 -131.8046875 91.69140625 C-132.4646875 91.69140625 -133.1246875 91.69140625 -133.8046875 91.69140625 C-140.60967518 68.17774347 -140.51390835 44.2575872 -128.7421875 22.50390625 C-117.89547098 3.72045541 -102.46190997 -9.29768519 -82.0546875 -16.62109375 C-81.34562256 -16.87584473 -80.63655762 -17.1305957 -79.90600586 -17.39306641 C-51.84613366 -27.0299229 -22.12963066 -18.21533666 0 0 Z M-89.8046875 -6.30859375 C-90.62582031 -5.88835937 -91.44695312 -5.468125 -92.29296875 -5.03515625 C-110.06763994 4.77351397 -123.09227221 21.33233944 -129.82421875 40.19921875 C-134.20816491 55.81375209 -134.20840659 78.13926872 -126.8046875 92.69140625 C-126.33160156 93.65691406 -125.85851562 94.62242187 -125.37109375 95.6171875 C-116.87726548 112.31060057 -104.07005533 126.01022056 -86.8046875 133.69140625 C-86.10988281 134.03945312 -85.41507813 134.3875 -84.69921875 134.74609375 C-69.12401301 142.29937937 -47.96040869 141.95931907 -31.5703125 137.13671875 C-8.79354432 128.89653717 5.94192168 112.40587605 16.8203125 91.43359375 C20.24039863 82.12551842 20.51529628 72.51246295 20.4453125 62.69140625 C20.45304688 61.60601562 20.46078125 60.520625 20.46875 59.40234375 C20.45105061 51.98629957 19.63338799 44.96367866 18.1953125 37.69140625 C17.5353125 37.69140625 16.8753125 37.69140625 16.1953125 37.69140625 C15.97875 35.86609375 15.97875 35.86609375 15.7578125 34.00390625 C12.35723503 18.77315082 -3.41441847 4.79631907 -15.8046875 -3.30859375 C-37.74502835 -15.9009197 -67.06242681 -18.33478183 -89.8046875 -6.30859375 Z " fill="#F7EEED" transform="translate(227.8046875,108.30859375)"/>
<path d="M0 0 C0.97710937 -0.01224609 1.95421875 -0.02449219 2.9609375 -0.03710938 C23.04060601 -0.07716191 41.22379765 8.73903826 55.4296875 22.734375 C58.90890613 26.36431024 61.91831352 30.26866467 64.8125 34.375 C65.49904663 35.33587524 65.49904663 35.33587524 66.19946289 36.31616211 C69.37637683 41.06367158 70.73447028 45.56476505 71.625 51.1875 C72.285 51.1875 72.945 51.1875 73.625 51.1875 C75.28600817 59.58713131 75.93595482 67.63350742 75.875 76.1875 C75.88273438 77.27289063 75.89046875 78.35828125 75.8984375 79.4765625 C75.87375468 89.81866301 75.10036343 99.80703811 70.1875 109.0625 C69.83896973 109.73176514 69.49043945 110.40103027 69.13134766 111.09057617 C59.22688261 129.39850252 43.69843233 143.26570914 24.0625 150.5 C7.50082424 155.38705186 -13.85194035 155.89138653 -29.6875 148.3125 C-30.92340664 147.61599329 -32.1526109 146.90746646 -33.375 146.1875 C-34.0659375 145.82914063 -34.756875 145.47078125 -35.46875 145.1015625 C-53.70187703 135.53559093 -67.74980373 119.39474865 -74.55859375 99.77734375 C-79.16482672 79.52314232 -78.14753671 56.01812047 -67.46875 37.96484375 C-60.12662366 26.80534376 -51.03682611 16.90317683 -39.375 10.1875 C-38.65957031 9.75050781 -37.94414062 9.31351563 -37.20703125 8.86328125 C-25.16704217 1.76714609 -13.7516448 0.00899977 0 0 Z M-18.375 8.1875 C-19.81746094 8.5896875 -19.81746094 8.5896875 -21.2890625 9 C-39.20544482 14.44295159 -53.71940565 26.62926738 -62.75 43 C-63.63223919 44.72548439 -64.50832332 46.45414663 -65.375 48.1875 C-65.9525 49.198125 -66.53 50.20875 -67.125 51.25 C-70.45041998 59.06473695 -70.69195863 67.30651115 -70.625 75.6875 C-70.63273437 76.65558594 -70.64046875 77.62367188 -70.6484375 78.62109375 C-70.59625761 98.05810193 -62.86757437 113.44631873 -49.375 127.1875 C-48.35986328 128.239375 -48.35986328 128.239375 -47.32421875 129.3125 C-42.96585179 133.51491786 -38.28363651 136.61207446 -33 139.5 C-32.41202637 139.82564941 -31.82405273 140.15129883 -31.21826172 140.48681641 C-21.45944827 145.56562514 -11.81926505 146.67309953 -0.9375 146.5625 C0.20009766 146.57410156 1.33769531 146.58570313 2.50976562 146.59765625 C10.27523723 146.57107734 17.19052049 145.41302779 24.625 143.1875 C24.625 142.5275 24.625 141.8675 24.625 141.1875 C25.91857422 141.04441406 25.91857422 141.04441406 27.23828125 140.8984375 C39.15465478 138.39696117 49.81416895 127.76319831 56.72265625 118.3203125 C58.46088453 115.65576723 60.07202327 112.96339301 61.625 110.1875 C62.04652344 109.465625 62.46804687 108.74375 62.90234375 108 C65.43367909 103.38774486 66.25048275 99.43074154 66.625 94.1875 C67.285 94.1875 67.945 94.1875 68.625 94.1875 C69.48731704 90.46078327 69.75363239 87.00931526 69.7578125 83.1875 C69.75974609 81.4859375 69.75974609 81.4859375 69.76171875 79.75 C69.75785156 78.574375 69.75398437 77.39875 69.75 76.1875 C69.75386719 75.011875 69.75773438 73.83625 69.76171875 72.625 C69.76042969 71.490625 69.75914062 70.35625 69.7578125 69.1875 C69.75612061 67.640625 69.75612061 67.640625 69.75439453 66.0625 C69.6314857 63.33160502 69.24024816 60.84644736 68.625 58.1875 C67.965 58.1875 67.305 58.1875 66.625 58.1875 C66.5425 57.40375 66.46 56.62 66.375 55.8125 C63.06522684 39.81526308 51.5289738 25.99369785 38.3046875 16.7578125 C21.52888782 6.44322569 0.74318028 2.59813168 -18.375 8.1875 Z " fill="#242229" transform="translate(172.375,94.8125)"/>
<path d="M0 0 C34.65 0 69.3 0 105 0 C105 7.92 105 15.84 105 24 C70.35 24 35.7 24 0 24 C0 16.08 0 8.16 0 0 Z " fill="#FDF9F9" transform="translate(119,159)"/>
<path d="M0 0 C0.33 0.99 0.66 1.98 1 3 C1.66 3 2.32 3 3 3 C4.06539228 9.97192706 4.18347391 16.82933573 4.1875 23.875 C4.19974609 24.99519531 4.21199219 26.11539063 4.22460938 27.26953125 C4.23655057 34.09193556 3.65377847 40.37551626 2 47 C0.515 47.495 0.515 47.495 -1 48 C-1.33 47.34 -1.66 46.68 -2 46 C-2.99 47.32 -3.98 48.64 -5 50 C-5 47.36 -5 44.72 -5 42 C-4.34 42 -3.68 42 -3 42 C-3.01571045 40.90534424 -3.0314209 39.81068848 -3.04760742 38.68286133 C-3.1020211 34.61083369 -3.13639156 30.53883803 -3.16479492 26.46655273 C-3.17985553 24.70608104 -3.20030826 22.9456467 -3.22631836 21.18530273 C-3.26282229 18.65078497 -3.27975354 16.11676448 -3.29296875 13.58203125 C-3.31619453 12.40674614 -3.31619453 12.40674614 -3.33988953 11.2077179 C-3.34129811 6.60518377 -2.7917413 3.69978172 0 0 Z " fill="#1C1B22" transform="translate(244,147)"/>
<path d="M0 0 C2.51398037 2.18606989 3.5537493 3.68327183 4 7 C3.22736998 9.19409851 2.18188942 11.13573504 1.10546875 13.1953125 C-2.21888812 21.62954654 -2.26034084 30.17168313 -2.125 39.125 C-2.11146484 40.84589844 -2.11146484 40.84589844 -2.09765625 42.6015625 C-2.07432538 45.40126748 -2.04159232 48.20051695 -2 51 C-2.66 50.67 -3.32 50.34 -4 50 C-4.33 40.76 -4.66 31.52 -5 22 C-5.99 22.33 -6.98 22.66 -8 23 C-7.51986454 14.67765207 -4.6256993 6.93854894 0 0 Z " fill="#22232A" transform="translate(105,133)"/>
<path d="M0 0 C0.33 0 0.66 0 1 0 C1.05883728 3.47909371 1.09387399 6.95805674 1.125 10.4375 C1.14175781 11.41138672 1.15851563 12.38527344 1.17578125 13.38867188 C1.21723197 19.58555501 0.64381961 25.01527899 -1 31 C-1.33 31.33 -1.66 31.66 -2 32 C-2.07148199 33.35243917 -2.08399454 34.70834367 -2.0625 36.0625 C-2.041875 37.361875 -2.02125 38.66125 -2 40 C-2.99 40 -3.98 40 -5 40 C-4.938125 40.86625 -4.87625 41.7325 -4.8125 42.625 C-5.02895434 46.52117815 -6.06818649 48.63721352 -8 52 C-8.4125 52.78375 -8.825 53.5675 -9.25 54.375 C-11.81491056 58.22236584 -14.90021232 61.5774947 -18 65 C-19.32 64.67 -20.64 64.34 -22 64 C-21.23816406 63.12601563 -21.23816406 63.12601563 -20.4609375 62.234375 C-15.1610528 55.92215277 -11.39997663 49.49540303 -8 42 C-7.34 42 -6.68 42 -6 42 C-5.87625 40.948125 -5.7525 39.89625 -5.625 38.8125 C-5 35 -5 35 -4.02734375 32.5859375 C-0.03024368 22.52479589 -0.45119715 10.68624833 0 0 Z " fill="#E76463" transform="translate(256,161)"/>
<path d="M0 0 C1.37652616 3.77168167 0.60432755 6.48952871 -0.375 10.3125 C-1.71838656 15.73987391 -1.71838656 15.73987391 -2.625 21.25 C-3 24 -3 24 -4 25 C-4.20604085 26.32781878 -4.3662959 27.66295895 -4.5 29 C-4.88888889 32.88888889 -4.88888889 32.88888889 -6 34 C-6.09311889 35.50418739 -6.11746028 37.01271356 -6.11352539 38.51977539 C-6.11344986 39.48069595 -6.11337433 40.44161652 -6.11329651 41.43165588 C-6.10813522 42.476436 -6.10297394 43.52121613 -6.09765625 44.59765625 C-6.0962413 45.66165146 -6.09482635 46.72564667 -6.09336853 47.82188416 C-6.08775064 51.23545083 -6.07519511 54.648953 -6.0625 58.0625 C-6.05748731 60.37044176 -6.052924 62.67838455 -6.04882812 64.98632812 C-6.0377754 70.65757426 -6.02101987 76.32878253 -6 82 C-6.33 82 -6.66 82 -7 82 C-9.04372185 73.11267609 -9.35719276 64.38698201 -9.3125 55.3125 C-9.31167419 54.60411987 -9.31084839 53.89573975 -9.30999756 53.16589355 C-9.28206844 42.76626558 -8.49311883 33.1205814 -6 23 C-5.64950009 20.83604405 -5.31525343 18.66937107 -5 16.5 C-4.21734555 11.66595779 -2.88732336 7.51316455 -1 3 C-0.67 2.01 -0.34 1.02 0 0 Z " fill="#E88E8F" transform="translate(26,117)"/>
<path d="M0 0 C0 0.66 0 1.32 0 2 C0.65226562 1.96519531 1.30453125 1.93039063 1.9765625 1.89453125 C7.48565372 1.72389568 11.19238424 1.9636111 16 5 C12.77399827 6.04794564 10.72245814 5.89666372 7.453125 5.08203125 C1.84610523 3.86306926 -3.52590193 3.65619446 -9.25 3.6875 C-10.25200439 3.68951416 -11.25400879 3.69152832 -12.28637695 3.69360352 C-20.20200456 3.80011466 -27.36809155 4.82428607 -35 7 C-36.33242155 7.3369595 -37.6653654 7.6719156 -39 8 C-38.34 7.01 -37.68 6.02 -37 5 C-34.375 4.8125 -34.375 4.8125 -32 5 C-31.67 4.01 -31.34 3.02 -31 2 C-20.76764179 -0.62849569 -10.47323215 -0.18464072 0 0 Z " fill="#E85A59" transform="translate(182,85)"/>
<path d="M0 0 C-0.99 0.66 -1.98 1.32 -3 2 C-3.33 2.66 -3.66 3.32 -4 4 C-11.17483573 5.5849624 -18.94392434 5.15232946 -26.25 5.125 C-27.29929688 5.12886719 -28.34859375 5.13273437 -29.4296875 5.13671875 C-34.39401656 5.13043479 -39.12359185 5.05935763 -44 4 C-44 3.34 -44 2.68 -44 2 C-45.65 2 -47.3 2 -49 2 C-49 1.34 -49 0.68 -49 0 C-47.22496094 0.24169922 -47.22496094 0.24169922 -45.4140625 0.48828125 C-38.74525188 1.22563507 -32.07729015 1.184115 -25.375 1.1875 C-23.44914062 1.20586914 -23.44914062 1.20586914 -21.484375 1.22460938 C-15.36937095 1.23410472 -5.38378771 -2.15351508 0 0 Z " fill="#E55A55" transform="translate(198,251)"/>
<path d="M0 0 C0 0.66 0 1.32 0 2 C0.66 2.33 1.32 2.66 2 3 C2 3.66 2 4.32 2 5 C-1.49992696 5.79706768 -4.7142231 6.11863027 -8.30078125 6.09765625 C-9.27724609 6.09443359 -10.25371094 6.09121094 -11.25976562 6.08789062 C-12.26716797 6.07951172 -13.27457031 6.07113281 -14.3125 6.0625 C-15.33923828 6.05798828 -16.36597656 6.05347656 -17.42382812 6.04882812 C-19.94927882 6.03708184 -22.47460905 6.02065565 -25 6 C-25 5.34 -25 4.68 -25 4 C-24.34 3.67 -23.68 3.34 -23 3 C-24.65 2.67 -26.3 2.34 -28 2 C-28 1.67 -28 1.34 -28 1 C-24.08339071 0.83196656 -20.16670399 0.66581012 -16.25 0.5 C-15.13882813 0.45230469 -14.02765625 0.40460938 -12.8828125 0.35546875 C-11.27792969 0.28779297 -11.27792969 0.28779297 -9.640625 0.21875 C-8.65610352 0.17685547 -7.67158203 0.13496094 -6.65722656 0.09179688 C-4.43926319 0.01517484 -2.21928648 0 0 0 Z " fill="#161921" transform="translate(189,241)"/>
<path d="M0 0 C0.6796875 1.796875 0.6796875 1.796875 1 4 C-0.1171875 5.578125 -0.1171875 5.578125 -1.875 7.25 C-11.76219522 17.94794522 -16.57286481 31.08479783 -20 45 C-20.66 44.34 -21.32 43.68 -22 43 C-22 42.01 -22 41.02 -22 40 C-21.34 40 -20.68 40 -20 40 C-20 36.7 -20 33.4 -20 30 C-19.01 29.67 -18.02 29.34 -17 29 C-16.67 27.02 -16.34 25.04 -16 23 C-15.34 23 -14.68 23 -14 23 C-14 21.35 -14 19.7 -14 18 C-13.34 17.67 -12.68 17.34 -12 17 C-10.87775145 15.11986894 -10.87775145 15.11986894 -9.875 12.9375 C-9.52179688 12.20402344 -9.16859375 11.47054687 -8.8046875 10.71484375 C-8.53914063 10.14894531 -8.27359375 9.58304688 -8 9 C-7.34 9 -6.68 9 -6 9 C-5.67 8.01 -5.34 7.02 -5 6 C-4.34 6 -3.68 6 -3 6 C-3 5.01 -3 4.02 -3 3 C-1.5 1.3125 -1.5 1.3125 0 0 Z " fill="#E15D5D" transform="translate(111,111)"/>
<path d="M0 0 C-0.33 1.32 -0.66 2.64 -1 4 C-7.6 4 -14.2 4 -21 4 C-20.01 3.01 -19.02 2.02 -18 1 C-18.33 0.34 -18.66 -0.32 -19 -1 C-12.54450809 -2.32420347 -5.89489786 -3.37422887 0 0 Z " fill="#181A21" transform="translate(182,97)"/>
<path d="M0 0 C0.33 0 0.66 0 1 0 C1.01458252 0.58789307 1.02916504 1.17578613 1.04418945 1.78149414 C1.34869818 12.81590047 1.87467287 23.4274206 4.37890625 34.19921875 C5 37 5 37 5 40 C5.66 40 6.32 40 7 40 C7.99 42.97 8.98 45.94 10 49 C8 49 8 49 6.5 47.875 C3.65649848 44.3206231 2.97758842 40.29680999 2.5 35.875 C2.06001373 32.46510642 1.54877914 30.90396088 0 28 C-1.26665093 22.42495189 -1.14821356 16.8709542 -1.125 11.1875 C-1.12886719 10.22134766 -1.13273437 9.25519531 -1.13671875 8.25976562 C-1.13542969 7.34259766 -1.13414063 6.42542969 -1.1328125 5.48046875 C-1.13168457 4.64410889 -1.13055664 3.80774902 -1.12939453 2.94604492 C-1 1 -1 1 0 0 Z " fill="#E46767" transform="translate(89,160)"/>
<path d="M0 0 C0 0.99 0 1.98 0 3 C-0.61875 3.0825 -1.2375 3.165 -1.875 3.25 C-4.16150356 3.78035516 -4.16150356 3.78035516 -4.9375 5.875 C-6.36191649 8.72383299 -8.28607956 9.41136364 -11 11 C-11.495 11.680625 -11.99 12.36125 -12.5 13.0625 C-14.40459192 15.5225979 -16.12546223 15.86355484 -19 17 C-19.99 17.845625 -20.98 18.69125 -22 19.5625 C-24.91319147 21.92946807 -26.34300269 22.67732377 -30 23 C-20.96095929 13.7837232 -10.92292397 6.74510487 0 0 Z " fill="#E76361" transform="translate(96,35)"/>
<path d="M0 0 C3.71120126 5.56680189 4.49276994 11.30092061 5.125 17.8125 C5.2084668 18.67125732 5.29193359 19.53001465 5.37792969 20.41479492 C6.78909761 36.58418738 6.91456573 52.99591142 4 69 C3.67 69 3.34 69 3 69 C3.10828125 67.66775391 3.10828125 67.66775391 3.21875 66.30859375 C4.34582411 50.79567095 4.77829962 35.17630696 3.125 19.6875 C3.00741333 18.55852295 3.00741333 18.55852295 2.88745117 17.40673828 C2.4453001 13.26044252 2.4453001 13.26044252 0 10 C-0.1953125 7.6171875 -0.1953125 7.6171875 -0.125 4.875 C-0.10695313 3.96492187 -0.08890625 3.05484375 -0.0703125 2.1171875 C-0.04710937 1.41851562 -0.02390625 0.71984375 0 0 Z " fill="#E49090" transform="translate(322,130)"/>
<path d="M0 0 C0.33 0 0.66 0 1 0 C1.36521739 5.47826087 1.36521739 5.47826087 -0.3125 7.875 C-2 9 -2 9 -5 9 C-5.33 10.65 -5.66 12.3 -6 14 C-6.99 14.33 -7.98 14.66 -9 15 C-9.33 16.65 -9.66 18.3 -10 20 C-10.66 20 -11.32 20 -12 20 C-12 21.65 -12 23.3 -12 25 C-12.99 25 -13.98 25 -15 25 C-13.55676138 19.73258672 -11.1232624 15.80935129 -8.0625 11.375 C-7.39831055 10.39273438 -7.39831055 10.39273438 -6.72070312 9.390625 C-2.12850023 2.62893132 -2.12850023 2.62893132 0 0 Z " fill="#E36E6E" transform="translate(51,73)"/>
<path d="M0 0 C0.33 0 0.66 0 1 0 C0.82021009 11.99689042 -1.41432582 22.56818269 -5 34 C-5.33 34 -5.66 34 -6 34 C-6.278084 28.16023593 -5.83558332 23.98202905 -3.796875 18.5390625 C-2.4935877 14.3864314 -2.00962464 10.12405655 -1.4296875 5.8203125 C-1 3 -1 3 0 0 Z " fill="#E25655" transform="translate(325,186)"/>
<path d="M0 0 C0.33 0.99 0.66 1.98 1 3 C1.99 2.67 2.98 2.34 4 2 C3.67 3.65 3.34 5.3 3 7 C2.67 6.01 2.34 5.02 2 4 C1.34 4 0.68 4 0 4 C-0.0825 4.763125 -0.165 5.52625 -0.25 6.3125 C-1.16080012 9.57620042 -2.28138365 10.13095126 -5 12 C-5.33 12.99 -5.66 13.98 -6 15 C-8.0625 16.1875 -8.0625 16.1875 -10 17 C-8.68756427 12.75982302 -7.05211497 8.93322037 -5 5 C-4.608125 4.21625 -4.21625 3.4325 -3.8125 2.625 C-3.544375 2.08875 -3.27625 1.5525 -3 1 C-2.34 1 -1.68 1 -1 1 C-0.67 0.67 -0.34 0.34 0 0 Z " fill="#302A30" transform="translate(242,192)"/>
<path d="M0 0 C-0.99 0.66 -1.98 1.32 -3 2 C-3.33 2.66 -3.66 3.32 -4 4 C-15.03034265 4.18115526 -25.99051677 3.614687 -37 3 C-37 2.67 -37 2.34 -37 2 C-36.24904053 1.98018066 -35.49808105 1.96036133 -34.72436523 1.93994141 C-31.29508043 1.84420599 -27.86636458 1.73472367 -24.4375 1.625 C-23.25607422 1.5940625 -22.07464844 1.563125 -20.85742188 1.53125 C-14.87245148 1.33007452 -5.35144118 -2.14057647 0 0 Z " fill="#EB7876" transform="translate(198,251)"/>
<path d="M0 0 C0.33 0.66 0.66 1.32 1 2 C-10.125 13.125 -10.125 13.125 -15.0625 13.5625 C-15.98160156 13.64628906 -16.90070313 13.73007813 -17.84765625 13.81640625 C-18.55792969 13.87699219 -19.26820313 13.93757812 -20 14 C-18.59128689 11.18257377 -16.7254051 10.67654841 -13.9375 9.25 C-8.90197789 6.58104181 -4.42717309 3.57725734 0 0 Z " fill="#E76564" transform="translate(228,232)"/>
<path d="M0 0 C0.33 0 0.66 0 1 0 C1.13277344 0.98742187 1.26554687 1.97484375 1.40234375 2.9921875 C1.57894531 4.27351562 1.75554688 5.55484375 1.9375 6.875 C2.11152344 8.15117187 2.28554688 9.42734375 2.46484375 10.7421875 C2.81433227 13.87559454 2.81433227 13.87559454 4 16 C4.039992 17.99960012 4.04346799 20.00047242 4 22 C4.66 22 5.32 22 6 22 C6.33 26.29 6.66 30.58 7 35 C5.04891903 31.09783807 3.95746813 27.38759691 2.9375 23.1875 C2.67743164 22.15786133 2.67743164 22.15786133 2.41210938 21.10742188 C0.66536594 14.0334456 -0.12768153 7.27784724 0 0 Z " fill="#DF5B5A" transform="translate(19,185)"/>
<path d="M0 0 C-2.22868584 2.56815744 -3.80059981 3.45459631 -7.125 4.09765625 C-7.91390625 4.25943359 -8.7028125 4.42121094 -9.515625 4.58789062 C-10.33546875 4.74451172 -11.1553125 4.90113281 -12 5.0625 C-13.62616398 5.38082927 -15.25123039 5.70483057 -16.875 6.03515625 C-17.59429687 6.1731665 -18.31359375 6.31117676 -19.0546875 6.45336914 C-21.29830464 6.97575367 -21.29830464 6.97575367 -24 9 C-24.99 9 -25.98 9 -27 9 C-27.33 9.99 -27.66 10.98 -28 12 C-28.99 11.34 -29.98 10.68 -31 10 C-25.0620657 6.20631975 -19.49602927 4.12771676 -12.6015625 2.67578125 C-2.00876107 -0.0758023 -2.00876107 -0.0758023 0 0 Z " fill="#E27879" transform="translate(137,20)"/>
<path d="M0 0 C4.02009457 -0.07455949 8.03991733 -0.12879358 12.06054688 -0.16479492 C13.42617816 -0.17981428 14.79176176 -0.20023608 16.15722656 -0.22631836 C18.12803905 -0.26300137 20.09921408 -0.27818551 22.0703125 -0.29296875 C23.25383301 -0.3086792 24.43735352 -0.32438965 25.65673828 -0.34057617 C29.36824856 0.03751327 31.79004798 1.14711824 35 3 C31.77895779 4.04434019 29.7130457 3.90282766 26.4453125 3.1015625 C20.91400067 1.8929211 15.5217966 1.56534146 9.875 1.375 C8.44027344 1.31699219 8.44027344 1.31699219 6.9765625 1.2578125 C4.65121801 1.16479872 2.32585665 1.07896229 0 1 C0 0.67 0 0.34 0 0 Z " fill="#E87171" transform="translate(163,87)"/>
<path d="M0 0 C2.44692202 1.04868087 4.00762186 2.00787592 5.875 3.9375 C8.37514631 6.36411259 10.87601465 7.46863463 14 9 C16.46289445 10.55603392 18.69472668 12.20188681 21 14 C21 14.66 21 15.32 21 16 C12.13984985 13.47221335 5.45353624 7.27138166 0 0 Z " fill="#B74243" transform="translate(120,218)"/>
<path d="M0 0 C2.45484649 2.13464912 3.68134222 3.70720291 4 7 C3.34 7.66 2.68 8.32 2 9 C1.67 8.01 1.34 7.02 1 6 C0.34 6 -0.32 6 -1 6 C-1.10957031 6.63808594 -1.21914062 7.27617187 -1.33203125 7.93359375 C-1.49058594 8.75988281 -1.64914063 9.58617187 -1.8125 10.4375 C-1.96332031 11.26121094 -2.11414063 12.08492187 -2.26953125 12.93359375 C-2.51058594 13.61550781 -2.75164062 14.29742187 -3 15 C-3.99 15.33 -4.98 15.66 -6 16 C-6.33 16.99 -6.66 17.98 -7 19 C-6.28483813 12.20596221 -3.77907446 5.66861169 0 0 Z " fill="#2F2C33" transform="translate(105,133)"/>
<path d="M0 0 C0.99 0.99 1.98 1.98 3 3 C1.68 4.65 0.36 6.3 -1 8 C-1.99 7.67 -2.98 7.34 -4 7 C-6.19038423 8.37168238 -6.19038423 8.37168238 -8 10 C-8.66 9.67 -9.32 9.34 -10 9 C-9.24172908 7.82512964 -8.46792245 6.66027408 -7.6875 5.5 C-7.25824219 4.8503125 -6.82898438 4.200625 -6.38671875 3.53125 C-5.70029297 2.77328125 -5.70029297 2.77328125 -5 2 C-4.01 2 -3.02 2 -2 2 C-1.34 1.34 -0.68 0.68 0 0 Z " fill="#252229" transform="translate(236,207)"/>
<path d="M0 0 C2.475 0.495 2.475 0.495 5 1 C5.33 1.99 5.66 2.98 6 4 C8.50447516 5.21869929 8.50447516 5.21869929 11 6 C11 6.99 11 7.98 11 9 C11.99 9 12.98 9 14 9 C14.33 10.98 14.66 12.96 15 15 C14.38125 14.360625 13.7625 13.72125 13.125 13.0625 C9.5806068 9.49755959 5.7808117 6.21402959 2.01171875 2.890625 C1.34785156 2.26671875 0.68398437 1.6428125 0 1 C0 0.67 0 0.34 0 0 Z " fill="#E26263" transform="translate(224,105)"/>
<path d="M0 0 C0.66 0.33 1.32 0.66 2 1 C0.59064576 3.42119831 -0.82706113 5.83680273 -2.25 8.25 C-2.64574219 8.93191406 -3.04148437 9.61382812 -3.44921875 10.31640625 C-5.63847315 14.01301614 -7.75536165 17.11256954 -11 20 C-10.67 18.02 -10.34 16.04 -10 14 C-9.01 13.67 -8.02 13.34 -7 13 C-6.26676204 10.98491642 -6.26676204 10.98491642 -6 9 C-5.34 9 -4.68 9 -4 9 C-4 7.68 -4 6.36 -4 5 C-3.34 5 -2.68 5 -2 5 C-1.855625 4.360625 -1.71125 3.72125 -1.5625 3.0625 C-1 1 -1 1 0 0 Z " fill="#E0595F" transform="translate(307,244)"/>
<path d="M0 0 C-0.928125 0.680625 -0.928125 0.680625 -1.875 1.375 C-4.05919833 2.97108919 -4.05919833 2.97108919 -6 5 C-5.67 5.66 -5.34 6.32 -5 7 C-6.32 7 -7.64 7 -9 7 C-9 6.34 -9 5.68 -9 5 C-10.65 5 -12.3 5 -14 5 C-13.67 4.34 -13.34 3.68 -13 3 C-13.99 2.34 -14.98 1.68 -16 1 C-10.59255982 0.22750855 -5.46137814 -0.09752461 0 0 Z " fill="#312F35" transform="translate(169,95)"/>
<path d="M0 0 C0 0.99 0 1.98 0 3 C-0.61875 3.0825 -1.2375 3.165 -1.875 3.25 C-4.16669871 3.79326091 -4.16669871 3.79326091 -5.0625 5.9375 C-5.371875 6.618125 -5.68125 7.29875 -6 8 C-9 10 -9 10 -13 10 C-13 10.66 -13 11.32 -13 12 C-14.32 11.67 -15.64 11.34 -17 11 C-15.10515026 9.72770057 -13.20907718 8.45722296 -11.3125 7.1875 C-10.25675781 6.47980469 -9.20101562 5.77210937 -8.11328125 5.04296875 C-5.44396458 3.29133435 -2.75151858 1.61824006 0 0 Z " fill="#E26E6D" transform="translate(96,35)"/>
<path d="M0 0 C1.32 0.33 2.64 0.66 4 1 C4 1.66 4 2.32 4 3 C4.99 3 5.98 3 7 3 C7.0825 3.61875 7.165 4.2375 7.25 4.875 C7.79394438 7.17972859 7.79394438 7.17972859 10 8.0625 C10.66 8.371875 11.32 8.68125 12 9 C12.33 9.99 12.66 10.98 13 12 C13.99 12.33 14.98 12.66 16 13 C15.67 13.66 15.34 14.32 15 15 C3.59778598 4.83763838 3.59778598 4.83763838 0 1 C0 0.67 0 0.34 0 0 Z " fill="#E0706D" transform="translate(58,275)"/>
<path d="M0 0 C1.8871875 0.0309375 1.8871875 0.0309375 3.8125 0.0625 C3.8125 0.3925 3.8125 0.7225 3.8125 1.0625 C2.1625 1.3925 0.5125 1.7225 -1.1875 2.0625 C0.1325 2.3925 1.4525 2.7225 2.8125 3.0625 C2.8125 3.7225 2.8125 4.3825 2.8125 5.0625 C-1.20554691 5.90348656 -4.20553543 6.11654945 -8.1875 5.0625 C-7.875 3.125 -7.875 3.125 -7.1875 1.0625 C-4.43671116 0.14557039 -2.82801087 -0.04636083 0 0 Z " fill="#18181F" transform="translate(157.1875,96.9375)"/>
<path d="M0 0 C3.92565298 1.48904078 4.94100382 3.43635276 7 7 C8.93208773 9.39400073 10.95429998 11.70272522 13 14 C12.67 14.66 12.34 15.32 12 16 C11.34 16 10.68 16 10 16 C9.773125 15.278125 9.54625 14.55625 9.3125 13.8125 C7.73080282 10.42314891 5.79885498 8.4575312 3 6 C2.01 5.67 1.02 5.34 0 5 C0 3.35 0 1.7 0 0 Z " fill="#E6686A" transform="translate(282,61)"/>
<path d="M0 0 C1.60495567 0.11442461 3.20898119 0.24194694 4.8125 0.375 C5.70582031 0.44460937 6.59914062 0.51421875 7.51953125 0.5859375 C10 1 10 1 13 3 C13 3.66 13 4.32 13 5 C8.28596212 4.52060632 4.33420699 4.03165952 0 2 C0 1.34 0 0.68 0 0 Z " fill="#B8393A" transform="translate(145,235)"/>
<path d="M0 0 C0.66 0.99 1.32 1.98 2 3 C0.56036361 6.35915158 -1.12416589 8.71624938 -4 11 C-5.32 10.67 -6.64 10.34 -8 10 C-5.36 6.7 -2.72 3.4 0 0 Z " fill="#EA7374" transform="translate(242,215)"/>
<path d="M0 0 C8 9.71428571 8 9.71428571 8 13 C6.0625 12.6875 6.0625 12.6875 4 12 C3.67 11.01 3.34 10.02 3 9 C2.34 9 1.68 9 1 9 C0.67 6.03 0.34 3.06 0 0 Z " fill="#E66C69" transform="translate(99,209)"/>
<path d="M0 0 C2.99531402 2.54601692 4.24004049 5.34468457 5.75 8.9375 C6.42289063 10.49791016 6.42289063 10.49791016 7.109375 12.08984375 C8.003224 15.01053455 8.10154037 16.21256554 7 19 C7 18.01 7 17.02 7 16 C6.34 16 5.68 16 5 16 C4.731875 14.948125 4.46375 13.89625 4.1875 12.8125 C3.18869638 9.06976221 3.18869638 9.06976221 1.375 6.3125 C0 4 0 4 0 0 Z " fill="#C03D3E" transform="translate(231,134)"/>
<path d="M0 0 C6.80203375 -0.37634203 11.75690073 0.22528921 18 3 C18 3.33 18 3.66 18 4 C11.42684522 4.36517527 6.20514474 3.13619737 0 1 C0 0.67 0 0.34 0 0 Z " fill="#E37F7D" transform="translate(132,320)"/>
<path d="M0 0 C-0.60328125 0.39832031 -1.2065625 0.79664062 -1.828125 1.20703125 C-2.62734375 1.73683594 -3.4265625 2.26664062 -4.25 2.8125 C-5.03890625 3.33457031 -5.8278125 3.85664062 -6.640625 4.39453125 C-8.81092481 5.87134122 -10.91413768 7.40689873 -13 9 C-13 7.68 -13 6.36 -13 5 C-11.68 4.67 -10.36 4.34 -9 4 C-9 3.34 -9 2.68 -9 2 C-8.34 2 -7.68 2 -7 2 C-7 1.34 -7 0.68 -7 0 C-3.86650268 -1.04449911 -3.01031744 -0.93423645 0 0 Z " fill="#E16260" transform="translate(130,100)"/>
<path d="M0 0 C-0.91523438 0.33773437 -1.83046875 0.67546875 -2.7734375 1.0234375 C-4.55621094 1.69246094 -4.55621094 1.69246094 -6.375 2.375 C-7.55835938 2.81585938 -8.74171875 3.25671875 -9.9609375 3.7109375 C-13.04493446 4.7950342 -13.04493446 4.7950342 -15 7 C-17.125 6.625 -17.125 6.625 -19 6 C-17.06374902 5.01836578 -15.12595461 4.03977546 -13.1875 3.0625 C-12.10855469 2.51722656 -11.02960938 1.97195312 -9.91796875 1.41015625 C-6.06356352 -0.45254829 -4.08218491 -1.26688497 0 0 Z " fill="#9D4E50" transform="translate(154,105)"/>
<path d="M0 0 C1.89693861 0.28438952 3.79252027 0.57783792 5.6875 0.875 C6.74324219 1.03742187 7.79898438 1.19984375 8.88671875 1.3671875 C11.79794914 1.95893069 14.28955607 2.8031806 17 4 C17 4.33 17 4.66 17 5 C15.27014758 4.88487847 13.54111249 4.75744323 11.8125 4.625 C10.84957031 4.55539063 9.88664063 4.48578125 8.89453125 4.4140625 C5.95372188 3.99337992 3.65985431 3.31339165 1 2 C0.67 1.34 0.34 0.68 0 0 Z " fill="#E46C6B" transform="translate(201,18)"/>
<path d="M0 0 C-3.24653104 2.78274089 -6.0634511 4.42538044 -10 6 C-11.70294787 7.28667172 -13.37946188 8.61096733 -15 10 C-13.64664405 6.91140053 -12.19113751 4.992036 -9.625 2.8125 C-9.03976563 2.30332031 -8.45453125 1.79414062 -7.8515625 1.26953125 C-5.07976194 -0.63096491 -3.09304197 -1.54652098 0 0 Z " fill="#AC4446" transform="translate(135,115)"/>
<path d="M0 0 C0.70703125 1.7421875 0.70703125 1.7421875 1 4 C-0.36328125 6.0703125 -0.36328125 6.0703125 -2.3125 8.125 C-2.94800781 8.80820313 -3.58351563 9.49140625 -4.23828125 10.1953125 C-5.48408504 11.47150175 -6.73891196 12.73891196 -8 14 C-8 12.35 -8 10.7 -8 9 C-7.34 9 -6.68 9 -6 9 C-5.67 8.01 -5.34 7.02 -5 6 C-4.34 6 -3.68 6 -3 6 C-3 5.01 -3 4.02 -3 3 C-1.5 1.3125 -1.5 1.3125 0 0 Z " fill="#E26362" transform="translate(111,111)"/>
<path d="M0 0 C2.64 0.66 5.28 1.32 8 2 C8.33 3.32 8.66 4.64 9 6 C10.96672915 7.1500831 10.96672915 7.1500831 13 8 C13.33 8.66 13.66 9.32 14 10 C10.94185543 8.54440716 8.13706343 6.86747996 5.3125 5 C4.52488281 4.484375 3.73726563 3.96875 2.92578125 3.4375 C1 2 1 2 0 0 Z " fill="#DF6866" transform="translate(74,290)"/>
<path d="M0 0 C0.66 0.33 1.32 0.66 2 1 C0.7023817 6.29860806 -1.15015702 10.34525646 -4 15 C-5.46911544 11.18029984 -4.52561108 8.69358471 -3 5 C-2.34 4.34 -1.68 3.68 -1 3 C-0.67 2.01 -0.34 1.02 0 0 Z " fill="#C53636" transform="translate(236,194)"/>
<path d="M0 0 C0.33 0 0.66 0 1 0 C0.67 4.62 0.34 9.24 0 14 C-0.66 14 -1.32 14 -2 14 C-2.05389087 12.04196493 -2.09274217 10.08351091 -2.125 8.125 C-2.14820312 7.03445312 -2.17140625 5.94390625 -2.1953125 4.8203125 C-2 2 -2 2 0 0 Z " fill="#151219" transform="translate(99,175)"/>
<path d="M0 0 C-0.7734375 0.37125 -0.7734375 0.37125 -1.5625 0.75 C-3.63445071 1.81253882 -5.61979821 2.94448454 -7.625 4.125 C-11 6 -11 6 -13 6 C-12.67012361 3.52592708 -12.42027913 2.3362233 -10.4375 0.75 C-6.89085382 -0.34127575 -3.70471601 -0.12349053 0 0 Z " fill="#E25E62" transform="translate(143,93)"/>
<path d="M0 0 C4.81430721 -0.56638908 7.20307814 1.17438373 11 4 C10.67 4.99 10.34 5.98 10 7 C8.33073546 6.02526874 6.66464358 5.04510211 5 4.0625 C4.071875 3.51722656 3.14375 2.97195312 2.1875 2.41015625 C1.465625 1.94480469 0.74375 1.47945313 0 1 C0 0.67 0 0.34 0 0 Z " fill="#E86269" transform="translate(213,98)"/>
<path d="M0 0 C0 3.20395416 -0.74335022 5.09399739 -2 8 C-2.66 8 -3.32 8 -4 8 C-4 8.99 -4 9.98 -4 11 C-4.99 11.33 -5.98 11.66 -7 12 C-5.44298069 7.32894208 -2.91552627 3.91294315 0 0 Z " fill="#A84B4D" transform="translate(117,127)"/>
<path d="M0 0 C-1.43429001 0.67354499 -2.87257057 1.33859701 -4.3125 2 C-5.11300781 2.37125 -5.91351563 2.7425 -6.73828125 3.125 C-9 4 -9 4 -12 4 C-12.33 4.99 -12.66 5.98 -13 7 C-13.99 6.34 -14.98 5.68 -16 5 C-14.58671871 4.18162558 -13.16921654 3.37053781 -11.75 2.5625 C-10.56664063 1.88380859 -10.56664063 1.88380859 -9.359375 1.19140625 C-5.69236889 -0.66031041 -3.96367739 -1.3212258 0 0 Z " fill="#E89B9C" transform="translate(122,25)"/>
<path d="M0 0 C1.32 0 2.64 0 4 0 C4 0.66 4 1.32 4 2 C4.66 2.33 5.32 2.66 6 3 C6 3.66 6 4.32 6 5 C4.02 5 2.04 5 0 5 C-0.33 4.01 -0.66 3.02 -1 2 C-0.67 1.34 -0.34 0.68 0 0 Z " fill="#15141B" transform="translate(185,241)"/>
<path d="M0 0 C3.42931954 3.7559214 4.56429083 8.23466745 6 13 C3 12 3 12 2.05078125 10.29296875 C1.80714844 9.59816406 1.56351562 8.90335938 1.3125 8.1875 C1.06113281 7.50042969 0.80976563 6.81335938 0.55078125 6.10546875 C0 4 0 4 0 0 Z " fill="#E0696E" transform="translate(311,101)"/>
<path d="M0 0 C0 3.64478912 -0.85802506 5.09303401 -3 8 C-5.1875 8.8125 -5.1875 8.8125 -7 9 C-5.44499019 5.18315774 -2.96404505 2.80804268 0 0 Z " fill="#E7787A" transform="translate(65,58)"/>
<path d="M0 0 C0.99 0.495 0.99 0.495 2 1 C1.01 1.495 1.01 1.495 0 2 C0 1.34 0 0.68 0 0 Z M4 1 C4 1.99 4 2.98 4 4 C1.36 4.99 -1.28 5.98 -4 7 C-3.375 5.125 -3.375 5.125 -2 3 C1.125 1.75 1.125 1.75 4 1 Z " fill="#19171E" transform="translate(214,229)"/>
<path d="M0 0 C0.66 0 1.32 0 2 0 C4.27678571 8.03571429 4.27678571 8.03571429 3 12 C0.58314288 7.77050005 -0.34833144 4.87664009 0 0 Z " fill="#E17575" transform="translate(89,182)"/>
<path d="M0 0 C5.01113235 1.4317521 6.94469549 3.98445693 10 8 C7 8 7 8 5 6.125 C4.34 5.42375 3.68 4.7225 3 4 C2.01 3.34 1.02 2.68 0 2 C0 1.34 0 0.68 0 0 Z " fill="#1C181F" transform="translate(218,111)"/>
<path d="M0 0 C-3.28804981 2.91227269 -5.59885603 4.49701212 -10 5 C-7.62417533 -0.26075462 -5.61350876 -0.1220328 0 0 Z " fill="#E37575" transform="translate(235,312)"/>
<path d="M0 0 C-1.19899698 3.0831351 -2.47700477 6.06279492 -4 9 C-4.97110486 5.97878489 -5.13617383 3.99536737 -4 1 C-2 0 -2 0 0 0 Z " fill="#E26061" transform="translate(314,234)"/>
<path d="M0 0 C0.95651196 2.58258228 1.03620881 3.8650399 0.3125 6.5625 C-1.12035293 9.22351258 -2.47085828 10.39821025 -5 12 C-3.68938409 7.76570244 -2.05643741 3.92592596 0 0 Z " fill="#E4807E" transform="translate(248,203)"/>
<path d="M0 0 C1.32 0.66 2.64 1.32 4 2 C4 2.66 4 3.32 4 4 C2.02 4.66 0.04 5.32 -2 6 C-1.67 5.01 -1.34 4.02 -1 3 C-1.66 2.67 -2.32 2.34 -3 2 C-2.01 1.34 -1.02 0.68 0 0 Z " fill="#2B282F" transform="translate(131,106)"/>
<path d="M0 0 C0 0.66 0 1.32 0 2 C-2.97 2.66 -5.94 3.32 -9 4 C-9.33 3.34 -9.66 2.68 -10 2 C-6.5980513 -0.09350689 -3.94727588 -0.17942163 0 0 Z " fill="#20262D" transform="translate(154,102)"/>
<path d="M0 0 C3.375 0.25 3.375 0.25 7 1 C8.4375 3.0625 8.4375 3.0625 9 5 C5.22454612 3.90931332 2.52956528 3.0916909 0 0 Z " fill="#E17070" transform="translate(204,93)"/>
<path d="M0 0 C0.66 0.33 1.32 0.66 2 1 C0.875 3 0.875 3 -1 5 C-4.1875 5.25 -4.1875 5.25 -7 5 C-6.34 4.01 -5.68 3.02 -5 2 C-2.375 1.8125 -2.375 1.8125 0 2 C0 1.34 0 0.68 0 0 Z " fill="#E75952" transform="translate(83,45)"/>
<path d="M0 0 C0 3.20395416 -0.74335022 5.09399739 -2 8 C-2.99 8 -3.98 8 -5 8 C-4.64950425 4.75791433 -4.43778819 3.38472296 -1.9375 1.1875 C-1.298125 0.795625 -0.65875 0.40375 0 0 Z " fill="#1B1B23" transform="translate(202,235)"/>
<path d="M0 0 C0.33 1.32 0.66 2.64 1 4 C-0.9375 6.25 -0.9375 6.25 -3 8 C-3.66 7.67 -4.32 7.34 -5 7 C-3.35 4.69 -1.7 2.38 0 0 Z " fill="#2E262D" transform="translate(231,209)"/>
<path d="M0 0 C2.97 1.65 5.94 3.3 9 5 C5 6 5 6 2 5 C0.8125 2.4375 0.8125 2.4375 0 0 Z " fill="#E46165" transform="translate(257,41)"/>
<path d="M0 0 C-0.5625 1.9375 -0.5625 1.9375 -2 4 C-5.625 4.75 -5.625 4.75 -9 5 C-7.36885863 1.73771726 -3.62038485 0 0 0 Z " fill="#E5777C" transform="translate(217,241)"/>
<path d="M0 0 C3.43595166 1.52708963 6.11912454 3.59927045 9 6 C7.68 6 6.36 6 5 6 C5 5.34 5 4.68 5 4 C4.360625 3.896875 3.72125 3.79375 3.0625 3.6875 C2.381875 3.460625 1.70125 3.23375 1 3 C0.67 2.01 0.34 1.02 0 0 Z " fill="#E36666" transform="translate(119,235)"/>
<path d="M0 0 C0.33 0 0.66 0 1 0 C1.25 2.8125 1.25 2.8125 1 6 C-1 7.875 -1 7.875 -3 9 C-1.125 2.25 -1.125 2.25 0 0 Z " fill="#EC6264" transform="translate(51,73)"/>
<path d="M0 0 C-2.31 1.65 -4.62 3.3 -7 5 C-7.33 4.34 -7.66 3.68 -8 3 C-7.34 3 -6.68 3 -6 3 C-6 2.01 -6 1.02 -6 0 C-3 -1 -3 -1 0 0 Z " fill="#E15C5C" transform="translate(275,288)"/>
<path d="M0 0 C0.66 0.99 1.32 1.98 2 3 C1.67 3.99 1.34 4.98 1 6 C-1.0625 6.6875 -1.0625 6.6875 -3 7 C-1.125 2.25 -1.125 2.25 0 0 Z " fill="#FAE2D9" transform="translate(101,128)"/>
</svg>
