<?xml version="1.0" standalone="no"?>
<!DOCTYPE svg PUBLIC "-//W3C//DTD SVG 20010904//EN"
 "http://www.w3.org/TR/2001/REC-SVG-20010904/DTD/svg10.dtd">
<svg version="1.0" xmlns="http://www.w3.org/2000/svg"
 width="238.000000pt" height="238.000000pt" viewBox="0 0 238.000000 238.000000"
 preserveAspectRatio="xMidYMid meet">
<metadata>
Created by potrace 1.16, written by Peter Selinger 2001-2019
</metadata>
<g transform="translate(0.000000,238.000000) scale(0.100000,-0.100000)"
fill="#000000" stroke="none">
<path d="M1055 2365 c-126 -16 -181 -29 -258 -61 -34 -14 -66 -27 -72 -28 -37
-9 -187 -93 -221 -123 -13 -12 -25 -19 -27 -16 -5 4 -194 -180 -217 -212 -173
-236 -252 -464 -252 -730 -1 -247 58 -443 200 -665 61 -96 234 -273 298 -305
21 -11 41 -22 44 -25 18 -18 76 -53 136 -80 69 -33 200 -81 212 -78 4 1 25 -4
47 -10 69 -19 245 -30 346 -21 201 17 390 82 553 192 75 50 75 50 164 134 329
306 453 811 303 1232 -37 102 -54 141 -64 141 -5 0 -6 4 -3 9 8 12 -111 197
-124 193 -6 -1 -9 2 -5 8 15 25 -278 283 -321 283 -7 0 -11 4 -9 8 7 11 -52
32 -66 23 -7 -4 -10 -3 -6 3 9 15 -53 46 -164 81 -158 51 -337 68 -494 47z
m326 -563 c194 -69 325 -189 400 -368 40 -96 52 -169 47 -282 -9 -161 -72
-306 -178 -408 -62 -60 -163 -134 -183 -134 -5 0 -23 -6 -40 -14 -81 -37 -147
-48 -272 -44 -68 1 -121 6 -118 11 2 4 -3 7 -11 7 -26 0 -177 71 -208 97 -9 8
-22 12 -29 7 -7 -4 -10 -3 -6 3 3 5 -16 32 -44 59 -27 27 -61 66 -76 86 -14
21 -30 35 -36 31 -6 -3 -7 -1 -3 5 4 6 -7 43 -23 82 -17 39 -36 101 -42 137
-16 89 -6 233 20 307 11 32 18 63 14 69 -3 5 -1 7 4 4 6 -4 16 7 24 24 18 44
89 139 141 188 51 48 222 136 293 150 79 16 260 6 326 -17z"/>
<path d="M1070 1761 c-193 -37 -375 -198 -441 -391 -30 -87 -32 -277 -5 -360
55 -165 190 -310 352 -374 79 -32 223 -44 323 -27 190 31 364 180 441 376 21
52 24 77 24 195 1 162 -18 230 -91 330 -85 117 -182 192 -302 233 -63 22 -228
31 -301 18z m518 -573 l-3 -93 -402 -3 -403 -2 0 95 0 95 405 0 406 0 -3 -92z"/>
</g>
</svg>
