<?xml version="1.0" encoding="utf-8"?>
<svg version="1.1"
    id="svg3801" xmlns:rdf="http://www.w3.org/1999/02/22-rdf-syntax-ns#" xmlns:svg="http://www.w3.org/2000/svg" xmlns:dc="http://purl.org/dc/elements/1.1/" xmlns:sodipodi="http://sodipodi.sourceforge.net/DTD/sodipodi-0.dtd" xmlns:cc="http://creativecommons.org/ns#" xmlns:inkscape="http://www.inkscape.org/namespaces/inkscape"
    xmlns="http://www.w3.org/2000/svg" xmlns:xlink="http://www.w3.org/1999/xlink" x="0px" y="0px" viewBox="0 0 75.2 56"
    style="enable-background:new 0 0 75.2 56;" xml:space="preserve">
<style type="text/css">
    .st0{fill:#000000;}  <!-- Changement de couleur ici en noir -->
</style>
<sodipodi:namedview  bordercolor="#666666" borderopacity="1.0" id="base" inkscape:bbox-nodes="true" inkscape:bbox-paths="true" inkscape:current-layer="text3789" inkscape:cx="17.578756" inkscape:cy="12.612864" inkscape:document-units="mm" inkscape:guide-bbox="true" inkscape:object-nodes="true" inkscape:object-paths="true" inkscape:pageopacity="0.0" inkscape:pageshadow="2" inkscape:snap-bbox="true" inkscape:snap-bbox-edge-midpoints="true" inkscape:snap-bbox-midpoints="true" inkscape:snap-center="true" inkscape:snap-intersection-paths="true" inkscape:snap-midpoints="true" inkscape:snap-object-midpoints="true" inkscape:snap-page="true" inkscape:snap-smooth-nodes="true" inkscape:window-height="745" inkscape:window-maximized="1" inkscape:window-width="1366" inkscape:window-x="-8" inkscape:window-y="-8" inkscape:zoom="3.959798" pagecolor="#ffffff" showgrid="false" showguides="true" units="mm">
    <sodipodi:guide  id="guide4138" orientation="1,0" position="37.564274,55.15832"></sodipodi:guide>
    <sodipodi:guide  id="guide4140" orientation="0,1" position="0.73284578,27.945588"></sodipodi:guide>
    <sodipodi:guide  id="guide4345" orientation="0,1" position="17.282807,11.655558"></sodipodi:guide>
</sodipodi:namedview>
<g id="rect3019">
    <path class="st0" d="M2.7,0.8h69.8c1.1,0,1.9,0.8,1.9,1.8v50.9c0,1-0.9,1.8-1.9,1.8H2.7c-1.1,0-1.9-0.8-1.9-1.8V2.6
    C0.7,1.6,1.6,0.8,2.7,0.8L2.7,0.8z"/>
    <path d="M72.5,56H2.7C1.2,56,0,54.9,0,53.5V2.6c0-1.4,1.2-2.5,2.7-2.5h69.8c1.5,0,2.7,1.1,2.7,2.5v50.9C75.1,54.9,73.9,56,72.5,56z
         M2.7,1.6C2,1.6,1.5,2,1.5,2.6v50.9c0,0.6,0.5,1,1.2,1h69.8c0.7,0,1.2-0.5,1.2-1V2.6c0-0.6-0.5-1-1.2-1C72.5,1.6,2.7,1.6,2.7,1.6z"
    />
</g>
<!-- Texte converti en chemin : -->
<g id="text3789-1">
    <path class="st0" d="M21.9,13.9c1.1,0,2,0.4,2.6,1.2c0.5,0.7,0.8,1.5,0.8,2.4c0,0.2,0,0.3,0,0.6c-0.1,1.1-0.7,2-1.6,2.7l1.8,3.8h-2.3l-1.5-3.2
        h-1.3v3.2h-2V14L21.9,13.9z M21.6,19.3l0.6-0.1c0.3-0.1,0.6-0.3,0.8-0.6c0.2-0.3,0.3-0.6,0.3-1c0-0.5-0.1-0.9-0.4-1.3
        c-0.3-0.3-0.6-0.5-1.1-0.5h-1.4v3.4L21.6,19.3z"/>
    <path class="st0" d="M30.5,13.8c1.2,0.2,2,0.9,2.6,2.1c0.5,0.9,0.7,2,0.7,3.3v0.1c0,1.6-0.4,3-1.2,4.1c-0.6,0.8-1.3,1.2-2.4,1.3
        c-0.1,0-0.2,0-0.3,0c-1.1,0-1.9-0.4-2.7-1.3c-0.7-1.2-1.1-2.4-1.1-3.7c0-0.1,0-0.2,0-0.3c0-1.7,0.4-3.1,1.1-4.2
        c0.5-0.6,1-1,1.6-1.2c0.4-0.1,0.8-0.2,1.1-0.2C30.1,13.8,30.3,13.8,30.5,13.8L30.5,13.8z M29.9,22.8c0.6,0,1-0.4,1.4-1.1
        c0.3-0.5,0.5-1.2,0.5-2.2c0-1.2-0.2-2.2-0.6-3c-0.4-0.5-0.8-0.8-1.2-0.9c-0.6,0-1.1,0.4-1.4,1.1C28.3,17.3,28.1,18,28,19
        c0,1.2,0.2,2.2,0.7,3C29.1,22.5,29.5,22.8,29.9,22.8L29.9,22.8z"/>
    <path class="st0" d="M36.9,14v7.2c0.1,0.9,0.6,1.4,1.5,1.5c0.9-0.1,1.4-0.6,1.6-1.5V14h2v7.7c-0.2,0.9-0.6,1.7-1.3,2.2
        c-0.6,0.4-1.3,0.7-1.9,0.7c-0.1,0-0.2,0-0.3,0c-1,0-1.8-0.3-2.4-0.9c-0.7-0.7-1.1-1.4-1.2-2.2V14H36.9z"/>
    <path class="st0" d="M49.3,14v2h-2.1v8.5h-2V16H43v-2H49.3z"/>
    <path class="st0" d="M56.6,14v1.9h-4.4v2.3h3.2v2h-3.2v2.4h4.6v2h-6.6V14C50.2,14,56.6,14,56.6,14z"/>
</g>

<!-- Texte converti en chemin : -->
<g id="text3789-5">
    <path class="st0" d="M19,34c1.1,0.1,1.8,0.6,2.3,1.4c0.4,0.7,0.5,1.5,0.3,2.3c-0.2,0.5-0.4,0.9-0.8,1.2c0.7,0.5,1.1,1.3,1.2,2.3
        c0,0.1,0,0.1,0,0.2c0,0.3-0.1,0.6-0.2,0.9c-0.4,1.1-1.3,1.7-2.8,1.9h-3.7V34H19z M17.2,38h1.4c0.7,0,1.1-0.4,1.1-1
        c0-0.7-0.3-1.1-1.1-1.1h-1.5V38H17.2z M17.2,42.5h1.7c0.5-0.1,0.8-0.4,1-0.9c0.1-0.8-0.3-1.3-1-1.5h-1.7V42.5z"/>
    <path class="st0" d="M27.8,34l2.7,10.3h-2L28,42.5h-2.8l-0.4,1.7h-2L25.3,34H27.8z M25.6,40.6h2l-1-4L25.6,40.6z"/>
    <path class="st0" d="M34.4,34v2h-3.2v2h3.6c0.8,0,1.2,0.4,1.3,1.1c0,0.7-0.4,1.1-1.1,1.1h-3.7v1.9h3.7c1.4,0,2.2-0.9,2.2-2
        c0-1.3-1-2-2.3-2H34.4z"/>
</g>
</svg>
