<?xml version="1.0" encoding="utf-8"?>
<!-- Generator: Adobe Illustrator 28.1.0, SVG Export Plug-In . SVG Version: 6.00 Build 0)  -->
<svg version="1.1"
	 id="svg3801" xmlns:cc="http://creativecommons.org/ns#" xmlns:sodipodi="http://sodipodi.sourceforge.net/DTD/sodipodi-0.dtd" xmlns:svg="http://www.w3.org/2000/svg" xmlns:dc="http://purl.org/dc/elements/1.1/" xmlns:inkscape="http://www.inkscape.org/namespaces/inkscape" xmlns:rdf="http://www.w3.org/1999/02/22-rdf-syntax-ns#" sodipodi:docname="Nouveau document 3"
	 xmlns="http://www.w3.org/2000/svg" xmlns:xlink="http://www.w3.org/1999/xlink" x="0px" y="0px" viewBox="0 0 75.2 56"
	 style="enable-background:new 0 0 75.2 56;" xml:space="preserve">
<style type="text/css">
	.st0{fill:#F9BA17;}
</style>
<sodipodi:namedview  bordercolor="#666666" borderopacity="1.0" id="base" inkscape:bbox-nodes="true" inkscape:bbox-paths="true" inkscape:current-layer="text3789" inkscape:cx="46.518357" inkscape:cy="26.7307" inkscape:document-units="mm" inkscape:guide-bbox="true" inkscape:object-nodes="true" inkscape:object-paths="true" inkscape:pageopacity="0.0" inkscape:pageshadow="2" inkscape:snap-bbox="true" inkscape:snap-bbox-edge-midpoints="true" inkscape:snap-bbox-midpoints="true" inkscape:snap-center="true" inkscape:snap-intersection-paths="true" inkscape:snap-midpoints="true" inkscape:snap-object-midpoints="true" inkscape:snap-page="true" inkscape:snap-smooth-nodes="true" inkscape:window-height="745" inkscape:window-maximized="1" inkscape:window-width="1366" inkscape:window-x="-8" inkscape:window-y="-8" inkscape:zoom="7.9195959" pagecolor="#ffffff" showgrid="false" showguides="true" units="mm">
	</sodipodi:namedview>
<g id="layer1" transform="translate(0,-996.37793)" inkscape:groupmode="layer" inkscape:label="Layer 1">
	<g id="g3841">
		<g id="rect3019">
			<path class="st0" d="M2.7,997.2h69.8c1.1,0,1.9,0.8,1.9,1.8v50.9c0,1-0.9,1.8-1.9,1.8H2.7c-1.1,0-1.9-0.8-1.9-1.8V999
				C0.7,998,1.6,997.2,2.7,997.2L2.7,997.2z"/>
			<path d="M72.5,1052.4H2.7c-1.5,0-2.7-1.1-2.7-2.5V999c0-1.4,1.2-2.5,2.7-2.5h69.8c1.5,0,2.7,1.1,2.7,2.5v50.9
				C75.1,1051.2,73.9,1052.4,72.5,1052.4z M2.7,997.9c-0.7,0-1.2,0.5-1.2,1v50.9c0,0.6,0.5,1,1.2,1h69.8c0.7,0,1.2-0.5,1.2-1V999
				c0-0.6-0.5-1-1.2-1H2.7z"/>
		</g>
		<g id="text3789">
			<g id="path3850">
				<path d="M10.8,1011.8v2h-2v8.2H6.9v-8.2H4.7v-1.9H10.8z"/>
			</g>
			<g id="path3852">
				<path d="M15,1011.8c1.1,0,1.9,0.4,2.5,1.1c0.5,0.7,0.8,1.4,0.8,2.3c0,0.2,0,0.3,0,0.5c-0.1,1-0.6,1.9-1.5,2.6l1.7,3.7h-2.2
					l-1.4-3h-1.3v3h-1.9l0-10.2L15,1011.8z M14.7,1017l0.6-0.1c0.3-0.1,0.6-0.3,0.8-0.5c0.2-0.3,0.3-0.6,0.3-1
					c0-0.5-0.1-0.9-0.4-1.2c-0.2-0.3-0.6-0.4-1.1-0.5h-1.4v3.3L14.7,1017z"/>
			</g>
			<g id="path3854">
				<path d="M23.9,1011.8l2.6,10.1h-2l-0.4-1.7h-2.8l-0.4,1.7h-2l2.6-10.1H23.9z M21.6,1018.3h2l-1-4L21.6,1018.3z"/>
			</g>
			<g id="path3856">
				<path d="M29,1011.8l2.1,7.3l1.8-7.3h2l-2.5,10.1h-2.6l-2.7-10.1H29z"/>
			</g>
			<g id="path3858">
				<path d="M41.6,1011.9v1.9h-4.2v2.2h3.1v1.9h-3.1v2.3h4.4v1.9h-6.3l0-10.1H41.6z"/>
			</g>
			<g id="path3860">
				<path d="M46,1011.8c1.1,0,1.9,0.4,2.5,1.1c0.5,0.7,0.8,1.4,0.8,2.3c0,0.2,0,0.3,0,0.5c-0.1,1-0.6,1.9-1.5,2.6l1.7,3.7h-2.2
					l-1.4-3h-1.3v3h-1.9l0-10.2L46,1011.8z M45.7,1017l0.6-0.1c0.3-0.1,0.6-0.3,0.8-0.5c0.2-0.3,0.3-0.6,0.3-1
					c0-0.5-0.1-0.9-0.4-1.2c-0.2-0.3-0.6-0.4-1.1-0.5h-1.4v3.3L45.7,1017z"/>
			</g>
			<g id="path3862">
				<path d="M49.9,1019.9L49.9,1019.9c0-0.1,0.1-0.1,0.2-0.1c0.8-0.3,1.3-0.5,1.6-0.6c0.1,0.2,0.3,0.3,0.5,0.5
					c0.3,0.2,0.7,0.3,1.1,0.4c0.4,0,0.6,0,0.7,0c0.5-0.1,0.7-0.3,0.8-0.4c0.1-0.1,0.2-0.3,0.3-0.7c0-0.1,0-0.3-0.1-0.5
					c-0.1-0.1-0.1-0.2-0.2-0.3l-0.2-0.2l-0.3-0.1c-1.5-0.5-2.3-0.7-2.4-0.8c-0.7-0.3-1.2-0.7-1.5-1.3c-0.2-0.4-0.3-0.9-0.3-1.5
					c0.1-0.7,0.4-1.3,0.9-1.8c0.6-0.4,1.2-0.7,1.8-0.7H53c0.5,0,0.8,0,1.1,0.1c0.6,0.2,1.1,0.4,1.4,0.7c0.3,0.3,0.6,0.7,0.8,1.1
					l0,0.1l-1.4,0.7l-0.1,0c-0.1-0.3-0.3-0.5-0.7-0.7c-0.5-0.2-1-0.2-1.6,0c-0.3,0.1-0.4,0.2-0.6,0.3c0,0-0.1,0.2-0.1,0.3
					c0,0.2,0,0.4,0,0.4c0.1,0.2,0.2,0.3,0.4,0.4l0.2,0.1c1.3,0.4,2.2,0.7,2.7,0.8c0.4,0.2,0.7,0.4,0.9,0.6l0.4,0.5
					c0.3,0.5,0.4,1,0.5,1.6c0,0,0,0.1,0,0.1c0,0.2,0,0.4-0.1,0.7c-0.1,0.4-0.3,0.7-0.4,0.9c-0.3,0.3-0.5,0.5-0.6,0.6
					c-0.7,0.5-1.4,0.7-2.1,0.8H53c-0.5,0-0.9-0.1-1.2-0.3c-0.5-0.2-0.9-0.5-1.3-0.8C50.3,1020.7,50.1,1020.4,49.9,1019.9
					L49.9,1019.9z"/>
			</g>
			<g id="path3864">
				<path d="M63.7,1011.9v1.9h-4.2v2.2h3.1v1.9h-3.1v2.3h4.4v1.9h-6.3v-10.1H63.7z M62.3,1009.3l-1.1,2.1h-2.2l0.9-2.1H62.3z"/>
			</g>
			<g id="path3866">
				<path d="M70.9,1011.9v1.9h-4.2v2.2h3.1v1.9h-3.1v2.3H71v1.9h-6.3l0-10.1H70.9z"/>
			</g>
		</g>
		<g id="text3797">
			<g id="path3869">
				<path d="M14.9,1027.4c0.7,0.1,1.3,0.4,1.8,0.8c0.5,0.5,0.8,1,1.1,1.7c0.1,0.3,0.2,0.7,0.2,1.1v3.3c-0.1,1.1-0.4,2-1.1,2.7
					c-0.6,0.7-1.4,1.1-2.3,1.1h-4.3l0-10.8H14.9z M12.5,1036.1h1.7c0.3-0.1,0.6-0.2,0.9-0.4c0.2-0.2,0.5-0.6,0.6-1.1
					c0.1-0.3,0.1-1.5,0.1-3.4c-0.2-1-0.8-1.6-1.6-1.8h-1.7L12.5,1036.1z"/>
			</g>
			<g id="path3871">
				<path d="M21.7,1027.4l-0.7,2.3h-2.5l0.7-2.3H21.7z"/>
			</g>
			<g id="path3873">
				<path d="M29.2,1027.4v2h-4.5v2.4H28v2h-3.3v2.5h4.6v2h-6.7l0-10.8H29.2z"/>
			</g>
			<g id="path3875">
				<path d="M33,1027.4l2.7,5.8v-5.8h2l0,10.8h-2l-3.3-6.8l0,6.8h-2v-10.8H33z"/>
			</g>
			<g id="path3877">
				<path d="M43,1027.3c1.4,0.1,2.4,1.1,3,2.8l-1.9,0.5c-0.3-0.8-0.7-1.2-1.2-1.4c-0.6-0.2-1.1,0.1-1.7,0.9
					c-0.3,0.5-0.5,1.4-0.6,2.4c0,1.2,0.2,2.1,0.5,2.7c0.4,0.6,0.8,1,1.3,1.1c0.9,0,1.5-0.7,1.8-2h-1.7v-2h3.8v0.1c0,0.1,0,0.2,0,0.4
					c0,1.7-0.4,3.1-1.2,4.2c-0.5,0.8-1.4,1.2-2.4,1.3h-0.2c-2.4,0-3.7-1.7-4-5c0-0.1,0-0.2,0-0.3c0-1.7,0.4-3.2,1.2-4.3
					c0.5-0.6,1-1,1.5-1.1c0.4-0.1,0.9-0.2,1.3-0.2C42.7,1027.3,42.9,1027.3,43,1027.3L43,1027.3z"/>
			</g>
			<g id="path3879">
				<path d="M49.5,1027.4v10.8h-2v-10.8H49.5z"/>
			</g>
			<g id="path3881">
				<path d="M53.3,1027.4l2.7,5.8v-5.8h2l0,10.8h-2l-3.3-6.8l0,6.8h-2v-10.8H53.3z"/>
			</g>
			<g id="path3883">
				<path d="M59,1036L59,1036c0-0.1,0.1-0.1,0.2-0.1c0.9-0.3,1.4-0.5,1.7-0.6c0.1,0.2,0.3,0.3,0.5,0.5c0.3,0.2,0.7,0.3,1.1,0.4
					c0.4,0,0.7,0,0.8,0c0.5-0.1,0.8-0.3,0.9-0.4c0.1-0.1,0.2-0.3,0.3-0.7c0-0.1,0-0.3-0.1-0.5c-0.1-0.1-0.2-0.2-0.2-0.3l-0.3-0.2
					l-0.3-0.1c-1.6-0.5-2.4-0.8-2.6-0.9c-0.7-0.3-1.3-0.8-1.6-1.4c-0.2-0.4-0.3-1-0.3-1.6c0.1-0.8,0.4-1.4,1-1.9
					c0.6-0.5,1.3-0.7,2-0.7h0.2c0.5,0,0.9,0,1.2,0.1c0.6,0.2,1.2,0.4,1.5,0.8c0.4,0.3,0.7,0.7,0.9,1.2l0,0.1l-1.5,0.7l-0.1,0
					c-0.1-0.3-0.4-0.5-0.8-0.7c-0.5-0.2-1.1-0.2-1.7,0c-0.3,0.1-0.5,0.2-0.6,0.4c0,0-0.1,0.2-0.2,0.4c0,0.2,0,0.4,0,0.4
					c0.1,0.2,0.2,0.3,0.4,0.4l0.2,0.1c1.4,0.4,2.3,0.7,2.8,0.9c0.4,0.2,0.8,0.4,1,0.6l0.4,0.6c0.3,0.5,0.5,1.1,0.5,1.7
					c0,0,0,0.1,0,0.1c0,0.2,0,0.4-0.1,0.8c-0.1,0.5-0.3,0.8-0.4,1c-0.3,0.4-0.5,0.6-0.6,0.7c-0.7,0.5-1.5,0.8-2.2,0.8h-0.7
					c-0.5,0-0.9-0.1-1.3-0.3c-0.5-0.3-1-0.5-1.3-0.9C59.5,1036.9,59.2,1036.5,59,1036L59,1036z"/>
			</g>
		</g>
	</g>
</g>
</svg>
