<?xml version="1.0" encoding="utf-8"?>
<!-- Generator: Adobe Illustrator 28.1.0, SVG Export Plug-In . SVG Version: 6.00 Build 0)  -->
<svg version="1.1"
	 id="svg3797" xmlns:svg="http://www.w3.org/2000/svg" xmlns:rdf="http://www.w3.org/1999/02/22-rdf-syntax-ns#" xmlns:sodipodi="http://sodipodi.sourceforge.net/DTD/sodipodi-0.dtd" xmlns:dc="http://purl.org/dc/elements/1.1/" xmlns:cc="http://creativecommons.org/ns#" xmlns:inkscape="http://www.inkscape.org/namespaces/inkscape"
	 xmlns="http://www.w3.org/2000/svg" xmlns:xlink="http://www.w3.org/1999/xlink" x="0px" y="0px" viewBox="0 0 1993 517"
	 style="enable-background:new 0 0 1993 517;" xml:space="preserve">
<style type="text/css">
	.st0{fill:#F9BA11;}
</style>
<g id="path4386">
	<path inkscape:connector-curvature="0" sodipodi:nodetypes="cccccccc" class="st0" d="M1954.5,508.6l-1531.3-0.3L180.4,253.4
		L423.2,8.7L1951,8.4c34.8,6.8,32.1,2.5,36,18.1l-1.6,454.7C1981.7,491.2,1976.9,504.4,1954.5,508.6L1954.5,508.6z"/>
	<path d="M1951,7.9c7.2,1.4,12.6,2.3,17,3c16,2.7,16.3,2.7,18.9,13.4c0.2,0.6,0.3,1.3,0.5,2.1l0,0.1l-1.6,454.8l-0.1,0.2
		c-3.6,9.8-8.6,23.3-31.2,27.5l-0.1,0L423,508.8l-0.1-0.2L179.7,253.4l0.3-0.3L423,8.2h0.2L1951,7.9z M1986.5,26.6
		c-0.2-0.7-0.3-1.4-0.5-2c-2.4-10.1-2.4-10.1-18.1-12.7c-4.4-0.7-9.9-1.6-16.9-3L423.4,9.2L181.1,253.4l242.3,254.4l1531,0.3
		c22-4.1,26.7-16.7,30.4-26.9l0,0L1986.5,26.6z"/>
</g>
<path inkscape:connector-curvature="0" sodipodi:nodetypes="cccccccc" d="M423.2,499.7l0,16.9l-397.5-223c-39-24.2-29.2-47.5,0-70.4
	l397.5-223l0,16.8l-231,236.1L423.2,499.7z"/>
<g id="g3783" transform="translate(-790.1721,1696.8543)">
	<g id="g3787" transform="matrix(0.99995042,0,0,1.0005716,311.81179,-539.83462)">
		<g id="path3779">
			<path d="M2444.2-1156.3c0.3,0,0.6,0,1,0.1c14.5,1.7,24.4,11.8,25.8,26.5c0,0.3,0,0.6,0,0.8v458.8c0.2,9.6-2.4,17.1-7.6,22.3
				c-8.5,8.5-21.3,8.3-30.6,8.1L901.5-640l0-16.7l1531.5,0.3c0.1,0,0.1,0,0.2,0c6.7,0.1,15,0.3,18.5-3.2c1.9-1.9,2.8-5.3,2.7-10.2
				c0-0.1,0-0.1,0-0.2v-458.5c-0.8-6.6-4.3-10.2-10.6-11.1l-1542.1,0.3l0-16.7L2444.2-1156.3z"/>
		</g>
	</g>
</g>
<g id="text3009">
	<g id="path3016">
		<path d="M489.2,368.5l45.9-219.2h59c16.4,0,27,0.2,31.5,0.7c9.1,0.9,17.2,2.7,24.3,5.5c7.1,2.8,13.6,6.7,19.4,11.7
			c5.8,5,10.9,11.1,15.1,18.2c4.2,7.1,7.5,15.2,9.8,24.4c2.3,9.2,3.4,19.3,3.4,30.3c0,23.6-4.5,44.6-13.5,62.9
			c-9,18.3-20.4,32.8-34,43.6c-10.5,8.4-24,14.6-40.5,18.5c-9.4,2.2-23.8,3.3-43.2,3.3H489.2z M541.7,333.2h22.9
			c16.5,0,28.5-1,36-3.1c7.4-2,14.2-5.9,20.4-11.4c8.9-8.1,16.3-18.8,22.4-32.3c6.1-13.5,9.1-29.3,9.1-47.5
			c0-15.5-2.5-27.2-7.5-35.1c-5-7.8-11.2-13-18.6-15.6c-5.2-1.8-14.4-2.7-27.7-2.7h-26.2L541.7,333.2z"/>
	</g>
	<g id="path3018">
		<path d="M864,302.4H756.4c-0.1,1.7-0.1,3-0.1,3.9c0,10.6,3,19.1,9,25.6c6,6.5,13.4,9.7,22.1,9.7c14.3,0,25.4-7.4,33.3-22.1
			l38.4,6.4c-7.5,15.4-17.5,27-30,34.8c-12.5,7.7-26.5,11.6-42.1,11.6c-21.3,0-38.7-6.8-52-20.3c-13.4-13.5-20-31.4-20-53.6
			c0-21.7,6-41.1,18.1-58c16.4-22.9,39.9-34.4,70.4-34.4c19.4,0,34.9,6,46.3,18c11.5,12,17.2,28.8,17.2,50.5
			C867,284.8,866,294.1,864,302.4L864,302.4z M827.8,276.2c0.1-1.9,0.1-3.3,0.1-4.3c0-11.8-2.6-20.6-7.9-26.5
			c-5.3-5.9-12.4-8.8-21.2-8.8c-8.9,0-16.8,3.3-23.8,10c-7,6.7-11.8,16.5-14.3,29.6L827.8,276.2z M823.5,144.8h45.7l-48.4,44.8
			h-28.6L823.5,144.8z"/>
	</g>
	<g id="path3020">
		<path d="M959.2,368.5h-36.9l-31.8-158.8h42.2l11.2,69.2c3.1,18.7,4.9,31.2,5.5,37.4c0.8-1.7,4.3-8.1,10.4-19.4
			c6.1-11.2,9.9-18,11.3-20.3l39.5-67h46.3L959.2,368.5z"/>
	</g>
	<g id="path3022">
		<path d="M1096,149.3h42.9l-8.1,38.9h-42.9L1096,149.3z M1083.4,209.7h42.9l-33.2,158.8h-42.9L1083.4,209.7z"/>
	</g>
	<g id="path3024">
		<path d="M1195.7,254.7l-41.9-3.6c4.8-14.2,13.1-25.2,25-33.2c11.9-8,27.7-12,47.3-12c20.4,0,35.5,4.1,45.3,12.3
			c9.8,8.2,14.7,18.3,14.7,30.1c0,4.8-0.4,9.9-1.3,15.2c-0.8,5.4-3.8,19.5-8.9,42.5c-4.2,18.9-6.3,32.2-6.3,39.8
			c0,6.8,1.2,14.3,3.6,22.6h-41.7c-1.7-5.8-2.7-11.8-3.1-17.9c-6.3,7-13.5,12.3-21.7,16.1c-8.2,3.7-16.4,5.6-24.7,5.6
			c-13.2,0-24-4.3-32.6-12.9c-8.6-8.6-12.9-19.7-12.9-33.3c0-15.1,4.7-27.3,14.1-36.3c9.4-9.1,26.2-14.6,50.5-16.4
			c20.4-1.7,34.1-3.7,41-6.1c1.8-6,2.7-10.8,2.7-14.4c0-4.6-1.8-8.4-5.5-11.5c-3.7-3.1-9.2-4.6-16.4-4.6c-7.7,0-13.7,1.6-18.2,4.7
			C1200.3,244.5,1197.3,248.9,1195.7,254.7L1195.7,254.7z M1236.5,294.5c-2.6,0.7-6,1.3-10.3,1.9c-21.5,2.6-35.6,6.4-42.2,11.4
			c-4.7,3.6-7,8.4-7,14.5c0,5,1.8,9.2,5.4,12.6c3.6,3.4,8.3,5.2,14.2,5.2c6.5,0,12.6-1.6,18.3-4.7c5.7-3.1,10-7.2,12.9-12.1
			c2.8-4.9,5.4-12.6,7.5-23.1L1236.5,294.5z"/>
	</g>
	<g id="path3026">
		<path d="M1316.4,241.5l6.6-31.8h20.9l5.2-25.4l49.2-29.6l-11.5,55h26.2l-6.6,31.8H1380l-13.9,66.5c-2.5,12.1-3.7,18.9-3.7,20.6
			c0,3.3,1,5.9,3.1,7.7c2.1,1.8,5.9,2.8,11.4,2.8c1.9,0,6.6-0.3,14.2-1l-6.7,31.8c-7.4,1.5-14.9,2.2-22.7,2.2
			c-15.1,0-26.2-2.9-33-8.7s-10.3-13.9-10.3-24.3c0-4.9,1.8-16.1,5.5-33.8l13.3-63.8L1316.4,241.5z"/>
	</g>
	<g id="path3028">
		<path d="M1453.6,149.3h42.9l-8.1,38.9h-42.9L1453.6,149.3z M1441,209.7h42.9l-33.2,158.8h-42.9L1441,209.7z"/>
	</g>
	<g id="path3030">
		<path d="M1499,302.5c0-29.4,8.3-52.8,24.9-70.3c16.6-17.5,38.4-26.2,65.4-26.2c23.4,0,41.7,6.5,54.9,19.4
			c13.2,12.9,19.7,30.3,19.7,52.1c0,25.7-8.2,47.9-24.7,66.7c-16.4,18.7-38.5,28.1-66.1,28.1c-14.9,0-28.2-3-39.8-9
			c-11.6-6-20.2-14.5-25.9-25.4C1501.9,326.9,1499,315.1,1499,302.5z M1621.3,271.9c0-10.2-3-18.3-8.9-24.4
			c-5.9-6.1-13.6-9.2-22.9-9.2c-9.3,0-17.5,2.9-24.7,8.6c-7.2,5.7-12.8,14.1-16.7,25c-4,10.9-6,21-6,30.1c0,11.4,3.1,20.4,9.3,27.1
			c6.2,6.7,14,10,23.3,10c11.8,0,21.6-5,29.6-15.1C1615.6,309.7,1621.3,292.3,1621.3,271.9L1621.3,271.9z"/>
	</g>
	<g id="path3032">
		<path d="M1713.7,209.7h40.7l-4.2,20.6c10.2-8.8,19.7-15,28.5-18.8c8.8-3.7,18.1-5.6,27.9-5.6c13.1,0,23.3,3.7,30.9,11.2
			c7.5,7.5,11.3,17.4,11.3,29.7c0,5.6-1.6,16.1-4.9,31.7l-18.7,89.8h-42.9l18.8-90.1c2.8-13.5,4.2-21.5,4.2-24.1
			c0-5.5-1.6-9.8-4.9-12.9c-3.2-3.1-7.7-4.7-13.5-4.7c-6.3,0-13.3,2.6-20.9,7.9c-7.7,5.3-13.7,12.3-18.1,20.9
			c-3.2,6.2-6.8,18.8-10.8,37.8l-13.6,65.2h-42.9L1713.7,209.7z"/>
	</g>
</g>
</svg>
