<?xml version="1.0" encoding="UTF-8"?>
<svg id="a" data-name="svg3797" xmlns="http://www.w3.org/2000/svg" viewBox="0 0 1992.59 516.97">
  <g id="b" data-name="path4386">
    <path d="M1954.47,508.54l-1531.31-.3-242.77-254.87L423.16,8.66l1527.86-.28c34.76,6.76,32.1,2.49,35.96,18.13l-1.64,454.7c-3.67,9.94-8.45,23.14-30.87,27.33h0Z" style="fill: #f9ba11; stroke-width: 0px;"/>
    <path d="M1951.02,7.88c7.16,1.38,12.62,2.29,17.01,3.02,16.04,2.67,16.34,2.72,18.93,13.42.16.65.32,1.34.5,2.07v.12s-1.63,454.79-1.63,454.79l-.07.2c-3.63,9.84-8.59,23.31-31.21,27.53h-.09s-1531.52-.29-1531.52-.29l-.15-.16-243.1-255.22.34-.34L422.95,8.17h.21s1527.86-.28,1527.86-.28ZM1986.48,26.57c-.18-.71-.34-1.38-.49-2.01q-2.43-10.05-18.12-12.67c-4.4-.73-9.87-1.64-16.94-3.02l-1527.56.29-242.28,244.22,242.29,254.36,1531.05.3c22.02-4.13,26.67-16.75,30.41-26.88v-.03s1.65-454.55,1.65-454.55Z" style="stroke-width: 0px;"/>
  </g>
  <path d="M423.16,499.69v16.89S25.7,293.61,25.7,293.61c-39.04-24.23-29.15-47.5,0-70.38L423.16.25v16.82s-230.98,236.12-230.98,236.12l230.98,246.5Z" style="stroke-width: 0px;"/>
  <g id="c" data-name="g3783">
    <g id="d" data-name="g3787">
      <g id="e" data-name="path3779">
        <path d="M1965.74,0c.32,0,.64.02.96.05,14.46,1.67,24.36,11.82,25.83,26.5.03.28.04.56.04.84v459.09c.18,9.58-2.38,17.08-7.6,22.31-8.53,8.53-21.26,8.31-30.59,8.13l-1531.31-.3v-16.76s1531.39.3,1531.39.3c.05,0,.11,0,.16,0,6.68.13,14.99.29,18.49-3.22,1.89-1.89,2.79-5.32,2.7-10.21,0-.06,0-.11,0-.17V27.85c-.78-6.58-4.25-10.22-10.6-11.09l-1542.06.29V.29s1542.58-.29,1542.58-.29Z" style="stroke-width: 0px;"/>
      </g>
    </g>
  </g>
  <g id="f" data-name="text3009">
    <g id="g" data-name="path3016">
      <path d="M489.21,368.44l45.89-219.16h59.05c16.44,0,26.96.25,31.54.75,9.07.9,17.17,2.74,24.29,5.53,7.13,2.79,13.6,6.7,19.43,11.74,5.83,5.03,10.86,11.09,15.1,18.16,4.24,7.08,7.5,15.22,9.79,24.44,2.29,9.22,3.44,19.31,3.44,30.27,0,23.62-4.51,44.57-13.53,62.86-9.02,18.29-20.36,32.81-34.01,43.58-10.46,8.37-23.97,14.55-40.51,18.54-9.37,2.19-23.77,3.29-43.2,3.29h-77.29ZM541.68,333.16h22.87c16.54,0,28.53-1.02,35.95-3.06,7.42-2.04,14.23-5.86,20.41-11.44,8.87-8.07,16.34-18.84,22.42-32.29,6.08-13.45,9.12-29.3,9.12-47.54,0-15.55-2.52-27.23-7.55-35.06-5.03-7.82-11.24-13.03-18.61-15.62-5.18-1.79-14.4-2.69-27.66-2.69h-26.16l-30.8,147.7Z" style="stroke-width: 0px;"/>
    </g>
    <g id="h" data-name="path3018">
      <path d="M863.99,302.36h-107.64c-.1,1.69-.15,2.99-.15,3.89,0,10.56,3.01,19.09,9.04,25.56,6.03,6.48,13.38,9.72,22.05,9.72,14.25,0,25.36-7.38,33.34-22.13l38.42,6.43c-7.47,15.45-17.47,27.03-29.97,34.76-12.51,7.72-26.54,11.59-42.08,11.59-21.33,0-38.67-6.75-52.02-20.26-13.35-13.5-20.03-31.37-20.03-53.59,0-21.73,6.03-41.06,18.09-58,16.44-22.92,39.91-34.38,70.41-34.38,19.43,0,34.88,6,46.34,18.01,11.46,12.01,17.19,28.83,17.19,50.45,0,10.36-1,19.68-2.99,27.96h0ZM827.81,276.2c.1-1.89.15-3.34.15-4.34,0-11.76-2.64-20.58-7.92-26.46-5.28-5.88-12.36-8.82-21.23-8.82-8.87,0-16.82,3.34-23.84,10.02-7.03,6.68-11.79,16.54-14.28,29.6h67.12ZM823.48,144.8h45.75l-48.44,44.85h-28.55l31.24-44.85Z" style="stroke-width: 0px;"/>
    </g>
    <g id="i" data-name="path3020">
      <path d="M959.22,368.44h-36.92l-31.84-158.76h42.16l11.21,69.22c3.09,18.74,4.93,31.19,5.53,37.37.8-1.69,4.26-8.15,10.39-19.36,6.13-11.21,9.89-17.96,11.29-20.26l39.47-66.97h46.34l-97.62,158.76Z" style="stroke-width: 0px;"/>
    </g>
    <g id="j" data-name="path3022">
      <path d="M1096,149.28h42.9l-8.07,38.87h-42.9l8.07-38.87ZM1083.45,209.68h42.9l-33.19,158.76h-42.9l33.19-158.76Z" style="stroke-width: 0px;"/>
    </g>
    <g id="k" data-name="path3024">
      <path d="M1195.71,254.67l-41.86-3.59c4.78-14.15,13.13-25.21,25.04-33.19,11.91-7.97,27.68-11.96,47.31-11.96,20.43,0,35.53,4.11,45.3,12.33,9.77,8.22,14.65,18.26,14.65,30.12,0,4.78-.42,9.87-1.27,15.25-.85,5.38-3.81,19.53-8.89,42.46-4.19,18.94-6.28,32.19-6.28,39.77,0,6.78,1.2,14.3,3.59,22.57h-41.71c-1.69-5.78-2.74-11.76-3.14-17.94-6.28,6.98-13.5,12.33-21.68,16.07-8.17,3.74-16.39,5.61-24.67,5.61-13.16,0-24.02-4.31-32.59-12.93s-12.86-19.71-12.86-33.26c0-15.15,4.71-27.26,14.13-36.33,9.42-9.07,26.24-14.55,50.45-16.44,20.43-1.69,34.08-3.74,40.96-6.13,1.79-5.98,2.69-10.76,2.69-14.35,0-4.58-1.84-8.42-5.53-11.51-3.69-3.09-9.17-4.63-16.44-4.63-7.67,0-13.73,1.57-18.16,4.71-4.44,3.14-7.45,7.6-9.04,13.38h0ZM1236.53,294.44c-2.59.7-6.03,1.35-10.32,1.94-21.53,2.59-35.58,6.38-42.16,11.36-4.68,3.59-7.03,8.42-7.03,14.5,0,4.98,1.79,9.19,5.38,12.63,3.59,3.44,8.32,5.16,14.2,5.16,6.48,0,12.58-1.57,18.31-4.71,5.73-3.14,10.02-7.18,12.86-12.11,2.84-4.93,5.36-12.63,7.55-23.1l1.2-5.68Z" style="stroke-width: 0px;"/>
    </g>
    <g id="l" data-name="path3026">
      <path d="M1316.36,241.52l6.58-31.84h20.93l5.23-25.41,49.18-29.6-11.51,55.01h26.16l-6.58,31.84h-26.31l-13.9,66.52c-2.49,12.06-3.74,18.94-3.74,20.63,0,3.29,1.05,5.86,3.14,7.7,2.09,1.84,5.88,2.77,11.36,2.77,1.89,0,6.63-.35,14.2-1.05l-6.73,31.84c-7.38,1.49-14.95,2.24-22.72,2.24-15.15,0-26.16-2.92-33.04-8.75-6.88-5.83-10.32-13.93-10.32-24.29,0-4.88,1.84-16.15,5.53-33.79l13.3-63.83h-20.78Z" style="stroke-width: 0px;"/>
    </g>
    <g id="m" data-name="path3028">
      <path d="M1453.59,149.28h42.9l-8.07,38.87h-42.9l8.07-38.87ZM1441.03,209.68h42.9l-33.19,158.76h-42.9l33.19-158.76Z" style="stroke-width: 0px;"/>
    </g>
    <g id="n" data-name="path3030">
      <path d="M1499.04,302.51c0-29.4,8.3-52.85,24.89-70.34,16.59-17.49,38.39-26.24,65.4-26.24,23.42,0,41.71,6.45,54.86,19.36,13.16,12.91,19.73,30.27,19.73,52.1,0,25.71-8.22,47.94-24.67,66.67-16.44,18.74-38.47,28.1-66.08,28.1-14.95,0-28.2-2.99-39.77-8.97-11.56-5.98-20.18-14.45-25.86-25.41-5.68-10.96-8.52-22.72-8.52-35.28ZM1621.32,271.87c0-10.17-2.97-18.31-8.89-24.44-5.93-6.13-13.58-9.19-22.95-9.19-9.27,0-17.49,2.87-24.67,8.6-7.18,5.73-12.76,14.05-16.74,24.97-3.99,10.91-5.98,20.95-5.98,30.12,0,11.36,3.09,20.38,9.27,27.06,6.18,6.68,13.95,10.02,23.32,10.02,11.76,0,21.63-5.03,29.6-15.1,11.36-14.25,17.04-31.59,17.04-52.02h0Z" style="stroke-width: 0px;"/>
    </g>
    <g id="o" data-name="path3032">
      <path d="M1713.71,209.68h40.66l-4.19,20.63c10.17-8.77,19.66-15.02,28.48-18.76,8.82-3.74,18.11-5.61,27.88-5.61,13.06,0,23.35,3.74,30.87,11.21,7.52,7.47,11.29,17.39,11.29,29.75,0,5.58-1.64,16.15-4.93,31.69l-18.69,89.85h-42.9l18.84-90.14c2.79-13.45,4.19-21.48,4.19-24.07,0-5.48-1.62-9.79-4.86-12.93-3.24-3.14-7.75-4.71-13.53-4.71-6.28,0-13.26,2.64-20.93,7.92-7.67,5.28-13.7,12.26-18.09,20.93-3.19,6.18-6.78,18.79-10.76,37.82l-13.6,65.18h-42.9l33.19-158.76Z" style="stroke-width: 0px;"/>
    </g>
  </g>
</svg>