<?xml version="1.0" encoding="UTF-8"?>
<svg version="1.1" xmlns="http://www.w3.org/2000/svg" width="345" height="394">
<path d="M0 0 C0.84962311 0.00304138 1.69924622 0.00608276 2.57461548 0.00921631 C15.98831381 0.080001 28.73710735 0.96828143 41.75 4.4375 C42.57870605 4.64648926 43.40741211 4.85547852 44.26123047 5.07080078 C88.26933016 16.3322179 126.0785202 45.17212158 149.44384766 84.02124023 C157.31470965 97.50691389 163.24747602 111.56202226 167.5625 126.5625 C167.74546631 127.19309326 167.92843262 127.82368652 168.11694336 128.47338867 C172.02639291 143.08543124 173.30274373 157.62410654 173.1875 172.6875 C173.18293793 173.96193466 173.18293793 173.96193466 173.17828369 175.26211548 C173.107499 188.67581381 172.21921857 201.42460735 168.75 214.4375 C168.43651611 215.68055908 168.43651611 215.68055908 168.11669922 216.94873047 C156.85641859 260.95238894 128.01619929 298.77434645 89.16479492 322.1315918 C76.55470702 329.49431193 63.36667797 335.5253891 49.1875 339.125 C41.50592028 341.58829139 37.36098861 348.23000379 32.75 354.4375 C31.91192112 355.52320771 31.07084407 356.60660868 30.2265625 357.6875 C28.56407602 359.82166717 26.91662116 361.96608099 25.28125 364.12109375 C22.64312389 367.5908479 19.9499683 371.01577206 17.25 374.4375 C12.02824316 381.06214465 6.87845748 387.74046876 1.75 394.4375 C-1.70262396 393.28662535 -2.24094513 392.46545908 -4.33203125 389.59765625 C-4.92733643 388.79078369 -5.5226416 387.98391113 -6.13598633 387.15258789 C-6.77173584 386.27723389 -7.40748535 385.40187988 -8.0625 384.5 C-9.415271 382.6656366 -10.76946913 380.8323249 -12.125 379 C-12.81207031 378.06929688 -13.49914062 377.13859375 -14.20703125 376.1796875 C-17.83122158 371.31509551 -21.56421992 366.53619307 -25.31835938 361.77148438 C-27.96536113 358.40614006 -30.56600798 355.03260824 -33.03125 351.53125 C-33.46268311 350.93111084 -33.89411621 350.33097168 -34.33862305 349.71264648 C-35.46704771 348.13357227 -36.57252704 346.53816789 -37.67578125 344.94140625 C-41.17740267 341.53542851 -44.62752989 340.72525186 -49.25 339.4375 C-50.7453939 338.93643666 -52.23641624 338.4221277 -53.72265625 337.89453125 C-54.46870117 337.62979004 -55.21474609 337.36504883 -55.98339844 337.09228516 C-65.798991 333.54262118 -75.09340747 329.44545176 -84.25 324.4375 C-84.87326172 324.10024902 -85.49652344 323.76299805 -86.13867188 323.41552734 C-125.3486865 301.92346157 -153.74298187 264.02591945 -166.42797852 221.51831055 C-166.63737061 220.79039307 -166.8467627 220.06247559 -167.0625 219.3125 C-167.24546631 218.68190674 -167.42843262 218.05131348 -167.61694336 217.40161133 C-171.52639291 202.78956876 -172.80274373 188.25089346 -172.6875 173.1875 C-172.68445862 172.33787689 -172.68141724 171.48825378 -172.67828369 170.61288452 C-172.607499 157.19918619 -171.71921857 144.45039265 -168.25 131.4375 C-168.04101074 130.60879395 -167.83202148 129.78008789 -167.61669922 128.92626953 C-156.3552821 84.91816984 -127.51537842 47.1089798 -88.66625977 23.74365234 C-75.18058611 15.87279035 -61.12547774 9.94002398 -46.125 5.625 C-45.49440674 5.44203369 -44.86381348 5.25906738 -44.21411133 5.07055664 C-29.60206876 1.16110709 -15.06339346 -0.11524373 0 0 Z " fill="#FEC401" transform="translate(172.25,-0.4375)"/>
<path d="M0 0 C0.84962311 0.00304138 1.69924622 0.00608276 2.57461548 0.00921631 C15.98831381 0.080001 28.73710735 0.96828143 41.75 4.4375 C42.57870605 4.64648926 43.40741211 4.85547852 44.26123047 5.07080078 C88.26933016 16.3322179 126.0785202 45.17212158 149.44384766 84.02124023 C157.31470965 97.50691389 163.24747602 111.56202226 167.5625 126.5625 C167.74546631 127.19309326 167.92843262 127.82368652 168.11694336 128.47338867 C172.02639291 143.08543124 173.30274373 157.62410654 173.1875 172.6875 C173.18293793 173.96193466 173.18293793 173.96193466 173.17828369 175.26211548 C173.107499 188.67581381 172.21921857 201.42460735 168.75 214.4375 C168.43651611 215.68055908 168.43651611 215.68055908 168.11669922 216.94873047 C156.85641859 260.95238894 128.01619929 298.77434645 89.16479492 322.1315918 C76.55470702 329.49431193 63.36667797 335.5253891 49.1875 339.125 C41.50592028 341.58829139 37.36098861 348.23000379 32.75 354.4375 C31.91192112 355.52320771 31.07084407 356.60660868 30.2265625 357.6875 C28.56407602 359.82166717 26.91662116 361.96608099 25.28125 364.12109375 C22.64312389 367.5908479 19.9499683 371.01577206 17.25 374.4375 C12.02824316 381.06214465 6.87845748 387.74046876 1.75 394.4375 C-1.70262396 393.28662535 -2.24094513 392.46545908 -4.33203125 389.59765625 C-4.92733643 388.79078369 -5.5226416 387.98391113 -6.13598633 387.15258789 C-6.77173584 386.27723389 -7.40748535 385.40187988 -8.0625 384.5 C-9.415271 382.6656366 -10.76946913 380.8323249 -12.125 379 C-12.81207031 378.06929688 -13.49914062 377.13859375 -14.20703125 376.1796875 C-17.83122158 371.31509551 -21.56421992 366.53619307 -25.31835938 361.77148438 C-27.96536113 358.40614006 -30.56600798 355.03260824 -33.03125 351.53125 C-33.46268311 350.93111084 -33.89411621 350.33097168 -34.33862305 349.71264648 C-35.46704771 348.13357227 -36.57252704 346.53816789 -37.67578125 344.94140625 C-41.17740267 341.53542851 -44.62752989 340.72525186 -49.25 339.4375 C-50.7453939 338.93643666 -52.23641624 338.4221277 -53.72265625 337.89453125 C-54.46870117 337.62979004 -55.21474609 337.36504883 -55.98339844 337.09228516 C-65.798991 333.54262118 -75.09340747 329.44545176 -84.25 324.4375 C-84.87326172 324.10024902 -85.49652344 323.76299805 -86.13867188 323.41552734 C-125.3486865 301.92346157 -153.74298187 264.02591945 -166.42797852 221.51831055 C-166.63737061 220.79039307 -166.8467627 220.06247559 -167.0625 219.3125 C-167.24546631 218.68190674 -167.42843262 218.05131348 -167.61694336 217.40161133 C-171.52639291 202.78956876 -172.80274373 188.25089346 -172.6875 173.1875 C-172.68445862 172.33787689 -172.68141724 171.48825378 -172.67828369 170.61288452 C-172.607499 157.19918619 -171.71921857 144.45039265 -168.25 131.4375 C-168.04101074 130.60879395 -167.83202148 129.78008789 -167.61669922 128.92626953 C-156.3552821 84.91816984 -127.51537842 47.1089798 -88.66625977 23.74365234 C-75.18058611 15.87279035 -61.12547774 9.94002398 -46.125 5.625 C-45.49440674 5.44203369 -44.86381348 5.25906738 -44.21411133 5.07055664 C-29.60206876 1.16110709 -15.06339346 -0.11524373 0 0 Z M-34.25 19.4375 C-35.5665758 19.74960829 -36.88409188 20.05782061 -38.203125 20.359375 C-49.29976574 23.14668286 -60.08987237 27.13428093 -70.25 32.4375 C-70.25 33.0975 -70.25 33.7575 -70.25 34.4375 C-71.47976562 34.51291016 -71.47976562 34.51291016 -72.734375 34.58984375 C-77.47288856 35.73235202 -80.61860699 38.13318023 -84.5 41 C-85.25216797 41.54430664 -86.00433594 42.08861328 -86.77929688 42.64941406 C-92.40502698 46.74636049 -97.93424827 50.9431877 -103.25 55.4375 C-104.02730469 56.09234375 -104.80460937 56.7471875 -105.60546875 57.421875 C-110.61849885 61.75474524 -115.03581291 66.33112015 -119.25 71.4375 C-120.17039062 72.50871094 -120.17039062 72.50871094 -121.109375 73.6015625 C-132.98351349 87.80303214 -141.5043587 103.89957178 -147.25 121.4375 C-147.46688477 122.09137695 -147.68376953 122.74525391 -147.90722656 123.41894531 C-155.76519087 147.43260649 -156.94018567 171.37133766 -154 196.4375 C-153.89091309 197.39744873 -153.78182617 198.35739746 -153.66943359 199.34643555 C-152.90455777 205.05092554 -151.44861115 209.94648094 -149.17773438 215.23095703 C-148.05898313 217.89181855 -147.33825281 220.58077332 -146.625 223.375 C-143.8473172 232.67803287 -138.97502477 241.00263099 -134.25 249.4375 C-133.67636719 250.46746094 -133.10273438 251.49742187 -132.51171875 252.55859375 C-129.22010325 258.24572458 -125.4169777 263.36500599 -121.25 268.4375 C-120.4353125 269.44941406 -119.620625 270.46132813 -118.78125 271.50390625 C-109.4784804 282.90779517 -98.74268628 293.51960024 -86.25 301.4375 C-85.26 301.4375 -84.27 301.4375 -83.25 301.4375 C-83.25 302.0975 -83.25 302.7575 -83.25 303.4375 C-73.17350281 309.39600688 -63.24272805 314.388839 -52.25 318.4375 C-51.04601562 318.92089844 -49.84203125 319.40429688 -48.6015625 319.90234375 C-21.33732814 330.05294753 10.71418178 330.79441684 38.75 323.4375 C40.02810547 323.10298828 40.02810547 323.10298828 41.33203125 322.76171875 C46.74151155 321.21750634 51.70430086 319.17402939 56.7890625 316.77734375 C62.00967595 314.41498173 67.38402638 312.44227552 72.75 310.4375 C72.75 309.7775 72.75 309.1175 72.75 308.4375 C74.01263672 308.08365234 74.01263672 308.08365234 75.30078125 307.72265625 C79.2823813 306.23913822 82.44767185 304.26161255 85.9375 301.875 C86.9275 301.20247192 86.9275 301.20247192 87.9375 300.51635742 C106.33831029 287.86133413 130.70421182 267.41488702 137.46875 245.0625 C137.5615625 244.52625 137.654375 243.99 137.75 243.4375 C138.41 243.4375 139.07 243.4375 139.75 243.4375 C140.06453125 242.60347656 140.3790625 241.76945313 140.703125 240.91015625 C144.61285199 230.62945848 144.61285199 230.62945848 146.8125 226.125 C148.73395158 221.92133451 149.87511483 217.59302991 151 213.125 C151.17539307 212.43043701 151.35078613 211.73587402 151.53149414 211.02026367 C152.33317687 207.69427081 152.75 204.88323922 152.75 201.4375 C153.41 201.4375 154.07 201.4375 154.75 201.4375 C159.99307089 169.93226151 157.70607726 137.52709033 143.75 108.4375 C143.17256153 107.1565273 142.59576755 105.87526393 142.01953125 104.59375 C132.74517351 84.53309682 118.57935232 67.62143574 101.75 53.4375 C101.08226562 52.8703125 100.41453125 52.303125 99.7265625 51.71875 C94.70846658 47.64274871 89.34059792 44.10079176 83.9375 40.5625 C83.19556396 40.07346191 82.45362793 39.58442383 81.68920898 39.08056641 C80.98094971 38.62343262 80.27269043 38.16629883 79.54296875 37.6953125 C78.9089917 37.2842627 78.27501465 36.87321289 77.62182617 36.44970703 C75.67465167 35.3967547 73.91170823 34.87756524 71.75 34.4375 C71.75 33.7775 71.75 33.1175 71.75 32.4375 C46.35012154 20.97484488 21.69020037 16.3005368 -6.1875 16.1875 C-8.08918945 16.1565625 -8.08918945 16.1565625 -10.02929688 16.125 C-18.53055692 16.09014091 -26.06110445 17.20835981 -34.25 19.4375 Z " fill="#FEFDFB" transform="translate(172.25,-0.4375)"/>
<path d="M0 0 C6.49218407 0.02239217 11.38871626 0.97159621 16.9375 4.375 C17.92363281 4.88353516 17.92363281 4.88353516 18.9296875 5.40234375 C22.83486226 7.67901202 24.30448579 9.63257236 25.5 14 C25.70753906 14.85851562 25.91507812 15.71703125 26.12890625 16.6015625 C27.8639331 22.55262078 30.72109625 28.8973975 35.9375 32.375 C35.9375 33.035 35.9375 33.695 35.9375 34.375 C36.5975 34.375 37.2575 34.375 37.9375 34.375 C38.19144531 35.13425781 38.44539063 35.89351562 38.70703125 36.67578125 C39.05121094 37.66964844 39.39539063 38.66351563 39.75 39.6875 C40.08644531 40.67363281 40.42289062 41.65976563 40.76953125 42.67578125 C41.90153227 45.29187725 42.87891945 46.4912578 44.9375 48.375 C45.4325 49.6434375 45.4325 49.6434375 45.9375 50.9375 C46.80022409 53.68738322 46.80022409 53.68738322 49.9375 55.375 C50.88671875 57.7578125 50.88671875 57.7578125 51.625 60.5 C52.00205078 61.86511719 52.00205078 61.86511719 52.38671875 63.2578125 C52.65935547 64.30582031 52.65935547 64.30582031 52.9375 65.375 C53.5975 65.375 54.2575 65.375 54.9375 65.375 C55.2675 66.695 55.5975 68.015 55.9375 69.375 C56.5975 69.375 57.2575 69.375 57.9375 69.375 C59.15625 70.9140625 59.15625 70.9140625 60.4375 73 C60.8603125 73.67289062 61.283125 74.34578125 61.71875 75.0390625 C64.38315336 80.1458356 65.23111197 84.63303824 65.25 90.375 C65.26675781 91.550625 65.28351563 92.72625 65.30078125 93.9375 C64.6992215 99.62967833 62.48310494 103.37254382 58.125 107 C57.47917969 107.54914063 56.83335937 108.09828125 56.16796875 108.6640625 C55.43191406 109.22867188 54.69585937 109.79328125 53.9375 110.375 C53.08502686 111.05771973 52.23255371 111.74043945 51.35424805 112.44384766 C47.04442725 114.87976638 43.89715129 114.97691616 39.0390625 114.984375 C38.20410248 115.00091125 37.36914246 115.01744751 36.50888062 115.03448486 C33.86001105 115.08280345 31.21171488 115.10429925 28.5625 115.125 C26.75908599 115.15317328 24.9556985 115.18310261 23.15234375 115.21484375 C18.74744308 115.28855772 14.3428577 115.33823057 9.9375 115.375 C9.91063447 117.35409398 9.89116625 119.33328971 9.875 121.3125 C9.86339844 122.41464844 9.85179687 123.51679688 9.83984375 124.65234375 C9.62487429 127.28947634 9.62487429 127.28947634 10.9375 128.375 C12.82699147 128.65055084 14.72514928 128.8670904 16.625 129.05859375 C17.79933594 129.18169922 18.97367187 129.30480469 20.18359375 129.43164062 C22.65487414 129.68236886 25.12622664 129.93238758 27.59765625 130.18164062 C34.16660535 130.87141602 40.56461353 131.59950303 46.9375 133.375 C47.2675 134.035 47.5975 134.695 47.9375 135.375 C50.00413684 136.09175266 52.09209614 136.74730193 54.1875 137.375 C63.23281605 140.36629983 72.89474882 145.91951547 77.75 154.4375 C79.76043514 159.80224404 80.01807135 164.58493102 77.9375 169.95703125 C74.31156355 176.82776878 69.72135923 179.92828151 62.9375 183.375 C61.85339844 184.0246875 60.76929688 184.674375 59.65234375 185.34375 C55.74253021 187.58683449 51.70893088 189.08966572 47.4375 190.5 C46.66083984 190.75934326 45.88417969 191.01868652 45.08398438 191.28588867 C38.68770486 193.32740698 32.44957579 194.38822324 25.78125 195.05078125 C22.99388827 195.20388215 22.99388827 195.20388215 20.9375 196.375 C18.60352158 196.48583138 16.26625728 196.52953355 13.9296875 196.54296875 C12.86632423 196.54959282 12.86632423 196.54959282 11.78147888 196.55635071 C-52.81201501 196.84565721 -52.81201501 196.84565721 -73.0625 178.375 C-74.26891172 177.41424873 -75.47695882 176.45554292 -76.6875 175.5 C-79.0625 173.375 -79.0625 173.375 -80.0625 171.375 C-80.15965342 169.04331782 -80.19228217 166.70870043 -80.1875 164.375 C-80.19007812 163.116875 -80.19265625 161.85875 -80.1953125 160.5625 C-80.0625 157.375 -80.0625 157.375 -79.0625 155.375 C-78.4025 155.375 -77.7425 155.375 -77.0625 155.375 C-76.9078125 154.50681641 -76.9078125 154.50681641 -76.75 153.62109375 C-75.944122 150.98825368 -74.84919368 149.52611183 -73.0625 147.4375 C-72.52625 146.78910156 -71.99 146.14070312 -71.4375 145.47265625 C-65.13816312 139.90893272 -57.38810677 137.17249864 -49.5 134.625 C-48.60603516 134.32207031 -47.71207031 134.01914063 -46.79101562 133.70703125 C-38.24331251 130.89322993 -30.01415774 130.2318941 -21.0625 129.8125 C-20.19238281 129.76931641 -19.32226562 129.72613281 -18.42578125 129.68164062 C-16.30481781 129.57675782 -14.18367567 129.47549925 -12.0625 129.375 C-10.68023984 126.61047967 -10.96724613 124.3288637 -11 121.25 C-11.00902344 120.15429688 -11.01804687 119.05859375 -11.02734375 117.9296875 C-11.03894531 117.08664063 -11.05054688 116.24359375 -11.0625 115.375 C-12.08609619 115.3656543 -13.10969238 115.35630859 -14.16430664 115.34667969 C-17.98716647 115.30659832 -21.80923678 115.24079108 -25.6315918 115.16748047 C-27.28122766 115.13937544 -28.93099558 115.11810909 -30.58081055 115.10400391 C-32.96210825 115.08242767 -35.34183588 115.03570755 -37.72265625 114.984375 C-38.45210953 114.98314636 -39.18156281 114.98191772 -39.93312073 114.98065186 C-48.83816655 114.72987224 -55.63430261 109.1873222 -62.0625 103.375 C-66.07144628 98.15122151 -65.74209889 91.71203903 -65.0625 85.375 C-64.04296875 83.0078125 -64.04296875 83.0078125 -63.0625 81.375 C-62.4025 81.375 -61.7425 81.375 -61.0625 81.375 C-60.7325 79.725 -60.4025 78.075 -60.0625 76.375 C-59.4025 76.375 -58.7425 76.375 -58.0625 76.375 C-57.94132812 75.76011719 -57.82015625 75.14523438 -57.6953125 74.51171875 C-57.52773437 73.70347656 -57.36015625 72.89523438 -57.1875 72.0625 C-57.02507812 71.26199219 -56.86265625 70.46148437 -56.6953125 69.63671875 C-56.0625 67.375 -56.0625 67.375 -54.0625 64.375 C-53.4025 64.375 -52.7425 64.375 -52.0625 64.375 C-51.80597656 63.67503906 -51.54945312 62.97507813 -51.28515625 62.25390625 C-49.47573526 57.99338463 -47.01792341 54.16637372 -44.62109375 50.21484375 C-43.31580897 47.83654292 -42.52516973 46.01792158 -42.0625 43.375 C-41.4025 43.375 -40.7425 43.375 -40.0625 43.375 C-39.79179687 42.64925781 -39.52109375 41.92351562 -39.2421875 41.17578125 C-38.09086554 38.44234468 -36.7549902 36.07616951 -35.1875 33.5625 C-33.30728967 30.48662194 -31.52454003 27.42455783 -29.9375 24.1875 C-21.28641323 6.56753143 -21.28641323 6.56753143 -12.75 3.5 C-11.533125 3.12875 -10.31625 2.7575 -9.0625 2.375 C-6.17616441 -0.51133559 -4.02551864 0.04029548 0 0 Z " fill="#883400" transform="translate(174.0625,63.625)"/>
<path d="M0 0 C7.7800651 -0.19791981 15.23646107 0.3560347 22.9375 1.4375 C23.95134766 1.57220703 24.96519531 1.70691406 26.00976562 1.84570312 C35.28548608 3.10249274 35.28548608 3.10249274 38 4 C38.495 4.99 38.495 4.99 39 6 C41.06663684 6.71675266 43.15459614 7.37230193 45.25 8 C54.29531605 10.99129983 63.95724882 16.54451547 68.8125 25.0625 C70.82293514 30.42724404 71.08057135 35.20993102 69 40.58203125 C65.37406355 47.45276878 60.78385923 50.55328151 54 54 C52.91589844 54.6496875 51.83179688 55.299375 50.71484375 55.96875 C46.80503021 58.21183449 42.77143088 59.71466572 38.5 61.125 C37.72333984 61.38434326 36.94667969 61.64368652 36.14648438 61.91088867 C29.75020486 63.95240698 23.51207579 65.01322324 16.84375 65.67578125 C14.05638827 65.82888215 14.05638827 65.82888215 12 67 C9.66602158 67.11083138 7.32875728 67.15453355 4.9921875 67.16796875 C3.92882423 67.17459282 3.92882423 67.17459282 2.84397888 67.18135071 C-61.74951501 67.47065721 -61.74951501 67.47065721 -82 49 C-83.20641172 48.03924873 -84.41445882 47.08054292 -85.625 46.125 C-88 44 -88 44 -89 42 C-89.09715342 39.66831782 -89.12978217 37.33370043 -89.125 35 C-89.12757812 33.741875 -89.13015625 32.48375 -89.1328125 31.1875 C-89 28 -89 28 -88 26 C-87.34 26 -86.68 26 -86 26 C-85.896875 25.42121094 -85.79375 24.84242188 -85.6875 24.24609375 C-84.881622 21.61325368 -83.78669368 20.15111183 -82 18.0625 C-81.195625 17.08990234 -81.195625 17.08990234 -80.375 16.09765625 C-74.07566312 10.53393272 -66.32560677 7.79749864 -58.4375 5.25 C-57.54353516 4.94707031 -56.64957031 4.64414063 -55.72851562 4.33203125 C-46.83990235 1.4060064 -38.81635362 0.84948212 -29.5 0.9375 C-28.5821875 0.94201172 -27.664375 0.94652344 -26.71875 0.95117188 C-24.47909609 0.96283674 -22.23958455 0.97920386 -20 1 C-20 16.01265823 -20 16.01265823 -20.10546875 22.42578125 C-20.12626316 24.37946533 -20.14697557 26.33315175 -20.16479492 28.28686523 C-20.18730276 30.29490346 -20.22541872 32.30274688 -20.26367188 34.31054688 C-20.27333984 35.58607422 -20.28300781 36.86160156 -20.29296875 38.17578125 C-20.3086792 39.34020752 -20.32438965 40.50463379 -20.34057617 41.7043457 C-19.93954916 45.58496481 -18.83404067 49.16595933 -16 52 C-13.54325898 52.27764741 -13.54325898 52.27764741 -10.6875 52.3125 C-9.72199219 52.34988281 -8.75648438 52.38726562 -7.76171875 52.42578125 C-4.13570477 51.86674939 -3.21424742 50.90538472 -1 48 C-0.58015473 45.33841381 -0.39527175 43.07329776 -0.390625 40.41015625 C-0.37408875 39.66978622 -0.35755249 38.9294162 -0.34051514 38.16661072 C-0.29208311 35.79849277 -0.27075308 33.43100555 -0.25 31.0625 C-0.22181161 29.50452446 -0.1918802 27.94657943 -0.16015625 26.38867188 C0.00556866 17.59306592 0.03500514 8.79698671 0 0 Z " fill="#393F45" transform="translate(183,193)"/>
<path d="M0 0 C5.88329801 1.42010642 7.88358662 4.56175644 11.0390625 9.4921875 C13.60681474 12.24782405 15.90365349 14.40191483 19.0390625 16.4921875 C19.98828125 19.3125 19.98828125 19.3125 20.7265625 22.6171875 C20.97792969 23.71289062 21.22929687 24.80859375 21.48828125 25.9375 C21.67003906 26.78054687 21.85179687 27.62359375 22.0390625 28.4921875 C22.6990625 28.4921875 23.3590625 28.4921875 24.0390625 28.4921875 C26.63098972 31.36013814 27.78776448 34.22426139 28.9765625 37.8671875 C30.52152782 42.32381824 32.28554009 45.69422555 35.0390625 49.4921875 C35.3690625 50.4821875 35.6990625 51.4721875 36.0390625 52.4921875 C37.02381911 53.50720199 38.02555915 54.5058757 39.0390625 55.4921875 C39.95267427 56.77810927 40.82733495 58.09246341 41.6640625 59.4296875 C42.08945313 60.09871094 42.51484375 60.76773438 42.953125 61.45703125 C44.0390625 63.4921875 44.0390625 63.4921875 44.5 65.55859375 C44.89044073 67.60069655 44.89044073 67.60069655 46.5703125 68.94140625 C48.57223023 71.05513322 48.50373664 72.43004585 48.5390625 75.3046875 C48.43757342 78.95829454 48.0305843 81.18684164 45.7265625 84.0546875 C41.42790476 87.9534701 37.50918261 87.65938803 31.9909668 87.70092773 C31.17111298 87.71071152 30.35125916 87.7204953 29.50656128 87.73057556 C26.79215108 87.76050126 24.07778999 87.78190588 21.36328125 87.80078125 C19.97198974 87.81063899 19.97198974 87.81063899 18.55259132 87.82069588 C13.64388173 87.8532755 8.73519374 87.87773099 3.82641602 87.8972168 C-0.23510279 87.91503761 -4.29592832 87.94987199 -8.35717773 87.99975586 C-13.26255542 88.0599362 -18.16728976 88.09068914 -23.07301903 88.10038948 C-24.94095534 88.10894796 -26.80887429 88.12777586 -28.6765995 88.1571331 C-31.29338119 88.19605292 -33.90765573 88.19708257 -36.5246582 88.18920898 C-37.67745018 88.2192099 -37.67745018 88.2192099 -38.85353088 88.24981689 C-43.01729139 88.19369249 -45.47031141 87.49283174 -48.46086121 84.69862366 C-50.69323997 82.33247281 -51.3099165 80.74147196 -51.3984375 77.4921875 C-51.13321675 74.1284122 -50.62266589 70.80082945 -49.9609375 67.4921875 C-49.3009375 67.4921875 -48.6409375 67.4921875 -47.9609375 67.4921875 C-47.71472656 66.83605469 -47.46851563 66.17992187 -47.21484375 65.50390625 C-45.62080759 61.67523995 -43.76980961 58.00391144 -41.8984375 54.3046875 C-41.53427734 53.58087891 -41.17011719 52.85707031 -40.79492188 52.11132812 C-39.85188759 50.23746148 -38.90656865 48.364745 -37.9609375 46.4921875 C-37.6309375 45.8321875 -37.3009375 45.1721875 -36.9609375 44.4921875 C-36.3009375 44.4921875 -35.6409375 44.4921875 -34.9609375 44.4921875 C-34.6928125 43.9353125 -34.4246875 43.3784375 -34.1484375 42.8046875 C-30.77199741 36.22951469 -30.77199741 36.22951469 -27.8984375 33.6171875 C-25.34373729 30.81525824 -24.91787417 28.12854686 -23.9609375 24.4921875 C-21.49034926 19.75689338 -21.49034926 19.75689338 -18.9609375 18.4921875 C-18.36938324 17.18022557 -17.83715112 15.84124846 -17.3359375 14.4921875 C-13.97127603 6.75719084 -9.33864238 -1.0590213 0 0 Z " fill="#FBD631" transform="translate(175.9609375,77.5078125)"/>
<path d="M0 0 C1.0415625 0.00902344 2.083125 0.01804688 3.15625 0.02734375 C4.31640625 0.04474609 4.31640625 0.04474609 5.5 0.0625 C5.5 3.6925 5.5 7.3225 5.5 11.0625 C0.59900562 12.92472203 -4.01725886 13.61199074 -9.1875 14.125 C-14.92303281 14.67263973 -14.92303281 14.67263973 -20.5 16.0625 C-21.89439664 16.12915376 -23.29169875 16.14788199 -24.6875 16.125 C-26.5746875 16.0940625 -26.5746875 16.0940625 -28.5 16.0625 C-28.5 16.7225 -28.5 17.3825 -28.5 18.0625 C-29.53060547 18.44341797 -29.53060547 18.44341797 -30.58203125 18.83203125 C-31.48308594 19.17621094 -32.38414063 19.52039063 -33.3125 19.875 C-34.20582031 20.21144531 -35.09914063 20.54789063 -36.01953125 20.89453125 C-38.43946264 22.03399501 -39.67671871 23.16825267 -41.5 25.0625 C-43.5625 24.9375 -43.5625 24.9375 -45.5 24.0625 C-47.66459498 20.81560752 -48.1128433 19.8311999 -47.5 16.0625 C-45.48828125 13.9296875 -45.48828125 13.9296875 -42.8125 11.9375 C-41.50732422 10.94363281 -41.50732422 10.94363281 -40.17578125 9.9296875 C-39.29277344 9.31351563 -38.40976563 8.69734375 -37.5 8.0625 C-36.7471875 7.53140625 -35.994375 7.0003125 -35.21875 6.453125 C-31.49889896 4.55044257 -27.76088206 3.77841289 -23.6875 2.9375 C-22.91857422 2.76863281 -22.14964844 2.59976563 -21.35742188 2.42578125 C-14.24429127 0.90111022 -7.29985593 -0.08295291 0 0 Z " fill="#949AA1" transform="translate(155.5,207.9375)"/>
<path d="M0 0 C7.28758011 -0.27674355 14.03241685 0.1584845 21.1875 1.4375 C21.94216553 1.57196533 22.69683105 1.70643066 23.47436523 1.8449707 C28.85836398 2.85836398 28.85836398 2.85836398 30 4 C32.32817964 4.36760731 34.6618385 4.70241581 37 5 C37 5.66 37 6.32 37 7 C37.804375 7 38.60875 7 39.4375 7 C44.81107242 8.50837121 48.49518138 11.69516844 52 16 C52.625 19.9375 52.625 19.9375 52 23 C51 24 51 24 48.5625 24.1875 C46 24 46 24 44 22 C41.68849737 21.18991376 39.35437476 20.53922493 36.99609375 19.87890625 C36.33738281 19.58886719 35.67867187 19.29882812 35 19 C34.505 17.515 34.505 17.515 34 16 C32.4221875 16.061875 32.4221875 16.061875 30.8125 16.125 C27 16 27 16 24.86328125 15.05859375 C20.77339323 13.54650691 16.69894207 13.31420707 12.375 12.9375 C10.67419935 12.78299784 8.97366145 12.62556804 7.2734375 12.46484375 C6.15074463 12.36610962 6.15074463 12.36610962 5.00537109 12.26538086 C3 12 3 12 0 11 C0 7.37 0 3.74 0 0 Z " fill="#9399A0" transform="translate(185,208)"/>
<path d="M0 0 C1.72265625 1.15625 1.72265625 1.15625 3 3 C4.20418443 11.20498216 3.09139965 20.3033054 0 28 C-3.22791555 30.1519437 -4.28400809 30.20086443 -8 30 C-10.79796463 24.38132306 -11.63206454 19.55211005 -11.9375 13.3125 C-12.00517578 12.47138672 -12.07285156 11.63027344 -12.14257812 10.76367188 C-12.47459563 4.69593171 -12.47459563 4.69593171 -10.2578125 1.4453125 C-6.5547217 -0.92517815 -4.34425381 -0.48269487 0 0 Z " fill="#832E00" transform="translate(179,98)"/>
<path d="M0 0 C3.4375 1.4375 3.4375 1.4375 6 4 C6.87085832 7.18535426 6.8692892 9.81455097 6 13 C3.4375 15.625 3.4375 15.625 0 17 C-3.58830828 16.93813262 -6.13579368 16.35454618 -9.4375 15 C-11.67670661 12.13381554 -11.5587642 9.72641025 -11.37890625 6.1640625 C-11 4 -11 4 -9.4375 1.4375 C-6.01454558 -0.58116543 -3.91989734 -0.5406755 0 0 Z " fill="#863202" transform="translate(177,135)"/>
<path d="M0 0 C0.82242188 0.00451172 1.64484375 0.00902344 2.4921875 0.01367188 C4.49482396 0.02531511 6.49742227 0.04324444 8.5 0.0625 C8.5 0.3925 8.5 0.7225 8.5 1.0625 C7.365625 1.206875 6.23125 1.35125 5.0625 1.5 C1.69222799 1.67421478 1.69222799 1.67421478 0.5 3.0625 C-1.3856394 3.40768125 -3.28135697 3.69814684 -5.1796875 3.96484375 C-6.33597656 4.13306641 -7.49226563 4.30128906 -8.68359375 4.47460938 C-11.13633047 4.82370259 -13.58945595 5.17007557 -16.04296875 5.51367188 C-17.20183594 5.68318359 -18.36070312 5.85269531 -19.5546875 6.02734375 C-20.62187012 6.1780835 -21.68905273 6.32882324 -22.78857422 6.48413086 C-25.7032374 6.93155116 -25.7032374 6.93155116 -28.5 9.0625 C-30.42713916 9.54358957 -32.36669664 9.97604912 -34.3125 10.375 C-41.40347816 12.08366944 -44.65593668 14.72387398 -49.1875 20.375 C-50.3321875 21.7053125 -50.3321875 21.7053125 -51.5 23.0625 C-52.49 23.0625 -53.48 23.0625 -54.5 23.0625 C-54.5 25.0425 -54.5 27.0225 -54.5 29.0625 C-55.49 29.0625 -56.48 29.0625 -57.5 29.0625 C-57.20252495 37.38228434 -57.20252495 37.38228434 -52.5 44.0625 C-52.83 44.7225 -53.16 45.3825 -53.5 46.0625 C-56.02088426 44.42392523 -57.07562893 43.65724589 -58.5 41.0625 C-59.74976258 29.56202517 -59.74976258 29.56202517 -57.5 25.0625 C-56.84 25.0625 -56.18 25.0625 -55.5 25.0625 C-55.396875 24.48371094 -55.29375 23.90492188 -55.1875 23.30859375 C-54.381622 20.67575368 -53.28669368 19.21361183 -51.5 17.125 C-50.96375 16.47660156 -50.4275 15.82820312 -49.875 15.16015625 C-43.57566312 9.59643272 -35.82560677 6.85999864 -27.9375 4.3125 C-26.59655273 3.85810547 -26.59655273 3.85810547 -25.22851562 3.39453125 C-16.75303573 0.60450495 -8.89471804 -0.09416232 0 0 Z " fill="#736A3C" transform="translate(152.5,193.9375)"/>
<path d="M0 0 C0.33 0.66 0.66 1.32 1 2 C-0.14453125 4.3828125 -0.14453125 4.3828125 -1.8125 7.125 C-2.35519531 8.03507813 -2.89789063 8.94515625 -3.45703125 9.8828125 C-3.96621094 10.58148438 -4.47539062 11.28015625 -5 12 C-5.66 12 -6.32 12 -7 12 C-7.13563775 14.22747326 -7.23227853 16.45734323 -7.3125 18.6875 C-7.37050781 19.92886719 -7.42851563 21.17023438 -7.48828125 22.44921875 C-6.85682229 27.04118828 -5.63407677 28.18227273 -2 31 C0.95990174 31.48476306 3.33852946 31.66615831 6.29101562 31.61523438 C7.11276779 31.62078339 7.93451996 31.6263324 8.78117371 31.63204956 C11.49013077 31.64383416 14.19741061 31.61958376 16.90625 31.59375 C18.7928459 31.5920385 20.67944419 31.59210498 22.56604004 31.59387207 C26.51707762 31.5922195 30.46754735 31.57353317 34.41845703 31.54199219 C39.47935472 31.50231483 44.53950882 31.49794735 49.60053253 31.50545502 C53.49536941 31.50852663 57.39003956 31.49639736 61.28483582 31.47932434 C63.15072076 31.4723001 65.01662461 31.46916911 66.88252258 31.47001648 C69.49168964 31.46821589 72.0999708 31.44681216 74.70898438 31.41992188 C75.86245613 31.42431778 75.86245613 31.42431778 77.03923035 31.42880249 C81.52915539 31.35751526 84.44691368 30.8016659 88 28 C90.35119399 24.47320901 90.21443452 22.97120515 90.125 18.8125 C90.10695313 17.72582031 90.08890625 16.63914063 90.0703125 15.51953125 C90.04710937 14.68808594 90.02390625 13.85664063 90 13 C89.01 12.67 88.02 12.34 87 12 C87.33 10.68 87.66 9.36 88 8 C90.87648998 10.59811998 92.34542646 12.18165434 93 16 C93.06624507 17.74886981 93.08552595 19.50002748 93.0625 21.25 C93.05347656 22.14203125 93.04445313 23.0340625 93.03515625 23.953125 C93.02355469 24.62859375 93.01195312 25.3040625 93 26 C92.34 26 91.68 26 91 26 C90.62875 26.8971875 90.62875 26.8971875 90.25 27.8125 C88.71669548 30.4957829 87.70505005 31.46531258 85 33 C82.11587502 33.30081616 79.44729853 33.4305003 76.56298828 33.41992188 C75.71372772 33.42839142 74.86446716 33.43686096 73.98947144 33.44558716 C71.18293263 33.46897973 68.37694142 33.4699787 65.5703125 33.46875 C63.61741924 33.47585079 61.66452806 33.48354966 59.7116394 33.49182129 C55.61775922 33.5052717 51.52407189 33.50683259 47.43017578 33.50097656 C42.18870346 33.49508339 36.94815834 33.52565368 31.70686531 33.56609344 C27.67303498 33.59196879 23.63942785 33.59484794 19.60552597 33.59120178 C17.67344713 33.59289353 15.74135804 33.60254136 13.8093605 33.62034607 C11.10421356 33.64253019 8.40094237 33.63283695 5.69580078 33.61523438 C4.90079163 33.62849762 4.10578247 33.64176086 3.28668213 33.65542603 C-2.46240766 33.56868584 -4.98224141 32.12547578 -9 28 C-11.13643583 23.72712834 -10.4964366 18.72769767 -9.2109375 14.25390625 C-6.60624595 7.40416397 -6.60624595 7.40416397 -3 5 C-2.63837971 3.67405895 -2.30271961 2.34061543 -2 1 C-1.34 0.67 -0.68 0.34 0 0 Z " fill="#BE7D13" transform="translate(133,133)"/>
<path d="M0 0 C0.69552979 -0.01377686 1.39105957 -0.02755371 2.10766602 -0.04174805 C4.07421875 -0.0234375 4.07421875 -0.0234375 7.3125 0.375 C9.52164 3.68871 9.53731553 4.7196021 9.4375 8.5625 C9.41945312 9.46355469 9.40140625 10.36460937 9.3828125 11.29296875 C9.35960937 11.98003906 9.33640625 12.66710937 9.3125 13.375 C3.78118729 16.20497394 -1.451585 17.08073507 -7.6015625 17.84765625 C-10.56329951 18.35377587 -12.92932314 19.22191603 -15.6875 20.375 C-18.01844534 20.7246418 -20.35154762 21.06054487 -22.6875 21.375 C-23.0175 21.705 -23.3475 22.035 -23.6875 22.375 C-25.45447115 22.66998196 -27.22629951 22.93612788 -29 23.1875 C-33.71095776 23.97569113 -35.38203262 24.95148021 -38.6875 28.375 C-42.4375 28.125 -42.4375 28.125 -45.6875 27.375 C-45.3575 26.055 -45.0275 24.735 -44.6875 23.375 C-44.0275 24.365 -43.3675 25.355 -42.6875 26.375 C-40.30398027 25.96404832 -39.00533471 25.72240073 -37.34375 23.90625 C-35.27987859 21.99814247 -33.74028975 21.70378647 -31 21.1875 C-30.19175781 21.02894531 -29.38351563 20.87039062 -28.55078125 20.70703125 C-27.62845703 20.54267578 -27.62845703 20.54267578 -26.6875 20.375 C-26.6875 19.715 -26.6875 19.055 -26.6875 18.375 C-26.11942627 18.29459473 -25.55135254 18.21418945 -24.96606445 18.13134766 C-14.19671538 16.60515465 -3.43359938 15.058124 7.3125 13.375 C7.3125 9.745 7.3125 6.115 7.3125 2.375 C3.10295241 2.82259519 -1.10484596 3.28496704 -5.3125 3.75 C-7.09720703 3.93949219 -7.09720703 3.93949219 -8.91796875 4.1328125 C-10.07167969 4.26171875 -11.22539062 4.390625 -12.4140625 4.5234375 C-13.47189941 4.63864746 -14.52973633 4.75385742 -15.61962891 4.87255859 C-18.80160061 5.39368686 -21.63923379 6.34271861 -24.6875 7.375 C-28.0625 7.5 -28.0625 7.5 -30.6875 7.375 C-30.6875 7.045 -30.6875 6.715 -30.6875 6.375 C-20.58518701 2.77926148 -10.76870451 0.12004298 0 0 Z " fill="#6B6D6B" transform="translate(153.6875,205.625)"/>
<path d="M0 0 C6.4786939 0.02234564 11.40794526 0.95247318 16.9375 4.375 C17.618125 4.76042969 18.29875 5.14585938 19 5.54296875 C22.33938152 7.62334958 23.78966286 8.85264212 24.875 12.6875 C24.895625 13.574375 24.91625 14.46125 24.9375 15.375 C23.26676075 13.78381976 21.89562319 12.31118772 20.625 10.375 C17.6496099 6.84861173 14.12374122 5.62593564 9.6875 4.6875 C-2.48887356 3.43917573 -2.48887356 3.43917573 -13.24609375 8.1953125 C-22.18623739 16.74396199 -22.18623739 16.74396199 -28.0625 27.375 C-28.7225 27.375 -29.3825 27.375 -30.0625 27.375 C-27.94132927 18.71355284 -23.77939979 11.3485809 -17.0625 5.375 C-14.41978695 4.02735971 -11.91962416 3.246665 -9.0625 2.375 C-6.17616441 -0.51133559 -4.02551864 0.04029548 0 0 Z " fill="#984800" transform="translate(174.0625,63.625)"/>
<path d="M0 0 C1.32 0 2.64 0 4 0 C4.01981934 1.08007324 4.03963867 2.16014648 4.06005859 3.27294922 C4.13601623 7.27253913 4.22474816 11.27176052 4.31738281 15.27099609 C4.35571341 17.00334407 4.39055906 18.73577274 4.421875 20.46826172 C4.46743765 22.95569749 4.52544503 25.44257566 4.5859375 27.9296875 C4.59748871 28.70682098 4.60903992 29.48395447 4.62094116 30.28463745 C4.58793768 34.60650975 4.58793768 34.60650975 7 38 C9.20250992 38.46006346 9.20250992 38.46006346 11.625 38.625 C12.44226563 38.69976562 13.25953125 38.77453125 14.1015625 38.8515625 C14.72804687 38.90054688 15.35453125 38.94953125 16 39 C16 38.34 16 37.68 16 37 C17.485 36.505 17.485 36.505 19 36 C19.33 24.12 19.66 12.24 20 0 C20.99 0 21.98 0 23 0 C22.98055446 4.89379462 22.92876417 9.78579725 22.84741211 14.67895508 C22.82426334 16.34226712 22.80984369 18.0057251 22.80444336 19.66918945 C22.7951302 22.06553751 22.75409449 24.45960059 22.70703125 26.85546875 C22.71293022 27.96513252 22.71293022 27.96513252 22.71894836 29.09721375 C22.60788837 33.0569111 22.13038837 34.83688034 19.62792969 37.9675293 C15.83136261 40.90383744 13.17919442 40.70235655 8.53515625 40.49609375 C6 40 6 40 3.375 37.6875 C1.16697124 33.37180742 0.89029941 30.27009931 0.9375 25.46875 C0.94523438 24.18355469 0.95296875 22.89835937 0.9609375 21.57421875 C0.97962945 19.53335304 1.000075 17.49250909 1.02050781 15.45166016 C1.03858219 13.47822323 1.05062347 11.50473396 1.0625 9.53125 C1.07410156 8.35111328 1.08570313 7.17097656 1.09765625 5.95507812 C1.13842356 2.94073522 1.13842356 2.94073522 0 0 Z " fill="#7B3F17" transform="translate(161,206)"/>
<path d="M0 0 C0.68099762 0.00060425 1.36199524 0.0012085 2.06362915 0.00183105 C22.91332771 0.05218449 43.29598814 2.22290674 63.0625 9.1875 C58.88706587 10.45860662 55.78336632 9.53512065 51.6875 8.375 C44.20169462 6.37815756 36.76773642 5.06191447 29.0625 4.1875 C28.02766479 4.05831177 28.02766479 4.05831177 26.97192383 3.92651367 C19.16528407 3.0290217 11.34952539 2.90486691 3.5 2.875 C2.79139832 2.87171692 2.08279663 2.86843384 1.35272217 2.86505127 C-9.62803023 2.84860512 -19.40880401 3.9182591 -29.9375 7.1875 C-31.86829009 7.65372112 -33.80535374 8.09544662 -35.75 8.5 C-36.47832031 8.66113281 -37.20664063 8.82226562 -37.95703125 8.98828125 C-40.1897668 9.21287595 -41.78841703 8.7744779 -43.9375 8.1875 C-37.69781074 5.9467432 -31.501398 4.33728392 -25 3.0625 C-23.32372654 2.72902722 -21.64791822 2.39320503 -19.97265625 2.0546875 C-19.2444165 1.91144043 -18.51617676 1.76819336 -17.76586914 1.62060547 C-11.77320094 0.20105768 -6.30402316 -0.0101271 0 0 Z " fill="#FFD95E" transform="translate(164.9375,15.8125)"/>
<path d="M0 0 C2.72943537 -0.05416741 5.45778564 -0.09375225 8.1875 -0.125 C9.34088867 -0.15013672 9.34088867 -0.15013672 10.51757812 -0.17578125 C14.86662239 -0.2131121 18.00548799 0.10453736 22 2 C23.44975923 2.36884334 24.90872058 2.70356806 26.375 3 C30.3139018 3.83132601 34.14242584 4.85093536 38 6 C38 6.33 38 6.66 38 7 C31.4866735 7.25051256 31.4866735 7.25051256 29.14550781 6.04541016 C26.39529981 4.7053566 23.96057512 4.47614045 20.921875 4.1484375 C19.76171875 4.01953125 18.6015625 3.890625 17.40625 3.7578125 C15.59640625 3.56832031 15.59640625 3.56832031 13.75 3.375 C12.52796875 3.2409375 11.3059375 3.106875 10.046875 2.96875 C7.03192384 2.63898972 4.01638324 2.3163462 1 2 C1 5.63 1 9.26 1 13 C3.29517578 13.18175781 3.29517578 13.18175781 5.63671875 13.3671875 C7.65368011 13.53604938 9.67060538 13.70534283 11.6875 13.875 C12.69490234 13.95363281 13.70230469 14.03226563 14.74023438 14.11328125 C15.71669922 14.19707031 16.69316406 14.28085938 17.69921875 14.3671875 C19.04246216 14.47716064 19.04246216 14.47716064 20.4128418 14.58935547 C23.17617927 15.02796391 25.42004852 15.94025028 28 17 C29.19625 17.12375 30.3925 17.2475 31.625 17.375 C35 18 35 18 36.9375 20.0625 C37.4634375 21.0215625 37.4634375 21.0215625 38 22 C33.37571091 21.55535682 29.10496811 20.79792296 24.625 19.5625 C18.42546614 17.93104372 12.24510384 17.2439529 5.87939453 16.64672852 C0.09247615 16.09247615 0.09247615 16.09247615 -1 15 C-1.0991757 12.85605481 -1.1297015 10.70873268 -1.125 8.5625 C-1.12757813 7.38816406 -1.13015625 6.21382812 -1.1328125 5.00390625 C-1 2 -1 2 0 0 Z " fill="#6E706F" transform="translate(184,206)"/>
<path d="M0 0 C7.7800651 -0.19791981 15.23646107 0.3560347 22.9375 1.4375 C24.45827148 1.63956055 24.45827148 1.63956055 26.00976562 1.84570312 C35.28548608 3.10249274 35.28548608 3.10249274 38 4 C38.495 4.99 38.495 4.99 39 6 C41.94161168 7.12681206 44.89451476 8.10786259 47.89648438 9.05664062 C51.52687648 10.26677133 52.80791048 10.71186572 55 14 C52.36 13.67 49.72 13.34 47 13 C47 12.34 47 11.68 47 11 C46.030625 11.0825 45.06125 11.165 44.0625 11.25 C39.89827532 11.26682515 36.87761921 9.77804227 33.16796875 8.01953125 C26.72949335 4.99170768 20.45879866 4.70280312 13.46484375 4.27734375 C9.10926197 3.92870079 5.19747086 3.20944076 1 2 C0.67 1.34 0.34 0.68 0 0 Z " fill="#71693E" transform="translate(183,193)"/>
<path d="M0 0 C1.00367111 0.00132935 1.00367111 0.00132935 2.02761841 0.00268555 C12.25601716 0.01854566 22.42905884 0.27660074 32.625 1.125 C32.625 1.785 32.625 2.445 32.625 3.125 C11.835 3.125 -8.955 3.125 -30.375 3.125 C-30.375 2.465 -30.375 1.805 -30.375 1.125 C-20.23204047 0.331706 -10.17870673 -0.03574836 0 0 Z " fill="#FFEA38" transform="translate(174.375,159.875)"/>
<path d="M0 0 C-5.11781 3.36313228 -9.93500042 3.45903848 -15.9765625 3.69140625 C-18.91159716 3.80329229 -18.91159716 3.80329229 -20.93229675 5.00410461 C-23.19982302 6.09624341 -24.60887334 6.24801673 -27.10668945 6.24291992 C-28.30362175 6.24753487 -28.30362175 6.24753487 -29.5247345 6.25224304 C-30.37895493 6.24505753 -31.23317535 6.23787201 -32.11328125 6.23046875 C-33.00105759 6.23001053 -33.88883392 6.22955231 -34.80351257 6.2290802 C-36.68046404 6.22606218 -38.5574131 6.21818933 -40.43432617 6.20581055 C-43.29159538 6.18763299 -46.14853853 6.18530049 -49.00585938 6.18554688 C-50.83333611 6.18062803 -52.66081066 6.17479812 -54.48828125 6.16796875 C-55.76050285 6.16629951 -55.76050285 6.16629951 -57.0584259 6.16459656 C-61.80583571 6.12708436 -66.31703865 5.78895366 -71 5 C-71.33 4.01 -71.66 3.02 -72 2 C-70.7929541 2.10501831 -70.7929541 2.10501831 -69.56152344 2.2121582 C-60.5407999 2.93368849 -51.58560203 3.18627272 -42.53955078 3.18530273 C-40.23842429 3.18751111 -37.93776252 3.20582036 -35.63671875 3.22460938 C-27.89205236 3.25403638 -20.53087134 3.00203558 -13 1 C-11.37505191 0.60395364 -9.75005781 0.20809592 -8.125 -0.1875 C-7.07699219 -0.45626953 -7.07699219 -0.45626953 -6.0078125 -0.73046875 C-3.73951234 -1.03496819 -2.16683394 -0.68503046 0 0 Z " fill="#CDA821" transform="translate(218,256)"/>
<path d="M0 0 C1.23109497 0.48327759 1.23109497 0.48327759 2.48706055 0.97631836 C6.44522679 2.12974049 10.12193418 2.33191556 14.20703125 2.37890625 C14.97303146 2.39590073 15.73903168 2.4128952 16.52824402 2.43040466 C18.95624736 2.48321193 21.38423536 2.52371906 23.8125 2.5625 C26.25853656 2.60642353 28.70444165 2.65303094 31.15031433 2.70530701 C32.66820824 2.73728687 34.18621954 2.76416995 35.70429993 2.78553772 C40.88818164 2.88818164 40.88818164 2.88818164 42 4 C42.12548989 5.95530764 42.17575363 7.91570479 42.1875 9.875 C42.20167969 10.94492188 42.21585938 12.01484375 42.23046875 13.1171875 C42 16 42 16 40 19 C38.02880859 19.34057617 38.02880859 19.34057617 35.6484375 19.29296875 C34.37226563 19.2784668 34.37226563 19.2784668 33.0703125 19.26367188 C32.18085938 19.23853516 31.29140625 19.21339844 30.375 19.1875 C29.4778125 19.17396484 28.580625 19.16042969 27.65625 19.14648438 C25.43690211 19.11106925 23.21874812 19.06168461 21 19 C24.65988816 15.34011184 29.99738966 15.94529197 34.9375 15.9375 C36.278125 15.958125 37.61875 15.97875 39 16 C39 12.04 39 8.08 39 4 C37.44104004 4.0314209 37.44104004 4.0314209 35.85058594 4.06347656 C31.98923558 4.13595674 28.12794517 4.18182831 24.26611328 4.21972656 C22.59576298 4.23982393 20.92548287 4.26710683 19.25537109 4.30175781 C16.8523628 4.35036119 14.45028566 4.37298656 12.046875 4.390625 C11.30193787 4.41127014 10.55700073 4.43191528 9.78948975 4.45318604 C6.15915537 4.45475196 4.36517455 4.29535967 1.49707031 1.97558594 C1.00303711 1.32364258 0.50900391 0.67169922 0 0 Z " fill="#C88E0D" transform="translate(122,175)"/>
<path d="M0 0 C1.56047445 0.00015913 3.12095416 0.00585397 4.68139648 0.01586914 C5.91115456 0.01799156 5.91115456 0.01799156 7.16575623 0.02015686 C9.79470406 0.0257725 12.42356797 0.0383276 15.05249023 0.05102539 C16.8304838 0.05603838 18.60847869 0.06060163 20.38647461 0.06469727 C24.75434569 0.07574701 29.12215371 0.09302208 33.48999023 0.11352539 C33.48999023 0.44352539 33.48999023 0.77352539 33.48999023 1.11352539 C29.04851454 1.97268635 24.86229199 2.23050104 20.34155273 2.21118164 C19.35546524 2.20905922 19.35546524 2.20905922 18.34945679 2.20689392 C16.27125292 2.20134301 14.19316096 2.18880004 12.11499023 2.17602539 C10.69702305 2.17100403 9.27905416 2.16644224 7.86108398 2.16235352 C4.40401702 2.15138976 0.94701457 2.1341596 -2.51000977 2.11352539 C-2.51000977 5.74352539 -2.51000977 9.37352539 -2.51000977 13.11352539 C-0.79813477 13.07227539 0.91374023 13.03102539 2.67749023 12.98852539 C6.82335124 12.88862513 9.71776934 13.36189083 13.48999023 15.11352539 C13.48999023 15.44352539 13.48999023 15.77352539 13.48999023 16.11352539 C10.86404239 15.99987389 8.23987476 15.87313485 5.61499023 15.73852539 C4.86862305 15.70758789 4.12225586 15.67665039 3.35327148 15.64477539 C-2.28344727 15.34008789 -2.28344727 15.34008789 -4.51000977 13.11352539 C-4.74047852 10.32836914 -4.74047852 10.32836914 -4.69750977 7.05102539 C-4.69106445 5.96692383 -4.68461914 4.88282227 -4.67797852 3.76586914 C-4.42290718 -0.26188518 -4.17700352 0.13509819 0 0 Z " fill="#D99C07" transform="translate(187.510009765625,177.886474609375)"/>
<path d="M0 0 C3.84772066 1.51160454 5.93802845 3.41064212 8 7 C8.47126842 10.28694809 8.25877486 12.91740023 7 16 C4.59323744 18.26486726 1.98365262 19.62165213 -1 21 C-1.68964844 21.34933594 -2.37929687 21.69867188 -3.08984375 22.05859375 C-5.34645009 23.17074534 -7.65615293 24.08850392 -10 25 C-10.33 22.69 -10.66 20.38 -11 18 C-7.04 17.505 -7.04 17.505 -3 17 C-3.33 15.02 -3.66 13.04 -4 11 C-3.1646875 11.495 -3.1646875 11.495 -2.3125 12 C0.30284522 13.1309601 2.1806646 13.15662974 5 13 C5.49629779 8.40416886 5.49629779 8.40416886 3.88671875 4.19921875 C2.65378147 2.74400545 1.33191067 1.36520843 0 0 Z " fill="#535B5F" transform="translate(231,218)"/>
<path d="M0 0 C0.66 0 1.32 0 2 0 C1.44896924 3.85721534 0.10359802 5.6651866 -3 8 C-5.96548973 8.58180906 -8.88622529 8.50532943 -11.89941406 8.45410156 C-12.79732666 8.45468567 -13.69523926 8.45526978 -14.62036133 8.45587158 C-17.58584359 8.45308668 -20.55031851 8.42197534 -23.515625 8.390625 C-25.57256521 8.38316406 -27.62951254 8.37747044 -29.6864624 8.37347412 C-35.09862922 8.35820628 -40.51036621 8.31891426 -45.92236328 8.2746582 C-51.44557887 8.23373049 -56.96886396 8.21546843 -62.4921875 8.1953125 C-73.32831378 8.15242136 -84.16412114 8.08415587 -95 8 C-95.66 6.68 -96.32 5.36 -97 4 C-95.515 4.99 -95.515 4.99 -94 6 C-91.1878236 6.20503284 -88.47386324 6.29369788 -85.66064453 6.29052734 C-84.38456329 6.30060318 -84.38456329 6.30060318 -83.08270264 6.31088257 C-80.26601343 6.32990461 -77.44956197 6.33378892 -74.6328125 6.3359375 C-72.67609559 6.34236267 -70.71937966 6.34909082 -68.76266479 6.35610962 C-64.6586484 6.36809303 -60.55471625 6.37178937 -56.45068359 6.37060547 C-51.19241496 6.37040226 -45.93468667 6.39770187 -40.6765461 6.43214989 C-36.63420126 6.45439068 -32.59198701 6.45844387 -28.54958725 6.45738602 C-26.61110446 6.45974633 -24.67261831 6.46859398 -22.73419571 6.48405075 C-20.02179421 6.50365304 -17.31056502 6.49789547 -14.59814453 6.48583984 C-13.79796906 6.49707886 -12.99779358 6.50831787 -12.17337036 6.51989746 C-8.40412601 6.47733917 -6.23095002 6.14791974 -3.02511597 4.09463501 C-0.95812143 2.16638987 -0.95812143 2.16638987 0 0 Z " fill="#964704" transform="translate(224,159)"/>
<path d="M0 0 C0.66 0.33 1.32 0.66 2 1 C2.37322359 9.57031936 2.24235151 17.92747876 -1 26 C-4.22791555 28.1519437 -5.28400809 28.20086443 -9 28 C-12.44572039 21.68284595 -12.31461385 16.09629025 -12 9 C-9.41451372 11.58548628 -9.02358153 13.29538385 -8.90234375 16.91796875 C-8.91394531 17.99691406 -8.92554688 19.07585937 -8.9375 20.1875 C-8.94652344 21.27417969 -8.95554688 22.36085938 -8.96484375 23.48046875 C-8.97644531 24.31191406 -8.98804688 25.14335938 -9 26 C-7.02 25.67 -5.04 25.34 -3 25 C-2.95101562 24.34773438 -2.90203125 23.69546875 -2.8515625 23.0234375 C-2.2192538 15.63196684 -2.2192538 15.63196684 -0.9375 11.9375 C0.3420269 7.9283157 0.16690578 4.17264442 0 0 Z " fill="#B26E10" transform="translate(180,100)"/>
<path d="M0 0 C0.97255234 -0.0062162 0.97255234 -0.0062162 1.9647522 -0.01255798 C4.05728899 -0.02218684 6.14963206 -0.02222276 8.2421875 -0.01953125 C8.95395142 -0.01959167 9.66571533 -0.0196521 10.39904785 -0.01971436 C19.24928596 -0.00900219 28.05332706 0.16293013 36.8671875 1.04296875 C37.6627002 1.12135986 38.45821289 1.19975098 39.27783203 1.28051758 C42.91372376 1.70159631 45.98538718 2.20647276 49.1171875 4.16796875 C46.49201403 4.02483284 43.86704648 3.87920072 41.2421875 3.73046875 C40.45787354 3.68607666 39.67355957 3.64168457 38.86547852 3.59594727 C34.91158721 3.36336542 30.98832387 3.07940084 27.0546875 2.60546875 C17.65861268 1.59358377 8.01301032 1.80828342 -1.35546875 2.9453125 C-6.51614328 3.39996234 -11.70698711 3.24098196 -16.8828125 3.16796875 C-11.58790947 0.113217 -5.9917612 0.03798458 0 0 Z " fill="#FFCB1F" transform="translate(158.8828125,17.83203125)"/>
<path d="M0 0 C0.66 0.33 1.32 0.66 2 1 C2.08164159 3.6881249 2.14079668 6.373723 2.1875 9.0625 C2.21263672 9.81466797 2.23777344 10.56683594 2.26367188 11.34179688 C2.33291791 16.67374178 1.52938076 20.28047308 -1 25 C-4.41077945 28.10070859 -5.98743086 29.03491618 -10.625 28.875 C-15.95770393 27.49244713 -15.95770393 27.49244713 -18 26 C-18.75 23.875 -18.75 23.875 -19 22 C-17.515 22.99 -17.515 22.99 -16 24 C-13.3956805 24.39257094 -13.3956805 24.39257094 -10.5625 24.375 C-9.61503906 24.40335938 -8.66757813 24.43171875 -7.69140625 24.4609375 C-4.94909616 24.15891631 -4.94909616 24.15891631 -2.69921875 22.6171875 C-0.05940281 18.5512641 -0.32320826 14.50188182 -0.25 9.75 C-0.20552734 8.34621094 -0.20552734 8.34621094 -0.16015625 6.9140625 C-0.08960196 4.60928908 -0.03683748 2.30551832 0 0 Z " fill="#523E30" transform="translate(183,221)"/>
<path d="M0 0 C0.7528125 -0.01933594 1.505625 -0.03867188 2.28125 -0.05859375 C5.53810847 0.66961228 6.60002337 1.6878709 8.5 4.4375 C9.00228058 7.35080202 8.92308881 10.17842254 8.8125 13.125 C8.80283203 13.90939453 8.79316406 14.69378906 8.78320312 15.50195312 C8.66856123 21.26893877 8.66856123 21.26893877 7.5 22.4375 C7.355625 23.5925 7.21125 24.7475 7.0625 25.9375 C6.876875 27.0925 6.69125 28.2475 6.5 29.4375 C5.84 29.7675 5.18 30.0975 4.5 30.4375 C4.7165625 29.36435547 4.7165625 29.36435547 4.9375 28.26953125 C6.34599307 20.7086622 7.28073154 13.13000196 6.5 5.4375 C3.90664095 2.84414095 2.01252968 3.16023437 -1.52734375 3.07421875 C-3.54537717 3.32749129 -3.54537717 3.32749129 -5.2421875 4.4765625 C-7.19212135 7.51652148 -6.81436122 10.64119569 -6.6875 14.125 C-6.66719727 15.1778418 -6.66719727 15.1778418 -6.64648438 16.25195312 C-6.61120182 17.98079829 -6.55739583 19.70924765 -6.5 21.4375 C-7.16 21.4375 -7.82 21.4375 -8.5 21.4375 C-8.607834 18.49902347 -8.68721916 15.56448849 -8.75 12.625 C-8.78351563 11.79162109 -8.81703125 10.95824219 -8.8515625 10.09960938 C-8.95005193 3.96864237 -8.95005193 3.96864237 -6.765625 1.390625 C-4.34199325 0.37102819 -2.6246197 0.00449421 0 0 Z " fill="#E3B226" transform="translate(174.5,95.5625)"/>
<path d="M0 0 C0.99457718 0.00212242 0.99457718 0.00212242 2.00924683 0.00428772 C4.12860613 0.00988871 6.24786009 0.02244125 8.3671875 0.03515625 C9.80338389 0.04017113 11.23958194 0.04473406 12.67578125 0.04882812 C16.19795095 0.05985843 19.72005895 0.07712366 23.2421875 0.09765625 C23.2421875 0.42765625 23.2421875 0.75765625 23.2421875 1.09765625 C22.01886719 1.13503906 20.79554688 1.17242188 19.53515625 1.2109375 C10.58610132 1.53946637 1.77908853 2.12119023 -7.0703125 3.53515625 C-7.83899658 3.65737549 -8.60768066 3.77959473 -9.3996582 3.90551758 C-13.96008583 4.67686587 -18.31918446 5.776636 -22.7578125 7.09765625 C-24.48089593 7.5191831 -26.2097912 7.91818593 -27.9453125 8.28515625 C-29.17314453 8.55392578 -29.17314453 8.55392578 -30.42578125 8.828125 C-32.86529016 9.11007829 -34.4194931 8.74943007 -36.7578125 8.09765625 C-30.51812324 5.85689945 -24.3217105 4.24744017 -17.8203125 2.97265625 C-16.14403904 2.63918347 -14.46823072 2.30336128 -12.79296875 1.96484375 C-12.064729 1.82159668 -11.33648926 1.67834961 -10.58618164 1.53076172 C-4.05214507 -0.01702582 -4.05214507 -0.01702582 0 0 Z " fill="#FFE592" transform="translate(157.7578125,15.90234375)"/>
<path d="M0 0 C1.0415625 0.00902344 2.083125 0.01804688 3.15625 0.02734375 C4.31640625 0.04474609 4.31640625 0.04474609 5.5 0.0625 C5.5 3.6925 5.5 7.3225 5.5 11.0625 C5.17 11.0625 4.84 11.0625 4.5 11.0625 C4.5 7.7625 4.5 4.4625 4.5 1.0625 C3.55640625 1.26746094 2.6128125 1.47242188 1.640625 1.68359375 C-5.69695317 3.22330644 -12.79823757 4.4312013 -20.3046875 4.8515625 C-22.47471007 4.8251321 -22.47471007 4.8251321 -23.5 6.0625 C-25.5279979 6.2878331 -27.55674874 6.51017185 -29.58984375 6.68359375 C-31.7328948 6.92472227 -31.7328948 6.92472227 -33.5 9.0625 C-35.625 8.6875 -35.625 8.6875 -37.5 8.0625 C-33.11397487 4.98612967 -28.8374869 4.00066823 -23.6875 2.9375 C-22.91857422 2.76863281 -22.14964844 2.59976563 -21.35742188 2.42578125 C-14.24429127 0.90111022 -7.29985593 -0.08295291 0 0 Z " fill="#858B8C" transform="translate(155.5,207.9375)"/>
<path d="M0 0 C0 0.33 0 0.66 0 1 C-1.7015625 1.2165625 -1.7015625 1.2165625 -3.4375 1.4375 C-6.80777201 1.61171478 -6.80777201 1.61171478 -8 3 C-11.57772214 3.69975974 -15.20099433 4.13345292 -18.8125 4.625 C-19.82376953 4.77195313 -20.83503906 4.91890625 -21.87695312 5.0703125 C-22.85212891 5.204375 -23.82730469 5.3384375 -24.83203125 5.4765625 C-25.72639893 5.60111816 -26.6207666 5.72567383 -27.54223633 5.85400391 C-29.96107787 5.99768795 -31.70489757 5.72906005 -34 5 C-32.02 4.67 -30.04 4.34 -28 4 C-28 3.34 -28 2.68 -28 2 C-18.76544501 -0.59866874 -9.495025 -0.18617696 0 0 Z " fill="#646042" transform="translate(161,194)"/>
<path d="M0 0 C3.4375 1.4375 3.4375 1.4375 6 4 C6.87085832 7.18535426 6.8692892 9.81455097 6 13 C3.4375 15.625 3.4375 15.625 0 17 C-3.58830828 16.93813262 -6.13579368 16.35454618 -9.4375 15 C-11.67670661 12.13381554 -11.5587642 9.72641025 -11.37890625 6.1640625 C-11 4 -11 4 -9.4375 1.4375 C-6.01454558 -0.58116543 -3.91989734 -0.5406755 0 0 Z M-10 5 C-10.69489232 8.6288821 -10.47211873 10.28237953 -8.4375 13.375 C-5.06489221 15.62340519 -2.97487617 15.56783945 1 15 C3.56338689 13.52006844 3.56338689 13.52006844 5 11 C5.75015195 7.95691709 5.75015195 7.95691709 5 5 C2.51539649 2.87033985 0.72511215 2.10876682 -2.5 1.625 C-5.72511215 2.10876682 -7.51539649 2.87033985 -10 5 Z " fill="#C08116" transform="translate(177,135)"/>
<path d="M0 0 C0 3.40836455 -0.79015757 4.98225926 -2.3125 8 C-2.74175781 8.86625 -3.17101562 9.7325 -3.61328125 10.625 C-4.90543982 12.83804905 -6.15474144 14.25862999 -8 16 C-10.17216516 18.88935265 -10.17216516 18.88935265 -10.8125 22.3125 C-12.68040221 28.11282793 -16.6836172 31.84348323 -21 36 C-19.375 29.25 -19.375 29.25 -16 27 C-15.0988739 24.91828596 -15.0988739 24.91828596 -14.5 22.5625 C-13.54810263 19.12320415 -12.62806528 17.39674413 -10 15 C-6.62138851 10.89064557 -3.78384533 7.05422844 -2 2 C-1.34 1.34 -0.68 0.68 0 0 Z " fill="#A85F07" transform="translate(162,84)"/>
<path d="M0 0 C0.99 0 1.98 0 3 0 C3.33 0.99 3.66 1.98 4 3 C6.47266765 2.65555119 6.47266765 2.65555119 9 2 C9.33 1.34 9.66 0.68 10 0 C10.66 0 11.32 0 12 0 C12.125 3.375 12.125 3.375 12 7 C10 9 10 9 6.5625 9.3125 C3 9 3 9 1.0625 7.875 C-0.44484863 5.214973 -0.19986253 2.99793795 0 0 Z " fill="#791F00" transform="translate(168,141)"/>
<path d="M0 0 C1.65 0 3.3 0 5 0 C0.70805289 5.25174963 -4.00577395 6.77730915 -10.375 8.75 C-11.29539063 9.05292969 -12.21578125 9.35585937 -13.1640625 9.66796875 C-20.85498313 12.14005038 -27.94433806 13.1413274 -36 13 C-36 12.67 -36 12.34 -36 12 C-34.2508503 11.66223316 -32.50063855 11.32996329 -30.75 11 C-29.77546875 10.814375 -28.8009375 10.62875 -27.796875 10.4375 C-25 10 -25 10 -21 10 C-21 9.34 -21 8.68 -21 8 C-19.906875 7.87625 -18.81375 7.7525 -17.6875 7.625 C-13.92618198 7.24535199 -13.92618198 7.24535199 -11 5 C-8.51953125 4.5859375 -8.51953125 4.5859375 -5.8125 4.375 C-4.91144531 4.30023438 -4.01039063 4.22546875 -3.08203125 4.1484375 C-2.39496094 4.09945312 -1.70789063 4.05046875 -1 4 C-0.67 2.68 -0.34 1.36 0 0 Z " fill="#605F4A" transform="translate(233,245)"/>
<path d="M0 0 C16.28920273 -0.77261041 16.28920273 -0.77261041 24 4 C24.680625 4.38542969 25.36125 4.77085938 26.0625 5.16796875 C29.40188152 7.24834958 30.85216286 8.47764212 31.9375 12.3125 C31.958125 13.199375 31.97875 14.08625 32 15 C30.32926075 13.40881976 28.95812319 11.93618772 27.6875 10 C23.53449936 5.07792517 16.31539544 3.24791103 10.1328125 2.5859375 C8.79733447 2.50737997 7.46134186 2.43715544 6.125 2.375 C5.43664062 2.33632812 4.74828125 2.29765625 4.0390625 2.2578125 C2.35976754 2.16451834 0.67992233 2.08121762 -1 2 C-0.67 1.34 -0.34 0.68 0 0 Z " fill="#C47D00" transform="translate(167,64)"/>
<path d="M0 0 C-1.7015625 0.6496875 -1.7015625 0.6496875 -3.4375 1.3125 C-5.2009375 2.1478125 -5.2009375 2.1478125 -7 3 C-7.33 3.99 -7.66 4.98 -8 6 C-5.69 6 -3.38 6 -1 6 C-0.375 8.375 -0.375 8.375 0 11 C-0.66 11.66 -1.32 12.32 -2 13 C-2.99 12.67 -3.98 12.34 -5 12 C-5 10.35 -5 8.7 -5 7 C-7.97 6.505 -7.97 6.505 -11 6 C-10.67 6.99 -10.34 7.98 -10 9 C-10.66 9 -11.32 9 -12 9 C-12 8.34 -12 7.68 -12 7 C-13.65 6.67 -15.3 6.34 -17 6 C-16.67 5.34 -16.34 4.68 -16 4 C-15.2575 4.0825 -14.515 4.165 -13.75 4.25 C-10.18558943 3.92596268 -9.35138973 2.5865287 -7 0 C-3.86650268 -1.04449911 -3.01031744 -0.93423645 0 0 Z " fill="#4A5154" transform="translate(126,229)"/>
<path d="M0 0 C0.99 0.33 1.98 0.66 3 1 C-0.61328125 5.6875 -0.61328125 5.6875 -2 7 C-2.99 7 -3.98 7 -5 7 C-5 8.98 -5 10.96 -5 13 C-5.99 13 -6.98 13 -8 13 C-7.70252495 21.31978434 -7.70252495 21.31978434 -3 28 C-3.33 28.66 -3.66 29.32 -4 30 C-6.52088426 28.36142523 -7.57562893 27.59474589 -9 25 C-10.24976258 13.49952517 -10.24976258 13.49952517 -8 9 C-7.34 9 -6.68 9 -6 9 C-5.9071875 8.1646875 -5.9071875 8.1646875 -5.8125 7.3125 C-4.66626128 4.05012827 -2.50609803 2.31332126 0 0 Z " fill="#756C40" transform="translate(103,210)"/>
<path d="M0 0 C-3.9745942 1.80663373 -7.69017128 2.41983075 -12 3 C-12.33 3.33 -12.66 3.66 -13 4 C-14.76697115 4.29498196 -16.53879951 4.56112788 -18.3125 4.8125 C-23.02345776 5.60069113 -24.69453262 6.57648021 -28 10 C-31.75 9.75 -31.75 9.75 -35 9 C-34.67 7.68 -34.34 6.36 -34 5 C-33.01 6.485 -33.01 6.485 -32 8 C-29.63767368 7.59270236 -28.3253691 7.35617327 -26.6796875 5.5546875 C-23.32397822 2.44870542 -18.34908422 2.01630036 -14 1 C-13.07445312 0.77957031 -12.14890625 0.55914062 -11.1953125 0.33203125 C-3.96851236 -1.26558481 -3.96851236 -1.26558481 0 0 Z " fill="#676D72" transform="translate(143,224)"/>
<path d="M0 0 C3.38822712 1.12940904 3.62624605 1.48516479 5.1875 4.5 C7.29183302 9.00812882 7.81226307 13.08907614 7 18 C5.5 21.0625 5.5 21.0625 4 23 C2.64531324 18.6545817 3.06447255 14.47065332 3.2578125 9.97265625 C2.96175653 6.55904121 1.8731021 4.81945997 0 2 C0 1.34 0 0.68 0 0 Z " fill="#9A8635" transform="translate(246,213)"/>
<path d="M0 0 C7.22320442 -0.37577364 14.08057377 0.14661459 21.1875 1.375 C21.94216553 1.50108643 22.69683105 1.62717285 23.47436523 1.75708008 C25.33121449 2.09807325 27.16884067 2.54062977 29 3 C29.33 3.66 29.66 4.32 30 5 C8.99082569 3.09785933 8.99082569 3.09785933 0 1 C0 0.67 0 0.34 0 0 Z " fill="#878E8E" transform="translate(185,208)"/>
<path d="M0 0 C2 2 2 2 2.265625 4.5390625 C2.2048824 16.53572623 2.2048824 16.53572623 0 22 C-2.21388532 24.09117574 -4.35214162 25.43089874 -7 27 C-7.66 26.67 -8.32 26.34 -9 26 C-7.824375 25.1028125 -7.824375 25.1028125 -6.625 24.1875 C-2.55143793 20.79286495 -0.85609003 17.13654016 0 12 C0.16025424 7.9936441 0.11843591 4.0070815 0 0 Z " fill="#4F524B" transform="translate(248,218)"/>
<path d="M0 0 C0.90837643 2.72512929 0.98701898 4.76587991 0.9375 7.6875 C0.85707815 13.83402683 2.09276511 19.57641895 5 25 C1.12452639 22.59453362 -0.48978411 20.30411529 -2 16 C-2.9628867 4.93420973 -2.9628867 4.93420973 0 0 Z " fill="#B66B00" transform="translate(111,145)"/>
<path d="M0 0 C5.2698851 3.29187343 7.45502648 6.28678351 8.9375 12.375 C9.31740565 14.24495474 9.68037918 16.11880316 10 18 C9.34 18 8.68 18 8 18 C4.82069424 14.00853513 2.76623948 10.05718057 2 5 C1.34 4.67 0.68 4.34 0 4 C0 2.68 0 1.36 0 0 Z " fill="#CF9417" transform="translate(188,88)"/>
<path d="M0 0 C3.82391023 1.45750754 5.03163711 3.24871121 6.8125 6.875 C7.25207031 7.73867187 7.69164062 8.60234375 8.14453125 9.4921875 C9.07069298 12.20723697 9.00051772 13.36059742 8 16 C8 15.34 8 14.68 8 14 C7.01 13.67 6.02 13.34 5 13 C2.35048907 9.08968731 0.5863208 4.69056641 0 0 Z " fill="#B36E0C" transform="translate(206,117)"/>
<path d="M0 0 C1.485 0.99 1.485 0.99 3 2 C6.19806665 2.4603764 6.19806665 2.4603764 9.6875 2.625 C11.45673828 2.73714844 11.45673828 2.73714844 13.26171875 2.8515625 C14.61716797 2.92503906 14.61716797 2.92503906 16 3 C14.21875 5.0078125 14.21875 5.0078125 12 7 C8.0179497 6.85778392 4.27374473 6.39235192 1 4 C0.25 1.875 0.25 1.875 0 0 Z " fill="#564C45" transform="translate(164,243)"/>
<path d="M0 0 C0.66 0.33 1.32 0.66 2 1 C1.56429687 1.42667969 1.12859375 1.85335937 0.6796875 2.29296875 C-4.89439848 8.14455251 -7.91476114 14.58638575 -11 22 C-11.66 22 -12.32 22 -13 22 C-10.76646763 12.87974282 -6.30128752 6.81459465 0 0 Z " fill="#D28D00" transform="translate(157,69)"/>
<path d="M0 0 C1.21816406 0.03480469 1.21816406 0.03480469 2.4609375 0.0703125 C3.68683594 0.09738281 3.68683594 0.09738281 4.9375 0.125 C5.87722656 0.15980469 5.87722656 0.15980469 6.8359375 0.1953125 C6.8359375 0.5253125 6.8359375 0.8553125 6.8359375 1.1953125 C5.1653125 1.6284375 5.1653125 1.6284375 3.4609375 2.0703125 C-0.16697342 2.88772579 -0.16697342 2.88772579 -2.1640625 5.1953125 C-2.30904235 7.77595379 -2.35083795 10.24475134 -2.2890625 12.8203125 C-2.28003906 13.52671875 -2.27101562 14.233125 -2.26171875 14.9609375 C-2.23813853 16.70587348 -2.20226711 18.45063545 -2.1640625 20.1953125 C-2.8240625 20.1953125 -3.4840625 20.1953125 -4.1640625 20.1953125 C-4.21785476 17.23673841 -4.25763343 14.27913529 -4.2890625 11.3203125 C-4.30582031 10.47855469 -4.32257813 9.63679688 -4.33984375 8.76953125 C-4.34628906 7.96386719 -4.35273438 7.15820312 -4.359375 6.328125 C-4.37508545 5.21268311 -4.37508545 5.21268311 -4.39111328 4.07470703 C-4.03626024 1.1374396 -2.88459816 0.26034279 0 0 Z " fill="#CE951D" transform="translate(170.1640625,96.8046875)"/>
<path d="M0 0 C0.66 0 1.32 0 2 0 C1.13350901 4.6447947 -1.19855174 7.28347834 -5 10 C-8.875 10.875 -8.875 10.875 -12 11 C-9.754247 8.58149677 -7.6444186 6.76531628 -4.875 4.9375 C-1.82218972 3.1449461 -1.82218972 3.1449461 0 0 Z " fill="#DE9D00" transform="translate(234,167)"/>
<path d="M0 0 C2 1 2 1 3.10546875 3.6171875 C4.0647164 7.2447354 4.30035693 10.37683942 4.3125 14.125 C4.32925781 15.32382813 4.34601563 16.52265625 4.36328125 17.7578125 C3.97965495 21.18157414 3.32756986 22.5311792 1 25 C1 23.35 1 21.7 1 20 C1.66 20 2.32 20 3 20 C3 16.37 3 12.74 3 9 C2.34 9 1.68 9 1 9 C0.67 6.03 0.34 3.06 0 0 Z " fill="#A95B00" transform="translate(235,140)"/>
<path d="M0 0 C4.92127034 -0.16682272 8.50343896 -0.24828052 13 2 C13 2.66 13 3.32 13 4 C15.97 4 18.94 4 22 4 C22 4.33 22 4.66 22 5 C13.92386148 5.64323227 7.51333004 3.8917284 0 1 C0 0.67 0 0.34 0 0 Z " fill="#817641" transform="translate(124,253)"/>
<path d="M0 0 C-5.0589501 3.01435845 -9.14848324 3.51764569 -14.875 3.6875 C-16.050625 3.73874023 -16.050625 3.73874023 -17.25 3.79101562 C-19.16618748 3.87280412 -21.08306715 3.9380946 -23 4 C-20.20878312 1.20878312 -17.25670769 1.3412583 -13.5 0.9375 C-1.42618778 -0.42785633 -1.42618778 -0.42785633 0 0 Z " fill="#DCB016" transform="translate(218,256)"/>
<path d="M0 0 C2.50600314 2.50600314 2.97054791 4.18594425 3.09765625 7.69921875 C3.08605469 8.68535156 3.07445312 9.67148438 3.0625 10.6875 C3.05347656 11.68136719 3.04445312 12.67523438 3.03515625 13.69921875 C3.02355469 14.45847656 3.01195312 15.21773437 3 16 C2.34 16 1.68 16 1 16 C-0.06723961 12.53777385 -0.10173486 9.35960734 -0.0625 5.75 C-0.04896484 4.13351563 -0.04896484 4.13351563 -0.03515625 2.484375 C-0.02355469 1.66453125 -0.01195312 0.8446875 0 0 Z " fill="#A2580A" transform="translate(168,109)"/>
<path d="M0 0 C5.02166115 0.59078366 9.07444486 2.57676291 12.26953125 6.59765625 C13.22972711 8.03286066 14.12153366 9.51336465 15 11 C14.67 11.66 14.34 12.32 14 13 C9.125 8.375 9.125 8.375 8 5 C6.15028304 3.94978897 6.15028304 3.94978897 4 3 C2.64886795 2.02418241 1.31053056 1.02970259 0 0 Z " fill="#9C4D00" transform="translate(184,68)"/>
<path d="M0 0 C0.66 0.66 1.32 1.32 2 2 C1.625 4.125 1.625 4.125 1 6 C-2.75 7.125 -2.75 7.125 -5 6 C-5 4.35 -5 2.7 -5 1 C-2.625 0.375 -2.625 0.375 0 0 Z " fill="#4A5257" transform="translate(134,237)"/>
<path d="M0 0 C0.66 0.33 1.32 0.66 2 1 C2 4.3 2 7.6 2 11 C0.35 11.33 -1.3 11.66 -3 12 C-3 10.68 -3 9.36 -3 8 C-2.34 8 -1.68 8 -1 8 C-0.67 5.36 -0.34 2.72 0 0 Z " fill="#FEE938" transform="translate(221,149)"/>
<path d="M0 0 C0 2.62113708 -0.31292445 4.50935112 -1 7 C-1.66 7 -2.32 7 -3 7 C-3.19335938 7.62648438 -3.38671875 8.25296875 -3.5859375 8.8984375 C-3.84632813 9.71570313 -4.10671875 10.53296875 -4.375 11.375 C-4.63023437 12.18710938 -4.88546875 12.99921875 -5.1484375 13.8359375 C-6 16 -6 16 -8 18 C-7.8576876 10.31513055 -4.66758993 5.94721641 0 0 Z " fill="#9D4F04" transform="translate(142,115)"/>
<path d="M0 0 C1.85625 0.0309375 1.85625 0.0309375 3.75 0.0625 C0.36847808 1.96046206 -2.98436548 2.86473042 -6.75 3.75 C-7.8740625 4.02199219 -8.998125 4.29398438 -10.15625 4.57421875 C-13.0184642 5.0259571 -14.57241337 5.04034414 -17.25 4.0625 C-15.83398286 3.58141725 -14.41715563 3.10271859 -13 2.625 C-12.21109375 2.35816406 -11.4221875 2.09132813 -10.609375 1.81640625 C-6.95522699 0.64877286 -3.85047556 -0.06417459 0 0 Z " fill="#FFDF75" transform="translate(138.25,19.9375)"/>
<path d="M0 0 C0.78375 0.04125 1.5675 0.0825 2.375 0.125 C2.375 0.785 2.375 1.445 2.375 2.125 C1.385 2.455 0.395 2.785 -0.625 3.125 C-0.955 3.785 -1.285 4.445 -1.625 5.125 C0.025 5.125 1.675 5.125 3.375 5.125 C2.385 6.115 1.395 7.105 0.375 8.125 C-1.5625 7.375 -1.5625 7.375 -3.625 6.125 C-4.5 4.125 -4.5 4.125 -4.625 2.125 C-2.625 0.125 -2.625 0.125 0 0 Z " fill="#474F52" transform="translate(213.625,237.875)"/>
<path d="M0 0 C0.33 1.32 0.66 2.64 1 4 C0.071875 4.556875 0.071875 4.556875 -0.875 5.125 C-3.56630293 7.49967906 -4.05573171 9.58610695 -5 13 C-5.33 13.66 -5.66 14.32 -6 15 C-6.66 15 -7.32 15 -8 15 C-7.52269162 13.5410574 -7.04308958 12.08286504 -6.5625 10.625 C-6.29566406 9.81289062 -6.02882812 9.00078125 -5.75390625 8.1640625 C-5 6 -5 6 -4 4 C-3.34 4 -2.68 4 -2 4 C-1.34 2.68 -0.68 1.36 0 0 Z " fill="#DDA81E" transform="translate(143,118)"/>
<path d="M0 0 C3.19496956 0.49921399 6.1982808 1.32665761 9.25 2.375 C9.93578125 2.60960937 10.6215625 2.84421875 11.328125 3.0859375 C13 4 13 4 14 7 C3.25740319 4.29384966 3.25740319 4.29384966 0 0 Z " fill="#85773E" transform="translate(108,246)"/>
<path d="M0 0 C0.66796875 1.78125 0.66796875 1.78125 1 4 C-0.07421875 5.78125 -0.07421875 5.78125 -1.6875 7.5 C-2.24050781 8.09941406 -2.79351562 8.69882813 -3.36328125 9.31640625 C-7.29274966 13.35841313 -7.29274966 13.35841313 -9 15 C-7.79620186 9.41875407 -6.35036733 6.91533059 -2 3 C-1.34 2.01 -0.68 1.02 0 0 Z " fill="#C28312" transform="translate(150,105)"/>
<path d="M0 0 C5.46737191 1.74807129 10.75824848 3.65794081 16 6 C12.45332822 7.25127906 10.27746562 6.72285053 6.75 5.5625 C5.85796875 5.27503906 4.9659375 4.98757812 4.046875 4.69140625 C3.37140625 4.46324219 2.6959375 4.23507813 2 4 C2 3.34 2 2.68 2 2 C1.34 2 0.68 2 0 2 C0 1.34 0 0.68 0 0 Z " fill="#FFD449" transform="translate(228,26)"/>
<path d="M0 0 C0.67578125 1.671875 0.67578125 1.671875 1 4 C-0.14453125 6.578125 -0.14453125 6.578125 -1.8125 9.25 C-2.35519531 10.14203125 -2.89789063 11.0340625 -3.45703125 11.953125 C-3.96621094 12.62859375 -4.47539063 13.3040625 -5 14 C-5.66 14 -6.32 14 -7 14 C-5.53967505 8.68972746 -3.01679014 4.53669968 0 0 Z " fill="#A35600" transform="translate(131,111)"/>
<path d="M0 0 C0.66 0 1.32 0 2 0 C2.33 1.32 2.66 2.64 3 4 C3.66 4 4.32 4 5 4 C5.69699552 5.45381897 6.38233866 6.91322953 7.0625 8.375 C7.44535156 9.18710938 7.82820312 9.99921875 8.22265625 10.8359375 C8.60744141 11.90714844 8.60744141 11.90714844 9 13 C8.67 13.66 8.34 14.32 8 15 C5.4345406 12.4345406 5.45953913 10.52313332 5 7 C4.01 6.67 3.02 6.34 2 6 C0.8125 2.9375 0.8125 2.9375 0 0 Z " fill="#D69100" transform="translate(213,103)"/>
<path d="M0 0 C2.64 0.33 5.28 0.66 8 1 C7.67 1.99 7.34 2.98 7 4 C4.36 4 1.72 4 -1 4 C-0.67 2.68 -0.34 1.36 0 0 Z " fill="#FEF03A" transform="translate(170,130)"/>
<path d="M0 0 C0.66 0.33 1.32 0.66 2 1 C1.360625 1.103125 0.72125 1.20625 0.0625 1.3125 C-0.618125 1.539375 -1.29875 1.76625 -2 2 C-2.33 2.99 -2.66 3.98 -3 5 C-4.8125 6.75 -4.8125 6.75 -7 8 C-9.13671875 7.578125 -9.13671875 7.578125 -11 7 C-9.73299277 6.0158875 -8.4612381 5.03788503 -7.1875 4.0625 C-6.47980469 3.51722656 -5.77210937 2.97195312 -5.04296875 2.41015625 C-3 1 -3 1 0 0 Z " fill="#A0892E" transform="translate(114,202)"/>
<path d="M0 0 C4.79928315 3.44563919 4.79928315 3.44563919 5.65625 5.8125 C6.05125933 8.32619576 6.09597124 10.70618578 6.0625 13.25 C6.05347656 14.14203125 6.04445312 15.0340625 6.03515625 15.953125 C6.02355469 16.62859375 6.01195312 17.3040625 6 18 C5.67 18 5.34 18 5 18 C4.93941406 17.39671875 4.87882813 16.7934375 4.81640625 16.171875 C4.73261719 15.37265625 4.64882812 14.5734375 4.5625 13.75 C4.48128906 12.96109375 4.40007812 12.1721875 4.31640625 11.359375 C3.89878137 8.12109403 3.89878137 8.12109403 3 5 C2.01 4.67 1.02 4.34 0 4 C0 2.68 0 1.36 0 0 Z " fill="#BB770D" transform="translate(220,141)"/>
<path d="M0 0 C0.33 0.66 0.66 1.32 1 2 C-0.14453125 4.3828125 -0.14453125 4.3828125 -1.8125 7.125 C-2.35519531 8.03507813 -2.89789063 8.94515625 -3.45703125 9.8828125 C-3.96621094 10.58148438 -4.47539062 11.28015625 -5 12 C-5.66 12 -6.32 12 -7 12 C-7.33 12.66 -7.66 13.32 -8 14 C-7.51003752 9.59033771 -6.12314463 8.02554636 -3 5 C-2.36707617 2.88719655 -2.36707617 2.88719655 -2 1 C-1.34 0.67 -0.68 0.34 0 0 Z " fill="#B16B0A" transform="translate(133,133)"/>
<path d="M0 0 C-1 3 -1 3 -4 5 C-5.19232613 7.05003955 -5.19232613 7.05003955 -6 9 C-6.66 8.34 -7.32 7.68 -8 7 C-8 4 -8 4 -6.25 1.8125 C-4 0 -4 0 0 0 Z " fill="#7B2200" transform="translate(176,99)"/>
<path d="M0 0 C0 0.33 0 0.66 0 1 C-7.09784913 2.81774185 -13.65081658 4.43230491 -21 4 C-21 3.67 -21 3.34 -21 3 C-13.90215087 1.18225815 -7.34918342 -0.43230491 0 0 Z " fill="#FFEBA8" transform="translate(159,16)"/>
<path d="M0 0 C1.43088528 2.86177057 0.59991697 4.93375773 0 8 C1.98 8 3.96 8 6 8 C5.01 9.485 5.01 9.485 4 11 C2.125 10.6875 2.125 10.6875 0 10 C-2.14915785 6.77626323 -2.38286803 5.73296326 -2 2 C-1.34 1.34 -0.68 0.68 0 0 Z " fill="#7E878D" transform="translate(110,222)"/>
<path d="M0 0 C0.66 0.66 1.32 1.32 2 2 C1.7578125 4.6015625 1.7578125 4.6015625 1.125 7.625 C0.81949219 9.12933594 0.81949219 9.12933594 0.5078125 10.6640625 C0.34023437 11.43492188 0.17265625 12.20578125 0 13 C-0.33 13 -0.66 13 -1 13 C-1.22151549 11.20991533 -1.42682213 9.41781838 -1.625 7.625 C-1.74101562 6.62726563 -1.85703125 5.62953125 -1.9765625 4.6015625 C-1.98429688 3.74304688 -1.99203125 2.88453125 -2 2 C-1.34 1.34 -0.68 0.68 0 0 Z " fill="#FEEA38" transform="translate(163,100)"/>
<path d="M0 0 C0.33 0.66 0.66 1.32 1 2 C-1.64 1.67 -4.28 1.34 -7 1 C-7.66 2.32 -8.32 3.64 -9 5 C-9.66 5 -10.32 5 -11 5 C-11 6.98 -11 8.96 -11 11 C-11.33 11 -11.66 11 -12 11 C-12.47863248 4.77777778 -12.47863248 4.77777778 -10.5 1.5625 C-6.86353539 -0.71029038 -4.24217465 -0.28281164 0 0 Z " fill="#984A07" transform="translate(179,98)"/>
<path d="M0 0 C1 3 1 3 0.3125 5 C-1.17477001 7.26631621 -2.75769234 8.50512823 -5 10 C-4.49701212 5.59885603 -2.91227269 3.28804981 0 0 Z " fill="#EBBC24" transform="translate(165,82)"/>
<path d="M0 0 C1.65 0 3.3 0 5 0 C0.94612259 4.81397943 -2.0217942 5.88541926 -8 7 C-7.67 6.34 -7.34 5.68 -7 5 C-3.9375 4.375 -3.9375 4.375 -1 4 C-0.67 2.68 -0.34 1.36 0 0 Z " fill="#6E6946" transform="translate(233,245)"/>
<path d="M0 0 C-3.98288676 1.81040307 -7.67180013 2.45897502 -12 3 C-13.66934283 3.31966139 -15.3373217 3.64731066 -17 4 C-14.60523231 1.14198216 -12.69509117 0.42735535 -9.0625 -0.25 C-8.20785156 -0.42015625 -7.35320312 -0.5903125 -6.47265625 -0.765625 C-4.00466983 -0.99955736 -2.33985901 -0.76004701 0 0 Z " fill="#54585C" transform="translate(143,224)"/>
<path d="M0 0 C1.03115279 3.26913624 0.9638984 5.86041348 0.5625 9.25 C0.46066406 10.14203125 0.35882813 11.0340625 0.25390625 11.953125 C0.12822266 12.96632812 0.12822266 12.96632812 0 14 C-2 12 -2 12 -2.265625 9.94140625 C-2.26046875 9.15636719 -2.2553125 8.37132812 -2.25 7.5625 C-2.25515625 6.78003906 -2.2603125 5.99757812 -2.265625 5.19140625 C-2 3 -2 3 0 0 Z " fill="#CA8C14" transform="translate(125,147)"/>
<path d="M0 0 C0.66 0 1.32 0 2 0 C4.95303159 3.07115285 5.52651586 5.8333396 6 10 C5.01 9.67 4.02 9.34 3 9 C2.05078125 6.93359375 2.05078125 6.93359375 1.3125 4.4375 C1.06113281 3.61121094 0.80976563 2.78492187 0.55078125 1.93359375 C0.36902344 1.29550781 0.18726563 0.65742187 0 0 Z " fill="#D79F1B" transform="translate(198,106)"/>
<path d="M0 0 C1.93833996 0.08715017 3.8757429 0.19532964 5.8125 0.3125 C7.43091797 0.39951172 7.43091797 0.39951172 9.08203125 0.48828125 C12.17497517 1.03068507 13.13022903 1.55289624 15 4 C9.76119922 3.44854729 5.02649303 2.57077907 0 1 C0 0.67 0 0.34 0 0 Z " fill="#5F6367" transform="translate(207,224)"/>
<path d="M0 0 C1.43791516 0.14168137 2.8753237 0.28851043 4.3125 0.4375 C5.11300781 0.51871094 5.91351563 0.59992188 6.73828125 0.68359375 C9 1 9 1 12 2 C10 4 10 4 6.5625 4.375 C3 4 3 4 1.0625 2 C0.711875 1.34 0.36125 0.68 0 0 Z " fill="#8C3B02" transform="translate(168,146)"/>
<path d="M0 0 C0.66 0.33 1.32 0.66 2 1 C-0.05233685 3.2477975 -1.00667261 4.0022242 -4 5 C-4.99 6.485 -4.99 6.485 -6 8 C-7.32 7.67 -8.64 7.34 -10 7 C-6.81404865 4.36021174 -3.69029454 1.89501612 0 0 Z " fill="#CCA723" transform="translate(243,242)"/>
<path d="M0 0 C0.33 0.66 0.66 1.32 1 2 C-1.5162178 4.60608273 -4.05134359 6.89381685 -7 9 C-7.66 8.67 -8.32 8.34 -9 8 C-7.88625 7.13375 -7.88625 7.13375 -6.75 6.25 C-4.33912357 4.27746474 -2.15957299 2.23955718 0 0 Z " fill="#897C40" transform="translate(248,236)"/>
<path d="M0 0 C4.29 0 8.58 0 13 0 C12.67 0.99 12.34 1.98 12 3 C6.06 2.01 6.06 2.01 0 1 C0 0.67 0 0.34 0 0 Z " fill="#303A4E" transform="translate(132,253)"/>
<path d="M0 0 C1.48199902 0.44909061 2.96055236 0.90956564 4.4375 1.375 C5.26121094 1.63023437 6.08492187 1.88546875 6.93359375 2.1484375 C9 3 9 3 10 5 C7.36 4.67 4.72 4.34 2 4 C2 3.34 2 2.68 2 2 C1.34 2 0.68 2 0 2 C0 1.34 0 0.68 0 0 Z " fill="#827439" transform="translate(228,202)"/>
<path d="M0 0 C0.99 0.33 1.98 0.66 3 1 C3 2.32 3 3.64 3 5 C1.35 5 -0.3 5 -2 5 C-2 3.68 -2 2.36 -2 1 C-1.34 0.67 -0.68 0.34 0 0 Z " fill="#6F1200" transform="translate(174,120)"/>
<path d="M0 0 C2.3125 0.1875 2.3125 0.1875 5 1 C6.8125 3.5625 6.8125 3.5625 8 6 C4.08597051 4.73058503 2.20927127 3.48832306 0 0 Z " fill="#726B44" transform="translate(100,240)"/>
<path d="M0 0 C0.33 0 0.66 0 1 0 C1.12375 1.19625 1.2475 2.3925 1.375 3.625 C1.82325054 7.27596813 2.70446837 10.54524899 4 14 C2 12.625 2 12.625 0 10 C-0.35791096 6.6419531 -0.23115823 3.36463643 0 0 Z " fill="#616149" transform="translate(95,223)"/>
<path d="M0 0 C0 0.99 0 1.98 0 3 C-1 4 -1 4 -3.28515625 4.09765625 C-4.65994141 4.08025391 -4.65994141 4.08025391 -6.0625 4.0625 C-6.98160156 4.05347656 -7.90070313 4.04445312 -8.84765625 4.03515625 C-9.55792969 4.02355469 -10.26820313 4.01195312 -11 4 C-11 3.67 -11 3.34 -11 3 C-7.37 2.01 -3.74 1.02 0 0 Z " fill="#515151" transform="translate(162,219)"/>
<path d="M0 0 C3.34726719 1.11575573 3.62079748 1.51344622 5.25 4.4375 C5.8275 5.613125 6.405 6.78875 7 8 C6.67 8.66 6.34 9.32 6 10 C5.34 8.68 4.68 7.36 4 6 C3.34 6 2.68 6 2 6 C1.34 4.02 0.68 2.04 0 0 Z " fill="#A35905" transform="translate(196,100)"/>
<path d="M0 0 C3.36591866 1.44253657 5.51047079 3.33264727 8 6 C3.25 5.125 3.25 5.125 1 4 C0.375 1.9375 0.375 1.9375 0 0 Z " fill="#776D3D" transform="translate(238,207)"/>
<path d="M0 0 C-3.31371 2.20914 -4.3446021 2.22481553 -8.1875 2.125 C-9.08855469 2.10695313 -9.98960937 2.08890625 -10.91796875 2.0703125 C-11.60503906 2.04710937 -12.29210937 2.02390625 -13 2 C-13 1.67 -13 1.34 -13 1 C-11.58622218 0.63447197 -10.16879424 0.28304505 -8.75 -0.0625 C-7.96109375 -0.25972656 -7.1721875 -0.45695313 -6.359375 -0.66015625 C-3.89605178 -1.01497267 -2.34395868 -0.76877544 0 0 Z " fill="#C5A228" transform="translate(218,256)"/>
<path d="M0 0 C0.33 0 0.66 0 1 0 C0.25 6.75 0.25 6.75 -2 9 C-2.125 5.625 -2.125 5.625 -2 2 C-1.34 1.34 -0.68 0.68 0 0 Z " fill="#FEE737" transform="translate(164,138)"/>
<path d="M0 0 C0.66 0 1.32 0 2 0 C5.11450382 4.15267176 5.11450382 4.15267176 4.6875 7.3125 C4.460625 7.869375 4.23375 8.42625 4 9 C0 2.25 0 2.25 0 0 Z " fill="#CE8900" transform="translate(203,86)"/>
<path d="M0 0 C0.33 0.66 0.66 1.32 1 2 C0.06421005 4.35981813 -0.93347808 6.69631264 -2 9 C-2.66 9 -3.32 9 -4 9 C-2.25 2.25 -2.25 2.25 0 0 Z " fill="#B76D00" transform="translate(148,82)"/>
</svg>
