<?xml version="1.0" encoding="UTF-8"?>
<svg version="1.1" xmlns="http://www.w3.org/2000/svg" width="345" height="394">
<path d="M0 0 C0.84962311 0.00304138 1.69924622 0.00608276 2.57461548 0.00921631 C15.98831381 0.080001 28.73710735 0.96828143 41.75 4.4375 C42.57870605 4.64648926 43.40741211 4.85547852 44.26123047 5.07080078 C88.26933016 16.3322179 126.0785202 45.17212158 149.44384766 84.02124023 C157.31470965 97.50691389 163.24747602 111.56202226 167.5625 126.5625 C167.74546631 127.19309326 167.92843262 127.82368652 168.11694336 128.47338867 C172.02639291 143.08543124 173.30274373 157.62410654 173.1875 172.6875 C173.18293793 173.96193466 173.18293793 173.96193466 173.17828369 175.26211548 C173.107499 188.67581381 172.21921857 201.42460735 168.75 214.4375 C168.43651611 215.68055908 168.43651611 215.68055908 168.11669922 216.94873047 C156.85641859 260.95238894 128.01619929 298.77434645 89.16479492 322.1315918 C76.55470702 329.49431193 63.36667797 335.5253891 49.1875 339.125 C41.50592028 341.58829139 37.36098861 348.23000379 32.75 354.4375 C31.91192112 355.52320771 31.07084407 356.60660868 30.2265625 357.6875 C28.56407602 359.82166717 26.91662116 361.96608099 25.28125 364.12109375 C22.64312389 367.5908479 19.9499683 371.01577206 17.25 374.4375 C12.02824316 381.06214465 6.87845748 387.74046876 1.75 394.4375 C-1.70262396 393.28662535 -2.24094513 392.46545908 -4.33203125 389.59765625 C-4.92733643 388.79078369 -5.5226416 387.98391113 -6.13598633 387.15258789 C-6.77173584 386.27723389 -7.40748535 385.40187988 -8.0625 384.5 C-9.415271 382.6656366 -10.76946913 380.8323249 -12.125 379 C-12.81207031 378.06929688 -13.49914062 377.13859375 -14.20703125 376.1796875 C-17.83122158 371.31509551 -21.56421992 366.53619307 -25.31835938 361.77148438 C-27.96536113 358.40614006 -30.56600798 355.03260824 -33.03125 351.53125 C-33.46268311 350.93111084 -33.89411621 350.33097168 -34.33862305 349.71264648 C-35.46704771 348.13357227 -36.57252704 346.53816789 -37.67578125 344.94140625 C-41.17740267 341.53542851 -44.62752989 340.72525186 -49.25 339.4375 C-50.7453939 338.93643666 -52.23641624 338.4221277 -53.72265625 337.89453125 C-54.46870117 337.62979004 -55.21474609 337.36504883 -55.98339844 337.09228516 C-65.798991 333.54262118 -75.09340747 329.44545176 -84.25 324.4375 C-84.87326172 324.10024902 -85.49652344 323.76299805 -86.13867188 323.41552734 C-125.3486865 301.92346157 -153.74298187 264.02591945 -166.42797852 221.51831055 C-166.63737061 220.79039307 -166.8467627 220.06247559 -167.0625 219.3125 C-167.24546631 218.68190674 -167.42843262 218.05131348 -167.61694336 217.40161133 C-171.52639291 202.78956876 -172.80274373 188.25089346 -172.6875 173.1875 C-172.68445862 172.33787689 -172.68141724 171.48825378 -172.67828369 170.61288452 C-172.607499 157.19918619 -171.71921857 144.45039265 -168.25 131.4375 C-168.04101074 130.60879395 -167.83202148 129.78008789 -167.61669922 128.92626953 C-156.3552821 84.91816984 -127.51537842 47.1089798 -88.66625977 23.74365234 C-75.18058611 15.87279035 -61.12547774 9.94002398 -46.125 5.625 C-45.49440674 5.44203369 -44.86381348 5.25906738 -44.21411133 5.07055664 C-29.60206876 1.16110709 -15.06339346 -0.11524373 0 0 Z " fill="#D4D6DA" transform="translate(172.25,-0.4375)"/>
<path d="M0 0 C0.84962311 0.00304138 1.69924622 0.00608276 2.57461548 0.00921631 C15.98831381 0.080001 28.73710735 0.96828143 41.75 4.4375 C42.57870605 4.64648926 43.40741211 4.85547852 44.26123047 5.07080078 C88.26933016 16.3322179 126.0785202 45.17212158 149.44384766 84.02124023 C157.31470965 97.50691389 163.24747602 111.56202226 167.5625 126.5625 C167.74546631 127.19309326 167.92843262 127.82368652 168.11694336 128.47338867 C172.02639291 143.08543124 173.30274373 157.62410654 173.1875 172.6875 C173.18293793 173.96193466 173.18293793 173.96193466 173.17828369 175.26211548 C173.107499 188.67581381 172.21921857 201.42460735 168.75 214.4375 C168.43651611 215.68055908 168.43651611 215.68055908 168.11669922 216.94873047 C156.85641859 260.95238894 128.01619929 298.77434645 89.16479492 322.1315918 C76.55470702 329.49431193 63.36667797 335.5253891 49.1875 339.125 C41.50592028 341.58829139 37.36098861 348.23000379 32.75 354.4375 C31.91192112 355.52320771 31.07084407 356.60660868 30.2265625 357.6875 C28.56407602 359.82166717 26.91662116 361.96608099 25.28125 364.12109375 C22.64312389 367.5908479 19.9499683 371.01577206 17.25 374.4375 C12.02824316 381.06214465 6.87845748 387.74046876 1.75 394.4375 C-1.70262396 393.28662535 -2.24094513 392.46545908 -4.33203125 389.59765625 C-4.92733643 388.79078369 -5.5226416 387.98391113 -6.13598633 387.15258789 C-6.77173584 386.27723389 -7.40748535 385.40187988 -8.0625 384.5 C-9.415271 382.6656366 -10.76946913 380.8323249 -12.125 379 C-12.81207031 378.06929688 -13.49914062 377.13859375 -14.20703125 376.1796875 C-17.83122158 371.31509551 -21.56421992 366.53619307 -25.31835938 361.77148438 C-27.96536113 358.40614006 -30.56600798 355.03260824 -33.03125 351.53125 C-33.46268311 350.93111084 -33.89411621 350.33097168 -34.33862305 349.71264648 C-35.46704771 348.13357227 -36.57252704 346.53816789 -37.67578125 344.94140625 C-41.17740267 341.53542851 -44.62752989 340.72525186 -49.25 339.4375 C-50.7453939 338.93643666 -52.23641624 338.4221277 -53.72265625 337.89453125 C-54.46870117 337.62979004 -55.21474609 337.36504883 -55.98339844 337.09228516 C-65.798991 333.54262118 -75.09340747 329.44545176 -84.25 324.4375 C-84.87326172 324.10024902 -85.49652344 323.76299805 -86.13867188 323.41552734 C-125.3486865 301.92346157 -153.74298187 264.02591945 -166.42797852 221.51831055 C-166.63737061 220.79039307 -166.8467627 220.06247559 -167.0625 219.3125 C-167.24546631 218.68190674 -167.42843262 218.05131348 -167.61694336 217.40161133 C-171.52639291 202.78956876 -172.80274373 188.25089346 -172.6875 173.1875 C-172.68445862 172.33787689 -172.68141724 171.48825378 -172.67828369 170.61288452 C-172.607499 157.19918619 -171.71921857 144.45039265 -168.25 131.4375 C-168.04101074 130.60879395 -167.83202148 129.78008789 -167.61669922 128.92626953 C-156.3552821 84.91816984 -127.51537842 47.1089798 -88.66625977 23.74365234 C-75.18058611 15.87279035 -61.12547774 9.94002398 -46.125 5.625 C-45.49440674 5.44203369 -44.86381348 5.25906738 -44.21411133 5.07055664 C-29.60206876 1.16110709 -15.06339346 -0.11524373 0 0 Z M-56.25 27.4375 C-56.58 28.0975 -56.91 28.7575 -57.25 29.4375 C-59.56939207 30.1511591 -61.90523449 30.8122292 -64.25 31.4375 C-65.92632417 32.07949649 -67.59750513 32.73644157 -69.25 33.4375 C-69.25 34.0975 -69.25 34.7575 -69.25 35.4375 C-69.95125 35.53160156 -70.6525 35.62570313 -71.375 35.72265625 C-95.13270414 41.62980279 -118.15485405 69.73887967 -130.25 89.4375 C-131.16652344 90.85482422 -131.16652344 90.85482422 -132.1015625 92.30078125 C-135.56072628 97.77921058 -137.98965724 103.38166501 -140.25 109.4375 C-140.95560257 111.16778278 -141.66391648 112.89696247 -142.375 114.625 C-143.93286117 118.50748214 -145.14192438 122.40093882 -146.25 126.4375 C-146.58 127.200625 -146.91 127.96375 -147.25 128.75 C-148.50418271 132.12061604 -149.07695842 135.49728584 -149.6875 139.03515625 C-150.25 141.4375 -150.25 141.4375 -151.24658203 143.34619141 C-154.72757332 150.60122094 -153.39933852 160.79205404 -153.375 168.625 C-153.37886719 169.85025391 -153.38273437 171.07550781 -153.38671875 172.33789062 C-153.60632044 188.1500055 -153.60632044 188.1500055 -150.25 203.4375 C-149.95016236 204.91106103 -149.67827778 206.39064466 -149.4375 207.875 C-147.13747887 219.60335202 -142.85091914 229.85551679 -137.01953125 240.1953125 C-135.25 243.4375 -135.25 243.4375 -134.1953125 246.1171875 C-133.18871347 248.58793056 -131.9651123 250.35176031 -130.3125 252.4375 C-128.06054839 255.34604474 -126.14310629 258.28232286 -124.25 261.4375 C-122.71054595 263.53490433 -121.14021339 265.60520745 -119.5546875 267.66796875 C-118.25 269.4375 -118.25 269.4375 -117.25 271.4375 C-116.59 271.4375 -115.93 271.4375 -115.25 271.4375 C-115.023125 271.97375 -114.79625 272.51 -114.5625 273.0625 C-111.05193729 279.41494681 -105.73442506 283.84040016 -100.25 288.4375 C-99.08017578 289.45650391 -99.08017578 289.45650391 -97.88671875 290.49609375 C-87.23002162 299.56803167 -75.53922698 307.83438224 -62.25 312.4375 C-60.25 313.4375 -58.25 314.4375 -56.25 315.4375 C-53.61041325 316.51707402 -50.93515479 317.47816293 -48.25 318.4375 C-47.21552734 318.84355469 -47.21552734 318.84355469 -46.16015625 319.2578125 C-40.77918489 321.26229731 -35.77737287 321.87876547 -30.046875 322.12890625 C-27.25 322.4375 -27.25 322.4375 -25.23339844 323.43798828 C-20.75880952 324.93708542 -16.40769699 324.74262714 -11.71875 324.73828125 C-10.17749451 324.74470894 -10.17749451 324.74470894 -8.60510254 324.75126648 C-6.42977635 324.75700414 -4.25443098 324.7575142 -2.07910156 324.75317383 C1.21063091 324.75003753 4.49944268 324.77339801 7.7890625 324.79882812 C18.6240384 324.83092115 28.30355303 324.45536246 38.75 321.4375 C41.728938 320.89231899 44.70929819 320.41910938 47.703125 319.96484375 C48.37859375 319.79082031 49.0540625 319.61679687 49.75 319.4375 C50.08 318.7775 50.41 318.1175 50.75 317.4375 C52.43379547 316.80532768 54.14978262 316.25836406 55.875 315.75 C63.50501416 313.33229672 70.56852622 309.93012933 77.75 306.4375 C77.75 305.7775 77.75 305.1175 77.75 304.4375 C78.57371094 304.22867187 79.39742187 304.01984375 80.24609375 303.8046875 C84.72623125 302.0565848 88.0499104 299.51448857 91.8125 296.5625 C92.93132568 295.69238281 92.93132568 295.69238281 94.07275391 294.8046875 C105.62141268 285.71397856 115.54598186 275.88490153 124.75 264.4375 C125.47316406 263.55191406 126.19632812 262.66632813 126.94140625 261.75390625 C129.22764549 258.82574238 130.9769989 255.68800201 132.75 252.4375 C133.27335937 251.50550781 133.79671875 250.57351562 134.3359375 249.61328125 C134.88507813 248.62714844 135.43421875 247.64101562 136 246.625 C136.52078125 245.69042969 137.0415625 244.75585938 137.578125 243.79296875 C138.89847699 241.57754107 138.89847699 241.57754107 138.75 239.4375 C139.41 239.4375 140.07 239.4375 140.75 239.4375 C141.245 238.365 141.74 237.2925 142.25 236.1875 C142.5284375 235.58421875 142.806875 234.9809375 143.09375 234.359375 C143.96542924 232.14507164 143.96542924 232.14507164 143.75 228.4375 C144.41 228.4375 145.07 228.4375 145.75 228.4375 C146.018125 227.4475 146.28625 226.4575 146.5625 225.4375 C147.31431552 222.78496777 148.18031707 220.33364316 149.1875 217.75 C155.4262265 201.53564483 155.83679178 184.70062352 155.875 167.5625 C155.88188843 165.83362549 155.88188843 165.83362549 155.88891602 164.06982422 C156.1172661 153.30292957 156.1172661 153.30292957 153.75 142.9375 C152.26229316 139.21823289 152.07860402 135.40669071 151.75 131.4375 C151.09 131.4375 150.43 131.4375 149.75 131.4375 C149.58564453 130.6021875 149.58564453 130.6021875 149.41796875 129.75 C148.47231183 125.19854555 147.31331617 120.92479348 145.59765625 116.60546875 C144.59906015 114.05145567 143.71351342 111.46497191 142.8125 108.875 C141.1950124 104.39099963 139.26539145 100.48009341 136.75 96.4375 C136.09 96.4375 135.43 96.4375 134.75 96.4375 C134.64816406 95.71949219 134.54632813 95.00148438 134.44140625 94.26171875 C131.35341318 81.64805214 118.90036479 70.41652347 110.0625 61.5 C109.32531738 60.75347168 108.58813477 60.00694336 107.82861328 59.23779297 C102.21330616 53.0567888 102.21330616 53.0567888 94.75 50.4375 C94.42 49.4475 94.09 48.4575 93.75 47.4375 C91.12166817 45.49836421 91.12166817 45.49836421 87.875 43.625 C87.29435791 43.27824219 86.71371582 42.93148437 86.11547852 42.57421875 C84.33343367 41.51718465 82.54302586 40.47577668 80.75 39.4375 C79.70457031 38.82519531 78.65914062 38.21289062 77.58203125 37.58203125 C72.03357506 34.28547219 72.03357506 34.28547219 65.75 33.4375 C64.76 31.4575 64.76 31.4575 63.75 29.4375 C62.1 29.4375 60.45 29.4375 58.75 29.4375 C58.75 28.7775 58.75 28.1175 58.75 27.4375 C46.84472694 23.08912012 35.32570843 20.0442716 22.75 18.4375 C21.77933594 18.30601563 20.80867187 18.17453125 19.80859375 18.0390625 C-5.0465798 15.23099709 -33.10123327 17.62870054 -56.25 27.4375 Z " fill="#FDFDFD" transform="translate(172.25,-0.4375)"/>
<path d="M0 0 C1.02574883 0.00212242 1.02574883 0.00212242 2.07221985 0.00428772 C4.25261847 0.00987749 6.43291376 0.02242803 8.61328125 0.03515625 C10.09309747 0.04017258 11.57291531 0.04473525 13.05273438 0.04882812 C16.67711682 0.05984354 20.30143895 0.07710113 23.92578125 0.09765625 C23.92578125 0.75765625 23.92578125 1.41765625 23.92578125 2.09765625 C24.52390625 2.38640625 25.12203125 2.67515625 25.73828125 2.97265625 C30.63949894 5.49328249 30.63949894 5.49328249 32.05078125 8.47265625 C33.29672462 13.63442165 33.60050709 18.80767126 33.92578125 24.09765625 C34.58578125 24.09765625 35.24578125 24.09765625 35.92578125 24.09765625 C35.97476563 24.7009375 36.02375 25.30421875 36.07421875 25.92578125 C36.14898437 26.725 36.22375 27.52421875 36.30078125 28.34765625 C36.40519531 29.53101563 36.40519531 29.53101563 36.51171875 30.73828125 C36.94775411 33.22286008 37.79316276 34.85740349 38.92578125 37.09765625 C39.52030237 39.20847894 40.05767569 41.33586551 40.55078125 43.47265625 C40.94136719 45.12394531 40.94136719 45.12394531 41.33984375 46.80859375 C41.90583372 49.9856841 42.03273951 52.87918483 41.92578125 56.09765625 C42.58578125 56.09765625 43.24578125 56.09765625 43.92578125 56.09765625 C44.09883789 56.99883179 44.09883789 56.99883179 44.27539062 57.91821289 C45.49738546 64.16765388 46.89131536 70.35544362 48.42578125 76.53515625 C48.63847656 77.41880859 48.85117188 78.30246094 49.0703125 79.21289062 C49.28042969 80.06044922 49.49054688 80.90800781 49.70703125 81.78125 C49.89330078 82.53978271 50.07957031 83.29831543 50.27148438 84.07983398 C50.91502583 86.37511624 50.91502583 86.37511624 52.92578125 89.09765625 C53.26953125 91.40234375 53.26953125 91.40234375 53.42578125 93.97265625 C53.73758129 97.75254801 54.3324466 100.62981025 55.92578125 104.09765625 C57.32390481 108.37940966 58.17850606 112.51878784 58.86328125 116.97265625 C60.18291572 126.30072074 60.18291572 126.30072074 64.92578125 134.09765625 C67.09420605 134.33471426 67.09420605 134.33471426 69.55078125 134.34765625 C76.61175776 134.91906475 80.51583776 138.55744554 85.23828125 143.53515625 C90.28554742 151.1995234 90.44503687 157.73982854 90.42578125 166.78515625 C90.45414063 168.00783203 90.4825 169.23050781 90.51171875 170.49023438 C90.51429688 171.66392578 90.516875 172.83761719 90.51953125 174.046875 C90.52662109 175.11252686 90.53371094 176.17817871 90.54101562 177.27612305 C89.70002471 181.13300081 88.19911909 181.97718395 84.92578125 184.09765625 C81.90381622 184.60381413 81.90381622 184.60381413 78.47375488 184.61231995 C77.16991348 184.6250444 75.86607208 184.63776886 74.52272034 184.65087891 C73.08480653 184.64469698 71.64689449 184.63809098 70.20898438 184.63110352 C68.68927676 184.63816353 67.16957618 184.6469089 65.64988708 184.6572113 C61.52796275 184.6797047 57.40642239 184.67676602 53.28446007 184.66788983 C49.84247435 184.66277868 46.4005607 184.67007343 42.9585824 184.67736191 C34.83902336 184.69436034 26.71965226 184.6907952 18.60009766 184.67407227 C10.22419124 184.65714445 1.84880572 184.67299444 -6.52704382 184.70529515 C-13.72040841 184.73198448 -20.91361077 184.73926904 -28.1070199 184.73078007 C-32.40247313 184.72584968 -36.69761282 184.72807248 -40.99302673 184.74856758 C-45.03158912 184.76691504 -49.06940151 184.76097828 -53.10792351 184.73636818 C-54.58937645 184.7313575 -56.07088645 184.73485687 -57.55229378 184.74751663 C-59.57554356 184.76343825 -61.59897523 184.74548094 -63.62219238 184.72584534 C-64.75411263 184.72525903 -65.88603287 184.72467272 -67.05225372 184.72406864 C-71.03904644 183.89766055 -72.55021195 182.2223209 -75.07421875 179.09765625 C-75.6418457 176.23510742 -75.6418457 176.23510742 -75.5625 173.140625 C-75.54638672 172.02880859 -75.53027344 170.91699219 -75.51367188 169.77148438 C-75.47177734 168.62099609 -75.42988281 167.47050781 -75.38671875 166.28515625 C-75.35288086 164.53041992 -75.35288086 164.53041992 -75.31835938 162.74023438 C-75.25953966 159.85806856 -75.17739016 156.97851944 -75.07421875 154.09765625 C-74.41421875 154.09765625 -73.75421875 154.09765625 -73.07421875 154.09765625 C-72.92726563 153.21013672 -72.92726563 153.21013672 -72.77734375 152.3046875 C-71.33783661 144.69763682 -68.45970654 140.63471337 -62.07421875 136.09765625 C-61.41421875 136.09765625 -60.75421875 136.09765625 -60.07421875 136.09765625 C-60.07421875 135.43765625 -60.07421875 134.77765625 -60.07421875 134.09765625 C-54.13421875 133.10765625 -54.13421875 133.10765625 -48.07421875 132.09765625 C-47.76484375 130.96328125 -47.45546875 129.82890625 -47.13671875 128.66015625 C-46.07421875 125.09765625 -46.07421875 125.09765625 -45.07421875 124.09765625 C-44.51077131 121.24538606 -43.9928693 118.40134017 -43.51171875 115.53515625 C-43.37314453 114.72884766 -43.23457031 113.92253906 -43.09179688 113.09179688 C-42.74904112 111.09435814 -42.41117487 109.09608153 -42.07421875 107.09765625 C-41.41421875 107.09765625 -40.75421875 107.09765625 -40.07421875 107.09765625 C-39.94144531 106.17082031 -39.80867188 105.24398437 -39.671875 104.2890625 C-39.49527344 103.09152344 -39.31867188 101.89398438 -39.13671875 100.66015625 C-38.96269531 99.46519531 -38.78867188 98.27023438 -38.609375 97.0390625 C-38.07421875 94.09765625 -38.07421875 94.09765625 -37.07421875 93.09765625 C-36.84892951 91.10223729 -36.6266078 89.10605761 -36.453125 87.10546875 C-36.07421875 85.09765625 -36.07421875 85.09765625 -34.07421875 82.09765625 C-33.695021 80.14774466 -33.695021 80.14774466 -33.57421875 78.09765625 C-33.3260102 74.82130339 -33.01857717 74.01419388 -31.07421875 71.09765625 C-30.65639488 68.88522776 -30.65639488 68.88522776 -30.51171875 66.53515625 C-30.17010916 62.28943707 -30.17010916 62.28943707 -29.07421875 60.09765625 C-28.41421875 60.09765625 -27.75421875 60.09765625 -27.07421875 60.09765625 C-26.74421875 57.12765625 -26.41421875 54.15765625 -26.07421875 51.09765625 C-25.41421875 51.09765625 -24.75421875 51.09765625 -24.07421875 51.09765625 C-24.02523437 50.50339844 -23.97625 49.90914062 -23.92578125 49.296875 C-22.30498798 31.32842548 -22.30498798 31.32842548 -20.07421875 29.09765625 C-19.74327633 27.68964666 -19.46078119 26.27018884 -19.19921875 24.84765625 C-19.02261719 23.95175781 -18.84601563 23.05585937 -18.6640625 22.1328125 C-18.24899089 19.99698044 -17.84647785 17.85868845 -17.453125 15.71875 C-15.23661446 4.71133325 -15.23661446 4.71133325 -10.07421875 1.09765625 C-6.5359562 -0.0817646 -3.73273149 -0.01523564 0 0 Z " fill="#E66B22" transform="translate(165.07421875,69.90234375)"/>
<path d="M0 0 C1.02574883 0.00212242 1.02574883 0.00212242 2.07221985 0.00428772 C4.25261847 0.00987749 6.43291376 0.02242803 8.61328125 0.03515625 C10.09309747 0.04017258 11.57291531 0.04473525 13.05273438 0.04882812 C16.67711682 0.05984354 20.30143895 0.07710113 23.92578125 0.09765625 C23.92578125 0.75765625 23.92578125 1.41765625 23.92578125 2.09765625 C24.52390625 2.38640625 25.12203125 2.67515625 25.73828125 2.97265625 C30.63949894 5.49328249 30.63949894 5.49328249 32.05078125 8.47265625 C33.29672462 13.63442165 33.60050709 18.80767126 33.92578125 24.09765625 C34.58578125 24.09765625 35.24578125 24.09765625 35.92578125 24.09765625 C35.97476563 24.7009375 36.02375 25.30421875 36.07421875 25.92578125 C36.14898437 26.725 36.22375 27.52421875 36.30078125 28.34765625 C36.40519531 29.53101563 36.40519531 29.53101563 36.51171875 30.73828125 C36.94775411 33.22286008 37.79316276 34.85740349 38.92578125 37.09765625 C39.52030237 39.20847894 40.05767569 41.33586551 40.55078125 43.47265625 C40.94136719 45.12394531 40.94136719 45.12394531 41.33984375 46.80859375 C41.90583372 49.9856841 42.03273951 52.87918483 41.92578125 56.09765625 C42.58578125 56.09765625 43.24578125 56.09765625 43.92578125 56.09765625 C44.09883789 56.99883179 44.09883789 56.99883179 44.27539062 57.91821289 C45.49738546 64.16765388 46.89131536 70.35544362 48.42578125 76.53515625 C48.63847656 77.41880859 48.85117188 78.30246094 49.0703125 79.21289062 C49.28042969 80.06044922 49.49054688 80.90800781 49.70703125 81.78125 C49.89330078 82.53978271 50.07957031 83.29831543 50.27148438 84.07983398 C50.91502583 86.37511624 50.91502583 86.37511624 52.92578125 89.09765625 C53.26953125 91.40234375 53.26953125 91.40234375 53.42578125 93.97265625 C53.73758129 97.75254801 54.3324466 100.62981025 55.92578125 104.09765625 C57.32390481 108.37940966 58.17850606 112.51878784 58.86328125 116.97265625 C60.18291572 126.30072074 60.18291572 126.30072074 64.92578125 134.09765625 C67.09420605 134.33471426 67.09420605 134.33471426 69.55078125 134.34765625 C76.61175776 134.91906475 80.51583776 138.55744554 85.23828125 143.53515625 C90.28554742 151.1995234 90.44503687 157.73982854 90.42578125 166.78515625 C90.45414063 168.00783203 90.4825 169.23050781 90.51171875 170.49023438 C90.51429688 171.66392578 90.516875 172.83761719 90.51953125 174.046875 C90.52662109 175.11252686 90.53371094 176.17817871 90.54101562 177.27612305 C89.70002471 181.13300081 88.19911909 181.97718395 84.92578125 184.09765625 C81.90381622 184.60381413 81.90381622 184.60381413 78.47375488 184.61231995 C77.16991348 184.6250444 75.86607208 184.63776886 74.52272034 184.65087891 C73.08480653 184.64469698 71.64689449 184.63809098 70.20898438 184.63110352 C68.68927676 184.63816353 67.16957618 184.6469089 65.64988708 184.6572113 C61.52796275 184.6797047 57.40642239 184.67676602 53.28446007 184.66788983 C49.84247435 184.66277868 46.4005607 184.67007343 42.9585824 184.67736191 C34.83902336 184.69436034 26.71965226 184.6907952 18.60009766 184.67407227 C10.22419124 184.65714445 1.84880572 184.67299444 -6.52704382 184.70529515 C-13.72040841 184.73198448 -20.91361077 184.73926904 -28.1070199 184.73078007 C-32.40247313 184.72584968 -36.69761282 184.72807248 -40.99302673 184.74856758 C-45.03158912 184.76691504 -49.06940151 184.76097828 -53.10792351 184.73636818 C-54.58937645 184.7313575 -56.07088645 184.73485687 -57.55229378 184.74751663 C-59.57554356 184.76343825 -61.59897523 184.74548094 -63.62219238 184.72584534 C-64.75411263 184.72525903 -65.88603287 184.72467272 -67.05225372 184.72406864 C-71.03904644 183.89766055 -72.55021195 182.2223209 -75.07421875 179.09765625 C-75.6418457 176.23510742 -75.6418457 176.23510742 -75.5625 173.140625 C-75.54638672 172.02880859 -75.53027344 170.91699219 -75.51367188 169.77148438 C-75.47177734 168.62099609 -75.42988281 167.47050781 -75.38671875 166.28515625 C-75.35288086 164.53041992 -75.35288086 164.53041992 -75.31835938 162.74023438 C-75.25953966 159.85806856 -75.17739016 156.97851944 -75.07421875 154.09765625 C-74.41421875 154.09765625 -73.75421875 154.09765625 -73.07421875 154.09765625 C-72.92726563 153.21013672 -72.92726563 153.21013672 -72.77734375 152.3046875 C-71.33783661 144.69763682 -68.45970654 140.63471337 -62.07421875 136.09765625 C-61.41421875 136.09765625 -60.75421875 136.09765625 -60.07421875 136.09765625 C-60.07421875 135.43765625 -60.07421875 134.77765625 -60.07421875 134.09765625 C-54.13421875 133.10765625 -54.13421875 133.10765625 -48.07421875 132.09765625 C-47.76484375 130.96328125 -47.45546875 129.82890625 -47.13671875 128.66015625 C-46.07421875 125.09765625 -46.07421875 125.09765625 -45.07421875 124.09765625 C-44.51077131 121.24538606 -43.9928693 118.40134017 -43.51171875 115.53515625 C-43.37314453 114.72884766 -43.23457031 113.92253906 -43.09179688 113.09179688 C-42.74904112 111.09435814 -42.41117487 109.09608153 -42.07421875 107.09765625 C-41.41421875 107.09765625 -40.75421875 107.09765625 -40.07421875 107.09765625 C-39.94144531 106.17082031 -39.80867188 105.24398437 -39.671875 104.2890625 C-39.49527344 103.09152344 -39.31867188 101.89398438 -39.13671875 100.66015625 C-38.96269531 99.46519531 -38.78867188 98.27023438 -38.609375 97.0390625 C-38.07421875 94.09765625 -38.07421875 94.09765625 -37.07421875 93.09765625 C-36.84892951 91.10223729 -36.6266078 89.10605761 -36.453125 87.10546875 C-36.07421875 85.09765625 -36.07421875 85.09765625 -34.07421875 82.09765625 C-33.695021 80.14774466 -33.695021 80.14774466 -33.57421875 78.09765625 C-33.3260102 74.82130339 -33.01857717 74.01419388 -31.07421875 71.09765625 C-30.65639488 68.88522776 -30.65639488 68.88522776 -30.51171875 66.53515625 C-30.17010916 62.28943707 -30.17010916 62.28943707 -29.07421875 60.09765625 C-28.41421875 60.09765625 -27.75421875 60.09765625 -27.07421875 60.09765625 C-26.74421875 57.12765625 -26.41421875 54.15765625 -26.07421875 51.09765625 C-25.41421875 51.09765625 -24.75421875 51.09765625 -24.07421875 51.09765625 C-24.02523437 50.50339844 -23.97625 49.90914062 -23.92578125 49.296875 C-22.30498798 31.32842548 -22.30498798 31.32842548 -20.07421875 29.09765625 C-19.74327633 27.68964666 -19.46078119 26.27018884 -19.19921875 24.84765625 C-19.02261719 23.95175781 -18.84601563 23.05585937 -18.6640625 22.1328125 C-18.24899089 19.99698044 -17.84647785 17.85868845 -17.453125 15.71875 C-15.23661446 4.71133325 -15.23661446 4.71133325 -10.07421875 1.09765625 C-6.5359562 -0.0817646 -3.73273149 -0.01523564 0 0 Z M-9.07421875 38.09765625 C-12.34577346 45.82030502 -12.34577346 45.82030502 -14.19921875 53.97265625 C-14.6980987 57.4648159 -15.47074875 59.9737645 -17.07421875 63.09765625 C-17.42965302 65.42772536 -17.76559405 67.76092641 -18.07421875 70.09765625 C-18.40421875 70.42765625 -18.73421875 70.75765625 -19.07421875 71.09765625 C-19.35711056 73.35181003 -19.52193065 75.60606281 -19.6953125 77.87109375 C-20.07421875 80.09765625 -20.07421875 80.09765625 -22.07421875 83.09765625 C-22.21859375 84.19078125 -22.36296875 85.28390625 -22.51171875 86.41015625 C-23.07421875 90.09765625 -23.07421875 90.09765625 -24.44921875 92.72265625 C-26.55911151 97.10474122 -27.41894693 101.52766639 -28.42578125 106.26953125 C-29.07421875 109.09765625 -29.07421875 109.09765625 -30.07421875 111.09765625 C-30.25282811 112.4896752 -30.39377582 113.88669012 -30.51171875 115.28515625 C-30.81381648 118.32562368 -31.28103353 120.81542521 -32.13671875 123.78515625 C-33.07144704 127.08786287 -33.14566228 129.69218128 -33.07421875 133.09765625 C-32.36813477 133.11747559 -31.66205078 133.13729492 -30.93457031 133.15771484 C-27.73074881 133.2530604 -24.52757074 133.36270138 -21.32421875 133.47265625 C-19.65746094 133.5190625 -19.65746094 133.5190625 -17.95703125 133.56640625 C-16.88710937 133.60507813 -15.8171875 133.64375 -14.71484375 133.68359375 C-13.23806152 133.7307251 -13.23806152 133.7307251 -11.73144531 133.77880859 C-9.06569674 134.09867883 -7.3680547 134.74134246 -5.07421875 136.09765625 C-4.94921875 139.47265625 -4.94921875 139.47265625 -5.07421875 143.09765625 C-7.50470557 145.52814307 -8.11584378 145.3510562 -11.44458008 145.36889648 C-12.80157768 145.38417641 -12.80157768 145.38417641 -14.18598938 145.39976501 C-15.65626839 145.40297508 -15.65626839 145.40297508 -17.15625 145.40625 C-19.22331006 145.43141453 -21.29036728 145.45681249 -23.35742188 145.48242188 C-26.62279501 145.51115382 -29.88811884 145.53516431 -33.15356445 145.55395508 C-36.3005572 145.57561907 -39.44696102 145.61506655 -42.59375 145.65625 C-43.56786331 145.65636581 -44.54197662 145.65648163 -45.54560852 145.65660095 C-52.32954737 145.7201261 -52.32954737 145.7201261 -58.07421875 149.09765625 C-61.37658346 155.04086709 -61.37658346 155.04086709 -61.07421875 171.09765625 C-15.53421875 171.09765625 30.00578125 171.09765625 76.92578125 171.09765625 C78.04873852 156.73411545 78.04873852 156.73411545 71.13110352 147.24804688 C67.93290521 145.57972955 65.23214963 145.71098465 61.640625 145.69140625 C60.94312637 145.68057007 60.24562775 145.66973389 59.5269928 145.65856934 C56.55281133 145.61279765 53.57871872 145.60121295 50.60424805 145.58642578 C48.42855726 145.57074084 46.25359674 145.53775031 44.078125 145.50390625 C42.77866943 145.49681641 41.47921387 145.48972656 40.14038086 145.48242188 C36.92578125 145.09765625 36.92578125 145.09765625 34.99047852 143.80273438 C33.25586868 141.02481301 33.74593601 138.27492216 33.92578125 135.09765625 C37.04488981 133.30489759 39.60260553 132.75474907 43.17578125 132.47265625 C44.51382813 132.36050781 44.51382813 132.36050781 45.87890625 132.24609375 C46.554375 132.19710937 47.22984375 132.148125 47.92578125 132.09765625 C47.31119896 124.02722045 46.2335279 116.08379844 44.92578125 108.09765625 C44.26578125 108.09765625 43.60578125 108.09765625 42.92578125 108.09765625 C42.91160156 107.43121094 42.89742188 106.76476562 42.8828125 106.078125 C42.53846615 99.4238645 41.02848388 94.6780615 38.0625 88.74609375 C36.64895928 85.45268961 36.28825008 82.52834276 36.1640625 78.97265625 C36.02476095 76.76363252 36.02476095 76.76363252 33.92578125 74.09765625 C33.546875 71.65234375 33.546875 71.65234375 33.36328125 68.97265625 C33.38093246 65.7284465 33.38093246 65.7284465 31.92578125 63.09765625 C31.43216933 60.95966247 30.98155164 58.81169222 30.55078125 56.66015625 C28.78130738 47.72443993 28.78130738 47.72443993 25.92578125 39.09765625 C22.91365096 37.5915911 19.81295503 37.97605294 16.51171875 38 C15.41725937 38.00212242 15.41725937 38.00212242 14.3006897 38.00428772 C11.9673454 38.00989094 9.63409661 38.0224439 7.30078125 38.03515625 C5.72005347 38.04017084 4.13932418 38.04473382 2.55859375 38.04882812 C-1.31904729 38.05986141 -5.19661682 38.07712814 -9.07421875 38.09765625 Z " fill="#74071C" transform="translate(165.07421875,69.90234375)"/>
<path d="M0 0 C4.64473982 -0.07416067 9.28913499 -0.12860615 13.93432617 -0.16479492 C15.51446536 -0.17988094 17.09456269 -0.2003525 18.67456055 -0.22631836 C20.94590585 -0.26271126 23.21669759 -0.27972762 25.48828125 -0.29296875 C26.54780754 -0.31619453 26.54780754 -0.31619453 27.6287384 -0.33988953 C32.5050621 -0.34156252 32.5050621 -0.34156252 34.89868164 1.31030273 C36.68726951 4.05444298 37.35602362 7.10642457 38.125 10.25 C38.37830078 11.21486328 38.37830078 11.21486328 38.63671875 12.19921875 C39.4636039 15.43513936 40.08675402 18.61338758 40.5546875 21.921875 C40.66721069 24.86673672 40.66721069 24.86673672 42 26 C42.28393978 28.51489516 42.4481124 31.02989582 42.62109375 33.5546875 C42.8632494 36.25068778 42.8632494 36.25068778 45 39 C45.23828125 40.875 45.23828125 40.875 45.3125 43 C45.65673874 46.93962112 46.6997851 49.82843567 48.4375 53.375 C52.24440761 61.23087293 53 68.31257638 53 77 C28.91 77 4.82 77 -20 77 C-20 70.24037461 -20 70.24037461 -19.1953125 67.01953125 C-19.02386719 66.33052734 -18.85242188 65.64152344 -18.67578125 64.93164062 C-18.49402344 64.23232422 -18.31226563 63.53300781 -18.125 62.8125 C-17.95097656 62.10158203 -17.77695313 61.39066406 -17.59765625 60.65820312 C-16.74857426 57.31533589 -15.93075156 54.89612734 -14 52 C-13.835 50.845 -13.67 49.69 -13.5 48.5 C-13 45 -13 45 -11 42 C-10.58256635 39.75354124 -10.58256635 39.75354124 -10.4375 37.375 C-10.09841828 33.09841828 -10.09841828 33.09841828 -9 32 C-8.65268264 30.42393803 -8.34685523 28.83862922 -8.0625 27.25 C-7.36494698 23.59172192 -6.38183589 20.45458972 -5 17 C-4.50348511 14.57166668 -4.06507663 12.14055987 -3.66015625 9.6953125 C-2.82307356 6.27763762 -1.4091829 3.21836148 0 0 Z " fill="#E76E28" transform="translate(156,108)"/>
<path d="M0 0 C1.05923172 0.00888245 2.11846344 0.01776489 3.20979309 0.0269165 C4.41081161 0.02721863 5.61183014 0.02752075 6.84924316 0.02783203 C8.14618607 0.04847717 9.44312897 0.06912231 10.77937317 0.09039307 C12.12029172 0.09785493 13.46122118 0.10354812 14.80215454 0.10754395 C18.32878308 0.12280507 21.85475098 0.16208957 25.38111877 0.20635986 C28.9805762 0.2473031 32.58014055 0.26555284 36.17976379 0.28570557 C43.24058069 0.3285844 50.30094939 0.39684062 57.36140442 0.48101807 C58.01403685 1.75142391 58.66268347 3.02387785 59.30964661 4.29718018 C59.67128906 5.00555527 60.03293152 5.71393036 60.40553284 6.44377136 C61.58085731 8.94873747 62.17233483 11.31559496 62.61140442 14.04351807 C62.76093567 14.91105713 62.91046692 15.77859619 63.06452942 16.67242432 C63.40836934 19.92533093 63.36140442 23.20998958 63.36140442 26.48101807 C39.27140442 26.48101807 15.18140442 26.48101807 -9.63859558 26.48101807 C-9.63859558 21.19143262 -9.10123562 17.35456701 -7.82609558 12.35601807 C-7.66045105 11.653479 -7.49480652 10.95093994 -7.32414246 10.22711182 C-4.99039967 0.90975382 -4.99039967 0.90975382 0 0 Z " fill="#FCF6F4" transform="translate(145.6385955810547,158.51898193359375)"/>
<path d="M0 0 C4.64473982 -0.07416067 9.28913499 -0.12860615 13.93432617 -0.16479492 C15.51446536 -0.17988094 17.09456269 -0.2003525 18.67456055 -0.22631836 C20.94590585 -0.26271126 23.21669759 -0.27972762 25.48828125 -0.29296875 C26.54780754 -0.31619453 26.54780754 -0.31619453 27.6287384 -0.33988953 C32.50563459 -0.34156271 32.50563459 -0.34156271 34.89648438 1.31030273 C36.69129735 4.05851083 37.3964198 7.104148 38.1875 10.25 C38.36474609 10.89324219 38.54199219 11.53648438 38.72460938 12.19921875 C39.91497826 16.76766148 40 20.10072349 40 25 C24.49 25 8.98 25 -7 25 C-6.67 23.68 -6.34 22.36 -6 21 C-5.2996309 17.53612633 -4.60204208 14.07182739 -3.9140625 10.60546875 C-2.94861382 6.79731008 -1.58074762 3.58757492 0 0 Z " fill="#FCF7F6" transform="translate(156,108)"/>
<path d="M0 0 C0.91644287 0.00523682 1.83288574 0.01047363 2.77709961 0.01586914 C3.76645508 0.0190918 4.75581055 0.02231445 5.77514648 0.02563477 C6.81606445 0.03401367 7.85698242 0.04239258 8.92944336 0.05102539 C10.49662109 0.05779297 10.49662109 0.05779297 12.09545898 0.06469727 C14.68600996 0.07652627 17.27644895 0.0930085 19.86694336 0.11352539 C20.06610352 1.05325195 20.06610352 1.05325195 20.26928711 2.01196289 C20.44588867 2.82922852 20.62249023 3.64649414 20.80444336 4.48852539 C20.9784668 5.30063477 21.15249023 6.11274414 21.33178711 6.94946289 C21.79025029 9.14298839 21.79025029 9.14298839 22.86694336 11.11352539 C23.00109808 13.78588749 22.91012876 16.43603027 22.86694336 19.11352539 C23.52694336 19.11352539 24.18694336 19.11352539 24.86694336 19.11352539 C25.36194336 22.57852539 25.36194336 22.57852539 25.86694336 26.11352539 C14.64694336 26.11352539 3.42694336 26.11352539 -8.13305664 26.11352539 C-8.79305664 28.09352539 -9.45305664 30.07352539 -10.13305664 32.11352539 C-10.46305664 32.11352539 -10.79305664 32.11352539 -11.13305664 32.11352539 C-10.38305664 25.36352539 -10.38305664 25.36352539 -8.13305664 23.11352539 C-7.409291 20.81502998 -7.409291 20.81502998 -6.87915039 18.14086914 C-6.66452148 17.15924805 -6.44989258 16.17762695 -6.22875977 15.16625977 C-6.01155273 14.13823242 -5.7943457 13.11020508 -5.57055664 12.05102539 C-5.13495307 10.01778542 -4.69631571 7.98519223 -4.25415039 5.95336914 C-4.06264404 5.04965576 -3.8711377 4.14594238 -3.67382812 3.21484375 C-2.96004678 0.44124734 -2.88501505 0.15354607 0 0 Z " fill="#E76B21" transform="translate(164.133056640625,82.886474609375)"/>
<path d="M0 0 C49.5 0 99 0 150 0 C149.67 0.99 149.34 1.98 149 3 C99.5 3 50 3 -1 3 C-0.67 2.01 -0.34 1.02 0 0 Z " fill="#DBE3E7" transform="translate(100,256)"/>
<path d="M0 0 C0.99 0.33 1.98 0.66 3 1 C3.04938149 5.37823917 3.0857104 9.75633146 3.10986328 14.13476562 C3.11993043 15.6247032 3.13358518 17.11462097 3.15087891 18.60449219 C3.17509653 20.74419028 3.18647564 22.88362753 3.1953125 25.0234375 C3.20578613 26.31169434 3.21625977 27.59995117 3.22705078 28.92724609 C3 32 3 32 1 34 C-1.65117073 34.24609566 -1.65117073 34.24609566 -5.08694458 34.24050903 C-6.38547363 34.24325836 -7.68400269 34.24600769 -9.0218811 34.24884033 C-10.46917816 34.24176154 -11.91647429 34.23449191 -13.36376953 34.22705078 C-14.88128655 34.2264869 -16.39880411 34.22680278 -17.9163208 34.22793579 C-22.04421737 34.2285112 -26.17199845 34.21672657 -30.29986811 34.20278788 C-34.61070328 34.19031176 -38.92154091 34.18911249 -43.23239136 34.18673706 C-51.39927244 34.1805131 -59.56610017 34.16408992 -67.73295772 34.14403808 C-77.02907126 34.12170754 -86.3251873 34.11069282 -95.62132096 34.10064721 C-114.74757759 34.07972446 -133.87378451 34.04453073 -153 34 C-152.67 33.34 -152.34 32.68 -152 32 C-102.17 31.67 -52.34 31.34 -1 31 C-0.67 20.77 -0.34 10.54 0 0 Z " fill="#630004" transform="translate(250,219)"/>
<path d="M0 0 C0.28875 0.598125 0.5775 1.19625 0.875 1.8125 C2.04742026 4.19327792 2.04742026 4.19327792 4 7 C6.68739224 7.46487104 6.68739224 7.46487104 9.89712524 7.39872742 C11.15358353 7.41126556 12.41004181 7.42380371 13.70457458 7.4367218 C15.10464503 7.43554762 16.50471527 7.43408841 17.90478516 7.43237305 C19.37305022 7.44138511 20.84130773 7.45171096 22.30955505 7.46325684 C26.30313057 7.49091854 30.29656371 7.5001237 34.29022264 7.50611091 C38.46098545 7.51547084 42.63164089 7.54167218 46.80233765 7.56611633 C54.70355214 7.6098508 62.60474588 7.638355 70.50604475 7.66143972 C79.49993557 7.68845426 88.49371876 7.73236798 97.48753285 7.77772844 C115.99163182 7.87067416 134.49575924 7.94230932 153 8 C153 8.33 153 8.66 153 9 C104.49 9.33 55.98 9.66 6 10 C81.24 10.495 81.24 10.495 158 11 C158 11.33 158 11.66 158 12 C137.84238811 12.11670648 117.6848446 12.20492587 97.52696514 12.25906086 C88.16768297 12.28486275 78.80861049 12.32005102 69.44946289 12.37719727 C61.29376505 12.42697168 53.13821904 12.45927657 44.98237354 12.47044247 C40.66224396 12.47697142 36.3425488 12.49235688 32.02255821 12.52865028 C27.95872547 12.56251595 23.89550723 12.57307231 19.83154678 12.56553841 C18.33793234 12.56691721 16.84429796 12.57690639 15.35080528 12.59602737 C13.31574132 12.62081023 11.28034974 12.61196455 9.24516296 12.60127258 C8.10490504 12.60588155 6.96464712 12.61049051 5.78983593 12.61523914 C3 12 3 12 1.12139606 9.70070171 C-0.27686368 6.33321843 -0.21238432 3.61053338 0 0 Z " fill="#6C0912" transform="translate(92,242)"/>
<path d="M0 0 C8.18912364 -0.02325991 16.37823326 -0.04098426 24.56738186 -0.05181217 C28.37069816 -0.0570113 32.17399171 -0.06405447 35.97729492 -0.07543945 C39.65368432 -0.08637456 43.33005196 -0.09229916 47.00645638 -0.09487724 C48.40293787 -0.09671247 49.7994183 -0.10029586 51.19589043 -0.10573006 C58.54926952 -0.13318402 65.71100028 -0.00838723 73 1 C73 1.66 73 2.32 73 3 C48.91 3 24.82 3 0 3 C0 2.01 0 1.02 0 0 Z " fill="#E45E0F" transform="translate(136,186)"/>
<path d="M0 0 C0.33 0 0.66 0 1 0 C1.33266291 6.20970773 0.45029331 10.28264895 -2 16 C-1.34 15.67 -0.68 15.34 0 15 C2.8196678 14.95295653 5.61912067 14.95673665 8.4375 15 C15.35155839 15.06066173 22.1278506 14.84766601 29 14 C29.495 17.465 29.495 17.465 30 21 C18.78 21 7.56 21 -4 21 C-4.66 22.98 -5.32 24.96 -6 27 C-6.33 27 -6.66 27 -7 27 C-6.25 20.25 -6.25 20.25 -4 18 C-3.35794362 16.07602728 -3.35794362 16.07602728 -2.9296875 13.8671875 C-2.75566406 13.06152344 -2.58164063 12.25585938 -2.40234375 11.42578125 C-2.22832031 10.58402344 -2.05429688 9.74226563 -1.875 8.875 C-1.69324219 8.02550781 -1.51148438 7.17601563 -1.32421875 6.30078125 C-0.87614984 4.20193215 -0.43720663 2.10113866 0 0 Z " fill="#E06827" transform="translate(160,88)"/>
<path d="M0 0 C0.33 0 0.66 0 1 0 C1.25 7.625 1.25 7.625 -1 11 C-3.3828125 11.51171875 -3.3828125 11.51171875 -6.125 11.6875 C-7.49011719 11.78611328 -7.49011719 11.78611328 -8.8828125 11.88671875 C-9.93082031 11.94279297 -9.93082031 11.94279297 -11 12 C-10.01 12.66 -9.02 13.32 -8 14 C-8.66 14.20625 -9.32 14.4125 -10 14.625 C-15.48432985 17.13865118 -20.59472668 20.30135244 -23 26 C-23.66 26 -24.32 26 -25 26 C-24.67 26.99 -24.34 27.98 -24 29 C-24.99 29.33 -25.98 29.66 -27 30 C-27.33 37.92 -27.66 45.84 -28 54 C-28.33 54 -28.66 54 -29 54 C-29 45.75 -29 37.5 -29 29 C-28.34 29 -27.68 29 -27 29 C-26.90203125 28.40832031 -26.8040625 27.81664062 -26.703125 27.20703125 C-25.26361786 19.59998057 -22.38548779 15.53705712 -16 11 C-15.34 11 -14.68 11 -14 11 C-14 10.34 -14 9.68 -14 9 C-10.04 8.34 -6.08 7.68 -2 7 C-1.34 4.69 -0.68 2.38 0 0 Z " fill="#802433" transform="translate(119,195)"/>
<path d="M0 0 C0.99 0 1.98 0 3 0 C3.33 1.65 3.66 3.3 4 5 C7.1660296 5.19945986 10.33281796 5.38234428 13.5 5.5625 C14.386875 5.61857422 15.27375 5.67464844 16.1875 5.73242188 C21.62265235 6.03215454 26.62094863 5.8483317 32 5 C32.495 6.485 32.495 6.485 33 8 C28.77085156 10.11457422 23.22100194 9.18585828 18.56884766 9.18530273 C16.50792873 9.18749158 14.4475431 9.20565983 12.38671875 9.22460938 C11.09378906 9.22654297 9.80085937 9.22847656 8.46875 9.23046875 C7.27701172 9.23457764 6.08527344 9.23868652 4.85742188 9.24291992 C2 9 2 9 0 7 C-0.125 3.375 -0.125 3.375 0 0 Z " fill="#64011C" transform="translate(199,206)"/>
<path d="M0 0 C1.32 0 2.64 0 4 0 C4.125 3.375 4.125 3.375 4 7 C2 9 2 9 -0.24658203 9.22705078 C-1.15778809 9.21657715 -2.06899414 9.20610352 -3.0078125 9.1953125 C-3.99394531 9.18886719 -4.98007813 9.18242187 -5.99609375 9.17578125 C-7.54490234 9.15064453 -7.54490234 9.15064453 -9.125 9.125 C-10.16527344 9.11597656 -11.20554688 9.10695312 -12.27734375 9.09765625 C-14.85179092 9.07403747 -17.42578212 9.04110149 -20 9 C-20 8.34 -20 7.68 -20 7 C-21.65 7 -23.3 7 -25 7 C-25 6.67 -25 6.34 -25 6 C-12.625 5.505 -12.625 5.505 0 5 C0 3.35 0 1.7 0 0 Z " fill="#64011C" transform="translate(155,206)"/>
<path d="M0 0 C2 3 2 3 2 5 C2.66 5 3.32 5 4 5 C4.06058594 5.63808594 4.12117187 6.27617187 4.18359375 6.93359375 C4.26738281 7.75988281 4.35117188 8.58617187 4.4375 9.4375 C4.51871094 10.26121094 4.59992188 11.08492187 4.68359375 11.93359375 C4.78930815 13.98662025 4.78930815 13.98662025 6 15 C6.40249688 17.05361548 6.74692696 19.11874338 7.0625 21.1875 C7.23910156 22.31542969 7.41570312 23.44335938 7.59765625 24.60546875 C8 28 8 28 8 34 C3.05 34.33 -1.9 34.66 -7 35 C-7.33 36.98 -7.66 38.96 -8 41 C-8.33 41 -8.66 41 -9 41 C-9.3125 37.6875 -9.3125 37.6875 -9 34 C-6.62620356 31.54707702 -4.81346124 31.05464472 -1.44140625 30.828125 C1.04762432 30.81400284 3.51469436 30.86970242 6 31 C5.7834375 30.10539062 5.566875 29.21078125 5.34375 28.2890625 C3.68034733 21.06558237 2.53869225 14.41509496 3 7 C2.34 7 1.68 7 1 7 C0.67 4.69 0.34 2.38 0 0 Z " fill="#A73326" transform="translate(207,171)"/>
<path d="M0 0 C0.94673584 0.00410889 1.89347168 0.00821777 2.86889648 0.01245117 C3.89563477 0.01438477 4.92237305 0.01631836 5.98022461 0.01831055 C7.05594727 0.03055664 8.13166992 0.04280273 9.23999023 0.05541992 C10.31958008 0.05606445 11.39916992 0.05670898 12.51147461 0.05737305 C20.53734426 0.10277394 20.53734426 0.10277394 21.67749023 1.24291992 C22.33498498 4.60177877 22.92343736 7.96454865 23.48413086 11.34057617 C24.1089359 14.8951665 24.64883067 17.19993058 26.67749023 20.24291992 C26.93509303 22.93744514 26.76649077 25.52840367 26.67749023 28.24291992 C26.34749023 28.24291992 26.01749023 28.24291992 25.67749023 28.24291992 C25.34749023 25.93291992 25.01749023 23.62291992 24.67749023 21.24291992 C24.01749023 21.24291992 23.35749023 21.24291992 22.67749023 21.24291992 C22.47833008 20.19491211 22.47833008 20.19491211 22.27514648 19.12573242 C22.09854492 18.2156543 21.92194336 17.30557617 21.73999023 16.36791992 C21.5659668 15.46299805 21.39194336 14.55807617 21.21264648 13.62573242 C20.77785322 11.24335675 20.77785322 11.24335675 19.67749023 9.24291992 C19.67749023 6.93291992 19.67749023 4.62291992 19.67749023 2.24291992 C8.78749023 2.73791992 8.78749023 2.73791992 -2.32250977 3.24291992 C-2.98250977 4.56291992 -3.64250977 5.88291992 -4.32250977 7.24291992 C-4.44750977 4.86791992 -4.44750977 4.86791992 -4.32250977 2.24291992 C-2.32250977 0.24291992 -2.32250977 0.24291992 0 0 Z " fill="#8C171D" transform="translate(164.322509765625,80.757080078125)"/>
<path d="M0 0 C0.66 0.33 1.32 0.66 2 1 C2 1.99 2 2.98 2 4 C1.34 4 0.68 4 0 4 C0.04125 4.928125 0.0825 5.85625 0.125 6.8125 C0 10 0 10 -2 13 C-2.36844508 15.8086043 -2.36844508 15.8086043 -2.4140625 18.98046875 C-2.45273438 20.14384766 -2.49140625 21.30722656 -2.53125 22.50585938 C-2.5621875 23.72080078 -2.593125 24.93574219 -2.625 26.1875 C-2.66367188 27.41404297 -2.70234375 28.64058594 -2.7421875 29.90429688 C-2.83656103 32.93604656 -2.92214549 35.96778841 -3 39 C-3.66 39 -4.32 39 -5 39 C-5.05823729 34.4583875 -5.09367675 29.9168716 -5.125 25.375 C-5.15013672 23.44720703 -5.15013672 23.44720703 -5.17578125 21.48046875 C-5.18222656 20.23652344 -5.18867187 18.99257812 -5.1953125 17.7109375 C-5.21102295 15.99849854 -5.21102295 15.99849854 -5.22705078 14.25146484 C-4.84333029 8.75642239 -2.9651593 4.58251893 0 0 Z " fill="#E0F0F2" transform="translate(92,210)"/>
<path d="M0 0 C0.33 0 0.66 0 1 0 C1.25 7.625 1.25 7.625 -1 11 C-3.3828125 11.51171875 -3.3828125 11.51171875 -6.125 11.6875 C-7.49011719 11.78611328 -7.49011719 11.78611328 -8.8828125 11.88671875 C-9.93082031 11.94279297 -9.93082031 11.94279297 -11 12 C-10.01 12.66 -9.02 13.32 -8 14 C-9.98 14.66 -11.96 15.32 -14 16 C-14 15.01 -14 14.02 -14 13 C-15.32 13.33 -16.64 13.66 -18 14 C-17.34 13.01 -16.68 12.02 -16 11 C-15.34 11 -14.68 11 -14 11 C-14 10.34 -14 9.68 -14 9 C-10.04 8.34 -6.08 7.68 -2 7 C-1.34 4.69 -0.68 2.38 0 0 Z M-17 16 C-16.01 16.33 -15.02 16.66 -14 17 C-16.475 18.485 -16.475 18.485 -19 20 C-18.34 18.68 -17.68 17.36 -17 16 Z " fill="#791124" transform="translate(119,195)"/>
<path d="M0 0 C1.37672292 2.75344584 0.74709978 4.37168032 0.1875 7.375 C0.01605469 8.33148438 -0.15539062 9.28796875 -0.33203125 10.2734375 C-0.95148304 12.80196002 -1.82406103 14.70070469 -3 17 C-3.35543427 19.33006911 -3.6913753 21.66327016 -4 24 C-4.33 24.33 -4.66 24.66 -5 25 C-5.23192865 26.51469448 -5.41215238 28.03754562 -5.5625 29.5625 C-5.64628906 30.38878906 -5.73007813 31.21507812 -5.81640625 32.06640625 C-5.87699219 32.70449219 -5.93757812 33.34257812 -6 34 C-6.33 34 -6.66 34 -7 34 C-7.02688151 32.35425434 -7.04634123 30.70838587 -7.0625 29.0625 C-7.07410156 28.14597656 -7.08570313 27.22945312 -7.09765625 26.28515625 C-7 24 -7 24 -6 23 C-5.85524067 19.1638778 -5.82338492 15.67692213 -7 12 C-5.35 11.67 -3.7 11.34 -2 11 C-2 7.7 -2 4.4 -2 1 C-1.34 0.67 -0.68 0.34 0 0 Z " fill="#8F2A37" transform="translate(152,116)"/>
<path d="M0 0 C0.99 0 1.98 0 3 0 C3 1.65 3 3.3 3 5 C-0.87684087 6.19287411 -3.91621923 7 -8 7 C-8 7.66 -8 8.32 -8 9 C-9.65 9.33 -11.3 9.66 -13 10 C-12.6465342 7.43737294 -12.22529498 6.22529498 -10.375 4.375 C-7.37458249 2.63791618 -4.34014361 1.88230208 -1 1 C-0.67 0.67 -0.34 0.34 0 0 Z " fill="#DFEEEF" transform="translate(113,197)"/>
<path d="M0 0 C0.72822464 0.0028299 1.45644928 0.00565979 2.20674133 0.00857544 C4.52992262 0.01975993 6.85271672 0.04486084 9.17578125 0.0703125 C10.75194755 0.08034456 12.3281199 0.08947002 13.90429688 0.09765625 C17.76577392 0.11969354 21.62696196 0.15421109 25.48828125 0.1953125 C24.82828125 0.5253125 24.16828125 0.8553125 23.48828125 1.1953125 C23.15828125 1.8553125 22.82828125 2.5153125 22.48828125 3.1953125 C22.48828125 2.5353125 22.48828125 1.8753125 22.48828125 1.1953125 C18.50880795 1.33345473 14.5297971 1.48210924 10.55078125 1.6328125 C9.41447266 1.67212891 8.27816406 1.71144531 7.10742188 1.75195312 C5.48803711 1.81479492 5.48803711 1.81479492 3.8359375 1.87890625 C2.83570557 1.91556396 1.83547363 1.95222168 0.80493164 1.98999023 C-1.47241063 1.94203091 -1.47241063 1.94203091 -2.51171875 3.1953125 C-4.51130239 3.23612033 -6.51217129 3.23785606 -8.51171875 3.1953125 C-8.84171875 4.5153125 -9.17171875 5.8353125 -9.51171875 7.1953125 C-10.17171875 7.1953125 -10.83171875 7.1953125 -11.51171875 7.1953125 C-11.19921875 4.8203125 -11.19921875 4.8203125 -10.51171875 2.1953125 C-6.86867011 -0.23338659 -4.20449536 -0.06144425 0 0 Z " fill="#700012" transform="translate(163.51171875,71.8046875)"/>
<path d="M0 0 C0.99 0 1.98 0 3 0 C3.51137226 6.90352555 1.86964374 11.74827614 -1 18 C-1.66 18 -2.32 18 -3 18 C-3.25 10.375 -3.25 10.375 -1 7 C-0.60612212 4.67612053 -0.26513915 2.34206251 0 0 Z " fill="#DBE4E7" transform="translate(142,90)"/>
<path d="M0 0 C0.33 0 0.66 0 1 0 C1.02689216 1.47906892 1.04634621 2.95827483 1.0625 4.4375 C1.07410156 5.26121094 1.08570313 6.08492187 1.09765625 6.93359375 C1 9 1 9 0 10 C-0.23075082 11.34747084 -0.41153063 12.70377565 -0.5625 14.0625 C-0.7790625 16.0115625 -0.7790625 16.0115625 -1 18 C-1.99 18 -2.98 18 -4 18 C-4.45164525 10.88658735 -3.32797915 6.28453206 0 0 Z " fill="#DFECEE" transform="translate(129,144)"/>
<path d="M0 0 C0.33 0 0.66 0 1 0 C1.33 2.64 1.66 5.28 2 8 C1.01 8.33 0.02 8.66 -1 9 C-1 12.3 -1 15.6 -1 19 C-1.99 19 -2.98 19 -4 19 C-4.05399736 17.54207116 -4.09279177 16.08357288 -4.125 14.625 C-4.15980469 13.40683594 -4.15980469 13.40683594 -4.1953125 12.1640625 C-4 10 -4 10 -2 8 C-1.63239269 5.67182036 -1.29758419 3.3381615 -1 1 C-0.67 0.67 -0.34 0.34 0 0 Z " fill="#640006" transform="translate(151,108)"/>
<path d="M0 0 C0.99 0 1.98 0 3 0 C3.2396943 5.63281599 2.38529821 10.54538831 1 16 C0.01 15.67 -0.98 15.34 -2 15 C-2.875 13.1875 -2.875 13.1875 -3 11 C-2.2884375 10.1028125 -2.2884375 10.1028125 -1.5625 9.1875 C0.62796151 6.12085389 0.21185848 3.67221361 0 0 Z " fill="#DBE6E8" transform="translate(122,165)"/>
<path d="M0 0 C0 1.65 0 3.3 0 5 C-1.32 5.33 -2.64 5.66 -4 6 C-4 4.68 -4 3.36 -4 2 C-1 0 -1 0 0 0 Z M-7 7 C-6.01 7.33 -5.02 7.66 -4 8 C-4 10.97 -4 13.94 -4 17 C-4.99 16.67 -5.98 16.34 -7 16 C-7 13.03 -7 10.06 -7 7 Z " fill="#DEEBED" transform="translate(151,71)"/>
<path d="M0 0 C0.99 0 1.98 0 3 0 C3 2.88157152 2.62520902 5.30734755 2.0625 8.125 C1.88847656 9.01445312 1.71445313 9.90390625 1.53515625 10.8203125 C1 13 1 13 0 14 C-0.23075082 15.34747084 -0.41153063 16.70377565 -0.5625 18.0625 C-0.706875 19.361875 -0.85125 20.66125 -1 22 C-1.33 22 -1.66 22 -2 22 C-2.02689216 20.52093108 -2.04634621 19.04172517 -2.0625 17.5625 C-2.07410156 16.73878906 -2.08570312 15.91507813 -2.09765625 15.06640625 C-2 13 -2 13 -1 12 C-0.95684856 9.32461085 -0.95319559 6.67305179 -1 4 C-1 1 -1 1 0 0 Z " fill="#C8B9C1" transform="translate(130,141)"/>
<path d="M0 0 C1.88854174 3.4298628 2.95850359 6.93894945 4.0625 10.6875 C4.96025416 14.64786772 4.96025416 14.64786772 7 18 C7.14115161 20.67058851 7.04247107 23.32432238 7 26 C6.67 26 6.34 26 6 26 C5.67 23.69 5.34 21.38 5 19 C4.34 19 3.68 19 3 19 C2.86722656 18.30132812 2.73445312 17.60265625 2.59765625 16.8828125 C2.42105469 15.97273438 2.24445313 15.06265625 2.0625 14.125 C1.88847656 13.22007813 1.71445313 12.31515625 1.53515625 11.3828125 C1.10036299 9.00043683 1.10036299 9.00043683 0 7 C-0.04022391 4.6670134 -0.04320247 2.33293334 0 0 Z " fill="#A42C1F" transform="translate(184,83)"/>
<path d="M0 0 C0.66 0.33 1.32 0.66 2 1 C2 1.99 2 2.98 2 4 C1.34 4 0.68 4 0 4 C0.061875 4.928125 0.12375 5.85625 0.1875 6.8125 C0 10 0 10 -1.375 11.875 C-3 13 -3 13 -5 13 C-4.31740614 5.76450512 -4.31740614 5.76450512 -1 3 C-0.67 2.01 -0.34 1.02 0 0 Z " fill="#DBE5E7" transform="translate(92,210)"/>
<path d="M0 0 C0.33 0 0.66 0 1 0 C1.36501901 7.42205323 1.36501901 7.42205323 -0.125 9.78125 C-2.90601747 11.58891135 -4.94566621 11.07094271 -8.1875 10.6875 C-9.81751953 10.50767578 -9.81751953 10.50767578 -11.48046875 10.32421875 C-12.31191406 10.21722656 -13.14335938 10.11023438 -14 10 C-14 9.67 -14 9.34 -14 9 C-10.04 8.34 -6.08 7.68 -2 7 C-1.34 4.69 -0.68 2.38 0 0 Z " fill="#9B5468" transform="translate(119,195)"/>
<path d="M0 0 C0.28875 0.598125 0.5775 1.19625 0.875 1.8125 C2.04742026 4.19327792 2.04742026 4.19327792 4 7 C4.1953125 9.48046875 4.1953125 9.48046875 4.125 12.1875 C4.10695312 13.08855469 4.08890625 13.98960937 4.0703125 14.91796875 C4.03550781 15.94857422 4.03550781 15.94857422 4 17 C1.0539199 11.2192462 -0.26261902 6.5654756 0 0 Z " fill="#AD7D8C" transform="translate(223,183)"/>
<path d="M0 0 C2.10827055 3.16240582 2.33817465 4.50657469 2.625 8.1875 C2.69976562 9.08855469 2.77453125 9.98960938 2.8515625 10.91796875 C2.90054688 11.60503906 2.94953125 12.29210937 3 13 C2.01 13.495 2.01 13.495 1 14 C0.67 11.03 0.34 8.06 0 5 C-0.66 5 -1.32 5 -2 5 C-1.34 3.35 -0.68 1.7 0 0 Z " fill="#DDE7EA" transform="translate(202,88)"/>
<path d="M0 0 C2.15800945 3.23701418 2.53850667 5.20175745 3.125 9 C3.29257813 10.051875 3.46015625 11.10375 3.6328125 12.1875 C4 15 4 15 4 18 C4.66 18 5.32 18 6 18 C5.67 18.66 5.34 19.32 5 20 C4.34 19.67 3.68 19.34 3 19 C2.40234375 16.75 2.40234375 16.75 1.9375 14 C1.5954649 10.69940294 1.5954649 10.69940294 0 8 C-0.14115161 5.32941149 -0.04247107 2.67567762 0 0 Z " fill="#94475A" transform="translate(195,76)"/>
<path d="M0 0 C0.86625 0.3403125 0.86625 0.3403125 1.75 0.6875 C0.76 1.1825 0.76 1.1825 -0.25 1.6875 C0.41 2.3475 1.07 3.0075 1.75 3.6875 C0.43 3.6875 -0.89 3.6875 -2.25 3.6875 C-2.25 4.3475 -2.25 5.0075 -2.25 5.6875 C-3.9 6.0175 -5.55 6.3475 -7.25 6.6875 C-6.87492618 3.96821483 -6.40781339 2.84531339 -4.4375 0.875 C-2.25 -0.3125 -2.25 -0.3125 0 0 Z " fill="#DAE4E7" transform="translate(107.25,200.3125)"/>
<path d="M0 0 C0 0.99 0 1.98 0 3 C0.99 3 1.98 3 3 3 C3 3.99 3 4.98 3 6 C-0.14737182 5.30058404 -3.02588876 4.23921302 -6 3 C-6 2.34 -6 1.68 -6 1 C-4 0 -4 0 0 0 Z " fill="#DCE8EA" transform="translate(242,200)"/>
<path d="M0 0 C0.99 0.33 1.98 0.66 3 1 C2.67 4.63 2.34 8.26 2 12 C1.34 11.67 0.68 11.34 0 11 C-0.5625 8.6875 -0.5625 8.6875 -1 6 C-1.226875 5.278125 -1.45375 4.55625 -1.6875 3.8125 C-1.790625 3.214375 -1.89375 2.61625 -2 2 C-1.34 1.34 -0.68 0.68 0 0 Z " fill="#CEC8CE" transform="translate(133,129)"/>
<path d="M0 0 C0.66 0 1.32 0 2 0 C1.63176001 6.90767437 0.76081837 12.6381142 -2 19 C-3.32963842 15.01108475 -2.38405007 11.81537164 -1.5625 7.8125 C-1.41490234 7.06291016 -1.26730469 6.31332031 -1.11523438 5.54101562 C-0.75027209 3.69265826 -0.37602589 1.84613839 0 0 Z " fill="#971E1A" transform="translate(158,88)"/>
<path d="M0 0 C2.31 0.66 4.62 1.32 7 2 C7 2.66 7 3.32 7 4 C8.11375 3.938125 9.2275 3.87625 10.375 3.8125 C12.169375 3.9053125 12.169375 3.9053125 14 4 C14.99 5.485 14.99 5.485 16 7 C13.8939014 6.74462428 11.79011246 6.47014626 9.6875 6.1875 C8.51574219 6.03667969 7.34398437 5.88585937 6.13671875 5.73046875 C3.00950015 5.00221236 1.81156689 4.59636121 0 2 C0 1.34 0 0.68 0 0 Z " fill="#AF8190" transform="translate(227,200)"/>
<path d="M0 0 C2.125 0.375 2.125 0.375 4 1 C2.60667426 4.36720387 1.0210714 5.9859524 -2 8 C-2.125 5.125 -2.125 5.125 -2 2 C-1.34 1.34 -0.68 0.68 0 0 Z " fill="#D8DFE2" transform="translate(153,67)"/>
<path d="M0 0 C0.33 0 0.66 0 1 0 C1.33 2.97 1.66 5.94 2 9 C1.01 9.66 0.02 10.32 -1 11 C-2.35439668 8.29120665 -2.06501451 5.99066732 -2 3 C-1.34 3 -0.68 3 0 3 C0 2.01 0 1.02 0 0 Z " fill="#DBE6E8" transform="translate(132,132)"/>
<path d="M0 0 C0.99 0 1.98 0 3 0 C2.88601335 1.62580966 2.75844341 3.25067157 2.625 4.875 C2.52058594 6.23238281 2.52058594 6.23238281 2.4140625 7.6171875 C2 10 2 10 0 12 C-0.19401633 10.18818595 -0.38004375 8.37551468 -0.5625 6.5625 C-0.66691406 5.55316406 -0.77132812 4.54382813 -0.87890625 3.50390625 C-0.91886719 2.67761719 -0.95882812 1.85132812 -1 1 C-0.67 0.67 -0.34 0.34 0 0 Z " fill="#C5B3BC" transform="translate(147,77)"/>
<path d="M0 0 C3 1 3 1 4 3 C4.07194869 5.88370333 4.09291708 8.74239664 4.0625 11.625 C4.05798828 12.42679688 4.05347656 13.22859375 4.04882812 14.0546875 C4.03703168 16.03649006 4.01909605 18.01825433 4 20 C3.67 20 3.34 20 3 20 C2.92652344 18.46279297 2.92652344 18.46279297 2.8515625 16.89453125 C2.77648929 15.5338294 2.70094345 14.17315356 2.625 12.8125 C2.57859375 11.80219727 2.57859375 11.80219727 2.53125 10.77148438 C2.29896078 6.80321025 1.71612524 3.59270121 0 0 Z " fill="#89141D" transform="translate(240,221)"/>
<path d="M0 0 C0.99 0.33 1.98 0.66 3 1 C3 3.31 3 5.62 3 8 C2.01 8.33 1.02 8.66 0 9 C0 6.03 0 3.06 0 0 Z " fill="#DCE8EA" transform="translate(219,159)"/>
<path d="M0 0 C-0.33 0.66 -0.66 1.32 -1 2 C-2.65 2 -4.3 2 -6 2 C-6.33 3.32 -6.66 4.64 -7 6 C-7.66 6 -8.32 6 -9 6 C-8.625 3.5625 -8.625 3.5625 -8 1 C-5.29120665 -0.35439668 -2.99066732 -0.06501451 0 0 Z " fill="#6A0007" transform="translate(161,73)"/>
<path d="M0 0 C2 2 2 2 2.125 5.125 C2.08375 6.07375 2.0425 7.0225 2 8 C1.01 8 0.02 8 -1 8 C-1.04241723 5.66705225 -1.04092937 3.33297433 -1 1 C-0.67 0.67 -0.34 0.34 0 0 Z " fill="#640005" transform="translate(198,123)"/>
<path d="M0 0 C2 2 2 2 2.125 4.625 C2.08375 5.40875 2.0425 6.1925 2 7 C1.01 7.33 0.02 7.66 -1 8 C-1.04241723 5.66705225 -1.04092937 3.33297433 -1 1 C-0.67 0.67 -0.34 0.34 0 0 Z " fill="#DEEBED" transform="translate(214,136)"/>
<path d="M0 0 C0.66 0 1.32 0 2 0 C2 2.64 2 5.28 2 8 C1.01 8 0.02 8 -1 8 C-1.04241723 5.66705225 -1.04092937 3.33297433 -1 1 C-0.67 0.67 -0.34 0.34 0 0 Z " fill="#F47822" transform="translate(184,94)"/>
<path d="M0 0 C0.99 0 1.98 0 3 0 C3 2.31 3 4.62 3 7 C2.01 6.67 1.02 6.34 0 6 C0 4.02 0 2.04 0 0 Z " fill="#DDEAEC" transform="translate(133,123)"/>
<path d="M0 0 C0.66 0 1.32 0 2 0 C2 1.98 2 3.96 2 6 C1.01 6 0.02 6 -1 6 C-1.042721 4.33388095 -1.04063832 2.66617115 -1 1 C-0.67 0.67 -0.34 0.34 0 0 Z " fill="#6A0208" transform="translate(223,193)"/>
<path d="M0 0 C0.99 0 1.98 0 3 0 C3 1.98 3 3.96 3 6 C2.01 6 1.02 6 0 6 C0 4.02 0 2.04 0 0 Z " fill="#F67922" transform="translate(197,147)"/>
<path d="M0 0 C0.66 0 1.32 0 2 0 C2.33 1.98 2.66 3.96 3 6 C2.01 6.33 1.02 6.66 0 7 C0 4.69 0 2.38 0 0 Z " fill="#630005" transform="translate(194,113)"/>
<path d="M0 0 C0.99 0 1.98 0 3 0 C2.71890887 1.64767247 2.42481474 3.29313145 2.125 4.9375 C1.96257812 5.85402344 1.80015625 6.77054688 1.6328125 7.71484375 C1.42398438 8.46894531 1.21515625 9.22304687 1 10 C0.01 10.495 0.01 10.495 -1 11 C-0.67 7.37 -0.34 3.74 0 0 Z " fill="#9A2929" transform="translate(142,150)"/>
<path d="M0 0 C0.99 0 1.98 0 3 0 C2.67 2.31 2.34 4.62 2 7 C1.34 6.67 0.68 6.34 0 6 C0 4.02 0 2.04 0 0 Z " fill="#DEEBEE" transform="translate(142,90)"/>
</svg>
