<?xml version="1.0" encoding="UTF-8"?>
<svg version="1.1" xmlns="http://www.w3.org/2000/svg" width="345" height="394">
<path d="M0 0 C0.84962311 0.00304138 1.69924622 0.00608276 2.57461548 0.00921631 C15.98831381 0.080001 28.73710735 0.96828143 41.75 4.4375 C42.57870605 4.64648926 43.40741211 4.85547852 44.26123047 5.07080078 C88.26933016 16.3322179 126.0785202 45.17212158 149.44384766 84.02124023 C157.31470965 97.50691389 163.24747602 111.56202226 167.5625 126.5625 C167.74546631 127.19309326 167.92843262 127.82368652 168.11694336 128.47338867 C172.02639291 143.08543124 173.30274373 157.62410654 173.1875 172.6875 C173.18293793 173.96193466 173.18293793 173.96193466 173.17828369 175.26211548 C173.107499 188.67581381 172.21921857 201.42460735 168.75 214.4375 C168.43651611 215.68055908 168.43651611 215.68055908 168.11669922 216.94873047 C156.85641859 260.95238894 128.01619929 298.77434645 89.16479492 322.1315918 C76.55470702 329.49431193 63.36667797 335.5253891 49.1875 339.125 C41.50592028 341.58829139 37.36098861 348.23000379 32.75 354.4375 C31.91192112 355.52320771 31.07084407 356.60660868 30.2265625 357.6875 C28.56407602 359.82166717 26.91662116 361.96608099 25.28125 364.12109375 C22.64312389 367.5908479 19.9499683 371.01577206 17.25 374.4375 C12.02824316 381.06214465 6.87845748 387.74046876 1.75 394.4375 C-1.70262396 393.28662535 -2.24094513 392.46545908 -4.33203125 389.59765625 C-4.92733643 388.79078369 -5.5226416 387.98391113 -6.13598633 387.15258789 C-6.77173584 386.27723389 -7.40748535 385.40187988 -8.0625 384.5 C-9.415271 382.6656366 -10.76946913 380.8323249 -12.125 379 C-12.81207031 378.06929688 -13.49914062 377.13859375 -14.20703125 376.1796875 C-17.83122158 371.31509551 -21.56421992 366.53619307 -25.31835938 361.77148438 C-27.96536113 358.40614006 -30.56600798 355.03260824 -33.03125 351.53125 C-33.46268311 350.93111084 -33.89411621 350.33097168 -34.33862305 349.71264648 C-35.46704771 348.13357227 -36.57252704 346.53816789 -37.67578125 344.94140625 C-41.17740267 341.53542851 -44.62752989 340.72525186 -49.25 339.4375 C-50.7453939 338.93643666 -52.23641624 338.4221277 -53.72265625 337.89453125 C-54.46870117 337.62979004 -55.21474609 337.36504883 -55.98339844 337.09228516 C-65.798991 333.54262118 -75.09340747 329.44545176 -84.25 324.4375 C-84.87326172 324.10024902 -85.49652344 323.76299805 -86.13867188 323.41552734 C-125.3486865 301.92346157 -153.74298187 264.02591945 -166.42797852 221.51831055 C-166.63737061 220.79039307 -166.8467627 220.06247559 -167.0625 219.3125 C-167.24546631 218.68190674 -167.42843262 218.05131348 -167.61694336 217.40161133 C-171.52639291 202.78956876 -172.80274373 188.25089346 -172.6875 173.1875 C-172.68445862 172.33787689 -172.68141724 171.48825378 -172.67828369 170.61288452 C-172.607499 157.19918619 -171.71921857 144.45039265 -168.25 131.4375 C-168.04101074 130.60879395 -167.83202148 129.78008789 -167.61669922 128.92626953 C-156.3552821 84.91816984 -127.51537842 47.1089798 -88.66625977 23.74365234 C-75.18058611 15.87279035 -61.12547774 9.94002398 -46.125 5.625 C-45.49440674 5.44203369 -44.86381348 5.25906738 -44.21411133 5.07055664 C-29.60206876 1.16110709 -15.06339346 -0.11524373 0 0 Z " fill="#FDFCFD" transform="translate(172.25,-0.4375)"/>
<path d="M0 0 C0.82281967 0.00202423 1.64563934 0.00404846 2.49339294 0.00613403 C3.33865036 0.00517731 4.18390778 0.00422058 5.05477905 0.00323486 C6.85129368 0.00255252 8.64781075 0.00441055 10.44432068 0.00857544 C13.17232452 0.01387675 15.9001602 0.00865649 18.62815857 0.00222778 C20.37490372 0.00288946 22.12164877 0.00417248 23.86839294 0.00613403 C24.677043 0.0041098 25.48569305 0.00208557 26.31884766 0 C31.34552342 0.02039299 36.16903108 0.42347183 41.14573669 1.13894653 C41.14573669 1.79894653 41.14573669 2.45894653 41.14573669 3.13894653 C42.13126526 3.18523193 42.13126526 3.18523193 43.13670349 3.23245239 C50.50174466 3.72111888 56.99231777 5.31194162 63.95823669 7.70144653 C65.00705017 8.05642212 66.05586365 8.41139771 67.13645935 8.77713013 C75.49442456 11.70596767 82.71916918 15.33643287 90.14573669 20.13894653 C92.05902311 21.29041525 93.97540789 22.43676131 95.89573669 23.57644653 C96.67433044 24.04953247 97.45292419 24.52261841 98.25511169 25.01004028 C100.13745528 26.16587791 100.13745528 26.16587791 102.14573669 27.13894653 C102.14573669 27.79894653 102.14573669 28.45894653 102.14573669 29.13894653 C102.70390076 29.38902466 103.26206482 29.63910278 103.83714294 29.89675903 C122.72937291 40.06212135 142.87715297 62.50106019 151.14573669 82.13894653 C151.14573669 83.12894653 151.14573669 84.11894653 151.14573669 85.13894653 C151.80573669 85.13894653 152.46573669 85.13894653 153.14573669 85.13894653 C153.46026794 85.97296997 153.77479919 86.80699341 154.09886169 87.66629028 C154.74081482 89.35431763 154.74081482 89.35431763 155.39573669 91.07644653 C155.81339294 92.17859497 156.23104919 93.28074341 156.66136169 94.41629028 C157.69049542 97.08313889 158.85875429 99.64654848 160.08323669 102.22879028 C171.49942977 127.81801965 171.66359718 157.99144557 167.14573669 185.13894653 C166.48573669 185.13894653 165.82573669 185.13894653 165.14573669 185.13894653 C165.10835388 185.74480591 165.07097107 186.35066528 165.03245544 186.97488403 C164.32246564 196.02377371 161.88528458 203.88077828 158.14573669 212.13894653 C155.9846222 217.09150059 154.01306971 222.07047122 152.14573669 227.13894653 C151.48573669 227.13894653 150.82573669 227.13894653 150.14573669 227.13894653 C149.92788513 227.95105591 149.71003357 228.76316528 149.48558044 229.59988403 C147.78358182 234.09554222 145.38554285 237.79066777 142.70823669 241.76394653 C142.17400085 242.55937866 141.63976501 243.35481079 141.08934021 244.17434692 C136.32082644 251.13115608 131.07599701 257.14861122 125.14573669 263.13894653 C124.28593201 264.05933716 123.42612732 264.97972778 122.54026794 265.92800903 C112.43006068 276.5310329 100.27925242 285.58337565 87.14573669 292.13894653 C86.48573669 292.13894653 85.82573669 292.13894653 85.14573669 292.13894653 C85.14573669 292.79894653 85.14573669 293.45894653 85.14573669 294.13894653 C81.97966138 295.41125651 78.81276872 296.68152007 75.64573669 297.95144653 C74.75886169 298.30787231 73.87198669 298.6642981 72.95823669 299.03152466 C70.35667865 300.07406079 67.75245746 301.10939071 65.14573669 302.13894653 C64.41403259 302.42809937 63.68232849 302.7172522 62.92845154 303.01516724 C49.62452614 308.15177495 34.37396648 310.13894653 20.14573669 310.13894653 C20.14573669 284.72894653 20.14573669 259.31894653 20.14573669 233.13894653 C27.85819763 233.0783606 35.57065857 233.01777466 43.51683044 232.95535278 C48.38858114 232.91488125 53.26032591 232.8741197 58.13206482 232.83230591 C65.87301174 232.76589377 73.61395741 232.70058427 81.35496521 232.64163208 C87.59247992 232.5940629 93.82993766 232.54172308 100.06738472 232.48600578 C102.45292311 232.46554837 104.83847714 232.44684104 107.22404289 232.42987251 C110.55273498 232.40590321 113.88131826 232.3758388 117.20994568 232.3442688 C118.7053463 232.3356356 118.7053463 232.3356356 120.23095703 232.326828 C121.58349075 232.31214478 121.58349075 232.31214478 122.96334839 232.29716492 C123.75148139 232.29071237 124.53961439 232.28425982 125.35163021 232.27761173 C127.16867003 232.33285151 127.16867003 232.33285151 128.14573669 231.13894653 C128.24200783 229.40535055 128.26761237 227.66780007 128.26599121 225.93153381 C128.26736588 224.80266251 128.26874054 223.6737912 128.27015686 222.51071167 C128.26656158 221.26130798 128.26296631 220.0119043 128.25926208 218.72463989 C128.25948112 216.76395317 128.25948112 216.76395317 128.25970459 214.76365662 C128.25999256 211.16877555 128.25409597 207.57392756 128.24713063 203.97905421 C128.24089695 200.22608401 128.24029328 196.47311313 128.23910522 192.72013855 C128.23599195 185.60863827 128.22777862 178.49715329 128.21775573 171.38565975 C128.20659447 163.29147587 128.20108412 155.19729127 128.1960603 147.10310161 C128.185596 130.44837428 128.16799664 113.79366236 128.14573669 97.13894653 C98.86211989 97.11615643 69.57850371 97.0984485 40.29487986 97.0878812 C36.84127548 97.08663043 33.38767112 97.08533611 29.93406677 97.08401489 C29.24648769 97.08375258 28.5589086 97.08349027 27.85049378 97.08322001 C16.70287501 97.07886327 5.55526137 97.0709757 -5.59235435 97.06179374 C-17.02243469 97.05245732 -28.45251086 97.04696585 -39.88259512 97.04485804 C-46.30622554 97.0435505 -52.7298443 97.04046192 -59.15347099 97.03321648 C-65.19192624 97.02646027 -71.23036496 97.02432875 -77.26882362 97.02583885 C-79.49212102 97.02556234 -81.71541893 97.02355487 -83.93871307 97.01974106 C-86.9599359 97.01481004 -89.98109523 97.01594605 -93.00231934 97.01869202 C-93.8943246 97.01577918 -94.78632987 97.01286633 -95.7053656 97.00986522 C-99.59179243 96.63395092 -99.59179243 96.63395092 -102.85426331 98.13894653 C-102.95266037 99.84488745 -102.98058359 101.55492624 -102.98124695 103.26370239 C-102.98406677 104.37430023 -102.9868866 105.48489807 -102.98979187 106.62915039 C-102.98776764 107.85828156 -102.98574341 109.08741272 -102.98365784 110.35379028 C-102.98541016 111.63980133 -102.98716248 112.92581238 -102.9889679 114.25079346 C-102.99354184 117.78788817 -102.99175283 121.32495385 -102.98858881 124.8620491 C-102.98606501 128.55583019 -102.9884028 132.24960871 -102.98997498 135.94338989 C-102.99179661 142.1475774 -102.98939052 148.35175302 -102.9846344 154.55593872 C-102.97919179 161.73878017 -102.98095445 168.92159325 -102.9864608 176.10443401 C-102.99099211 182.26068459 -102.9916424 188.41692659 -102.98902214 194.57317829 C-102.98745945 198.25476357 -102.98726535 201.93633549 -102.99055862 205.61791992 C-102.99397143 209.7199981 -102.98924733 213.822027 -102.98365784 217.92410278 C-102.98568207 219.15323395 -102.9877063 220.38236511 -102.98979187 221.64874268 C-102.98697205 222.75934052 -102.98415222 223.86993835 -102.98124695 225.01419067 C-102.98086992 225.98538345 -102.9804929 226.95657623 -102.98010445 227.9571991 C-103.09823953 230.11670894 -103.09823953 230.11670894 -101.85426331 231.13894653 C-100.46328508 231.24645424 -99.06695488 231.28574321 -97.671875 231.29716492 C-96.77018585 231.30695374 -95.8684967 231.31674255 -94.93948364 231.326828 C-93.9425499 231.33258347 -92.94561615 231.33833893 -91.91847229 231.3442688 C-90.87469421 231.3541684 -89.83091614 231.36406799 -88.75550842 231.37426758 C-85.28714812 231.40598908 -81.8187741 231.43068194 -78.35035706 231.45535278 C-75.95281609 231.47591312 -73.55527883 231.49690934 -71.15774536 231.51832581 C-64.83334847 231.57364152 -58.50891836 231.62300876 -52.1844635 231.6711731 C-44.6037099 231.73012844 -37.0230173 231.79640844 -29.44231415 231.86147308 C-17.91300097 231.95960202 -6.38364951 232.04837639 5.14573669 232.13894653 C5.14573669 258.20894653 5.14573669 284.27894653 5.14573669 311.13894653 C-11.11096772 310.05516624 -11.11096772 310.05516624 -17.20973206 307.95144653 C-20.4936048 306.94251665 -23.78614659 306.37169785 -27.16676331 305.76394653 C-42.87282252 302.69512735 -57.1084091 295.11296274 -70.85426331 287.13894653 C-70.85426331 286.47894653 -70.85426331 285.81894653 -70.85426331 285.13894653 C-71.38793518 285.06675903 -71.92160706 284.99457153 -72.47145081 284.92019653 C-75.80283587 283.82793913 -78.2665715 281.78810725 -80.97926331 279.63894653 C-81.84031677 278.96400146 -81.84031677 278.96400146 -82.71876526 278.27542114 C-101.88525595 263.1047242 -115.45680068 245.50881035 -126.81910706 224.07449341 C-127.65915641 222.50375961 -128.5330108 220.95113841 -129.41676331 219.40457153 C-133.8039429 211.45280851 -137.85426331 200.26343495 -137.85426331 191.13894653 C-138.51426331 191.13894653 -139.17426331 191.13894653 -139.85426331 191.13894653 C-143.40425852 174.55117126 -143.38549821 158.01106331 -142.85426331 141.13894653 C-142.82767639 140.26963501 -142.80108948 139.40032349 -142.7736969 138.50466919 C-142.05607666 121.76387713 -136.09123515 104.15611883 -128.85426331 89.13894653 C-128.55632874 88.52035767 -128.25839417 87.9017688 -127.95143127 87.26443481 C-121.38199944 73.96993171 -113.26816039 62.30933612 -103.08082581 51.54129028 C-100.81534786 49.1567529 -100.81534786 49.1567529 -98.76832581 46.52175903 C-89.916157 35.50171216 -74.51383163 24.42446647 -61.85426331 18.13894653 C-60.53426331 18.13894653 -59.21426331 18.13894653 -57.85426331 18.13894653 C-57.85426331 17.47894653 -57.85426331 16.81894653 -57.85426331 16.13894653 C-56.27217784 15.40707629 -54.68849036 14.67866941 -53.10426331 13.95144653 C-52.22254456 13.54539185 -51.34082581 13.13933716 -50.43238831 12.72097778 C-49.25160706 12.19890747 -48.07082581 11.67683716 -46.85426331 11.13894653 C-45.59102234 10.54750854 -45.59102234 10.54750854 -44.30226135 9.94412231 C-36.39371834 6.39939209 -28.70283782 4.72145057 -20.16676331 3.38894653 C-17.66234266 2.98063086 -15.15840377 2.56934511 -12.65504456 2.15457153 C-11.56361145 1.98215942 -10.47217834 1.80974731 -9.34767151 1.6321106 C-1.11945028 0.0046743 -1.11945028 0.0046743 0 0 Z " fill="#8C629E" transform="translate(159.85426330566406,15.861053466796875)"/>
<path d="M0 0 C69.63 0 139.26 0 211 0 C211 37.62 211 75.24 211 114 C141.37 114 71.74 114 0 114 C0 76.38 0 38.76 0 0 Z " fill="#454544" transform="translate(67,123)"/>
<path d="M0 0 C6.93 0 13.86 0 21 0 C21.39832031 1.67707031 21.79664063 3.35414063 22.20703125 5.08203125 C22.74209471 7.32554296 23.2772562 9.5690313 23.8125 11.8125 C24.20405273 13.46282227 24.20405273 13.46282227 24.60351562 15.14648438 C26.27355463 22.13590689 28.06153879 29.08015438 30 36 C32.38130271 29.13414819 34.32570379 22.22645526 36.125 15.1875 C36.38925781 14.16462891 36.65351563 13.14175781 36.92578125 12.08789062 C37.96456497 8.06194459 38.99158135 4.03367462 40 0 C46.93 0 53.86 0 61 0 C61 22.11 61 44.22 61 67 C56.71 67 52.42 67 48 67 C47.67 50.5 47.34 34 47 17 C45.68 22.61 44.36 28.22 43 34 C41 41 41 41 40.01171875 44.359375 C38.61974866 49.36831758 37.45062435 54.42155693 36.30664062 59.4921875 C35.09809923 64.80380155 35.09809923 64.80380155 34 67 C31.03 67 28.06 67 25 67 C20.71 50.17 16.42 33.34 12 16 C11.67 32.83 11.34 49.66 11 67 C7.37 67 3.74 67 0 67 C0 44.89 0 22.78 0 0 Z " fill="#FAC202" transform="translate(141,150)"/>
<path d="M0 0 C32.74772727 0 32.74772727 0 37.86328125 4.71875 C38.34152344 5.3065625 38.81976563 5.894375 39.3125 6.5 C40.04919922 7.38171875 40.04919922 7.38171875 40.80078125 8.28125 C44.74465297 13.93370458 43.6837349 23.00422815 42.57421875 29.48828125 C40.89716546 34.78694655 37.48761673 37.87488859 33 41 C29.69428083 42.65285959 26.004622 42.1005118 22.375 42.0625 C19.61125 42.041875 16.8475 42.02125 14 42 C14 50.25 14 58.5 14 67 C9.38 67 4.76 67 0 67 C0 44.89 0 22.78 0 0 Z " fill="#FAC202" transform="translate(87,150)"/>
<path d="M0 0 C4.29 0 8.58 0 13 0 C15.12016963 6.04730202 16.76029883 11.96837116 18 18.25 C18.33885721 19.91296175 18.67870575 21.57572179 19.01953125 23.23828125 C19.18404785 24.04475098 19.34856445 24.8512207 19.51806641 25.68212891 C20.86363492 32.15367271 22.37908978 38.59210258 24 45 C26.93880187 34.91894603 29.60550437 24.86912354 31.56738281 14.54760742 C32.56938639 9.44483201 34.06178428 4.82911375 36 0 C39.3 0 42.6 0 46 0 C45.38479727 7.77922027 43.61159594 15.03309953 41.62109375 22.56640625 C41.12380516 24.47836037 41.12380516 24.47836037 40.61647034 26.42893982 C39.74247586 29.78894921 38.86102065 33.14695574 37.97790527 36.50457764 C37.07508627 39.94261111 36.17946393 43.38251785 35.28320312 46.82226562 C33.52910529 53.5500125 31.76644109 60.27548354 30 67 C25.38 67 20.76 67 16 67 C13.90740019 59.00422344 11.81997556 51.00715024 9.74157715 43.00767231 C8.77624578 39.29308464 7.80867669 35.57911038 6.8359375 31.86645508 C5.89693691 28.28223099 4.96388812 24.69650549 4.03491211 21.10967064 C3.67979617 19.74282099 3.32255425 18.37652183 2.96313477 17.0107975 C2.45934875 15.09502162 1.96387667 13.17706531 1.46875 11.2590332 C1.18451172 10.16871292 0.90027344 9.07839264 0.60742188 7.95503235 C0 5 0 5 0 0 Z " fill="#FBC301" transform="translate(212,150)"/>
<path d="M0 0 C11.88452656 -0.4295612 11.88452656 -0.4295612 16 3 C17.56977574 4.56977574 17.20737081 6.14196387 17.25 8.3125 C17.21636031 11.33526605 17.11296743 12.78482394 15.6875 15.5 C11.41344923 19.29915624 5.33532557 18.06276854 0 18 C0 12.06 0 6.12 0 0 Z " fill="#484641" transform="translate(100,162)"/>
<path d="M0 0 C0.82281967 0.00202423 1.64563934 0.00404846 2.49339294 0.00613403 C3.33865036 0.00517731 4.18390778 0.00422058 5.05477905 0.00323486 C6.85129368 0.00255252 8.64781075 0.00441055 10.44432068 0.00857544 C13.17232452 0.01387675 15.9001602 0.00865649 18.62815857 0.00222778 C20.37490372 0.00288946 22.12164877 0.00417248 23.86839294 0.00613403 C24.677043 0.0041098 25.48569305 0.00208557 26.31884766 0 C31.34552342 0.02039299 36.16903108 0.42347183 41.14573669 1.13894653 C41.14573669 1.79894653 41.14573669 2.45894653 41.14573669 3.13894653 C41.76577576 3.15312622 42.38581482 3.16730591 43.02464294 3.18191528 C51.64518504 3.64619484 59.11301735 6.20120437 67.14573669 9.13894653 C67.14573669 9.46894653 67.14573669 9.79894653 67.14573669 10.13894653 C60.45668205 9.41961361 54.23022192 7.93608016 47.73167419 6.17410278 C36.5876935 3.49141107 25.55681753 2.83463716 14.15525818 2.93313599 C11.92215381 2.95174726 9.68945853 2.95364242 7.45628357 2.95339966 C0.1951734 2.77681775 0.1951734 2.77681775 -6.85426331 4.13894653 C-9.42061191 4.36613149 -11.97104438 4.55502837 -14.54176331 4.70144653 C-15.5946051 4.76622192 -15.5946051 4.76622192 -16.66871643 4.83230591 C-18.39701537 4.93812013 -20.1256144 5.03901234 -21.85426331 5.13894653 C-18.57314956 2.95153737 -16.58591368 2.62938797 -12.72926331 2.07644653 C-8.03378845 1.39520857 -4.75481828 0.0198539 0 0 Z " fill="#C0AACA" transform="translate(159.85426330566406,15.861053466796875)"/>
<path d="M0 0 C-1.66342837 1.66342837 -3.7825709 1.36048097 -6.0625 1.5625 C-6.98160156 1.64628906 -7.90070313 1.73007812 -8.84765625 1.81640625 C-9.55792969 1.87699219 -10.26820312 1.93757813 -11 2 C-11 2.66 -11 3.32 -11 4 C-15.29385993 7.4887612 -18.71870895 7.26854022 -24 7 C-21.08386917 5.05591278 -18.35175994 3.78533613 -15.125 2.4375 C-13.58199219 1.78587891 -13.58199219 1.78587891 -12.0078125 1.12109375 C-7.69885523 -0.48497214 -4.44060334 -1.48020111 0 0 Z " fill="#BDA6C8" transform="translate(134,22)"/>
<path d="M0 0 C5.68046944 0.94055703 9.72424312 1.86217076 14 6 C12.35 6 10.7 6 9 6 C8.67 5.01 8.34 4.02 8 3 C7.05125 3.061875 6.1025 3.12375 5.125 3.1875 C4.09375 3.125625 3.0625 3.06375 2 3 C1.34 2.01 0.68 1.02 0 0 Z " fill="#AF92BC" transform="translate(227,26)"/>
</svg>
