<?xml version="1.0" encoding="UTF-8"?>
<svg version="1.1" xmlns="http://www.w3.org/2000/svg" width="446" height="585">
<path d="M0 0 C2.08941349 0.02535453 4.17899085 0.0391551 6.26855469 0.04296875 C21.09385964 0.08703267 33.81036007 1.79086072 47.89160156 6.38720703 C50.81114448 7.26300411 53.72962315 7.74439391 56.74560547 8.16210938 C61.42197208 8.81972343 65.36795361 10.15876065 69.69091797 12.03710938 C71.97665411 13.00270088 74.24849807 13.75230678 76.62060547 14.47460938 C80.58267802 15.76297562 83.99943162 17.55196694 87.59326172 19.64257812 C91.39999518 21.79630847 95.33377871 23.68525633 99.26123047 25.60742188 C101.93960895 26.97653713 104.48326313 28.48463091 107.05810547 30.03710938 C109.02367772 31.01617283 111.00508603 31.94991686 112.99560547 32.87695312 C115.60106362 34.34252334 117.74335498 36.14084485 120.05810547 38.03710938 C122.79683572 40.15600266 125.5542714 42.25039754 128.30810547 44.34960938 C129.8224945 45.50837714 131.33681798 46.66723059 132.85107422 47.82617188 C135.2834654 49.68607642 137.7221023 51.53531528 140.17138672 53.37304688 C140.97962891 53.9840625 141.78787109 54.59507813 142.62060547 55.22460938 C143.30251953 55.73378906 143.98443359 56.24296875 144.68701172 56.76757812 C145.13947266 57.18652344 145.59193359 57.60546875 146.05810547 58.03710938 C146.05810547 58.69710937 146.05810547 59.35710938 146.05810547 60.03710938 C146.80060547 60.26398437 147.54310547 60.49085937 148.30810547 60.72460938 C151.62966647 62.30989985 152.82997597 64.13378913 155.05810547 67.03710938 C155.94498047 67.73835938 156.83185547 68.43960938 157.74560547 69.16210938 C162.59744837 73.05828625 166.23669877 78.1701658 170.05810547 83.03710938 C170.85571289 84.04366577 170.85571289 84.04366577 171.66943359 85.07055664 C175.87157992 90.41010411 179.84051695 95.87160051 183.68310547 101.47460938 C184.50294922 102.64733398 184.50294922 102.64733398 185.33935547 103.84375 C189.12364632 109.35269971 192.18559145 115.00951763 195.05810547 121.03710938 C195.76275743 122.43480477 196.47046031 123.83097252 197.18310547 125.22460938 C198.95847839 128.76825373 200.49676083 132.39397188 202.05810547 136.03710938 C202.72143793 137.28888192 203.38828039 138.538799 204.05810547 139.78710938 C206.1102332 143.81363273 207.17891998 147.89743949 208.27294922 152.26757812 C209.02066276 154.90503534 209.98631888 157.23420156 211.12060547 159.72460938 C213.31088139 165.05565833 213.89809852 170.35985915 214.48779297 176.04882812 C214.89742844 179.90663041 215.45880742 183.72501278 216.06591797 187.55664062 C219.44646012 209.0156698 220.19489505 227.55507894 215.5234375 248.80322266 C214.92045931 251.69789758 214.51708011 254.60781618 214.12060547 257.53710938 C213.26134231 262.90560308 211.40707058 267.64571942 209.35107422 272.66210938 C207.99333725 276.20617204 206.97777748 279.74740432 205.99560547 283.41210938 C204.06092838 290.45930666 204.06092838 290.45930666 202.05810547 293.72460938 C200.27249937 296.68201947 199.19016009 299.23764069 198.05810547 302.47460938 C196.39696818 307.22442382 194.40707797 311.59608324 192.05810547 316.03710938 C189.92794044 320.19758795 187.90056265 324.36544164 186.05810547 328.66210938 C184.40830109 332.42852324 182.34205413 335.61118638 180.05810547 339.03710938 C178.49914885 342.04807572 177.00302444 345.08431881 175.52294922 348.13476562 C174.14924955 350.85652258 172.63525868 353.43006649 171.05810547 356.03710938 C170.43923782 357.27989665 169.83404228 358.52962797 169.24560547 359.78710938 C166.9300518 364.48919153 164.03252162 368.73182239 161.05810547 373.03710938 C159.09720087 375.8944275 157.26598993 378.61144119 155.74560547 381.72460938 C152.21803903 388.64909164 147.91079055 394.98375995 143.05810547 401.03710938 C142.08711846 402.72015352 141.11799188 404.40446527 140.17529297 406.10351562 C137.9978689 409.87213421 135.49568173 413.43373577 133.05810547 417.03710938 C127.66736539 425.02870429 127.66736539 425.02870429 122.49560547 433.16210938 C117.75935525 440.81538788 112.35358936 448.04199341 107.11328125 455.35400391 C104.69993367 458.72469749 102.3036624 462.10646985 99.92529297 465.50195312 C99.39637451 466.25597412 98.86745605 467.00999512 98.32250977 467.78686523 C97.29832833 469.24837326 96.27623314 470.7113463 95.2565918 472.17602539 C92.36168151 476.30367063 89.31269162 480.18771955 86.05810547 484.03710938 C84.71478893 486.03041779 83.38216535 488.03095803 82.05810547 490.03710938 C79.04340667 494.1889314 75.90398003 498.2440975 72.74560547 502.28710938 C69.97204791 505.83824267 67.25578207 509.42799365 64.55810547 513.03710938 C61.31760424 517.37244887 58.03590195 521.66869733 54.69091797 525.92382812 C52.49550667 528.76525758 50.4014081 531.67789225 48.31982422 534.60351562 C47.90345703 535.07660156 47.48708984 535.5496875 47.05810547 536.03710938 C46.39810547 536.03710938 45.73810547 536.03710938 45.05810547 536.03710938 C44.82220703 536.73449219 44.58630859 537.431875 44.34326172 538.15039062 C42.8270267 541.55615864 40.78776393 544.31825496 38.49560547 547.22460938 C38.0530542 547.79268311 37.61050293 548.36075684 37.15454102 548.94604492 C33.02281626 554.19262109 28.58087513 559.12619157 24.05810547 564.03710938 C22.82371644 565.42832651 21.59421324 566.82390048 20.37060547 568.22460938 C19.52949219 569.18173828 19.52949219 569.18173828 18.67138672 570.15820312 C17.60379434 571.40157343 16.55881332 572.66475427 15.53857422 573.94726562 C10.52511956 580.17770664 5.03568556 583.44159336 -2.94189453 585.03710938 C-11.15506475 585.73898449 -17.52233354 584.83975781 -24.50439453 580.41210938 C-27.29790101 577.69023127 -29.57509259 574.77134811 -31.92236328 571.66210938 C-34.18544967 568.7205348 -36.55231328 565.8756368 -38.94189453 563.03710938 C-57.94189453 540.36406133 -57.94189453 540.36406133 -57.94189453 536.03710938 C-58.52068359 535.8128125 -59.09947266 535.58851563 -59.69580078 535.35742188 C-62.59567966 533.65279742 -63.94799822 531.65813422 -65.87939453 528.91210938 C-66.57935547 527.92082031 -67.27931641 526.92953125 -68.00048828 525.90820312 C-69.54447923 523.62483623 -71.01881657 521.33354199 -72.44189453 518.97460938 C-74.86018601 514.99768485 -77.7462195 511.49509017 -80.68408203 507.89257812 C-83.30979651 504.57182158 -85.79475514 501.16927772 -88.25439453 497.72460938 C-88.88510864 496.84458252 -88.88510864 496.84458252 -89.52856445 495.94677734 C-91.23952531 493.53636276 -92.88990891 491.12500979 -94.39501953 488.58007812 C-96.91926506 484.43037146 -99.9068315 480.61757769 -102.82666016 476.74023438 C-105.09967346 473.68460606 -107.22488002 470.65397874 -109.08251953 467.32617188 C-110.65146242 464.55085693 -112.23592126 462.23432757 -114.25439453 459.78710938 C-117.57315854 455.61738024 -120.42784459 451.26296859 -123.24658203 446.74414062 C-126.39450629 441.71761641 -129.73222706 436.81603213 -133.06689453 431.91210938 C-134.36871535 429.91598412 -135.59365305 427.86843892 -136.75439453 425.78710938 C-138.4452086 422.76494565 -140.36518142 419.97851992 -142.37939453 417.16210938 C-144.60635901 414.03206588 -146.62914372 410.92330396 -148.44189453 407.53710938 C-150.18028768 404.29248633 -152.09829251 401.33310946 -154.25439453 398.34960938 C-157.59045295 393.69956733 -160.42349071 388.85995491 -163.18920898 383.85864258 C-164.9257223 380.73380572 -166.79354811 377.88708339 -168.94189453 375.03710938 C-169.65282423 373.32441509 -170.36280555 371.61128165 -171.05908203 369.89257812 C-172.00268704 367.9093375 -173.12473027 366.29201385 -174.44189453 364.53710938 C-176.90673596 361.24084383 -178.37515525 357.85177892 -179.94189453 354.03710938 C-180.91982655 352.3020687 -181.89843391 350.56717727 -182.90673828 348.84960938 C-184.73202595 345.65363398 -186.31962652 342.33935454 -187.94189453 339.03710938 C-188.5450075 337.82824976 -189.14919796 336.61992721 -189.75439453 335.41210938 C-190.07794922 334.76371094 -190.40150391 334.1153125 -190.73486328 333.44726562 C-191.71269485 331.49476699 -192.69565325 329.54483649 -193.68017578 327.59570312 C-194.30909439 326.34701143 -194.93800056 325.09831348 -195.56689453 323.84960938 C-196.15728516 322.68042969 -196.74767578 321.51125 -197.35595703 320.30664062 C-198.6803177 317.57636998 -199.82667183 314.85524475 -200.94189453 312.03710938 C-201.73754525 310.40379337 -202.55040849 308.77876128 -203.37939453 307.16210938 C-208.21966649 297.55232966 -211.88569586 287.54983562 -215.13330078 277.30273438 C-215.96767371 274.85506773 -215.96767371 274.85506773 -217.40673828 271.88476562 C-219.32019788 267.47561728 -220.09503801 262.93444471 -220.94189453 258.22460938 C-222.11047138 252.03964774 -223.32751762 245.99069399 -225.32861328 240.00976562 C-227.35753665 233.48361084 -227.16301316 226.96165535 -227.18212891 220.18432617 C-227.19172043 218.13677516 -227.22272616 216.09027979 -227.25439453 214.04296875 C-227.337572 203.55777564 -225.66802963 194.07080024 -222.81689453 183.97460938 C-221.93163892 180.6318842 -221.78433686 177.42521684 -221.62939453 173.97460938 C-221.089077 165.41958175 -218.72879033 156.21745307 -213.94189453 149.03710938 C-213.43616261 147.11143783 -212.98322512 145.17156714 -212.56689453 143.22460938 C-211.40124158 138.32769548 -209.84345928 135.16964099 -206.94189453 131.03710938 C-206.23682671 129.21819901 -205.57363087 127.38277044 -204.94189453 125.53710938 C-203.4375553 121.18275245 -201.62331706 117.80785981 -198.94189453 114.03710938 C-198.25618878 112.69248325 -197.590432 111.3375514 -196.94189453 109.97460938 C-195.30969092 106.60138858 -193.31500529 103.94608385 -190.94189453 101.03710938 C-190.51521484 100.12960938 -190.08853516 99.22210938 -189.64892578 98.28710938 C-187.74277708 94.65801163 -185.37614727 91.7230913 -182.69189453 88.66210938 C-182.19882813 88.09049072 -181.70576172 87.51887207 -181.19775391 86.92993164 C-179.78452819 85.29421085 -178.36367262 83.66539387 -176.94189453 82.03710938 C-176.31798828 81.31136719 -175.69408203 80.585625 -175.05126953 79.83789062 C-173.36649439 77.88731359 -171.65693648 75.96112702 -169.94189453 74.03710938 C-169.12205078 73.10125 -168.30220703 72.16539063 -167.45751953 71.20117188 C-162.26077091 65.33884363 -156.94901989 60.17338992 -150.76220703 55.32617188 C-147.65378565 52.80327031 -144.78098878 50.10329558 -141.87939453 47.34960938 C-137.62295213 43.35019852 -133.29090023 40.13930871 -128.18017578 37.30273438 C-126.09641177 36.12448038 -124.23008661 34.84592375 -122.31689453 33.41210938 C-118.73511902 30.79433841 -114.93889363 28.93787455 -110.94189453 27.03710938 C-108.8556733 26.02219094 -106.7724934 25.00100444 -104.69189453 23.97460938 C-103.69673828 23.48863281 -102.70158203 23.00265625 -101.67626953 22.50195312 C-98.9845699 21.1626799 -98.9845699 21.1626799 -97.00048828 19.50585938 C-94.25327639 17.54579928 -91.44913559 16.67155219 -88.25439453 15.59960938 C-84.19567916 14.22321631 -80.27374556 12.78357562 -76.44189453 10.84960938 C-71.56913712 8.56351197 -66.53477487 8.2360392 -61.23876953 7.59960938 C-57.6123834 6.98088947 -55.06067592 5.87398441 -51.92163086 4.03857422 C-45.65293329 0.86750535 -38.21001073 0.66537189 -31.31689453 0.41210938 C-30.41156982 0.3748877 -29.50624512 0.33766602 -28.57348633 0.29931641 C-19.0483271 -0.05525252 -9.53027801 -0.13164666 0 0 Z " fill="#78B249" transform="translate(226.94189453125,-0.03710937499999999)"/>
<path d="M0 0 C2.08941349 0.02535453 4.17899085 0.0391551 6.26855469 0.04296875 C21.09385964 0.08703267 33.81036007 1.79086072 47.89160156 6.38720703 C50.81114448 7.26300411 53.72962315 7.74439391 56.74560547 8.16210938 C61.42197208 8.81972343 65.36795361 10.15876065 69.69091797 12.03710938 C71.97665411 13.00270088 74.24849807 13.75230678 76.62060547 14.47460938 C80.58267802 15.76297562 83.99943162 17.55196694 87.59326172 19.64257812 C91.39999518 21.79630847 95.33377871 23.68525633 99.26123047 25.60742188 C101.93960895 26.97653713 104.48326313 28.48463091 107.05810547 30.03710938 C109.02367772 31.01617283 111.00508603 31.94991686 112.99560547 32.87695312 C115.60106362 34.34252334 117.74335498 36.14084485 120.05810547 38.03710938 C122.79683572 40.15600266 125.5542714 42.25039754 128.30810547 44.34960938 C129.8224945 45.50837714 131.33681798 46.66723059 132.85107422 47.82617188 C135.2834654 49.68607642 137.7221023 51.53531528 140.17138672 53.37304688 C140.97962891 53.9840625 141.78787109 54.59507813 142.62060547 55.22460938 C143.30251953 55.73378906 143.98443359 56.24296875 144.68701172 56.76757812 C145.13947266 57.18652344 145.59193359 57.60546875 146.05810547 58.03710938 C146.05810547 58.69710937 146.05810547 59.35710938 146.05810547 60.03710938 C146.80060547 60.26398437 147.54310547 60.49085937 148.30810547 60.72460938 C151.62966647 62.30989985 152.82997597 64.13378913 155.05810547 67.03710938 C155.94498047 67.73835938 156.83185547 68.43960938 157.74560547 69.16210938 C162.59744837 73.05828625 166.23669877 78.1701658 170.05810547 83.03710938 C170.85571289 84.04366577 170.85571289 84.04366577 171.66943359 85.07055664 C175.87157992 90.41010411 179.84051695 95.87160051 183.68310547 101.47460938 C184.50294922 102.64733398 184.50294922 102.64733398 185.33935547 103.84375 C189.12364632 109.35269971 192.18559145 115.00951763 195.05810547 121.03710938 C195.76275743 122.43480477 196.47046031 123.83097252 197.18310547 125.22460938 C198.95847839 128.76825373 200.49676083 132.39397188 202.05810547 136.03710938 C202.72143793 137.28888192 203.38828039 138.538799 204.05810547 139.78710938 C206.1102332 143.81363273 207.17891998 147.89743949 208.27294922 152.26757812 C209.02066276 154.90503534 209.98631888 157.23420156 211.12060547 159.72460938 C213.31088139 165.05565833 213.89809852 170.35985915 214.48779297 176.04882812 C214.89742844 179.90663041 215.45880742 183.72501278 216.06591797 187.55664062 C219.44646012 209.0156698 220.19489505 227.55507894 215.5234375 248.80322266 C214.92045931 251.69789758 214.51708011 254.60781618 214.12060547 257.53710938 C213.26134231 262.90560308 211.40707058 267.64571942 209.35107422 272.66210938 C207.99333725 276.20617204 206.97777748 279.74740432 205.99560547 283.41210938 C204.06092838 290.45930666 204.06092838 290.45930666 202.05810547 293.72460938 C200.27249937 296.68201947 199.19016009 299.23764069 198.05810547 302.47460938 C196.39696818 307.22442382 194.40707797 311.59608324 192.05810547 316.03710938 C189.92794044 320.19758795 187.90056265 324.36544164 186.05810547 328.66210938 C184.40830109 332.42852324 182.34205413 335.61118638 180.05810547 339.03710938 C178.49914885 342.04807572 177.00302444 345.08431881 175.52294922 348.13476562 C174.14924955 350.85652258 172.63525868 353.43006649 171.05810547 356.03710938 C170.43923782 357.27989665 169.83404228 358.52962797 169.24560547 359.78710938 C166.9300518 364.48919153 164.03252162 368.73182239 161.05810547 373.03710938 C159.09720087 375.8944275 157.26598993 378.61144119 155.74560547 381.72460938 C152.21803903 388.64909164 147.91079055 394.98375995 143.05810547 401.03710938 C142.08711846 402.72015352 141.11799188 404.40446527 140.17529297 406.10351562 C137.9978689 409.87213421 135.49568173 413.43373577 133.05810547 417.03710938 C127.66736539 425.02870429 127.66736539 425.02870429 122.49560547 433.16210938 C117.75935525 440.81538788 112.35358936 448.04199341 107.11328125 455.35400391 C104.69993367 458.72469749 102.3036624 462.10646985 99.92529297 465.50195312 C99.39637451 466.25597412 98.86745605 467.00999512 98.32250977 467.78686523 C97.29832833 469.24837326 96.27623314 470.7113463 95.2565918 472.17602539 C92.36168151 476.30367063 89.31269162 480.18771955 86.05810547 484.03710938 C84.71478893 486.03041779 83.38216535 488.03095803 82.05810547 490.03710938 C79.04340667 494.1889314 75.90398003 498.2440975 72.74560547 502.28710938 C69.97204791 505.83824267 67.25578207 509.42799365 64.55810547 513.03710938 C61.31760424 517.37244887 58.03590195 521.66869733 54.69091797 525.92382812 C52.49550667 528.76525758 50.4014081 531.67789225 48.31982422 534.60351562 C47.90345703 535.07660156 47.48708984 535.5496875 47.05810547 536.03710938 C46.39810547 536.03710938 45.73810547 536.03710938 45.05810547 536.03710938 C44.82220703 536.73449219 44.58630859 537.431875 44.34326172 538.15039062 C42.8270267 541.55615864 40.78776393 544.31825496 38.49560547 547.22460938 C38.0530542 547.79268311 37.61050293 548.36075684 37.15454102 548.94604492 C33.02281626 554.19262109 28.58087513 559.12619157 24.05810547 564.03710938 C22.82371644 565.42832651 21.59421324 566.82390048 20.37060547 568.22460938 C19.52949219 569.18173828 19.52949219 569.18173828 18.67138672 570.15820312 C17.60379434 571.40157343 16.55881332 572.66475427 15.53857422 573.94726562 C10.52511956 580.17770664 5.03568556 583.44159336 -2.94189453 585.03710938 C-11.15506475 585.73898449 -17.52233354 584.83975781 -24.50439453 580.41210938 C-27.29790101 577.69023127 -29.57509259 574.77134811 -31.92236328 571.66210938 C-34.18544967 568.7205348 -36.55231328 565.8756368 -38.94189453 563.03710938 C-57.94189453 540.36406133 -57.94189453 540.36406133 -57.94189453 536.03710938 C-58.52068359 535.8128125 -59.09947266 535.58851563 -59.69580078 535.35742188 C-62.59567966 533.65279742 -63.94799822 531.65813422 -65.87939453 528.91210938 C-66.57935547 527.92082031 -67.27931641 526.92953125 -68.00048828 525.90820312 C-69.54447923 523.62483623 -71.01881657 521.33354199 -72.44189453 518.97460938 C-74.86018601 514.99768485 -77.7462195 511.49509017 -80.68408203 507.89257812 C-83.30979651 504.57182158 -85.79475514 501.16927772 -88.25439453 497.72460938 C-88.88510864 496.84458252 -88.88510864 496.84458252 -89.52856445 495.94677734 C-91.23952531 493.53636276 -92.88990891 491.12500979 -94.39501953 488.58007812 C-96.91926506 484.43037146 -99.9068315 480.61757769 -102.82666016 476.74023438 C-105.09967346 473.68460606 -107.22488002 470.65397874 -109.08251953 467.32617188 C-110.65146242 464.55085693 -112.23592126 462.23432757 -114.25439453 459.78710938 C-117.57315854 455.61738024 -120.42784459 451.26296859 -123.24658203 446.74414062 C-126.39450629 441.71761641 -129.73222706 436.81603213 -133.06689453 431.91210938 C-134.36871535 429.91598412 -135.59365305 427.86843892 -136.75439453 425.78710938 C-138.4452086 422.76494565 -140.36518142 419.97851992 -142.37939453 417.16210938 C-144.60635901 414.03206588 -146.62914372 410.92330396 -148.44189453 407.53710938 C-150.18028768 404.29248633 -152.09829251 401.33310946 -154.25439453 398.34960938 C-157.59045295 393.69956733 -160.42349071 388.85995491 -163.18920898 383.85864258 C-164.9257223 380.73380572 -166.79354811 377.88708339 -168.94189453 375.03710938 C-169.65282423 373.32441509 -170.36280555 371.61128165 -171.05908203 369.89257812 C-172.00268704 367.9093375 -173.12473027 366.29201385 -174.44189453 364.53710938 C-176.90673596 361.24084383 -178.37515525 357.85177892 -179.94189453 354.03710938 C-180.91982655 352.3020687 -181.89843391 350.56717727 -182.90673828 348.84960938 C-184.73202595 345.65363398 -186.31962652 342.33935454 -187.94189453 339.03710938 C-188.5450075 337.82824976 -189.14919796 336.61992721 -189.75439453 335.41210938 C-190.07794922 334.76371094 -190.40150391 334.1153125 -190.73486328 333.44726562 C-191.71269485 331.49476699 -192.69565325 329.54483649 -193.68017578 327.59570312 C-194.30909439 326.34701143 -194.93800056 325.09831348 -195.56689453 323.84960938 C-196.15728516 322.68042969 -196.74767578 321.51125 -197.35595703 320.30664062 C-198.6803177 317.57636998 -199.82667183 314.85524475 -200.94189453 312.03710938 C-201.73754525 310.40379337 -202.55040849 308.77876128 -203.37939453 307.16210938 C-208.21966649 297.55232966 -211.88569586 287.54983562 -215.13330078 277.30273438 C-215.96767371 274.85506773 -215.96767371 274.85506773 -217.40673828 271.88476562 C-219.32019788 267.47561728 -220.09503801 262.93444471 -220.94189453 258.22460938 C-222.11047138 252.03964774 -223.32751762 245.99069399 -225.32861328 240.00976562 C-227.35753665 233.48361084 -227.16301316 226.96165535 -227.18212891 220.18432617 C-227.19172043 218.13677516 -227.22272616 216.09027979 -227.25439453 214.04296875 C-227.337572 203.55777564 -225.66802963 194.07080024 -222.81689453 183.97460938 C-221.93163892 180.6318842 -221.78433686 177.42521684 -221.62939453 173.97460938 C-221.089077 165.41958175 -218.72879033 156.21745307 -213.94189453 149.03710938 C-213.43616261 147.11143783 -212.98322512 145.17156714 -212.56689453 143.22460938 C-211.40124158 138.32769548 -209.84345928 135.16964099 -206.94189453 131.03710938 C-206.23682671 129.21819901 -205.57363087 127.38277044 -204.94189453 125.53710938 C-203.4375553 121.18275245 -201.62331706 117.80785981 -198.94189453 114.03710938 C-198.25618878 112.69248325 -197.590432 111.3375514 -196.94189453 109.97460938 C-195.30969092 106.60138858 -193.31500529 103.94608385 -190.94189453 101.03710938 C-190.51521484 100.12960938 -190.08853516 99.22210938 -189.64892578 98.28710938 C-187.74277708 94.65801163 -185.37614727 91.7230913 -182.69189453 88.66210938 C-182.19882813 88.09049072 -181.70576172 87.51887207 -181.19775391 86.92993164 C-179.78452819 85.29421085 -178.36367262 83.66539387 -176.94189453 82.03710938 C-176.31798828 81.31136719 -175.69408203 80.585625 -175.05126953 79.83789062 C-173.36649439 77.88731359 -171.65693648 75.96112702 -169.94189453 74.03710938 C-169.12205078 73.10125 -168.30220703 72.16539063 -167.45751953 71.20117188 C-162.26077091 65.33884363 -156.94901989 60.17338992 -150.76220703 55.32617188 C-147.65378565 52.80327031 -144.78098878 50.10329558 -141.87939453 47.34960938 C-137.62295213 43.35019852 -133.29090023 40.13930871 -128.18017578 37.30273438 C-126.09641177 36.12448038 -124.23008661 34.84592375 -122.31689453 33.41210938 C-118.73511902 30.79433841 -114.93889363 28.93787455 -110.94189453 27.03710938 C-108.8556733 26.02219094 -106.7724934 25.00100444 -104.69189453 23.97460938 C-103.69673828 23.48863281 -102.70158203 23.00265625 -101.67626953 22.50195312 C-98.9845699 21.1626799 -98.9845699 21.1626799 -97.00048828 19.50585938 C-94.25327639 17.54579928 -91.44913559 16.67155219 -88.25439453 15.59960938 C-84.19567916 14.22321631 -80.27374556 12.78357562 -76.44189453 10.84960938 C-71.56913712 8.56351197 -66.53477487 8.2360392 -61.23876953 7.59960938 C-57.6123834 6.98088947 -55.06067592 5.87398441 -51.92163086 4.03857422 C-45.65293329 0.86750535 -38.21001073 0.66537189 -31.31689453 0.41210938 C-30.41156982 0.3748877 -29.50624512 0.33766602 -28.57348633 0.29931641 C-19.0483271 -0.05525252 -9.53027801 -0.13164666 0 0 Z M-20.77392578 20.09130859 C-23.74749374 20.15804824 -26.71927472 20.2495361 -29.69189453 20.34960938 C-31.06812988 20.38320557 -31.06812988 20.38320557 -32.47216797 20.41748047 C-38.03465914 20.64470978 -41.95970047 21.55225569 -46.94189453 24.03710938 C-52.13033973 26.11433388 -57.08006839 27.25490155 -62.62939453 27.97460938 C-67.83133191 28.69626543 -70.65291456 29.96023244 -74.94189453 33.03710938 C-77.7288748 33.86090795 -80.51380021 34.52580638 -83.35595703 35.13085938 C-86.42047518 36.20482948 -87.69932015 37.73260986 -89.94189453 40.03710938 C-92.41455078 41.19726563 -92.41455078 41.19726563 -95.00439453 42.09960938 C-98.48497089 43.31911959 -100.39111249 44.42360319 -102.94189453 47.03710938 C-104.77392578 47.81054687 -104.77392578 47.81054687 -106.75439453 48.41210938 C-109.67264271 49.42576048 -111.74842386 50.49391887 -114.06689453 52.53710938 C-116.91682556 55.01531027 -119.58837047 56.36034734 -122.94189453 58.03710938 C-124.29497766 59.35039594 -125.63059531 60.68210018 -126.94189453 62.03710938 C-127.99376953 62.53210937 -127.99376953 62.53210937 -129.06689453 63.03710938 C-131.10875937 63.88107103 -131.10875937 63.88107103 -131.81689453 65.97460938 C-132.94189453 68.03710938 -132.94189453 68.03710938 -136.00439453 69.53710938 C-136.97376953 70.03210938 -137.94314453 70.52710938 -138.94189453 71.03710938 C-139.30351482 72.36305042 -139.63917492 73.69649395 -139.94189453 75.03710938 C-140.69341797 75.3284375 -141.44494141 75.61976562 -142.21923828 75.91992188 C-145.23028015 77.15544264 -146.71641713 78.50298704 -148.94189453 80.84960938 C-149.62767578 81.56503906 -150.31345703 82.28046875 -151.02001953 83.01757812 C-151.65423828 83.68402344 -152.28845703 84.35046875 -152.94189453 85.03710938 C-153.84939453 85.90335937 -154.75689453 86.76960938 -155.69189453 87.66210938 C-158.15801686 90.2652385 -159.97049386 93.04821158 -161.94189453 96.03710938 C-162.66376953 96.73835938 -163.38564453 97.43960938 -164.12939453 98.16210938 C-166.09522104 99.87562051 -166.09522104 99.87562051 -166.44189453 102.16210938 C-166.60689453 102.78085938 -166.77189453 103.39960937 -166.94189453 104.03710938 C-167.88742188 104.45669922 -167.88742188 104.45669922 -168.85205078 104.88476562 C-171.51827235 106.35492518 -171.85074508 107.52911896 -172.87939453 110.34960938 C-174.58226413 114.5598539 -176.72480334 116.82001818 -179.94189453 120.03710938 C-180.8295516 122.0384473 -181.51069631 124.05622832 -182.19580078 126.13476562 C-182.94189453 128.03710938 -182.94189453 128.03710938 -184.94189453 130.47460938 C-187.28996403 133.48307342 -188.11773354 136.21387401 -189.13330078 139.85351562 C-189.94189453 142.03710938 -189.94189453 142.03710938 -191.44580078 143.93164062 C-193.35671392 146.62088914 -193.71687919 148.92826045 -194.31689453 152.16210938 C-195.21923579 156.48284397 -196.21668455 159.83595746 -198.50439453 163.59960938 C-201.64017377 169.29081468 -201.8343383 175.27253468 -202.22143555 181.64282227 C-202.55981766 186.7295177 -203.39166545 191.06169798 -205.21875 195.83178711 C-209.53101126 208.98258251 -209.06871406 228.09979826 -204.01220703 240.93554688 C-202.6168749 244.97895458 -202.09750079 249.00071362 -201.50439453 253.22460938 C-200.59949627 259.38059211 -199.29516122 264.22160534 -196.13720703 269.65820312 C-194.25323093 273.40768497 -193.53728526 277.37694903 -192.71533203 281.47070312 C-191.87041064 284.27430593 -190.96590213 285.03413043 -188.94189453 287.03710938 C-188.13330078 289.56054688 -188.13330078 289.56054688 -187.50439453 292.41210938 C-186.36440481 296.97803679 -184.92887895 299.39672211 -181.94189453 303.03710938 C-181.09280841 305.54191342 -180.41535101 308.0718878 -179.71923828 310.62304688 C-178.67879025 313.85418701 -176.88541686 316.26906243 -174.94189453 319.03710938 C-173.88290175 321.27047159 -172.91663742 323.53374073 -171.94580078 325.80664062 C-171.02746576 327.84698808 -170.01675262 329.73768218 -168.87939453 331.66210938 C-166.94189453 335.03710937 -166.94189453 335.03710937 -165.44189453 338.66210938 C-164.10519214 342.05857158 -164.10519214 342.05857158 -161.87939453 344.59960938 C-159.94189453 347.03710938 -159.94189453 347.03710938 -158.94189453 350.09960938 C-158.18222153 353.08889068 -158.18222153 353.08889068 -156.06689453 354.78710938 C-153.23075157 357.79008428 -152.29010876 361.02067023 -150.96923828 364.89257812 C-150.63021484 365.60027344 -150.29119141 366.30796875 -149.94189453 367.03710938 C-148.95189453 367.36710937 -147.96189453 367.69710938 -146.94189453 368.03710938 C-146.16845703 369.85742188 -146.16845703 369.85742188 -145.56689453 372.16210938 C-144.33729867 376.26076226 -142.67688197 379.11891125 -140.06689453 382.47460938 C-138.94189453 384.03710938 -138.94189453 384.03710938 -137.87939453 386.78710938 C-137.13546179 389.15845004 -137.13546179 389.15845004 -135.06689453 390.28710938 C-132.12442909 392.71031621 -131.29508466 395.55954929 -129.96923828 399.07617188 C-129.04733202 401.38729025 -129.04733202 401.38729025 -125.94189453 402.03710938 C-125.65314453 403.08898437 -125.36439453 404.14085937 -125.06689453 405.22460938 C-123.98070177 408.90559595 -122.78411579 410.64282612 -120.23876953 413.42773438 C-118.32716697 415.79996406 -117.16903096 418.4346396 -115.93408203 421.20507812 C-114.84536364 423.21534948 -113.57060377 424.44560415 -111.94189453 426.03710938 C-111.07217728 427.30456317 -110.23951123 428.59808699 -109.44189453 429.91210938 C-109.01134766 430.61722656 -108.58080078 431.32234375 -108.13720703 432.04882812 C-107.54552734 433.03302734 -107.54552734 433.03302734 -106.94189453 434.03710938 C-106.40564453 434.92398437 -105.86939453 435.81085938 -105.31689453 436.72460938 C-104.33432892 438.37710608 -103.37887807 440.04584721 -102.44189453 441.72460938 C-100.99711815 444.28643452 -100.99711815 444.28643452 -97.94189453 446.03710938 C-96.92423526 448.02818185 -95.92611599 450.0292976 -94.94189453 452.03710938 C-94.28189453 452.86210937 -93.62189453 453.68710937 -92.94189453 454.53710938 C-90.94189453 457.03710937 -90.94189453 457.03710937 -89.44189453 460.09960938 C-88.11622111 463.06823414 -88.11622111 463.06823414 -85.94189453 465.03710938 C-83.53186275 467.44714116 -82.45989087 470.00111669 -80.94189453 473.03710938 C-80.32314453 473.65585937 -79.70439453 474.27460938 -79.06689453 474.91210938 C-76.49720543 477.48179848 -74.88952245 480.28774599 -73.09033203 483.42773438 C-72.71134766 483.95882813 -72.33236328 484.48992187 -71.94189453 485.03710938 C-71.28189453 485.03710938 -70.62189453 485.03710938 -69.94189453 485.03710938 C-69.71501953 486.08898437 -69.48814453 487.14085937 -69.25439453 488.22460938 C-68.0836118 492.28601428 -66.01457177 494.0980268 -62.94189453 497.03710938 C-59.50518117 501.4672477 -56.17750404 505.9758082 -53.29345703 510.78710938 C-52.06916578 513.03085831 -52.06916578 513.03085831 -50.44189453 514.53710938 C-48.94189453 516.03710938 -48.94189453 516.03710938 -47.50439453 518.47460938 C-46.05785392 521.07330834 -46.05785392 521.07330834 -44.00439453 522.97460938 C-41.52651185 525.45249205 -39.83563588 528.08510081 -37.94189453 531.03710938 C-34.88995575 535.77998721 -32.01789077 540.10668443 -27.94189453 544.03710938 C-27.47783203 544.99617187 -27.47783203 544.99617187 -27.00439453 545.97460938 C-25.03140832 549.80452379 -21.53559124 552.4730975 -18.44189453 555.41210938 C-15.55996916 558.43813102 -13.30488471 561.59389511 -10.94189453 565.03710938 C-5.67269769 565.05597221 -5.67269769 565.05597221 -1.25048828 562.58789062 C0.25097961 560.78064076 1.65374034 558.92032679 3.05810547 557.03710938 C4.72477214 555.37044271 6.3914388 553.70377604 8.05810547 552.03710938 C12.04912013 547.80563172 12.04912013 547.80563172 15.04638672 542.88476562 C16.05810547 541.03710938 16.05810547 541.03710938 19.05810547 540.03710938 C20.5628876 538.18705169 20.5628876 538.18705169 21.93310547 535.91210938 C23.85339007 532.90206326 25.80725983 529.96829312 27.93310547 527.09960938 C30.24813265 524.38450282 30.24813265 524.38450282 30.05810547 522.03710938 C30.63560547 521.83085938 31.21310547 521.62460937 31.80810547 521.41210938 C34.8774939 519.536372 36.15125285 517.05116674 38.05810547 514.03710938 C39.05810547 513.03710938 40.05810547 512.03710938 41.05810547 511.03710938 C42.40142201 509.04380096 43.73404558 507.04326072 45.05810547 505.03710938 C46.37476211 503.35723711 47.71073574 501.69244933 49.05810547 500.03710938 C50.27185951 498.52059871 51.47973709 496.99937428 52.68310547 495.47460938 C53.27349609 494.73082031 53.86388672 493.98703125 54.47216797 493.22070312 C56.08985291 491.12041744 56.08985291 491.12041744 57.11279297 488.91601562 C58.52663862 486.10585133 60.84582342 484.24939143 63.05810547 482.03710938 C63.7555913 480.71963614 64.42770504 479.38796744 65.05810547 478.03710938 C65.75033203 477.36228516 65.75033203 477.36228516 66.45654297 476.67382812 C68.72587542 474.35468106 70.15439102 471.66946405 71.77685547 468.87695312 C73.05810547 467.03710937 73.05810547 467.03710937 76.05810547 465.03710938 C76.52216797 463.30460938 76.52216797 463.30460938 76.99560547 461.53710938 C77.34623047 460.38210938 77.69685547 459.22710937 78.05810547 458.03710938 C79.37457666 457.33773406 80.70832698 456.66981804 82.05810547 456.03710938 C83.35042189 452.99511465 83.35042189 452.99511465 84.05810547 450.03710938 C84.71810547 450.03710938 85.37810547 450.03710938 86.05810547 450.03710938 C87.35003874 448.61722294 87.35003874 448.61722294 88.55810547 446.78710938 C89.00025391 446.14644531 89.44240234 445.50578125 89.89794922 444.84570312 C91.12048322 443.01808362 91.12048322 443.01808362 92.12060547 440.84960938 C93.05810547 439.03710938 93.05810547 439.03710938 94.99560547 437.16210938 C97.40302682 434.68173586 98.54582294 432.12742584 100.05810547 429.03710938 C100.54279297 428.56273437 101.02748047 428.08835937 101.52685547 427.59960938 C103.22655075 425.86522644 104.00806964 424.30779034 104.99560547 422.09960938 C106.60004267 418.73763982 108.37283842 416.63575491 111.05810547 414.03710938 C112.07501811 412.04565546 113.07453195 410.04523864 114.05810547 408.03710938 C115.3914388 406.37044271 116.72477214 404.70377604 118.05810547 403.03710938 C118.83154297 401.45929688 118.83154297 401.45929688 119.62060547 399.84960938 C121.05810547 397.03710938 121.05810547 397.03710938 124.05810547 395.03710938 C124.77970969 393.3314994 125.49734055 391.62381703 126.17529297 389.90039062 C127.60461925 386.88362676 129.90529505 384.56666162 132.05810547 382.03710938 C133.07369948 380.04498267 134.07600176 378.04595788 135.05810547 376.03710938 C135.54150391 375.57433594 136.02490234 375.1115625 136.52294922 374.63476562 C138.32354033 372.76086801 139.03846984 371.06932602 139.99560547 368.66210938 C141.57518564 364.92195402 143.45039506 362.16636187 146.05810547 359.03710938 C146.38810547 358.19148438 146.71810547 357.34585937 147.05810547 356.47460938 C148.05810547 354.03710938 148.05810547 354.03710938 149.99560547 352.28710938 C152.60075103 349.4451324 153.18911381 346.77242928 154.27685547 343.13085938 C155.28885061 340.4187124 157.02650846 339.06870638 159.05810547 337.03710938 C159.9077357 334.76010035 160.58243327 332.45553191 161.27685547 330.12695312 C162.05810547 328.03710938 162.05810547 328.03710938 164.05810547 326.09960938 C166.84365068 323.22701588 167.25892563 320.15578181 168.27685547 316.34960938 C169.25556512 313.4526288 170.91555474 312.17966011 173.05810547 310.03710938 C173.92103803 307.52166096 174.58989281 304.98075237 175.27685547 302.41210938 C176.05810547 300.03710937 176.05810547 300.03710937 178.05810547 297.59960938 C180.72918689 294.1772863 181.32417264 290.75618369 182.24951172 286.56054688 C183.11391449 283.8629421 183.99156895 282.89043181 186.05810547 281.03710938 C187.83974992 276.74020217 188.59124209 272.36603709 189.30029297 267.79492188 C189.98348526 265.3086654 190.79732831 263.60220797 192.02685547 261.36914062 C194.50272485 256.59240668 195.08729285 251.8969946 195.68310547 246.59960938 C195.90095732 244.80881526 196.12228336 243.01844018 196.34716797 241.22851562 C196.45625488 240.35952637 196.5653418 239.49053711 196.67773438 238.59521484 C197.04673267 236.11359473 197.54772513 233.7093716 198.12060547 231.26757812 C201.26288981 217.71815547 198.04154501 203.53391662 196.03076172 190.02539062 C195.22003312 184.52247048 194.68300503 179.05200521 194.34472656 173.50073242 C193.96259707 170.21617644 192.79946704 167.82328789 191.05810547 165.03710938 C188.56731701 160.71910158 187.96673609 156.07414687 187.03466797 151.22851562 C185.95531761 147.70119864 184.39040264 145.84958537 182.05810547 143.03710938 C181.15185547 140.53710938 181.15185547 140.53710938 180.55810547 138.03710938 C179.4038445 133.80065966 177.91068448 131.40833912 175.05810547 128.03710938 C173.98185021 125.69443344 173.01325717 123.33286744 172.08544922 120.92773438 C171.14668274 118.68742174 171.14668274 118.68742174 168.05810547 118.03710938 C167.62278683 116.36280691 167.19126233 114.68736825 166.78466797 113.00585938 C165.67254845 109.99237423 163.66815162 108.0020804 161.50732422 105.67382812 C160.05810547 104.03710937 160.05810547 104.03710937 158.43310547 101.22460938 C157.23943945 98.88907561 157.23943945 98.88907561 154.93310547 98.03710938 C154.31435547 97.70710938 153.69560547 97.37710938 153.05810547 97.03710938 C152.91373047 96.25335938 152.76935547 95.46960938 152.62060547 94.66210938 C151.84747767 91.05417963 149.9374602 90.21418246 147.05810547 88.03710938 C146.72810547 87.35648437 146.39810547 86.67585938 146.05810547 85.97460938 C144.66798556 83.28125205 142.63753292 82.57248286 140.05810547 81.03710938 C139.37748047 80.17085937 138.69685547 79.30460937 137.99560547 78.41210938 C135.84314354 75.77360766 135.1824121 75.76611426 132.05810547 75.03710938 C131.76935547 74.43898437 131.48060547 73.84085938 131.18310547 73.22460938 C129.54932377 70.04781163 127.04668477 68.95431119 124.05810547 67.03710938 C122.25980274 65.49515217 120.50602959 63.91722681 118.76904297 62.30664062 C116.87114078 60.89837987 115.32861096 60.58068378 113.05810547 60.03710938 C112.62498047 59.10898438 112.62498047 59.10898438 112.18310547 58.16210938 C110.55448396 55.0858243 108.14430179 54.51848361 105.05810547 53.03710938 C104.45998047 52.37710938 103.86185547 51.71710937 103.24560547 51.03710938 C100.43605509 48.4683776 97.71469369 47.81735971 94.08154297 46.84570312 C92.05810547 46.03710937 92.05810547 46.03710937 90.05810547 43.03710938 C87.34434324 41.90422133 84.59150138 41.07109112 81.78466797 40.19726562 C79.05810547 39.03710938 79.05810547 39.03710938 77.08154297 37.00585938 C74.51233537 34.50608982 72.54456848 34.1675439 69.05810547 33.47460938 C63.42710241 32.34137001 63.42710241 32.34137001 61.27685547 30.56835938 C57.73708537 28.12541945 53.74576162 27.81313114 49.55810547 27.09960938 C43.88894757 26.12412927 38.60063284 24.93181028 33.18701172 22.95507812 C26.90892416 20.78770307 21.09938213 20.3739749 14.49560547 20.28710938 C12.79452637 20.24481201 12.79452637 20.24481201 11.05908203 20.20166016 C7.7253887 20.125873 4.39239544 20.07727534 1.05810547 20.03710938 C0.17074707 20.02196289 -0.71661133 20.00681641 -1.63085938 19.99121094 C-8.01645686 19.88675871 -14.38927669 19.96911962 -20.77392578 20.09130859 Z " fill="#FEFEFE" transform="translate(226.94189453125,-0.03710937499999999)"/>
<path d="M0 0 C0.83920486 0.00424484 1.67840973 0.00848969 2.54304504 0.01286316 C5.2230337 0.02965411 7.90226995 0.06730645 10.58203125 0.10546875 C12.39907768 0.12051508 14.2161359 0.13420357 16.03320312 0.14648438 C20.48750213 0.17700721 24.9401747 0.23572571 29.39453125 0.29296875 C28.73453125 9.53296875 28.07453125 18.77296875 27.39453125 28.29296875 C30.65328125 28.14859375 33.91203125 28.00421875 37.26953125 27.85546875 C38.29546387 27.81236572 39.32139648 27.7692627 40.37841797 27.72485352 C41.58908936 27.66769165 41.58908936 27.66769165 42.82421875 27.609375 C44.06534424 27.55438843 44.06534424 27.55438843 45.33154297 27.49829102 C47.45632554 27.41058548 47.45632554 27.41058548 49.39453125 26.29296875 C48.89953125 13.42296875 48.89953125 13.42296875 48.39453125 0.29296875 C53.75159726 0.2470729 59.10798197 0.2072431 64.46508789 0.18310547 C66.28770254 0.17304384 68.11030104 0.15939315 69.93286133 0.14208984 C72.5516356 0.11784854 75.17019656 0.10648737 77.7890625 0.09765625 C78.60478226 0.08733368 79.42050201 0.07701111 80.26094055 0.06637573 C84.16583881 0.06560015 86.06977133 0.07646214 89.39453125 2.29296875 C90.46484375 4.625 90.46484375 4.625 91.39453125 7.29296875 C91.70132813 8.05996094 92.008125 8.82695312 92.32421875 9.6171875 C92.63617188 10.39707031 92.948125 11.17695313 93.26953125 11.98046875 C93.79160156 13.28371094 93.79160156 13.28371094 94.32421875 14.61328125 C95.02054293 16.35663303 95.7134378 18.10135977 96.40234375 19.84765625 C97.97959675 23.83425636 99.59865769 27.77457098 101.39453125 31.66796875 C103.47811671 36.25349738 104.97889716 40.98122705 106.46484375 45.7890625 C107.24384394 48.42012246 107.24384394 48.42012246 109.39453125 50.29296875 C110.24609375 52.3515625 110.24609375 52.3515625 111.01953125 54.73046875 C111.27992188 55.51292969 111.5403125 56.29539063 111.80859375 57.1015625 C112.39453125 59.29296875 112.39453125 59.29296875 112.39453125 62.29296875 C113.05453125 62.29296875 113.71453125 62.29296875 114.39453125 62.29296875 C114.62527344 63.11539063 114.85601562 63.9378125 115.09375 64.78515625 C117.22599662 72.08367629 119.85032655 78.58710842 123.39453125 85.29296875 C125.68233044 89.85284342 127.43944293 93.98015219 128.20703125 99.04296875 C129.27392421 105.31590421 132.81731993 113.71575743 137.39453125 118.29296875 C139.74715758 132.93153261 139.74715758 132.93153261 136.39453125 139.29296875 C126.24186974 139.31609267 116.08921445 139.33388409 105.93653202 139.34478092 C101.22273392 139.35000964 96.50895378 139.35710709 91.79516602 139.3684082 C87.24997721 139.37923748 82.70480573 139.38524567 78.15960503 139.38784599 C76.42158167 139.38970017 74.68355931 139.39332064 72.94554329 139.39869881 C70.5197453 139.40590978 68.09401979 139.40695967 65.66821289 139.40649414 C64.94245056 139.41008942 64.21668823 139.41368469 63.46893311 139.41738892 C58.50858341 139.40702091 58.50858341 139.40702091 57.39453125 138.29296875 C57.23482879 135.91983953 57.13521065 133.57155502 57.078125 131.1953125 C57.04001709 129.89843506 57.00190918 128.60155762 56.96264648 127.26538086 C56.89799194 124.77309937 56.89799194 124.77309937 56.83203125 122.23046875 C56.61546875 114.34140625 56.61546875 114.34140625 56.39453125 106.29296875 C44.84453125 106.29296875 33.29453125 106.29296875 21.39453125 106.29296875 C21.10520253 116.77903408 21.10520253 116.77903408 20.82641602 127.26538086 C20.78830811 128.5622583 20.7502002 129.85913574 20.7109375 131.1953125 C20.69446167 131.88113403 20.67798584 132.56695557 20.66101074 133.27355957 C20.50860305 138.17889695 20.50860305 138.17889695 19.39453125 139.29296875 C17.00722435 139.4038673 14.64856772 139.45035026 12.26025391 139.45410156 C11.51390182 139.45906647 10.76754974 139.46403137 9.99858093 139.46914673 C7.51857598 139.48380485 5.03863499 139.49057652 2.55859375 139.49609375 C0.8408508 139.50184238 -0.87689212 139.50760015 -2.59463501 139.5133667 C-6.20111389 139.52388721 -9.80757042 139.52972293 -13.4140625 139.53320312 C-18.0402461 139.53868884 -22.6661355 139.56271396 -27.29222679 139.59117508 C-30.84208037 139.60977969 -34.3918628 139.6150059 -37.94176102 139.616539 C-39.64744296 139.61957121 -41.35312349 139.62761879 -43.05875778 139.64072418 C-45.44353483 139.65773899 -47.82758958 139.6559159 -50.21240234 139.64941406 C-50.92005234 139.65862885 -51.62770233 139.66784363 -52.35679626 139.67733765 C-55.18464262 139.65313004 -57.14842057 139.59629296 -59.54019165 138.00897217 C-61.60470505 134.68334726 -61.09352803 131.01249419 -60.60546875 127.29296875 C-59.45275622 122.56235627 -58.08399985 117.93318021 -56.60546875 113.29296875 C-55.94546875 113.29296875 -55.28546875 113.29296875 -54.60546875 113.29296875 C-54.53070313 112.67292969 -54.4559375 112.05289063 -54.37890625 111.4140625 C-53.01250285 102.21093369 -49.76023632 93.60250389 -45.60546875 85.29296875 C-44.94546875 85.29296875 -44.28546875 85.29296875 -43.60546875 85.29296875 C-43.51910156 84.62652344 -43.43273437 83.96007812 -43.34375 83.2734375 C-42.3903029 77.01917439 -40.72356806 71.86778856 -37.96875 66.1875 C-35.2060664 60.32174485 -33.04507414 54.19248237 -30.80078125 48.11328125 C-29.37477846 44.25185797 -27.83835 40.45797455 -26.23046875 36.66796875 C-23.8243203 30.97148478 -21.78334456 25.1854309 -19.81640625 19.32421875 C-18.69508727 16.51730415 -17.48090543 14.62544462 -15.60546875 12.29296875 C-14.90032029 10.14562948 -14.90032029 10.14562948 -14.60546875 8.29296875 C-13.94546875 8.29296875 -13.28546875 8.29296875 -12.60546875 8.29296875 C-12.50234375 7.52984375 -12.39921875 6.76671875 -12.29296875 5.98046875 C-10.59673277 -0.6502719 -5.96250751 -0.11317932 0 0 Z " fill="#FDFDFC" transform="translate(181.60546875,138.70703125)"/>
<path d="M0 0 C0.969375 -0.00386719 1.93875 -0.00773438 2.9375 -0.01171875 C3.948125 -0.00011719 4.95875 0.01148438 6 0.0234375 C7.010625 0.01183594 8.02125 0.00023437 9.0625 -0.01171875 C10.031875 -0.00785156 11.00125 -0.00398437 12 0 C12.886875 0.00338379 13.77375 0.00676758 14.6875 0.01025391 C17.47530998 0.47822454 18.36052018 1.12187453 20 3.3984375 C20.39471261 6.09212505 20.6067829 8.56767247 20.6875 11.2734375 C20.72020996 12.05195068 20.75291992 12.83046387 20.78662109 13.63256836 C21.02695191 20.07254423 21.09676109 26.51692806 21.125 32.9609375 C21.12975342 33.88310059 21.13450684 34.80526367 21.1394043 35.75537109 C21.13614136 37.03468506 21.13614136 37.03468506 21.1328125 38.33984375 C21.13168457 39.09982666 21.13055664 39.85980957 21.12939453 40.64282227 C21 42.3984375 21 42.3984375 20 43.3984375 C15.35984675 43.652593 10.70878694 43.58366548 6.0625 43.5859375 C4.74830078 43.59818359 3.43410156 43.61042969 2.08007812 43.62304688 C0.82775391 43.62498047 -0.42457031 43.62691406 -1.71484375 43.62890625 C-3.44915649 43.63506958 -3.44915649 43.63506958 -5.21850586 43.64135742 C-8 43.3984375 -8 43.3984375 -10 41.3984375 C-10.89372246 32.42178397 -9.87480638 23.11077238 -9.1875 14.1484375 C-9.11756836 13.13628174 -9.04763672 12.12412598 -8.97558594 11.08129883 C-8.89469727 10.12892334 -8.81380859 9.17654785 -8.73046875 8.1953125 C-8.66239014 7.34291992 -8.59431152 6.49052734 -8.52416992 5.61230469 C-7.36830942 0.73044951 -4.68326478 0.01786856 0 0 Z " fill="#79B34A" transform="translate(215,179.6015625)"/>
<path d="M0 0 C3.60401481 -0.08701039 7.20776012 -0.14039388 10.8125 -0.1875 C11.83666016 -0.21263672 12.86082031 -0.23777344 13.91601562 -0.26367188 C15.39038086 -0.27817383 15.39038086 -0.27817383 16.89453125 -0.29296875 C18.25348511 -0.31653442 18.25348511 -0.31653442 19.63989258 -0.34057617 C22 0 22 0 23.78710938 1.30004883 C25.83039477 4.16385644 25.58601522 7.47306953 25.6875 10.875 C25.72020996 11.65351318 25.75291992 12.43202637 25.78662109 13.23413086 C26.02695191 19.67410673 26.09676109 26.11849056 26.125 32.5625 C26.12975342 33.48466309 26.13450684 34.40682617 26.1394043 35.35693359 C26.13614136 36.63624756 26.13614136 36.63624756 26.1328125 37.94140625 C26.13168457 38.70138916 26.13055664 39.46137207 26.12939453 40.24438477 C26 42 26 42 25 43 C20.35984675 43.2541555 15.70878694 43.18522798 11.0625 43.1875 C9.74830078 43.19974609 8.43410156 43.21199219 7.08007812 43.22460938 C5.82775391 43.22654297 4.57542969 43.22847656 3.28515625 43.23046875 C1.55084351 43.23663208 1.55084351 43.23663208 -0.21850586 43.24291992 C-3 43 -3 43 -5 41 C-6.24688278 28.47616271 -4.22094438 15.45785405 -3 3 C-2.67 3 -2.34 3 -2 3 C-1.97287675 5.87506421 -1.95310149 8.74986908 -1.9375 11.625 C-1.92912109 12.43324219 -1.92074219 13.24148437 -1.91210938 14.07421875 C-1.90888672 14.86699219 -1.90566406 15.65976563 -1.90234375 16.4765625 C-1.89710693 17.19924316 -1.89187012 17.92192383 -1.88647461 18.66650391 C-2.02265714 21.46571381 -2.53926845 24.2356107 -3 27 C-3 31.29 -3 35.58 -3 40 C10.86 40.495 10.86 40.495 25 41 C24.690625 38.81375 24.38125 36.6275 24.0625 34.375 C22.98464432 26.30319311 22.60426384 18.23601773 22.34204102 10.10107422 C22.31037842 9.19244629 22.27871582 8.28381836 22.24609375 7.34765625 C22.22216553 6.53304932 22.1982373 5.71844238 22.17358398 4.87915039 C22.20072246 2.9876998 22.20072246 2.9876998 21 2 C19.44051458 1.84313751 17.87457332 1.74923361 16.30859375 1.68359375 C15.36435547 1.64169922 14.42011719 1.59980469 13.44726562 1.55664062 C12.45404297 1.51732422 11.46082031 1.47800781 10.4375 1.4375 C9.44041016 1.39431641 8.44332031 1.35113281 7.41601562 1.30664062 C4.9441585 1.20019702 2.4721969 1.09818072 0 1 C0 0.67 0 0.34 0 0 Z " fill="#B5D69B" transform="translate(210,180)"/>
<path d="M0 0 C1.72974441 0.00015918 3.45949355 0.0058569 5.18920898 0.01586914 C6.09783188 0.01728409 7.00645477 0.01869904 7.94261169 0.02015686 C10.85687494 0.02577346 13.77106254 0.03832874 16.68530273 0.05102539 C18.65600475 0.05603825 20.62670797 0.06060153 22.59741211 0.06469727 C27.43923832 0.07574828 32.28100768 0.09302401 37.12280273 0.11352539 C36.98409493 4.0513105 36.83561782 7.98866762 36.68530273 11.92602539 C36.64598633 13.04557617 36.60666992 14.16512695 36.56616211 15.31860352 C36.50332031 16.92832031 36.50332031 16.92832031 36.43920898 18.57055664 C36.40255127 19.56031494 36.36589355 20.55007324 36.328125 21.56982422 C36.12280273 24.11352539 36.12280273 24.11352539 35.12280273 27.11352539 C41.39280273 27.11352539 47.66280273 27.11352539 54.12280273 27.11352539 C54.12280273 19.52352539 54.12280273 11.93352539 54.12280273 4.11352539 C54.45280273 4.11352539 54.78280273 4.11352539 55.12280273 4.11352539 C55.37689249 7.9039572 55.59683866 11.69560592 55.81030273 15.48852539 C55.88313477 16.56875977 55.9559668 17.64899414 56.03100586 18.76196289 C56.11318359 20.30883789 56.11318359 20.30883789 56.19702148 21.88696289 C56.25462646 22.84006348 56.31223145 23.79316406 56.37158203 24.77514648 C56.28948486 25.54681152 56.2073877 26.31847656 56.12280273 27.11352539 C52.91873811 29.24956847 52.12679526 29.35561447 48.45483398 29.30883789 C47.5621582 29.30239258 46.66948242 29.29594727 45.74975586 29.28930664 C44.82098633 29.27254883 43.8922168 29.25579102 42.93530273 29.23852539 C41.99493164 29.22950195 41.05456055 29.22047852 40.08569336 29.21118164 C37.76447306 29.18761595 35.4437663 29.15471655 33.12280273 29.11352539 C33.06759224 26.69653268 33.02856886 24.28086348 32.99780273 21.86352539 C32.98104492 21.20094727 32.96428711 20.53836914 32.94702148 19.85571289 C32.88683142 13.47556594 33.95311347 7.37208823 35.12280273 1.11352539 C29.78380044 1.18241329 24.44558051 1.27038496 19.10717773 1.37597656 C17.29151085 1.40920975 15.47574105 1.43724673 13.65991211 1.45996094 C11.04813832 1.4935368 8.43730619 1.54585302 5.82592773 1.60180664 C4.61009003 1.61139153 4.61009003 1.61139153 3.36968994 1.62117004 C-0.95062006 1.73362031 -3.75816209 1.96886434 -6.87719727 5.11352539 C-4.46618716 0.13077117 -4.46618716 0.13077117 0 0 Z " fill="#A4CC83" transform="translate(175.877197265625,137.886474609375)"/>
<path d="M0 0 C0.99 0 1.98 0 3 0 C3 6.6 3 13.2 3 20 C6.63 20 10.26 20 14 20 C14 13.4 14 6.8 14 0 C14.99 0.33 15.98 0.66 17 1 C17 8.26 17 15.52 17 23 C11.06 23 5.12 23 -1 23 C-0.67 15.41 -0.34 7.82 0 0 Z " fill="#6CA042" transform="translate(212,142)"/>
<path d="M0 0 C2.22720121 3.34080181 2.40541959 5.02003653 2.78125 8.9609375 C2.90113281 10.15589844 3.02101563 11.35085937 3.14453125 12.58203125 C3.26183594 13.83371094 3.37914062 15.08539063 3.5 16.375 C4.19855038 23.5984715 4.92199177 30.78192394 6.07421875 37.94921875 C7.79880999 48.76456361 7.38184708 58.66864927 4.80078125 69.34765625 C3.38032232 75.82633477 2.72712087 82.41314033 2 89 C1.67 89 1.34 89 1 89 C0.39513798 68.46829489 0.39513798 68.46829489 4.0625 60.76953125 C5.52112126 56.46052095 5.20791944 52.2002311 5.125 47.6875 C5.11597656 46.75615234 5.10695313 45.82480469 5.09765625 44.86523438 C5.07418263 42.5765564 5.04134729 40.28841328 5 38 C3.515 38.495 3.515 38.495 2 39 C1.34 26.13 0.68 13.26 0 0 Z " fill="#96C471" transform="translate(419,168)"/>
<path d="M0 0 C1 2 1 2 0.375 4.8125 C-1 8 -1 8 -3.5 10.25 C-6.63048166 13.69352983 -6.720516 16.17529197 -7.40625 20.65234375 C-8.26418345 24.04456747 -10.53451596 25.59615306 -13 28 C-13.69798112 30.3033377 -14.1119787 32.53194534 -14.4453125 34.9140625 C-15.11529782 37.43358477 -15.92649746 38.44239283 -18 40 C-18.99 40 -19.98 40 -21 40 C-20.69707031 39.43023437 -20.39414062 38.86046875 -20.08203125 38.2734375 C-19.03292332 36.06917462 -18.35744354 33.96774733 -17.6875 31.625 C-16.27024031 27.20775405 -13.97147285 24.56576742 -11 21 C-10.11821499 18.72974396 -10.11821499 18.72974396 -9.4375 16.3125 C-8.29122615 12.42933634 -7.27224987 11.37981809 -4 9 C-2.45949538 6.0819793 -1.2092594 3.06817413 0 0 Z " fill="#8EC066" transform="translate(56,106)"/>
<path d="M0 0 C0.66 0 1.32 0 2 0 C1.67 1.98 1.34 3.96 1 6 C0.21625 6.061875 -0.5675 6.12375 -1.375 6.1875 C-2.24125 6.455625 -3.1075 6.72375 -4 7 C-4.309375 7.78375 -4.61875 8.5675 -4.9375 9.375 C-6.40331636 12.99642866 -8.59196955 13.29598478 -12 15 C-13.42557356 17.55721737 -13.42557356 17.55721737 -14 20 C-15.32 20 -16.64 20 -18 20 C-18.33 22.31 -18.66 24.62 -19 27 C-21.31 27.66 -23.62 28.32 -26 29 C-24.85284551 25.55853654 -23.61227933 24.4671527 -21 22 C-16.83744032 17.95637059 -13.00996423 13.66820878 -9.18359375 9.3046875 C-7.22238184 7.23471428 -5.39019278 5.54629808 -3 4 C-2.34 4 -1.68 4 -1 4 C-0.67 2.68 -0.34 1.36 0 0 Z " fill="#99C675" transform="translate(88,71)"/>
<path d="M0 0 C0.66 0 1.32 0 2 0 C2.33 1.32 2.66 2.64 3 4 C9.6 4 16.2 4 23 4 C23.66 2.68 24.32 1.36 25 0 C25.66 0 26.32 0 27 0 C27 2.31 27 4.62 27 7 C22.52084672 7.02886338 18.04171709 7.04675187 13.5625 7.0625 C12.28310547 7.07087891 11.00371094 7.07925781 9.68554688 7.08789062 C7.86313477 7.09272461 7.86313477 7.09272461 6.00390625 7.09765625 C4.87799072 7.10289307 3.7520752 7.10812988 2.59204102 7.11352539 C0 7 0 7 -1 6 C-1.125 3.5 -1.125 3.5 -1 1 C-0.67 0.67 -0.34 0.34 0 0 Z " fill="#65963D" transform="translate(207,214)"/>
<path d="M0 0 C7.26 0 14.52 0 22 0 C22.33 1.32 22.66 2.64 23 4 C22.01 4.33 21.02 4.66 20 5 C19.34 4.67 18.68 4.34 18 4 C16.62451844 3.91691362 15.24514204 3.89263984 13.8671875 3.90234375 C13.06152344 3.90556641 12.25585938 3.90878906 11.42578125 3.91210938 C10.16314453 3.92467773 10.16314453 3.92467773 8.875 3.9375 C7.60076172 3.94426758 7.60076172 3.94426758 6.30078125 3.95117188 C4.20049091 3.96297126 2.1002367 3.98090694 0 4 C0 2.68 0 1.36 0 0 Z " fill="#6FA344" transform="translate(209,181)"/>
<path d="M0 0 C5.10863896 -0.0246501 10.21724359 -0.04283607 15.32592773 -0.05493164 C17.06519168 -0.05997204 18.80445136 -0.0668043 20.54370117 -0.07543945 C23.03825937 -0.08751792 25.53276173 -0.09323108 28.02734375 -0.09765625 C28.80963852 -0.10281754 29.59193329 -0.10797882 30.39793396 -0.11329651 C32.26567114 -0.11349226 34.13329204 -0.06199694 36 0 C37 1 37 1 37.11352539 4.14282227 C37.11336633 5.53402697 37.10767506 6.92523761 37.09765625 8.31640625 C37.0962413 9.04746078 37.09482635 9.77851532 37.09336853 10.53172302 C37.08775408 12.87535632 37.07519922 15.21889539 37.0625 17.5625 C37.05748686 19.14778508 37.05292363 20.73307166 37.04882812 22.31835938 C37.03777997 26.2122761 37.02050572 30.10612205 37 34 C36.67 34 36.34 34 36 34 C35.67 23.44 35.34 12.88 35 2 C23.45 1.67 11.9 1.34 0 1 C0 0.67 0 0.34 0 0 Z " fill="#D9EACC" transform="translate(203,243)"/>
<path d="M0 0 C0.33 0 0.66 0 1 0 C3.02866992 13.24602126 3.02866992 13.24602126 0.54296875 17.484375 C-1.2214149 19.16610931 -3.02607018 20.57747311 -5 22 C-6.35091528 24.70183055 -6.33858058 27.11808206 -6.5625 30.125 C-6.64628906 31.22070312 -6.73007812 32.31640625 -6.81640625 33.4453125 C-6.87699219 34.28835937 -6.93757813 35.13140625 -7 36 C-7.33 36 -7.66 36 -8 36 C-8.79154591 27.04380464 -7.58103731 21.07396856 -3.46875 13.1015625 C-1.45477645 8.84865028 -0.60758802 4.64071541 0 0 Z " fill="#96C470" transform="translate(34,146)"/>
<path d="M0 0 C0.99 0 1.98 0 3 0 C3 6.6 3 13.2 3 20 C6.63 20 10.26 20 14 20 C14 20.33 14 20.66 14 21 C12.04174127 21.02694851 10.08337774 21.04637218 8.125 21.0625 C7.03445312 21.07410156 5.94390625 21.08570313 4.8203125 21.09765625 C2 21 2 21 0 20 C0 13.4 0 6.8 0 0 Z " fill="#70A644" transform="translate(212,142)"/>
<path d="M0 0 C0.66 0.33 1.32 0.66 2 1 C0 4 0 4 -2.20703125 4.5546875 C-3.49673828 4.71324219 -3.49673828 4.71324219 -4.8125 4.875 C-9.7557717 5.71068204 -11.57732674 7.29981269 -15 11 C-19.16287381 12.60672323 -21.7565606 13.2813887 -26 12 C-25.38511719 11.74605469 -24.77023438 11.49210937 -24.13671875 11.23046875 C-23.32847656 10.88628906 -22.52023438 10.54210938 -21.6875 10.1875 C-20.88699219 9.85105469 -20.08648437 9.51460937 -19.26171875 9.16796875 C-16.98456015 8.15666932 -16.98456015 8.15666932 -15.62109375 6.49609375 C-13.19186099 4.25417532 -10.52867705 3.76306427 -7.375 2.875 C-3.38110157 2.02049467 -3.38110157 2.02049467 0 0 Z " fill="#93C36C" transform="translate(155,31)"/>
<path d="M0 0 C3.52456551 0.45186737 6.68319112 1.20997073 10 2.4375 C16.14943028 4.5892732 22.55945304 5.22127099 29 6 C29 6.33 29 6.66 29 7 C25.89591193 7.05807043 22.7919636 7.09361914 19.6875 7.125 C18.36588867 7.15013672 18.36588867 7.15013672 17.01757812 7.17578125 C16.17001953 7.18222656 15.32246094 7.18867188 14.44921875 7.1953125 C13.27879028 7.21102295 13.27879028 7.21102295 12.0847168 7.22705078 C10 7 10 7 7 5 C7 4.34 7 3.68 7 3 C4.69 2.34 2.38 1.68 0 1 C0 0.67 0 0.34 0 0 Z " fill="#97C571" transform="translate(254,22)"/>
<path d="M0 0 C0.99 0.598125 1.98 1.19625 3 1.8125 C6.29450871 3.71420828 9.58817699 5.02739299 13.203125 6.19140625 C15 7 15 7 16.50390625 8.515625 C18.88429328 10.8773667 21.81509336 11.21879648 25 12 C25 12.33 25 12.66 25 13 C17.57142857 13.14285714 17.57142857 13.14285714 14 12 C13.67 10.68 13.34 9.36 13 8 C12.30132812 7.86722656 11.60265625 7.73445313 10.8828125 7.59765625 C9.97273438 7.42105469 9.06265625 7.24445312 8.125 7.0625 C7.22007812 6.88847656 6.31515625 6.71445312 5.3828125 6.53515625 C3 6 3 6 1 5 C0.375 2.4375 0.375 2.4375 0 0 Z " fill="#94C36D" transform="translate(303,37)"/>
<path d="M0 0 C0.66 0 1.32 0 2 0 C1.42655063 2.86724686 1.1385485 3.8614515 -1 6 C-2.27875 6.12375 -3.5575 6.2475 -4.875 6.375 C-8.90007338 6.78113353 -10.34144405 7.88307234 -13 11 C-15.5 12.8125 -15.5 12.8125 -18 14 C-20.15625 13.57421875 -20.15625 13.57421875 -22 13 C-21.20335938 12.63648438 -21.20335938 12.63648438 -20.390625 12.265625 C-15.83605283 10.12760024 -15.83605283 10.12760024 -12 6.9375 C-9.49751978 4.51322229 -7.08271977 3.76238181 -3.8046875 2.7109375 C-1.78999386 2.05581127 -1.78999386 2.05581127 0 0 Z " fill="#9EC97A" transform="translate(127,44)"/>
<path d="M0 0 C4.36941601 3.64118001 5.61583426 7.68441756 6.25048828 13.16186523 C6.41537546 15.42032735 6.53194007 17.67498045 6.625 19.9375 C6.66367187 20.71673828 6.70234375 21.49597656 6.7421875 22.29882812 C6.83544127 24.19887379 6.91875962 26.09940278 7 28 C4.6001247 25.6001247 4.52598796 24.43009707 3.96484375 21.1328125 C3.79533203 20.16472656 3.62582031 19.19664062 3.45117188 18.19921875 C3.28166016 17.18472656 3.11214844 16.17023438 2.9375 15.125 C2.59348738 13.12742488 2.24847366 11.13002184 1.90234375 9.1328125 C1.75273193 8.24480957 1.60312012 7.35680664 1.44897461 6.44189453 C1.04859913 4.26432216 0.56529785 2.13985616 0 0 Z " fill="#97C571" transform="translate(22,236)"/>
<path d="M0 0 C1.65 0 3.3 0 5 0 C5 0.99 5 1.98 5 3 C5.66 3 6.32 3 7 3 C7 4.65 7 6.3 7 8 C8.65 8.33 10.3 8.66 12 9 C12 10.65 12 12.3 12 14 C12.66 14 13.32 14 14 14 C14 15.98 14 17.96 14 20 C12.68268841 18.02403261 11.3700619 16.04493255 10.0625 14.0625 C8.87741537 12.30282888 7.66372055 10.56024995 6.375 8.875 C5 7 5 7 4 4.9375 C2.931536 2.867351 1.71442421 1.55856747 0 0 Z " fill="#99C674" transform="translate(125,442)"/>
<path d="M0 0 C3 1 3 1 4.625 4.125 C6.03384712 7.6876867 6.61080967 11.1859348 7 15 C7.639375 15.12375 8.27875 15.2475 8.9375 15.375 C9.618125 15.58125 10.29875 15.7875 11 16 C12.35439668 18.70879335 12.06501451 21.00933268 12 24 C7.4015841 18.4501877 4.78975989 14.19582598 3.625 7.0859375 C2.89551961 4.65129671 1.8225754 3.71361709 0 2 C0 1.34 0 0.68 0 0 Z " fill="#9DC879" transform="translate(35,282)"/>
<path d="M0 0 C0.66 0 1.32 0 2 0 C1.67 1.98 1.34 3.96 1 6 C0.21625 6.061875 -0.5675 6.12375 -1.375 6.1875 C-2.24125 6.455625 -3.1075 6.72375 -4 7 C-4.33 7.825 -4.66 8.65 -5 9.5 C-5.495 10.7375 -5.495 10.7375 -6 12 C-8.625 12.8125 -8.625 12.8125 -11 13 C-9.4114658 8.71095765 -6.56872632 6.67654474 -3 4 C-2.34 4 -1.68 4 -1 4 C-0.67 2.68 -0.34 1.36 0 0 Z " fill="#97C572" transform="translate(88,71)"/>
<path d="M0 0 C5.94 0 11.88 0 18 0 C18 0.99 18 1.98 18 3 C12.06 3 6.12 3 0 3 C0 2.01 0 1.02 0 0 Z " fill="#64943C" transform="translate(211,162)"/>
<path d="M0 0 C-0.53512885 2.67564426 -1.36260488 4.80075245 -2.5 7.3125 C-3.98140013 10.95427533 -4.60264469 14.10591801 -5 18 C-5.33 18 -5.66 18 -6 18 C-6.10823773 15.75106046 -6.18569645 13.50062425 -6.25 11.25 C-6.29640625 9.99703125 -6.3428125 8.7440625 -6.390625 7.453125 C-6 4 -6 4 -4.109375 1.546875 C-2 0 -2 0 0 0 Z " fill="#96C571" transform="translate(420,257)"/>
<path d="M0 0 C0.66 1.32 1.32 2.64 2 4 C2.66 4 3.32 4 4 4 C4.33 4.99 4.66 5.98 5 7 C5.99 7.66 6.98 8.32 8 9 C9.1577506 12.47325181 9.06866652 15.36067448 9 19 C6.89829496 16.89829496 6.19721704 15.39897245 5.0625 12.6875 C3.91324845 10.00591304 2.7724233 7.62612399 1.25 5.125 C0 3 0 3 0 0 Z " fill="#9DC87A" transform="translate(47,308)"/>
<path d="M0 0 C1.875 0.1875 1.875 0.1875 4 1 C6.00142526 4.83606508 6.2191024 8.03084062 6.125 12.3125 C6.10695313 13.38113281 6.08890625 14.44976562 6.0703125 15.55078125 C6.03550781 16.76314453 6.03550781 16.76314453 6 18 C5.67 18 5.34 18 5 18 C4.70996094 16.67935547 4.70996094 16.67935547 4.4140625 15.33203125 C4.15367188 14.17058594 3.89328125 13.00914062 3.625 11.8125 C3.36976562 10.66394531 3.11453125 9.51539063 2.8515625 8.33203125 C2.10527548 5.41192652 1.19568212 2.76046611 0 0 Z " fill="#96C470" transform="translate(29,264)"/>
<path d="M0 0 C0.33 0.99 0.66 1.98 1 3 C0.4225 3.66 -0.155 4.32 -0.75 5 C-3.94844807 9.26459743 -4.81269572 13.8640095 -6 19 C-6.33 19 -6.66 19 -7 19 C-7.22531319 13.59248339 -6.74724431 9.15437071 -5 4 C-2.9375 2.625 -2.9375 2.625 -1 2 C-0.67 1.34 -0.34 0.68 0 0 Z " fill="#9AC675" transform="translate(412,278)"/>
<path d="M0 0 C1.48555383 0.92734572 2.96327506 1.86724813 4.4375 2.8125 C5.26121094 3.33457031 6.08492188 3.85664062 6.93359375 4.39453125 C9 6 9 6 10 9 C11.65204456 9.70211894 13.31923769 10.36971413 15 11 C15.33 11.66 15.66 12.32 16 13 C12.625 12.25 12.625 12.25 9 11 C7.875 9 7.875 9 7 7 C6.175 6.690625 5.35 6.38125 4.5 6.0625 C2 5 2 5 0.84375 2.43359375 C0.42609375 1.22896484 0.42609375 1.22896484 0 0 Z " fill="#9EC97B" transform="translate(349,66)"/>
<path d="M0 0 C0 0.99 0 1.98 0 3 C-0.99 3.495 -0.99 3.495 -2 4 C-2.78015621 5.82510997 -3.47795406 7.68606676 -4.125 9.5625 C-4.47820312 10.57441406 -4.83140625 11.58632813 -5.1953125 12.62890625 C-5.46085937 13.41136719 -5.72640625 14.19382812 -6 15 C-6.66 14.67 -7.32 14.34 -8 14 C-7.34 11.36 -6.68 8.72 -6 6 C-5.34 6 -4.68 6 -4 6 C-4 4.35 -4 2.7 -4 1 C-2.68 0.67 -1.36 0.34 0 0 Z " fill="#9DC879" transform="translate(391,324)"/>
<path d="M0 0 C1 2 1 2 0.375 4.8125 C-1.18583098 8.43079 -3.2386288 10.2386288 -6 13 C-6.87238858 15.67790896 -6.87238858 15.67790896 -7 18 C-7.66 18 -8.32 18 -9 18 C-8.75 15.1875 -8.75 15.1875 -8 12 C-7.401875 11.566875 -6.80375 11.13375 -6.1875 10.6875 C-2.69604687 7.9940933 -1.58657102 4.025502 0 0 Z " fill="#A4CC84" transform="translate(56,106)"/>
<path d="M0 0 C0.33 0.99 0.66 1.98 1 3 C-0.14453125 4.61328125 -0.14453125 4.61328125 -1.8125 6.3125 C-4.6098647 9.36299051 -6.00429559 11.91761192 -7 16 C-7.33 16 -7.66 16 -8 16 C-8 13.69 -8 11.38 -8 9 C-7.01 8.67 -6.02 8.34 -5 8 C-5 7.01 -5 6.02 -5 5 C-4.01 4.67 -3.02 4.34 -2 4 C-0.79117904 1.99983534 -0.79117904 1.99983534 0 0 Z " fill="#9DC87A" transform="translate(358,379)"/>
<path d="M0 0 C0.99 0.33 1.98 0.66 3 1 C3 1.66 3 2.32 3 3 C3.66 3 4.32 3 5 3 C5.33 4.32 5.66 5.64 6 7 C6.66 7 7.32 7 8 7 C8 9.31 8 11.62 8 14 C6.8105476 12.2158214 5.65178031 10.40954052 4.5625 8.5625 C3.06581583 6.00292471 3.06581583 6.00292471 1.3125 3.8125 C0 2 0 2 0 0 Z " fill="#9CC878" transform="translate(117,428)"/>
<path d="M0 0 C0.33 0.66 0.66 1.32 1 2 C0.01 2.66 -0.98 3.32 -2 4 C-3.01324326 6.40972598 -3.01324326 6.40972598 -3.6875 9.125 C-3.93886719 10.03507812 -4.19023437 10.94515625 -4.44921875 11.8828125 C-4.63097656 12.58148438 -4.81273437 13.28015625 -5 14 C-5.33 14 -5.66 14 -6 14 C-6.05447047 12.58376784 -6.09300508 11.16691809 -6.125 9.75 C-6.14820313 8.96109375 -6.17140625 8.1721875 -6.1953125 7.359375 C-5.97954438 4.75289611 -5.40935125 3.19232417 -4 1 C-1.875 0.25 -1.875 0.25 0 0 Z " fill="#9AC775" transform="translate(398,310)"/>
<path d="M0 0 C2.10762603 2.10762603 2.84505738 3.65908025 4 6.375 C5.25192661 9.29942231 6.55131355 12.1673006 8 15 C5.125 14.5625 5.125 14.5625 2 13 C0.21546852 8.77826117 0 4.53920722 0 0 Z " fill="#99C674" transform="translate(398,120)"/>
<path d="M0 0 C5.10699665 3.66371499 6.44058117 5.7623247 8 12 C8.99 12.33 9.98 12.66 11 13 C9 14 9 14 7 13.5 C4.02456854 11.26842641 3.92537289 8.51641699 3 5 C1.47992158 3.22722741 1.47992158 3.22722741 0 2 C0 1.34 0 0.68 0 0 Z " fill="#A2CB80" transform="translate(387,106)"/>
<path d="M0 0 C0.78375 0.04125 1.5675 0.0825 2.375 0.125 C1.375 3.125 1.375 3.125 -1.625 5.125 C-2.82950304 7.67683404 -2.82950304 7.67683404 -3.625 10.125 C-3.955 10.125 -4.285 10.125 -4.625 10.125 C-4.8203125 4.0703125 -4.8203125 4.0703125 -4.625 2.125 C-2.625 0.125 -2.625 0.125 0 0 Z " fill="#91C06A" transform="translate(334.625,413.875)"/>
<path d="M0 0 C0.33 0 0.66 0 1 0 C1.08121924 1.60332791 1.13929134 3.20784026 1.1875 4.8125 C1.22230469 5.70582031 1.25710937 6.59914062 1.29296875 7.51953125 C1 10 1 10 -0.32421875 11.82421875 C-2 13 -2 13 -5 13 C-4.70351563 12.43796875 -4.40703125 11.8759375 -4.1015625 11.296875 C-2.99056497 8.98032695 -2.16535294 6.69290908 -1.375 4.25 C-1.11460938 3.45078125 -0.85421875 2.6515625 -0.5859375 1.828125 C-0.39257812 1.22484375 -0.19921875 0.6215625 0 0 Z " fill="#99C674" transform="translate(40,133)"/>
<path d="M0 0 C0.33 0.66 0.66 1.32 1 2 C0.21625 2.20625 -0.5675 2.4125 -1.375 2.625 C-4.30916286 3.80676612 -4.30916286 3.80676612 -5.3125 7.125 C-5.539375 8.07375 -5.76625 9.0225 -6 10 C-7.98 10 -9.96 10 -12 10 C-11 8 -11 8 -8 7 C-7.319375 5.7934375 -7.319375 5.7934375 -6.625 4.5625 C-4.7163149 1.55265042 -3.35034331 0.99604801 0 0 Z " fill="#A3CB81" transform="translate(102,61)"/>
<path d="M0 0 C0.66 0.33 1.32 0.66 2 1 C0 4 0 4 -2.20703125 4.6953125 C-3.49673828 4.90800781 -3.49673828 4.90800781 -4.8125 5.125 C-6.09060547 5.34542969 -6.09060547 5.34542969 -7.39453125 5.5703125 C-8.68423828 5.78300781 -8.68423828 5.78300781 -10 6 C-11.66781008 6.32756436 -13.33484484 6.65919625 -15 7 C-14 5 -14 5 -11.09375 3.96484375 C-9.9078125 3.62582031 -8.721875 3.28679688 -7.5 2.9375 C-3.44157905 2.05586097 -3.44157905 2.05586097 0 0 Z " fill="#9FC97C" transform="translate(155,31)"/>
<path d="M0 0 C1.98 0.99 1.98 0.99 4 2 C4 2.66 4 3.32 4 4 C4.66 4 5.32 4 6 4 C6.99 6.97 7.98 9.94 9 13 C6 12 6 12 4.6484375 9.78515625 C4.22820312 8.88667969 3.80796875 7.98820312 3.375 7.0625 C2.94960937 6.16660156 2.52421875 5.27070313 2.0859375 4.34765625 C1.72757812 3.57292969 1.36921875 2.79820312 1 2 C0.67 1.34 0.34 0.68 0 0 Z " fill="#A2CB80" transform="translate(105,410)"/>
<path d="M0 0 C2.475 0.99 2.475 0.99 5 2 C5 2.99 5 3.98 5 5 C5.66 5 6.32 5 7 5 C7 7.64 7 10.28 7 13 C6.67 13 6.34 13 6 13 C5.7525 11.9275 5.505 10.855 5.25 9.75 C3.98470426 5.95411278 2.8930687 4.60376183 0 2 C0 1.34 0 0.68 0 0 Z " fill="#A1CB7F" transform="translate(62,339)"/>
<path d="M0 0 C2.3552495 0.4060775 3.67211303 0.64088569 5.3125 2.4375 C7.84065298 4.77838239 10.71112757 5.19329544 14 6 C14 6.33 14 6.66 14 7 C6.57142857 7.14285714 6.57142857 7.14285714 3 6 C2.814375 5.071875 2.814375 5.071875 2.625 4.125 C2.12802644 1.80879168 2.12802644 1.80879168 0 0 Z " fill="#A1CB80" transform="translate(314,43)"/>
<path d="M0 0 C2.1479894 0.44812018 4.29336561 0.90878348 6.4375 1.375 C8.22994141 1.75785156 8.22994141 1.75785156 10.05859375 2.1484375 C11.51458984 2.56996094 11.51458984 2.56996094 13 3 C13.33 3.66 13.66 4.32 14 5 C12.0412957 4.85923685 10.08303907 4.7122324 8.125 4.5625 C7.03445313 4.48128906 5.94390625 4.40007813 4.8203125 4.31640625 C2 4 2 4 0 3 C0 2.01 0 1.02 0 0 Z " fill="#9CC878" transform="translate(289,32)"/>
<path d="M0 0 C2.0625 0.4375 2.0625 0.4375 4 1 C3.54625 1.495 3.0925 1.99 2.625 2.5 C0.41840633 5.89475949 -0.14391425 9.04883498 -1 13 C-2.30102931 8.67941758 -1.72449924 5.41944536 -1 1 C-0.67 0.67 -0.34 0.34 0 0 Z " fill="#9EC97B" transform="translate(401,297)"/>
<path d="M0 0 C2.54384726 1.27192363 2.69368156 2.19948469 3.6875 4.8125 C3.95949219 5.49957031 4.23148437 6.18664062 4.51171875 6.89453125 C5.06812731 9.29376496 4.77364938 10.6894364 4 13 C4 12.01 4 11.02 4 10 C3.34 10 2.68 10 2 10 C-0.09350689 6.5980513 -0.17942163 3.94727588 0 0 Z " fill="#C6DFB1" transform="translate(304,224)"/>
<path d="M0 0 C0.66 0.33 1.32 0.66 2 1 C0.68 2.65 -0.64 4.3 -2 6 C-2 4.35 -2 2.7 -2 1 C-1.34 0.67 -0.68 0.34 0 0 Z M-8 7 C-6.35 7 -4.7 7 -3 7 C-3.45375 7.433125 -3.9075 7.86625 -4.375 8.3125 C-6.20024334 10.10798342 -6.20024334 10.10798342 -8 13 C-8 11.02 -8 9.04 -8 7 Z " fill="#71A744" transform="translate(71,92)"/>
<path d="M0 0 C1.98 0.66 3.96 1.32 6 2 C6.33 4.97 6.66 7.94 7 11 C5.24847934 8.37271902 3.62391115 5.70651859 2 3 C1.34 2.01 0.68 1.02 0 0 Z " fill="#A0CA7D" transform="translate(69,352)"/>
<path d="M0 0 C-0.61875 0.556875 -1.2375 1.11375 -1.875 1.6875 C-4.06106379 4.06645178 -4.98785699 5.96357096 -6 9 C-7.16909807 5.49270578 -6.85056945 3.55692677 -6 0 C-3.50907189 -1.24546405 -2.58919267 -0.7767578 0 0 Z " fill="#9CC879" transform="translate(350,396)"/>
<path d="M0 0 C0.33 0.99 0.66 1.98 1 3 C-0.40445835 5.2636564 -2.1967913 7.0208685 -4 9 C-5.0625 7.125 -5.0625 7.125 -6 5 C-5.67 4.34 -5.34 3.68 -5 3 C-3.66666667 2.66666667 -2.33333333 2.33333333 -1 2 C-0.67 1.34 -0.34 0.68 0 0 Z " fill="#99C674" transform="translate(364,370)"/>
<path d="M0 0 C2.9375 1 2.9375 1 6 3 C6.86518243 5.75878925 6.90393194 8.06992426 7 11 C5 9 5 9 4.625 6.5 C4.26352314 3.83529804 4.26352314 3.83529804 1.9375 2.6875 C1.298125 2.460625 0.65875 2.23375 0 2 C0 1.34 0 0.68 0 0 Z " fill="#A4CC84" transform="translate(76,364)"/>
<path d="M0 0 C0.99 0 1.98 0 3 0 C2.67 1.32 2.34 2.64 2 4 C0.35 4.33 -1.3 4.66 -3 5 C-1.125 1.125 -1.125 1.125 0 0 Z " fill="#8BBE62" transform="translate(80,79)"/>
<path d="M0 0 C0.66 0 1.32 0 2 0 C1.75 1.875 1.75 1.875 1 4 C-1.0625 5.25 -1.0625 5.25 -3 6 C-2.42655063 3.13275314 -2.1385485 2.1385485 0 0 Z " fill="#8CBF62" transform="translate(127,44)"/>
</svg>
