<?xml version="1.0" encoding="UTF-8"?>
<svg version="1.1" xmlns="http://www.w3.org/2000/svg" width="240" height="315">
<path d="M0 0 C1.19424339 -0.00430527 1.19424339 -0.00430527 2.41261292 -0.00869751 C4.08929153 -0.01073053 5.76599428 -0.00525415 7.44262695 0.00732422 C9.99289658 0.02336824 12.54157652 0.00746139 15.09179688 -0.01171875 C16.72786804 -0.00973577 18.36393823 -0.00589095 20 0 C20.75437851 -0.00607269 21.50875702 -0.01214539 22.28599548 -0.0184021 C27.44222628 0.04923784 30.92365914 1.16067995 35.56640625 3.3984375 C37.67880983 3.93039315 39.80484877 4.41126373 41.94140625 4.8359375 C47.60358985 6.09706021 52.42005586 7.75680537 57.56640625 10.3984375 C59.28150391 11.24921875 59.28150391 11.24921875 61.03125 12.1171875 C86.12189466 24.81918503 108.1979091 45.85888974 118.56640625 72.3984375 C118.97117188 73.38585937 119.3759375 74.37328125 119.79296875 75.390625 C122.87707834 83.3443813 124.40039016 90.64546053 125.20703125 99.09765625 C125.44845719 102.39740399 125.44845719 102.39740399 126.56640625 105.3984375 C128.30809176 125.29933591 121.11672391 144.78664188 112.56640625 162.3984375 C112.21578125 163.12804687 111.86515625 163.85765625 111.50390625 164.609375 C109.15830624 169.39830836 106.58118691 174.05708111 104.0078125 178.7265625 C102.77569704 181.01048385 101.62399234 183.30850057 100.50390625 185.6484375 C98.91354006 188.88831572 96.99451447 191.67302312 94.84375 194.5625 C93.463575 196.54623777 92.33132922 198.58058965 91.19140625 200.7109375 C88.91352055 204.91299995 86.28136221 208.73624694 83.50390625 212.62109375 C81.35456952 215.70209862 79.32915519 218.85268079 77.31640625 222.0234375 C73.82734435 227.49011768 70.2659926 232.9040062 66.62890625 238.2734375 C66.15614258 238.98193848 65.68337891 239.69043945 65.19628906 240.42041016 C64.03857836 242.11662028 62.80875808 243.76320517 61.56640625 245.3984375 C60.90640625 245.3984375 60.24640625 245.3984375 59.56640625 245.3984375 C59.30730469 246.12160156 59.04820312 246.84476563 58.78125 247.58984375 C55.1836027 255.90723413 48.33077575 263.02477445 42.72509766 270.11035156 C37.49600846 276.72645257 32.24552883 283.37975363 27.56640625 290.3984375 C26.90640625 290.3984375 26.24640625 290.3984375 25.56640625 290.3984375 C25.32921875 290.95144531 25.09203125 291.50445312 24.84765625 292.07421875 C23.2579778 294.95793424 21.28124558 297.15177155 19.06640625 299.5859375 C18.27234375 300.46636719 17.47828125 301.34679687 16.66015625 302.25390625 C13.99214488 304.98662686 13.09716598 305.33106942 9.2734375 305.81640625 C5.23730546 305.3613313 4.07027846 304.5397026 1.54858398 301.43774414 C1.12134033 300.86789795 0.69409668 300.29805176 0.25390625 299.7109375 C-0.21265381 299.12368896 -0.67921387 298.53644043 -1.15991211 297.93139648 C-2.60502685 296.10212187 -4.01942666 294.25168864 -5.43359375 292.3984375 C-6.29106149 291.30839281 -7.15036569 290.21978962 -8.01171875 289.1328125 C-13.63816779 281.98287726 -18.9303313 274.59817533 -24.17919922 267.16894531 C-25.85492467 264.80375245 -27.54543765 262.44930335 -29.23535156 260.09423828 C-96.08311461 166.86465086 -96.08311461 166.86465086 -101.01171875 128.66796875 C-101.3139797 126.3902776 -101.3139797 126.3902776 -102.44335938 124.54345703 C-103.56408164 122.11577807 -103.69157104 120.47027158 -103.69921875 117.80859375 C-103.70179687 116.94169922 -103.704375 116.07480469 -103.70703125 115.18164062 C-103.69929688 114.28380859 -103.6915625 113.38597656 -103.68359375 112.4609375 C-103.69132812 111.56697266 -103.6990625 110.67300781 -103.70703125 109.75195312 C-103.69319729 105.09336666 -103.38610534 101.68113629 -101.43359375 97.3984375 C-100.93172241 94.8559904 -100.47755006 92.32873728 -100.05859375 89.7734375 C-97.30604993 74.39853903 -90.12364036 61.78735794 -82.43359375 48.3984375 C-81.77359375 48.3984375 -81.11359375 48.3984375 -80.43359375 48.3984375 C-80.18480469 47.83382812 -79.93601562 47.26921875 -79.6796875 46.6875 C-75.01302365 38.11488239 -66.01547884 30.48986655 -58.43359375 24.3984375 C-57.77359375 24.3984375 -57.11359375 24.3984375 -56.43359375 24.3984375 C-56.43359375 23.7384375 -56.43359375 23.0784375 -56.43359375 22.3984375 C-54.16893629 20.86148997 -51.92099702 19.45783712 -49.55859375 18.0859375 C-48.874021 17.68294434 -48.18944824 17.27995117 -47.48413086 16.86474609 C-37.6712813 11.13914265 -27.97152873 6.03345935 -16.70703125 4.0234375 C-14.28805727 3.46184817 -14.28805727 3.46184817 -11.81860352 1.88427734 C-7.79369635 0.11755646 -4.31222831 -0.03462023 0 0 Z " fill="#90B546" transform="translate(108.43359375,4.6015625)"/>
<path d="M0 0 C7.26 0 14.52 0 22 0 C21.67 4.95 21.34 9.9 21 15 C24.63 15 28.26 15 32 15 C31.505 7.575 31.505 7.575 31 0 C38.26 0 45.52 0 53 0 C55 4 55 4 55 7 C55.66 7 56.32 7 57 7 C57.67220351 8.93558599 58.33758077 10.87354372 59 12.8125 C59.37125 13.89144531 59.7425 14.97039062 60.125 16.08203125 C61 19 61 19 61 22 C61.66 22 62.32 22 63 22 C63.25394531 22.79664062 63.50789063 23.59328125 63.76953125 24.4140625 C65.53259917 29.84193453 67.35608831 34.93250259 70 40 C71.00450336 42.37150141 71.95202942 44.76027823 72.88671875 47.16015625 C73.67761219 49.17762828 74.4956261 51.18456092 75.33203125 53.18359375 C77.99623399 59.70206097 80.21344052 65.8649883 80 73 C79 74 79 74 75.03100586 74.11352539 C73.25894393 74.1133662 71.4868774 74.10766785 69.71484375 74.09765625 C68.78402481 74.0962413 67.85320587 74.09482635 66.8941803 74.09336853 C63.90858809 74.08775172 60.92306971 74.0751964 57.9375 74.0625 C55.91862087 74.05748716 53.89974057 74.05292388 51.88085938 74.04882812 C46.92054428 74.03777683 41.96028468 74.02050095 37 74 C36.505 65.09 36.505 65.09 36 56 C29.73 56 23.46 56 17 56 C16.67 61.94 16.34 67.88 16 74 C10.03686834 74.02464574 4.07376605 74.042834 -1.8894043 74.05493164 C-3.91968298 74.05997278 -5.94995802 74.06680557 -7.98022461 74.07543945 C-10.89177347 74.08751467 -13.8032745 74.09323034 -16.71484375 74.09765625 C-18.08514992 74.10539818 -18.08514992 74.10539818 -19.48313904 74.11329651 C-21.65575427 74.11349168 -23.82827296 74.06211805 -26 74 C-27 73 -27 73 -27.375 69.625 C-27.32311316 64.77358089 -25.46957669 61.15503105 -23.36328125 56.859375 C-21.62779035 53.21931958 -20.30989263 49.48887358 -18.96484375 45.69140625 C-16.86575523 39.83605407 -14.51698661 34.09667785 -11.9375 28.4375 C-9.95934241 24.05896936 -8.43022749 19.58322901 -7 15 C-6.34 15 -5.68 15 -5 15 C-4.9175 14.01 -4.835 13.02 -4.75 12 C-4 8 -4 8 0 0 Z " fill="#FDFEFD" transform="translate(92,75)"/>
<path d="M0 0 C1.19424339 -0.00430527 1.19424339 -0.00430527 2.41261292 -0.00869751 C4.08929153 -0.01073053 5.76599428 -0.00525415 7.44262695 0.00732422 C9.99289658 0.02336824 12.54157652 0.00746139 15.09179688 -0.01171875 C16.72786804 -0.00973577 18.36393823 -0.00589095 20 0 C20.75437851 -0.00607269 21.50875702 -0.01214539 22.28599548 -0.0184021 C27.44222628 0.04923784 30.92365914 1.16067995 35.56640625 3.3984375 C37.67880983 3.93039315 39.80484877 4.41126373 41.94140625 4.8359375 C47.60358985 6.09706021 52.42005586 7.75680537 57.56640625 10.3984375 C59.28150391 11.24921875 59.28150391 11.24921875 61.03125 12.1171875 C86.12189466 24.81918503 108.1979091 45.85888974 118.56640625 72.3984375 C118.97117188 73.38585937 119.3759375 74.37328125 119.79296875 75.390625 C122.87707834 83.3443813 124.40039016 90.64546053 125.20703125 99.09765625 C125.44845719 102.39740399 125.44845719 102.39740399 126.56640625 105.3984375 C128.30809176 125.29933591 121.11672391 144.78664188 112.56640625 162.3984375 C112.21578125 163.12804687 111.86515625 163.85765625 111.50390625 164.609375 C109.15830624 169.39830836 106.58118691 174.05708111 104.0078125 178.7265625 C102.77569704 181.01048385 101.62399234 183.30850057 100.50390625 185.6484375 C98.91354006 188.88831572 96.99451447 191.67302312 94.84375 194.5625 C93.463575 196.54623777 92.33132922 198.58058965 91.19140625 200.7109375 C88.91352055 204.91299995 86.28136221 208.73624694 83.50390625 212.62109375 C81.35456952 215.70209862 79.32915519 218.85268079 77.31640625 222.0234375 C73.82734435 227.49011768 70.2659926 232.9040062 66.62890625 238.2734375 C66.15614258 238.98193848 65.68337891 239.69043945 65.19628906 240.42041016 C64.03857836 242.11662028 62.80875808 243.76320517 61.56640625 245.3984375 C60.90640625 245.3984375 60.24640625 245.3984375 59.56640625 245.3984375 C59.30730469 246.12160156 59.04820312 246.84476563 58.78125 247.58984375 C55.1836027 255.90723413 48.33077575 263.02477445 42.72509766 270.11035156 C37.49600846 276.72645257 32.24552883 283.37975363 27.56640625 290.3984375 C26.90640625 290.3984375 26.24640625 290.3984375 25.56640625 290.3984375 C25.32921875 290.95144531 25.09203125 291.50445312 24.84765625 292.07421875 C23.2579778 294.95793424 21.28124558 297.15177155 19.06640625 299.5859375 C18.27234375 300.46636719 17.47828125 301.34679687 16.66015625 302.25390625 C13.99214488 304.98662686 13.09716598 305.33106942 9.2734375 305.81640625 C5.23730546 305.3613313 4.07027846 304.5397026 1.54858398 301.43774414 C1.12134033 300.86789795 0.69409668 300.29805176 0.25390625 299.7109375 C-0.21265381 299.12368896 -0.67921387 298.53644043 -1.15991211 297.93139648 C-2.60502685 296.10212187 -4.01942666 294.25168864 -5.43359375 292.3984375 C-6.29106149 291.30839281 -7.15036569 290.21978962 -8.01171875 289.1328125 C-13.63816779 281.98287726 -18.9303313 274.59817533 -24.17919922 267.16894531 C-25.85492467 264.80375245 -27.54543765 262.44930335 -29.23535156 260.09423828 C-96.08311461 166.86465086 -96.08311461 166.86465086 -101.01171875 128.66796875 C-101.3139797 126.3902776 -101.3139797 126.3902776 -102.44335938 124.54345703 C-103.56408164 122.11577807 -103.69157104 120.47027158 -103.69921875 117.80859375 C-103.70179687 116.94169922 -103.704375 116.07480469 -103.70703125 115.18164062 C-103.69929688 114.28380859 -103.6915625 113.38597656 -103.68359375 112.4609375 C-103.69132812 111.56697266 -103.6990625 110.67300781 -103.70703125 109.75195312 C-103.69319729 105.09336666 -103.38610534 101.68113629 -101.43359375 97.3984375 C-100.93172241 94.8559904 -100.47755006 92.32873728 -100.05859375 89.7734375 C-97.30604993 74.39853903 -90.12364036 61.78735794 -82.43359375 48.3984375 C-81.77359375 48.3984375 -81.11359375 48.3984375 -80.43359375 48.3984375 C-80.18480469 47.83382812 -79.93601562 47.26921875 -79.6796875 46.6875 C-75.01302365 38.11488239 -66.01547884 30.48986655 -58.43359375 24.3984375 C-57.77359375 24.3984375 -57.11359375 24.3984375 -56.43359375 24.3984375 C-56.43359375 23.7384375 -56.43359375 23.0784375 -56.43359375 22.3984375 C-54.16893629 20.86148997 -51.92099702 19.45783712 -49.55859375 18.0859375 C-48.874021 17.68294434 -48.18944824 17.27995117 -47.48413086 16.86474609 C-37.6712813 11.13914265 -27.97152873 6.03345935 -16.70703125 4.0234375 C-14.28805727 3.46184817 -14.28805727 3.46184817 -11.81860352 1.88427734 C-7.79369635 0.11755646 -4.31222831 -0.03462023 0 0 Z M-13.43359375 9.3984375 C-15.5546875 9.70703125 -15.5546875 9.70703125 -17.87109375 9.8359375 C-21.72962311 10.18953263 -23.43963366 10.8873742 -26.43359375 13.3984375 C-28.26986511 14.06617254 -30.10695678 14.73178759 -31.94921875 15.3828125 C-41.2507205 19.18531321 -50.41195674 24.21350661 -57.43359375 31.3984375 C-58.71711984 32.53271637 -60.00947738 33.65704848 -61.30859375 34.7734375 C-69.09721789 41.42589133 -69.09721789 41.42589133 -75.43359375 49.3984375 C-75.43359375 50.0584375 -75.43359375 50.7184375 -75.43359375 51.3984375 C-76.91859375 51.8934375 -76.91859375 51.8934375 -78.43359375 52.3984375 C-79.49084628 54.36877176 -80.47794387 56.37687046 -81.43359375 58.3984375 C-82.25228712 59.72011895 -83.08647716 61.03229101 -83.93359375 62.3359375 C-86.1903276 65.89955603 -87.87468177 69.46726816 -89.43359375 73.3984375 C-90.1414665 75.169455 -90.84982244 76.94027942 -91.55859375 78.7109375 C-91.89117187 79.55269531 -92.22375 80.39445312 -92.56640625 81.26171875 C-93.43359375 83.3984375 -93.43359375 83.3984375 -94.43359375 85.3984375 C-94.58917279 87.27114815 -94.70882982 89.14692553 -94.80859375 91.0234375 C-95.08029156 94.78266628 -95.4115331 97.85138164 -96.99609375 101.2734375 C-100.16998027 108.83105838 -99.35664724 117.76709459 -96.49609375 125.2734375 C-96.13128906 126.14355469 -95.76648438 127.01367188 -95.390625 127.91015625 C-94.04210183 131.4163165 -93.71519198 134.66726099 -93.43359375 138.3984375 C-92.77359375 138.3984375 -92.11359375 138.3984375 -91.43359375 138.3984375 C-91.30404297 139.30722656 -91.30404297 139.30722656 -91.171875 140.234375 C-90.20062888 146.02620966 -88.55278376 150.72143268 -85.75 155.87890625 C-84.44728879 158.37222592 -83.36551553 160.91842892 -82.2746582 163.50952148 C-80.77525847 166.87696873 -79.00341981 170.0977544 -77.24609375 173.3359375 C-76.87806641 174.01978516 -76.51003906 174.70363281 -76.13085938 175.40820312 C-75.23440971 177.07303822 -74.33437852 178.73594399 -73.43359375 180.3984375 C-72.77359375 180.3984375 -72.11359375 180.3984375 -71.43359375 180.3984375 C-71.49546875 181.1409375 -71.55734375 181.8834375 -71.62109375 182.6484375 C-71.39371838 185.98327626 -70.44836553 186.78669631 -68.43359375 189.3984375 C-67.34260862 191.29903446 -66.28095029 193.2167053 -65.24609375 195.1484375 C-64.71628906 196.13328125 -64.18648437 197.118125 -63.640625 198.1328125 C-63.24230469 198.88046875 -62.84398437 199.628125 -62.43359375 200.3984375 C-61.77359375 200.3984375 -61.11359375 200.3984375 -60.43359375 200.3984375 C-60.29050781 201.19701172 -60.29050781 201.19701172 -60.14453125 202.01171875 C-59.20694077 205.15934394 -57.69957031 207.74365532 -56.05859375 210.5859375 C-55.45273437 211.65199219 -54.846875 212.71804687 -54.22265625 213.81640625 C-52.6301031 216.66609292 -52.6301031 216.66609292 -49.43359375 217.3984375 C-49.39234375 218.0584375 -49.35109375 218.7184375 -49.30859375 219.3984375 C-48.22931809 223.09881118 -46.3496673 225.35011398 -43.984375 228.34765625 C-42.57668277 230.20921398 -41.42631388 232.04197917 -40.30859375 234.0859375 C-38.59299374 237.32532589 -38.59299374 237.32532589 -36.61328125 239.66015625 C-34.0918395 242.82777393 -31.8974577 246.13778228 -29.68359375 249.5234375 C-23.45523785 258.94611563 -16.82245975 268.01576447 -9.84570312 276.89697266 C-7.97755966 279.29382178 -6.28930733 281.64781309 -4.765625 284.28125 C-4.32605469 284.97992188 -3.88648437 285.67859375 -3.43359375 286.3984375 C-2.77359375 286.3984375 -2.11359375 286.3984375 -1.43359375 286.3984375 C-1.37171875 286.9553125 -1.30984375 287.5121875 -1.24609375 288.0859375 C-0.10211166 291.34188654 2.11517561 293.0055695 4.56640625 295.3984375 C5.61928439 297.03221392 6.63910635 298.69025347 7.56640625 300.3984375 C11.38885275 299.85959042 12.80164643 298.34615886 15.19140625 295.3984375 C18.39117966 291.48605079 18.39117966 291.48605079 20.56640625 290.3984375 C20.89640625 289.4084375 21.22640625 288.4184375 21.56640625 287.3984375 C22.71621781 286.28244393 23.86811274 285.16850424 25.03125 284.06640625 C27.71780428 281.14742743 29.818122 277.80163074 32.015625 274.5078125 C33.56640625 272.3984375 33.56640625 272.3984375 35.56640625 271.3984375 C35.98277344 270.70234375 36.39914063 270.00625 36.828125 269.2890625 C39.03151247 265.62500244 41.67180621 262.44878322 44.37890625 259.1484375 C48.76210511 253.73790593 52.83092808 248.27959212 56.56640625 242.3984375 C58.19532617 240.01161734 59.82721822 237.62694933 61.46484375 235.24609375 C62.73710302 233.47064527 62.73710302 233.47064527 62.56640625 231.3984375 C63.55640625 231.0684375 64.54640625 230.7384375 65.56640625 230.3984375 C66.58543955 228.68909132 67.59718789 226.97388777 68.53515625 225.21875 C69.56640625 223.3984375 69.56640625 223.3984375 71.50390625 221.0234375 C73.80124442 218.09955256 75.44657848 215.06348824 77.2109375 211.80078125 C80.0466869 206.77488533 83.40412629 202.07348803 86.69140625 197.3359375 C88.57537741 194.38438269 90.07931605 191.4068269 91.5390625 188.23046875 C92.64653442 186.25554735 93.95394891 184.97135229 95.56640625 183.3984375 C95.85515625 182.6765625 96.14390625 181.9546875 96.44140625 181.2109375 C97.44473418 178.70261767 98.54435736 176.77593534 100.00390625 174.5234375 C102.29381132 170.94797168 103.95054305 167.33271312 105.56640625 163.3984375 C106.22368813 162.08121268 106.89077998 160.76884798 107.56640625 159.4609375 C110.66377466 153.33686308 112.77232025 146.91628263 114.8203125 140.37890625 C115.56640625 138.3984375 115.56640625 138.3984375 117.56640625 135.3984375 C117.96785667 133.2852471 118.29300089 131.15697579 118.56640625 129.0234375 C119.11127713 124.79095837 119.95538025 121.33356659 121.56640625 117.3984375 C121.84092596 113.14338195 121.82560094 110.27123594 120.609375 106.17578125 C119.27591557 101.34636075 118.86150403 96.60507529 118.44335938 91.62695312 C117.97448971 86.93403244 116.91787318 83.57336573 114.56640625 79.3984375 C113.88701451 77.40272427 113.22079066 75.40248977 112.56640625 73.3984375 C110.71841489 68.51003061 110.71841489 68.51003061 107.56640625 64.3984375 C107.26863281 63.63917969 106.97085938 62.87992188 106.6640625 62.09765625 C102.98037388 53.03919064 95.17798578 45.42719127 88.56640625 38.3984375 C88.04691406 37.82609375 87.52742187 37.25375 86.9921875 36.6640625 C85.60672118 35.13847048 85.60672118 35.13847048 83.56640625 33.3984375 C82.57640625 33.3984375 81.58640625 33.3984375 80.56640625 33.3984375 C80.23640625 32.4084375 79.90640625 31.4184375 79.56640625 30.3984375 C77.22843527 28.36895392 77.22843527 28.36895392 74.37890625 26.3984375 C73.43660156 25.7178125 72.49429688 25.0371875 71.5234375 24.3359375 C68.61757608 22.43196489 65.69136803 20.90862653 62.56640625 19.3984375 C61.0613988 18.55312498 59.56094278 17.69962799 58.06640625 16.8359375 C54.63362626 14.91542072 51.3595718 13.49424088 47.56640625 12.3984375 C46.17421875 11.9034375 46.17421875 11.9034375 44.75390625 11.3984375 C41.36924286 10.33658232 37.99124979 9.57769952 34.51953125 8.86328125 C32.56640625 8.3984375 32.56640625 8.3984375 30.56640625 7.3984375 C27.5391658 7.28691449 24.53563528 7.23431035 21.5078125 7.23046875 C20.60771957 7.22714035 19.70762665 7.22381195 18.78025818 7.22038269 C16.87458813 7.21531505 14.9689092 7.21297431 13.06323242 7.21313477 C10.14422009 7.21094897 7.22558601 7.19279351 4.30664062 7.17382812 C2.45703255 7.17089407 0.60742267 7.16890935 -1.2421875 7.16796875 C-2.55478798 7.15719048 -2.55478798 7.15719048 -3.89390564 7.14619446 C-5.11515892 7.1508094 -5.11515892 7.1508094 -6.36108398 7.15551758 C-7.43458351 7.15338005 -7.43458351 7.15338005 -8.5297699 7.15119934 C-10.76328517 7.29833967 -10.76328517 7.29833967 -13.43359375 9.3984375 Z " fill="#A2A4A0" transform="translate(108.43359375,4.6015625)"/>
<path d="M0 0 C1.1859375 0.00257812 2.371875 0.00515625 3.59375 0.0078125 C4.7796875 0.00523438 5.965625 0.00265625 7.1875 0 C10.09375 0.1328125 10.09375 0.1328125 11.09375 1.1328125 C12.25287401 8.08755654 12.18384009 15.10578513 12.09375 22.1328125 C6.48375 22.1328125 0.87375 22.1328125 -4.90625 22.1328125 C-4.99634009 15.10578513 -5.06537401 8.08755654 -3.90625 1.1328125 C-2.90625 0.1328125 -2.90625 0.1328125 0 0 Z " fill="#8CB045" transform="translate(114.90625,96.8671875)"/>
<path d="M0 0 C0.33 0 0.66 0 1 0 C1.06058594 0.69867188 1.12117188 1.39734375 1.18359375 2.1171875 C1.26738281 3.02726562 1.35117188 3.93734375 1.4375 4.875 C1.55931641 6.23238281 1.55931641 6.23238281 1.68359375 7.6171875 C1.86989285 10.01110861 1.86989285 10.01110861 3 12 C2.75 15.5 2.75 15.5 2 19 C1.01 19.66 0.02 20.32 -1 21 C-1.12109311 13.92278069 -0.85373239 7.02804699 0 0 Z " fill="#AEC979" transform="translate(111,98)"/>
<path d="M0 0 C0.33 0 0.66 0 1 0 C1.85373239 7.02804699 2.12109311 13.92278069 2 21 C1.01 20.34 0.02 19.68 -1 19 C-1.328125 17.1875 -1.328125 17.1875 -1.25 15 C-1.22421875 14.20722656 -1.1984375 13.41445312 -1.171875 12.59765625 C-0.89315916 8.38524634 -0.49018258 4.19281174 0 0 Z " fill="#A4C269" transform="translate(125,98)"/>
<path d="M0 0 C3.42857143 3.42857143 3.42857143 3.42857143 3.875 7 C3.97554687 7.680625 4.07609375 8.36125 4.1796875 9.0625 C4 11 4 11 1 14 C0.67 9.38 0.34 4.76 0 0 Z " fill="#94B554" transform="translate(171,136)"/>
<path d="M0 0 C2.60605839 5.03837955 3.47523592 9.31927297 3 15 C2 18 2 18 1 20 C-0.14982602 15.90996141 -0.11094256 11.96822949 -0.0625 7.75 C-0.05798828 7.00492187 -0.05347656 6.25984375 -0.04882812 5.4921875 C-0.03709246 3.6614236 -0.0191585 1.83070127 0 0 Z " fill="#9AB95C" transform="translate(227,107)"/>
<path d="M0 0 C2.13586678 3.20380017 2.23132175 4.01939967 2.125 7.6875 C2.10695312 8.49574219 2.08890625 9.30398437 2.0703125 10.13671875 C2.04710937 10.75160156 2.02390625 11.36648437 2 12 C1.34 12 0.68 12 0 12 C-0.33 12.66 -0.66 13.32 -1 14 C-1.02685938 11.85423363 -1.04633088 9.70837355 -1.0625 7.5625 C-1.07410156 6.36753906 -1.08570313 5.17257813 -1.09765625 3.94140625 C-1 1 -1 1 0 0 Z " fill="#81A23E" transform="translate(224,91)"/>
<path d="M0 0 C4.95 0 9.9 0 15 0 C12 3 12 3 9.58984375 3.14453125 C8.71457031 3.03496094 7.83929688 2.92539063 6.9375 2.8125 C6.05964844 2.71582031 5.18179688 2.61914062 4.27734375 2.51953125 C2 2 2 2 0 0 Z " fill="#7E9F3D" transform="translate(122,13)"/>
<path d="M0 0 C0.66 0.99 1.32 1.98 2 3 C1.67 3.99 1.34 4.98 1 6 C0.34 6 -0.32 6 -1 6 C-1.33 9.63 -1.66 13.26 -2 17 C-2.33 17 -2.66 17 -3 17 C-3.55353075 5.47835991 -3.55353075 5.47835991 0 0 Z " fill="#98B759" transform="translate(17,84)"/>
<path d="M0 0 C0.99 0 1.98 0 3 0 C2.37240135 2.92879371 1.41377341 5.36095629 0 8 C0 5.36 0 2.72 0 0 Z M-2 8 C-1.34 8 -0.68 8 0 8 C0 8.66 0 9.32 0 10 C-0.99 10.33 -1.98 10.66 -3 11 C-2.67 10.01 -2.34 9.02 -2 8 Z " fill="#86A941" transform="translate(22,71)"/>
<path d="M0 0 C3.63 0 7.26 0 11 0 C10.67 0.66 10.34 1.32 10 2 C6.18015204 2.77811718 3.73159669 3.24386556 0 2 C0 1.34 0 0.68 0 0 Z " fill="#83A53F" transform="translate(102,12)"/>
<path d="M0 0 C0.99 0.33 1.98 0.66 3 1 C2.67 3.64 2.34 6.28 2 9 C1.34 9 0.68 9 0 9 C0 6.03 0 3.06 0 0 Z " fill="#80A13D" transform="translate(223,129)"/>
<path d="M0 0 C0.66 0 1.32 0 2 0 C2.36923077 5.53846154 2.36923077 5.53846154 0.5 7.875 C-0.2425 8.431875 -0.2425 8.431875 -1 9 C-1.125 2.25 -1.125 2.25 0 0 Z " fill="#81A23E" transform="translate(16,90)"/>
<path d="M0 0 C1.32 0 2.64 0 4 0 C3.67 0.99 3.34 1.98 3 3 C0.4375 4.1875 0.4375 4.1875 -2 5 C-1.125 1.125 -1.125 1.125 0 0 Z " fill="#89AB46" transform="translate(40,46)"/>
<path d="M0 0 C0.66 1.32 1.32 2.64 2 4 C1.01 5.485 1.01 5.485 0 7 C-0.38499891 8.65549531 -0.72793135 10.3222433 -1 12 C-1.33 12 -1.66 12 -2 12 C-2.17835515 7.45194365 -1.99785435 4.1205746 0 0 Z " fill="#98B957" transform="translate(13,102)"/>
<path d="M0 0 C1.98 0 3.96 0 6 0 C5.67 0.99 5.34 1.98 5 3 C2.03 2.505 2.03 2.505 -1 2 C-0.67 1.34 -0.34 0.68 0 0 Z " fill="#80A13E" transform="translate(87,16)"/>
</svg>
