<?xml version="1.0" encoding="UTF-8"?>
<svg version="1.1" xmlns="http://www.w3.org/2000/svg" width="240" height="315">
<path d="M0 0 C1.19424339 -0.00430527 1.19424339 -0.00430527 2.41261292 -0.00869751 C4.08929153 -0.01073053 5.76599428 -0.00525415 7.44262695 0.00732422 C9.99289658 0.02336824 12.54157652 0.00746139 15.09179688 -0.01171875 C16.72786804 -0.00973577 18.36393823 -0.00589095 20 0 C20.75437851 -0.00607269 21.50875702 -0.01214539 22.28599548 -0.0184021 C27.44222628 0.04923784 30.92365914 1.16067995 35.56640625 3.3984375 C37.67880983 3.93039315 39.80484877 4.41126373 41.94140625 4.8359375 C47.60358985 6.09706021 52.42005586 7.75680537 57.56640625 10.3984375 C59.28150391 11.24921875 59.28150391 11.24921875 61.03125 12.1171875 C86.12189466 24.81918503 108.1979091 45.85888974 118.56640625 72.3984375 C118.97117188 73.38585937 119.3759375 74.37328125 119.79296875 75.390625 C122.87707834 83.3443813 124.40039016 90.64546053 125.20703125 99.09765625 C125.44845719 102.39740399 125.44845719 102.39740399 126.56640625 105.3984375 C128.30809176 125.29933591 121.11672391 144.78664188 112.56640625 162.3984375 C112.21578125 163.12804687 111.86515625 163.85765625 111.50390625 164.609375 C109.15830624 169.39830836 106.58118691 174.05708111 104.0078125 178.7265625 C102.77569704 181.01048385 101.62399234 183.30850057 100.50390625 185.6484375 C98.91354006 188.88831572 96.99451447 191.67302312 94.84375 194.5625 C93.463575 196.54623777 92.33132922 198.58058965 91.19140625 200.7109375 C88.91352055 204.91299995 86.28136221 208.73624694 83.50390625 212.62109375 C81.35456952 215.70209862 79.32915519 218.85268079 77.31640625 222.0234375 C73.82734435 227.49011768 70.2659926 232.9040062 66.62890625 238.2734375 C66.15614258 238.98193848 65.68337891 239.69043945 65.19628906 240.42041016 C64.03857836 242.11662028 62.80875808 243.76320517 61.56640625 245.3984375 C60.90640625 245.3984375 60.24640625 245.3984375 59.56640625 245.3984375 C59.30730469 246.12160156 59.04820312 246.84476563 58.78125 247.58984375 C55.1836027 255.90723413 48.33077575 263.02477445 42.72509766 270.11035156 C37.49600846 276.72645257 32.24552883 283.37975363 27.56640625 290.3984375 C26.90640625 290.3984375 26.24640625 290.3984375 25.56640625 290.3984375 C25.32921875 290.95144531 25.09203125 291.50445312 24.84765625 292.07421875 C23.2579778 294.95793424 21.28124558 297.15177155 19.06640625 299.5859375 C18.27234375 300.46636719 17.47828125 301.34679687 16.66015625 302.25390625 C13.99214488 304.98662686 13.09716598 305.33106942 9.2734375 305.81640625 C5.23730546 305.3613313 4.07027846 304.5397026 1.54858398 301.43774414 C1.12134033 300.86789795 0.69409668 300.29805176 0.25390625 299.7109375 C-0.21265381 299.12368896 -0.67921387 298.53644043 -1.15991211 297.93139648 C-2.60502685 296.10212187 -4.01942666 294.25168864 -5.43359375 292.3984375 C-6.29106149 291.30839281 -7.15036569 290.21978962 -8.01171875 289.1328125 C-13.63816779 281.98287726 -18.9303313 274.59817533 -24.17919922 267.16894531 C-25.85492467 264.80375245 -27.54543765 262.44930335 -29.23535156 260.09423828 C-96.08311461 166.86465086 -96.08311461 166.86465086 -101.01171875 128.66796875 C-101.3139797 126.3902776 -101.3139797 126.3902776 -102.44335938 124.54345703 C-103.56408164 122.11577807 -103.69157104 120.47027158 -103.69921875 117.80859375 C-103.70179687 116.94169922 -103.704375 116.07480469 -103.70703125 115.18164062 C-103.69929688 114.28380859 -103.6915625 113.38597656 -103.68359375 112.4609375 C-103.69132812 111.56697266 -103.6990625 110.67300781 -103.70703125 109.75195312 C-103.69319729 105.09336666 -103.38610534 101.68113629 -101.43359375 97.3984375 C-100.93172241 94.8559904 -100.47755006 92.32873728 -100.05859375 89.7734375 C-97.30604993 74.39853903 -90.12364036 61.78735794 -82.43359375 48.3984375 C-81.77359375 48.3984375 -81.11359375 48.3984375 -80.43359375 48.3984375 C-80.18480469 47.83382812 -79.93601562 47.26921875 -79.6796875 46.6875 C-75.01302365 38.11488239 -66.01547884 30.48986655 -58.43359375 24.3984375 C-57.77359375 24.3984375 -57.11359375 24.3984375 -56.43359375 24.3984375 C-56.43359375 23.7384375 -56.43359375 23.0784375 -56.43359375 22.3984375 C-54.16893629 20.86148997 -51.92099702 19.45783712 -49.55859375 18.0859375 C-48.874021 17.68294434 -48.18944824 17.27995117 -47.48413086 16.86474609 C-37.6712813 11.13914265 -27.97152873 6.03345935 -16.70703125 4.0234375 C-14.28805727 3.46184817 -14.28805727 3.46184817 -11.81860352 1.88427734 C-7.79369635 0.11755646 -4.31222831 -0.03462023 0 0 Z " fill="#D02A2A" transform="translate(108.43359375,4.6015625)"/>
<path d="M0 0 C0.91644287 0.00523682 1.83288574 0.01047363 2.77709961 0.01586914 C4.26113281 0.02070312 4.26113281 0.02070312 5.77514648 0.02563477 C6.81606445 0.03401367 7.85698242 0.04239258 8.92944336 0.05102539 C10.49662109 0.05779297 10.49662109 0.05779297 12.09545898 0.06469727 C14.6859779 0.07652612 17.27646758 0.0944622 19.86694336 0.11352539 C19.53694336 5.06352539 19.20694336 10.01352539 18.86694336 15.11352539 C22.49694336 15.11352539 26.12694336 15.11352539 29.86694336 15.11352539 C29.37194336 7.68852539 29.37194336 7.68852539 28.86694336 0.11352539 C32.49213925 0.05977455 36.11654526 0.01997246 39.74194336 -0.01147461 C40.77448242 -0.02823242 41.80702148 -0.04499023 42.87084961 -0.06225586 C43.85698242 -0.06870117 44.84311523 -0.07514648 45.85913086 -0.08178711 C47.22593994 -0.09749756 47.22593994 -0.09749756 48.62036133 -0.11352539 C50.86694336 0.11352539 50.86694336 0.11352539 52.86694336 2.11352539 C53.64477539 3.85351563 53.64477539 3.85351563 54.37475586 5.92211914 C54.63901367 6.66913086 54.90327148 7.41614258 55.17553711 8.18579102 C55.44495117 8.96631836 55.71436523 9.7468457 55.99194336 10.55102539 C56.2690918 11.32768555 56.54624023 12.1043457 56.83178711 12.90454102 C58.86694336 18.72428586 58.86694336 18.72428586 58.86694336 22.11352539 C59.52694336 22.11352539 60.18694336 22.11352539 60.86694336 22.11352539 C61.12088867 22.91016602 61.37483398 23.70680664 61.63647461 24.52758789 C63.39954253 29.95545993 65.22303167 35.04602798 67.86694336 40.11352539 C69.28118139 43.41554722 70.56778902 46.76488003 71.86694336 50.11352539 C72.39679471 51.4325746 72.92674957 52.75158224 73.45678711 54.07055664 C74.01092802 55.48041618 74.56431287 56.89057312 75.11694336 58.30102539 C75.5226355 59.29851807 75.5226355 59.29851807 75.93652344 60.31616211 C77.63302255 64.71166189 78.23171062 68.32899476 77.86694336 73.11352539 C76.86694336 74.11352539 76.86694336 74.11352539 72.89794922 74.22705078 C71.12588729 74.22689159 69.35382076 74.22119324 67.58178711 74.21118164 C66.65096817 74.20976669 65.72014923 74.20835175 64.76112366 74.20689392 C61.77553145 74.20127711 58.79001307 74.18872179 55.80444336 74.17602539 C53.78556423 74.17101255 51.76668393 74.16644927 49.74780273 74.16235352 C44.78748764 74.15130222 39.82722804 74.13402634 34.86694336 74.11352539 C34.37194336 65.20352539 34.37194336 65.20352539 33.86694336 56.11352539 C27.59694336 56.11352539 21.32694336 56.11352539 14.86694336 56.11352539 C14.53694336 62.05352539 14.20694336 67.99352539 13.86694336 74.11352539 C7.90381169 74.13817113 1.94070941 74.15635939 -4.02246094 74.16845703 C-6.05273962 74.17349817 -8.08301466 74.18033096 -10.11328125 74.18896484 C-13.02483011 74.20104006 -15.93633114 74.20675573 -18.84790039 74.21118164 C-20.21820656 74.21892357 -20.21820656 74.21892357 -21.61619568 74.2268219 C-23.78881091 74.22701707 -25.9613296 74.17564344 -28.13305664 74.11352539 C-29.13305664 73.11352539 -29.13305664 73.11352539 -29.22290039 71.35571289 C-28.58303158 61.413136 -24.19777285 52.62869147 -20.13305664 43.67602539 C-18.38609022 39.82556878 -16.90707891 35.89126692 -15.44555664 31.92602539 C-12.871738 24.95367229 -10.12849942 18.05729768 -7.32055664 11.17602539 C-6.92328369 10.19802979 -6.52601074 9.22003418 -6.11669922 8.21240234 C-5.74440186 7.30449951 -5.37210449 6.39659668 -4.98852539 5.46118164 C-4.6548999 4.64657471 -4.32127441 3.83196777 -3.97753906 2.99267578 C-2.69715266 0.14354767 -2.69715266 0.14354767 0 0 Z " fill="#FEFCFC" transform="translate(94.133056640625,74.886474609375)"/>
<path d="M0 0 C1.19424339 -0.00430527 1.19424339 -0.00430527 2.41261292 -0.00869751 C4.08929153 -0.01073053 5.76599428 -0.00525415 7.44262695 0.00732422 C9.99289658 0.02336824 12.54157652 0.00746139 15.09179688 -0.01171875 C16.72786804 -0.00973577 18.36393823 -0.00589095 20 0 C20.75437851 -0.00607269 21.50875702 -0.01214539 22.28599548 -0.0184021 C27.44222628 0.04923784 30.92365914 1.16067995 35.56640625 3.3984375 C37.67880983 3.93039315 39.80484877 4.41126373 41.94140625 4.8359375 C47.60358985 6.09706021 52.42005586 7.75680537 57.56640625 10.3984375 C59.28150391 11.24921875 59.28150391 11.24921875 61.03125 12.1171875 C86.12189466 24.81918503 108.1979091 45.85888974 118.56640625 72.3984375 C118.97117188 73.38585937 119.3759375 74.37328125 119.79296875 75.390625 C122.87707834 83.3443813 124.40039016 90.64546053 125.20703125 99.09765625 C125.44845719 102.39740399 125.44845719 102.39740399 126.56640625 105.3984375 C128.30809176 125.29933591 121.11672391 144.78664188 112.56640625 162.3984375 C112.21578125 163.12804687 111.86515625 163.85765625 111.50390625 164.609375 C109.15830624 169.39830836 106.58118691 174.05708111 104.0078125 178.7265625 C102.77569704 181.01048385 101.62399234 183.30850057 100.50390625 185.6484375 C98.91354006 188.88831572 96.99451447 191.67302312 94.84375 194.5625 C93.463575 196.54623777 92.33132922 198.58058965 91.19140625 200.7109375 C88.91352055 204.91299995 86.28136221 208.73624694 83.50390625 212.62109375 C81.35456952 215.70209862 79.32915519 218.85268079 77.31640625 222.0234375 C73.82734435 227.49011768 70.2659926 232.9040062 66.62890625 238.2734375 C66.15614258 238.98193848 65.68337891 239.69043945 65.19628906 240.42041016 C64.03857836 242.11662028 62.80875808 243.76320517 61.56640625 245.3984375 C60.90640625 245.3984375 60.24640625 245.3984375 59.56640625 245.3984375 C59.30730469 246.12160156 59.04820312 246.84476563 58.78125 247.58984375 C55.1836027 255.90723413 48.33077575 263.02477445 42.72509766 270.11035156 C37.49600846 276.72645257 32.24552883 283.37975363 27.56640625 290.3984375 C26.90640625 290.3984375 26.24640625 290.3984375 25.56640625 290.3984375 C25.32921875 290.95144531 25.09203125 291.50445312 24.84765625 292.07421875 C23.2579778 294.95793424 21.28124558 297.15177155 19.06640625 299.5859375 C18.27234375 300.46636719 17.47828125 301.34679687 16.66015625 302.25390625 C13.99214488 304.98662686 13.09716598 305.33106942 9.2734375 305.81640625 C5.23730546 305.3613313 4.07027846 304.5397026 1.54858398 301.43774414 C1.12134033 300.86789795 0.69409668 300.29805176 0.25390625 299.7109375 C-0.21265381 299.12368896 -0.67921387 298.53644043 -1.15991211 297.93139648 C-2.60502685 296.10212187 -4.01942666 294.25168864 -5.43359375 292.3984375 C-6.29106149 291.30839281 -7.15036569 290.21978962 -8.01171875 289.1328125 C-13.63816779 281.98287726 -18.9303313 274.59817533 -24.17919922 267.16894531 C-25.85492467 264.80375245 -27.54543765 262.44930335 -29.23535156 260.09423828 C-96.08311461 166.86465086 -96.08311461 166.86465086 -101.01171875 128.66796875 C-101.3139797 126.3902776 -101.3139797 126.3902776 -102.44335938 124.54345703 C-103.56408164 122.11577807 -103.69157104 120.47027158 -103.69921875 117.80859375 C-103.70179687 116.94169922 -103.704375 116.07480469 -103.70703125 115.18164062 C-103.69929688 114.28380859 -103.6915625 113.38597656 -103.68359375 112.4609375 C-103.69132812 111.56697266 -103.6990625 110.67300781 -103.70703125 109.75195312 C-103.69319729 105.09336666 -103.38610534 101.68113629 -101.43359375 97.3984375 C-100.93172241 94.8559904 -100.47755006 92.32873728 -100.05859375 89.7734375 C-97.30604993 74.39853903 -90.12364036 61.78735794 -82.43359375 48.3984375 C-81.77359375 48.3984375 -81.11359375 48.3984375 -80.43359375 48.3984375 C-80.18480469 47.83382812 -79.93601562 47.26921875 -79.6796875 46.6875 C-75.01302365 38.11488239 -66.01547884 30.48986655 -58.43359375 24.3984375 C-57.77359375 24.3984375 -57.11359375 24.3984375 -56.43359375 24.3984375 C-56.43359375 23.7384375 -56.43359375 23.0784375 -56.43359375 22.3984375 C-54.16893629 20.86148997 -51.92099702 19.45783712 -49.55859375 18.0859375 C-48.874021 17.68294434 -48.18944824 17.27995117 -47.48413086 16.86474609 C-37.6712813 11.13914265 -27.97152873 6.03345935 -16.70703125 4.0234375 C-14.28805727 3.46184817 -14.28805727 3.46184817 -11.81860352 1.88427734 C-7.79369635 0.11755646 -4.31222831 -0.03462023 0 0 Z M-13.43359375 9.3984375 C-15.5546875 9.70703125 -15.5546875 9.70703125 -17.87109375 9.8359375 C-21.71814609 10.18285365 -23.44289893 10.90619181 -26.43359375 13.3984375 C-28.06003154 13.8299414 -29.68686321 14.26006268 -31.31640625 14.6796875 C-35.98071857 16.26314408 -40.19073912 18.93208747 -44.43359375 21.3984375 C-45.19542969 21.83671875 -45.95726562 22.275 -46.7421875 22.7265625 C-50.89558883 25.20761131 -54.07782751 27.87488295 -57.43359375 31.3984375 C-58.71623768 32.53371383 -60.00876616 33.65787665 -61.30859375 34.7734375 C-69.09721789 41.42589133 -69.09721789 41.42589133 -75.43359375 49.3984375 C-75.43359375 50.0584375 -75.43359375 50.7184375 -75.43359375 51.3984375 C-76.91859375 51.8934375 -76.91859375 51.8934375 -78.43359375 52.3984375 C-79.48368028 54.37260018 -80.48347251 56.37426616 -81.43359375 58.3984375 C-82.09359375 59.0584375 -82.75359375 59.7184375 -83.43359375 60.3984375 C-84.11706057 62.05828548 -84.7794769 63.72680555 -85.43359375 65.3984375 C-86.049175 66.63234812 -86.6751444 67.86110379 -87.30859375 69.0859375 C-89.33093934 73.06245972 -90.98664623 77.14055664 -92.6015625 81.296875 C-93.43359375 83.3984375 -93.43359375 83.3984375 -94.43359375 85.3984375 C-94.58917279 87.27114815 -94.70882982 89.14692553 -94.80859375 91.0234375 C-95.08029156 94.78266628 -95.4115331 97.85138164 -96.99609375 101.2734375 C-99.83786538 107.95090088 -99.55551843 116.38963949 -97.05859375 123.0859375 C-96.25421875 124.725625 -96.25421875 124.725625 -95.43359375 126.3984375 C-95.10243237 128.12047668 -94.81486593 129.85117199 -94.55859375 131.5859375 C-93.68874495 136.82642001 -92.00434549 141.29081891 -89.86328125 146.13671875 C-87.71055082 151.04800266 -85.807388 156.05390146 -83.86328125 161.05078125 C-82.58346225 164.0475159 -81.16322318 166.64716168 -79.43359375 169.3984375 C-76.84052359 174.03760208 -74.27158714 178.68753432 -71.93359375 183.4609375 C-70.07675438 187.09724793 -67.96696319 190.55003246 -65.8359375 194.03125 C-64.59988576 196.11773289 -63.4852636 198.21458718 -62.43359375 200.3984375 C-61.77359375 200.3984375 -61.11359375 200.3984375 -60.43359375 200.3984375 C-60.39234375 201.0584375 -60.35109375 201.7184375 -60.30859375 202.3984375 C-59.23741864 206.07103788 -57.3905781 208.25292399 -55.04296875 211.2265625 C-53.44797819 213.37902549 -52.18886766 215.53461001 -50.93359375 217.8984375 C-48.89234268 221.71755241 -46.54660311 225.08252296 -43.86328125 228.4765625 C-42.43359375 230.3984375 -42.43359375 230.3984375 -41.05078125 232.71875 C-39.10060809 235.95019635 -36.90328905 238.97535933 -34.68359375 242.0234375 C-31.54784037 246.36393226 -28.52536673 250.73167532 -25.68359375 255.2734375 C-22.81881046 259.84645583 -19.74643129 264.14225832 -16.43359375 268.3984375 C-15.15310422 270.04515757 -13.87382042 271.69277683 -12.59692383 273.34228516 C-11.71682927 274.47831179 -10.833985 275.61221518 -9.94799805 276.74365234 C-8.04596017 279.19440521 -6.31374559 281.60544796 -4.7578125 284.29296875 C-4.32082031 284.98777344 -3.88382812 285.68257813 -3.43359375 286.3984375 C-2.77359375 286.3984375 -2.11359375 286.3984375 -1.43359375 286.3984375 C-1.37171875 286.9553125 -1.30984375 287.5121875 -1.24609375 288.0859375 C-0.10211166 291.34188654 2.11517561 293.0055695 4.56640625 295.3984375 C5.61928439 297.03221392 6.63910635 298.69025347 7.56640625 300.3984375 C11.38885275 299.85959042 12.80164643 298.34615886 15.19140625 295.3984375 C18.39117966 291.48605079 18.39117966 291.48605079 20.56640625 290.3984375 C21.21609375 289.315625 21.21609375 289.315625 21.87890625 288.2109375 C23.45936854 285.57683368 25.2356634 283.34431665 27.234375 281.01953125 C28.67378885 279.26775193 29.96237755 277.44893907 31.25390625 275.5859375 C33.56640625 272.3984375 33.56640625 272.3984375 35.56640625 271.3984375 C36.5782852 269.73895602 37.57497645 268.07021641 38.56640625 266.3984375 C40.40763359 263.79482128 42.33046139 261.2541891 44.25390625 258.7109375 C44.78556396 258.00412842 45.31722168 257.29731934 45.86499023 256.5690918 C49.46318118 251.80394939 53.14245721 247.11603602 56.9453125 242.51171875 C59.19148922 239.5835703 61.25879128 236.78270488 62.06640625 233.1484375 C62.23140625 232.5709375 62.39640625 231.9934375 62.56640625 231.3984375 C63.55640625 231.0684375 64.54640625 230.7384375 65.56640625 230.3984375 C66.81641974 228.57776948 66.81641974 228.57776948 67.87890625 226.3359375 C69.97860269 222.34587992 72.3437086 218.8530929 75.13671875 215.3203125 C76.78879133 213.09949362 78.16233401 210.783583 79.56640625 208.3984375 C80.74659514 206.49804426 81.93424641 204.60226723 83.12890625 202.7109375 C83.72832031 201.75832031 84.32773438 200.80570313 84.9453125 199.82421875 C86.56640625 197.3984375 86.56640625 197.3984375 88.56640625 195.3984375 C89.26298988 193.74405137 89.92737508 192.07589432 90.56640625 190.3984375 C91.54877001 188.17174632 92.30539069 186.64857741 94.06640625 184.9609375 C95.96419466 182.98407457 96.58991355 180.93731851 97.56640625 178.3984375 C98.22640625 177.7384375 98.88640625 177.0784375 99.56640625 176.3984375 C100.24987307 174.73858952 100.9122894 173.07006945 101.56640625 171.3984375 C102.20131684 170.10136695 102.84811821 168.81007868 103.50390625 167.5234375 C104.84476996 164.89155631 106.06999214 162.25581706 107.19140625 159.5234375 C108.56640625 156.3984375 108.56640625 156.3984375 110.56640625 154.3984375 C111.24579799 152.40272427 111.91202184 150.40248977 112.56640625 148.3984375 C113.22640625 147.4084375 113.88640625 146.4184375 114.56640625 145.3984375 C115.29259525 142.73574448 115.94306662 140.08524625 116.56640625 137.3984375 C117.06324607 135.39765011 117.56343327 133.39769191 118.06640625 131.3984375 C118.32035156 130.37234375 118.57429687 129.34625 118.8359375 128.2890625 C119.27158425 126.56511281 119.72204269 124.84463914 120.203125 123.1328125 C121.83494102 117.25364556 122.37896363 112.12583296 120.61328125 106.19921875 C119.25795703 101.27858269 118.82325234 96.43093684 118.35546875 91.36328125 C117.97422347 87.66257274 117.66706229 85.54942156 115.56640625 82.3984375 C114.98469923 80.35842329 114.56190707 78.31436553 114.12890625 76.23828125 C113.65531518 74.17436636 113.65531518 74.17436636 111.56640625 72.3984375 C110.88963871 70.40183285 110.22432665 68.4013317 109.56640625 66.3984375 C104.05407762 55.06843259 95.79074401 44.94590406 86.56640625 36.3984375 C85.90640625 36.3984375 85.24640625 36.3984375 84.56640625 36.3984375 C84.23640625 35.4084375 83.90640625 34.4184375 83.56640625 33.3984375 C78.01891468 28.72433993 71.90504122 24.89115473 65.56640625 21.3984375 C64.86515625 20.8621875 64.16390625 20.3259375 63.44140625 19.7734375 C61.26470022 18.17718641 59.0780854 17.36446794 56.56640625 16.3984375 C55.57640625 15.7384375 54.58640625 15.0784375 53.56640625 14.3984375 C51.57069302 13.71904576 49.57045852 13.05282191 47.56640625 12.3984375 C46.65568359 11.90537109 46.65568359 11.90537109 45.7265625 11.40234375 C43.14180033 10.20110708 40.7522151 9.7867276 37.94140625 9.3359375 C32.76085069 8.49565972 32.76085069 8.49565972 30.56640625 7.3984375 C28.08167594 7.16081866 25.61939599 6.97451982 23.12890625 6.8359375 C22.40461426 6.7942041 21.68032227 6.7524707 20.93408203 6.70947266 C2.97155933 4.93083362 2.97155933 4.93083362 -13.43359375 9.3984375 Z " fill="#A59F9F" transform="translate(108.43359375,4.6015625)"/>
<path d="M0 0 C1.1859375 0.00257812 2.371875 0.00515625 3.59375 0.0078125 C4.7796875 0.00523438 5.965625 0.00265625 7.1875 0 C10.09375 0.1328125 10.09375 0.1328125 11.09375 1.1328125 C12.25287401 8.08755654 12.18384009 15.10578513 12.09375 22.1328125 C6.48375 22.1328125 0.87375 22.1328125 -4.90625 22.1328125 C-4.99634009 15.10578513 -5.06537401 8.08755654 -3.90625 1.1328125 C-2.90625 0.1328125 -2.90625 0.1328125 0 0 Z " fill="#CA2B2B" transform="translate(114.90625,96.8671875)"/>
<path d="M0 0 C0.33 0 0.66 0 1 0 C1.33 1.98 1.66 3.96 2 6 C2.33 6 2.66 6 3 6 C3.15959004 15.41581259 3.15959004 15.41581259 2 19 C1.01 19.66 0.02 20.32 -1 21 C-1.12109311 13.92278069 -0.85373239 7.02804699 0 0 Z " fill="#D95858" transform="translate(111,98)"/>
<path d="M0 0 C0.33 0 0.66 0 1 0 C1.85373239 7.02804699 2.12109311 13.92278069 2 21 C-1 19 -1 19 -1.6875 17.375 C-2.14471421 13.900172 -2.05840231 10.50413832 -2 7 C-1.67 7 -1.34 7 -1 7 C-0.67 4.69 -0.34 2.38 0 0 Z " fill="#D74C4C" transform="translate(125,98)"/>
<path d="M0 0 C2.45391569 3.68087353 2.22802759 6.44355588 2.125 10.6875 C2.11597656 11.38939453 2.10695312 12.09128906 2.09765625 12.81445312 C2.07413704 14.54311525 2.03826713 16.27160145 2 18 C1.34 18 0.68 18 0 18 C-0.98357297 12.34445544 -1.37394574 6.74116691 -1 1 C-0.67 0.67 -0.34 0.34 0 0 Z " fill="#BB2525" transform="translate(224,91)"/>
<path d="M0 0 C0.33 0 0.66 0 1 0 C1 3.3 1 6.6 1 10 C1.928125 9.938125 2.85625 9.87625 3.8125 9.8125 C7 10 7 10 10 13 C6.37 13 2.74 13 -1 13 C-0.67 8.71 -0.34 4.42 0 0 Z " fill="#C54242" transform="translate(114,77)"/>
<path d="M0 0 C0.66 0 1.32 0 2 0 C1.67 2.97 1.34 5.94 1 9 C0.34 9 -0.32 9 -1 9 C-1.09765625 2.84765625 -1.09765625 2.84765625 -1 1 C-0.67 0.67 -0.34 0.34 0 0 Z " fill="#B92525" transform="translate(224,129)"/>
<path d="M0 0 C3.63 0 7.26 0 11 0 C11 0.66 11 1.32 11 2 C7.7 2.33 4.4 2.66 1 3 C0.67 2.01 0.34 1.02 0 0 Z " fill="#CB3838" transform="translate(112,11)"/>
<path d="M0 0 C0.33 0 0.66 0 1 0 C1.33 3.96 1.66 7.92 2 12 C-0.64 12 -3.28 12 -6 12 C-6 11.67 -6 11.34 -6 11 C-4.35 10.67 -2.7 10.34 -1 10 C-0.67 6.7 -0.34 3.4 0 0 Z " fill="#AA2222" transform="translate(122,77)"/>
<path d="M0 0 C0.66 1.32 1.32 2.64 2 4 C0.68 4.33 -0.64 4.66 -2 5 C-2.33 6.32 -2.66 7.64 -3 9 C-3.99 8.34 -4.98 7.68 -6 7 C-5.34 7 -4.68 7 -4 7 C-3.71125 6.401875 -3.4225 5.80375 -3.125 5.1875 C-2 3 -2 3 0 0 Z " fill="#CA3333" transform="translate(37,49)"/>
<path d="M0 0 C0.99 0 1.98 0 3 0 C2.4140625 6.15234375 2.4140625 6.15234375 2 8 C1.01 8.495 1.01 8.495 0 9 C0 6.03 0 3.06 0 0 Z " fill="#BD2626" transform="translate(15,90)"/>
<path d="M0 0 C1.32 0 2.64 0 4 0 C3.67 0.99 3.34 1.98 3 3 C0.4375 4.1875 0.4375 4.1875 -2 5 C-1.125 1.125 -1.125 1.125 0 0 Z " fill="#C42D2D" transform="translate(40,46)"/>
<path d="M0 0 C0.66 0.33 1.32 0.66 2 1 C1.34 2.32 0.68 3.64 0 5 C-1.98 5 -3.96 5 -6 5 C-5.195625 4.360625 -4.39125 3.72125 -3.5625 3.0625 C-1.7249496 1.59396498 -1.7249496 1.59396498 0 0 Z " fill="#CC3F3F" transform="translate(76,19)"/>
<path d="M0 0 C0 0.33 0 0.66 0 1 C-1.093125 1.103125 -2.18625 1.20625 -3.3125 1.3125 C-6.85559629 1.97307727 -7.93243723 2.2027092 -10 5 C-10.66 4.34 -11.32 3.68 -12 3 C-8.2391768 -0.7608232 -5.0273023 -0.25136512 0 0 Z " fill="#CF4141" transform="translate(94,15)"/>
<path d="M0 0 C2.97 0 5.94 0 9 0 C8.67 0.66 8.34 1.32 8 2 C2.55072464 3.27536232 2.55072464 3.27536232 0 2 C0 1.34 0 0.68 0 0 Z " fill="#B72525" transform="translate(101,13)"/>
</svg>
