<?xml version="1.0" encoding="UTF-8"?>
<svg version="1.1" xmlns="http://www.w3.org/2000/svg" width="446" height="585">
<path d="M0 0 C2.08941349 0.02535453 4.17899085 0.0391551 6.26855469 0.04296875 C21.09385964 0.08703267 33.81036007 1.79086072 47.89160156 6.38720703 C50.81114448 7.26300411 53.72962315 7.74439391 56.74560547 8.16210938 C61.42197208 8.81972343 65.36795361 10.15876065 69.69091797 12.03710938 C71.97665411 13.00270088 74.24849807 13.75230678 76.62060547 14.47460938 C80.58267802 15.76297562 83.99943162 17.55196694 87.59326172 19.64257812 C91.39999518 21.79630847 95.33377871 23.68525633 99.26123047 25.60742188 C101.93960895 26.97653713 104.48326313 28.48463091 107.05810547 30.03710938 C109.02367772 31.01617283 111.00508603 31.94991686 112.99560547 32.87695312 C115.60106362 34.34252334 117.74335498 36.14084485 120.05810547 38.03710938 C122.79683572 40.15600266 125.5542714 42.25039754 128.30810547 44.34960938 C129.8224945 45.50837714 131.33681798 46.66723059 132.85107422 47.82617188 C135.2834654 49.68607642 137.7221023 51.53531528 140.17138672 53.37304688 C140.97962891 53.9840625 141.78787109 54.59507813 142.62060547 55.22460938 C143.30251953 55.73378906 143.98443359 56.24296875 144.68701172 56.76757812 C145.13947266 57.18652344 145.59193359 57.60546875 146.05810547 58.03710938 C146.05810547 58.69710937 146.05810547 59.35710938 146.05810547 60.03710938 C146.80060547 60.26398437 147.54310547 60.49085937 148.30810547 60.72460938 C151.62966647 62.30989985 152.82997597 64.13378913 155.05810547 67.03710938 C155.94498047 67.73835938 156.83185547 68.43960938 157.74560547 69.16210938 C162.59744837 73.05828625 166.23669877 78.1701658 170.05810547 83.03710938 C170.85571289 84.04366577 170.85571289 84.04366577 171.66943359 85.07055664 C175.87157992 90.41010411 179.84051695 95.87160051 183.68310547 101.47460938 C184.50294922 102.64733398 184.50294922 102.64733398 185.33935547 103.84375 C189.12364632 109.35269971 192.18559145 115.00951763 195.05810547 121.03710938 C195.76275743 122.43480477 196.47046031 123.83097252 197.18310547 125.22460938 C198.95847839 128.76825373 200.49676083 132.39397188 202.05810547 136.03710938 C202.72143793 137.28888192 203.38828039 138.538799 204.05810547 139.78710938 C206.1102332 143.81363273 207.17891998 147.89743949 208.27294922 152.26757812 C209.02066276 154.90503534 209.98631888 157.23420156 211.12060547 159.72460938 C213.31088139 165.05565833 213.89809852 170.35985915 214.48779297 176.04882812 C214.89742844 179.90663041 215.45880742 183.72501278 216.06591797 187.55664062 C219.44646012 209.0156698 220.19489505 227.55507894 215.5234375 248.80322266 C214.92045931 251.69789758 214.51708011 254.60781618 214.12060547 257.53710938 C213.26134231 262.90560308 211.40707058 267.64571942 209.35107422 272.66210938 C207.99333725 276.20617204 206.97777748 279.74740432 205.99560547 283.41210938 C204.06092838 290.45930666 204.06092838 290.45930666 202.05810547 293.72460938 C200.27249937 296.68201947 199.19016009 299.23764069 198.05810547 302.47460938 C196.39696818 307.22442382 194.40707797 311.59608324 192.05810547 316.03710938 C189.92794044 320.19758795 187.90056265 324.36544164 186.05810547 328.66210938 C184.40830109 332.42852324 182.34205413 335.61118638 180.05810547 339.03710938 C178.49914885 342.04807572 177.00302444 345.08431881 175.52294922 348.13476562 C174.14924955 350.85652258 172.63525868 353.43006649 171.05810547 356.03710938 C170.43923782 357.27989665 169.83404228 358.52962797 169.24560547 359.78710938 C166.9300518 364.48919153 164.03252162 368.73182239 161.05810547 373.03710938 C159.09720087 375.8944275 157.26598993 378.61144119 155.74560547 381.72460938 C152.21803903 388.64909164 147.91079055 394.98375995 143.05810547 401.03710938 C142.08711846 402.72015352 141.11799188 404.40446527 140.17529297 406.10351562 C137.9978689 409.87213421 135.49568173 413.43373577 133.05810547 417.03710938 C127.66736539 425.02870429 127.66736539 425.02870429 122.49560547 433.16210938 C117.75935525 440.81538788 112.35358936 448.04199341 107.11328125 455.35400391 C104.69993367 458.72469749 102.3036624 462.10646985 99.92529297 465.50195312 C99.39637451 466.25597412 98.86745605 467.00999512 98.32250977 467.78686523 C97.29832833 469.24837326 96.27623314 470.7113463 95.2565918 472.17602539 C92.36168151 476.30367063 89.31269162 480.18771955 86.05810547 484.03710938 C84.71478893 486.03041779 83.38216535 488.03095803 82.05810547 490.03710938 C79.04340667 494.1889314 75.90398003 498.2440975 72.74560547 502.28710938 C69.97204791 505.83824267 67.25578207 509.42799365 64.55810547 513.03710938 C61.31760424 517.37244887 58.03590195 521.66869733 54.69091797 525.92382812 C52.49550667 528.76525758 50.4014081 531.67789225 48.31982422 534.60351562 C47.90345703 535.07660156 47.48708984 535.5496875 47.05810547 536.03710938 C46.39810547 536.03710938 45.73810547 536.03710938 45.05810547 536.03710938 C44.82220703 536.73449219 44.58630859 537.431875 44.34326172 538.15039062 C42.8270267 541.55615864 40.78776393 544.31825496 38.49560547 547.22460938 C38.0530542 547.79268311 37.61050293 548.36075684 37.15454102 548.94604492 C33.02281626 554.19262109 28.58087513 559.12619157 24.05810547 564.03710938 C22.82371644 565.42832651 21.59421324 566.82390048 20.37060547 568.22460938 C19.52949219 569.18173828 19.52949219 569.18173828 18.67138672 570.15820312 C17.60379434 571.40157343 16.55881332 572.66475427 15.53857422 573.94726562 C10.52511956 580.17770664 5.03568556 583.44159336 -2.94189453 585.03710938 C-11.15506475 585.73898449 -17.52233354 584.83975781 -24.50439453 580.41210938 C-27.29790101 577.69023127 -29.57509259 574.77134811 -31.92236328 571.66210938 C-34.18544967 568.7205348 -36.55231328 565.8756368 -38.94189453 563.03710938 C-57.94189453 540.36406133 -57.94189453 540.36406133 -57.94189453 536.03710938 C-58.52068359 535.8128125 -59.09947266 535.58851563 -59.69580078 535.35742188 C-62.59567966 533.65279742 -63.94799822 531.65813422 -65.87939453 528.91210938 C-66.57935547 527.92082031 -67.27931641 526.92953125 -68.00048828 525.90820312 C-69.54447923 523.62483623 -71.01881657 521.33354199 -72.44189453 518.97460938 C-74.86018601 514.99768485 -77.7462195 511.49509017 -80.68408203 507.89257812 C-83.30979651 504.57182158 -85.79475514 501.16927772 -88.25439453 497.72460938 C-88.88510864 496.84458252 -88.88510864 496.84458252 -89.52856445 495.94677734 C-91.23952531 493.53636276 -92.88990891 491.12500979 -94.39501953 488.58007812 C-96.91926506 484.43037146 -99.9068315 480.61757769 -102.82666016 476.74023438 C-105.09967346 473.68460606 -107.22488002 470.65397874 -109.08251953 467.32617188 C-110.65146242 464.55085693 -112.23592126 462.23432757 -114.25439453 459.78710938 C-117.57315854 455.61738024 -120.42784459 451.26296859 -123.24658203 446.74414062 C-126.39450629 441.71761641 -129.73222706 436.81603213 -133.06689453 431.91210938 C-134.36871535 429.91598412 -135.59365305 427.86843892 -136.75439453 425.78710938 C-138.4452086 422.76494565 -140.36518142 419.97851992 -142.37939453 417.16210938 C-144.60635901 414.03206588 -146.62914372 410.92330396 -148.44189453 407.53710938 C-150.18028768 404.29248633 -152.09829251 401.33310946 -154.25439453 398.34960938 C-157.59045295 393.69956733 -160.42349071 388.85995491 -163.18920898 383.85864258 C-164.9257223 380.73380572 -166.79354811 377.88708339 -168.94189453 375.03710938 C-169.65282423 373.32441509 -170.36280555 371.61128165 -171.05908203 369.89257812 C-172.00268704 367.9093375 -173.12473027 366.29201385 -174.44189453 364.53710938 C-176.90673596 361.24084383 -178.37515525 357.85177892 -179.94189453 354.03710938 C-180.91982655 352.3020687 -181.89843391 350.56717727 -182.90673828 348.84960938 C-184.73202595 345.65363398 -186.31962652 342.33935454 -187.94189453 339.03710938 C-188.5450075 337.82824976 -189.14919796 336.61992721 -189.75439453 335.41210938 C-190.07794922 334.76371094 -190.40150391 334.1153125 -190.73486328 333.44726562 C-191.71269485 331.49476699 -192.69565325 329.54483649 -193.68017578 327.59570312 C-194.30909439 326.34701143 -194.93800056 325.09831348 -195.56689453 323.84960938 C-196.15728516 322.68042969 -196.74767578 321.51125 -197.35595703 320.30664062 C-198.6803177 317.57636998 -199.82667183 314.85524475 -200.94189453 312.03710938 C-201.73754525 310.40379337 -202.55040849 308.77876128 -203.37939453 307.16210938 C-208.21966649 297.55232966 -211.88569586 287.54983562 -215.13330078 277.30273438 C-215.96767371 274.85506773 -215.96767371 274.85506773 -217.40673828 271.88476562 C-219.32019788 267.47561728 -220.09503801 262.93444471 -220.94189453 258.22460938 C-222.11047138 252.03964774 -223.32751762 245.99069399 -225.32861328 240.00976562 C-227.35753665 233.48361084 -227.16301316 226.96165535 -227.18212891 220.18432617 C-227.19172043 218.13677516 -227.22272616 216.09027979 -227.25439453 214.04296875 C-227.337572 203.55777564 -225.66802963 194.07080024 -222.81689453 183.97460938 C-221.93163892 180.6318842 -221.78433686 177.42521684 -221.62939453 173.97460938 C-221.089077 165.41958175 -218.72879033 156.21745307 -213.94189453 149.03710938 C-213.43616261 147.11143783 -212.98322512 145.17156714 -212.56689453 143.22460938 C-211.40124158 138.32769548 -209.84345928 135.16964099 -206.94189453 131.03710938 C-206.23682671 129.21819901 -205.57363087 127.38277044 -204.94189453 125.53710938 C-203.4375553 121.18275245 -201.62331706 117.80785981 -198.94189453 114.03710938 C-198.25618878 112.69248325 -197.590432 111.3375514 -196.94189453 109.97460938 C-195.30969092 106.60138858 -193.31500529 103.94608385 -190.94189453 101.03710938 C-190.51521484 100.12960938 -190.08853516 99.22210938 -189.64892578 98.28710938 C-187.74277708 94.65801163 -185.37614727 91.7230913 -182.69189453 88.66210938 C-182.19882813 88.09049072 -181.70576172 87.51887207 -181.19775391 86.92993164 C-179.78452819 85.29421085 -178.36367262 83.66539387 -176.94189453 82.03710938 C-176.31798828 81.31136719 -175.69408203 80.585625 -175.05126953 79.83789062 C-173.36649439 77.88731359 -171.65693648 75.96112702 -169.94189453 74.03710938 C-169.12205078 73.10125 -168.30220703 72.16539063 -167.45751953 71.20117188 C-162.26077091 65.33884363 -156.94901989 60.17338992 -150.76220703 55.32617188 C-147.65378565 52.80327031 -144.78098878 50.10329558 -141.87939453 47.34960938 C-137.62295213 43.35019852 -133.29090023 40.13930871 -128.18017578 37.30273438 C-126.09641177 36.12448038 -124.23008661 34.84592375 -122.31689453 33.41210938 C-118.73511902 30.79433841 -114.93889363 28.93787455 -110.94189453 27.03710938 C-108.8556733 26.02219094 -106.7724934 25.00100444 -104.69189453 23.97460938 C-103.69673828 23.48863281 -102.70158203 23.00265625 -101.67626953 22.50195312 C-98.9845699 21.1626799 -98.9845699 21.1626799 -97.00048828 19.50585938 C-94.25327639 17.54579928 -91.44913559 16.67155219 -88.25439453 15.59960938 C-84.19567916 14.22321631 -80.27374556 12.78357562 -76.44189453 10.84960938 C-71.56913712 8.56351197 -66.53477487 8.2360392 -61.23876953 7.59960938 C-57.6123834 6.98088947 -55.06067592 5.87398441 -51.92163086 4.03857422 C-45.65293329 0.86750535 -38.21001073 0.66537189 -31.31689453 0.41210938 C-30.41156982 0.3748877 -29.50624512 0.33766602 -28.57348633 0.29931641 C-19.0483271 -0.05525252 -9.53027801 -0.13164666 0 0 Z " fill="#F68B05" transform="translate(226.94189453125,-0.03710937499999999)"/>
<path d="M0 0 C2.08941349 0.02535453 4.17899085 0.0391551 6.26855469 0.04296875 C21.09385964 0.08703267 33.81036007 1.79086072 47.89160156 6.38720703 C50.81114448 7.26300411 53.72962315 7.74439391 56.74560547 8.16210938 C61.42197208 8.81972343 65.36795361 10.15876065 69.69091797 12.03710938 C71.97665411 13.00270088 74.24849807 13.75230678 76.62060547 14.47460938 C80.58267802 15.76297562 83.99943162 17.55196694 87.59326172 19.64257812 C91.39999518 21.79630847 95.33377871 23.68525633 99.26123047 25.60742188 C101.93960895 26.97653713 104.48326313 28.48463091 107.05810547 30.03710938 C109.02367772 31.01617283 111.00508603 31.94991686 112.99560547 32.87695312 C115.60106362 34.34252334 117.74335498 36.14084485 120.05810547 38.03710938 C122.79683572 40.15600266 125.5542714 42.25039754 128.30810547 44.34960938 C129.8224945 45.50837714 131.33681798 46.66723059 132.85107422 47.82617188 C135.2834654 49.68607642 137.7221023 51.53531528 140.17138672 53.37304688 C140.97962891 53.9840625 141.78787109 54.59507813 142.62060547 55.22460938 C143.30251953 55.73378906 143.98443359 56.24296875 144.68701172 56.76757812 C145.13947266 57.18652344 145.59193359 57.60546875 146.05810547 58.03710938 C146.05810547 58.69710937 146.05810547 59.35710938 146.05810547 60.03710938 C146.80060547 60.26398437 147.54310547 60.49085937 148.30810547 60.72460938 C151.62966647 62.30989985 152.82997597 64.13378913 155.05810547 67.03710938 C155.94498047 67.73835938 156.83185547 68.43960938 157.74560547 69.16210938 C162.59744837 73.05828625 166.23669877 78.1701658 170.05810547 83.03710938 C170.85571289 84.04366577 170.85571289 84.04366577 171.66943359 85.07055664 C175.87157992 90.41010411 179.84051695 95.87160051 183.68310547 101.47460938 C184.50294922 102.64733398 184.50294922 102.64733398 185.33935547 103.84375 C189.12364632 109.35269971 192.18559145 115.00951763 195.05810547 121.03710938 C195.76275743 122.43480477 196.47046031 123.83097252 197.18310547 125.22460938 C198.95847839 128.76825373 200.49676083 132.39397188 202.05810547 136.03710938 C202.72143793 137.28888192 203.38828039 138.538799 204.05810547 139.78710938 C206.1102332 143.81363273 207.17891998 147.89743949 208.27294922 152.26757812 C209.02066276 154.90503534 209.98631888 157.23420156 211.12060547 159.72460938 C213.31088139 165.05565833 213.89809852 170.35985915 214.48779297 176.04882812 C214.89742844 179.90663041 215.45880742 183.72501278 216.06591797 187.55664062 C219.44646012 209.0156698 220.19489505 227.55507894 215.5234375 248.80322266 C214.92045931 251.69789758 214.51708011 254.60781618 214.12060547 257.53710938 C213.26134231 262.90560308 211.40707058 267.64571942 209.35107422 272.66210938 C207.99333725 276.20617204 206.97777748 279.74740432 205.99560547 283.41210938 C204.06092838 290.45930666 204.06092838 290.45930666 202.05810547 293.72460938 C200.27249937 296.68201947 199.19016009 299.23764069 198.05810547 302.47460938 C196.39696818 307.22442382 194.40707797 311.59608324 192.05810547 316.03710938 C189.92794044 320.19758795 187.90056265 324.36544164 186.05810547 328.66210938 C184.40830109 332.42852324 182.34205413 335.61118638 180.05810547 339.03710938 C178.49914885 342.04807572 177.00302444 345.08431881 175.52294922 348.13476562 C174.14924955 350.85652258 172.63525868 353.43006649 171.05810547 356.03710938 C170.43923782 357.27989665 169.83404228 358.52962797 169.24560547 359.78710938 C166.9300518 364.48919153 164.03252162 368.73182239 161.05810547 373.03710938 C159.09720087 375.8944275 157.26598993 378.61144119 155.74560547 381.72460938 C152.21803903 388.64909164 147.91079055 394.98375995 143.05810547 401.03710938 C142.08711846 402.72015352 141.11799188 404.40446527 140.17529297 406.10351562 C137.9978689 409.87213421 135.49568173 413.43373577 133.05810547 417.03710938 C127.66736539 425.02870429 127.66736539 425.02870429 122.49560547 433.16210938 C117.75935525 440.81538788 112.35358936 448.04199341 107.11328125 455.35400391 C104.69993367 458.72469749 102.3036624 462.10646985 99.92529297 465.50195312 C99.39637451 466.25597412 98.86745605 467.00999512 98.32250977 467.78686523 C97.29832833 469.24837326 96.27623314 470.7113463 95.2565918 472.17602539 C92.36168151 476.30367063 89.31269162 480.18771955 86.05810547 484.03710938 C84.71478893 486.03041779 83.38216535 488.03095803 82.05810547 490.03710938 C79.04340667 494.1889314 75.90398003 498.2440975 72.74560547 502.28710938 C69.97204791 505.83824267 67.25578207 509.42799365 64.55810547 513.03710938 C61.31760424 517.37244887 58.03590195 521.66869733 54.69091797 525.92382812 C52.49550667 528.76525758 50.4014081 531.67789225 48.31982422 534.60351562 C47.90345703 535.07660156 47.48708984 535.5496875 47.05810547 536.03710938 C46.39810547 536.03710938 45.73810547 536.03710938 45.05810547 536.03710938 C44.82220703 536.73449219 44.58630859 537.431875 44.34326172 538.15039062 C42.8270267 541.55615864 40.78776393 544.31825496 38.49560547 547.22460938 C38.0530542 547.79268311 37.61050293 548.36075684 37.15454102 548.94604492 C33.02281626 554.19262109 28.58087513 559.12619157 24.05810547 564.03710938 C22.82371644 565.42832651 21.59421324 566.82390048 20.37060547 568.22460938 C19.52949219 569.18173828 19.52949219 569.18173828 18.67138672 570.15820312 C17.60379434 571.40157343 16.55881332 572.66475427 15.53857422 573.94726562 C10.52511956 580.17770664 5.03568556 583.44159336 -2.94189453 585.03710938 C-11.15506475 585.73898449 -17.52233354 584.83975781 -24.50439453 580.41210938 C-27.29790101 577.69023127 -29.57509259 574.77134811 -31.92236328 571.66210938 C-34.18544967 568.7205348 -36.55231328 565.8756368 -38.94189453 563.03710938 C-57.94189453 540.36406133 -57.94189453 540.36406133 -57.94189453 536.03710938 C-58.52068359 535.8128125 -59.09947266 535.58851563 -59.69580078 535.35742188 C-62.59567966 533.65279742 -63.94799822 531.65813422 -65.87939453 528.91210938 C-66.57935547 527.92082031 -67.27931641 526.92953125 -68.00048828 525.90820312 C-69.54447923 523.62483623 -71.01881657 521.33354199 -72.44189453 518.97460938 C-74.86018601 514.99768485 -77.7462195 511.49509017 -80.68408203 507.89257812 C-83.30979651 504.57182158 -85.79475514 501.16927772 -88.25439453 497.72460938 C-88.88510864 496.84458252 -88.88510864 496.84458252 -89.52856445 495.94677734 C-91.23952531 493.53636276 -92.88990891 491.12500979 -94.39501953 488.58007812 C-96.91926506 484.43037146 -99.9068315 480.61757769 -102.82666016 476.74023438 C-105.09967346 473.68460606 -107.22488002 470.65397874 -109.08251953 467.32617188 C-110.65146242 464.55085693 -112.23592126 462.23432757 -114.25439453 459.78710938 C-117.57315854 455.61738024 -120.42784459 451.26296859 -123.24658203 446.74414062 C-126.39450629 441.71761641 -129.73222706 436.81603213 -133.06689453 431.91210938 C-134.36871535 429.91598412 -135.59365305 427.86843892 -136.75439453 425.78710938 C-138.4452086 422.76494565 -140.36518142 419.97851992 -142.37939453 417.16210938 C-144.60635901 414.03206588 -146.62914372 410.92330396 -148.44189453 407.53710938 C-150.18028768 404.29248633 -152.09829251 401.33310946 -154.25439453 398.34960938 C-157.59045295 393.69956733 -160.42349071 388.85995491 -163.18920898 383.85864258 C-164.9257223 380.73380572 -166.79354811 377.88708339 -168.94189453 375.03710938 C-169.65282423 373.32441509 -170.36280555 371.61128165 -171.05908203 369.89257812 C-172.00268704 367.9093375 -173.12473027 366.29201385 -174.44189453 364.53710938 C-176.90673596 361.24084383 -178.37515525 357.85177892 -179.94189453 354.03710938 C-180.91982655 352.3020687 -181.89843391 350.56717727 -182.90673828 348.84960938 C-184.73202595 345.65363398 -186.31962652 342.33935454 -187.94189453 339.03710938 C-188.5450075 337.82824976 -189.14919796 336.61992721 -189.75439453 335.41210938 C-190.07794922 334.76371094 -190.40150391 334.1153125 -190.73486328 333.44726562 C-191.71269485 331.49476699 -192.69565325 329.54483649 -193.68017578 327.59570312 C-194.30909439 326.34701143 -194.93800056 325.09831348 -195.56689453 323.84960938 C-196.15728516 322.68042969 -196.74767578 321.51125 -197.35595703 320.30664062 C-198.6803177 317.57636998 -199.82667183 314.85524475 -200.94189453 312.03710938 C-201.73754525 310.40379337 -202.55040849 308.77876128 -203.37939453 307.16210938 C-208.21966649 297.55232966 -211.88569586 287.54983562 -215.13330078 277.30273438 C-215.96767371 274.85506773 -215.96767371 274.85506773 -217.40673828 271.88476562 C-219.32019788 267.47561728 -220.09503801 262.93444471 -220.94189453 258.22460938 C-222.11047138 252.03964774 -223.32751762 245.99069399 -225.32861328 240.00976562 C-227.35753665 233.48361084 -227.16301316 226.96165535 -227.18212891 220.18432617 C-227.19172043 218.13677516 -227.22272616 216.09027979 -227.25439453 214.04296875 C-227.337572 203.55777564 -225.66802963 194.07080024 -222.81689453 183.97460938 C-221.93163892 180.6318842 -221.78433686 177.42521684 -221.62939453 173.97460938 C-221.089077 165.41958175 -218.72879033 156.21745307 -213.94189453 149.03710938 C-213.43616261 147.11143783 -212.98322512 145.17156714 -212.56689453 143.22460938 C-211.40124158 138.32769548 -209.84345928 135.16964099 -206.94189453 131.03710938 C-206.23682671 129.21819901 -205.57363087 127.38277044 -204.94189453 125.53710938 C-203.4375553 121.18275245 -201.62331706 117.80785981 -198.94189453 114.03710938 C-198.25618878 112.69248325 -197.590432 111.3375514 -196.94189453 109.97460938 C-195.30969092 106.60138858 -193.31500529 103.94608385 -190.94189453 101.03710938 C-190.51521484 100.12960938 -190.08853516 99.22210938 -189.64892578 98.28710938 C-187.74277708 94.65801163 -185.37614727 91.7230913 -182.69189453 88.66210938 C-182.19882813 88.09049072 -181.70576172 87.51887207 -181.19775391 86.92993164 C-179.78452819 85.29421085 -178.36367262 83.66539387 -176.94189453 82.03710938 C-176.31798828 81.31136719 -175.69408203 80.585625 -175.05126953 79.83789062 C-173.36649439 77.88731359 -171.65693648 75.96112702 -169.94189453 74.03710938 C-169.12205078 73.10125 -168.30220703 72.16539063 -167.45751953 71.20117188 C-162.26077091 65.33884363 -156.94901989 60.17338992 -150.76220703 55.32617188 C-147.65378565 52.80327031 -144.78098878 50.10329558 -141.87939453 47.34960938 C-137.62295213 43.35019852 -133.29090023 40.13930871 -128.18017578 37.30273438 C-126.09641177 36.12448038 -124.23008661 34.84592375 -122.31689453 33.41210938 C-118.73511902 30.79433841 -114.93889363 28.93787455 -110.94189453 27.03710938 C-108.8556733 26.02219094 -106.7724934 25.00100444 -104.69189453 23.97460938 C-103.69673828 23.48863281 -102.70158203 23.00265625 -101.67626953 22.50195312 C-98.9845699 21.1626799 -98.9845699 21.1626799 -97.00048828 19.50585938 C-94.25327639 17.54579928 -91.44913559 16.67155219 -88.25439453 15.59960938 C-84.19567916 14.22321631 -80.27374556 12.78357562 -76.44189453 10.84960938 C-71.56913712 8.56351197 -66.53477487 8.2360392 -61.23876953 7.59960938 C-57.6123834 6.98088947 -55.06067592 5.87398441 -51.92163086 4.03857422 C-45.65293329 0.86750535 -38.21001073 0.66537189 -31.31689453 0.41210938 C-30.41156982 0.3748877 -29.50624512 0.33766602 -28.57348633 0.29931641 C-19.0483271 -0.05525252 -9.53027801 -0.13164666 0 0 Z M-20.77392578 20.09130859 C-23.74749374 20.15804824 -26.71927472 20.2495361 -29.69189453 20.34960938 C-31.06812988 20.38320557 -31.06812988 20.38320557 -32.47216797 20.41748047 C-38.03465914 20.64470978 -41.95970047 21.55225569 -46.94189453 24.03710938 C-52.13033973 26.11433388 -57.08006839 27.25490155 -62.62939453 27.97460938 C-67.83133191 28.69626543 -70.65291456 29.96023244 -74.94189453 33.03710938 C-77.7288748 33.86090795 -80.51380021 34.52580638 -83.35595703 35.13085938 C-86.42047518 36.20482948 -87.69932015 37.73260986 -89.94189453 40.03710938 C-92.41455078 41.19726563 -92.41455078 41.19726563 -95.00439453 42.09960938 C-98.48497089 43.31911959 -100.39111249 44.42360319 -102.94189453 47.03710938 C-104.77392578 47.81054687 -104.77392578 47.81054687 -106.75439453 48.41210938 C-109.67264271 49.42576048 -111.74842386 50.49391887 -114.06689453 52.53710938 C-116.91682556 55.01531027 -119.58837047 56.36034734 -122.94189453 58.03710938 C-124.29497766 59.35039594 -125.63059531 60.68210018 -126.94189453 62.03710938 C-127.99376953 62.53210937 -127.99376953 62.53210937 -129.06689453 63.03710938 C-131.10875937 63.88107103 -131.10875937 63.88107103 -131.81689453 65.97460938 C-132.94189453 68.03710938 -132.94189453 68.03710938 -136.00439453 69.53710938 C-136.97376953 70.03210938 -137.94314453 70.52710938 -138.94189453 71.03710938 C-139.30351482 72.36305042 -139.63917492 73.69649395 -139.94189453 75.03710938 C-140.69341797 75.3284375 -141.44494141 75.61976562 -142.21923828 75.91992188 C-145.23028015 77.15544264 -146.71641713 78.50298704 -148.94189453 80.84960938 C-149.62767578 81.56503906 -150.31345703 82.28046875 -151.02001953 83.01757812 C-151.65423828 83.68402344 -152.28845703 84.35046875 -152.94189453 85.03710938 C-153.84939453 85.90335937 -154.75689453 86.76960938 -155.69189453 87.66210938 C-158.15801686 90.2652385 -159.97049386 93.04821158 -161.94189453 96.03710938 C-162.66376953 96.73835938 -163.38564453 97.43960938 -164.12939453 98.16210938 C-166.09522104 99.87562051 -166.09522104 99.87562051 -166.44189453 102.16210938 C-166.60689453 102.78085938 -166.77189453 103.39960937 -166.94189453 104.03710938 C-167.88742188 104.45669922 -167.88742188 104.45669922 -168.85205078 104.88476562 C-171.51827235 106.35492518 -171.85074508 107.52911896 -172.87939453 110.34960938 C-174.58226413 114.5598539 -176.72480334 116.82001818 -179.94189453 120.03710938 C-180.8295516 122.0384473 -181.51069631 124.05622832 -182.19580078 126.13476562 C-182.94189453 128.03710938 -182.94189453 128.03710938 -184.94189453 130.47460938 C-187.28996403 133.48307342 -188.11773354 136.21387401 -189.13330078 139.85351562 C-189.94189453 142.03710938 -189.94189453 142.03710938 -191.44580078 143.93164062 C-193.35671392 146.62088914 -193.71687919 148.92826045 -194.31689453 152.16210938 C-195.21923579 156.48284397 -196.21668455 159.83595746 -198.50439453 163.59960938 C-201.64017377 169.29081468 -201.8343383 175.27253468 -202.22143555 181.64282227 C-202.55981766 186.7295177 -203.39166545 191.06169798 -205.21875 195.83178711 C-209.53101126 208.98258251 -209.06871406 228.09979826 -204.01220703 240.93554688 C-202.6168749 244.97895458 -202.09750079 249.00071362 -201.50439453 253.22460938 C-200.59949627 259.38059211 -199.29516122 264.22160534 -196.13720703 269.65820312 C-194.25323093 273.40768497 -193.53728526 277.37694903 -192.71533203 281.47070312 C-191.87041064 284.27430593 -190.96590213 285.03413043 -188.94189453 287.03710938 C-188.13330078 289.56054688 -188.13330078 289.56054688 -187.50439453 292.41210938 C-186.36440481 296.97803679 -184.92887895 299.39672211 -181.94189453 303.03710938 C-181.09280841 305.54191342 -180.41535101 308.0718878 -179.71923828 310.62304688 C-178.67879025 313.85418701 -176.88541686 316.26906243 -174.94189453 319.03710938 C-173.88290175 321.27047159 -172.91663742 323.53374073 -171.94580078 325.80664062 C-171.02746576 327.84698808 -170.01675262 329.73768218 -168.87939453 331.66210938 C-166.94189453 335.03710937 -166.94189453 335.03710937 -165.44189453 338.66210938 C-164.10519214 342.05857158 -164.10519214 342.05857158 -161.87939453 344.59960938 C-159.94189453 347.03710938 -159.94189453 347.03710938 -158.94189453 350.09960938 C-158.18222153 353.08889068 -158.18222153 353.08889068 -156.06689453 354.78710938 C-153.23075157 357.79008428 -152.29010876 361.02067023 -150.96923828 364.89257812 C-150.63021484 365.60027344 -150.29119141 366.30796875 -149.94189453 367.03710938 C-148.95189453 367.36710937 -147.96189453 367.69710938 -146.94189453 368.03710938 C-146.16845703 369.85742188 -146.16845703 369.85742188 -145.56689453 372.16210938 C-144.33729867 376.26076226 -142.67688197 379.11891125 -140.06689453 382.47460938 C-138.94189453 384.03710938 -138.94189453 384.03710938 -137.87939453 386.78710938 C-137.13546179 389.15845004 -137.13546179 389.15845004 -135.06689453 390.28710938 C-132.12442909 392.71031621 -131.29508466 395.55954929 -129.96923828 399.07617188 C-129.04733202 401.38729025 -129.04733202 401.38729025 -125.94189453 402.03710938 C-125.65314453 403.08898437 -125.36439453 404.14085937 -125.06689453 405.22460938 C-123.98070177 408.90559595 -122.78411579 410.64282612 -120.23876953 413.42773438 C-118.32716697 415.79996406 -117.16903096 418.4346396 -115.93408203 421.20507812 C-114.84536364 423.21534948 -113.57060377 424.44560415 -111.94189453 426.03710938 C-111.07217728 427.30456317 -110.23951123 428.59808699 -109.44189453 429.91210938 C-109.01134766 430.61722656 -108.58080078 431.32234375 -108.13720703 432.04882812 C-107.54552734 433.03302734 -107.54552734 433.03302734 -106.94189453 434.03710938 C-106.40564453 434.92398437 -105.86939453 435.81085938 -105.31689453 436.72460938 C-104.33432892 438.37710608 -103.37887807 440.04584721 -102.44189453 441.72460938 C-100.99711815 444.28643452 -100.99711815 444.28643452 -97.94189453 446.03710938 C-96.92423526 448.02818185 -95.92611599 450.0292976 -94.94189453 452.03710938 C-94.28189453 452.86210937 -93.62189453 453.68710937 -92.94189453 454.53710938 C-90.94189453 457.03710937 -90.94189453 457.03710937 -89.44189453 460.09960938 C-88.11622111 463.06823414 -88.11622111 463.06823414 -85.94189453 465.03710938 C-83.53186275 467.44714116 -82.45989087 470.00111669 -80.94189453 473.03710938 C-80.32314453 473.65585937 -79.70439453 474.27460938 -79.06689453 474.91210938 C-76.49720543 477.48179848 -74.88952245 480.28774599 -73.09033203 483.42773438 C-72.71134766 483.95882813 -72.33236328 484.48992187 -71.94189453 485.03710938 C-71.28189453 485.03710938 -70.62189453 485.03710938 -69.94189453 485.03710938 C-69.71501953 486.08898437 -69.48814453 487.14085937 -69.25439453 488.22460938 C-68.0836118 492.28601428 -66.01457177 494.0980268 -62.94189453 497.03710938 C-59.50518117 501.4672477 -56.17750404 505.9758082 -53.29345703 510.78710938 C-52.06916578 513.03085831 -52.06916578 513.03085831 -50.44189453 514.53710938 C-48.94189453 516.03710938 -48.94189453 516.03710938 -47.50439453 518.47460938 C-46.05785392 521.07330834 -46.05785392 521.07330834 -44.00439453 522.97460938 C-41.52651185 525.45249205 -39.83563588 528.08510081 -37.94189453 531.03710938 C-34.88995575 535.77998721 -32.01789077 540.10668443 -27.94189453 544.03710938 C-27.47783203 544.99617187 -27.47783203 544.99617187 -27.00439453 545.97460938 C-25.03140832 549.80452379 -21.53559124 552.4730975 -18.44189453 555.41210938 C-15.55996916 558.43813102 -13.30488471 561.59389511 -10.94189453 565.03710938 C-5.67269769 565.05597221 -5.67269769 565.05597221 -1.25048828 562.58789062 C0.25097961 560.78064076 1.65374034 558.92032679 3.05810547 557.03710938 C4.72477214 555.37044271 6.3914388 553.70377604 8.05810547 552.03710938 C12.04912013 547.80563172 12.04912013 547.80563172 15.04638672 542.88476562 C16.05810547 541.03710938 16.05810547 541.03710938 19.05810547 540.03710938 C20.5628876 538.18705169 20.5628876 538.18705169 21.93310547 535.91210938 C23.85339007 532.90206326 25.80725983 529.96829312 27.93310547 527.09960938 C30.24813265 524.38450282 30.24813265 524.38450282 30.05810547 522.03710938 C30.63560547 521.83085938 31.21310547 521.62460937 31.80810547 521.41210938 C34.8774939 519.536372 36.15125285 517.05116674 38.05810547 514.03710938 C39.05810547 513.03710938 40.05810547 512.03710938 41.05810547 511.03710938 C42.40142201 509.04380096 43.73404558 507.04326072 45.05810547 505.03710938 C46.37476211 503.35723711 47.71073574 501.69244933 49.05810547 500.03710938 C50.27185951 498.52059871 51.47973709 496.99937428 52.68310547 495.47460938 C53.27349609 494.73082031 53.86388672 493.98703125 54.47216797 493.22070312 C56.08985291 491.12041744 56.08985291 491.12041744 57.11279297 488.91601562 C58.52663862 486.10585133 60.84582342 484.24939143 63.05810547 482.03710938 C63.7555913 480.71963614 64.42770504 479.38796744 65.05810547 478.03710938 C65.75033203 477.36228516 65.75033203 477.36228516 66.45654297 476.67382812 C68.72587542 474.35468106 70.15439102 471.66946405 71.77685547 468.87695312 C73.05810547 467.03710937 73.05810547 467.03710937 76.05810547 465.03710938 C76.52216797 463.30460938 76.52216797 463.30460938 76.99560547 461.53710938 C77.34623047 460.38210938 77.69685547 459.22710937 78.05810547 458.03710938 C79.37457666 457.33773406 80.70832698 456.66981804 82.05810547 456.03710938 C83.35042189 452.99511465 83.35042189 452.99511465 84.05810547 450.03710938 C84.71810547 450.03710938 85.37810547 450.03710938 86.05810547 450.03710938 C87.35003874 448.61722294 87.35003874 448.61722294 88.55810547 446.78710938 C89.00025391 446.14644531 89.44240234 445.50578125 89.89794922 444.84570312 C91.12048322 443.01808362 91.12048322 443.01808362 92.12060547 440.84960938 C93.05810547 439.03710938 93.05810547 439.03710938 94.99560547 437.16210938 C97.40302682 434.68173586 98.54582294 432.12742584 100.05810547 429.03710938 C100.54279297 428.56273437 101.02748047 428.08835937 101.52685547 427.59960938 C103.22655075 425.86522644 104.00806964 424.30779034 104.99560547 422.09960938 C106.60004267 418.73763982 108.37283842 416.63575491 111.05810547 414.03710938 C112.07501811 412.04565546 113.07453195 410.04523864 114.05810547 408.03710938 C115.3914388 406.37044271 116.72477214 404.70377604 118.05810547 403.03710938 C118.83154297 401.45929688 118.83154297 401.45929688 119.62060547 399.84960938 C121.05810547 397.03710938 121.05810547 397.03710938 124.05810547 395.03710938 C124.77970969 393.3314994 125.49734055 391.62381703 126.17529297 389.90039062 C127.60461925 386.88362676 129.90529505 384.56666162 132.05810547 382.03710938 C133.07369948 380.04498267 134.07600176 378.04595788 135.05810547 376.03710938 C135.54150391 375.57433594 136.02490234 375.1115625 136.52294922 374.63476562 C138.32354033 372.76086801 139.03846984 371.06932602 139.99560547 368.66210938 C141.57518564 364.92195402 143.45039506 362.16636187 146.05810547 359.03710938 C146.38810547 358.19148438 146.71810547 357.34585937 147.05810547 356.47460938 C148.05810547 354.03710938 148.05810547 354.03710938 149.99560547 352.28710938 C152.60075103 349.4451324 153.18911381 346.77242928 154.27685547 343.13085938 C155.28885061 340.4187124 157.02650846 339.06870638 159.05810547 337.03710938 C159.9077357 334.76010035 160.58243327 332.45553191 161.27685547 330.12695312 C162.05810547 328.03710938 162.05810547 328.03710938 164.05810547 326.09960938 C166.84365068 323.22701588 167.25892563 320.15578181 168.27685547 316.34960938 C169.25556512 313.4526288 170.91555474 312.17966011 173.05810547 310.03710938 C173.92103803 307.52166096 174.58989281 304.98075237 175.27685547 302.41210938 C176.05810547 300.03710937 176.05810547 300.03710937 178.05810547 297.59960938 C180.72918689 294.1772863 181.32417264 290.75618369 182.24951172 286.56054688 C183.11391449 283.8629421 183.99156895 282.89043181 186.05810547 281.03710938 C187.83974992 276.74020217 188.59124209 272.36603709 189.30029297 267.79492188 C189.98348526 265.3086654 190.79732831 263.60220797 192.02685547 261.36914062 C194.50272485 256.59240668 195.08729285 251.8969946 195.68310547 246.59960938 C195.90095732 244.80881526 196.12228336 243.01844018 196.34716797 241.22851562 C196.45625488 240.35952637 196.5653418 239.49053711 196.67773438 238.59521484 C197.04673267 236.11359473 197.54772513 233.7093716 198.12060547 231.26757812 C201.26288981 217.71815547 198.04154501 203.53391662 196.03076172 190.02539062 C195.22003312 184.52247048 194.68300503 179.05200521 194.34472656 173.50073242 C193.96259707 170.21617644 192.79946704 167.82328789 191.05810547 165.03710938 C188.56731701 160.71910158 187.96673609 156.07414687 187.03466797 151.22851562 C185.95531761 147.70119864 184.39040264 145.84958537 182.05810547 143.03710938 C181.15185547 140.53710938 181.15185547 140.53710938 180.55810547 138.03710938 C179.4038445 133.80065966 177.91068448 131.40833912 175.05810547 128.03710938 C173.98185021 125.69443344 173.01325717 123.33286744 172.08544922 120.92773438 C171.14668274 118.68742174 171.14668274 118.68742174 168.05810547 118.03710938 C167.62278683 116.36280691 167.19126233 114.68736825 166.78466797 113.00585938 C165.67254845 109.99237423 163.66815162 108.0020804 161.50732422 105.67382812 C160.05810547 104.03710937 160.05810547 104.03710937 158.43310547 101.22460938 C157.23943945 98.88907561 157.23943945 98.88907561 154.93310547 98.03710938 C154.31435547 97.70710938 153.69560547 97.37710938 153.05810547 97.03710938 C152.91373047 96.25335938 152.76935547 95.46960938 152.62060547 94.66210938 C151.84747767 91.05417963 149.9374602 90.21418246 147.05810547 88.03710938 C146.72810547 87.35648437 146.39810547 86.67585938 146.05810547 85.97460938 C144.66798556 83.28125205 142.63753292 82.57248286 140.05810547 81.03710938 C139.37748047 80.17085937 138.69685547 79.30460937 137.99560547 78.41210938 C135.84314354 75.77360766 135.1824121 75.76611426 132.05810547 75.03710938 C131.76935547 74.43898437 131.48060547 73.84085938 131.18310547 73.22460938 C129.54932377 70.04781163 127.04668477 68.95431119 124.05810547 67.03710938 C122.25980274 65.49515217 120.50602959 63.91722681 118.76904297 62.30664062 C116.87114078 60.89837987 115.32861096 60.58068378 113.05810547 60.03710938 C112.62498047 59.10898438 112.62498047 59.10898438 112.18310547 58.16210938 C110.55448396 55.0858243 108.14430179 54.51848361 105.05810547 53.03710938 C104.45998047 52.37710938 103.86185547 51.71710937 103.24560547 51.03710938 C100.43605509 48.4683776 97.71469369 47.81735971 94.08154297 46.84570312 C92.05810547 46.03710937 92.05810547 46.03710937 90.05810547 43.03710938 C87.34434324 41.90422133 84.59150138 41.07109112 81.78466797 40.19726562 C79.05810547 39.03710938 79.05810547 39.03710938 77.08154297 37.00585938 C74.51233537 34.50608982 72.54456848 34.1675439 69.05810547 33.47460938 C63.42710241 32.34137001 63.42710241 32.34137001 61.27685547 30.56835938 C57.73708537 28.12541945 53.74576162 27.81313114 49.55810547 27.09960938 C43.88894757 26.12412927 38.60063284 24.93181028 33.18701172 22.95507812 C26.90892416 20.78770307 21.09938213 20.3739749 14.49560547 20.28710938 C12.79452637 20.24481201 12.79452637 20.24481201 11.05908203 20.20166016 C7.7253887 20.125873 4.39239544 20.07727534 1.05810547 20.03710938 C0.17074707 20.02196289 -0.71661133 20.00681641 -1.63085938 19.99121094 C-8.01645686 19.88675871 -14.38927669 19.96911962 -20.77392578 20.09130859 Z " fill="#FEFEFE" transform="translate(226.94189453125,-0.03710937499999999)"/>
<path d="M0 0 C0.83496002 0.00990463 1.66992004 0.01980927 2.53018188 0.03001404 C5.18081015 0.06900801 7.82720007 0.15678669 10.4765625 0.24609375 C12.27988783 0.28122767 14.0832785 0.31316305 15.88671875 0.34179688 C20.29458734 0.41276072 24.69336977 0.54969011 29.1015625 0.68359375 C28.4415625 9.92359375 27.7815625 19.16359375 27.1015625 28.68359375 C34.3615625 28.35359375 41.6215625 28.02359375 49.1015625 27.68359375 C49.1221875 25.27046875 49.1428125 22.85734375 49.1640625 20.37109375 C49.1731665 19.63592529 49.18227051 18.90075684 49.19165039 18.14331055 C49.21517106 12.28362967 48.70207442 6.50930408 48.1015625 0.68359375 C53.42162477 0.51023356 58.74003603 0.38338371 64.06225586 0.29907227 C65.8714665 0.26392152 67.680479 0.2161891 69.48901367 0.15551758 C72.09343303 0.0703497 74.69522111 0.03085592 77.30078125 0 C78.10617844 -0.036129 78.91157562 -0.072258 79.74137878 -0.10948181 C85.25352492 -0.11331443 85.25352492 -0.11331443 87.71522522 2.19996643 C90.04569202 5.4025116 91.80071469 8.77383716 93.1640625 12.49609375 C93.48761719 13.35074219 93.81117188 14.20539063 94.14453125 15.0859375 C94.61826172 16.37177734 94.61826172 16.37177734 95.1015625 17.68359375 C97.14898384 23.08291163 99.35937801 28.25159422 102.0390625 33.37109375 C105.02396341 39.20487477 107.05799063 45.10547093 109.0234375 51.3359375 C110.02955294 54.61492147 110.02955294 54.61492147 111.2421875 57.4375 C112.1015625 59.68359375 112.1015625 59.68359375 112.1015625 62.68359375 C112.7615625 62.68359375 113.4215625 62.68359375 114.1015625 62.68359375 C114.34390625 63.52921875 114.58625 64.37484375 114.8359375 65.24609375 C116.54948552 71.04579475 118.28305371 76.51438337 121.16015625 81.83984375 C122.18612101 83.84920212 122.96170261 85.87447234 123.7265625 87.99609375 C124.9476767 91.70089099 124.9476767 91.70089099 127.1015625 94.68359375 C127.37868326 96.13357912 127.60176832 97.59429379 127.7890625 99.05859375 C128.94429998 105.46921482 132.39826401 113.98029526 137.1015625 118.68359375 C139.41237331 133.06197213 139.41237331 133.06197213 136.1015625 139.68359375 C110.0315625 139.68359375 83.9615625 139.68359375 57.1015625 139.68359375 C57.1015625 128.79359375 57.1015625 117.90359375 57.1015625 106.68359375 C52.13527816 106.66068419 47.16917587 106.64075732 42.20288086 106.62866211 C40.51211934 106.62362185 38.82136221 106.6167897 37.13061523 106.6081543 C34.70555543 106.59607518 32.28055306 106.59036252 29.85546875 106.5859375 C29.09504776 106.58077621 28.33462677 106.57561493 27.55116272 106.57029724 C25.7342368 106.57010137 23.91743123 106.62162098 22.1015625 106.68359375 C20.19442594 108.59073031 20.87999439 111.99149851 20.8203125 114.52734375 C20.80190308 115.21163452 20.78349365 115.89592529 20.76452637 116.60095215 C20.70561111 118.79507634 20.65286066 120.98927901 20.6015625 123.18359375 C20.53410389 126.06918309 20.46043637 128.954512 20.3828125 131.83984375 C20.35251953 133.12697266 20.32222656 134.41410156 20.29101562 135.74023438 C20.1015625 138.68359375 20.1015625 138.68359375 19.1015625 139.68359375 C16.70886299 139.7891822 14.34488294 139.83037815 11.95141602 139.82885742 C11.20345764 139.83221603 10.45549927 139.83557465 9.68487549 139.83903503 C7.20005658 139.84857277 4.71530485 139.85048955 2.23046875 139.8515625 C0.51032991 139.85477313 -1.20980865 139.85813704 -2.9299469 139.86164856 C-6.54062534 139.8676469 -10.15127982 139.86948774 -13.76196289 139.86889648 C-18.39714735 139.86879482 -23.03217877 139.88244803 -27.66732693 139.89966869 C-31.22142752 139.91076694 -34.77549086 139.91281636 -38.32960701 139.91228676 C-40.03889557 139.91347013 -41.748185 139.91791176 -43.45745659 139.92561913 C-45.8447134 139.93537534 -48.2316347 139.93255847 -50.61889648 139.92651367 C-51.33014175 139.93213318 -52.04138702 139.93775269 -52.77418518 139.94354248 C-57.67012176 139.91190949 -57.67012176 139.91190949 -59.8984375 137.68359375 C-60.97580693 127.88704849 -59.60173601 119.79316745 -55.8984375 110.68359375 C-55.41750871 109.33005189 -54.93815372 107.975949 -54.4609375 106.62109375 C-52.85915139 102.40540393 -50.928769 98.34246678 -49.0390625 94.25 C-47.79328869 91.44700892 -46.77253119 88.62372706 -45.8984375 85.68359375 C-45.2384375 85.68359375 -44.5784375 85.68359375 -43.8984375 85.68359375 C-43.7746875 85.04421875 -43.6509375 84.40484375 -43.5234375 83.74609375 C-43.3171875 82.73546875 -43.1109375 81.72484375 -42.8984375 80.68359375 C-42.77597656 79.95914063 -42.65351563 79.2346875 -42.52734375 78.48828125 C-42.38167969 77.70710938 -42.23601562 76.9259375 -42.0859375 76.12109375 C-41.95574219 75.37730469 -41.82554687 74.63351563 -41.69140625 73.8671875 C-40.8984375 71.68359375 -40.8984375 71.68359375 -38.984375 69.9609375 C-35.95872872 66.65765701 -35.36430784 63.09520142 -34.3359375 58.80859375 C-32.99671794 53.3898374 -31.57012936 48.63386749 -28.8984375 43.68359375 C-28.179648 41.78860324 -27.4630187 39.89267683 -26.76953125 37.98828125 C-25.38188782 34.31693764 -23.8143881 30.72188903 -22.28125 27.109375 C-21.27405994 24.61416121 -20.33826438 22.13908054 -19.453125 19.6015625 C-19.20473877 18.9003125 -18.95635254 18.1990625 -18.70043945 17.4765625 C-18.22229634 16.11522008 -17.75640125 14.74948637 -17.30541992 13.37890625 C-14.0875538 4.28668375 -9.8889674 -0.44646645 0 0 Z " fill="#FEFDFA" transform="translate(181.8984375,138.31640625)"/>
<path d="M0 0 C0.97710937 -0.00257813 1.95421875 -0.00515625 2.9609375 -0.0078125 C3.98445312 -0.00007812 5.00796875 0.00765625 6.0625 0.015625 C7.08601563 0.00789062 8.10953125 0.00015625 9.1640625 -0.0078125 C10.14117187 -0.00523437 11.11828125 -0.00265625 12.125 0 C13.02347656 0.00225586 13.92195313 0.00451172 14.84765625 0.00683594 C17.0625 0.265625 17.0625 0.265625 19.0625 2.265625 C19.55309107 4.72766539 19.91337038 7.08982817 20.1875 9.578125 C20.27169189 10.31417969 20.35588379 11.05023438 20.44262695 11.80859375 C21.09000766 18.12629479 21.2445563 24.41773005 21.25 30.765625 C21.25080566 31.69157471 21.25161133 32.61752441 21.25244141 33.5715332 C21.19701356 40.13111144 21.19701356 40.13111144 20.0625 41.265625 C15.58918042 41.51942734 11.1046654 41.45085221 6.625 41.453125 C5.35849609 41.46537109 4.09199219 41.47761719 2.78710938 41.49023438 C1.57990234 41.49216797 0.37269531 41.49410156 -0.87109375 41.49609375 C-2.5425647 41.50225708 -2.5425647 41.50225708 -4.24780273 41.50854492 C-6.9375 41.265625 -6.9375 41.265625 -8.9375 39.265625 C-9.08862305 37.36474609 -9.08862305 37.36474609 -8.94921875 35.0390625 C-8.87973022 33.74899292 -8.87973022 33.74899292 -8.80883789 32.43286133 C-8.74817139 31.51142334 -8.68750488 30.58998535 -8.625 29.640625 C-8.57013428 28.70307373 -8.51526855 27.76552246 -8.45874023 26.79956055 C-8.34543891 24.88061105 -8.2279934 22.96190183 -8.10644531 21.04345703 C-7.9512467 18.49165091 -7.82425838 15.9406748 -7.7109375 13.38671875 C-7.64091308 11.95050676 -7.5706182 10.51430792 -7.5 9.078125 C-7.43941406 7.80582031 -7.37882813 6.53351563 -7.31640625 5.22265625 C-6.66932803 0.17277777 -4.57857719 0.01149571 0 0 Z " fill="#F88F0A" transform="translate(213.9375,180.734375)"/>
<path d="M0 0 C0 0.66 0 1.32 0 2 C-0.61875 2.226875 -1.2375 2.45375 -1.875 2.6875 C-4.61410209 4.37929835 -5.05024472 5.99244161 -6 9 C-7.32 9 -8.64 9 -10 9 C-10.0928125 9.8971875 -10.0928125 9.8971875 -10.1875 10.8125 C-11 13 -11 13 -13.375 14.25 C-17.23051437 16.82034291 -17.64034576 19.63479429 -19 24 C-20.65 24 -22.3 24 -24 24 C-23.87625 25.0725 -23.7525 26.145 -23.625 27.25 C-23.74875 28.4875 -23.8725 29.725 -24 31 C-26.75 33 -26.75 33 -30 35 C-31.22287727 36.71336149 -31.22287727 36.71336149 -32.1875 38.625 C-34 42 -34 42 -37 44 C-37.61505082 46.25490545 -37.61505082 46.25490545 -37.875 48.8125 C-38.72532347 53.8286939 -40.4057524 55.4057524 -44 59 C-45.30351967 62.60264097 -46.19383984 66.25758169 -47 70 C-49.475 70.495 -49.475 70.495 -52 71 C-51.69707031 70.43023437 -51.39414062 69.86046875 -51.08203125 69.2734375 C-50.03292332 67.06917462 -49.35744354 64.96774733 -48.6875 62.625 C-47.27024031 58.20775405 -44.97147285 55.56576742 -42 52 C-41.11821499 49.72974396 -41.11821499 49.72974396 -40.4375 47.3125 C-39.29122615 43.42933634 -38.27224987 42.37981809 -35 40 C-33.91045699 37.72340623 -32.99613853 35.42700162 -32.125 33.05859375 C-30.75620583 30.55389053 -29.52958114 30.17536094 -27 29 C-26.690625 28.071875 -26.38125 27.14375 -26.0625 26.1875 C-24.77002106 22.31006319 -23.00612944 20.7264895 -20 18 C-15.83848324 13.95408093 -12.0082776 9.66628537 -8.18359375 5.3046875 C-3.15762712 0 -3.15762712 0 0 0 Z " fill="#FBA538" transform="translate(87,75)"/>
<path d="M0 0 C13.53 0 27.06 0 41 0 C41 0.33 41 0.66 41 1 C28.46 1 15.92 1 3 1 C3.66 4.63 4.32 8.26 5 12 C5.14828213 14.92040391 5.24093606 17.71695349 5.1875 20.625 C5.18685547 21.33011719 5.18621094 22.03523438 5.18554688 22.76171875 C5.14135386 27.85864614 5.14135386 27.85864614 4 29 C2.36527118 29.08700342 0.72685945 29.10701063 -0.91015625 29.09765625 C-1.89951172 29.09443359 -2.88886719 29.09121094 -3.90820312 29.08789062 C-4.94912109 29.07951172 -5.99003906 29.07113281 -7.0625 29.0625 C-8.10728516 29.05798828 -9.15207031 29.05347656 -10.22851562 29.04882812 C-12.8190666 29.03699913 -15.40950559 29.02051689 -18 29 C-18.10094304 20.58807963 -18.10102642 12.35600408 -17 4 C-16.67 4 -16.34 4 -16 4 C-16 11.59 -16 19.18 -16 27 C-10.06 27 -4.12 27 2 27 C2 19.08 2 11.16 2 3 C1.34 3 0.68 3 0 3 C0 2.01 0 1.02 0 0 Z " fill="#FCB357" transform="translate(227,138)"/>
<path d="M0 0 C0.33 0 0.66 0 1 0 C0.88204075 4.68157901 0.75781451 9.36293288 0.62768555 14.04418945 C0.58427854 15.637893 0.54260781 17.2316448 0.50268555 18.82543945 C0.44512193 21.11163908 0.38138851 23.39759449 0.31640625 25.68359375 C0.29969376 26.40026718 0.28298126 27.11694061 0.26576233 27.85533142 C0.11387171 32.88612829 0.11387171 32.88612829 -1 34 C-3.44803412 34.12156404 -5.86838388 34.17858482 -8.31787109 34.19287109 C-9.08373032 34.20104858 -9.84958954 34.20922607 -10.63865662 34.21765137 C-13.18357549 34.24254871 -15.72843849 34.25903143 -18.2734375 34.2734375 C-19.57380384 34.28142302 -19.57380384 34.28142302 -20.90044022 34.28956985 C-25.48797981 34.31631903 -30.07549201 34.33568911 -34.66308594 34.35009766 C-39.4105272 34.36675927 -44.15727608 34.4115441 -48.90445518 34.4624691 C-52.54695467 34.4960639 -56.1892882 34.50766646 -59.83192825 34.51332474 C-61.58230512 34.52005775 -63.33267031 34.53533276 -65.08289719 34.55921555 C-67.53029158 34.59070848 -69.97579746 34.59092886 -72.42333984 34.58349609 C-73.14969131 34.59990143 -73.87604279 34.61630676 -74.62440491 34.63320923 C-76.64682007 34.60800171 -76.64682007 34.60800171 -80 34 C-82.63668789 30.77472634 -83.38475944 28.37363882 -83.25 24.25 C-83.22421875 23.39148438 -83.1984375 22.53296875 -83.171875 21.6484375 C-82.91832254 17.74142461 -82.50106528 13.88325594 -82 10 C-81.01 10 -80.02 10 -79 10 C-78.67 8.68 -78.34 7.36 -78 6 C-77.67 6.66 -77.34 7.32 -77 8 C-77.474375 9.051875 -77.94875 10.10375 -78.4375 11.1875 C-80.96148639 17.4110281 -80.43252809 24.40394657 -80 31 C-78.31496301 32.68503699 -76.23740116 32.11965983 -73.98905945 32.12442017 C-73.27264786 32.12082489 -72.55623627 32.11722961 -71.81811523 32.11352539 C-70.6913588 32.11374443 -70.6913588 32.11374443 -69.5418396 32.1139679 C-67.04739541 32.11326863 -64.55302497 32.10547564 -62.05859375 32.09765625 C-60.33366436 32.09579212 -58.60873443 32.09436819 -56.88380432 32.09336853 C-52.33487497 32.08954297 -47.78597733 32.07971238 -43.23706055 32.06866455 C-38.59879994 32.05845124 -33.96053423 32.05387108 -29.32226562 32.04882812 C-20.21482978 32.03809014 -11.10741752 32.02101327 -2 32 C-1.96241577 30.59923218 -1.96241577 30.59923218 -1.92407227 29.17016602 C-1.82913072 25.71674811 -1.72988742 22.2635104 -1.62768555 18.81030273 C-1.58428187 17.31360731 -1.54261087 15.81686061 -1.50268555 14.32006836 C-1.44511384 12.17285688 -1.38138284 10.02590479 -1.31640625 7.87890625 C-1.27974854 6.5854126 -1.24309082 5.29191895 -1.20532227 3.95922852 C-1 1 -1 1 0 0 Z " fill="#FC9B22" transform="translate(203,245)"/>
<path d="M0 0 C10.56 0 21.12 0 32 0 C32.77834263 3.89171313 33.11844927 6.84998739 33.09765625 10.73828125 C33.09443359 11.80498047 33.09121094 12.87167969 33.08789062 13.97070312 C33.07532227 15.62489258 33.07532227 15.62489258 33.0625 17.3125 C33.05798828 18.43462891 33.05347656 19.55675781 33.04882812 20.71289062 C33.03707313 23.4753151 33.02064077 26.23762998 33 29 C31.02 29.99 31.02 29.99 29 31 C29.165 30.236875 29.33 29.47375 29.5 28.6875 C30.77687201 20.15868343 30.77687201 20.15868343 29 12 C28.86584528 9.3276379 28.95681459 6.67749512 29 4 C25.76248322 2.92082774 23.42248229 2.88574399 20.01953125 2.90234375 C18.27446289 2.90717773 18.27446289 2.90717773 16.49414062 2.91210938 C14.67172852 2.92467773 14.67172852 2.92467773 12.8125 2.9375 C10.97268555 2.94426758 10.97268555 2.94426758 9.09570312 2.95117188 C6.06375332 2.96296935 3.03190094 2.97943079 0 3 C0 2.01 0 1.02 0 0 Z " fill="#E68204" transform="translate(205,245)"/>
<path d="M0 0 C3.05075084 -0.266487 5.89626179 -0.34757146 8.9453125 -0.29296875 C9.8303244 -0.28872391 10.7153363 -0.28447906 11.62716675 -0.28010559 C14.46008445 -0.26328259 17.29229652 -0.22562425 20.125 -0.1875 C22.04295849 -0.17245782 23.96092811 -0.15876861 25.87890625 -0.14648438 C30.58621031 -0.11336727 35.29298544 -0.06156055 40 0 C40 0.66 40 1.32 40 2 C36.0523573 3.3158809 32.28910644 3.12300273 28.17578125 3.09765625 C27.31438034 3.0962413 26.45297943 3.09482635 25.56547546 3.09336853 C22.81444831 3.0877714 20.06350256 3.07521946 17.3125 3.0625 C15.4472668 3.05748463 13.58203233 3.05292179 11.71679688 3.04882812 C7.14449989 3.03780292 2.57226375 3.02054027 -2 3 C-1.34 2.01 -0.68 1.02 0 0 Z " fill="#E07E04" transform="translate(172,135)"/>
<path d="M0 0 C0.66 0 1.32 0 2 0 C2.33 1.32 2.66 2.64 3 4 C9.6 4 16.2 4 23 4 C23.66 2.68 24.32 1.36 25 0 C25.99 0 26.98 0 28 0 C28.04241723 2.33294775 28.04092937 4.66702567 28 7 C26.19720809 8.80279191 23.45952299 8.13036605 21.03125 8.1328125 C19.82082031 8.13410156 18.61039063 8.13539063 17.36328125 8.13671875 C16.08839844 8.13285156 14.81351563 8.12898437 13.5 8.125 C12.22511719 8.12886719 10.95023438 8.13273438 9.63671875 8.13671875 C7.82107422 8.13478516 7.82107422 8.13478516 5.96875 8.1328125 C4.84919922 8.13168457 3.72964844 8.13055664 2.57617188 8.12939453 C0 8 0 8 -1 7 C-1.125 4 -1.125 4 -1 1 C-0.67 0.67 -0.34 0.34 0 0 Z " fill="#F19623" transform="translate(207,214)"/>
<path d="M0 0 C2.22720121 3.34080181 2.40541959 5.02003653 2.78125 8.9609375 C2.90113281 10.15589844 3.02101563 11.35085937 3.14453125 12.58203125 C3.26183594 13.83371094 3.37914062 15.08539063 3.5 16.375 C4.19701156 23.58255909 4.91769577 30.74590595 6.0859375 37.89453125 C6.87029688 42.78893377 7.21757973 47.35948455 7.125 52.3125 C7.10695313 53.58738281 7.08890625 54.86226562 7.0703125 56.17578125 C7.03550781 57.57376953 7.03550781 57.57376953 7 59 C6.67 59 6.34 59 6 59 C5.90912109 57.86111328 5.90912109 57.86111328 5.81640625 56.69921875 C5.73261719 55.70535156 5.64882813 54.71148437 5.5625 53.6875 C5.44068359 52.20830078 5.44068359 52.20830078 5.31640625 50.69921875 C5.08187441 47.90624401 5.08187441 47.90624401 4 45 C3.01 45.495 3.01 45.495 2 46 C1.34 30.82 0.68 15.64 0 0 Z " fill="#FB9F2C" transform="translate(419,168)"/>
<path d="M0 0 C0.33 0 0.66 0 1 0 C1.08112454 2.58396679 1.14054748 5.16537568 1.1875 7.75 C1.22520508 8.84441406 1.22520508 8.84441406 1.26367188 9.9609375 C1.30825953 13.23069901 1.21328109 15.59482885 -0.32421875 18.515625 C-2 20 -2 20 -5 20 C-5.06058594 21.14597656 -5.12117188 22.29195312 -5.18359375 23.47265625 C-5.26806989 25.00261297 -5.35271427 26.53256041 -5.4375 28.0625 C-5.49647461 29.19075195 -5.49647461 29.19075195 -5.55664062 30.34179688 C-5.81580719 34.94698741 -6.2799421 39.44366724 -7 44 C-7.66 44 -8.32 44 -9 44 C-9.495 46.475 -9.495 46.475 -10 49 C-11.33427206 46.33145588 -10.74496184 45.08773243 -10.125 42.1875 C-9.27396708 37.94891394 -8.88640242 33.94266109 -8.75 29.625 C-8.35265904 23.30502961 -6.27295815 18.69858298 -3.43359375 13.1015625 C-1.46576755 8.84419465 -0.60589565 4.6277892 0 0 Z " fill="#FB9F2B" transform="translate(34,146)"/>
<path d="M0 0 C0.99 0.33 1.98 0.66 3 1 C3 8.26 3 15.52 3 23 C-2.94 23 -8.88 23 -15 23 C-15 22.01 -15 21.02 -15 20 C-10.05 19.67 -5.1 19.34 0 19 C0 12.73 0 6.46 0 0 Z " fill="#E07E03" transform="translate(226,142)"/>
<path d="M0 0 C3.64581687 -0.02887512 7.29160463 -0.04675585 10.9375 -0.0625 C12.49887695 -0.07506836 12.49887695 -0.07506836 14.09179688 -0.08789062 C15.57583008 -0.09272461 15.57583008 -0.09272461 17.08984375 -0.09765625 C18.46450806 -0.10551147 18.46450806 -0.10551147 19.86694336 -0.11352539 C22 0 22 0 23 1 C23.04092937 3.33297433 23.04241723 5.66705225 23 8 C22.01 8.495 22.01 8.495 21 9 C20.34 7.35 19.68 5.7 19 4 C12.73 4 6.46 4 0 4 C0 2.68 0 1.36 0 0 Z " fill="#E18006" transform="translate(209,181)"/>
<path d="M0 0 C1.32 0 2.64 0 4 0 C4 6.6 4 13.2 4 20 C2.68 20 1.36 20 0 20 C0 13.4 0 6.8 0 0 Z " fill="#EC8504" transform="translate(211,142)"/>
<path d="M0 0 C2.375 0.4375 2.375 0.4375 5 2 C5.79010729 4.23063439 6.18724994 6.37335676 6.54296875 8.7109375 C7.0356342 11.17847558 7.58797473 12.9118584 9 15 C10.32 15.33 11.64 15.66 13 16 C13.33 20.95 13.66 25.9 14 31 C11.80813903 28.80813903 11.46818072 27.66641332 10.625 24.75 C9.65370924 21.65370256 8.8099203 19.72352044 6.9375 17 C4.76307894 13.63315449 4.19060967 10.95913483 3.58984375 7.05078125 C2.89179749 4.62379922 1.81059304 3.7026444 0 2 C0 1.34 0 0.68 0 0 Z " fill="#FBA335" transform="translate(35,282)"/>
<path d="M0 0 C1.3677692 3.87534606 0.86547605 7.57170206 0.375 11.5625 C0.24557007 12.62778931 0.24557007 12.62778931 0.11352539 13.71459961 C-0.66170552 19.20700822 -2.35030421 23.70228349 -4.890625 28.6484375 C-6.38328107 31.8124479 -6.76879108 34.53186617 -7 38 C-7.33 38 -7.66 38 -8 38 C-8.10853983 35.77191841 -8.18583307 33.54230068 -8.25 31.3125 C-8.29640625 30.07113281 -8.3428125 28.82976562 -8.390625 27.55078125 C-7.93703114 23.42761305 -6.80077431 21.96646898 -4 19 C-2.55858086 16.11716171 -2.42123969 13.25141608 -2 10.0625 C-1.10806175 3.32418525 -1.10806175 3.32418525 0 0 Z " fill="#FCA83F" transform="translate(422,237)"/>
<path d="M0 0 C1.26575001 2.47717598 2.37769988 4.91961709 3.4375 7.5 C4.74672758 10.86576155 4.74672758 10.86576155 6.5 12.78125 C8.507264 15.750328 8.9115794 18.4887483 9.5625 22 C10.62758514 27.73126523 10.62758514 27.73126523 13 33 C8.45017742 29.15580418 7.29292495 26.57663358 6.6875 20.6875 C6.54699219 19.43324219 6.40648437 18.17898437 6.26171875 16.88671875 C6.13216797 15.45779297 6.13216797 15.45779297 6 14 C4.35 13.67 2.7 13.34 1 13 C0.1276588 10.00519083 -0.10829766 7.36424089 -0.0625 4.25 C-0.05347656 3.45078125 -0.04445313 2.6515625 -0.03515625 1.828125 C-0.02355469 1.22484375 -0.01195312 0.6215625 0 0 Z " fill="#FCA941" transform="translate(406,135)"/>
<path d="M0 0 C0.66 0.33 1.32 0.66 2 1 C0 4 0 4 -2.20703125 4.51953125 C-3.06683594 4.61621094 -3.92664063 4.71289062 -4.8125 4.8125 C-9.32951904 5.54507771 -9.32951904 5.54507771 -12.4375 9.0625 C-15.46703998 12.5353873 -16.38433534 12.49753558 -20.8125 12.875 C-22.54081194 12.94349321 -24.27034201 12.99394165 -26 13 C-24 11 -24 11 -20.5625 9.5625 C-17.13213595 8.35202089 -17.13213595 8.35202089 -15.69140625 6.53515625 C-13.21366668 4.28630717 -10.57154918 3.77513691 -7.375 2.875 C-3.38110157 2.02049467 -3.38110157 2.02049467 0 0 Z " fill="#FA9E2A" transform="translate(155,31)"/>
<path d="M0 0 C0.33 0 0.66 0 1 0 C1.30654742 8.61738853 1.39589303 15.93475404 -2 24 C-2.33 24 -2.66 24 -3 24 C-3.02685095 21.52076199 -3.04676547 19.0418116 -3.0625 16.5625 C-3.07506836 15.50192383 -3.07506836 15.50192383 -3.08789062 14.41992188 C-3.09653588 12.61306441 -3.05220011 10.80612397 -3 9 C-2.67 8.67 -2.34 8.34 -2 8 C-1.835 6.845 -1.67 5.69 -1.5 4.5 C-1 1 -1 1 0 0 Z " fill="#FB8F08" transform="translate(424,216)"/>
<path d="M0 0 C0.66 0 1.32 0 2 0 C2.33 1.32 2.66 2.64 3 4 C8.28 4.33 13.56 4.66 19 5 C19 5.66 19 6.32 19 7 C12.4 7 5.8 7 -1 7 C-1 1 -1 1 0 0 Z " fill="#D27603" transform="translate(207,214)"/>
<path d="M0 0 C0.99 0.598125 1.98 1.19625 3 1.8125 C6.29450871 3.71420828 9.58817699 5.02739299 13.203125 6.19140625 C15 7 15 7 16.50390625 8.515625 C18.88429328 10.8773667 21.81509336 11.21879648 25 12 C25 12.33 25 12.66 25 13 C17.57142857 13.14285714 17.57142857 13.14285714 14 12 C13.67 10.68 13.34 9.36 13 8 C12.30132812 7.86722656 11.60265625 7.73445313 10.8828125 7.59765625 C9.97273438 7.42105469 9.06265625 7.24445312 8.125 7.0625 C7.22007812 6.88847656 6.31515625 6.71445312 5.3828125 6.53515625 C3 6 3 6 1 5 C0.375 2.4375 0.375 2.4375 0 0 Z " fill="#FCA333" transform="translate(303,37)"/>
<path d="M0 0 C0.33 0 0.66 0 1 0 C1.02720824 2.68756955 1.0469388 5.37485798 1.0625 8.0625 C1.07087891 8.81466797 1.07925781 9.56683594 1.08789062 10.34179688 C1.10808341 15.00633118 0.77595959 19.39923173 0 24 C-0.66 24 -1.32 24 -2 24 C-2.33 25.65 -2.66 27.3 -3 29 C-4.33427206 26.33145588 -3.74496184 25.08773243 -3.125 22.1875 C-2.04738454 16.71263488 -1.57387972 11.315672 -1.24609375 5.75 C-1 3 -1 3 0 0 Z " fill="#FCA73C" transform="translate(27,166)"/>
<path d="M0 0 C3.31602574 1.06586542 4.44471501 2.53138064 6 5.5 C6.28875 6.1084375 6.5775 6.716875 6.875 7.34375 C7.90571959 9.17971663 7.90571959 9.17971663 10.078125 9.8984375 C10.71234375 10.26195312 11.3465625 10.62546875 12 11 C12.609375 13.3828125 12.609375 13.3828125 12.75 16.125 C12.80671875 17.03507812 12.8634375 17.94515625 12.921875 18.8828125 C12.96054688 19.93082031 12.96054688 19.93082031 13 21 C10.0546875 18.3203125 10.0546875 18.3203125 9.5625 15.4375 C9.2840625 14.2309375 9.2840625 14.2309375 9 13 C8.37351562 12.71253906 7.74703125 12.42507813 7.1015625 12.12890625 C4.37834766 10.66606408 3.94024272 9.3354674 2.8125 6.5 C2.48894531 5.7059375 2.16539063 4.911875 1.83203125 4.09375 C1.42017578 3.05734375 1.42017578 3.05734375 1 2 C0.67 1.34 0.34 0.68 0 0 Z " fill="#FCAB45" transform="translate(92,389)"/>
<path d="M0 0 C4.36941601 3.64118001 5.61583426 7.68441756 6.25048828 13.16186523 C6.41537546 15.42032735 6.53194007 17.67498045 6.625 19.9375 C6.66367187 20.71673828 6.70234375 21.49597656 6.7421875 22.29882812 C6.83544127 24.19887379 6.91875962 26.09940278 7 28 C4.6001247 25.6001247 4.52598796 24.43009707 3.96484375 21.1328125 C3.79533203 20.16472656 3.62582031 19.19664062 3.45117188 18.19921875 C3.28166016 17.18472656 3.11214844 16.17023438 2.9375 15.125 C2.59348738 13.12742488 2.24847366 11.13002184 1.90234375 9.1328125 C1.75273193 8.24480957 1.60312012 7.35680664 1.44897461 6.44189453 C1.04859913 4.26432216 0.56529785 2.13985616 0 0 Z " fill="#FCA63A" transform="translate(22,236)"/>
<path d="M0 0 C0.8971875 0.309375 0.8971875 0.309375 1.8125 0.625 C0.8225 0.625 -0.1675 0.625 -1.1875 0.625 C-1.496875 1.264375 -1.80625 1.90375 -2.125 2.5625 C-3.1875 4.625 -3.1875 4.625 -4.1875 5.625 C-5.96283555 5.92304084 -7.74788886 6.16368557 -9.53515625 6.37890625 C-11.15454102 6.57709961 -11.15454102 6.57709961 -12.80664062 6.77929688 C-13.94294922 6.91400391 -15.07925781 7.04871094 -16.25 7.1875 C-17.96026367 7.39536133 -17.96026367 7.39536133 -19.70507812 7.60742188 C-22.53211136 7.95045101 -25.35956953 8.28946143 -28.1875 8.625 C-27.8575 7.965 -27.5275 7.305 -27.1875 6.625 C-24.5625 6.09765625 -24.5625 6.09765625 -21.1875 5.6875 C-15.61301683 4.90952268 -4.66270168 -0.79932029 0 0 Z " fill="#FCA83F" transform="translate(185.1875,22.375)"/>
<path d="M0 0 C3.41760055 1.41417954 5.17429506 2.76352307 7 6 C7.51688384 8.31977469 7.9373894 10.62423472 8.27734375 12.9765625 C8.83120196 15.19310504 8.83120196 15.19310504 11.06640625 16.2734375 C12.02353516 16.63308594 12.02353516 16.63308594 13 17 C13 18.65 13 20.3 13 22 C8.405593 18.19320563 6.47700651 14.10376408 4.2109375 8.62109375 C3.04941836 6.10696685 1.6623074 4.19559099 0 2 C0 1.34 0 0.68 0 0 Z " fill="#FCB255" transform="translate(55,325)"/>
<path d="M0 0 C1.38609004 3.15020465 0.89180331 4.31918022 -0.25 7.6875 C-2 11 -2 11 -5 12 C-5.33 14.97 -5.66 17.94 -6 21 C-6.90419915 17.38320341 -7.07832193 14.68113054 -7 11 C-7 10.01 -7 9.02 -7 8 C-6.401875 7.979375 -5.80375 7.95875 -5.1875 7.9375 C-2.56685398 7.09543384 -2.56685398 7.09543384 -1.25 3.4375 C-0.8375 2.303125 -0.425 1.16875 0 0 Z " fill="#F79F31" transform="translate(146,198)"/>
<path d="M0 0 C13.53 0 27.06 0 41 0 C41 0.33 41 0.66 41 1 C28.46 1 15.92 1 3 1 C2.67 1.99 2.34 2.98 2 4 C1.34 3.67 0.68 3.34 0 3 C0 2.01 0 1.02 0 0 Z " fill="#FCB458" transform="translate(227,138)"/>
<path d="M0 0 C0.66 0 1.32 0 2 0 C1.75 1.875 1.75 1.875 1 4 C-1.36403966 5.66358346 -3.11704773 6.01463097 -6 6.375 C-9.57589915 7.11997899 -10.63114123 8.30440209 -13 11 C-16 13 -16 13 -18.1875 12.625 C-18.785625 12.41875 -19.38375 12.2125 -20 12 C-18.27473958 11.05598958 -16.54947917 10.11197917 -14.82421875 9.16796875 C-12.95056299 8.06883773 -12.95056299 8.06883773 -11.5234375 6.4609375 C-9.74240728 4.75297519 -8.26995013 4.20045098 -5.9375 3.4375 C-3.19631961 2.53398244 -2.09299206 2.09299206 0 0 Z " fill="#FCA83E" transform="translate(127,44)"/>
<path d="M0 0 C0.33 0.66 0.66 1.32 1 2 C0.319375 3.60875 0.319375 3.60875 -0.375 5.25 C-2.80466864 11.24096377 -2.73990038 17.6141058 -3 24 C-3.66 23.67 -4.32 23.34 -5 23 C-5.12086218 16.56744599 -4.82351864 10.38226945 -4 4 C-3.01 4 -2.02 4 -1 4 C-0.67 2.68 -0.34 1.36 0 0 Z " fill="#FCB964" transform="translate(125,251)"/>
<path d="M0 0 C0.99 0.33 1.98 0.66 3 1 C2.53199289 5.05606165 2.12046792 8.46588679 0 12 C-0.99 12 -1.98 12 -3 12 C-3.34833144 7.12335991 -2.41685712 4.22949995 0 0 Z " fill="#EC8607" transform="translate(124,243)"/>
<path d="M0 0 C-0.598125 0.53625 -1.19625 1.0725 -1.8125 1.625 C-4.13272072 3.9175423 -4.13272072 3.9175423 -5.4375 6.9375 C-7.16341305 10.32028958 -9.21922436 12.44469265 -12 15 C-12.8125 13.3125 -12.8125 13.3125 -13 11 C-10.6875 8.25 -10.6875 8.25 -8 6 C-7.34 6 -6.68 6 -6 6 C-6 4.02 -6 2.04 -6 0 C-3.50907189 -1.24546405 -2.58919267 -0.7767578 0 0 Z " fill="#FB9C25" transform="translate(350,396)"/>
<path d="M0 0 C5.94 0 11.88 0 18 0 C18 0.99 18 1.98 18 3 C12.06 3 6.12 3 0 3 C0 2.01 0 1.02 0 0 Z " fill="#CD7303" transform="translate(211,162)"/>
<path d="M0 0 C0.99 0.66 1.98 1.32 3 2 C2.39009109 5.55780196 1.4216319 8.6828589 0 12 C-0.99 11.67 -1.98 11.34 -3 11 C-2.32829194 7.1936543 -1.27253436 3.64793184 0 0 Z " fill="#EC8504" transform="translate(143,194)"/>
<path d="M0 0 C3.875 0.875 3.875 0.875 5 2 C6.00581962 7.36437132 6.11116338 12.55299453 6 18 C5.67 18 5.34 18 5 18 C4.70996094 16.67935547 4.70996094 16.67935547 4.4140625 15.33203125 C4.15367188 14.17058594 3.89328125 13.00914062 3.625 11.8125 C3.36976562 10.66394531 3.11453125 9.51539063 2.8515625 8.33203125 C2.10527548 5.41192652 1.19568212 2.76046611 0 0 Z " fill="#FCA73C" transform="translate(29,264)"/>
<path d="M0 0 C1.48555383 0.92734572 2.96327506 1.86724813 4.4375 2.8125 C5.26121094 3.33457031 6.08492188 3.85664062 6.93359375 4.39453125 C9 6 9 6 10 9 C11.65204456 9.70211894 13.31923769 10.36971413 15 11 C15.33 11.66 15.66 12.32 16 13 C12.625 12.25 12.625 12.25 9 11 C7.875 9 7.875 9 7 7 C6.175 6.690625 5.35 6.38125 4.5 6.0625 C2 5 2 5 0.84375 2.43359375 C0.42609375 1.22896484 0.42609375 1.22896484 0 0 Z " fill="#FCAC48" transform="translate(349,66)"/>
<path d="M0 0 C0.66 0 1.32 0 2 0 C2.375 2.75 2.375 2.75 2 6 C-1 8.375 -1 8.375 -4 10 C-4.33 9.34 -4.66 8.68 -5 8 C-4.0625 5.875 -4.0625 5.875 -3 4 C-2.34 4 -1.68 4 -1 4 C-0.67 2.68 -0.34 1.36 0 0 Z " fill="#FA9C27" transform="translate(61,100)"/>
<path d="M0 0 C1.67542976 0.28604898 3.34385343 0.61781233 5 1 C4.319375 1.99 4.319375 1.99 3.625 3 C1.64679567 6.65206954 0.89225708 9.95052557 0 14 C-0.85380428 11.03878992 -1.13517764 8.3912356 -1.125 5.3125 C-1.12757813 4.52488281 -1.13015625 3.73726563 -1.1328125 2.92578125 C-1 1 -1 1 0 0 Z " fill="#FAA336" transform="translate(400,296)"/>
<path d="M0 0 C1 2 1 2 0.375 4.8125 C-1.18583098 8.43079 -3.2386288 10.2386288 -6 13 C-6.87238858 15.67790896 -6.87238858 15.67790896 -7 18 C-7.66 18 -8.32 18 -9 18 C-8.75 15.1875 -8.75 15.1875 -8 12 C-7.401875 11.566875 -6.80375 11.13375 -6.1875 10.6875 C-2.69604687 7.9940933 -1.58657102 4.025502 0 0 Z " fill="#FCB154" transform="translate(56,106)"/>
<path d="M0 0 C-0.99 0.33 -1.98 0.66 -3 1 C-4.20882096 3.00016466 -4.20882096 3.00016466 -5 5 C-5.33 5 -5.66 5 -6 5 C-6 3.35 -6 1.7 -6 0 C-3.50907189 -1.24546405 -2.58919267 -0.7767578 0 0 Z M-12 6 C-10.35 6 -8.7 6 -7 6 C-7.33 6.99 -7.66 7.98 -8 9 C-8.66 9 -9.32 9 -10 9 C-10.66 9.99 -11.32 10.98 -12 12 C-12 10.02 -12 8.04 -12 6 Z " fill="#E78204" transform="translate(75,93)"/>
<path d="M0 0 C5.10699665 3.66371499 6.44058117 5.7623247 8 12 C8.99 12.33 9.98 12.66 11 13 C9 14 9 14 7 13.5 C4.02456854 11.26842641 3.92537289 8.51641699 3 5 C1.47992158 3.22722741 1.47992158 3.22722741 0 2 C0 1.34 0 0.68 0 0 Z " fill="#FCAF4F" transform="translate(387,106)"/>
<path d="M0 0 C0.33 0.66 0.66 1.32 1 2 C0.071875 2.7734375 0.071875 2.7734375 -0.875 3.5625 C-3.47476742 6.54458615 -4.11949123 9.18446201 -5 13 C-5.33 13 -5.66 13 -6 13 C-6.05422947 11.5629191 -6.09289723 10.12524538 -6.125 8.6875 C-6.14820313 7.88699219 -6.17140625 7.08648437 -6.1953125 6.26171875 C-6 4 -6 4 -4 1 C-1.875 0.3125 -1.875 0.3125 0 0 Z " fill="#FCA83F" transform="translate(384,337)"/>
<path d="M0 0 C1.32 0 2.64 0 4 0 C6.60018816 3.90028225 6.15085514 7.47434569 6 12 C3.45535008 8.18302512 1.45192347 4.35577041 0 0 Z " fill="#FCA83E" transform="translate(49,313)"/>
<path d="M0 0 C0.99 0.33 1.98 0.66 3 1 C3 1.66 3 2.32 3 3 C4.32 3.33 5.64 3.66 7 4 C7 6.31 7 8.62 7 11 C5.66104368 9.33784732 4.32869858 7.67036393 3 6 C2.4225 5.278125 1.845 4.55625 1.25 3.8125 C0 2 0 2 0 0 Z " fill="#FCA63B" transform="translate(117,428)"/>
<path d="M0 0 C0.33 0 0.66 0 1 0 C1.02698189 1.62490954 1.04638757 3.24994633 1.0625 4.875 C1.07410156 5.77992188 1.08570313 6.68484375 1.09765625 7.6171875 C1 10 1 10 0 12 C-2.5625 12.625 -2.5625 12.625 -5 13 C-4.70351563 12.43796875 -4.40703125 11.8759375 -4.1015625 11.296875 C-2.99056497 8.98032695 -2.16535294 6.69290908 -1.375 4.25 C-1.11460938 3.45078125 -0.85421875 2.6515625 -0.5859375 1.828125 C-0.39257812 1.22484375 -0.19921875 0.6215625 0 0 Z " fill="#FCA840" transform="translate(40,133)"/>
<path d="M0 0 C0.33 0.66 0.66 1.32 1 2 C0.21625 2.20625 -0.5675 2.4125 -1.375 2.625 C-4.30916286 3.80676612 -4.30916286 3.80676612 -5.3125 7.125 C-5.539375 8.07375 -5.76625 9.0225 -6 10 C-7.98 10 -9.96 10 -12 10 C-11 8 -11 8 -8 7 C-7.319375 5.7934375 -7.319375 5.7934375 -6.625 4.5625 C-4.7163149 1.55265042 -3.35034331 0.99604801 0 0 Z " fill="#FCB051" transform="translate(102,61)"/>
<path d="M0 0 C0.66 0.33 1.32 0.66 2 1 C0 4 0 4 -2.20703125 4.6953125 C-3.49673828 4.90800781 -3.49673828 4.90800781 -4.8125 5.125 C-6.09060547 5.34542969 -6.09060547 5.34542969 -7.39453125 5.5703125 C-8.68423828 5.78300781 -8.68423828 5.78300781 -10 6 C-11.66781008 6.32756436 -13.33484484 6.65919625 -15 7 C-14 5 -14 5 -11.09375 3.96484375 C-9.9078125 3.62582031 -8.721875 3.28679688 -7.5 2.9375 C-3.44157905 2.05586097 -3.44157905 2.05586097 0 0 Z " fill="#FCAD4A" transform="translate(155,31)"/>
<path d="M0 0 C0 0.99 0 1.98 0 3 C-0.99 3.495 -0.99 3.495 -2 4 C-2.90725434 6.11327425 -2.90725434 6.11327425 -3.625 8.5625 C-3.88539063 9.38878906 -4.14578125 10.21507812 -4.4140625 11.06640625 C-4.60742188 11.70449219 -4.80078125 12.34257812 -5 13 C-5.33 13 -5.66 13 -6 13 C-6.16500711 4.41963016 -6.16500711 4.41963016 -5 2 C-2.4375 0.75 -2.4375 0.75 0 0 Z " fill="#FCAC48" transform="translate(391,324)"/>
<path d="M0 0 C0.99 0.33 1.98 0.66 3 1 C3 1.66 3 2.32 3 3 C3.99 3 4.98 3 6 3 C6 4.32 6 5.64 6 7 C6.66 7 7.32 7 8 7 C8 8.98 8 10.96 8 13 C7.34 12.01 6.68 11.02 6 10 C5.34 9.030625 4.68 8.06125 4 7.0625 C2.47873191 4.73305824 1.16155867 2.51671046 0 0 Z " fill="#FCAB45" transform="translate(131,449)"/>
<path d="M0 0 C5.625387 3.30185759 5.625387 3.30185759 7.375 6.5625 C8 9 8 9 8 12 C7.34 12 6.68 12 6 12 C4 8 2 4 0 0 Z " fill="#FCAF4F" transform="translate(84,377)"/>
<path d="M0 0 C1.18771723 3.42943519 0.80226223 5.37784675 -0.4375 8.75 C-0.86869141 9.94882813 -0.86869141 9.94882813 -1.30859375 11.171875 C-1.65083984 12.07679688 -1.65083984 12.07679688 -2 13 C-2.33 13 -2.66 13 -3 13 C-3.08121924 11.39667209 -3.13929134 9.79215974 -3.1875 8.1875 C-3.22230469 7.29417969 -3.25710938 6.40085938 -3.29296875 5.48046875 C-2.95081002 2.58352485 -2.24606427 1.77444972 0 0 Z " fill="#FC9A1F" transform="translate(424,227)"/>
<path d="M0 0 C0.66 0.33 1.32 0.66 2 1 C0.125 6.875 0.125 6.875 -1 8 C-2.99958364 8.04080783 -5.00045254 8.04254356 -7 8 C-4 6 -4 6 -2 6 C-1.855625 5.195625 -1.71125 4.39125 -1.5625 3.5625 C-1 1 -1 1 0 0 Z " fill="#F9981E" transform="translate(105,57)"/>
<path d="M0 0 C2.3552495 0.4060775 3.67211303 0.64088569 5.3125 2.4375 C7.84065298 4.77838239 10.71112757 5.19329544 14 6 C14 6.33 14 6.66 14 7 C6.57142857 7.14285714 6.57142857 7.14285714 3 6 C2.814375 5.071875 2.814375 5.071875 2.625 4.125 C2.12802644 1.80879168 2.12802644 1.80879168 0 0 Z " fill="#FCAF4E" transform="translate(314,43)"/>
<path d="M0 0 C0.99 0.33 1.98 0.66 3 1 C1.68 4.96 0.36 8.92 -1 13 C-1.33 13 -1.66 13 -2 13 C-2.16682272 8.07872966 -2.24828052 4.49656104 0 0 Z " fill="#FCA83F" transform="translate(394,311)"/>
<path d="M0 0 C2.1479894 0.44812018 4.29336561 0.90878348 6.4375 1.375 C8.22994141 1.75785156 8.22994141 1.75785156 10.05859375 2.1484375 C11.51458984 2.56996094 11.51458984 2.56996094 13 3 C13.33 3.66 13.66 4.32 14 5 C12.0412957 4.85923685 10.08303907 4.7122324 8.125 4.5625 C7.03445313 4.48128906 5.94390625 4.40007813 4.8203125 4.31640625 C2 4 2 4 0 3 C0 2.01 0 1.02 0 0 Z " fill="#FCAA43" transform="translate(289,32)"/>
<path d="M0 0 C0.33 0 0.66 0 1 0 C1 2.64 1 5.28 1 8 C-0.65 8.33 -2.3 8.66 -4 9 C-4.66 10.98 -5.32 12.96 -6 15 C-7 13 -7 13 -6.3125 10.5 C-5 8 -5 8 -2.9375 7.0625 C-2.298125 6.711875 -1.65875 6.36125 -1 6 C-0.18415432 2.94091587 -0.18415432 2.94091587 0 0 Z " fill="#ED8604" transform="translate(363,364)"/>
<path d="M0 0 C0 0.99 0 1.98 0 3 C-0.99 3.66 -1.98 4.32 -3 5 C-4.20450304 7.55183404 -4.20450304 7.55183404 -5 10 C-6.15941038 6.52176885 -5.70820884 4.54104422 -5 1 C-3.35 0.67 -1.7 0.34 0 0 Z " fill="#FBA63D" transform="translate(336,414)"/>
<path d="M0 0 C2.97 0.495 2.97 0.495 6 1 C6.33 4.3 6.66 7.6 7 11 C5.24847934 8.37271902 3.62391115 5.70651859 2 3 C1.34 2.01 0.68 1.02 0 0 Z " fill="#FCAC48" transform="translate(69,352)"/>
<path d="M0 0 C2.475 0.99 2.475 0.99 5 2 C5.33 5.96 5.66 9.92 6 14 C5.67 14 5.34 14 5 14 C4.89042969 13.38511719 4.78085937 12.77023437 4.66796875 12.13671875 C4.43013672 10.92435547 4.43013672 10.92435547 4.1875 9.6875 C3.96126953 8.48673828 3.96126953 8.48673828 3.73046875 7.26171875 C2.91786593 4.74569185 1.89891233 3.77405234 0 2 C0 1.34 0 0.68 0 0 Z " fill="#FCAF4E" transform="translate(35,282)"/>
<path d="M0 0 C0.66 0 1.32 0 2 0 C2 1.98 2 3.96 2 6 C-0.31 6.66 -2.62 7.32 -5 8 C-4.67 7.34 -4.34 6.68 -4 6 C-3.01 6 -2.02 6 -1 6 C-0.67 4.02 -0.34 2.04 0 0 Z " fill="#F9991F" transform="translate(88,71)"/>
<path d="M0 0 C2.9375 1 2.9375 1 6 3 C6.86518243 5.75878925 6.90393194 8.06992426 7 11 C5 9 5 9 4.625 6.5 C4.26352314 3.83529804 4.26352314 3.83529804 1.9375 2.6875 C1.298125 2.460625 0.65875 2.23375 0 2 C0 1.34 0 0.68 0 0 Z " fill="#FCB050" transform="translate(76,364)"/>
<path d="M0 0 C2.125 0.375 2.125 0.375 4 1 C3.071875 2.1446875 3.071875 2.1446875 2.125 3.3125 C-0.05597052 5.99625809 -0.05597052 5.99625809 -2 9 C-2.125 5.625 -2.125 5.625 -2 2 C-1.34 1.34 -0.68 0.68 0 0 Z " fill="#FCA73C" transform="translate(367,361)"/>
<path d="M0 0 C2.97 0.495 2.97 0.495 6 1 C6.33 3.64 6.66 6.28 7 9 C4.22846695 7.61423347 3.51925062 5.65868859 2 3 C1.34 2.01 0.68 1.02 0 0 Z " fill="#FCAE4D" transform="translate(139,462)"/>
<path d="M0 0 C-0.61875 0.556875 -1.2375 1.11375 -1.875 1.6875 C-4.06106379 4.06645178 -4.98785699 5.96357096 -6 9 C-7.16909807 5.49270578 -6.85056945 3.55692677 -6 0 C-3.50907189 -1.24546405 -2.58919267 -0.7767578 0 0 Z " fill="#FCAB45" transform="translate(350,396)"/>
<path d="M0 0 C3.33523252 1.38009621 5.18607951 2.84950652 7 6 C6.67 6.99 6.34 7.98 6 9 C6 8.34 6 7.68 6 7 C5.01 6.67 4.02 6.34 3 6 C0 2.55555556 0 2.55555556 0 0 Z " fill="#FCA232" transform="translate(55,325)"/>
<path d="M0 0 C0.33 0.99 0.66 1.98 1 3 C-0.27358732 4.71275535 -1.61423077 6.37667033 -3 8 C-3.70885894 9.31138904 -4.39456452 10.63777017 -5 12 C-5 9.36 -5 6.72 -5 4 C-4.360625 3.71125 -3.72125 3.4225 -3.0625 3.125 C-0.84793921 2.17176549 -0.84793921 2.17176549 0 0 Z " fill="#FCAA43" transform="translate(412,278)"/>
<path d="M0 0 C2.28459758 2.28459758 2.97129748 4.12537344 4.125 7.125 C4.47820312 8.03507813 4.83140625 8.94515625 5.1953125 9.8828125 C5.46085937 10.58148438 5.72640625 11.28015625 6 12 C4.68 11.67 3.36 11.34 2 11 C0.80712589 7.12315913 0 4.08378077 0 0 Z " fill="#FCAC48" transform="translate(398,120)"/>
<path d="M0 0 C3.96 1.98 3.96 1.98 8 4 C8 4.99 8 5.98 8 7 C5.36 6.01 2.72 5.02 0 4 C0 2.68 0 1.36 0 0 Z " fill="#FBAC48" transform="translate(331,53)"/>
<path d="M0 0 C0.33 0.99 0.66 1.98 1 3 C-1.375 6.1875 -1.375 6.1875 -4 9 C-4.33 9 -4.66 9 -5 9 C-5 7.02 -5 5.04 -5 3 C-4.360625 2.87625 -3.72125 2.7525 -3.0625 2.625 C-2.0415625 2.315625 -2.0415625 2.315625 -1 2 C-0.67 1.34 -0.34 0.68 0 0 Z " fill="#FCA942" transform="translate(364,370)"/>
<path d="M0 0 C1.98 0 3.96 0 6 0 C6 2.31 6 4.62 6 7 C1.125 2.25 1.125 2.25 0 0 Z " fill="#FBA83F" transform="translate(125,442)"/>
<path d="M0 0 C0.33 0.99 0.66 1.98 1 3 C-0.21484375 4.82421875 -0.21484375 4.82421875 -1.9375 6.6875 C-2.50339844 7.31011719 -3.06929688 7.93273437 -3.65234375 8.57421875 C-4.09707031 9.04472656 -4.54179687 9.51523437 -5 10 C-5.33 9.34 -5.66 8.68 -6 8 C-5.67 7.01 -5.34 6.02 -5 5 C-4.01 4.67 -3.02 4.34 -2 4 C-0.79117904 1.99983534 -0.79117904 1.99983534 0 0 Z " fill="#FCAF4D" transform="translate(358,379)"/>
<path d="M0 0 C0.95465783 2.16967689 1.14401212 3.56328793 0.3984375 5.82421875 C-0.35870385 7.5684743 -1.17609198 9.28627131 -2 11 C-3.60600892 7.78798216 -2.05786315 5.29112979 -1 2 C-0.67 1.34 -0.34 0.68 0 0 Z " fill="#FDCA89" transform="translate(146,198)"/>
<path d="M0 0 C1.32 0 2.64 0 4 0 C4.33 2.64 4.66 5.28 5 8 C2.98863724 5.44008376 1.37154504 2.95409701 0 0 Z " fill="#FCA436" transform="translate(148,473)"/>
<path d="M0 0 C1.875 0.25 1.875 0.25 4 1 C5.3125 2.875 5.3125 2.875 6 5 C5.67 5.99 5.34 6.98 5 8 C4.731875 7.38125 4.46375 6.7625 4.1875 6.125 C3.04443152 3.7004767 3.04443152 3.7004767 0 2 C0 1.34 0 0.68 0 0 Z " fill="#FCAE4C" transform="translate(111,420)"/>
<path d="M0 0 C0.99 0.33 1.98 0.66 3 1 C2.34 3.31 1.68 5.62 1 8 C0.896875 7.360625 0.79375 6.72125 0.6875 6.0625 C0.460625 5.381875 0.23375 4.70125 0 4 C-0.99 3.67 -1.98 3.34 -3 3 C-2.01 2.01 -1.02 1.02 0 0 Z " fill="#F59010" transform="translate(129,233)"/>
<path d="M0 0 C1.74271938 2.297221 3.39911152 4.59866729 5 7 C4.625 9.1875 4.625 9.1875 4 11 C0 4.5 0 4.5 0 0 Z " fill="#FDDCB1" transform="translate(304,226)"/>
<path d="M0 0 C0.66 0 1.32 0 2 0 C2 1.98 2 3.96 2 6 C0.35 6 -1.3 6 -3 6 C-2.01 4.02 -1.02 2.04 0 0 Z " fill="#CB7203" transform="translate(232,214)"/>
<path d="M0 0 C0.99 0 1.98 0 3 0 C3.33 2.64 3.66 5.28 4 8 C1.10067643 5.60490662 0.49831724 3.68754757 0 0 Z " fill="#FBA942" transform="translate(272,144)"/>
<path d="M0 0 C0.78375 0.639375 1.5675 1.27875 2.375 1.9375 C4.79539281 3.98142313 4.79539281 3.98142313 7 5 C6.67 5.66 6.34 6.32 6 7 C4.35 6.67 2.7 6.34 1 6 C0.67 4.02 0.34 2.04 0 0 Z " fill="#FCB152" transform="translate(365,79)"/>
<path d="M0 0 C0.33 0 0.66 0 1 0 C1 2.31 1 4.62 1 7 C0.01 6.67 -0.98 6.34 -2 6 C-1.125 1.125 -1.125 1.125 0 0 Z " fill="#EA8404" transform="translate(120,256)"/>
</svg>
