<?xml version="1.0" encoding="UTF-8"?>
<svg version="1.1" xmlns="http://www.w3.org/2000/svg" width="446" height="585">
<path d="M0 0 C2.08941349 0.02535453 4.17899085 0.0391551 6.26855469 0.04296875 C21.09385964 0.08703267 33.81036007 1.79086072 47.89160156 6.38720703 C50.81114448 7.26300411 53.72962315 7.74439391 56.74560547 8.16210938 C61.42197208 8.81972343 65.36795361 10.15876065 69.69091797 12.03710938 C71.97665411 13.00270088 74.24849807 13.75230678 76.62060547 14.47460938 C80.58267802 15.76297562 83.99943162 17.55196694 87.59326172 19.64257812 C91.39999518 21.79630847 95.33377871 23.68525633 99.26123047 25.60742188 C101.93960895 26.97653713 104.48326313 28.48463091 107.05810547 30.03710938 C109.02367772 31.01617283 111.00508603 31.94991686 112.99560547 32.87695312 C115.60106362 34.34252334 117.74335498 36.14084485 120.05810547 38.03710938 C122.79683572 40.15600266 125.5542714 42.25039754 128.30810547 44.34960938 C129.8224945 45.50837714 131.33681798 46.66723059 132.85107422 47.82617188 C135.2834654 49.68607642 137.7221023 51.53531528 140.17138672 53.37304688 C140.97962891 53.9840625 141.78787109 54.59507813 142.62060547 55.22460938 C143.30251953 55.73378906 143.98443359 56.24296875 144.68701172 56.76757812 C145.13947266 57.18652344 145.59193359 57.60546875 146.05810547 58.03710938 C146.05810547 58.69710937 146.05810547 59.35710938 146.05810547 60.03710938 C146.80060547 60.26398437 147.54310547 60.49085937 148.30810547 60.72460938 C151.62966647 62.30989985 152.82997597 64.13378913 155.05810547 67.03710938 C155.94498047 67.73835938 156.83185547 68.43960938 157.74560547 69.16210938 C162.59744837 73.05828625 166.23669877 78.1701658 170.05810547 83.03710938 C170.85571289 84.04366577 170.85571289 84.04366577 171.66943359 85.07055664 C175.87157992 90.41010411 179.84051695 95.87160051 183.68310547 101.47460938 C184.50294922 102.64733398 184.50294922 102.64733398 185.33935547 103.84375 C189.12364632 109.35269971 192.18559145 115.00951763 195.05810547 121.03710938 C195.76275743 122.43480477 196.47046031 123.83097252 197.18310547 125.22460938 C198.95847839 128.76825373 200.49676083 132.39397188 202.05810547 136.03710938 C202.72143793 137.28888192 203.38828039 138.538799 204.05810547 139.78710938 C206.1102332 143.81363273 207.17891998 147.89743949 208.27294922 152.26757812 C209.02066276 154.90503534 209.98631888 157.23420156 211.12060547 159.72460938 C213.31088139 165.05565833 213.89809852 170.35985915 214.48779297 176.04882812 C214.89742844 179.90663041 215.45880742 183.72501278 216.06591797 187.55664062 C219.44646012 209.0156698 220.19489505 227.55507894 215.5234375 248.80322266 C214.92045931 251.69789758 214.51708011 254.60781618 214.12060547 257.53710938 C213.26134231 262.90560308 211.40707058 267.64571942 209.35107422 272.66210938 C207.99333725 276.20617204 206.97777748 279.74740432 205.99560547 283.41210938 C204.06092838 290.45930666 204.06092838 290.45930666 202.05810547 293.72460938 C200.27249937 296.68201947 199.19016009 299.23764069 198.05810547 302.47460938 C196.39696818 307.22442382 194.40707797 311.59608324 192.05810547 316.03710938 C189.92794044 320.19758795 187.90056265 324.36544164 186.05810547 328.66210938 C184.40830109 332.42852324 182.34205413 335.61118638 180.05810547 339.03710938 C178.49914885 342.04807572 177.00302444 345.08431881 175.52294922 348.13476562 C174.14924955 350.85652258 172.63525868 353.43006649 171.05810547 356.03710938 C170.43923782 357.27989665 169.83404228 358.52962797 169.24560547 359.78710938 C166.9300518 364.48919153 164.03252162 368.73182239 161.05810547 373.03710938 C159.09720087 375.8944275 157.26598993 378.61144119 155.74560547 381.72460938 C152.21803903 388.64909164 147.91079055 394.98375995 143.05810547 401.03710938 C142.08711846 402.72015352 141.11799188 404.40446527 140.17529297 406.10351562 C137.9978689 409.87213421 135.49568173 413.43373577 133.05810547 417.03710938 C127.66736539 425.02870429 127.66736539 425.02870429 122.49560547 433.16210938 C117.75935525 440.81538788 112.35358936 448.04199341 107.11328125 455.35400391 C104.69993367 458.72469749 102.3036624 462.10646985 99.92529297 465.50195312 C99.39637451 466.25597412 98.86745605 467.00999512 98.32250977 467.78686523 C97.29832833 469.24837326 96.27623314 470.7113463 95.2565918 472.17602539 C92.36168151 476.30367063 89.31269162 480.18771955 86.05810547 484.03710938 C84.71478893 486.03041779 83.38216535 488.03095803 82.05810547 490.03710938 C79.04340667 494.1889314 75.90398003 498.2440975 72.74560547 502.28710938 C69.97204791 505.83824267 67.25578207 509.42799365 64.55810547 513.03710938 C61.31760424 517.37244887 58.03590195 521.66869733 54.69091797 525.92382812 C52.49550667 528.76525758 50.4014081 531.67789225 48.31982422 534.60351562 C47.90345703 535.07660156 47.48708984 535.5496875 47.05810547 536.03710938 C46.39810547 536.03710938 45.73810547 536.03710938 45.05810547 536.03710938 C44.82220703 536.73449219 44.58630859 537.431875 44.34326172 538.15039062 C42.8270267 541.55615864 40.78776393 544.31825496 38.49560547 547.22460938 C38.0530542 547.79268311 37.61050293 548.36075684 37.15454102 548.94604492 C33.02281626 554.19262109 28.58087513 559.12619157 24.05810547 564.03710938 C22.82371644 565.42832651 21.59421324 566.82390048 20.37060547 568.22460938 C19.52949219 569.18173828 19.52949219 569.18173828 18.67138672 570.15820312 C17.60379434 571.40157343 16.55881332 572.66475427 15.53857422 573.94726562 C10.52511956 580.17770664 5.03568556 583.44159336 -2.94189453 585.03710938 C-11.15506475 585.73898449 -17.52233354 584.83975781 -24.50439453 580.41210938 C-27.29790101 577.69023127 -29.57509259 574.77134811 -31.92236328 571.66210938 C-34.18544967 568.7205348 -36.55231328 565.8756368 -38.94189453 563.03710938 C-57.94189453 540.36406133 -57.94189453 540.36406133 -57.94189453 536.03710938 C-58.52068359 535.8128125 -59.09947266 535.58851563 -59.69580078 535.35742188 C-62.59567966 533.65279742 -63.94799822 531.65813422 -65.87939453 528.91210938 C-66.57935547 527.92082031 -67.27931641 526.92953125 -68.00048828 525.90820312 C-69.54447923 523.62483623 -71.01881657 521.33354199 -72.44189453 518.97460938 C-74.86018601 514.99768485 -77.7462195 511.49509017 -80.68408203 507.89257812 C-83.30979651 504.57182158 -85.79475514 501.16927772 -88.25439453 497.72460938 C-88.88510864 496.84458252 -88.88510864 496.84458252 -89.52856445 495.94677734 C-91.23952531 493.53636276 -92.88990891 491.12500979 -94.39501953 488.58007812 C-96.91926506 484.43037146 -99.9068315 480.61757769 -102.82666016 476.74023438 C-105.09967346 473.68460606 -107.22488002 470.65397874 -109.08251953 467.32617188 C-110.65146242 464.55085693 -112.23592126 462.23432757 -114.25439453 459.78710938 C-117.57315854 455.61738024 -120.42784459 451.26296859 -123.24658203 446.74414062 C-126.39450629 441.71761641 -129.73222706 436.81603213 -133.06689453 431.91210938 C-134.36871535 429.91598412 -135.59365305 427.86843892 -136.75439453 425.78710938 C-138.4452086 422.76494565 -140.36518142 419.97851992 -142.37939453 417.16210938 C-144.60635901 414.03206588 -146.62914372 410.92330396 -148.44189453 407.53710938 C-150.18028768 404.29248633 -152.09829251 401.33310946 -154.25439453 398.34960938 C-157.59045295 393.69956733 -160.42349071 388.85995491 -163.18920898 383.85864258 C-164.9257223 380.73380572 -166.79354811 377.88708339 -168.94189453 375.03710938 C-169.65282423 373.32441509 -170.36280555 371.61128165 -171.05908203 369.89257812 C-172.00268704 367.9093375 -173.12473027 366.29201385 -174.44189453 364.53710938 C-176.90673596 361.24084383 -178.37515525 357.85177892 -179.94189453 354.03710938 C-180.91982655 352.3020687 -181.89843391 350.56717727 -182.90673828 348.84960938 C-184.73202595 345.65363398 -186.31962652 342.33935454 -187.94189453 339.03710938 C-188.5450075 337.82824976 -189.14919796 336.61992721 -189.75439453 335.41210938 C-190.07794922 334.76371094 -190.40150391 334.1153125 -190.73486328 333.44726562 C-191.71269485 331.49476699 -192.69565325 329.54483649 -193.68017578 327.59570312 C-194.30909439 326.34701143 -194.93800056 325.09831348 -195.56689453 323.84960938 C-196.15728516 322.68042969 -196.74767578 321.51125 -197.35595703 320.30664062 C-198.6803177 317.57636998 -199.82667183 314.85524475 -200.94189453 312.03710938 C-201.73754525 310.40379337 -202.55040849 308.77876128 -203.37939453 307.16210938 C-208.21966649 297.55232966 -211.88569586 287.54983562 -215.13330078 277.30273438 C-215.96767371 274.85506773 -215.96767371 274.85506773 -217.40673828 271.88476562 C-219.32019788 267.47561728 -220.09503801 262.93444471 -220.94189453 258.22460938 C-222.11047138 252.03964774 -223.32751762 245.99069399 -225.32861328 240.00976562 C-227.35753665 233.48361084 -227.16301316 226.96165535 -227.18212891 220.18432617 C-227.19172043 218.13677516 -227.22272616 216.09027979 -227.25439453 214.04296875 C-227.337572 203.55777564 -225.66802963 194.07080024 -222.81689453 183.97460938 C-221.93163892 180.6318842 -221.78433686 177.42521684 -221.62939453 173.97460938 C-221.089077 165.41958175 -218.72879033 156.21745307 -213.94189453 149.03710938 C-213.43616261 147.11143783 -212.98322512 145.17156714 -212.56689453 143.22460938 C-211.40124158 138.32769548 -209.84345928 135.16964099 -206.94189453 131.03710938 C-206.23682671 129.21819901 -205.57363087 127.38277044 -204.94189453 125.53710938 C-203.4375553 121.18275245 -201.62331706 117.80785981 -198.94189453 114.03710938 C-198.25618878 112.69248325 -197.590432 111.3375514 -196.94189453 109.97460938 C-195.30969092 106.60138858 -193.31500529 103.94608385 -190.94189453 101.03710938 C-190.51521484 100.12960938 -190.08853516 99.22210938 -189.64892578 98.28710938 C-187.74277708 94.65801163 -185.37614727 91.7230913 -182.69189453 88.66210938 C-182.19882813 88.09049072 -181.70576172 87.51887207 -181.19775391 86.92993164 C-179.78452819 85.29421085 -178.36367262 83.66539387 -176.94189453 82.03710938 C-176.31798828 81.31136719 -175.69408203 80.585625 -175.05126953 79.83789062 C-173.36649439 77.88731359 -171.65693648 75.96112702 -169.94189453 74.03710938 C-169.12205078 73.10125 -168.30220703 72.16539063 -167.45751953 71.20117188 C-162.26077091 65.33884363 -156.94901989 60.17338992 -150.76220703 55.32617188 C-147.65378565 52.80327031 -144.78098878 50.10329558 -141.87939453 47.34960938 C-137.62295213 43.35019852 -133.29090023 40.13930871 -128.18017578 37.30273438 C-126.09641177 36.12448038 -124.23008661 34.84592375 -122.31689453 33.41210938 C-118.73511902 30.79433841 -114.93889363 28.93787455 -110.94189453 27.03710938 C-108.8556733 26.02219094 -106.7724934 25.00100444 -104.69189453 23.97460938 C-103.69673828 23.48863281 -102.70158203 23.00265625 -101.67626953 22.50195312 C-98.9845699 21.1626799 -98.9845699 21.1626799 -97.00048828 19.50585938 C-94.25327639 17.54579928 -91.44913559 16.67155219 -88.25439453 15.59960938 C-84.19567916 14.22321631 -80.27374556 12.78357562 -76.44189453 10.84960938 C-71.56913712 8.56351197 -66.53477487 8.2360392 -61.23876953 7.59960938 C-57.6123834 6.98088947 -55.06067592 5.87398441 -51.92163086 4.03857422 C-45.65293329 0.86750535 -38.21001073 0.66537189 -31.31689453 0.41210938 C-30.41156982 0.3748877 -29.50624512 0.33766602 -28.57348633 0.29931641 C-19.0483271 -0.05525252 -9.53027801 -0.13164666 0 0 Z " fill="#15CCE6" transform="translate(226.94189453125,-0.03710937499999999)"/>
<path d="M0 0 C2.08941349 0.02535453 4.17899085 0.0391551 6.26855469 0.04296875 C21.09385964 0.08703267 33.81036007 1.79086072 47.89160156 6.38720703 C50.81114448 7.26300411 53.72962315 7.74439391 56.74560547 8.16210938 C61.42197208 8.81972343 65.36795361 10.15876065 69.69091797 12.03710938 C71.97665411 13.00270088 74.24849807 13.75230678 76.62060547 14.47460938 C80.58267802 15.76297562 83.99943162 17.55196694 87.59326172 19.64257812 C91.39999518 21.79630847 95.33377871 23.68525633 99.26123047 25.60742188 C101.93960895 26.97653713 104.48326313 28.48463091 107.05810547 30.03710938 C109.02367772 31.01617283 111.00508603 31.94991686 112.99560547 32.87695312 C115.60106362 34.34252334 117.74335498 36.14084485 120.05810547 38.03710938 C122.79683572 40.15600266 125.5542714 42.25039754 128.30810547 44.34960938 C129.8224945 45.50837714 131.33681798 46.66723059 132.85107422 47.82617188 C135.2834654 49.68607642 137.7221023 51.53531528 140.17138672 53.37304688 C140.97962891 53.9840625 141.78787109 54.59507813 142.62060547 55.22460938 C143.30251953 55.73378906 143.98443359 56.24296875 144.68701172 56.76757812 C145.13947266 57.18652344 145.59193359 57.60546875 146.05810547 58.03710938 C146.05810547 58.69710937 146.05810547 59.35710938 146.05810547 60.03710938 C146.80060547 60.26398437 147.54310547 60.49085937 148.30810547 60.72460938 C151.62966647 62.30989985 152.82997597 64.13378913 155.05810547 67.03710938 C155.94498047 67.73835938 156.83185547 68.43960938 157.74560547 69.16210938 C162.59744837 73.05828625 166.23669877 78.1701658 170.05810547 83.03710938 C170.85571289 84.04366577 170.85571289 84.04366577 171.66943359 85.07055664 C175.87157992 90.41010411 179.84051695 95.87160051 183.68310547 101.47460938 C184.50294922 102.64733398 184.50294922 102.64733398 185.33935547 103.84375 C189.12364632 109.35269971 192.18559145 115.00951763 195.05810547 121.03710938 C195.76275743 122.43480477 196.47046031 123.83097252 197.18310547 125.22460938 C198.95847839 128.76825373 200.49676083 132.39397188 202.05810547 136.03710938 C202.72143793 137.28888192 203.38828039 138.538799 204.05810547 139.78710938 C206.1102332 143.81363273 207.17891998 147.89743949 208.27294922 152.26757812 C209.02066276 154.90503534 209.98631888 157.23420156 211.12060547 159.72460938 C213.31088139 165.05565833 213.89809852 170.35985915 214.48779297 176.04882812 C214.89742844 179.90663041 215.45880742 183.72501278 216.06591797 187.55664062 C219.44646012 209.0156698 220.19489505 227.55507894 215.5234375 248.80322266 C214.92045931 251.69789758 214.51708011 254.60781618 214.12060547 257.53710938 C213.26134231 262.90560308 211.40707058 267.64571942 209.35107422 272.66210938 C207.99333725 276.20617204 206.97777748 279.74740432 205.99560547 283.41210938 C204.06092838 290.45930666 204.06092838 290.45930666 202.05810547 293.72460938 C200.27249937 296.68201947 199.19016009 299.23764069 198.05810547 302.47460938 C196.39696818 307.22442382 194.40707797 311.59608324 192.05810547 316.03710938 C189.92794044 320.19758795 187.90056265 324.36544164 186.05810547 328.66210938 C184.40830109 332.42852324 182.34205413 335.61118638 180.05810547 339.03710938 C178.49914885 342.04807572 177.00302444 345.08431881 175.52294922 348.13476562 C174.14924955 350.85652258 172.63525868 353.43006649 171.05810547 356.03710938 C170.43923782 357.27989665 169.83404228 358.52962797 169.24560547 359.78710938 C166.9300518 364.48919153 164.03252162 368.73182239 161.05810547 373.03710938 C159.09720087 375.8944275 157.26598993 378.61144119 155.74560547 381.72460938 C152.21803903 388.64909164 147.91079055 394.98375995 143.05810547 401.03710938 C142.08711846 402.72015352 141.11799188 404.40446527 140.17529297 406.10351562 C137.9978689 409.87213421 135.49568173 413.43373577 133.05810547 417.03710938 C127.66736539 425.02870429 127.66736539 425.02870429 122.49560547 433.16210938 C117.75935525 440.81538788 112.35358936 448.04199341 107.11328125 455.35400391 C104.69993367 458.72469749 102.3036624 462.10646985 99.92529297 465.50195312 C99.39637451 466.25597412 98.86745605 467.00999512 98.32250977 467.78686523 C97.29832833 469.24837326 96.27623314 470.7113463 95.2565918 472.17602539 C92.36168151 476.30367063 89.31269162 480.18771955 86.05810547 484.03710938 C84.71478893 486.03041779 83.38216535 488.03095803 82.05810547 490.03710938 C79.04340667 494.1889314 75.90398003 498.2440975 72.74560547 502.28710938 C69.97204791 505.83824267 67.25578207 509.42799365 64.55810547 513.03710938 C61.31760424 517.37244887 58.03590195 521.66869733 54.69091797 525.92382812 C52.49550667 528.76525758 50.4014081 531.67789225 48.31982422 534.60351562 C47.90345703 535.07660156 47.48708984 535.5496875 47.05810547 536.03710938 C46.39810547 536.03710938 45.73810547 536.03710938 45.05810547 536.03710938 C44.82220703 536.73449219 44.58630859 537.431875 44.34326172 538.15039062 C42.8270267 541.55615864 40.78776393 544.31825496 38.49560547 547.22460938 C38.0530542 547.79268311 37.61050293 548.36075684 37.15454102 548.94604492 C33.02281626 554.19262109 28.58087513 559.12619157 24.05810547 564.03710938 C22.82371644 565.42832651 21.59421324 566.82390048 20.37060547 568.22460938 C19.52949219 569.18173828 19.52949219 569.18173828 18.67138672 570.15820312 C17.60379434 571.40157343 16.55881332 572.66475427 15.53857422 573.94726562 C10.52511956 580.17770664 5.03568556 583.44159336 -2.94189453 585.03710938 C-11.15506475 585.73898449 -17.52233354 584.83975781 -24.50439453 580.41210938 C-27.29790101 577.69023127 -29.57509259 574.77134811 -31.92236328 571.66210938 C-34.18544967 568.7205348 -36.55231328 565.8756368 -38.94189453 563.03710938 C-57.94189453 540.36406133 -57.94189453 540.36406133 -57.94189453 536.03710938 C-58.52068359 535.8128125 -59.09947266 535.58851563 -59.69580078 535.35742188 C-62.59567966 533.65279742 -63.94799822 531.65813422 -65.87939453 528.91210938 C-66.57935547 527.92082031 -67.27931641 526.92953125 -68.00048828 525.90820312 C-69.54447923 523.62483623 -71.01881657 521.33354199 -72.44189453 518.97460938 C-74.86018601 514.99768485 -77.7462195 511.49509017 -80.68408203 507.89257812 C-83.30979651 504.57182158 -85.79475514 501.16927772 -88.25439453 497.72460938 C-88.88510864 496.84458252 -88.88510864 496.84458252 -89.52856445 495.94677734 C-91.23952531 493.53636276 -92.88990891 491.12500979 -94.39501953 488.58007812 C-96.91926506 484.43037146 -99.9068315 480.61757769 -102.82666016 476.74023438 C-105.09967346 473.68460606 -107.22488002 470.65397874 -109.08251953 467.32617188 C-110.65146242 464.55085693 -112.23592126 462.23432757 -114.25439453 459.78710938 C-117.57315854 455.61738024 -120.42784459 451.26296859 -123.24658203 446.74414062 C-126.39450629 441.71761641 -129.73222706 436.81603213 -133.06689453 431.91210938 C-134.36871535 429.91598412 -135.59365305 427.86843892 -136.75439453 425.78710938 C-138.4452086 422.76494565 -140.36518142 419.97851992 -142.37939453 417.16210938 C-144.60635901 414.03206588 -146.62914372 410.92330396 -148.44189453 407.53710938 C-150.18028768 404.29248633 -152.09829251 401.33310946 -154.25439453 398.34960938 C-157.59045295 393.69956733 -160.42349071 388.85995491 -163.18920898 383.85864258 C-164.9257223 380.73380572 -166.79354811 377.88708339 -168.94189453 375.03710938 C-169.65282423 373.32441509 -170.36280555 371.61128165 -171.05908203 369.89257812 C-172.00268704 367.9093375 -173.12473027 366.29201385 -174.44189453 364.53710938 C-176.90673596 361.24084383 -178.37515525 357.85177892 -179.94189453 354.03710938 C-180.91982655 352.3020687 -181.89843391 350.56717727 -182.90673828 348.84960938 C-184.73202595 345.65363398 -186.31962652 342.33935454 -187.94189453 339.03710938 C-188.5450075 337.82824976 -189.14919796 336.61992721 -189.75439453 335.41210938 C-190.07794922 334.76371094 -190.40150391 334.1153125 -190.73486328 333.44726562 C-191.71269485 331.49476699 -192.69565325 329.54483649 -193.68017578 327.59570312 C-194.30909439 326.34701143 -194.93800056 325.09831348 -195.56689453 323.84960938 C-196.15728516 322.68042969 -196.74767578 321.51125 -197.35595703 320.30664062 C-198.6803177 317.57636998 -199.82667183 314.85524475 -200.94189453 312.03710938 C-201.73754525 310.40379337 -202.55040849 308.77876128 -203.37939453 307.16210938 C-208.21966649 297.55232966 -211.88569586 287.54983562 -215.13330078 277.30273438 C-215.96767371 274.85506773 -215.96767371 274.85506773 -217.40673828 271.88476562 C-219.32019788 267.47561728 -220.09503801 262.93444471 -220.94189453 258.22460938 C-222.11047138 252.03964774 -223.32751762 245.99069399 -225.32861328 240.00976562 C-227.35753665 233.48361084 -227.16301316 226.96165535 -227.18212891 220.18432617 C-227.19172043 218.13677516 -227.22272616 216.09027979 -227.25439453 214.04296875 C-227.337572 203.55777564 -225.66802963 194.07080024 -222.81689453 183.97460938 C-221.93163892 180.6318842 -221.78433686 177.42521684 -221.62939453 173.97460938 C-221.089077 165.41958175 -218.72879033 156.21745307 -213.94189453 149.03710938 C-213.43616261 147.11143783 -212.98322512 145.17156714 -212.56689453 143.22460938 C-211.40124158 138.32769548 -209.84345928 135.16964099 -206.94189453 131.03710938 C-206.23682671 129.21819901 -205.57363087 127.38277044 -204.94189453 125.53710938 C-203.4375553 121.18275245 -201.62331706 117.80785981 -198.94189453 114.03710938 C-198.25618878 112.69248325 -197.590432 111.3375514 -196.94189453 109.97460938 C-195.30969092 106.60138858 -193.31500529 103.94608385 -190.94189453 101.03710938 C-190.51521484 100.12960938 -190.08853516 99.22210938 -189.64892578 98.28710938 C-187.74277708 94.65801163 -185.37614727 91.7230913 -182.69189453 88.66210938 C-182.19882813 88.09049072 -181.70576172 87.51887207 -181.19775391 86.92993164 C-179.78452819 85.29421085 -178.36367262 83.66539387 -176.94189453 82.03710938 C-176.31798828 81.31136719 -175.69408203 80.585625 -175.05126953 79.83789062 C-173.36649439 77.88731359 -171.65693648 75.96112702 -169.94189453 74.03710938 C-169.12205078 73.10125 -168.30220703 72.16539063 -167.45751953 71.20117188 C-162.26077091 65.33884363 -156.94901989 60.17338992 -150.76220703 55.32617188 C-147.65378565 52.80327031 -144.78098878 50.10329558 -141.87939453 47.34960938 C-137.62295213 43.35019852 -133.29090023 40.13930871 -128.18017578 37.30273438 C-126.09641177 36.12448038 -124.23008661 34.84592375 -122.31689453 33.41210938 C-118.73511902 30.79433841 -114.93889363 28.93787455 -110.94189453 27.03710938 C-108.8556733 26.02219094 -106.7724934 25.00100444 -104.69189453 23.97460938 C-103.69673828 23.48863281 -102.70158203 23.00265625 -101.67626953 22.50195312 C-98.9845699 21.1626799 -98.9845699 21.1626799 -97.00048828 19.50585938 C-94.25327639 17.54579928 -91.44913559 16.67155219 -88.25439453 15.59960938 C-84.19567916 14.22321631 -80.27374556 12.78357562 -76.44189453 10.84960938 C-71.56913712 8.56351197 -66.53477487 8.2360392 -61.23876953 7.59960938 C-57.6123834 6.98088947 -55.06067592 5.87398441 -51.92163086 4.03857422 C-45.65293329 0.86750535 -38.21001073 0.66537189 -31.31689453 0.41210938 C-30.41156982 0.3748877 -29.50624512 0.33766602 -28.57348633 0.29931641 C-19.0483271 -0.05525252 -9.53027801 -0.13164666 0 0 Z M-20.77392578 20.09130859 C-23.74749374 20.15804824 -26.71927472 20.2495361 -29.69189453 20.34960938 C-31.06812988 20.38320557 -31.06812988 20.38320557 -32.47216797 20.41748047 C-38.03465914 20.64470978 -41.95970047 21.55225569 -46.94189453 24.03710938 C-52.13033973 26.11433388 -57.08006839 27.25490155 -62.62939453 27.97460938 C-67.83133191 28.69626543 -70.65291456 29.96023244 -74.94189453 33.03710938 C-77.7288748 33.86090795 -80.51380021 34.52580638 -83.35595703 35.13085938 C-86.42047518 36.20482948 -87.69932015 37.73260986 -89.94189453 40.03710938 C-92.41455078 41.19726563 -92.41455078 41.19726563 -95.00439453 42.09960938 C-98.48497089 43.31911959 -100.39111249 44.42360319 -102.94189453 47.03710938 C-104.77392578 47.81054687 -104.77392578 47.81054687 -106.75439453 48.41210938 C-109.67264271 49.42576048 -111.74842386 50.49391887 -114.06689453 52.53710938 C-116.91682556 55.01531027 -119.58837047 56.36034734 -122.94189453 58.03710938 C-124.29497766 59.35039594 -125.63059531 60.68210018 -126.94189453 62.03710938 C-127.99376953 62.53210937 -127.99376953 62.53210937 -129.06689453 63.03710938 C-131.10875937 63.88107103 -131.10875937 63.88107103 -131.81689453 65.97460938 C-132.94189453 68.03710938 -132.94189453 68.03710938 -136.00439453 69.53710938 C-136.97376953 70.03210938 -137.94314453 70.52710938 -138.94189453 71.03710938 C-139.30351482 72.36305042 -139.63917492 73.69649395 -139.94189453 75.03710938 C-140.69341797 75.3284375 -141.44494141 75.61976562 -142.21923828 75.91992188 C-145.23028015 77.15544264 -146.71641713 78.50298704 -148.94189453 80.84960938 C-149.62767578 81.56503906 -150.31345703 82.28046875 -151.02001953 83.01757812 C-151.65423828 83.68402344 -152.28845703 84.35046875 -152.94189453 85.03710938 C-153.84939453 85.90335937 -154.75689453 86.76960938 -155.69189453 87.66210938 C-158.15801686 90.2652385 -159.97049386 93.04821158 -161.94189453 96.03710938 C-162.66376953 96.73835938 -163.38564453 97.43960938 -164.12939453 98.16210938 C-166.09522104 99.87562051 -166.09522104 99.87562051 -166.44189453 102.16210938 C-166.60689453 102.78085938 -166.77189453 103.39960937 -166.94189453 104.03710938 C-167.88742188 104.45669922 -167.88742188 104.45669922 -168.85205078 104.88476562 C-171.51827235 106.35492518 -171.85074508 107.52911896 -172.87939453 110.34960938 C-174.58226413 114.5598539 -176.72480334 116.82001818 -179.94189453 120.03710938 C-180.8295516 122.0384473 -181.51069631 124.05622832 -182.19580078 126.13476562 C-182.94189453 128.03710938 -182.94189453 128.03710938 -184.94189453 130.47460938 C-187.28996403 133.48307342 -188.11773354 136.21387401 -189.13330078 139.85351562 C-189.94189453 142.03710938 -189.94189453 142.03710938 -191.44580078 143.93164062 C-193.35671392 146.62088914 -193.71687919 148.92826045 -194.31689453 152.16210938 C-195.21923579 156.48284397 -196.21668455 159.83595746 -198.50439453 163.59960938 C-201.64017377 169.29081468 -201.8343383 175.27253468 -202.22143555 181.64282227 C-202.55981766 186.7295177 -203.39166545 191.06169798 -205.21875 195.83178711 C-209.53101126 208.98258251 -209.06871406 228.09979826 -204.01220703 240.93554688 C-202.6168749 244.97895458 -202.09750079 249.00071362 -201.50439453 253.22460938 C-200.59949627 259.38059211 -199.29516122 264.22160534 -196.13720703 269.65820312 C-194.25323093 273.40768497 -193.53728526 277.37694903 -192.71533203 281.47070312 C-191.87041064 284.27430593 -190.96590213 285.03413043 -188.94189453 287.03710938 C-188.13330078 289.56054688 -188.13330078 289.56054688 -187.50439453 292.41210938 C-186.36440481 296.97803679 -184.92887895 299.39672211 -181.94189453 303.03710938 C-181.09280841 305.54191342 -180.41535101 308.0718878 -179.71923828 310.62304688 C-178.67879025 313.85418701 -176.88541686 316.26906243 -174.94189453 319.03710938 C-173.88290175 321.27047159 -172.91663742 323.53374073 -171.94580078 325.80664062 C-171.02746576 327.84698808 -170.01675262 329.73768218 -168.87939453 331.66210938 C-166.94189453 335.03710937 -166.94189453 335.03710937 -165.44189453 338.66210938 C-164.10519214 342.05857158 -164.10519214 342.05857158 -161.87939453 344.59960938 C-159.94189453 347.03710938 -159.94189453 347.03710938 -158.94189453 350.09960938 C-158.18222153 353.08889068 -158.18222153 353.08889068 -156.06689453 354.78710938 C-153.23075157 357.79008428 -152.29010876 361.02067023 -150.96923828 364.89257812 C-150.63021484 365.60027344 -150.29119141 366.30796875 -149.94189453 367.03710938 C-148.95189453 367.36710937 -147.96189453 367.69710938 -146.94189453 368.03710938 C-146.16845703 369.85742188 -146.16845703 369.85742188 -145.56689453 372.16210938 C-144.33729867 376.26076226 -142.67688197 379.11891125 -140.06689453 382.47460938 C-138.94189453 384.03710938 -138.94189453 384.03710938 -137.87939453 386.78710938 C-137.13546179 389.15845004 -137.13546179 389.15845004 -135.06689453 390.28710938 C-132.12442909 392.71031621 -131.29508466 395.55954929 -129.96923828 399.07617188 C-129.04733202 401.38729025 -129.04733202 401.38729025 -125.94189453 402.03710938 C-125.65314453 403.08898437 -125.36439453 404.14085937 -125.06689453 405.22460938 C-123.98070177 408.90559595 -122.78411579 410.64282612 -120.23876953 413.42773438 C-118.32716697 415.79996406 -117.16903096 418.4346396 -115.93408203 421.20507812 C-114.84536364 423.21534948 -113.57060377 424.44560415 -111.94189453 426.03710938 C-111.07217728 427.30456317 -110.23951123 428.59808699 -109.44189453 429.91210938 C-109.01134766 430.61722656 -108.58080078 431.32234375 -108.13720703 432.04882812 C-107.54552734 433.03302734 -107.54552734 433.03302734 -106.94189453 434.03710938 C-106.40564453 434.92398437 -105.86939453 435.81085938 -105.31689453 436.72460938 C-104.33432892 438.37710608 -103.37887807 440.04584721 -102.44189453 441.72460938 C-100.99711815 444.28643452 -100.99711815 444.28643452 -97.94189453 446.03710938 C-96.92423526 448.02818185 -95.92611599 450.0292976 -94.94189453 452.03710938 C-94.28189453 452.86210937 -93.62189453 453.68710937 -92.94189453 454.53710938 C-90.94189453 457.03710937 -90.94189453 457.03710937 -89.44189453 460.09960938 C-88.11622111 463.06823414 -88.11622111 463.06823414 -85.94189453 465.03710938 C-83.53186275 467.44714116 -82.45989087 470.00111669 -80.94189453 473.03710938 C-80.32314453 473.65585937 -79.70439453 474.27460938 -79.06689453 474.91210938 C-76.49720543 477.48179848 -74.88952245 480.28774599 -73.09033203 483.42773438 C-72.71134766 483.95882813 -72.33236328 484.48992187 -71.94189453 485.03710938 C-71.28189453 485.03710938 -70.62189453 485.03710938 -69.94189453 485.03710938 C-69.71501953 486.08898437 -69.48814453 487.14085937 -69.25439453 488.22460938 C-68.0836118 492.28601428 -66.01457177 494.0980268 -62.94189453 497.03710938 C-59.50518117 501.4672477 -56.17750404 505.9758082 -53.29345703 510.78710938 C-52.06916578 513.03085831 -52.06916578 513.03085831 -50.44189453 514.53710938 C-48.94189453 516.03710938 -48.94189453 516.03710938 -47.50439453 518.47460938 C-46.05785392 521.07330834 -46.05785392 521.07330834 -44.00439453 522.97460938 C-41.52651185 525.45249205 -39.83563588 528.08510081 -37.94189453 531.03710938 C-34.88995575 535.77998721 -32.01789077 540.10668443 -27.94189453 544.03710938 C-27.47783203 544.99617187 -27.47783203 544.99617187 -27.00439453 545.97460938 C-25.03140832 549.80452379 -21.53559124 552.4730975 -18.44189453 555.41210938 C-15.55996916 558.43813102 -13.30488471 561.59389511 -10.94189453 565.03710938 C-5.67269769 565.05597221 -5.67269769 565.05597221 -1.25048828 562.58789062 C0.25097961 560.78064076 1.65374034 558.92032679 3.05810547 557.03710938 C4.72477214 555.37044271 6.3914388 553.70377604 8.05810547 552.03710938 C12.04912013 547.80563172 12.04912013 547.80563172 15.04638672 542.88476562 C16.05810547 541.03710938 16.05810547 541.03710938 19.05810547 540.03710938 C20.5628876 538.18705169 20.5628876 538.18705169 21.93310547 535.91210938 C23.85339007 532.90206326 25.80725983 529.96829312 27.93310547 527.09960938 C30.24813265 524.38450282 30.24813265 524.38450282 30.05810547 522.03710938 C30.63560547 521.83085938 31.21310547 521.62460937 31.80810547 521.41210938 C34.8774939 519.536372 36.15125285 517.05116674 38.05810547 514.03710938 C39.05810547 513.03710938 40.05810547 512.03710938 41.05810547 511.03710938 C42.40142201 509.04380096 43.73404558 507.04326072 45.05810547 505.03710938 C46.37476211 503.35723711 47.71073574 501.69244933 49.05810547 500.03710938 C50.27185951 498.52059871 51.47973709 496.99937428 52.68310547 495.47460938 C53.27349609 494.73082031 53.86388672 493.98703125 54.47216797 493.22070312 C56.08985291 491.12041744 56.08985291 491.12041744 57.11279297 488.91601562 C58.52663862 486.10585133 60.84582342 484.24939143 63.05810547 482.03710938 C63.7555913 480.71963614 64.42770504 479.38796744 65.05810547 478.03710938 C65.75033203 477.36228516 65.75033203 477.36228516 66.45654297 476.67382812 C68.72587542 474.35468106 70.15439102 471.66946405 71.77685547 468.87695312 C73.05810547 467.03710937 73.05810547 467.03710937 76.05810547 465.03710938 C76.52216797 463.30460938 76.52216797 463.30460938 76.99560547 461.53710938 C77.34623047 460.38210938 77.69685547 459.22710937 78.05810547 458.03710938 C79.37457666 457.33773406 80.70832698 456.66981804 82.05810547 456.03710938 C83.35042189 452.99511465 83.35042189 452.99511465 84.05810547 450.03710938 C84.71810547 450.03710938 85.37810547 450.03710938 86.05810547 450.03710938 C87.35003874 448.61722294 87.35003874 448.61722294 88.55810547 446.78710938 C89.00025391 446.14644531 89.44240234 445.50578125 89.89794922 444.84570312 C91.12048322 443.01808362 91.12048322 443.01808362 92.12060547 440.84960938 C93.05810547 439.03710938 93.05810547 439.03710938 94.99560547 437.16210938 C97.40302682 434.68173586 98.54582294 432.12742584 100.05810547 429.03710938 C100.54279297 428.56273437 101.02748047 428.08835937 101.52685547 427.59960938 C103.22655075 425.86522644 104.00806964 424.30779034 104.99560547 422.09960938 C106.60004267 418.73763982 108.37283842 416.63575491 111.05810547 414.03710938 C112.07501811 412.04565546 113.07453195 410.04523864 114.05810547 408.03710938 C115.3914388 406.37044271 116.72477214 404.70377604 118.05810547 403.03710938 C118.83154297 401.45929688 118.83154297 401.45929688 119.62060547 399.84960938 C121.05810547 397.03710938 121.05810547 397.03710938 124.05810547 395.03710938 C124.77970969 393.3314994 125.49734055 391.62381703 126.17529297 389.90039062 C127.60461925 386.88362676 129.90529505 384.56666162 132.05810547 382.03710938 C133.07369948 380.04498267 134.07600176 378.04595788 135.05810547 376.03710938 C135.54150391 375.57433594 136.02490234 375.1115625 136.52294922 374.63476562 C138.32354033 372.76086801 139.03846984 371.06932602 139.99560547 368.66210938 C141.57518564 364.92195402 143.45039506 362.16636187 146.05810547 359.03710938 C146.38810547 358.19148438 146.71810547 357.34585937 147.05810547 356.47460938 C148.05810547 354.03710938 148.05810547 354.03710938 149.99560547 352.28710938 C152.60075103 349.4451324 153.18911381 346.77242928 154.27685547 343.13085938 C155.28885061 340.4187124 157.02650846 339.06870638 159.05810547 337.03710938 C159.9077357 334.76010035 160.58243327 332.45553191 161.27685547 330.12695312 C162.05810547 328.03710938 162.05810547 328.03710938 164.05810547 326.09960938 C166.84365068 323.22701588 167.25892563 320.15578181 168.27685547 316.34960938 C169.25556512 313.4526288 170.91555474 312.17966011 173.05810547 310.03710938 C173.92103803 307.52166096 174.58989281 304.98075237 175.27685547 302.41210938 C176.05810547 300.03710937 176.05810547 300.03710937 178.05810547 297.59960938 C180.72918689 294.1772863 181.32417264 290.75618369 182.24951172 286.56054688 C183.11391449 283.8629421 183.99156895 282.89043181 186.05810547 281.03710938 C187.83974992 276.74020217 188.59124209 272.36603709 189.30029297 267.79492188 C189.98348526 265.3086654 190.79732831 263.60220797 192.02685547 261.36914062 C194.50272485 256.59240668 195.08729285 251.8969946 195.68310547 246.59960938 C195.90095732 244.80881526 196.12228336 243.01844018 196.34716797 241.22851562 C196.45625488 240.35952637 196.5653418 239.49053711 196.67773438 238.59521484 C197.04673267 236.11359473 197.54772513 233.7093716 198.12060547 231.26757812 C201.26288981 217.71815547 198.04154501 203.53391662 196.03076172 190.02539062 C195.22003312 184.52247048 194.68300503 179.05200521 194.34472656 173.50073242 C193.96259707 170.21617644 192.79946704 167.82328789 191.05810547 165.03710938 C188.56731701 160.71910158 187.96673609 156.07414687 187.03466797 151.22851562 C185.95531761 147.70119864 184.39040264 145.84958537 182.05810547 143.03710938 C181.15185547 140.53710938 181.15185547 140.53710938 180.55810547 138.03710938 C179.4038445 133.80065966 177.91068448 131.40833912 175.05810547 128.03710938 C173.98185021 125.69443344 173.01325717 123.33286744 172.08544922 120.92773438 C171.14668274 118.68742174 171.14668274 118.68742174 168.05810547 118.03710938 C167.62278683 116.36280691 167.19126233 114.68736825 166.78466797 113.00585938 C165.67254845 109.99237423 163.66815162 108.0020804 161.50732422 105.67382812 C160.05810547 104.03710937 160.05810547 104.03710937 158.43310547 101.22460938 C157.23943945 98.88907561 157.23943945 98.88907561 154.93310547 98.03710938 C154.31435547 97.70710938 153.69560547 97.37710938 153.05810547 97.03710938 C152.91373047 96.25335938 152.76935547 95.46960938 152.62060547 94.66210938 C151.84747767 91.05417963 149.9374602 90.21418246 147.05810547 88.03710938 C146.72810547 87.35648437 146.39810547 86.67585938 146.05810547 85.97460938 C144.66798556 83.28125205 142.63753292 82.57248286 140.05810547 81.03710938 C139.37748047 80.17085937 138.69685547 79.30460937 137.99560547 78.41210938 C135.84314354 75.77360766 135.1824121 75.76611426 132.05810547 75.03710938 C131.76935547 74.43898437 131.48060547 73.84085938 131.18310547 73.22460938 C129.54932377 70.04781163 127.04668477 68.95431119 124.05810547 67.03710938 C122.25980274 65.49515217 120.50602959 63.91722681 118.76904297 62.30664062 C116.87114078 60.89837987 115.32861096 60.58068378 113.05810547 60.03710938 C112.62498047 59.10898438 112.62498047 59.10898438 112.18310547 58.16210938 C110.55448396 55.0858243 108.14430179 54.51848361 105.05810547 53.03710938 C104.45998047 52.37710938 103.86185547 51.71710937 103.24560547 51.03710938 C100.43605509 48.4683776 97.71469369 47.81735971 94.08154297 46.84570312 C92.05810547 46.03710937 92.05810547 46.03710937 90.05810547 43.03710938 C87.34434324 41.90422133 84.59150138 41.07109112 81.78466797 40.19726562 C79.05810547 39.03710938 79.05810547 39.03710938 77.08154297 37.00585938 C74.51233537 34.50608982 72.54456848 34.1675439 69.05810547 33.47460938 C63.42710241 32.34137001 63.42710241 32.34137001 61.27685547 30.56835938 C57.73708537 28.12541945 53.74576162 27.81313114 49.55810547 27.09960938 C43.88894757 26.12412927 38.60063284 24.93181028 33.18701172 22.95507812 C26.90892416 20.78770307 21.09938213 20.3739749 14.49560547 20.28710938 C12.79452637 20.24481201 12.79452637 20.24481201 11.05908203 20.20166016 C7.7253887 20.125873 4.39239544 20.07727534 1.05810547 20.03710938 C0.17074707 20.02196289 -0.71661133 20.00681641 -1.63085938 19.99121094 C-8.01645686 19.88675871 -14.38927669 19.96911962 -20.77392578 20.09130859 Z " fill="#FEFEFE" transform="translate(226.94189453125,-0.03710937499999999)"/>
<path d="M0 0 C1.29210136 0.00848969 1.29210136 0.00848969 2.61030579 0.01715088 C5.36186273 0.0395437 8.11211788 0.0897442 10.86328125 0.140625 C12.72849682 0.1606863 14.5937328 0.17893772 16.45898438 0.1953125 C21.03215508 0.23601718 25.6025111 0.31429782 30.17578125 0.390625 C29.51578125 9.630625 28.85578125 18.870625 28.17578125 28.390625 C39.56078125 27.895625 39.56078125 27.895625 51.17578125 27.390625 C50.68078125 22.935625 50.68078125 22.935625 50.17578125 18.390625 C50.11270987 15.70378442 50.08906979 13.01559669 50.11328125 10.328125 C50.12230469 9.01714844 50.13132812 7.70617187 50.140625 6.35546875 C50.15222656 5.37707031 50.16382813 4.39867187 50.17578125 3.390625 C49.51578125 3.390625 48.85578125 3.390625 48.17578125 3.390625 C48.17578125 2.400625 48.17578125 1.410625 48.17578125 0.390625 C53.67503546 0.34121571 59.17416067 0.30490105 64.67358398 0.28076172 C66.54470063 0.27069933 68.41580153 0.25704809 70.28686523 0.23974609 C72.97513716 0.21550816 75.66320131 0.20414437 78.3515625 0.1953125 C79.18915604 0.18498993 80.02674957 0.17466736 80.88972473 0.16403198 C86.83416613 0.16288159 86.83416613 0.16288159 90.17578125 2.390625 C90.89695753 4.03443977 91.55348029 5.70688995 92.17578125 7.390625 C93.04171481 9.06449656 93.90842003 10.73803022 94.7902832 12.40356445 C97.79031621 18.0984507 99.79417685 22.90335018 100.17578125 29.390625 C100.83578125 29.720625 101.49578125 30.050625 102.17578125 30.390625 C105.08202644 35.47655409 106.69111251 40.80075583 107.68359375 46.54296875 C108.07178292 48.62080269 108.07178292 48.62080269 110.17578125 50.390625 C111.02734375 52.44921875 111.02734375 52.44921875 111.80078125 54.828125 C112.06117188 55.61058594 112.3215625 56.39304688 112.58984375 57.19921875 C113.17578125 59.390625 113.17578125 59.390625 113.17578125 62.390625 C113.83578125 62.390625 114.49578125 62.390625 115.17578125 62.390625 C115.418125 63.23625 115.66046875 64.081875 115.91015625 64.953125 C117.62560714 70.75926648 119.36343775 76.23065222 122.2421875 81.5625 C123.22585755 83.48868237 123.95609324 85.41465735 124.67578125 87.453125 C125.84052578 90.71314364 127.41218133 93.49973311 129.203125 96.46875 C130.73339906 99.49242404 131.52568566 102.6890111 132.3671875 105.9609375 C133.10138035 108.47522318 133.10138035 108.47522318 134.66015625 110.8046875 C138.84678437 117.94785198 139.82185206 127.25013274 139.17578125 135.390625 C138.51578125 136.710625 137.85578125 138.030625 137.17578125 139.390625 C111.43578125 139.390625 85.69578125 139.390625 59.17578125 139.390625 C58.51578125 130.150625 57.85578125 120.910625 57.17578125 111.390625 C56.51578125 109.740625 55.85578125 108.090625 55.17578125 106.390625 C50.6368042 106.36597108 46.09786582 106.34778711 41.55883789 106.33569336 C40.01358359 106.3306536 38.46833409 106.3238218 36.9230957 106.31518555 C34.70653096 106.30310424 32.49002907 106.29739327 30.2734375 106.29296875 C29.57863785 106.28780746 28.8838382 106.28264618 28.16798401 106.27732849 C26.50348795 106.27713223 24.83912626 106.32873371 23.17578125 106.390625 C21.26864469 108.29776156 21.95421314 111.69852976 21.89453125 114.234375 C21.87612183 114.91866577 21.8577124 115.60295654 21.83874512 116.3079834 C21.77982986 118.50210759 21.72707941 120.69631026 21.67578125 122.890625 C21.60832264 125.77621434 21.53465512 128.66154325 21.45703125 131.546875 C21.42673828 132.83400391 21.39644531 134.12113281 21.36523438 135.44726562 C21.17578125 138.390625 21.17578125 138.390625 20.17578125 139.390625 C17.79386758 139.50683325 15.44053434 139.55860309 13.05737305 139.56762695 C11.94025436 139.57748375 11.94025436 139.57748375 10.80056763 139.58753967 C8.32537751 139.60731944 5.8502482 139.61894598 3.375 139.62890625 C2.53140238 139.63298178 1.68780476 139.6370573 0.81864357 139.64125633 C-3.64686211 139.6621377 -8.11233687 139.67643005 -12.57788086 139.68579102 C-17.19508648 139.6968559 -21.81181019 139.7312505 -26.42884541 139.77096272 C-29.97445075 139.79708747 -33.51994064 139.80547918 -37.06563377 139.80907249 C-38.76771484 139.81394974 -40.46979037 139.82559601 -42.17177773 139.84411049 C-44.55411723 139.86841341 -46.93520189 139.86755363 -49.31762695 139.8605957 C-50.37370903 139.87981079 -50.37370903 139.87981079 -51.4511261 139.89941406 C-54.85096357 139.86320256 -56.54676928 139.60756105 -59.2605896 137.48564148 C-61.50700461 134.47579963 -61.37103299 132.55726813 -61.20166016 128.91015625 C-60.51214443 124.30743807 -58.78951872 120.16855347 -57.01171875 115.890625 C-56.29509837 114.11008902 -55.58023681 112.32884409 -54.8671875 110.546875 C-54.51889893 109.68537842 -54.17061035 108.82388184 -53.81176758 107.9362793 C-52.86645978 105.49951182 -52.02700674 103.05279175 -51.22265625 100.56640625 C-50.14425935 97.24786653 -48.88050034 94.17867531 -47.26171875 91.078125 C-46.84792969 90.27761719 -46.43414062 89.47710937 -46.0078125 88.65234375 C-45.61722656 87.90597656 -45.22664062 87.15960938 -44.82421875 86.390625 C-43.31340774 83.49758263 -42.37462462 80.78473238 -41.515625 77.6328125 C-39.91751267 72.45023352 -37.81119447 67.4335573 -35.82421875 62.390625 C-35.49292969 61.53082031 -35.16164062 60.67101562 -34.8203125 59.78515625 C-32.97742431 55.05841792 -30.93611879 50.47507435 -28.76171875 45.890625 C-26.48834856 41.06970932 -24.79143804 36.40202607 -23.5625 31.21875 C-23.31886719 30.61546875 -23.07523438 30.0121875 -22.82421875 29.390625 C-21.83421875 29.060625 -20.84421875 28.730625 -19.82421875 28.390625 C-19.72882813 27.76285156 -19.6334375 27.13507813 -19.53515625 26.48828125 C-18.53498784 22.13040461 -16.99406742 18.01900579 -15.44921875 13.828125 C-15.145 12.97798828 -14.84078125 12.12785156 -14.52734375 11.25195312 C-14.22570312 10.43017578 -13.9240625 9.60839844 -13.61328125 8.76171875 C-13.34209473 8.01849365 -13.0709082 7.27526855 -12.79150391 6.50952148 C-9.81974138 -0.0003036 -6.921526 -0.1706029 0 0 Z " fill="#FBFEFE" transform="translate(180.82421875,138.609375)"/>
<path d="M0 0 C1.53527344 -0.01836914 1.53527344 -0.01836914 3.1015625 -0.03710938 C4.07867187 -0.03904297 5.05578125 -0.04097656 6.0625 -0.04296875 C7.41021484 -0.04913208 7.41021484 -0.04913208 8.78515625 -0.05541992 C11 0.1875 11 0.1875 13 2.1875 C13.41064453 4.50317383 13.41064453 4.50317383 13.6328125 7.39453125 C13.71684326 8.45091797 13.80087402 9.50730469 13.88745117 10.59570312 C14.00503784 12.28083008 14.00503784 12.28083008 14.125 14 C14.20919189 15.13244141 14.29338379 16.26488281 14.38012695 17.43164062 C15.53081763 33.66955326 15.53081763 33.66955326 15 40.1875 C13.16965945 42.01784055 10.26788008 41.31792797 7.8125 41.3203125 C6.55695313 41.32160156 5.30140625 41.32289063 4.0078125 41.32421875 C3.35071289 41.32212402 2.69361328 41.3200293 2.01660156 41.31787109 C0.00838665 41.31252234 -1.99960459 41.31781691 -4.0078125 41.32421875 C-5.26335937 41.32292969 -6.51890625 41.32164062 -7.8125 41.3203125 C-8.97394531 41.31918457 -10.13539063 41.31805664 -11.33203125 41.31689453 C-14 41.1875 -14 41.1875 -15 40.1875 C-14.93291736 37.21756876 -14.80249604 34.2764369 -14.625 31.3125 C-14.57609619 30.4265918 -14.52719238 29.54068359 -14.47680664 28.62792969 C-14.37374383 26.76323479 -14.26863064 24.89865226 -14.16162109 23.03417969 C-13.95260061 19.35264068 -13.76084972 15.67030244 -13.56982422 11.98779297 C-13.38302123 8.38752721 -13.19140398 4.78752376 -13 1.1875 C-9.11308052 -0.75595974 -4.27485419 0.00269197 0 0 Z " fill="#19CFE8" transform="translate(220,180.8125)"/>
<path d="M0 0 C1 2 1 2 0.375 4.8125 C-1 8 -1 8 -3.4375 10.125 C-6.80039408 13.89800312 -7.24379253 17.362218 -8.12890625 22.2578125 C-9.16410094 25.51658683 -10.3172662 26.0455133 -13 28 C-13.6921369 30.26300895 -13.6921369 30.26300895 -13.75 32.6875 C-13.80671875 33.49574219 -13.8634375 34.30398437 -13.921875 35.13671875 C-13.94765625 35.75160156 -13.9734375 36.36648437 -14 37 C-14.66 37 -15.32 37 -16 37 C-16 37.66 -16 38.32 -16 39 C-16.64066406 39.39574219 -17.28132813 39.79148438 -17.94140625 40.19921875 C-20.90960024 42.79568446 -20.63728145 44.95078473 -20.9375 48.8125 C-21.63571084 54.96310279 -22.48495654 57.83226758 -27 62 C-28.28446919 64.56893838 -28.32977144 66.76576337 -28.5625 69.625 C-28.64628906 70.62789063 -28.73007812 71.63078125 -28.81640625 72.6640625 C-28.87699219 73.43492187 -28.93757813 74.20578125 -29 75 C-29.33 75 -29.66 75 -30 75 C-30.83050602 66.46424371 -29.41920977 60.84816693 -25.5234375 53.2578125 C-23.57488828 49.09091495 -22.62429221 44.95729243 -21.73828125 40.4609375 C-20.92098607 37.73662023 -19.9870123 36.940683 -18 35 C-17.1430005 32.64015439 -17.1430005 32.64015439 -16.5625 30.0625 C-15.39784891 25.83073112 -14.15145544 24.05297246 -11 21 C-10.44757867 19.49741399 -9.95279048 17.97305033 -9.5 16.4375 C-8.32088882 12.50500486 -7.31360902 11.40989747 -4 9 C-2.45949538 6.0819793 -1.2092594 3.06817413 0 0 Z " fill="#45DAEE" transform="translate(56,106)"/>
<path d="M0 0 C0.515625 0.2475 1.03125 0.495 1.5625 0.75 C0.5725 0.75 -0.4175 0.75 -1.4375 0.75 C-1.870625 1.678125 -1.870625 1.678125 -2.3125 2.625 C-3.4375 4.75 -3.4375 4.75 -5.4375 6.75 C-7.82689054 6.97824891 -10.22600497 7.10934913 -12.625 7.1875 C-18.18348872 7.4523782 -22.59571003 7.88894229 -27.4375 10.75 C-27.88867188 11.27207031 -28.33984375 11.79414062 -28.8046875 12.33203125 C-31.00739701 14.24491056 -32.43424932 14.04937728 -35.3125 14.0625 C-37.99359787 14.1706441 -37.99359787 14.1706441 -40.4375 14.75 C-41.241875 15.74 -42.04625 16.73 -42.875 17.75 C-45.90313698 21.29513597 -46.77775137 21.24946767 -51.25 21.625 C-52.97831194 21.69349321 -54.70784201 21.74394165 -56.4375 21.75 C-54.4375 19.75 -54.4375 19.75 -51 18.3125 C-47.56826167 17.09828253 -47.56826167 17.09828253 -46.10546875 15.2734375 C-43.72192423 13.09642962 -41.28455249 12.65158515 -38.1875 11.8125 C-33.73267209 10.53479661 -30.40451762 9.14319233 -26.5078125 6.6171875 C-23.42718487 5.3268114 -20.23030905 5.09909892 -16.9375 4.75 C-11.52771298 4.16790051 -4.66933208 -0.47890585 0 0 Z " fill="#45DAEF" transform="translate(185.4375,22.25)"/>
<path d="M0 0 C0.33 0 0.66 0 1 0 C1 7.59 1 15.18 1 23 C6.94 23 12.88 23 19 23 C19 15.41 19 7.82 19 0 C19.66 0 20.32 0 21 0 C21.33 7.92 21.66 15.84 22 24 C19.54724859 25.2263757 17.9494219 25.11415314 15.2109375 25.09765625 C14.26992187 25.09443359 13.32890625 25.09121094 12.359375 25.08789062 C10.88210937 25.07532227 10.88210937 25.07532227 9.375 25.0625 C8.38242188 25.05798828 7.38984375 25.05347656 6.3671875 25.04882812 C3.9113984 25.03702145 1.45572896 25.020554 -1 25 C-1.10094304 16.58807963 -1.10102642 8.35600408 0 0 Z " fill="#5DDEF0" transform="translate(210,142)"/>
<path d="M0 0 C3.62493334 -0.05787784 7.24974857 -0.0935542 10.875 -0.125 C11.90753906 -0.14175781 12.94007813 -0.15851563 14.00390625 -0.17578125 C14.99003906 -0.18222656 15.97617188 -0.18867188 16.9921875 -0.1953125 C18.35899658 -0.21102295 18.35899658 -0.21102295 19.75341797 -0.22705078 C22 0 22 0 24 2 C26.36953516 10.71785702 26.27668799 19.72645451 26.1875 28.6875 C26.18685547 29.96044922 26.18621094 31.23339844 26.18554688 32.54492188 C26.14074248 41.85925752 26.14074248 41.85925752 25 43 C22.85441173 43.08775605 20.70595579 43.10695219 18.55859375 43.09765625 C17.25341797 43.09443359 15.94824219 43.09121094 14.60351562 43.08789062 C13.2148431 43.07953401 11.82617123 43.07106905 10.4375 43.0625 C9.04492344 43.05748666 7.65234519 43.05292347 6.25976562 43.04882812 C2.8398013 43.03699434 -0.58007844 43.0205088 -4 43 C-4 42.67 -4 42.34 -4 42 C5.24 41.67 14.48 41.34 24 41 C24.06208046 31.09905698 24.06208046 31.09905698 23.59765625 21.296875 C23.51193359 20.21535156 23.42621094 19.13382813 23.33789062 18.01953125 C23.24701172 16.94058594 23.15613281 15.86164063 23.0625 14.75 C22.97548828 13.62464844 22.88847656 12.49929687 22.79882812 11.33984375 C22.84508916 6.3040944 22.84508916 6.3040944 21 2 C19.44051458 1.84313751 17.87457332 1.74923361 16.30859375 1.68359375 C15.36435547 1.64169922 14.42011719 1.59980469 13.44726562 1.55664062 C12.45404297 1.51732422 11.46082031 1.47800781 10.4375 1.4375 C9.44041016 1.39431641 8.44332031 1.35113281 7.41601562 1.30664062 C4.9441585 1.20019702 2.4721969 1.09818072 0 1 C0 0.67 0 0.34 0 0 Z " fill="#9AEBF6" transform="translate(210,180)"/>
<path d="M0 0 C3.05075084 -0.266487 5.89626179 -0.34757146 8.9453125 -0.29296875 C9.8303244 -0.28872391 10.7153363 -0.28447906 11.62716675 -0.28010559 C14.46008445 -0.26328259 17.29229652 -0.22562425 20.125 -0.1875 C22.04295849 -0.17245782 23.96092811 -0.15876861 25.87890625 -0.14648438 C30.58621031 -0.11336727 35.29298544 -0.06156055 40 0 C40 0.66 40 1.32 40 2 C36.0523573 3.3158809 32.28910644 3.12300273 28.17578125 3.09765625 C27.31438034 3.0962413 26.45297943 3.09482635 25.56547546 3.09336853 C22.81444831 3.0877714 20.06350256 3.07521946 17.3125 3.0625 C15.4472668 3.05748463 13.58203233 3.05292179 11.71679688 3.04882812 C7.14449989 3.03780292 2.57226375 3.02054027 -2 3 C-1.34 2.01 -0.68 1.02 0 0 Z " fill="#12BAD1" transform="translate(172,135)"/>
<path d="M0 0 C2.22720121 3.34080181 2.40541959 5.02003653 2.78125 8.9609375 C2.90113281 10.15589844 3.02101563 11.35085937 3.14453125 12.58203125 C3.26183594 13.83371094 3.37914062 15.08539063 3.5 16.375 C4.19799624 23.59274133 4.92045573 30.76905939 6.078125 37.9296875 C7.7029716 48.10203341 7.80203847 58.01773795 5 68 C4.67 68 4.34 68 4 68 C3.92850703 63.71042193 3.96382331 60.14470678 5 56 C5.25386666 50.03738818 4.44865403 45.02205072 3.0625 39.25 C0.17951068 26.31916614 0.1658823 13.19622263 0 0 Z " fill="#3DD9EE" transform="translate(419,168)"/>
<path d="M0 0 C3.07033124 1.02344375 4.09498204 1.48010592 6 4 C6.51171875 6.69921875 6.51171875 6.69921875 6.6875 9.6875 C6.75324219 10.68136719 6.81898437 11.67523438 6.88671875 12.69921875 C6.92410156 13.45847656 6.96148437 14.21773438 7 15 C8.2065625 15.433125 8.2065625 15.433125 9.4375 15.875 C12 17 12 17 13 19 C13.06950541 20.54023996 13.08452357 22.08334988 13.0625 23.625 C13.05347656 24.44226563 13.04445313 25.25953125 13.03515625 26.1015625 C13.02355469 26.72804688 13.01195312 27.35453125 13 28 C13.66 28 14.32 28 15 28 C15.33 28.66 15.66 29.32 16 30 C16.99 30.33 17.98 30.66 19 31 C19.98248524 35.0527516 20.08159574 38.83861737 20 43 C18.05249626 40.07874439 16.56837228 37.13674456 15 34 C14.505 33.236875 14.01 32.47375 13.5 31.6875 C12.14876511 29.2665375 11.37586998 27.19166349 10.5625 24.5625 C9.6102946 21.52045433 8.78240435 19.68349723 6.9375 17 C4.76307894 13.63315449 4.19060967 10.95913483 3.58984375 7.05078125 C2.89179749 4.62379922 1.81059304 3.7026444 0 2 C0 1.34 0 0.68 0 0 Z " fill="#4ADBEF" transform="translate(35,282)"/>
<path d="M0 0 C0.66 0 1.32 0 2 0 C1.67 1.65 1.34 3.3 1 5 C0.32453125 5.09796875 -0.3509375 5.1959375 -1.046875 5.296875 C-6.31931765 6.18069487 -9.49778183 6.71951113 -13 11 C-17.39285714 14 -17.39285714 14 -21 14 C-21 15.32 -21 16.64 -21 18 C-21.83144531 18.22042969 -21.83144531 18.22042969 -22.6796875 18.4453125 C-24.93591131 19.14385866 -26.93425632 19.84908566 -29 21 C-30.59995382 24.04021368 -30.59995382 24.04021368 -31 27 C-32.98 27 -34.96 27 -37 27 C-36 25 -36 25 -33 24 C-32.319375 22.7934375 -32.319375 22.7934375 -31.625 21.5625 C-29.65258515 18.4521535 -28.36302399 18.281152 -25 17 C-24.21625 16.21625 -23.4325 15.4325 -22.625 14.625 C-20.4492722 12.4492722 -18.98900709 11.302819 -16.375 9.875 C-13.13864043 8.2940616 -13.13864043 8.2940616 -11.54296875 6.48046875 C-9.75054367 4.76064823 -8.28499079 4.20537082 -5.9375 3.4375 C-3.19631961 2.53398244 -2.09299206 2.09299206 0 0 Z " fill="#4CDBEF" transform="translate(127,44)"/>
<path d="M0 0 C10.23 0 20.46 0 31 0 C31.9230348 3.69213922 32.10346196 6.48149954 32.0625 10.25 C32.05347656 11.32765625 32.04445312 12.4053125 32.03515625 13.515625 C32.02355469 14.33546875 32.01195312 15.1553125 32 16 C30 13 30 13 29 3 C19.43 2.67 9.86 2.34 0 2 C0 1.34 0 0.68 0 0 Z " fill="#12B6CD" transform="translate(205,246)"/>
<path d="M0 0 C0.99 0 1.98 0 3 0 C3 7.59 3 15.18 3 23 C-2.94 23 -8.88 23 -15 23 C-15 22.01 -15 21.02 -15 20 C-10.05 20.33 -5.1 20.66 0 21 C0 14.07 0 7.14 0 0 Z " fill="#12B9D0" transform="translate(226,142)"/>
<path d="M0 0 C0.66 1.32 1.32 2.64 2 4 C8.93 4 15.86 4 23 4 C23.66 2.68 24.32 1.36 25 0 C25.66 0 26.32 0 27 0 C27 2.31 27 4.62 27 7 C22.52084672 7.02886338 18.04171709 7.04675187 13.5625 7.0625 C12.28310547 7.07087891 11.00371094 7.07925781 9.68554688 7.08789062 C7.86313477 7.09272461 7.86313477 7.09272461 6.00390625 7.09765625 C4.87799072 7.10289307 3.7520752 7.10812988 2.59204102 7.11352539 C0 7 0 7 -1 6 C-1.125 3.5 -1.125 3.5 -1 1 C-0.67 0.67 -0.34 0.34 0 0 Z " fill="#11ADC2" transform="translate(207,214)"/>
<path d="M0 0 C7.26 0 14.52 0 22 0 C22 1.65 22 3.3 22 5 C21.34 5 20.68 5 20 5 C20 4.34 20 3.68 20 3 C17.79112243 3.11498267 15.58289213 3.24243505 13.375 3.375 C12.14523438 3.44460937 10.91546875 3.51421875 9.6484375 3.5859375 C6.16346145 3.9814487 3.26950399 4.76261849 0 6 C0 4.02 0 2.04 0 0 Z " fill="#14BBD2" transform="translate(209,181)"/>
<path d="M0 0 C3.5025363 2.96890889 4.00672427 6.10313002 5.05859375 10.4296875 C5.88475648 13.13651247 5.88475648 13.13651247 7.99609375 15.37890625 C10.44936739 18.58776904 10.92264069 21.10644005 11.625 25.0625 C12.64781635 30.76432294 12.64781635 30.76432294 15 36 C10.45017742 32.15580418 9.29292495 29.57663358 8.6875 23.6875 C8.54699219 22.43324219 8.40648437 21.17898437 8.26171875 19.88671875 C8.17535156 18.93410156 8.08898437 17.98148438 8 17 C7.38125 16.87625 6.7625 16.7525 6.125 16.625 C4 16 4 16 2 14 C1.54152311 11.63969304 1.17856869 9.2601826 0.875 6.875 C0.70742188 5.59367188 0.53984375 4.31234375 0.3671875 2.9921875 C0.24601562 2.00476563 0.12484375 1.01734375 0 0 Z " fill="#4BDBEF" transform="translate(404,132)"/>
<path d="M0 0 C1.7015625 0.4021875 1.7015625 0.4021875 3.4375 0.8125 C6.70416879 1.55468715 9.9702095 2.16981907 13.27734375 2.6953125 C14.03281494 2.81801514 14.78828613 2.94071777 15.56665039 3.06713867 C17.09158953 3.31180633 18.61815932 3.54654143 20.14624023 3.77075195 C25.55934737 4.64936396 25.55934737 4.64936396 28.0078125 6.59765625 C28.33523438 7.06042969 28.66265625 7.52320313 29 8 C27.845 7.690625 26.69 7.38125 25.5 7.0625 C20.227087 5.84308631 14.97999309 5.65521689 9.5859375 5.60571289 C6.08670262 5.4897795 4.29536825 5.2353643 1.51953125 3.0234375 C0 1 0 1 0 0 Z " fill="#3AD8ED" transform="translate(260,24)"/>
<path d="M0 0 C0 0.99 0 1.98 0 3 C-0.99 3.495 -0.99 3.495 -2 4 C-3.06609497 6.71003133 -3.92291225 9.46328267 -4.8046875 12.23828125 C-6.10922441 15.25235836 -7.66270505 16.74249222 -10 19 C-11.27765265 22.63543901 -11.27765265 22.63543901 -12 26 C-12.33 26 -12.66 26 -13 26 C-13.05422947 24.5629191 -13.09289723 23.12524538 -13.125 21.6875 C-13.14820313 20.88699219 -13.17140625 20.08648437 -13.1953125 19.26171875 C-13 17 -13 17 -11 14 C-9.68 14 -8.36 14 -7 14 C-6.814375 12.453125 -6.814375 12.453125 -6.625 10.875 C-6.0518248 7.32131377 -5.48315636 4.27855616 -4 1 C-1.875 0.125 -1.875 0.125 0 0 Z " fill="#4CDBEF" transform="translate(391,324)"/>
<path d="M0 0 C0.33 0 0.66 0 1 0 C1.13751277 13.36929696 0.74380741 26.65131342 0 40 C-0.66 40 -1.32 40 -2 40 C-2.24715514 26.49772472 -1.85057896 13.38365142 0 0 Z " fill="#BEF2F9" transform="translate(206,182)"/>
<path d="M0 0 C0.33 0 0.66 0 1 0 C1.7730082 8.69204772 1.7730082 8.69204772 -0.078125 11.82421875 C-1.3659554 13.234171 -2.68225015 14.61796967 -4 16 C-5.13795041 20.02549958 -5.29029656 24.15167599 -5.5625 28.3125 C-5.64628906 29.56675781 -5.73007812 30.82101563 -5.81640625 32.11328125 C-5.87699219 33.06589844 -5.93757813 34.01851562 -6 35 C-6.33 35 -6.66 35 -7 35 C-7.14622024 31.79215279 -7.23436651 28.58517039 -7.3125 25.375 C-7.3753418 24.01955078 -7.3753418 24.01955078 -7.43945312 22.63671875 C-7.57748685 15.07247084 -7.57748685 15.07247084 -4.5625 11.65625 C-3.716875 10.7796875 -2.87125 9.903125 -2 9 C-1.01509715 6.52343045 -1.01509715 6.52343045 -0.6875 4.125 C-0.54699219 3.34382812 -0.40648437 2.56265625 -0.26171875 1.7578125 C-0.17535156 1.17773438 -0.08898438 0.59765625 0 0 Z " fill="#13C5DD" transform="translate(35,153)"/>
<path d="M0 0 C7.76858102 1.41770841 13.25015327 2.53063359 19 8 C22.21265916 9.32350658 22.21265916 9.32350658 25 10 C25 10.33 25 10.66 25 11 C21.37 11 17.74 11 14 11 C13.34 9.02 12.68 7.04 12 5 C6.06 4.01 6.06 4.01 0 3 C0 2.01 0 1.02 0 0 Z " fill="#46DAEE" transform="translate(289,32)"/>
<path d="M0 0 C0.66 0 1.32 0 2 0 C1.47820547 2.60897264 0.68428743 4.68633167 -0.4375 7.125 C-2.41419983 11.57257461 -3.18355073 16.22617308 -4 21 C-4.33 21 -4.66 21 -5 21 C-5.0814222 18.77144426 -5.13938079 16.54202345 -5.1875 14.3125 C-5.22230469 13.07113281 -5.25710938 11.82976562 -5.29296875 10.55078125 C-4.90084225 5.79820802 -3.31796164 3.31796164 0 0 Z " fill="#40D9EE" transform="translate(418,257)"/>
<path d="M0 0 C0.99 0.495 0.99 0.495 2 1 C2.268125 1.804375 2.53625 2.60875 2.8125 3.4375 C3.204375 4.283125 3.59625 5.12875 4 6 C4.81339844 6.26941406 5.62679687 6.53882813 6.46484375 6.81640625 C9 8 9 8 10.109375 10.53125 C10.42648438 12.00078125 10.42648438 12.00078125 10.75 13.5 C11.56512834 17.3610187 11.56512834 17.3610187 13 21 C10 20 10 20 8.75390625 17.890625 C8.36074219 17.01921875 7.96757813 16.1478125 7.5625 15.25 C6.1222975 12.19120134 4.87579593 9.84474491 2.75 7.1875 C0.80406619 4.75508274 0.34986399 3.06130992 0 0 Z " fill="#54DDF0" transform="translate(101,402)"/>
<path d="M0 0 C0.99 0.33 1.98 0.66 3 1 C2.125 8.625 2.125 8.625 1 12 C-0.32 12 -1.64 12 -3 12 C-3.34833144 7.12335991 -2.41685712 4.22949995 0 0 Z " fill="#1EC7DE" transform="translate(124,243)"/>
<path d="M0 0 C-0.598125 0.53625 -1.19625 1.0725 -1.8125 1.625 C-4.22911505 4.24875348 -5.43636082 6.80757001 -7 10 C-8.29944744 11.69321939 -9.62926214 13.36395804 -11 15 C-11.66 15.99 -12.32 16.98 -13 18 C-13.375 14.8125 -13.375 14.8125 -13 11 C-11.03814584 9.28859531 -9.03697617 7.62126675 -7 6 C-6.19684346 2.85518209 -6.19684346 2.85518209 -6 0 C-3.50907189 -1.24546405 -2.58919267 -0.7767578 0 0 Z " fill="#44D9EE" transform="translate(350,396)"/>
<path d="M0 0 C0.66 0 1.32 0 2 0 C3.75623315 5.37578685 4.39316874 10.30110255 4.625 15.9375 C4.66367187 16.71673828 4.70234375 17.49597656 4.7421875 18.29882812 C4.83544127 20.19887379 4.91875962 22.09940278 5 24 C2.75771146 21.75771146 2.6337478 21.03302649 2.1484375 18.0078125 C2.01953125 17.22019531 1.890625 16.43257813 1.7578125 15.62109375 C1.63148437 14.79738281 1.50515625 13.97367188 1.375 13.125 C1.2409375 12.30902344 1.106875 11.49304688 0.96875 10.65234375 C0.38669774 7.01154745 0 3.70758208 0 0 Z " fill="#45DAEF" transform="translate(24,240)"/>
<path d="M0 0 C0.99 0.33 1.98 0.66 3 1 C0.75939543 5.8029981 -1.52644754 9.94752214 -5 14 C-5.66 14.99 -6.32 15.98 -7 17 C-7.28571429 9.57142857 -7.28571429 9.57142857 -5 6 C-3.68 6 -2.36 6 -1 6 C-0.67 4.02 -0.34 2.04 0 0 Z " fill="#45D9EE" transform="translate(372,353)"/>
<path d="M0 0 C0.3403125 0.8353125 0.3403125 0.8353125 0.6875 1.6875 C1.95518848 4.17131969 1.95518848 4.17131969 4.375 6.3125 C8.49559793 10.5312074 11.2751013 15.01958571 12 21 C11.401875 20.236875 10.80375 19.47375 10.1875 18.6875 C8.20164646 16.1165855 8.20164646 16.1165855 6.4375 14.5625 C4.38155147 12.32777334 3.33073076 9.71690863 2 7 C1.4225 6.278125 0.845 5.55625 0.25 4.8125 C-0.1625 4.214375 -0.575 3.61625 -1 3 C-0.67 2.01 -0.34 1.02 0 0 Z " fill="#56DDF0" transform="translate(84,374)"/>
<path d="M0 0 C5.94 0 11.88 0 18 0 C18 0.99 18 1.98 18 3 C12.06 3 6.12 3 0 3 C0 2.01 0 1.02 0 0 Z " fill="#10AAC0" transform="translate(211,162)"/>
<path d="M0 0 C1.35862973 3.90480249 0.89469712 7.7101776 0.5625 11.75 C0.51029297 12.44738281 0.45808594 13.14476562 0.40429688 13.86328125 C0.27525928 15.57596203 0.13840386 17.28805066 0 19 C-3 17 -3 17 -3.3984375 15.1171875 C-3.33896901 9.42803575 -2.2774692 5.21920026 0 0 Z " fill="#B2EFF8" transform="translate(123,257)"/>
<path d="M0 0 C0.33 0 0.66 0 1 0 C1.08074203 2.62561109 1.1403623 5.24875676 1.1875 7.875 C1.22520508 8.99455078 1.22520508 8.99455078 1.26367188 10.13671875 C1.29296875 12.3046875 1.29296875 12.3046875 1 16 C0.01 16.66 -0.98 17.32 -2 18 C-2.66 18.99 -3.32 19.98 -4 21 C-3.48200585 15.99272317 -2.6261347 11.77677067 -1 7 C-0.62468554 4.67305036 -0.28082798 2.34023315 0 0 Z " fill="#41D9EE" transform="translate(25,182)"/>
<path d="M0 0 C0.625 1.8125 0.625 1.8125 1 4 C0.01 5.485 0.01 5.485 -1 7 C-1.38499891 8.65549531 -1.72793135 10.3222433 -2 12 C-2.99 12 -3.98 12 -5 12 C-5.19402245 7.82851735 -5.01430083 4.71055417 -3 1 C-2.01 0.67 -1.02 0.34 0 0 Z " fill="#13C1D9" transform="translate(131,229)"/>
<path d="M0 0 C3.875 0.875 3.875 0.875 5 2 C6.00581962 7.36437132 6.11116338 12.55299453 6 18 C5.67 18 5.34 18 5 18 C4.70996094 16.67935547 4.70996094 16.67935547 4.4140625 15.33203125 C4.15367188 14.17058594 3.89328125 13.00914062 3.625 11.8125 C3.36976562 10.66394531 3.11453125 9.51539063 2.8515625 8.33203125 C2.10527548 5.41192652 1.19568212 2.76046611 0 0 Z " fill="#49DBEF" transform="translate(29,264)"/>
<path d="M0 0 C0 0.99 0 1.98 0 3 C-0.45375 3.433125 -0.9075 3.86625 -1.375 4.3125 C-3.5756519 6.59779236 -4.13070199 8.99089149 -5 12 C-6.98 12.33 -8.96 12.66 -11 13 C-9.85284551 9.55853654 -8.61227933 8.4671527 -6 6 C-5.113125 5.113125 -4.22625 4.22625 -3.3125 3.3125 C-2.20833333 2.20833333 -1.10416667 1.10416667 0 0 Z " fill="#4FDBEF" transform="translate(73,87)"/>
<path d="M0 0 C1.2065625 0.0309375 1.2065625 0.0309375 2.4375 0.0625 C1.125 2.5 1.125 2.5 -1.5625 5.0625 C-5.22134437 5.81006245 -8.83415244 5.99178996 -12.5625 6.0625 C-9.91853236 3.41853236 -6.98746181 2.49475676 -3.5625 1.0625 C-2.5625 0.0625 -2.5625 0.0625 0 0 Z " fill="#38D6EC" transform="translate(141.5625,37.9375)"/>
<path d="M0 0 C2.88956687 1.29532308 5.01041688 2.5130211 7 5 C7.29296875 7.26171875 7.29296875 7.26171875 7.1875 9.6875 C7.16042969 10.49574219 7.13335937 11.30398438 7.10546875 12.13671875 C7.07066406 12.75160156 7.03585938 13.36648438 7 14 C6.67 14 6.34 14 6 14 C5.7525 12.9275 5.505 11.855 5.25 10.75 C3.97663779 6.92991338 2.85332641 5.66310465 0 3 C0 2.01 0 1.02 0 0 Z " fill="#4EDCEF" transform="translate(62,338)"/>
<path d="M0 0 C1 2 1 2 0.375 4.8125 C-1.18583098 8.43079 -3.2386288 10.2386288 -6 13 C-6.87238858 15.67790896 -6.87238858 15.67790896 -7 18 C-7.66 18 -8.32 18 -9 18 C-8.75 15.1875 -8.75 15.1875 -8 12 C-7.401875 11.566875 -6.80375 11.13375 -6.1875 10.6875 C-2.69604687 7.9940933 -1.58657102 4.025502 0 0 Z " fill="#5FDFF1" transform="translate(56,106)"/>
<path d="M0 0 C2.93752254 0.30388164 3.84080893 0.80669656 5.75 3.125 C7.2577334 6.59278683 7.22019353 9.25670998 7 13 C5.56756288 10.85134432 4.22476296 8.73190841 2.9375 6.5 C2.59589844 5.9121875 2.25429688 5.324375 1.90234375 4.71875 C1 3 1 3 0 0 Z " fill="#47DAEF" transform="translate(55,325)"/>
<path d="M0 0 C2.14336161 3.4766338 2.21277626 6.21229195 2.125 10.25 C2.10695312 11.32765625 2.08890625 12.4053125 2.0703125 13.515625 C2.04710937 14.33546875 2.02390625 15.1553125 2 16 C-0.49304155 12.26043767 -0.40180557 9.56885393 -0.65625 5.1796875 C-0.82640625 4.10074219 -0.82640625 4.10074219 -1 3 C-1.66 2.67 -2.32 2.34 -3 2 C-2.01 2 -1.02 2 0 2 C0 1.34 0 0.68 0 0 Z " fill="#13C0D8" transform="translate(235,246)"/>
<path d="M0 0 C0 0.66 0 1.32 0 2 C-0.598125 2.226875 -1.19625 2.45375 -1.8125 2.6875 C-4.19106316 3.86965894 -4.19106316 3.86965894 -5.375 6.4375 C-7.42069911 9.66341013 -9.53531653 10.53713364 -13 12 C-11.60609461 8.84280428 -9.96365028 6.7187347 -7.5 4.3125 C-6.8915625 3.71050781 -6.283125 3.10851562 -5.65625 2.48828125 C-3.70055766 0.73092563 -2.65294241 0 0 0 Z " fill="#4EDCEF" transform="translate(87,75)"/>
<path d="M0 0 C1.32 0 2.64 0 4 0 C4 0.99 4 1.98 4 3 C2.68 3 1.36 3 0 3 C-0.2475 3.61875 -0.495 4.2375 -0.75 4.875 C-2.22879539 7.38895216 -3.37921165 7.8534051 -6 9 C-6.66 9.66 -7.32 10.32 -8 11 C-8 9.68 -8 8.36 -8 7 C-7.236875 6.773125 -6.47375 6.54625 -5.6875 6.3125 C-2.79746748 5.20491069 -2.79746748 5.20491069 -1.4375 2.375 C-0.963125 1.59125 -0.48875 0.8075 0 0 Z " fill="#12BCD4" transform="translate(91,72)"/>
<path d="M0 0 C0.33 0.99 0.66 1.98 1 3 C-0.14453125 4.61328125 -0.14453125 4.61328125 -1.8125 6.3125 C-4.6098647 9.36299051 -6.00429559 11.91761192 -7 16 C-7.33 16 -7.66 16 -8 16 C-8 13.69 -8 11.38 -8 9 C-7.34 8.67 -6.68 8.34 -6 8 C-5.67 7.01 -5.34 6.02 -5 5 C-4.01 4.67 -3.02 4.34 -2 4 C-0.79117904 1.99983534 -0.79117904 1.99983534 0 0 Z " fill="#54DDF0" transform="translate(358,379)"/>
<path d="M0 0 C0.66 0 1.32 0 2 0 C1.91291331 1.45945288 1.80473093 2.91765868 1.6875 4.375 C1.62949219 5.18710938 1.57148438 5.99921875 1.51171875 6.8359375 C1 9 1 9 -2 11 C-2.625 8.625 -2.625 8.625 -3 6 C-2.34 5.34 -1.68 4.68 -1 4 C-0.3574765 1.93125966 -0.3574765 1.93125966 0 0 Z " fill="#13C2DB" transform="translate(143,195)"/>
<path d="M0 0 C0.99 0 1.98 0 3 0 C2.3001048 3.14952839 1.34839851 6.0652503 0 9 C-0.99 9.495 -0.99 9.495 -2 10 C-3.03023161 6.72199032 -3.17153978 5.38596452 -1.75 2.1875 C-1.1725 1.465625 -0.595 0.74375 0 0 Z " fill="#13C4DC" transform="translate(165,141)"/>
<path d="M0 0 C5.10699665 3.66371499 6.44058117 5.7623247 8 12 C8.99 12.33 9.98 12.66 11 13 C9 14 9 14 7 13.5 C4.02456854 11.26842641 3.92537289 8.51641699 3 5 C1.47992158 3.22722741 1.47992158 3.22722741 0 2 C0 1.34 0 0.68 0 0 Z " fill="#5ADEF0" transform="translate(387,106)"/>
<path d="M0 0 C1.85546875 0.22265625 1.85546875 0.22265625 4 1 C5.30078125 2.99609375 5.30078125 2.99609375 6.3125 5.4375 C6.65925781 6.24058594 7.00601563 7.04367187 7.36328125 7.87109375 C8 10 8 10 7 12 C3.6497537 8.18765077 1.83025211 4.66714289 0 0 Z " fill="#50DCEF" transform="translate(114,423)"/>
<path d="M0 0 C0.33 0.66 0.66 1.32 1 2 C0.21625 2.20625 -0.5675 2.4125 -1.375 2.625 C-4.30916286 3.80676612 -4.30916286 3.80676612 -5.3125 7.125 C-5.539375 8.07375 -5.76625 9.0225 -6 10 C-7.98 10 -9.96 10 -12 10 C-11 8 -11 8 -8 7 C-7.319375 5.7934375 -7.319375 5.7934375 -6.625 4.5625 C-4.7163149 1.55265042 -3.35034331 0.99604801 0 0 Z " fill="#5CDEF1" transform="translate(102,61)"/>
<path d="M0 0 C0.66 0.33 1.32 0.66 2 1 C0 4 0 4 -2.20703125 4.6953125 C-3.49673828 4.90800781 -3.49673828 4.90800781 -4.8125 5.125 C-6.09060547 5.34542969 -6.09060547 5.34542969 -7.39453125 5.5703125 C-8.68423828 5.78300781 -8.68423828 5.78300781 -10 6 C-11.66781008 6.32756436 -13.33484484 6.65919625 -15 7 C-14 5 -14 5 -11.09375 3.96484375 C-9.9078125 3.62582031 -8.721875 3.28679688 -7.5 2.9375 C-3.44157905 2.05586097 -3.44157905 2.05586097 0 0 Z " fill="#56DDF0" transform="translate(155,31)"/>
<path d="M0 0 C2.9375 0.375 2.9375 0.375 6 1 C7.60725635 4.21451269 7.05748185 7.43612536 7 11 C5.24847934 8.37271902 3.62391115 5.70651859 2 3 C1.34 2.01 0.68 1.02 0 0 Z " fill="#4CDBEF" transform="translate(69,352)"/>
<path d="M0 0 C1.05543251 3.18769143 0.97424908 4.94786631 -0.25 8.0625 C-0.62898437 9.06990234 -0.62898437 9.06990234 -1.015625 10.09765625 C-2.0785986 12.15189491 -3.29068058 13.45873165 -5 15 C-4.43174347 9.45949887 -2.37113483 4.96284034 0 0 Z " fill="#9EEBF6" transform="translate(135,226)"/>
<path d="M0 0 C0 2.95274099 -0.43891831 4.49058403 -1.5 7.1875 C-1.7784375 7.90292969 -2.056875 8.61835938 -2.34375 9.35546875 C-2.5603125 9.89816406 -2.776875 10.44085938 -3 11 C-3.33 11 -3.66 11 -4 11 C-4 9.02 -4 7.04 -4 5 C-4.66 4.67 -5.32 4.34 -6 4 C-4.02 2.68 -2.04 1.36 0 0 Z " fill="#2ED2E9" transform="translate(144,203)"/>
<path d="M0 0 C2.3552495 0.4060775 3.67211303 0.64088569 5.3125 2.4375 C7.84065298 4.77838239 10.71112757 5.19329544 14 6 C14 6.33 14 6.66 14 7 C6.57142857 7.14285714 6.57142857 7.14285714 3 6 C2.814375 5.071875 2.814375 5.071875 2.625 4.125 C2.12802644 1.80879168 2.12802644 1.80879168 0 0 Z " fill="#5ADEF0" transform="translate(314,43)"/>
<path d="M0 0 C0.66 0.33 1.32 0.66 2 1 C0.68 2.65 -0.64 4.3 -2 6 C-2 4.35 -2 2.7 -2 1 C-1.34 0.67 -0.68 0.34 0 0 Z M-8 7 C-6.35 7 -4.7 7 -3 7 C-4.5801368 9.15473199 -6.10646634 11.10646634 -8 13 C-8 11.02 -8 9.04 -8 7 Z " fill="#13C0D8" transform="translate(71,92)"/>
<path d="M0 0 C0.48210937 0.42152344 0.96421875 0.84304687 1.4609375 1.27734375 C2.09257812 1.82519531 2.72421875 2.37304688 3.375 2.9375 C4.00148438 3.48277344 4.62796875 4.02804688 5.2734375 4.58984375 C6.95632334 6.06958624 6.95632334 6.06958624 9 7 C8.67 7.66 8.34 8.32 8 9 C6.35 8.67 4.7 8.34 3 8 C3 7.34 3 6.68 3 6 C2.34 6 1.68 6 1 6 C0.67 4.02 0.34 2.04 0 0 Z " fill="#54DDF0" transform="translate(363,77)"/>
<path d="M0 0 C1.98 0.99 1.98 0.99 4 2 C4 2.66 4 3.32 4 4 C6.475 4.99 6.475 4.99 9 6 C9 6.33 9 6.66 9 7 C7.02 7 5.04 7 3 7 C2.01 4.69 1.02 2.38 0 0 Z " fill="#4CDBEF" transform="translate(336,56)"/>
<path d="M0 0 C3.6875 -0.3125 3.6875 -0.3125 7 0 C6.4225 0.2475 5.845 0.495 5.25 0.75 C2.6997003 2.16683317 0.98214299 3.87627537 -1 6 C-1.66 5.67 -2.32 5.34 -3 5 C-1.9375 2.5 -1.9375 2.5 0 0 Z M-10 6 C-7.69 6 -5.38 6 -3 6 C-3 6.33 -3 6.66 -3 7 C-5.31 7 -7.62 7 -10 7 C-10 6.67 -10 6.34 -10 6 Z " fill="#2BD5EC" transform="translate(158,29)"/>
<path d="M0 0 C1.32 0 2.64 0 4 0 C5.60355101 3.50776784 6.22036864 6.14354879 6 10 C3.29391583 8.64695791 3.03816953 7.19033456 1.875 4.4375 C1.52179688 3.61121094 1.16859375 2.78492188 0.8046875 1.93359375 C0.53914062 1.29550781 0.27359375 0.65742188 0 0 Z " fill="#49DBEF" transform="translate(134,453)"/>
<path d="M0 0 C1.32 0.33 2.64 0.66 4 1 C0.67692308 6.78461538 0.67692308 6.78461538 -2.75 7.875 C-3.4925 7.91625 -4.235 7.9575 -5 8 C-4.67 7.34 -4.34 6.68 -4 6 C-3.01 6 -2.02 6 -1 6 C-0.67 4.02 -0.34 2.04 0 0 Z " fill="#2FD4EB" transform="translate(88,71)"/>
<path d="M0 0 C0.66 0 1.32 0 2 0 C1.03628506 2.40928735 0.34789837 3.76007009 -1.8125 5.25 C-4.32321365 6.11081611 -6.36348649 6.14647297 -9 6 C-9 5.01 -9 4.02 -9 3 C-8.401875 3.165 -7.80375 3.33 -7.1875 3.5 C-4.88655664 4.1114124 -4.88655664 4.1114124 -2 4 C-1.34 2.68 -0.68 1.36 0 0 Z " fill="#30BFD2" transform="translate(225,559)"/>
<path d="M0 0 C2.28459758 2.28459758 2.97129748 4.12537344 4.125 7.125 C4.47820312 8.03507813 4.83140625 8.94515625 5.1953125 9.8828125 C5.46085937 10.58148438 5.72640625 11.28015625 6 12 C4.68 12 3.36 12 2 12 C0.86235649 7.73383684 0 4.43513689 0 0 Z " fill="#51DCF0" transform="translate(398,120)"/>
<path d="M0 0 C5.26053037 -0.31563182 8.44573816 0.33409063 13 3 C10.09905209 4.45047396 8.44027404 3.45356803 5.375 2.5625 C4.37210937 2.27503906 3.36921875 1.98757812 2.3359375 1.69140625 C1.56507813 1.46324219 0.79421875 1.23507813 0 1 C0 0.67 0 0.34 0 0 Z " fill="#57DDF0" transform="translate(276,28)"/>
<path d="M0 0 C0 4.05345102 -1.58160112 5.8215329 -4 9 C-4.99 9.33 -5.98 9.66 -7 10 C-5.96337637 6.8901291 -5.26777536 6.18055324 -3 4 C-1.98199424 2.68036291 -0.97751635 1.34990354 0 0 Z " fill="#41BFD1" transform="translate(256,522)"/>
<path d="M0 0 C1.65 0 3.3 0 5 0 C5.33 2.64 5.66 5.28 6 8 C2.76260721 6.3813036 1.57755229 3.15510457 0 0 Z " fill="#58DEF0" transform="translate(140,463)"/>
<path d="M0 0 C0.66 0 1.32 0 2 0 C2 2.31 2 4.62 2 7 C1.01 7.33 0.02 7.66 -1 8 C-2 6 -2 6 -1.0625 2.875 C-0.5365625 1.451875 -0.5365625 1.451875 0 0 Z " fill="#13C3DC" transform="translate(236,266)"/>
<path d="M0 0 C0.66 0 1.32 0 2 0 C1.67 1.65 1.34 3.3 1 5 C-0.32 5.33 -1.64 5.66 -3 6 C-2.42655063 3.13275314 -2.1385485 2.1385485 0 0 Z " fill="#32D6ED" transform="translate(127,44)"/>
<path d="M0 0 C1.32 0 2.64 0 4 0 C4.33 2.64 4.66 5.28 5 8 C2.98863724 5.44008376 1.37154504 2.95409701 0 0 Z " fill="#43D9EE" transform="translate(148,473)"/>
<path d="M0 0 C0.66 0.33 1.32 0.66 2 1 C0.02 3.97 0.02 3.97 -2 7 C-3.32 6.67 -4.64 6.34 -6 6 C-4 4 -2 2 0 0 Z " fill="#1ACFE9" transform="translate(77,84)"/>
<path d="M0 0 C3.05082939 1.01694313 3.90372675 1.72144212 6 4 C6.66 4.66 7.32 5.32 8 6 C6.02 6 4.04 6 2 6 C1.34 4.02 0.68 2.04 0 0 Z " fill="#58DEF0" transform="translate(328,50)"/>
</svg>
