<?xml version="1.0" encoding="UTF-8"?>
<svg version="1.1" xmlns="http://www.w3.org/2000/svg" width="240" height="315">
<path d="M0 0 C1.19424339 -0.00430527 1.19424339 -0.00430527 2.41261292 -0.00869751 C4.08929153 -0.01073053 5.76599428 -0.00525415 7.44262695 0.00732422 C9.99289658 0.02336824 12.54157652 0.00746139 15.09179688 -0.01171875 C16.72786804 -0.00973577 18.36393823 -0.00589095 20 0 C20.75437851 -0.00607269 21.50875702 -0.01214539 22.28599548 -0.0184021 C27.44222628 0.04923784 30.92365914 1.16067995 35.56640625 3.3984375 C37.67880983 3.93039315 39.80484877 4.41126373 41.94140625 4.8359375 C47.60358985 6.09706021 52.42005586 7.75680537 57.56640625 10.3984375 C59.28150391 11.24921875 59.28150391 11.24921875 61.03125 12.1171875 C86.12189466 24.81918503 108.1979091 45.85888974 118.56640625 72.3984375 C118.97117188 73.38585937 119.3759375 74.37328125 119.79296875 75.390625 C122.87707834 83.3443813 124.40039016 90.64546053 125.20703125 99.09765625 C125.44845719 102.39740399 125.44845719 102.39740399 126.56640625 105.3984375 C128.30809176 125.29933591 121.11672391 144.78664188 112.56640625 162.3984375 C112.21578125 163.12804687 111.86515625 163.85765625 111.50390625 164.609375 C109.15830624 169.39830836 106.58118691 174.05708111 104.0078125 178.7265625 C102.77569704 181.01048385 101.62399234 183.30850057 100.50390625 185.6484375 C98.91354006 188.88831572 96.99451447 191.67302312 94.84375 194.5625 C93.463575 196.54623777 92.33132922 198.58058965 91.19140625 200.7109375 C88.91352055 204.91299995 86.28136221 208.73624694 83.50390625 212.62109375 C81.35456952 215.70209862 79.32915519 218.85268079 77.31640625 222.0234375 C73.82734435 227.49011768 70.2659926 232.9040062 66.62890625 238.2734375 C66.15614258 238.98193848 65.68337891 239.69043945 65.19628906 240.42041016 C64.03857836 242.11662028 62.80875808 243.76320517 61.56640625 245.3984375 C60.90640625 245.3984375 60.24640625 245.3984375 59.56640625 245.3984375 C59.30730469 246.12160156 59.04820312 246.84476563 58.78125 247.58984375 C55.1836027 255.90723413 48.33077575 263.02477445 42.72509766 270.11035156 C37.49600846 276.72645257 32.24552883 283.37975363 27.56640625 290.3984375 C26.90640625 290.3984375 26.24640625 290.3984375 25.56640625 290.3984375 C25.32921875 290.95144531 25.09203125 291.50445312 24.84765625 292.07421875 C23.2579778 294.95793424 21.28124558 297.15177155 19.06640625 299.5859375 C18.27234375 300.46636719 17.47828125 301.34679687 16.66015625 302.25390625 C13.99214488 304.98662686 13.09716598 305.33106942 9.2734375 305.81640625 C5.23730546 305.3613313 4.07027846 304.5397026 1.54858398 301.43774414 C1.12134033 300.86789795 0.69409668 300.29805176 0.25390625 299.7109375 C-0.21265381 299.12368896 -0.67921387 298.53644043 -1.15991211 297.93139648 C-2.60502685 296.10212187 -4.01942666 294.25168864 -5.43359375 292.3984375 C-6.29106149 291.30839281 -7.15036569 290.21978962 -8.01171875 289.1328125 C-13.63816779 281.98287726 -18.9303313 274.59817533 -24.17919922 267.16894531 C-25.85492467 264.80375245 -27.54543765 262.44930335 -29.23535156 260.09423828 C-96.08311461 166.86465086 -96.08311461 166.86465086 -101.01171875 128.66796875 C-101.3139797 126.3902776 -101.3139797 126.3902776 -102.44335938 124.54345703 C-103.56408164 122.11577807 -103.69157104 120.47027158 -103.69921875 117.80859375 C-103.70179687 116.94169922 -103.704375 116.07480469 -103.70703125 115.18164062 C-103.69929688 114.28380859 -103.6915625 113.38597656 -103.68359375 112.4609375 C-103.69132812 111.56697266 -103.6990625 110.67300781 -103.70703125 109.75195312 C-103.69319729 105.09336666 -103.38610534 101.68113629 -101.43359375 97.3984375 C-100.93172241 94.8559904 -100.47755006 92.32873728 -100.05859375 89.7734375 C-97.30604993 74.39853903 -90.12364036 61.78735794 -82.43359375 48.3984375 C-81.77359375 48.3984375 -81.11359375 48.3984375 -80.43359375 48.3984375 C-80.18480469 47.83382812 -79.93601562 47.26921875 -79.6796875 46.6875 C-75.01302365 38.11488239 -66.01547884 30.48986655 -58.43359375 24.3984375 C-57.77359375 24.3984375 -57.11359375 24.3984375 -56.43359375 24.3984375 C-56.43359375 23.7384375 -56.43359375 23.0784375 -56.43359375 22.3984375 C-54.16893629 20.86148997 -51.92099702 19.45783712 -49.55859375 18.0859375 C-48.874021 17.68294434 -48.18944824 17.27995117 -47.48413086 16.86474609 C-37.6712813 11.13914265 -27.97152873 6.03345935 -16.70703125 4.0234375 C-14.28805727 3.46184817 -14.28805727 3.46184817 -11.81860352 1.88427734 C-7.79369635 0.11755646 -4.31222831 -0.03462023 0 0 Z " fill="#E38117" transform="translate(108.43359375,4.6015625)"/>
<path d="M0 0 C7.26 0 14.52 0 22 0 C21.67 4.95 21.34 9.9 21 15 C24.63 15 28.26 15 32 15 C31.505 7.575 31.505 7.575 31 0 C34.62519589 -0.05375085 38.2496019 -0.09355293 41.875 -0.125 C42.90753906 -0.14175781 43.94007813 -0.15851563 45.00390625 -0.17578125 C45.99003906 -0.18222656 46.97617188 -0.18867187 47.9921875 -0.1953125 C49.35899658 -0.21102295 49.35899658 -0.21102295 50.75341797 -0.22705078 C53 0 53 0 55 2 C55.77783203 3.73999023 55.77783203 3.73999023 56.5078125 5.80859375 C56.77207031 6.55560547 57.03632813 7.30261719 57.30859375 8.07226562 C57.57800781 8.85279297 57.84742188 9.63332031 58.125 10.4375 C58.40214844 11.21416016 58.67929688 11.99082031 58.96484375 12.79101562 C61 18.61076047 61 18.61076047 61 22 C61.66 22 62.32 22 63 22 C63.25394531 22.79664062 63.50789063 23.59328125 63.76953125 24.4140625 C65.53259917 29.84193453 67.35608831 34.93250259 70 40 C71.00450336 42.37150141 71.95202942 44.76027823 72.88671875 47.16015625 C73.67761219 49.17762828 74.4956261 51.18456092 75.33203125 53.18359375 C77.99623399 59.70206097 80.21344052 65.8649883 80 73 C79 74 79 74 75.03100586 74.11352539 C73.25894393 74.1133662 71.4868774 74.10766785 69.71484375 74.09765625 C68.78402481 74.0962413 67.85320587 74.09482635 66.8941803 74.09336853 C63.90858809 74.08775172 60.92306971 74.0751964 57.9375 74.0625 C55.91862087 74.05748716 53.89974057 74.05292388 51.88085938 74.04882812 C46.92054428 74.03777683 41.96028468 74.02050095 37 74 C36.505 65.09 36.505 65.09 36 56 C29.73 56 23.46 56 17 56 C17 62.27 17 68.54 17 75 C2.48 75 -12.04 75 -27 75 C-27 64.87557287 -27 64.87557287 -25.171875 60.44140625 C-24.78386719 59.47783203 -24.39585938 58.51425781 -23.99609375 57.52148438 C-23.58488281 56.54501953 -23.17367187 55.56855469 -22.75 54.5625 C-22.35425781 53.58990234 -21.95851563 52.61730469 -21.55078125 51.61523438 C-20.76257916 49.68090891 -19.96791236 47.7492039 -19.16650391 45.8203125 C-17.70580675 42.28871486 -16.2956803 38.73806411 -14.89111328 35.18383789 C-14.02175111 33.05330513 -13.09047223 30.96348569 -12.125 28.875 C-9.91476629 23.99334209 -8.09009581 18.97657745 -6.28173828 13.93505859 C-4.48874337 9.02349411 -2.37532642 4.75065285 0 0 Z " fill="#FEFCFB" transform="translate(92,75)"/>
<path d="M0 0 C1.19424339 -0.00430527 1.19424339 -0.00430527 2.41261292 -0.00869751 C4.08929153 -0.01073053 5.76599428 -0.00525415 7.44262695 0.00732422 C9.99289658 0.02336824 12.54157652 0.00746139 15.09179688 -0.01171875 C16.72786804 -0.00973577 18.36393823 -0.00589095 20 0 C20.75437851 -0.00607269 21.50875702 -0.01214539 22.28599548 -0.0184021 C27.44222628 0.04923784 30.92365914 1.16067995 35.56640625 3.3984375 C37.67880983 3.93039315 39.80484877 4.41126373 41.94140625 4.8359375 C47.60358985 6.09706021 52.42005586 7.75680537 57.56640625 10.3984375 C59.28150391 11.24921875 59.28150391 11.24921875 61.03125 12.1171875 C86.12189466 24.81918503 108.1979091 45.85888974 118.56640625 72.3984375 C118.97117188 73.38585937 119.3759375 74.37328125 119.79296875 75.390625 C122.87707834 83.3443813 124.40039016 90.64546053 125.20703125 99.09765625 C125.44845719 102.39740399 125.44845719 102.39740399 126.56640625 105.3984375 C128.30809176 125.29933591 121.11672391 144.78664188 112.56640625 162.3984375 C112.21578125 163.12804687 111.86515625 163.85765625 111.50390625 164.609375 C109.15830624 169.39830836 106.58118691 174.05708111 104.0078125 178.7265625 C102.77569704 181.01048385 101.62399234 183.30850057 100.50390625 185.6484375 C98.91354006 188.88831572 96.99451447 191.67302312 94.84375 194.5625 C93.463575 196.54623777 92.33132922 198.58058965 91.19140625 200.7109375 C88.91352055 204.91299995 86.28136221 208.73624694 83.50390625 212.62109375 C81.35456952 215.70209862 79.32915519 218.85268079 77.31640625 222.0234375 C73.82734435 227.49011768 70.2659926 232.9040062 66.62890625 238.2734375 C66.15614258 238.98193848 65.68337891 239.69043945 65.19628906 240.42041016 C64.03857836 242.11662028 62.80875808 243.76320517 61.56640625 245.3984375 C60.90640625 245.3984375 60.24640625 245.3984375 59.56640625 245.3984375 C59.30730469 246.12160156 59.04820312 246.84476563 58.78125 247.58984375 C55.1836027 255.90723413 48.33077575 263.02477445 42.72509766 270.11035156 C37.49600846 276.72645257 32.24552883 283.37975363 27.56640625 290.3984375 C26.90640625 290.3984375 26.24640625 290.3984375 25.56640625 290.3984375 C25.32921875 290.95144531 25.09203125 291.50445312 24.84765625 292.07421875 C23.2579778 294.95793424 21.28124558 297.15177155 19.06640625 299.5859375 C18.27234375 300.46636719 17.47828125 301.34679687 16.66015625 302.25390625 C13.99214488 304.98662686 13.09716598 305.33106942 9.2734375 305.81640625 C5.23730546 305.3613313 4.07027846 304.5397026 1.54858398 301.43774414 C1.12134033 300.86789795 0.69409668 300.29805176 0.25390625 299.7109375 C-0.21265381 299.12368896 -0.67921387 298.53644043 -1.15991211 297.93139648 C-2.60502685 296.10212187 -4.01942666 294.25168864 -5.43359375 292.3984375 C-6.29106149 291.30839281 -7.15036569 290.21978962 -8.01171875 289.1328125 C-13.63816779 281.98287726 -18.9303313 274.59817533 -24.17919922 267.16894531 C-25.85492467 264.80375245 -27.54543765 262.44930335 -29.23535156 260.09423828 C-96.08311461 166.86465086 -96.08311461 166.86465086 -101.01171875 128.66796875 C-101.3139797 126.3902776 -101.3139797 126.3902776 -102.44335938 124.54345703 C-103.56408164 122.11577807 -103.69157104 120.47027158 -103.69921875 117.80859375 C-103.70179687 116.94169922 -103.704375 116.07480469 -103.70703125 115.18164062 C-103.69929688 114.28380859 -103.6915625 113.38597656 -103.68359375 112.4609375 C-103.69132812 111.56697266 -103.6990625 110.67300781 -103.70703125 109.75195312 C-103.69319729 105.09336666 -103.38610534 101.68113629 -101.43359375 97.3984375 C-100.93172241 94.8559904 -100.47755006 92.32873728 -100.05859375 89.7734375 C-97.30604993 74.39853903 -90.12364036 61.78735794 -82.43359375 48.3984375 C-81.77359375 48.3984375 -81.11359375 48.3984375 -80.43359375 48.3984375 C-80.18480469 47.83382812 -79.93601562 47.26921875 -79.6796875 46.6875 C-75.01302365 38.11488239 -66.01547884 30.48986655 -58.43359375 24.3984375 C-57.77359375 24.3984375 -57.11359375 24.3984375 -56.43359375 24.3984375 C-56.43359375 23.7384375 -56.43359375 23.0784375 -56.43359375 22.3984375 C-54.16893629 20.86148997 -51.92099702 19.45783712 -49.55859375 18.0859375 C-48.874021 17.68294434 -48.18944824 17.27995117 -47.48413086 16.86474609 C-37.6712813 11.13914265 -27.97152873 6.03345935 -16.70703125 4.0234375 C-14.28805727 3.46184817 -14.28805727 3.46184817 -11.81860352 1.88427734 C-7.79369635 0.11755646 -4.31222831 -0.03462023 0 0 Z M-13.43359375 9.3984375 C-15.75 9.8046875 -15.75 9.8046875 -17.99609375 9.8984375 C-21.80748965 10.20611196 -23.46927929 10.92817545 -26.43359375 13.3984375 C-28.06003154 13.8299414 -29.68686321 14.26006268 -31.31640625 14.6796875 C-35.98071857 16.26314408 -40.19073912 18.93208747 -44.43359375 21.3984375 C-45.19542969 21.83671875 -45.95726562 22.275 -46.7421875 22.7265625 C-50.89558883 25.20761131 -54.07782751 27.87488295 -57.43359375 31.3984375 C-58.71623768 32.53371383 -60.00876616 33.65787665 -61.30859375 34.7734375 C-69.09721789 41.42589133 -69.09721789 41.42589133 -75.43359375 49.3984375 C-75.43359375 50.0584375 -75.43359375 50.7184375 -75.43359375 51.3984375 C-76.91859375 51.8934375 -76.91859375 51.8934375 -78.43359375 52.3984375 C-79.49084628 54.36877176 -80.47794387 56.37687046 -81.43359375 58.3984375 C-82.25228712 59.72011895 -83.08647716 61.03229101 -83.93359375 62.3359375 C-86.1903276 65.89955603 -87.87468177 69.46726816 -89.43359375 73.3984375 C-90.1414665 75.169455 -90.84982244 76.94027942 -91.55859375 78.7109375 C-91.89117187 79.55269531 -92.22375 80.39445312 -92.56640625 81.26171875 C-93.43359375 83.3984375 -93.43359375 83.3984375 -94.43359375 85.3984375 C-94.58917279 87.27114815 -94.70882982 89.14692553 -94.80859375 91.0234375 C-95.08029156 94.78266628 -95.4115331 97.85138164 -96.99609375 101.2734375 C-99.83786538 107.95090088 -99.55551843 116.38963949 -97.05859375 123.0859375 C-96.25421875 124.725625 -96.25421875 124.725625 -95.43359375 126.3984375 C-95.10243237 128.12047668 -94.81486593 129.85117199 -94.55859375 131.5859375 C-93.68508716 136.87751049 -91.95546093 141.38629527 -89.79296875 146.27734375 C-88.36690225 149.55155966 -87.11357963 152.86312834 -85.87109375 156.2109375 C-84.06010247 160.95213517 -82.07499771 165.07614011 -79.43359375 169.3984375 C-76.84850738 174.04201857 -74.27157752 178.68755397 -71.93359375 183.4609375 C-70.07675438 187.09724793 -67.96696319 190.55003246 -65.8359375 194.03125 C-64.59988576 196.11773289 -63.4852636 198.21458718 -62.43359375 200.3984375 C-61.77359375 200.3984375 -61.11359375 200.3984375 -60.43359375 200.3984375 C-60.39234375 201.0584375 -60.35109375 201.7184375 -60.30859375 202.3984375 C-59.23741864 206.07103788 -57.3905781 208.25292399 -55.04296875 211.2265625 C-53.44797819 213.37902549 -52.18886766 215.53461001 -50.93359375 217.8984375 C-48.89234268 221.71755241 -46.54660311 225.08252296 -43.86328125 228.4765625 C-42.43359375 230.3984375 -42.43359375 230.3984375 -41.05078125 232.71875 C-39.10060809 235.95019635 -36.90328905 238.97535933 -34.68359375 242.0234375 C-31.54784037 246.36393226 -28.52536673 250.73167532 -25.68359375 255.2734375 C-22.81881046 259.84645583 -19.74643129 264.14225832 -16.43359375 268.3984375 C-15.15310422 270.04515757 -13.87382042 271.69277683 -12.59692383 273.34228516 C-11.71682927 274.47831179 -10.833985 275.61221518 -9.94799805 276.74365234 C-8.04596017 279.19440521 -6.31374559 281.60544796 -4.7578125 284.29296875 C-4.32082031 284.98777344 -3.88382812 285.68257813 -3.43359375 286.3984375 C-2.77359375 286.3984375 -2.11359375 286.3984375 -1.43359375 286.3984375 C-1.37171875 286.9553125 -1.30984375 287.5121875 -1.24609375 288.0859375 C-0.10211166 291.34188654 2.11517561 293.0055695 4.56640625 295.3984375 C5.61928439 297.03221392 6.63910635 298.69025347 7.56640625 300.3984375 C11.38885275 299.85959042 12.80164643 298.34615886 15.19140625 295.3984375 C18.39117966 291.48605079 18.39117966 291.48605079 20.56640625 290.3984375 C21.21609375 289.315625 21.21609375 289.315625 21.87890625 288.2109375 C23.45936854 285.57683368 25.2356634 283.34431665 27.234375 281.01953125 C28.67378885 279.26775193 29.96237755 277.44893907 31.25390625 275.5859375 C33.56640625 272.3984375 33.56640625 272.3984375 35.56640625 271.3984375 C36.57089255 269.73447084 37.56974692 268.06710402 38.56640625 266.3984375 C40.31928696 264.03832656 42.16183457 261.75181379 44.00390625 259.4609375 C47.40845154 255.2201881 50.57010751 250.94454594 53.56640625 246.3984375 C54.41203125 245.3878125 55.25765625 244.3771875 56.12890625 243.3359375 C58.78119926 240.13958439 61.15422065 237.25327271 62.06640625 233.1484375 C62.23140625 232.5709375 62.39640625 231.9934375 62.56640625 231.3984375 C63.55640625 231.0684375 64.54640625 230.7384375 65.56640625 230.3984375 C66.81641974 228.57776948 66.81641974 228.57776948 67.87890625 226.3359375 C69.97860269 222.34587992 72.3437086 218.8530929 75.13671875 215.3203125 C76.78879133 213.09949362 78.16233401 210.783583 79.56640625 208.3984375 C80.74659514 206.49804426 81.93424641 204.60226723 83.12890625 202.7109375 C83.72832031 201.75832031 84.32773438 200.80570313 84.9453125 199.82421875 C86.56640625 197.3984375 86.56640625 197.3984375 88.56640625 195.3984375 C89.26298988 193.74405137 89.92737508 192.07589432 90.56640625 190.3984375 C91.54877001 188.17174632 92.30539069 186.64857741 94.06640625 184.9609375 C95.96419466 182.98407457 96.58991355 180.93731851 97.56640625 178.3984375 C98.22640625 177.7384375 98.88640625 177.0784375 99.56640625 176.3984375 C100.24987307 174.73858952 100.9122894 173.07006945 101.56640625 171.3984375 C102.20131684 170.10136695 102.84811821 168.81007868 103.50390625 167.5234375 C104.84476996 164.89155631 106.06999214 162.25581706 107.19140625 159.5234375 C108.56640625 156.3984375 108.56640625 156.3984375 110.56640625 154.3984375 C111.24579799 152.40272427 111.91202184 150.40248977 112.56640625 148.3984375 C113.22640625 147.4084375 113.88640625 146.4184375 114.56640625 145.3984375 C115.29259525 142.73574448 115.94306662 140.08524625 116.56640625 137.3984375 C117.06324607 135.39765011 117.56343327 133.39769191 118.06640625 131.3984375 C118.32035156 130.36847656 118.57429687 129.33851563 118.8359375 128.27734375 C119.26397153 126.59038612 119.71105837 124.90768522 120.203125 123.23828125 C121.82824444 117.62528008 121.75877979 112.21239344 121.56640625 106.3984375 C120.90640625 106.3984375 120.24640625 106.3984375 119.56640625 106.3984375 C119.49123779 105.46777466 119.49123779 105.46777466 119.41455078 104.51831055 C119.1824212 101.7067002 118.93706932 98.89639632 118.69140625 96.0859375 C118.61277344 95.10947266 118.53414062 94.13300781 118.453125 93.12695312 C118.36933594 92.18916016 118.28554687 91.25136719 118.19921875 90.28515625 C118.12590332 89.42108154 118.05258789 88.55700684 117.97705078 87.66674805 C117.67247167 85.12679513 117.67247167 85.12679513 115.56640625 82.3984375 C114.98469923 80.35842329 114.56190707 78.31436553 114.12890625 76.23828125 C113.65531518 74.17436636 113.65531518 74.17436636 111.56640625 72.3984375 C110.88963871 70.40183285 110.22432665 68.4013317 109.56640625 66.3984375 C104.05407762 55.06843259 95.79074401 44.94590406 86.56640625 36.3984375 C85.90640625 36.3984375 85.24640625 36.3984375 84.56640625 36.3984375 C84.23640625 35.4084375 83.90640625 34.4184375 83.56640625 33.3984375 C78.01891468 28.72433993 71.90504122 24.89115473 65.56640625 21.3984375 C64.86515625 20.8621875 64.16390625 20.3259375 63.44140625 19.7734375 C61.26470022 18.17718641 59.0780854 17.36446794 56.56640625 16.3984375 C55.57640625 15.7384375 54.58640625 15.0784375 53.56640625 14.3984375 C51.57069302 13.71904576 49.57045852 13.05282191 47.56640625 12.3984375 C46.95667969 12.0684375 46.34695312 11.7384375 45.71875 11.3984375 C43.16876804 10.21369089 40.84203511 9.82545732 38.06640625 9.3984375 C32.8984351 8.60336501 32.8984351 8.60336501 30.91967773 7.38208008 C27.4368262 5.92628499 23.97333191 6.09327545 20.2578125 6.09765625 C19.454077 6.09337112 18.65034149 6.089086 17.82225037 6.08467102 C16.12524353 6.07893758 14.42821213 6.0784202 12.73120117 6.08276367 C10.14133581 6.08592234 7.55261474 6.06245781 4.96289062 6.03710938 C3.31119935 6.03483607 1.65950502 6.03413303 0.0078125 6.03515625 C-0.76316269 6.0259465 -1.53413788 6.01673676 -2.32847595 6.00724792 C-6.932847 6.04667126 -9.68636377 6.73882028 -13.43359375 9.3984375 Z " fill="#A5A29F" transform="translate(108.43359375,4.6015625)"/>
<path d="M0 0 C1.1859375 0.00257812 2.371875 0.00515625 3.59375 0.0078125 C4.7796875 0.00523438 5.965625 0.00265625 7.1875 0 C10.09375 0.1328125 10.09375 0.1328125 11.09375 1.1328125 C12.25287401 8.08755654 12.18384009 15.10578513 12.09375 22.1328125 C6.48375 22.1328125 0.87375 22.1328125 -4.90625 22.1328125 C-4.99634009 15.10578513 -5.06537401 8.08755654 -3.90625 1.1328125 C-2.90625 0.1328125 -2.90625 0.1328125 0 0 Z " fill="#DD7E19" transform="translate(114.90625,96.8671875)"/>
<path d="M0 0 C12.21 0 24.42 0 37 0 C36.67 1.32 36.34 2.64 36 4 C34.20755859 3.76990234 34.20755859 3.76990234 32.37890625 3.53515625 C25.91465936 2.8169066 19.43450118 2.64819488 12.9375 2.4375 C11.06674805 2.37272461 11.06674805 2.37272461 9.15820312 2.30664062 C6.10555909 2.20137704 3.05284477 2.09924059 0 2 C0 1.34 0 0.68 0 0 Z " fill="#D28634" transform="translate(100,11)"/>
<path d="M0 0 C0.66 0 1.32 0 2 0 C1.42389687 5.54955043 -0.02098548 10.26029497 -2.0625 15.4375 C-2.34416016 16.16904297 -2.62582031 16.90058594 -2.91601562 17.65429688 C-3.60413247 19.43873546 -4.30114606 21.21973905 -5 23 C-5.66 23 -6.32 23 -7 23 C-6.505 18.545 -6.505 18.545 -6 14 C-5.34 14 -4.68 14 -4 14 C-3.896875 13.360625 -3.79375 12.72125 -3.6875 12.0625 C-2.76096927 7.93522674 -1.38339371 3.99357051 0 0 Z " fill="#D67D1E" transform="translate(69,124)"/>
<path d="M0 0 C0.33 0 0.66 0 1 0 C1.33 1.98 1.66 3.96 2 6 C2.33 6 2.66 6 3 6 C3.56229448 16.72524662 3.56229448 16.72524662 0 21 C-0.33 21 -0.66 21 -1 21 C-1.12109311 13.92278069 -0.85373239 7.02804699 0 0 Z " fill="#E79B48" transform="translate(111,98)"/>
<path d="M0 0 C0.33 0 0.66 0 1 0 C1.85373239 7.02804699 2.12109311 13.92278069 2 21 C-1 19 -1 19 -1.6875 17.375 C-2.14471421 13.900172 -2.05840231 10.50413832 -2 7 C-1.67 7 -1.34 7 -1 7 C-0.67 4.69 -0.34 2.38 0 0 Z " fill="#E6943C" transform="translate(125,98)"/>
<path d="M0 0 C0.33 1.32 0.66 2.64 1 4 C1.66 4 2.32 4 3 4 C3.22262303 10.7281627 2.95021536 16.53991163 1 23 C0.67 23 0.34 23 0 23 C0 15.41 0 7.82 0 0 Z " fill="#DB903F" transform="translate(227,107)"/>
<path d="M0 0 C0.33 0 0.66 0 1 0 C1.24809955 2.6244748 1.4741699 5.24767145 1.6875 7.875 C1.79674805 8.99455078 1.79674805 8.99455078 1.90820312 10.13671875 C2.07421875 12.3046875 2.07421875 12.3046875 2 16 C1.01 16.66 0.02 17.32 -1 18 C-1.02690844 15.37493198 -1.04679404 12.75013827 -1.0625 10.125 C-1.07087891 9.37863281 -1.07925781 8.63226563 -1.08789062 7.86328125 C-1.11328125 2.2265625 -1.11328125 2.2265625 0 0 Z " fill="#CC7314" transform="translate(224,91)"/>
<path d="M0 0 C8.58 0 17.16 0 26 0 C24 2 24 2 20.91796875 2.16015625 C19.68691406 2.12792969 18.45585938 2.09570312 17.1875 2.0625 C12.17547457 1.9283749 12.17547457 1.9283749 7.2265625 2.5546875 C4.2900847 3.14198306 2.64328046 2.28387908 0 1 C0 0.67 0 0.34 0 0 Z " fill="#CA7214" transform="translate(100,13)"/>
<path d="M0 0 C0.33 0 0.66 0 1 0 C1 3.63 1 7.26 1 11 C2.98 10.67 4.96 10.34 7 10 C7.33 6.7 7.66 3.4 8 0 C8.33 0 8.66 0 9 0 C9.33 3.96 9.66 7.92 10 12 C6.7 12 3.4 12 0 12 C0 8.04 0 4.08 0 0 Z " fill="#BB6A12" transform="translate(114,77)"/>
<path d="M0 0 C0.33 0.99 0.66 1.98 1 3 C0.34 3.66 -0.32 4.32 -1 5 C-1.46006346 7.20250992 -1.46006346 7.20250992 -1.625 9.625 C-1.69976563 10.44226563 -1.77453125 11.25953125 -1.8515625 12.1015625 C-1.90054687 12.72804688 -1.94953125 13.35453125 -2 14 C-3.32 14.33 -4.64 14.66 -6 15 C-5.57388649 13.24719267 -5.13360733 11.49782565 -4.6875 9.75 C-4.44386719 8.77546875 -4.20023438 7.8009375 -3.94921875 6.796875 C-3.00347644 4.01024335 -1.89291287 2.22695632 0 0 Z " fill="#E08A2D" transform="translate(21,75)"/>
<path d="M0 0 C1.8871875 0.061875 1.8871875 0.061875 3.8125 0.125 C3.8125 0.455 3.8125 0.785 3.8125 1.125 C2.69875 1.228125 1.585 1.33125 0.4375 1.4375 C-0.75875 1.664375 -1.955 1.89125 -3.1875 2.125 C-4.1775 3.61 -4.1775 3.61 -5.1875 5.125 C-7.5703125 5.63671875 -7.5703125 5.63671875 -10.3125 5.8125 C-11.22257812 5.87824219 -12.13265625 5.94398437 -13.0703125 6.01171875 C-14.11832031 6.06779297 -14.11832031 6.06779297 -15.1875 6.125 C-14.8575 5.465 -14.5275 4.805 -14.1875 4.125 C-11.86078146 3.43560191 -9.52682406 2.77033078 -7.1875 2.125 C-4.09861478 0.06574319 -3.47814073 -0.1140374 0 0 Z " fill="#DF8A30" transform="translate(90.1875,14.875)"/>
<path d="M0 0 C0.99 0.33 1.98 0.66 3 1 C3.125 8.75 3.125 8.75 2 11 C1.34 11 0.68 11 0 11 C0 7.37 0 3.74 0 0 Z " fill="#CB7314" transform="translate(223,126)"/>
<path d="M0 0 C0.66 0 1.32 0 2 0 C1.67 2.64 1.34 5.28 1 8 C0.01 8.33 -0.98 8.66 -2 9 C-1.34 6.03 -0.68 3.06 0 0 Z " fill="#D8852C" transform="translate(75,109)"/>
<path d="M0 0 C1.98 0 3.96 0 6 0 C6 0.99 6 1.98 6 3 C3.69 3 1.38 3 -1 3 C-0.67 2.01 -0.34 1.02 0 0 Z " fill="#CB7314" transform="translate(146,16)"/>
<path d="M0 0 C0.99 0.33 1.98 0.66 3 1 C1.6875 3.5 1.6875 3.5 0 6 C-0.99 6 -1.98 6 -3 6 C-2.42655063 3.13275314 -2.1385485 2.1385485 0 0 Z " fill="#D77B18" transform="translate(44,42)"/>
<path d="M0 0 C0.33 0 0.66 0 1 0 C1.33 2.31 1.66 4.62 2 7 C1.01 7.33 0.02 7.66 -1 8 C-1.04241723 5.66705225 -1.04092937 3.33297433 -1 1 C-0.67 0.67 -0.34 0.34 0 0 Z " fill="#CB7314" transform="translate(20,79)"/>
</svg>
