<?xml version="1.0" encoding="UTF-8"?>
<svg version="1.1" xmlns="http://www.w3.org/2000/svg" width="240" height="315">
<path d="M0 0 C1.19424339 -0.00430527 1.19424339 -0.00430527 2.41261292 -0.00869751 C4.08929153 -0.01073053 5.76599428 -0.00525415 7.44262695 0.00732422 C9.99289658 0.02336824 12.54157652 0.00746139 15.09179688 -0.01171875 C16.72786804 -0.00973577 18.36393823 -0.00589095 20 0 C20.75437851 -0.00607269 21.50875702 -0.01214539 22.28599548 -0.0184021 C27.44222628 0.04923784 30.92365914 1.16067995 35.56640625 3.3984375 C37.67880983 3.93039315 39.80484877 4.41126373 41.94140625 4.8359375 C47.60358985 6.09706021 52.42005586 7.75680537 57.56640625 10.3984375 C59.28150391 11.24921875 59.28150391 11.24921875 61.03125 12.1171875 C86.12189466 24.81918503 108.1979091 45.85888974 118.56640625 72.3984375 C118.97117188 73.38585937 119.3759375 74.37328125 119.79296875 75.390625 C122.87707834 83.3443813 124.40039016 90.64546053 125.20703125 99.09765625 C125.44845719 102.39740399 125.44845719 102.39740399 126.56640625 105.3984375 C128.30809176 125.29933591 121.11672391 144.78664188 112.56640625 162.3984375 C112.21578125 163.12804687 111.86515625 163.85765625 111.50390625 164.609375 C109.15830624 169.39830836 106.58118691 174.05708111 104.0078125 178.7265625 C102.77569704 181.01048385 101.62399234 183.30850057 100.50390625 185.6484375 C98.91354006 188.88831572 96.99451447 191.67302312 94.84375 194.5625 C93.463575 196.54623777 92.33132922 198.58058965 91.19140625 200.7109375 C88.91352055 204.91299995 86.28136221 208.73624694 83.50390625 212.62109375 C81.35456952 215.70209862 79.32915519 218.85268079 77.31640625 222.0234375 C73.82734435 227.49011768 70.2659926 232.9040062 66.62890625 238.2734375 C66.15614258 238.98193848 65.68337891 239.69043945 65.19628906 240.42041016 C64.03857836 242.11662028 62.80875808 243.76320517 61.56640625 245.3984375 C60.90640625 245.3984375 60.24640625 245.3984375 59.56640625 245.3984375 C59.30730469 246.12160156 59.04820312 246.84476563 58.78125 247.58984375 C55.1836027 255.90723413 48.33077575 263.02477445 42.72509766 270.11035156 C37.49600846 276.72645257 32.24552883 283.37975363 27.56640625 290.3984375 C26.90640625 290.3984375 26.24640625 290.3984375 25.56640625 290.3984375 C25.32921875 290.95144531 25.09203125 291.50445312 24.84765625 292.07421875 C23.2579778 294.95793424 21.28124558 297.15177155 19.06640625 299.5859375 C18.27234375 300.46636719 17.47828125 301.34679687 16.66015625 302.25390625 C13.99214488 304.98662686 13.09716598 305.33106942 9.2734375 305.81640625 C5.23730546 305.3613313 4.07027846 304.5397026 1.54858398 301.43774414 C1.12134033 300.86789795 0.69409668 300.29805176 0.25390625 299.7109375 C-0.21265381 299.12368896 -0.67921387 298.53644043 -1.15991211 297.93139648 C-2.60502685 296.10212187 -4.01942666 294.25168864 -5.43359375 292.3984375 C-6.29106149 291.30839281 -7.15036569 290.21978962 -8.01171875 289.1328125 C-13.63816779 281.98287726 -18.9303313 274.59817533 -24.17919922 267.16894531 C-25.85492467 264.80375245 -27.54543765 262.44930335 -29.23535156 260.09423828 C-96.08311461 166.86465086 -96.08311461 166.86465086 -101.01171875 128.66796875 C-101.3139797 126.3902776 -101.3139797 126.3902776 -102.44335938 124.54345703 C-103.56408164 122.11577807 -103.69157104 120.47027158 -103.69921875 117.80859375 C-103.70179687 116.94169922 -103.704375 116.07480469 -103.70703125 115.18164062 C-103.69929688 114.28380859 -103.6915625 113.38597656 -103.68359375 112.4609375 C-103.69132812 111.56697266 -103.6990625 110.67300781 -103.70703125 109.75195312 C-103.69319729 105.09336666 -103.38610534 101.68113629 -101.43359375 97.3984375 C-100.93172241 94.8559904 -100.47755006 92.32873728 -100.05859375 89.7734375 C-97.30604993 74.39853903 -90.12364036 61.78735794 -82.43359375 48.3984375 C-81.77359375 48.3984375 -81.11359375 48.3984375 -80.43359375 48.3984375 C-80.18480469 47.83382812 -79.93601562 47.26921875 -79.6796875 46.6875 C-75.01302365 38.11488239 -66.01547884 30.48986655 -58.43359375 24.3984375 C-57.77359375 24.3984375 -57.11359375 24.3984375 -56.43359375 24.3984375 C-56.43359375 23.7384375 -56.43359375 23.0784375 -56.43359375 22.3984375 C-54.16893629 20.86148997 -51.92099702 19.45783712 -49.55859375 18.0859375 C-48.874021 17.68294434 -48.18944824 17.27995117 -47.48413086 16.86474609 C-37.6712813 11.13914265 -27.97152873 6.03345935 -16.70703125 4.0234375 C-14.28805727 3.46184817 -14.28805727 3.46184817 -11.81860352 1.88427734 C-7.79369635 0.11755646 -4.31222831 -0.03462023 0 0 Z " fill="#15CCE6" transform="translate(108.43359375,4.6015625)"/>
<path d="M0 0 C7.26 0 14.52 0 22 0 C21.67 4.95 21.34 9.9 21 15 C24.63 15 28.26 15 32 15 C31.505 7.575 31.505 7.575 31 0 C38.26 0 45.52 0 53 0 C55 4 55 4 55 7 C55.66 7 56.32 7 57 7 C57.67220351 8.93558599 58.33758077 10.87354372 59 12.8125 C59.37125 13.89144531 59.7425 14.97039062 60.125 16.08203125 C61 19 61 19 61 22 C61.66 22 62.32 22 63 22 C63.67220351 23.93558599 64.33758077 25.87354372 65 27.8125 C65.37125 28.89144531 65.7425 29.97039062 66.125 31.08203125 C67 34 67 34 67 37 C67.66 37 68.32 37 69 37 C69.25394531 37.79664063 69.50789063 38.59328125 69.76953125 39.4140625 C71.53466956 44.84830853 73.39953256 49.90741793 76 55 C78.54475856 61.05189853 80.71953269 66.38029922 80 73 C79 74 79 74 75.03100586 74.11352539 C73.25894393 74.1133662 71.4868774 74.10766785 69.71484375 74.09765625 C68.78402481 74.0962413 67.85320587 74.09482635 66.8941803 74.09336853 C63.90858809 74.08775172 60.92306971 74.0751964 57.9375 74.0625 C55.91862087 74.05748716 53.89974057 74.05292388 51.88085938 74.04882812 C46.92054428 74.03777683 41.96028468 74.02050095 37 74 C36.505 65.09 36.505 65.09 36 56 C29.73 56 23.46 56 17 56 C17 62.27 17 68.54 17 75 C11.05498423 75.04584845 5.11057889 75.08569247 -0.83447266 75.10986328 C-2.85793127 75.11993671 -4.88137528 75.13359595 -6.90478516 75.15087891 C-9.80895589 75.17506847 -12.71293461 75.18646949 -15.6171875 75.1953125 C-16.97975174 75.21079636 -16.97975174 75.21079636 -18.36984253 75.22659302 C-19.21056305 75.22674408 -20.05128357 75.22689514 -20.91748047 75.22705078 C-21.65916473 75.231492 -22.400849 75.23593323 -23.16500854 75.24050903 C-25 75 -25 75 -27 73 C-27.79437553 66.51687066 -25.5797375 61.39086163 -23.1875 55.4375 C-22.83107422 54.51775391 -22.47464844 53.59800781 -22.10742188 52.65039062 C-20.27429972 47.97172471 -18.25541805 43.49177623 -16 39 C-15.17569988 36.80363903 -14.38519579 34.59436355 -13.625 32.375 C-9.72326298 21.2754317 -4.97964495 10.65412407 0 0 Z " fill="#FBFEFE" transform="translate(92,75)"/>
<path d="M0 0 C1.19424339 -0.00430527 1.19424339 -0.00430527 2.41261292 -0.00869751 C4.08929153 -0.01073053 5.76599428 -0.00525415 7.44262695 0.00732422 C9.99289658 0.02336824 12.54157652 0.00746139 15.09179688 -0.01171875 C16.72786804 -0.00973577 18.36393823 -0.00589095 20 0 C20.75437851 -0.00607269 21.50875702 -0.01214539 22.28599548 -0.0184021 C27.44222628 0.04923784 30.92365914 1.16067995 35.56640625 3.3984375 C37.67880983 3.93039315 39.80484877 4.41126373 41.94140625 4.8359375 C47.60358985 6.09706021 52.42005586 7.75680537 57.56640625 10.3984375 C59.28150391 11.24921875 59.28150391 11.24921875 61.03125 12.1171875 C86.12189466 24.81918503 108.1979091 45.85888974 118.56640625 72.3984375 C118.97117188 73.38585937 119.3759375 74.37328125 119.79296875 75.390625 C122.87707834 83.3443813 124.40039016 90.64546053 125.20703125 99.09765625 C125.44845719 102.39740399 125.44845719 102.39740399 126.56640625 105.3984375 C128.30809176 125.29933591 121.11672391 144.78664188 112.56640625 162.3984375 C112.21578125 163.12804687 111.86515625 163.85765625 111.50390625 164.609375 C109.15830624 169.39830836 106.58118691 174.05708111 104.0078125 178.7265625 C102.77569704 181.01048385 101.62399234 183.30850057 100.50390625 185.6484375 C98.91354006 188.88831572 96.99451447 191.67302312 94.84375 194.5625 C93.463575 196.54623777 92.33132922 198.58058965 91.19140625 200.7109375 C88.91352055 204.91299995 86.28136221 208.73624694 83.50390625 212.62109375 C81.35456952 215.70209862 79.32915519 218.85268079 77.31640625 222.0234375 C73.82734435 227.49011768 70.2659926 232.9040062 66.62890625 238.2734375 C66.15614258 238.98193848 65.68337891 239.69043945 65.19628906 240.42041016 C64.03857836 242.11662028 62.80875808 243.76320517 61.56640625 245.3984375 C60.90640625 245.3984375 60.24640625 245.3984375 59.56640625 245.3984375 C59.30730469 246.12160156 59.04820312 246.84476563 58.78125 247.58984375 C55.1836027 255.90723413 48.33077575 263.02477445 42.72509766 270.11035156 C37.49600846 276.72645257 32.24552883 283.37975363 27.56640625 290.3984375 C26.90640625 290.3984375 26.24640625 290.3984375 25.56640625 290.3984375 C25.32921875 290.95144531 25.09203125 291.50445312 24.84765625 292.07421875 C23.2579778 294.95793424 21.28124558 297.15177155 19.06640625 299.5859375 C18.27234375 300.46636719 17.47828125 301.34679687 16.66015625 302.25390625 C13.99214488 304.98662686 13.09716598 305.33106942 9.2734375 305.81640625 C5.23730546 305.3613313 4.07027846 304.5397026 1.54858398 301.43774414 C1.12134033 300.86789795 0.69409668 300.29805176 0.25390625 299.7109375 C-0.21265381 299.12368896 -0.67921387 298.53644043 -1.15991211 297.93139648 C-2.60502685 296.10212187 -4.01942666 294.25168864 -5.43359375 292.3984375 C-6.29106149 291.30839281 -7.15036569 290.21978962 -8.01171875 289.1328125 C-13.63816779 281.98287726 -18.9303313 274.59817533 -24.17919922 267.16894531 C-25.85492467 264.80375245 -27.54543765 262.44930335 -29.23535156 260.09423828 C-96.08311461 166.86465086 -96.08311461 166.86465086 -101.01171875 128.66796875 C-101.3139797 126.3902776 -101.3139797 126.3902776 -102.44335938 124.54345703 C-103.56408164 122.11577807 -103.69157104 120.47027158 -103.69921875 117.80859375 C-103.70179687 116.94169922 -103.704375 116.07480469 -103.70703125 115.18164062 C-103.69929688 114.28380859 -103.6915625 113.38597656 -103.68359375 112.4609375 C-103.69132812 111.56697266 -103.6990625 110.67300781 -103.70703125 109.75195312 C-103.69319729 105.09336666 -103.38610534 101.68113629 -101.43359375 97.3984375 C-100.93172241 94.8559904 -100.47755006 92.32873728 -100.05859375 89.7734375 C-97.30604993 74.39853903 -90.12364036 61.78735794 -82.43359375 48.3984375 C-81.77359375 48.3984375 -81.11359375 48.3984375 -80.43359375 48.3984375 C-80.18480469 47.83382812 -79.93601562 47.26921875 -79.6796875 46.6875 C-75.01302365 38.11488239 -66.01547884 30.48986655 -58.43359375 24.3984375 C-57.77359375 24.3984375 -57.11359375 24.3984375 -56.43359375 24.3984375 C-56.43359375 23.7384375 -56.43359375 23.0784375 -56.43359375 22.3984375 C-54.16893629 20.86148997 -51.92099702 19.45783712 -49.55859375 18.0859375 C-48.874021 17.68294434 -48.18944824 17.27995117 -47.48413086 16.86474609 C-37.6712813 11.13914265 -27.97152873 6.03345935 -16.70703125 4.0234375 C-14.28805727 3.46184817 -14.28805727 3.46184817 -11.81860352 1.88427734 C-7.79369635 0.11755646 -4.31222831 -0.03462023 0 0 Z M-13.43359375 9.3984375 C-15.7421875 9.8046875 -15.7421875 9.8046875 -17.87109375 9.8984375 C-26.24822394 10.63718609 -33.23403779 15.34340728 -40.43359375 19.3984375 C-41.53574219 20.0171875 -42.63789062 20.6359375 -43.7734375 21.2734375 C-44.85753906 21.8921875 -45.94164062 22.5109375 -47.05859375 23.1484375 C-48.06148437 23.72078125 -49.064375 24.293125 -50.09765625 24.8828125 C-52.53868219 26.18618901 -52.53868219 26.18618901 -53.43359375 28.3984375 C-54.42359375 28.7284375 -55.41359375 29.0584375 -56.43359375 29.3984375 C-58.14279236 31.02145803 -59.80301569 32.69644727 -61.43359375 34.3984375 C-62.39494987 35.34340501 -63.35985418 36.28477523 -64.328125 37.22265625 C-65.30080571 38.1770584 -66.27346183 39.13148562 -67.24609375 40.0859375 C-67.74818359 40.57126953 -68.25027344 41.05660156 -68.76757812 41.55664062 C-70.02776648 42.79968356 -71.23550419 44.09543642 -72.43359375 45.3984375 C-72.43359375 46.0584375 -72.43359375 46.7184375 -72.43359375 47.3984375 C-73.91859375 47.8934375 -73.91859375 47.8934375 -75.43359375 48.3984375 C-75.43359375 49.3884375 -75.43359375 50.3784375 -75.43359375 51.3984375 C-76.91859375 51.8934375 -76.91859375 51.8934375 -78.43359375 52.3984375 C-79.48368028 54.37260018 -80.48347251 56.37426616 -81.43359375 58.3984375 C-82.09359375 59.0584375 -82.75359375 59.7184375 -83.43359375 60.3984375 C-84.12399949 62.05541129 -84.78665725 63.7240136 -85.43359375 65.3984375 C-86.9553593 68.56878239 -88.48123881 71.46990509 -90.43359375 74.3984375 C-90.99480226 75.9048393 -91.51358347 77.42751479 -91.99609375 78.9609375 C-92.70977968 81.21293093 -93.37681727 83.28488454 -94.43359375 85.3984375 C-94.58917279 87.27114815 -94.70882982 89.14692553 -94.80859375 91.0234375 C-95.08029156 94.78266628 -95.4115331 97.85138164 -96.99609375 101.2734375 C-99.83786538 107.95090088 -99.55551843 116.38963949 -97.05859375 123.0859375 C-96.25421875 124.725625 -96.25421875 124.725625 -95.43359375 126.3984375 C-94.84143881 129.23836425 -94.38181416 132.07533453 -93.9609375 134.9453125 C-93.5392716 137.63798265 -93.5392716 137.63798265 -91.43359375 140.3984375 C-91.21703125 142.1 -91.21703125 142.1 -90.99609375 143.8359375 C-90.73833555 147.29393989 -90.73833555 147.29393989 -89.05859375 149.20703125 C-87.00181975 151.98070965 -86.03900717 154.77964034 -84.87109375 158.0234375 C-83.31896686 162.63127717 -83.31896686 162.63127717 -80.43359375 166.3984375 C-79.73468228 168.06251243 -79.03777429 169.72748515 -78.35546875 171.3984375 C-77.04253301 174.24684047 -75.35306971 176.79972282 -73.6171875 179.40625 C-72.27718096 181.66170656 -71.39730535 183.9597322 -70.43359375 186.3984375 C-65.53569902 196.27006279 -65.53569902 196.27006279 -59.43359375 205.3984375 C-58.77359375 205.3984375 -58.11359375 205.3984375 -57.43359375 205.3984375 C-57.20671875 206.2440625 -56.97984375 207.0896875 -56.74609375 207.9609375 C-55.44644619 211.36477635 -53.9383967 213.72914964 -51.75 216.58984375 C-50.15708426 218.77833036 -48.81013377 221.06810198 -47.43359375 223.3984375 C-43.29400554 230.12657834 -38.90852137 236.59764287 -34.22265625 242.95703125 C-31.53904418 246.61916563 -29.04466333 250.3173144 -26.80859375 254.2734375 C-26.35484375 254.9746875 -25.90109375 255.6759375 -25.43359375 256.3984375 C-24.77359375 256.3984375 -24.11359375 256.3984375 -23.43359375 256.3984375 C-23.31886719 256.98753906 -23.20414062 257.57664062 -23.0859375 258.18359375 C-22.38292745 260.57046021 -21.52706867 261.8886068 -19.99609375 263.8359375 C-19.465 264.52171875 -18.93390625 265.2075 -18.38671875 265.9140625 C-17.7421875 266.73390625 -17.09765625 267.55375 -16.43359375 268.3984375 C-15.14733792 270.04923604 -13.86417879 271.70235066 -12.58374023 273.35766602 C-11.70875393 274.4881694 -10.83077587 275.61636513 -9.94946289 276.74194336 C-8.06241233 279.17311507 -6.32630291 281.57975652 -4.7578125 284.23046875 C-3.61803116 286.52712895 -3.61803116 286.52712895 -1.43359375 287.3984375 C-0.93859375 288.8834375 -0.93859375 288.8834375 -0.43359375 290.3984375 C0.35015625 291.1821875 1.13390625 291.9659375 1.94140625 292.7734375 C4.36852872 295.20055997 5.93949442 297.40149466 7.56640625 300.3984375 C11.71121082 299.90030906 13.34956495 297.78850133 16.00390625 294.7109375 C16.79667969 293.79699219 17.58945313 292.88304687 18.40625 291.94140625 C19.11910156 291.10222656 19.83195312 290.26304687 20.56640625 289.3984375 C21.39140625 288.4496875 22.21640625 287.5009375 23.06640625 286.5234375 C26.15291057 282.76958089 28.98117902 278.81265257 31.875 274.91015625 C33.86555054 272.27365029 35.93320024 269.71324547 38.0390625 267.16796875 C38.63267578 266.4497998 39.22628906 265.73163086 39.83789062 264.99169922 C41.01901409 263.57003616 42.20639832 262.15354816 43.40039062 260.74267578 C43.94115234 260.09153809 44.48191406 259.44040039 45.0390625 258.76953125 C45.52640869 258.19130615 46.01375488 257.61308105 46.51586914 257.01733398 C47.83858242 255.30065657 47.83858242 255.30065657 47.56640625 252.3984375 C48.55640625 252.0684375 49.54640625 251.7384375 50.56640625 251.3984375 C51.93460106 249.71635818 51.93460106 249.71635818 53.19140625 247.5859375 C56.38265502 242.58711424 59.91089584 237.9020055 63.515625 233.1953125 C65.37180807 230.66383235 66.98997791 228.1093475 68.56640625 225.3984375 C70.50114702 222.46512085 72.4619019 219.55171054 74.44140625 216.6484375 C76.17905056 213.99086385 77.8215854 211.31516689 79.44140625 208.5859375 C82.69619115 203.12020023 86.15788998 197.80306852 89.83203125 192.609375 C92.13426903 189.3429038 92.13426903 189.3429038 92.56640625 185.3984375 C93.22640625 185.3984375 93.88640625 185.3984375 94.56640625 185.3984375 C94.93765625 184.4496875 95.30890625 183.5009375 95.69140625 182.5234375 C97.45336597 178.37566629 99.77190513 174.63853343 102.1640625 170.828125 C103.56308433 168.40419302 104.56316509 166.00686452 105.56640625 163.3984375 C106.1958779 162.09871872 106.84109293 160.80647373 107.50390625 159.5234375 C110.4569884 153.67195991 112.85572263 147.76066846 114.8203125 141.51171875 C115.56640625 139.3984375 115.56640625 139.3984375 116.55859375 137.63671875 C118.05140818 134.32128205 118.52693718 130.83429159 119.12890625 127.2734375 C120.44647382 119.63830236 120.44647382 119.63830236 121.56640625 117.3984375 C121.77871255 113.22308034 121.80472702 110.20755121 120.6171875 106.17578125 C119.25099417 101.26459556 118.82265503 96.42446598 118.35546875 91.36328125 C117.97422347 87.66257274 117.66706229 85.54942156 115.56640625 82.3984375 C114.98469923 80.35842329 114.56190707 78.31436553 114.12890625 76.23828125 C113.65531518 74.17436636 113.65531518 74.17436636 111.56640625 72.3984375 C110.89049146 70.401544 110.22504721 68.40109487 109.56640625 66.3984375 C106.10139189 59.36738796 101.74400934 53.06314212 96.94140625 46.8984375 C96.25896851 46.01768555 96.25896851 46.01768555 95.56274414 45.11914062 C92.86415076 41.73673414 90.14903605 38.89282822 86.56640625 36.3984375 C85.90640625 36.3984375 85.24640625 36.3984375 84.56640625 36.3984375 C84.23640625 35.4084375 83.90640625 34.4184375 83.56640625 33.3984375 C82.00913766 31.95646124 82.00913766 31.95646124 80.12890625 30.7109375 C79.20271484 30.05544922 79.20271484 30.05544922 78.2578125 29.38671875 C76.6050952 28.2302739 76.6050952 28.2302739 74.56640625 28.3984375 C74.23640625 27.4084375 73.90640625 26.4184375 73.56640625 25.3984375 C72.57640625 25.0684375 71.58640625 24.7384375 70.56640625 24.3984375 C70.11265625 23.9240625 69.65890625 23.4496875 69.19140625 22.9609375 C67.14980586 20.99786021 65.21561435 20.38418935 62.56640625 19.3984375 C59.67679339 18.01383134 56.901153 16.6098565 54.19140625 14.8984375 C49.52384572 12.23126005 44.87483364 10.4188762 39.50390625 9.8984375 C35.56640625 9.3984375 35.56640625 9.3984375 32.34204102 7.89208984 C28.27103244 6.08420886 24.62526377 5.96346863 20.21875 6 C19.05636559 5.99569473 19.05636559 5.99569473 17.87049866 5.99130249 C16.24267846 5.98927296 14.61483325 5.99472461 12.98706055 6.00732422 C10.50709191 6.02341683 8.02874724 6.00742741 5.54882812 5.98828125 C3.95963185 5.99026345 2.37043658 5.99410666 0.78125 6 C0.04672104 5.99392731 -0.68780792 5.98785461 -1.44459534 5.9815979 C-6.19984915 6.04604963 -9.32733118 7.05646555 -13.43359375 9.3984375 Z " fill="#9FA4A5" transform="translate(108.43359375,4.6015625)"/>
<path d="M0 0 C1.1859375 0.00257812 2.371875 0.00515625 3.59375 0.0078125 C4.7796875 0.00523438 5.965625 0.00265625 7.1875 0 C10.09375 0.1328125 10.09375 0.1328125 11.09375 1.1328125 C12.25287401 8.08755654 12.18384009 15.10578513 12.09375 22.1328125 C6.48375 22.1328125 0.87375 22.1328125 -4.90625 22.1328125 C-4.99634009 15.10578513 -5.06537401 8.08755654 -3.90625 1.1328125 C-2.90625 0.1328125 -2.90625 0.1328125 0 0 Z " fill="#13C9E2" transform="translate(114.90625,96.8671875)"/>
<path d="M0 0 C11.88 0 23.76 0 36 0 C35.67 1.65 35.34 3.3 35 5 C31.29209107 5.15134322 28.31506478 5.09694301 24.75 4 C17.79661385 2.14576369 11.63151374 2.27654027 5 5 C2.1875 4.625 2.1875 4.625 0 4 C0 2.66666667 0 1.33333333 0 0 Z " fill="#36C4D8" transform="translate(101,11)"/>
<path d="M0 0 C0.66 0 1.32 0 2 0 C2 3.63 2 7.26 2 11 C3.98 11 5.96 11 8 11 C8 7.7 8 4.4 8 1 C8.33 1 8.66 1 9 1 C9 4.96 9 8.92 9 13 C6.03 13 3.06 13 0 13 C0 8.71 0 4.42 0 0 Z " fill="#09B7CF" transform="translate(114,76)"/>
<path d="M0 0 C0.33 1.32 0.66 2.64 1 4 C0.34 4 -0.32 4 -1 4 C-1.33 7.3 -1.66 10.6 -2 14 C-2.99 14.33 -3.98 14.66 -5 15 C-5.33 18.96 -5.66 22.92 -6 27 C-6.33 27 -6.66 27 -7 27 C-7.53125544 14.84015323 -7.53125544 14.84015323 -4 9 C-3.649375 7.7625 -3.29875 6.525 -2.9375 5.25 C-2 2 -2 2 0 0 Z " fill="#2DCCE2" transform="translate(21,75)"/>
<path d="M0 0 C0.33 0 0.66 0 1 0 C2.84336418 6.3070477 3.81578537 12.5533526 2 19 C1.01 19.66 0.02 20.32 -1 21 C-1.12109311 13.92278069 -0.85373239 7.02804699 0 0 Z " fill="#48D9ED" transform="translate(111,98)"/>
<path d="M0 0 C0.66 0 1.32 0 2 0 C3.53266582 3.06533164 3.10276471 6.26754272 3.0625 9.625 C3.05798828 10.33140625 3.05347656 11.0378125 3.04882812 11.765625 C3.03703875 13.51045275 3.01910324 15.255237 3 17 C2.34 17 1.68 17 1 17 C0.00749455 11.29309366 -0.10477512 5.78591511 0 0 Z " fill="#11B8D0" transform="translate(223,92)"/>
<path d="M0 0 C0.33 0 0.66 0 1 0 C1.85373239 7.02804699 2.12109311 13.92278069 2 21 C1.01 20.34 0.02 19.68 -1 19 C-1.328125 17.1875 -1.328125 17.1875 -1.25 15 C-1.22421875 14.20722656 -1.1984375 13.41445312 -1.171875 12.59765625 C-0.89315916 8.38524634 -0.49018258 4.19281174 0 0 Z " fill="#3FD6EB" transform="translate(125,98)"/>
<path d="M0 0 C0.99 0 1.98 0 3 0 C2.51050406 2.20273174 1.94106263 4.1289255 1 6.1875 C-0.3774857 10.06167853 -0.66222175 13.91999427 -1 18 C-1.33 18 -1.66 18 -2 18 C-2.054138 15.75026553 -2.09285491 13.50015617 -2.125 11.25 C-2.14820313 9.99703125 -2.17140625 8.7440625 -2.1953125 7.453125 C-2.01537302 4.27179508 -1.68998582 2.63478104 0 0 Z " fill="#3AC7DB" transform="translate(12,106)"/>
<path d="M0 0 C0.66 0.33 1.32 0.66 2 1 C2 4.3 2 7.6 2 11 C1.01 11.33 0.02 11.66 -1 12 C-1.02712066 10.56260487 -1.04645067 9.12506137 -1.0625 7.6875 C-1.07410156 6.88699219 -1.08570313 6.08648437 -1.09765625 5.26171875 C-1 3 -1 3 0 0 Z " fill="#11B8CF" transform="translate(224,126)"/>
<path d="M0 0 C4.95 0 9.9 0 15 0 C14.67 0.99 14.34 1.98 14 3 C8.80790596 3.21192221 4.873261 2.5912689 0 1 C0 0.67 0 0.34 0 0 Z " fill="#11B5CC" transform="translate(122,13)"/>
<path d="M0 0 C0.66 0 1.32 0 2 0 C2.33 0.99 2.66 1.98 3 3 C1.68 4.32 0.36 5.64 -1 7 C-0.67 4.69 -0.34 2.38 0 0 Z M-3 7 C-2.34 7 -1.68 7 -1 7 C-1.66 9.97 -2.32 12.94 -3 16 C-3.33 16 -3.66 16 -4 16 C-4.125 9.25 -4.125 9.25 -3 7 Z " fill="#10B9D0" transform="translate(23,72)"/>
<path d="M0 0 C1.32 0 2.64 0 4 0 C4 0.99 4 1.98 4 3 C3.01 3 2.02 3 1 3 C1 3.99 1 4.98 1 6 C-0.32 6.33 -1.64 6.66 -3 7 C-1.125 1.125 -1.125 1.125 0 0 Z " fill="#16BFD6" transform="translate(40,46)"/>
<path d="M0 0 C0.66 0 1.32 0 2 0 C2.08131463 1.43655854 2.13933559 2.8744483 2.1875 4.3125 C2.23970703 5.51326172 2.23970703 5.51326172 2.29296875 6.73828125 C1.93801608 9.47851584 1.10633718 10.29171079 -1 12 C-1.02698189 10.37509046 -1.04638757 8.75005367 -1.0625 7.125 C-1.07410156 6.22007813 -1.08570313 5.31515625 -1.09765625 4.3828125 C-1 2 -1 2 0 0 Z " fill="#10B9D1" transform="translate(16,90)"/>
<path d="M0 0 C2.64 0 5.28 0 8 0 C7.01 1.485 7.01 1.485 6 3 C2.375 3.1875 2.375 3.1875 -1 3 C-0.67 2.01 -0.34 1.02 0 0 Z " fill="#10B8CF" transform="translate(87,16)"/>
<path d="M0 0 C1.8871875 0.061875 1.8871875 0.061875 3.8125 0.125 C3.8125 0.455 3.8125 0.785 3.8125 1.125 C2.69875 1.228125 1.585 1.33125 0.4375 1.4375 C-0.75875 1.664375 -1.955 1.89125 -3.1875 2.125 C-4.1775 3.61 -4.1775 3.61 -5.1875 5.125 C-8.1575 4.63 -8.1575 4.63 -11.1875 4.125 C-10.2903125 3.691875 -10.2903125 3.691875 -9.375 3.25 C-2.87243151 -0.09417808 -2.87243151 -0.09417808 0 0 Z " fill="#33CADF" transform="translate(90.1875,14.875)"/>
<path d="M0 0 C3.63 0 7.26 0 11 0 C9.515 1.485 9.515 1.485 8 3 C4.375 2.8125 4.375 2.8125 1 2 C0.67 1.34 0.34 0.68 0 0 Z " fill="#11B6CC" transform="translate(100,13)"/>
<path d="M0 0 C0.66 0.33 1.32 0.66 2 1 C2 2.65 2 4.3 2 6 C1.360625 6.103125 0.72125 6.20625 0.0625 6.3125 C-0.618125 6.539375 -1.29875 6.76625 -2 7 C-2.33 7.99 -2.66 8.98 -3 10 C-2.39009109 6.44219804 -1.4216319 3.3171411 0 0 Z " fill="#1FCAE2" transform="translate(25,65)"/>
<path d="M0 0 C0.33 0 0.66 0 1 0 C0.54177532 3.46941546 0.10868317 6.67395049 -1 10 C-1.66 10 -2.32 10 -3 10 C-2.49287967 6.28111761 -1.88391785 3.26545761 0 0 Z " fill="#0DC0D9" transform="translate(71,120)"/>
<path d="M0 0 C0.66 0 1.32 0 2 0 C2.33 2.64 2.66 5.28 3 8 C2.34 8 1.68 8 1 8 C0.67 5.36 0.34 2.72 0 0 Z " fill="#10B9D1" transform="translate(15,132)"/>
<path d="M0 0 C0.99 0 1.98 0 3 0 C2 2 1 4 0 6 C-0.99 6 -1.98 6 -3 6 C-2.67 5.01 -2.34 4.02 -2 3 C-1.34 3 -0.68 3 0 3 C0 2.01 0 1.02 0 0 Z " fill="#10BCD3" transform="translate(52,35)"/>
<path d="M0 0 C1.98 0 3.96 0 6 0 C5.67 0.99 5.34 1.98 5 3 C2.03 2.505 2.03 2.505 -1 2 C-0.67 1.34 -0.34 0.68 0 0 Z " fill="#10B7CE" transform="translate(146,16)"/>
</svg>
