<?xml version="1.0" encoding="UTF-8"?>
<svg version="1.1" xmlns="http://www.w3.org/2000/svg" width="238" height="238">
<path d="M0 0 C24.25921405 19.76654305 39.26446959 47.22833222 43.859375 78.19921875 C44.64302341 93.22389597 44.9221229 108.61919606 40.859375 123.19921875 C40.5190625 124.42898437 40.17875 125.65875 39.828125 126.92578125 C33.91523237 146.22258625 23.8105443 162.73962492 9.859375 177.19921875 C9.20195312 177.91980469 8.54453125 178.64039063 7.8671875 179.3828125 C-11.10081204 199.61263175 -40.29501226 211.42508444 -67.6640625 212.515625 C-102.93667898 213.3661498 -133.25725133 202.92047097 -159.11181641 178.67944336 C-174.70127344 163.54795827 -185.3700221 144.05207924 -191.140625 123.19921875 C-191.4603125 122.05195313 -191.78 120.9046875 -192.109375 119.72265625 C-199.11991552 89.40855974 -193.46285399 56.33024811 -177.03125 29.98046875 C-162.70279832 8.90225057 -145.41086052 -6.32159044 -122.140625 -16.80078125 C-120.55701172 -17.52587891 -120.55701172 -17.52587891 -118.94140625 -18.265625 C-79.40745091 -34.91949351 -33.03450147 -26.04238749 0 0 Z " fill="#87C8CF" transform="translate(194.140625,25.80078125)"/>
<path d="M0 0 C-0.66 0.33 -1.32 0.66 -2 1 C-2.66 0.67 -3.32 0.34 -4 0 C-1.93637058 4.26283641 -1.93637058 4.26283641 0.6875 8.1875 C3.22634402 13.62788004 2.44569212 19.73102192 1.3125 25.5 C-0.31004821 28.59056802 -1.81092302 29.64464228 -5 31 C-5.66 30.67 -6.32 30.34 -7 30 C-6.21625 29.113125 -5.4325 28.22625 -4.625 27.3125 C-1.48382834 23.50394059 -0.16643737 20.52567587 0.375 15.5625 C-0.32004853 8.95953893 -4.38775741 5.38125965 -9.21875 1.296875 C-11.06707521 -0.04883546 -12.92986242 -1.03756762 -15 -2 C-15 -2.66 -15 -3.32 -15 -4 C-15.94875 -4.0825 -16.8975 -4.165 -17.875 -4.25 C-21.92556796 -4.81235249 -25.37368793 -6.28619608 -29.08203125 -7.96484375 C-38.4574589 -11.29079867 -47.84937502 -11.37257863 -57.68359375 -11.37060547 C-60.09968925 -11.37495444 -62.5139164 -11.41130306 -64.9296875 -11.44921875 C-75.77654382 -11.52706236 -87.343816 -10.95174389 -97.19189453 -5.86865234 C-99 -5 -99 -5 -103 -5 C-103 -4.34 -103 -3.68 -103 -3 C-103.99 -2.67 -104.98 -2.34 -106 -2 C-110.97598143 0.11225334 -114.59279387 3.87811161 -118 8 C-119.81493882 13.44481645 -119.74020057 19.00145847 -117.75 24.375 C-115.30032595 28.08094975 -115.30032595 28.08094975 -112 31 C-108.64298046 31.61670409 -105.31260495 31.56360515 -101.90722656 31.54589844 C-100.88251755 31.55623611 -99.85780853 31.56657379 -98.80204773 31.57722473 C-95.41474777 31.6067244 -92.02804349 31.60815346 -88.640625 31.609375 C-86.29220434 31.62435175 -83.94379423 31.64107782 -81.59539795 31.65948486 C-75.41403732 31.70322696 -69.23281878 31.72317282 -63.05133057 31.73822021 C-56.74377008 31.75776645 -50.4363636 31.79973928 -44.12890625 31.83984375 C-31.75265159 31.91522032 -19.37643128 31.9654668 -7 32 C-7 32.66 -7 33.32 -7 34 C-7.99 34 -8.98 34 -10 34 C-10.33 34.99 -10.66 35.98 -11 37 C-44.33 37 -77.66 37 -112 37 C-112 39.97 -112 42.94 -112 46 C-77.68 46 -43.36 46 -8 46 C-8 47.32 -8 48.64 -8 50 C-10.31 50 -12.62 50 -15 50 C-15.144375 50.7425 -15.28875 51.485 -15.4375 52.25 C-15.90187492 54.52027739 -16.41863569 56.75759479 -17 59 C-16.05125 59.350625 -15.1025 59.70125 -14.125 60.0625 C-11 62 -11 62 -9.5625 65 C-8.24214685 71.25500636 -8.8173161 78.43030318 -12 84 C-8.75016865 82.91215032 -8.75016865 82.91215032 -6 81 C-5.92851801 79.64756083 -5.91600546 78.29165633 -5.9375 76.9375 C-5.958125 75.638125 -5.97875 74.33875 -6 73 C-5.01 72.67 -4.02 72.34 -3 72 C0.81818182 80.11363636 0.81818182 80.11363636 0 84 C-1.8125 86.8125 -1.8125 86.8125 -5 89 C-8.70486706 89.4162772 -12.28874676 89.29248055 -16 89 C-16.26554687 89.74507813 -16.53109375 90.49015625 -16.8046875 91.2578125 C-20.62854381 100.03018875 -30.17946267 108.27347261 -38.83203125 112.15625 C-51.88642284 117.23687808 -65.76348309 117.99901296 -79 113 C-79.69222656 112.74476563 -80.38445312 112.48953125 -81.09765625 112.2265625 C-90.52345745 108.14142401 -98.54212792 99.5482566 -104 91 C-104 90.34 -104 89.68 -104 89 C-104.80824219 89.05800781 -105.61648437 89.11601562 -106.44921875 89.17578125 C-115.06190453 89.5394049 -115.06190453 89.5394049 -117.875 87.921875 C-119.1875 86.5625 -119.1875 86.5625 -121 84 C-121.33 83.67 -121.66 83.34 -122 83 C-122.0825 81.948125 -122.165 80.89625 -122.25 79.8125 C-123.18868581 75.04084712 -124.73775235 73.50691622 -128 70 C-129.5547669 66.89046621 -129.28644437 64.43733239 -129 61 C-127.1875 57.875 -127.1875 57.875 -125 55 C-124.484375 54.13375 -123.96875 53.2675 -123.4375 52.375 C-122 50 -122 50 -120.4453125 48.23828125 C-117.52429262 43.71464776 -118.22923662 38.14845853 -119 33 C-120.29274851 30.29523154 -121.7240257 28.14247371 -123.58984375 25.8046875 C-126.93171037 21.5278388 -126.55095336 16.15753565 -126 11 C-123.27324163 2.43442207 -116.42644634 -3.5141334 -108.765625 -7.81640625 C-75.61899744 -24.27923127 -29.62590368 -23.821645 0 0 Z " fill="#232325" transform="translate(179,71)"/>
<path d="M0 0 C0.78430389 -0.00570007 1.56860779 -0.01140015 2.37667847 -0.01727295 C4.03235544 -0.02668289 5.68805081 -0.03324092 7.34375 -0.03710938 C9.83888729 -0.04676548 12.33318225 -0.07780593 14.828125 -0.109375 C23.90850635 -0.17030765 32.02868831 0.34907981 40.7421875 3.203125 C41.89195068 3.55721436 41.89195068 3.55721436 43.06494141 3.91845703 C45.05294145 4.54497549 47.02306237 5.20741701 48.9921875 5.890625 C49.65347656 6.11556641 50.31476563 6.34050781 50.99609375 6.57226562 C52.57959941 7.11157552 54.16113402 7.65666799 55.7421875 8.203125 C55.7421875 8.863125 55.7421875 9.523125 55.7421875 10.203125 C56.7321875 10.4815625 56.7321875 10.4815625 57.7421875 10.765625 C63.42369329 13.48801319 69.35859013 18.24413157 71.7421875 24.203125 C72.7007225 31.46060429 69.62996911 36.37145259 65.7421875 42.203125 C67.3921875 41.543125 69.0421875 40.883125 70.7421875 40.203125 C70.7215625 39.39875 70.7009375 38.594375 70.6796875 37.765625 C70.7421875 35.203125 70.7421875 35.203125 71.7421875 34.203125 C72.59164019 27.29828815 72.09236455 22.4400238 67.8359375 16.859375 C66.7421875 15.203125 66.7421875 15.203125 66.7421875 12.203125 C71.16336465 13.55404024 73.1855305 15.3681395 75.7421875 19.203125 C77.77155585 25.69176327 77.20202469 32.00754831 74.7890625 38.28125 C73.7421875 40.203125 73.7421875 40.203125 71.66015625 42.47265625 C69.15722542 46.03589179 69.23946431 48.32284958 69.3046875 52.640625 C69.30597656 53.91808594 69.30726563 55.19554687 69.30859375 56.51171875 C69.92629437 61.77052135 71.36135278 65.04707732 75.4296875 68.453125 C78.41360747 72.00157037 78.39880857 74.23253421 78.17578125 78.75390625 C77.51858236 82.46619185 76.24760845 84.40294864 73.7421875 87.203125 C73.0821875 87.203125 72.4221875 87.203125 71.7421875 87.203125 C71.7421875 89.183125 71.7421875 91.163125 71.7421875 93.203125 C70.36655896 91.91347324 69.03452357 90.57623207 67.7421875 89.203125 C67.7421875 87.53645833 67.7421875 85.86979167 67.7421875 84.203125 C66.7521875 84.698125 66.7521875 84.698125 65.7421875 85.203125 C65.8040625 86.46125 65.8659375 87.719375 65.9296875 89.015625 C65.92278743 92.91416511 65.92278743 92.91416511 64.4921875 95.203125 C62.7421875 96.203125 62.7421875 96.203125 58.7421875 96.203125 C58.8865625 95.53925781 59.0309375 94.87539062 59.1796875 94.19140625 C59.458125 92.86689453 59.458125 92.86689453 59.7421875 91.515625 C60.020625 90.21044922 60.020625 90.21044922 60.3046875 88.87890625 C60.73424992 86.25167182 60.89104876 83.85936811 60.7421875 81.203125 C60.4121875 80.873125 60.0821875 80.543125 59.7421875 80.203125 C59.70137967 78.20354136 59.69964394 76.20267246 59.7421875 74.203125 C58.5665625 74.0175 58.5665625 74.0175 57.3671875 73.828125 C54.7421875 73.203125 54.7421875 73.203125 52.7421875 71.203125 C53.17981557 68.03032149 54.51580255 65.14644889 55.7421875 62.203125 C58.0521875 62.203125 60.3621875 62.203125 62.7421875 62.203125 C62.7421875 60.883125 62.7421875 59.563125 62.7421875 58.203125 C28.4221875 58.203125 -5.8978125 58.203125 -41.2578125 58.203125 C-41.2578125 55.233125 -41.2578125 52.263125 -41.2578125 49.203125 C-7.9278125 48.873125 25.4021875 48.543125 59.7421875 48.203125 C60.2371875 47.213125 60.2371875 47.213125 60.7421875 46.203125 C61.7321875 46.203125 62.7221875 46.203125 63.7421875 46.203125 C63.7421875 45.543125 63.7421875 44.883125 63.7421875 44.203125 C61.78900101 44.2231105 61.78900101 44.2231105 59.7963562 44.24349976 C47.52507223 44.36512979 35.25391056 44.45507338 22.98216057 44.51399803 C16.67307284 44.54531042 10.36447172 44.5877835 4.05566406 44.65576172 C-2.03275204 44.72095463 -8.12070012 44.75683173 -14.20943832 44.77238846 C-16.53232059 44.78347469 -18.85517725 44.80512378 -21.17786026 44.83750534 C-24.43179926 44.88106571 -27.68380461 44.88705898 -30.93798828 44.88427734 C-32.37837212 44.91663483 -32.37837212 44.91663483 -33.84785461 44.949646 C-38.54086779 44.90623855 -41.37430516 44.66313974 -44.81686401 41.30117798 C-49.40815978 35.47390321 -50.00764465 30.49584734 -49.2578125 23.203125 C-46.96989081 17.41602896 -41.36053731 12.60494154 -36.2578125 9.203125 C-34.9378125 9.203125 -33.6178125 9.203125 -32.2578125 9.203125 C-32.2578125 8.543125 -32.2578125 7.883125 -32.2578125 7.203125 C-29.38464235 6.21829624 -26.50948505 5.2401257 -23.6328125 4.265625 C-22.82457031 3.98783203 -22.01632813 3.71003906 -21.18359375 3.42382812 C-20.39082031 3.15634766 -19.59804687 2.88886719 -18.78125 2.61328125 C-17.697229 2.24408569 -17.697229 2.24408569 -16.59130859 1.86743164 C-11.09102885 0.30159557 -5.68823447 0.03263633 0 0 Z " fill="#0275E3" transform="translate(108.2578125,58.796875)"/>
<path d="M0 0 C1.17219543 0.78345715 2.33763668 1.57702836 3.5 2.375 C4.1496875 2.81585938 4.799375 3.25671875 5.46875 3.7109375 C6.22671875 4.34902344 6.22671875 4.34902344 7 5 C7 5.66 7 6.32 7 7 C7.70382813 7.268125 8.40765625 7.53625 9.1328125 7.8125 C13.17239198 9.48556834 16.99353866 11.53970687 20.8671875 13.5625 C31.31861321 18.35816666 44.26699553 18.7877873 55.3125 15.5625 C61.23437799 13.28294864 66.14085611 9.70457955 71.1875 5.92578125 C73.61677668 4.26240152 75.10213408 3.26880657 78 3 C80.92995399 5.02842969 82.09746478 7.61549292 83 11 C83.1848651 21.16758077 77.1805153 31.14925739 70.4375 38.4375 C60.47537752 47.7109965 49.28138927 51.36108029 35.88671875 51.140625 C22.27566911 50.64816491 12.60123713 45.69269149 3.14453125 35.79296875 C-2.55938247 28.36437438 -7.26927609 19.4182193 -8 10 C-6.93116795 5.01211711 -3.89810616 2.96595034 0 0 Z " fill="#D89D77" transform="translate(81,131)"/>
<path d="M0 0 C0.78761719 0.57234375 1.57523438 1.1446875 2.38671875 1.734375 C9.28273375 7.251187 13.88756616 14.09120284 15.5390625 22.86328125 C15.98592767 31.17732531 12.49179353 37.26230971 8 44 C7.34 44 6.68 44 6 44 C6.11470137 45.75070517 6.24219028 47.50057536 6.375 49.25 C6.47941406 50.71179688 6.47941406 50.71179688 6.5859375 52.203125 C7.21725132 56.46747119 8.45733867 58.45733867 11.5 61.5 C15.12152983 65.12152983 16.28860246 67.76092577 16.3125 72.875 C16.22164795 77.28132421 15.46555271 80.25601254 13 84 C12.49984375 84.45761719 11.9996875 84.91523438 11.484375 85.38671875 C9.70522092 87.32037831 9.25491306 88.85478848 8.5625 91.375 C6.79989453 96.9430255 4.89398061 99.98286227 -0.375 102.8125 C-3.8594592 103.95396077 -6.37090045 104.26554387 -10 104 C-10.24878906 104.56074219 -10.49757813 105.12148437 -10.75390625 105.69921875 C-15.5127351 114.48589647 -23.46034317 120.24870725 -32 125 C-32.72445312 125.41121094 -33.44890625 125.82242188 -34.1953125 126.24609375 C-41.48745619 130.14953537 -48.69064261 131.373852 -56.875 131.3125 C-57.66729004 131.30686035 -58.45958008 131.3012207 -59.27587891 131.29541016 C-65.29282481 131.17075138 -70.44901656 130.43431832 -76 128 C-76.96164063 127.5978125 -77.92328125 127.195625 -78.9140625 126.78125 C-89.21171714 122.08864789 -97.10176349 114.89509445 -104 106 C-104 105.34 -104 104.68 -104 104 C-105.175625 104.0825 -106.35125 104.165 -107.5625 104.25 C-113.86031947 104.22774622 -117.46537217 101.53462783 -121.8125 97.1875 C-124.13638982 93.80126054 -124.95953412 90.93890653 -126 87 C-127.43750191 85.31201173 -127.43750191 85.31201173 -129 84 C-132.22807556 78.89183647 -131.71101111 72.80072429 -131 67 C-129.66392081 63.94042833 -128.37659351 62.43317907 -126 60 C-125.34 60 -124.68 60 -124 60 C-123.5359375 58.5459375 -123.5359375 58.5459375 -123.0625 57.0625 C-122 54 -122 54 -121 53 C-120.55004086 49.94670586 -120.53491089 47.05118901 -121 44 C-123.07399485 41.19248952 -123.07399485 41.19248952 -124.6875 39.58203125 C-128.45426488 35.04173429 -129.71713961 28.23183995 -129.46484375 22.44921875 C-127.28580123 10.96804514 -119.66546271 3.94825876 -110.6953125 -2.7109375 C-81.69184127 -21.9489302 -27.93879199 -20.74014829 0 0 Z M-114.875 7.5625 C-115.57625 8.366875 -116.2775 9.17125 -117 10 C-117.721875 10.825 -118.44375 11.65 -119.1875 12.5 C-123.18611925 18.0153369 -123.97623665 23.30166337 -123 30 C-121.32350169 34.4685847 -119.39459516 38.60540484 -116 42 C-115.69921875 44.8984375 -115.69921875 44.8984375 -115.6875 48.375 C-115.67074219 49.51710937 -115.65398437 50.65921875 -115.63671875 51.8359375 C-116.03093185 55.26940641 -116.72443405 56.48668836 -119 59 C-120.0064275 60.66279327 -121.00585407 62.32983484 -122 64 C-122.721875 64.94875 -123.44375 65.8975 -124.1875 66.875 C-126.39309568 70.67775117 -126.61917402 72.66578186 -126 77 C-124.24505919 80.10039543 -122.51174333 82.48825667 -120 85 C-119.87625 86.093125 -119.7525 87.18625 -119.625 88.3125 C-118.93131924 92.40521648 -117.85381247 94.05970837 -115 97 C-112.23547967 98.38226016 -109.9538637 98.09525387 -106.875 98.0625 C-105.77929688 98.05347656 -104.68359375 98.04445313 -103.5546875 98.03515625 C-102.71164063 98.02355469 -101.86859375 98.01195312 -101 98 C-100.63068359 99.08667969 -100.63068359 99.08667969 -100.25390625 100.1953125 C-96.32703543 108.97878057 -86.88131734 117.34287591 -78.1640625 121.28125 C-62.78881395 127.05212077 -48.62746099 126.18154296 -33.58203125 120.0078125 C-25.29218257 115.9876027 -17.22387392 108.16802109 -13 100 C-13 99.34 -13 98.68 -13 98 C-12.26394531 98.05800781 -11.52789062 98.11601562 -10.76953125 98.17578125 C-4.50661465 98.49966854 -4.50661465 98.49966854 1.125 96.0625 C3.29824765 92.51286217 3.55952243 90.0841537 3.56640625 85.98828125 C3.70949219 85.33214844 3.85257813 84.67601562 4 84 C5.31391241 83.29582928 6.64952767 82.63122636 8 82 C10.8491585 77.7672246 10.80083029 72.90908966 10 68 C7.77069744 65.18731921 7.77069744 65.18731921 5 63 C0.93564965 56.3200749 0.97524213 49.60562483 2 42 C3.27610257 39.24270696 4.6498756 37.1572413 6.58984375 34.83203125 C9.82394142 30.63039189 9.48067096 25.07279529 9 20 C6.4124271 12.23728129 2.22887313 7.70878112 -4.625 3.4375 C-5.5684729 2.84835815 -5.5684729 2.84835815 -6.53100586 2.24731445 C-35.82295958 -15.67973556 -88.35244736 -16.07716648 -114.875 7.5625 Z " fill="#EEF5F6" transform="translate(176,62)"/>
<path d="M0 0 C-0.66 0.33 -1.32 0.66 -2 1 C-2.66 0.67 -3.32 0.34 -4 0 C-1.93637058 4.26283641 -1.93637058 4.26283641 0.6875 8.1875 C3.22634402 13.62788004 2.44569212 19.73102192 1.3125 25.5 C-0.31004821 28.59056802 -1.81092302 29.64464228 -5 31 C-5.66 30.67 -6.32 30.34 -7 30 C-6.21625 29.113125 -5.4325 28.22625 -4.625 27.3125 C-1.48382834 23.50394059 -0.16643737 20.52567587 0.375 15.5625 C-0.32004853 8.95953893 -4.38775741 5.38125965 -9.21875 1.296875 C-11.06707521 -0.04883546 -12.92986242 -1.03756762 -15 -2 C-15 -2.66 -15 -3.32 -15 -4 C-15.94875 -4.0825 -16.8975 -4.165 -17.875 -4.25 C-21.92556796 -4.81235249 -25.37368793 -6.28619608 -29.08203125 -7.96484375 C-38.4574589 -11.29079867 -47.84937502 -11.37257863 -57.68359375 -11.37060547 C-60.09968925 -11.37495444 -62.5139164 -11.41130306 -64.9296875 -11.44921875 C-75.77654382 -11.52706236 -87.343816 -10.95174389 -97.19189453 -5.86865234 C-99 -5 -99 -5 -103 -5 C-103 -4.34 -103 -3.68 -103 -3 C-103.99 -2.67 -104.98 -2.34 -106 -2 C-110.97598143 0.11225334 -114.59279387 3.87811161 -118 8 C-119.81493882 13.44481645 -119.74020057 19.00145847 -117.75 24.375 C-115.30032595 28.08094975 -115.30032595 28.08094975 -112 31 C-108.64298046 31.61670409 -105.31260495 31.56360515 -101.90722656 31.54589844 C-100.88251755 31.55623611 -99.85780853 31.56657379 -98.80204773 31.57722473 C-95.41474777 31.6067244 -92.02804349 31.60815346 -88.640625 31.609375 C-86.29220434 31.62435175 -83.94379423 31.64107782 -81.59539795 31.65948486 C-75.41403732 31.70322696 -69.23281878 31.72317282 -63.05133057 31.73822021 C-56.74377008 31.75776645 -50.4363636 31.79973928 -44.12890625 31.83984375 C-31.75265159 31.91522032 -19.37643128 31.9654668 -7 32 C-7 32.66 -7 33.32 -7 34 C-7.99 34 -8.98 34 -10 34 C-10.33 34.99 -10.66 35.98 -11 37 C-44.33 37 -77.66 37 -112 37 C-112 40.3 -112 43.6 -112 47 C-112.99 47.495 -112.99 47.495 -114 48 C-111.13011773 49.43494114 -108.27074926 49.27621473 -105.09375 49.42578125 C-103 50 -103 50 -101.6953125 51.83984375 C-100.74427579 54.79446904 -101.32190305 57.01637341 -102 60 C-99.525 59.505 -99.525 59.505 -97 59 C-98.61594832 61.04119788 -100.2856382 63.04072937 -102 65 C-102.66 65 -103.32 65 -104 65 C-105.05399571 70.69157685 -104.84423997 74.98288385 -103.47265625 80.60546875 C-102.97487584 83.12728188 -102.92258501 85.43619753 -103 88 C-107.24960312 89.06240078 -111.65648521 89.81605429 -116 89 C-118.9375 86.5625 -118.9375 86.5625 -121 84 C-121.33 83.67 -121.66 83.34 -122 83 C-122.0825 81.948125 -122.165 80.89625 -122.25 79.8125 C-123.18868581 75.04084712 -124.73775235 73.50691622 -128 70 C-129.5547669 66.89046621 -129.28644437 64.43733239 -129 61 C-127.1875 57.875 -127.1875 57.875 -125 55 C-124.484375 54.13375 -123.96875 53.2675 -123.4375 52.375 C-122 50 -122 50 -120.4453125 48.23828125 C-117.52429262 43.71464776 -118.22923662 38.14845853 -119 33 C-120.29274851 30.29523154 -121.7240257 28.14247371 -123.58984375 25.8046875 C-126.93171037 21.5278388 -126.55095336 16.15753565 -126 11 C-123.27324163 2.43442207 -116.42644634 -3.5141334 -108.765625 -7.81640625 C-75.61899744 -24.27923127 -29.62590368 -23.821645 0 0 Z " fill="#18314B" transform="translate(179,71)"/>
<path d="M0 0 C4.42117715 1.35091524 6.443343 3.1650145 9 7 C11.02936835 13.48863827 10.45983719 19.80442331 8.046875 26.078125 C7 28 7 28 4.91796875 30.26953125 C2.41503792 33.83276679 2.49727681 36.11972458 2.5625 40.4375 C2.56378906 41.71496094 2.56507813 42.99242187 2.56640625 44.30859375 C3.18410687 49.56739635 4.61916528 52.84395232 8.6875 56.25 C11.67141997 59.79844537 11.65662107 62.02940921 11.43359375 66.55078125 C10.77639486 70.26306685 9.50542095 72.19982364 7 75 C6.34 75 5.68 75 5 75 C5 76.98 5 78.96 5 81 C3.62437146 79.71034824 2.29233607 78.37310707 1 77 C1 75.33333333 1 73.66666667 1 72 C0.01 72.495 0.01 72.495 -1 73 C-0.938125 74.258125 -0.87625 75.51625 -0.8125 76.8125 C-0.81940007 80.71104011 -0.81940007 80.71104011 -2.25 83 C-4 84 -4 84 -8 84 C-7.855625 83.33613281 -7.71125 82.67226562 -7.5625 81.98828125 C-7.2840625 80.66376953 -7.2840625 80.66376953 -7 79.3125 C-6.7215625 78.00732422 -6.7215625 78.00732422 -6.4375 76.67578125 C-6.00793758 74.04854682 -5.85113874 71.65624311 -6 69 C-6.33 68.67 -6.66 68.34 -7 68 C-7.04080783 66.00041636 -7.04254356 63.99954746 -7 62 C-8.175625 61.814375 -8.175625 61.814375 -9.375 61.625 C-12 61 -12 61 -14 59 C-13.56237193 55.82719649 -12.22638495 52.94332389 -11 50 C-8.69 50 -6.38 50 -4 50 C-4 48.68 -4 47.36 -4 46 C-38.32 46 -72.64 46 -108 46 C-108 43.03 -108 40.06 -108 37 C-74.67 36.67 -41.34 36.34 -7 36 C-6.505 35.01 -6.505 35.01 -6 34 C-5.01 34 -4.02 34 -3 34 C-3 33.01 -3 32.02 -3 31 C1.22222222 28 1.22222222 28 4 28 C3.979375 27.195625 3.95875 26.39125 3.9375 25.5625 C4 23 4 23 5 22 C5.84945269 15.09516315 5.35017705 10.2368988 1.09375 4.65625 C0 3 0 3 0 0 Z " fill="#36373A" transform="translate(175,71)"/>
<path d="M0 0 C25.08 0 50.16 0 76 0 C73.74849268 6.75452196 73.74849268 6.75452196 70.125 9.6875 C69.44695312 10.24824219 68.76890625 10.80898437 68.0703125 11.38671875 C67.38710937 11.91910156 66.70390625 12.45148438 66 13 C65.00033203 13.78117188 65.00033203 13.78117188 63.98046875 14.578125 C62.09748803 15.93000859 60.25603204 17.02191464 58.1875 18.0625 C57.56230469 18.38347656 56.93710938 18.70445312 56.29296875 19.03515625 C50.60316008 21.42933469 45.20222397 22.29899696 39.0625 22.625 C38.37865234 22.66367188 37.69480469 22.70234375 36.99023438 22.7421875 C35.32720487 22.83522412 33.66364153 22.91863787 32 23 C32 23.99 32 24.98 32 26 C37.28 26 42.56 26 48 26 C48 26.33 48 26.66 48 27 C45.14557247 27.05437005 42.29219924 27.09384974 39.4375 27.125 C38.63763672 27.14175781 37.83777344 27.15851563 37.01367188 27.17578125 C31.93499665 27.21723982 27.81188094 26.64056075 23 25 C23.99 24.67 24.98 24.34 26 24 C26 22.68 26 21.36 26 20 C25.34 19.9175 24.68 19.835 24 19.75 C17.35485755 18.08871439 12.60618349 15.06680183 8 10 C5.86246041 7.91860592 3.71925416 5.84319765 1.57421875 3.76953125 C0 2 0 2 0 0 Z " fill="#3B3F42" transform="translate(82,122)"/>
<path d="M0 0 C34.32 0 68.64 0 104 0 C104 2.31 104 4.62 104 7 C102.03782967 8.96217033 99.02595856 8.12694487 96.41363525 8.13552856 C94.99072174 8.13249222 94.99072174 8.13249222 93.5390625 8.12939453 C92.54565857 8.13114685 91.55225464 8.13289917 90.52874756 8.13470459 C87.22748088 8.13912511 83.92626727 8.13618441 80.625 8.1328125 C78.34195953 8.13348548 76.05891913 8.13445546 73.77587891 8.13571167 C68.98404256 8.13718891 64.19222481 8.13503323 59.40039062 8.13037109 C53.24283365 8.1246738 47.08532026 8.12795266 40.92776489 8.13394356 C36.21134103 8.13754845 31.49492759 8.13641091 26.77850342 8.13381577 C24.5073852 8.1331463 22.23626606 8.1339756 19.96514893 8.13629532 C16.79705278 8.13882067 13.62902828 8.1349829 10.4609375 8.12939453 C9.51232849 8.13141876 8.56371948 8.13344299 7.58636475 8.13552856 C1.11426224 8.11426224 1.11426224 8.11426224 0 7 C0 4.69 0 2.38 0 0 Z " fill="#B8B9BE" transform="translate(67,108)"/>
<path d="M0 0 C1.71316406 0.1546875 1.71316406 0.1546875 3.4609375 0.3125 C5.18183594 0.43625 5.18183594 0.43625 6.9375 0.5625 C9.8359375 1.3125 9.8359375 1.3125 11.2578125 3.171875 C12.04893454 6.10116471 11.50046334 8.38858632 10.8359375 11.3125 C12.4859375 10.9825 14.1359375 10.6525 15.8359375 10.3125 C14.21998918 12.35369788 12.5502993 14.35322937 10.8359375 16.3125 C10.1759375 16.3125 9.5159375 16.3125 8.8359375 16.3125 C7.78194179 22.00407685 7.99169753 26.29538385 9.36328125 31.91796875 C9.86106166 34.43978188 9.91335249 36.74869753 9.8359375 39.3125 C5.58633438 40.37490078 1.17945229 41.12855429 -3.1640625 40.3125 C-6.1015625 37.875 -6.1015625 37.875 -8.1640625 35.3125 C-8.4940625 34.9825 -8.8240625 34.6525 -9.1640625 34.3125 C-9.2465625 33.260625 -9.3290625 32.20875 -9.4140625 31.125 C-10.35274831 26.35334712 -11.90181485 24.81941622 -15.1640625 21.3125 C-16.92697756 17.78666988 -16.56804235 13.88353275 -15.6015625 10.125 C-13.78375983 7.83298793 -11.61420345 6.719618 -9.015625 5.4375 C-7.0005689 4.34551525 -7.0005689 4.34551525 -5.3515625 2.1875 C-3.1640625 0.3125 -3.1640625 0.3125 0 0 Z " fill="#232223" transform="translate(66.1640625,119.6875)"/>
<path d="M0 0 C2 2 2 2 2 5 C1.01 5 0.02 5 -1 5 C-0.67 9.95 -0.34 14.9 0 20 C0.99 20.33 1.98 20.66 3 21 C4.03789581 22.64333504 5.03567924 24.31243867 6 26 C7.6148691 28.00217163 8.45332995 28.89530082 11.0089674 29.38476086 C11.78050813 29.38936982 12.55204885 29.39397879 13.3469696 29.39872742 C14.23457977 29.41126556 15.12218994 29.42380371 16.03669739 29.4367218 C17.00773911 29.43528671 17.97878082 29.43385162 18.97924805 29.43237305 C20.00381104 29.4425647 21.02837402 29.45275635 22.08398438 29.46325684 C25.47661735 29.49349455 28.86896848 29.50266937 32.26171875 29.51171875 C34.61156663 29.52855741 36.96140547 29.54670654 39.31123352 29.56611633 C45.5007952 29.6137105 51.6903202 29.64345902 57.88000488 29.66955566 C64.19416554 29.69931366 70.50819963 29.7458603 76.82226562 29.79101562 C89.21477768 29.87715592 101.60731571 29.94445351 114 30 C114 30.66 114 31.32 114 32 C113.01 32 112.02 32 111 32 C110.67 32.99 110.34 33.98 110 35 C76.67 35 43.34 35 9 35 C9 38.3 9 41.6 9 45 C6.69921875 47.9453125 6.69921875 47.9453125 3.6875 50.125 C2.20830078 51.24261719 2.20830078 51.24261719 0.69921875 52.3828125 C-2 54 -2 54 -5 54 C-4.566875 53.62875 -4.13375 53.2575 -3.6875 52.875 C-1.54009037 50.4889893 -0.37932714 47.88404765 1 45 C1.495 44.505 1.495 44.505 2 44 C2.78882397 37.29000373 2.99606928 31.57773441 -0.9375 25.875 C-1.48277344 25.19179687 -2.02804688 24.50859375 -2.58984375 23.8046875 C-5.92049826 19.54218782 -5.5765501 14.14343382 -5 9 C-3.84604092 5.77940511 -2.45264645 2.45264645 0 0 Z " fill="#1E2531" transform="translate(58,73)"/>
<path d="M0 0 C0.66 0 1.32 0 2 0 C4.47340676 6.54725319 4.87841381 13.81562297 1.953125 20.33203125 C1.48132813 21.15767578 1.48132813 21.15767578 1 22 C4.24983135 20.91215032 4.24983135 20.91215032 7 19 C7.07148199 17.64756083 7.08399454 16.29165633 7.0625 14.9375 C7.041875 13.638125 7.02125 12.33875 7 11 C7.99 10.67 8.98 10.34 10 10 C13.81818182 18.11363636 13.81818182 18.11363636 13 22 C11.1875 24.8125 11.1875 24.8125 8 27 C4.29513294 27.4162772 0.71125324 27.29248055 -3 27 C-3.26554687 27.74507812 -3.53109375 28.49015625 -3.8046875 29.2578125 C-7.62854381 38.03018875 -17.17946267 46.27347261 -25.83203125 50.15625 C-38.88642284 55.23687808 -52.76348309 55.99901296 -66 51 C-67.03833984 50.61714844 -67.03833984 50.61714844 -68.09765625 50.2265625 C-77.52345745 46.14142401 -85.54212792 37.5482566 -91 29 C-91 28.34 -91 27.68 -91 27 C-92.32 26.67 -93.64 26.34 -95 26 C-93.35 26 -91.7 26 -90 26 C-90.33 23.03 -90.66 20.06 -91 17 C-89.22287627 19.66568559 -87.86647456 22.26705089 -86.4375 25.125 C-81.0217636 35.05166455 -72.39563617 43.33859619 -61.44921875 46.80859375 C-47.70866683 49.76026787 -34.91210651 48.81286246 -22.6953125 41.6484375 C-20.6415227 40.2179769 -18.83273094 38.70377546 -17 37 C-16.32324219 36.37609375 -15.64648438 35.7521875 -14.94921875 35.109375 C-9.09869298 29.15968778 -5.18931299 22.04274814 -3 14 C-3.31301311 10.216454 -3.97729591 6.65251461 -5 3 C-4.34 3 -3.68 3 -3 3 C-2.505 3.99 -2.505 3.99 -2 5 C-1.34 3.35 -0.68 1.7 0 0 Z " fill="#2F2824" transform="translate(166,133)"/>
<path d="M0 0 C1.81293089 0.14037521 3.6253443 0.28744889 5.4375 0.4375 C6.95150391 0.55931641 6.95150391 0.55931641 8.49609375 0.68359375 C11 1 11 1 12 2 C12.40930274 5.6837247 12.47354054 7.3794986 10.1875 10.375 C8 12 8 12 5 12 C5.020625 12.969375 5.04125 13.93875 5.0625 14.9375 C5 18 5 18 4 19 C4.20489078 24.02913736 4.85624101 29.09817576 6 34 C1.25 33.25 1.25 33.25 -1 31 C-1.1953125 28.8359375 -1.1953125 28.8359375 -1.125 26.375 C-1.10695313 25.55773437 -1.08890625 24.74046875 -1.0703125 23.8984375 C-1.04710937 23.27195313 -1.02390625 22.64546875 -1 22 C-2.175625 21.566875 -2.175625 21.566875 -3.375 21.125 C-6 20 -6 20 -8 18 C-8.55776892 11.86454183 -8.55776892 11.86454183 -6.75 9.0625 C-5 8 -5 8 -1 8 C-1.020625 7.05125 -1.04125 6.1025 -1.0625 5.125 C-1 2 -1 2 0 0 Z " fill="#B18A67" transform="translate(64,121)"/>
<path d="M0 0 C1.258125 0.0825 2.51625 0.165 3.8125 0.25 C4.1425 2.56 4.4725 4.87 4.8125 7.25 C5.59625 7.353125 6.38 7.45625 7.1875 7.5625 C9.8125 8.25 9.8125 8.25 11.8125 11.25 C12.35795455 16.48636364 12.35795455 16.48636364 10.5625 19 C8.71830604 20.3172814 6.87908163 21.32360134 4.8125 22.25 C4.874375 23.508125 4.93625 24.76625 5 26.0625 C4.99309993 29.96104011 4.99309993 29.96104011 3.5625 32.25 C1.8125 33.25 1.8125 33.25 -2.1875 33.25 C-2.043125 32.58613281 -1.89875 31.92226562 -1.75 31.23828125 C-1.564375 30.35527344 -1.37875 29.47226563 -1.1875 28.5625 C-1.001875 27.69238281 -0.81625 26.82226562 -0.625 25.92578125 C-0.19543758 23.29854682 -0.03863874 20.90624311 -0.1875 18.25 C-0.5175 17.92 -0.8475 17.59 -1.1875 17.25 C-1.22830783 15.25041636 -1.23004356 13.24954746 -1.1875 11.25 C-1.97125 11.12625 -2.755 11.0025 -3.5625 10.875 C-6.1875 10.25 -6.1875 10.25 -8.1875 8.25 C-7.65051687 2.88016874 -5.41235387 0 0 0 Z " fill="#BD8C60" transform="translate(169.1875,121.75)"/>
<path d="M0 0 C4.28834613 2.46182833 4.28834613 2.46182833 6 5 C7.06937676 9.4800405 6.50332653 12.92769565 4.5625 17.0625 C1.31560534 19.51746913 -0.80136025 19.73029612 -4.8046875 19.47265625 C-7 19 -7 19 -10.0625 17.0625 C-12.31015243 13.50975906 -12.79314544 11.30804623 -12.55078125 7.16015625 C-11.92326434 4.69904381 -11.22724996 3.65290827 -9.375 1.9375 C-5.66783234 -0.19068884 -4.16725929 -0.86817902 0 0 Z " fill="#EFF8FC" transform="translate(122,72)"/>
<path d="M0 0 C10.74074753 0.81795955 20.90754124 7.13900235 29 14 C28.34 14.33 27.68 14.66 27 15 C26.01 14.505 26.01 14.505 25 14 C27.06362942 18.26283641 27.06362942 18.26283641 29.6875 22.1875 C32.22634402 27.62788004 31.44569212 33.73102192 30.3125 39.5 C28.68995179 42.59056802 27.18907698 43.64464228 24 45 C23.34 44.67 22.68 44.34 22 44 C22.78375 43.113125 23.5675 42.22625 24.375 41.3125 C27.51617166 37.50394059 28.83356263 34.52567587 29.375 29.5625 C28.67995147 22.95953893 24.61224259 19.38125965 19.78125 15.296875 C17.93292479 13.95116454 16.07013758 12.96243238 14 12 C14 11.34 14 10.68 14 10 C12.576875 9.87625 12.576875 9.87625 11.125 9.75 C7.07443204 9.18764751 3.62631207 7.71380392 -0.08203125 6.03515625 C-9.22275382 2.7924635 -18.50909992 2.60395 -28.125 2.375 C-29.4765848 2.33671699 -30.82814791 2.29765973 -32.1796875 2.2578125 C-35.45299391 2.16428946 -38.72630557 2.07853802 -42 2 C-42 1.67 -42 1.34 -42 1 C-40.7632251 1.00523682 -39.5264502 1.01047363 -38.25219727 1.01586914 C-33.68075275 1.03391561 -29.10931141 1.04543071 -24.5378418 1.05493164 C-22.55606559 1.05997267 -20.57429311 1.06680538 -18.5925293 1.07543945 C-15.75047891 1.08751515 -12.90847753 1.09323045 -10.06640625 1.09765625 C-8.72891075 1.10539818 -8.72891075 1.10539818 -7.36439514 1.11329651 C-5.24259399 1.11349177 -3.1208922 1.0621003 -1 1 C-0.67 0.67 -0.34 0.34 0 0 Z " fill="#2D3136" transform="translate(150,57)"/>
<path d="M0 0 C0.99 0.495 0.99 0.495 2 1 C-1.54716847 6.61226762 -1.54716847 6.61226762 -5.12726021 7.56772423 C-7.81401425 7.77469732 -10.44819475 7.79909657 -13.14282227 7.76049805 C-14.67046707 7.77385948 -14.67046707 7.77385948 -16.22897339 7.78749084 C-19.5921045 7.80878459 -22.95332206 7.78646094 -26.31640625 7.76171875 C-28.6538055 7.76322091 -30.99120424 7.76665028 -33.32859802 7.77192688 C-38.22542393 7.7762595 -43.12159156 7.75940902 -48.01831055 7.72729492 C-54.29915004 7.68749252 -60.57875657 7.69682116 -66.85963535 7.72152996 C-71.68521762 7.7357019 -76.51051112 7.72563535 -81.33607292 7.70801735 C-83.652153 7.70216209 -85.96826254 7.70347789 -88.28433418 7.71204185 C-91.51908343 7.72001996 -94.75201615 7.6958272 -97.98657227 7.6628418 C-98.94616348 7.67139191 -99.9057547 7.67994202 -100.89442444 7.68875122 C-107.40699394 7.57394297 -107.40699394 7.57394297 -110.62583923 4.45857239 C-111.30604881 3.24157906 -111.30604881 3.24157906 -112 2 C-110.68 2.33 -109.36 2.66 -108 3 C-108 3.66 -108 4.32 -108 5 C-73.35 4.67 -38.7 4.34 -3 4 C-3 3.34 -3 2.68 -3 2 C-2.01 1.34 -1.02 0.68 0 0 Z " fill="#155DA4" transform="translate(175,96)"/>
<path d="M0 0 C0 0.99 0 1.98 0 3 C-1.33320679 3.02777514 -2.66659713 3.04673341 -4 3.0625 C-4.7425 3.07410156 -5.485 3.08570313 -6.25 3.09765625 C-9 3 -9 3 -12.58666992 2.52246094 C-19.86018662 1.59446623 -27.19400948 1.49846251 -34.51635742 1.27758789 C-36.37539741 1.21769216 -38.23416814 1.14872956 -40.0925293 1.07055664 C-53.87068491 0.31350042 -53.87068491 0.31350042 -66.93041992 4.21606445 C-69.38860795 5.14720068 -70.56648686 4.87904666 -73 4 C-50.47370059 -5.22170382 -23.5271233 -6.05291993 0 0 Z " fill="#25282F" transform="translate(149,56)"/>
<path d="M0 0 C2.25 0.25 2.25 0.25 4 1 C3.01 1 2.02 1 1 1 C0.67 3.64 0.34 6.28 0 9 C-0.804375 9.309375 -1.60875 9.61875 -2.4375 9.9375 C-4.89080405 10.76335345 -4.89080405 10.76335345 -6 12 C-6.33354403 15.41624258 -6.33354403 15.41624258 -6 19 C-4.58333333 20.58333333 -4.58333333 20.58333333 -3 22 C-2.3125 25.1875 -2.3125 25.1875 -2 28 C-2.99 27.67 -3.98 27.34 -5 27 C-3.6910428 30.12197478 -3.6910428 30.12197478 -1 32 C-1.33 32.99 -1.66 33.98 -2 35 C-1.175 35.45375 -0.35 35.9075 0.5 36.375 C1.325 36.91125 2.15 37.4475 3 38 C3 38.66 3 39.32 3 40 C-0.36187774 39.71984352 -1.76318238 39.22366109 -4.25 36.875 C-6 34 -6 34 -6.4375 30.5625 C-7.17267128 25.90641525 -8.83044377 24.40727295 -12 21 C-13.76291506 17.47416988 -13.40397985 13.57103275 -12.4375 9.8125 C-10.5912842 7.48466269 -8.3450296 6.37417687 -5.73828125 5.01953125 C-3.77317924 3.97559029 -3.77317924 3.97559029 -1.8125 1.6875 C-1.214375 1.130625 -0.61625 0.57375 0 0 Z " fill="#262425" transform="translate(63,120)"/>
<path d="M0 0 C2.44793496 0.43713124 3.80435254 0.82609115 5.6875 2.5 C9.23091668 4.79843244 12.81733788 5.13773064 17 5 C20.40744551 3.69897535 22.43672978 2.56327022 25 0 C27.125 0.375 27.125 0.375 29 1 C28.66960927 4.08364682 28.02342865 4.97847097 25.6875 7.125 C20.14008692 10.9952882 15.74976837 12.02054881 9 11 C5.11290536 9.26882706 1.99905455 6.99905455 -1 4 C-0.625 1.875 -0.625 1.875 0 0 Z " fill="#3D2A1F" transform="translate(105,158)"/>
<path d="M0 0 C3.3 0 6.6 0 10 0 C10 1.65 10 3.3 10 5 C9.34 5 8.68 5 8 5 C8 5.66 8 6.32 8 7 C6.02 7.66 4.04 8.32 2 9 C2.020625 9.9075 2.04125 10.815 2.0625 11.75 C2.0110245 14.42672588 1.7784983 16.46988052 1 19 C-1.6635969 18.64005447 -3.58183452 18.28838998 -5.8125 16.75 C-7 15 -7 15 -7.5 12.5 C-7 10 -7 10 -4.5625 8.3125 C-3.716875 7.879375 -2.87125 7.44625 -2 7 C-0.84607545 4.6921509 -0.46562834 2.52769669 0 0 Z " fill="#C68F5D" transform="translate(65,123)"/>
<path d="M0 0 C0.78430389 -0.00570007 1.56860779 -0.01140015 2.37667847 -0.01727295 C4.03235544 -0.02668289 5.68805081 -0.03324092 7.34375 -0.03710938 C9.83888729 -0.04676548 12.33318225 -0.07780593 14.828125 -0.109375 C23.90850635 -0.17030765 32.02868831 0.34907981 40.7421875 3.203125 C41.89195068 3.55721436 41.89195068 3.55721436 43.06494141 3.91845703 C45.05294145 4.54497549 47.02306237 5.20741701 48.9921875 5.890625 C49.65347656 6.11556641 50.31476563 6.34050781 50.99609375 6.57226562 C52.57959941 7.11157552 54.16113402 7.65666799 55.7421875 8.203125 C55.7421875 8.863125 55.7421875 9.523125 55.7421875 10.203125 C57.0621875 10.863125 58.3821875 11.523125 59.7421875 12.203125 C56.40363649 11.78580612 53.81528013 10.80849838 50.8671875 9.265625 C44.44196741 5.96327724 38.34158587 4.93827936 31.1953125 4.44921875 C28.7421875 4.203125 28.7421875 4.203125 25.7421875 3.203125 C24.34563291 3.11723197 22.94532973 3.08539785 21.54614258 3.08959961 C20.28517509 3.08971291 20.28517509 3.08971291 18.99873352 3.08982849 C18.09551865 3.09498978 17.19230377 3.10015106 16.26171875 3.10546875 C15.33372971 3.1068837 14.40574066 3.10829865 13.44963074 3.10975647 C10.48461692 3.11535563 7.51967851 3.12790796 4.5546875 3.140625 C2.54492297 3.14564011 0.53515725 3.150203 -1.47460938 3.15429688 C-6.40237282 3.16532479 -11.33007987 3.18258883 -16.2578125 3.203125 C-12.14502494 -0.90966256 -5.52050536 0.03167398 0 0 Z " fill="#1269BD" transform="translate(108.2578125,58.796875)"/>
<path d="M0 0 C2.48834311 0.98821498 4.96292409 1.98353517 7.41015625 3.0703125 C17.13202522 6.93615141 26.7252844 6.36550372 37 6 C37 6.66 37 7.32 37 8 C36.01 8 35.02 8 34 8 C34 8.66 34 9.32 34 10 C26.85057212 13.57471394 14.50144375 11.08194545 7.234375 8.94921875 C4.79031506 7.91092056 2.98032629 6.76814847 1 5 C0.25 2.3125 0.25 2.3125 0 0 Z " fill="#241F1F" transform="translate(95,176)"/>
<path d="M0 0 C2 2 2 2 2 5 C1.01 5 0.02 5 -1 5 C-0.67 9.95 -0.34 14.9 0 20 C0.99 20.33 1.98 20.66 3 21 C4.05771739 22.63064764 5.05273046 24.30280873 6 26 C6.98244845 27.34631825 7.97676564 28.68441297 9 30 C7.35 30.33 5.7 30.66 4 31 C4 32.65 4 34.3 4 36 C3.67 36 3.34 36 3 36 C2.773125 35.175 2.54625 34.35 2.3125 33.5 C0.95884778 29.89026076 -0.75660984 27.02492229 -2.87890625 23.83203125 C-5.69611549 19.22829908 -5.58503624 14.21913908 -5 9 C-3.84604092 5.77940511 -2.45264645 2.45264645 0 0 Z " fill="#21232C" transform="translate(58,73)"/>
<path d="M0 0 C1.90680517 0.07349466 3.81370898 0.14447462 5.72070312 0.21289062 C10.33628288 0.38385889 14.94919953 0.58855958 19.5625 0.8125 C19.5625 1.1425 19.5625 1.4725 19.5625 1.8125 C18.58192627 1.842229 18.58192627 1.842229 17.58154297 1.87255859 C-2.20721518 1.96797279 -2.20721518 1.96797279 -21.45703125 5.84375 C-24.39978694 6.80024202 -26.92300882 7.16928366 -30 7.375 C-33.56252016 7.62260778 -36.94684801 8.04872262 -40.4375 8.8125 C-30.52800309 -2.50983008 -13.54122795 -0.6674001 0 0 Z " fill="#162331" transform="translate(112.4375,56.1875)"/>
<path d="M0 0 C4.42117715 1.35091524 6.443343 3.1650145 9 7 C11.0152469 13.4434868 10.57850488 20.00479595 8 26.203125 C6.42430147 29.03445829 4.44277674 30.88732823 2 33 C1.67 31.68 1.34 30.36 1 29 C1.99 28.67 2.98 28.34 4 28 C3.979375 27.195625 3.95875 26.39125 3.9375 25.5625 C4 23 4 23 5 22 C5.84945269 15.09516315 5.35017705 10.2368988 1.09375 4.65625 C0 3 0 3 0 0 Z " fill="#2A2D33" transform="translate(175,71)"/>
<path d="M0 0 C1.3303125 1.299375 1.3303125 1.299375 2.6875 2.625 C7.76182636 7.02834106 13.86989157 9.4004653 20 12 C20 13.32 20 14.64 20 16 C12.18121209 15.84963869 6.26980142 12.55008446 0 8 C-2.359375 5.265625 -2.359375 5.265625 -4 3 C-2.68 3 -1.36 3 0 3 C0 2.01 0 1.02 0 0 Z " fill="#202326" transform="translate(88,130)"/>
<path d="M0 0 C2.97 0 5.94 0 9 0 C11.17766075 4.35532149 11.03039555 5.46625958 10 10 C11.65 9.67 13.3 9.34 15 9 C13.38405168 11.04119788 11.7143618 13.04072937 10 15 C9.34 15 8.68 15 8 15 C7.67 16.65 7.34 18.3 7 20 C5.68 20 4.36 20 3 20 C2.67 22.97 2.34 25.94 2 29 C-0.57627962 23.84744076 -0.35416749 20.89962562 0.6875 15.3125 C2.20074894 11.49334792 3.34894084 10.68510423 7 9 C8.35618499 7.87465895 8.35618499 7.87465895 8.0625 4.9375 C8.041875 3.968125 8.02125 2.99875 8 2 C5.36 1.67 2.72 1.34 0 1 C0 0.67 0 0.34 0 0 Z " fill="#3E2E24" transform="translate(67,121)"/>
<path d="M0 0 C0.99 0.66 1.98 1.32 3 2 C-2.964816 6.7718528 -10.15408487 11 -18 11 C-18 10.34 -18 9.68 -18 9 C-17.01 9 -16.02 9 -15 9 C-15 8.34 -15 7.68 -15 7 C-15.99 7.33 -16.98 7.66 -18 8 C-20.8243887 8.12255168 -23.61326762 8.18512869 -26.4375 8.1875 C-27.20126953 8.19974609 -27.96503906 8.21199219 -28.75195312 8.22460938 C-29.86280273 8.22750977 -29.86280273 8.22750977 -30.99609375 8.23046875 C-32.00434204 8.23663208 -32.00434204 8.23663208 -33.03295898 8.24291992 C-35.35191687 7.95653999 -36.97647909 7.13980102 -39 6 C-37.70707031 6.02320313 -36.41414063 6.04640625 -35.08203125 6.0703125 C-26.05265014 6.18161458 -17.42768858 6.12314099 -8.53125 4.4375 C-6 4 -6 4 -2 4 C-2 3.34 -2 2.68 -2 2 C-1.34 2 -0.68 2 0 2 C0 1.34 0 0.68 0 0 Z " fill="#3F3635" transform="translate(147,175)"/>
<path d="M0 0 C0.99 0 1.98 0 3 0 C2.14271367 4.64951761 -0.26094109 7.22364132 -4 10 C-7.375 10.875 -7.375 10.875 -10 11 C-10 11.66 -10 12.32 -10 13 C-13.67410785 14.17571451 -17.16929183 14.07366746 -21 14 C-17.54041493 11.69360995 -13.96799726 9.62572459 -10.375 7.53515625 C-7.99751624 6.13787557 -7.99751624 6.13787557 -6.4375 4.30859375 C-5 3 -5 3 -1 3 C-0.67 2.01 -0.34 1.02 0 0 Z " fill="#3A2921" transform="translate(155,166)"/>
<path d="M0 0 C1.89510699 -0.08160748 3.79124504 -0.13946459 5.6875 -0.1875 C6.74324219 -0.22230469 7.79898438 -0.25710937 8.88671875 -0.29296875 C13.21548287 0.11438045 15.77783016 1.77783016 18.8125 4.8125 C20.39930033 7.73555324 20.34213303 9.71552292 20 13 C19 15.375 19 15.375 18 17 C17.34 17 16.68 17 16 17 C16.05800781 16.25234375 16.11601563 15.5046875 16.17578125 14.734375 C16.61908395 8.57164587 16.61908395 8.57164587 13.875 3.3125 C10.50176243 1.77254372 8.66340993 1.38943168 5 2 C2.0684887 3.4285061 2.0684887 3.4285061 0 6 C-0.89055736 9.64182335 -0.89055736 9.64182335 -1 13 C-1.33 13 -1.66 13 -2 13 C-2.17117803 7.95024803 -2.07936893 4.67448685 0 0 Z " fill="#2781D2" transform="translate(111,71)"/>
<path d="M0 0 C4.31922178 -0.07528812 8.63807568 -0.12912646 12.95776367 -0.16479492 C14.42104766 -0.17969533 15.88428853 -0.20002282 17.34741211 -0.22631836 C27.06208257 -0.39628343 35.59518959 0.28772076 45 3 C45 3.66 45 4.32 45 5 C47.64 5 50.28 5 53 5 C53.495 6.485 53.495 6.485 54 8 C49.27405707 8.25093502 46.2262847 6.99344012 41.98828125 5.0703125 C32.8283591 1.78950378 23.5204415 1.60465337 13.875 1.375 C12.5234152 1.33671699 11.17185209 1.29765973 9.8203125 1.2578125 C6.54700609 1.16428946 3.27369443 1.07853802 0 1 C0 0.67 0 0.34 0 0 Z " fill="#0C3862" transform="translate(108,58)"/>
<path d="M0 0 C2.31 0 4.62 0 7 0 C7.2475 0.86625 7.495 1.7325 7.75 2.625 C8.82628067 6.06494841 8.82628067 6.06494841 11.125 8.6875 C14.3354385 14.35927469 13.53866651 20.25769776 12.3125 26.5 C10.68995179 29.59056802 9.18907698 30.64464228 6 32 C5.34 31.67 4.68 31.34 4 31 C4.78375 30.113125 5.5675 29.22625 6.375 28.3125 C9.51617166 24.50394059 10.83356263 21.52567587 11.375 16.5625 C10.74740136 10.60031291 7.65295167 7.43849331 3.25 3.6875 C2.63640625 3.19636719 2.0228125 2.70523438 1.390625 2.19921875 C0.93171875 1.80347656 0.4728125 1.40773438 0 1 C0 0.67 0 0.34 0 0 Z " fill="#0D2B4C" transform="translate(168,70)"/>
<path d="M0 0 C2.125 0.375 2.125 0.375 4 1 C3.66960927 4.08364682 3.02342865 4.97847097 0.6875 7.125 C-3.4997631 10.04634635 -6.0844774 11.26093481 -11.25 11.125 C-12.14203125 11.10695312 -13.0340625 11.08890625 -13.953125 11.0703125 C-14.96632813 11.03550781 -14.96632813 11.03550781 -16 11 C-16 10.67 -16 10.34 -16 10 C-13.03 10 -10.06 10 -7 10 C-6.67 9.01 -6.34 8.02 -6 7 C-6.66 6.34 -7.32 5.68 -8 5 C-7.05125 4.54625 -6.1025 4.0925 -5.125 3.625 C-1.99686321 2.19761746 -1.99686321 2.19761746 0 0 Z " fill="#443127" transform="translate(130,158)"/>
<path d="M0 0 C2.5 1.375 2.5 1.375 5 4 C5.44908891 7.37080851 5.29036649 10.61884349 5 14 C3.35 14.33 1.7 14.66 0 15 C-0.19517554 13.06325815 -0.38087873 11.12555991 -0.5625 9.1875 C-0.66691406 8.10855469 -0.77132812 7.02960938 -0.87890625 5.91796875 C-1 3 -1 3 0 0 Z " fill="#F4FBFC" transform="translate(187,126)"/>
<path d="M0 0 C2.25 0.25 2.25 0.25 4 1 C3.01 1 2.02 1 1 1 C0.67 3.64 0.34 6.28 0 9 C-0.78375 9.185625 -1.5675 9.37125 -2.375 9.5625 C-5.39376342 10.83961627 -5.39376342 10.83961627 -6.3125 14.625 C-6.539375 15.73875 -6.76625 16.8525 -7 18 C-7.33 18 -7.66 18 -8 18 C-8 15.36 -8 12.72 -8 10 C-9.32 10.33 -10.64 10.66 -12 11 C-10.75316632 7.25949897 -9.13413321 6.82419667 -5.7734375 5.0546875 C-3.7803335 3.97864409 -3.7803335 3.97864409 -1.8125 1.6875 C-1.214375 1.130625 -0.61625 0.57375 0 0 Z " fill="#312720" transform="translate(63,120)"/>
<path d="M0 0 C2.14681531 0.47474775 4.29243228 0.95491749 6.4375 1.4375 C7.63246094 1.70433594 8.82742187 1.97117188 10.05859375 2.24609375 C13 3 13 3 14 4 C16.56792041 4.23990952 19.11382173 4.42344387 21.6875 4.5625 C22.39583984 4.60568359 23.10417969 4.64886719 23.83398438 4.69335938 C27.89497937 4.92959454 31.93033927 5.0448624 36 5 C28.79034285 9.55346767 16.27722511 7.35779372 8.3203125 5.70703125 C4.95274546 4.68088709 2.69258197 3.25594706 0 1 C0 0.67 0 0.34 0 0 Z " fill="#BE9078" transform="translate(96,175)"/>
<path d="M0 0 C0.66 0 1.32 0 2 0 C4.3548854 6.23352019 3.87557031 11.45688671 3 18 C2.67 18 2.34 18 2 18 C1.34 15.69 0.68 13.38 0 11 C-0.99 12.485 -0.99 12.485 -2 14 C-2.99 10.37 -3.98 6.74 -5 3 C-4.34 3 -3.68 3 -3 3 C-2.67 3.66 -2.34 4.32 -2 5 C-1.34 3.35 -0.68 1.7 0 0 Z " fill="#372B1E" transform="translate(166,133)"/>
<path d="M0 0 C0.33 1.32 0.66 2.64 1 4 C-6.10883372 8.727194 -6.10883372 8.727194 -10.0625 9.9375 C-14.15096151 11.41630523 -16.86605359 14.05149421 -20 17 C-20.66 16.67 -21.32 16.34 -22 16 C-17.63519005 8.63973225 -17.63519005 8.63973225 -13.7734375 7.12890625 C-12.22723674 6.83673119 -10.67451394 6.577034 -9.1171875 6.3515625 C-6.24926721 5.87533957 -4.30072491 4.74297342 -2 3 C-1.34 2.01 -0.68 1.02 0 0 Z " fill="#9AC9CB" transform="translate(182,158)"/>
<path d="M0 0 C0.495 1.485 0.495 1.485 1 3 C-0.17175781 2.95359375 -1.34351563 2.9071875 -2.55078125 2.859375 C-10.97173711 2.6306909 -18.04411029 2.54936628 -25.8359375 6.22265625 C-28.34548548 7.12410038 -29.5308782 6.89632504 -32 6 C-20.95225708 1.74119725 -11.82317194 -0.1876694 0 0 Z " fill="#494E51" transform="translate(108,54)"/>
<path d="M0 0 C3.1453733 3.818773 4.34583797 7.03620793 4 12 C2.3125 14.5 2.3125 14.5 0 16 C-1.32 16 -2.64 16 -4 16 C-4 15.34 -4 14.68 -4 14 C-4.66 13.67 -5.32 13.34 -6 13 C-5.195625 12.71125 -4.39125 12.4225 -3.5625 12.125 C-0.4648498 9.55621691 -0.54951905 8.69049191 -0.1875 4.8125 C-0.1026414 3.20936059 -0.03312469 1.60504196 0 0 Z " fill="#272528" transform="translate(175,143)"/>
<path d="M0 0 C0.66 0 1.32 0 2 0 C1.649375 0.7425 1.29875 1.485 0.9375 2.25 C-0.05379868 5.15780946 -0.23956095 6.23482558 1 9 C1.99 9.66 2.98 10.32 4 11 C3.67 12.98 3.34 14.96 3 17 C2.34 16.67 1.68 16.34 1 16 C1 15.34 1 14.68 1 14 C-0.32 13.67 -1.64 13.34 -3 13 C-3.0270043 11.54176788 -3.04639787 10.08339325 -3.0625 8.625 C-3.07410156 7.81289062 -3.08570313 7.00078125 -3.09765625 6.1640625 C-3 4 -3 4 -2 2 C-1.34 2 -0.68 2 0 2 C0 1.34 0 0.68 0 0 Z " fill="#24201D" transform="translate(162,122)"/>
<path d="M0 0 C5.1817493 2.59087465 9.39873741 6.79747483 12 12 C12.25785684 16.55547083 11.99851462 19.8780636 10 24 C9.67 24 9.34 24 9 24 C8.95101562 23.10796875 8.90203125 22.2159375 8.8515625 21.296875 C8.73941406 19.54117188 8.73941406 19.54117188 8.625 17.75 C8.55539063 16.58984375 8.48578125 15.4296875 8.4140625 14.234375 C7.93097089 10.46079151 7.2781458 8.19867559 4.4921875 5.5859375 C3.95851562 5.18632813 3.42484375 4.78671875 2.875 4.375 C1.92625 3.59125 0.9775 2.8075 0 2 C0 1.34 0 0.68 0 0 Z " fill="#1366B4" transform="translate(168,71)"/>
<path d="M0 0 C4.32623334 2.4835784 4.32623334 2.4835784 6 5 C6.60566901 8.0814739 6.62914587 10.92081494 6 14 C5.34 14.66 4.68 15.32 4 16 C4.03480469 15.31292969 4.06960937 14.62585938 4.10546875 13.91796875 C4.13253906 13.01691406 4.15960938 12.11585937 4.1875 11.1875 C4.22230469 10.29417969 4.25710937 9.40085937 4.29296875 8.48046875 C4.19658419 5.98057538 4.19658419 5.98057538 2.75 4.21875 C0.68149759 2.77818582 -0.68964066 2.51724257 -3.1875 2.3125 C-4.445625 2.209375 -5.70375 2.10625 -7 2 C-7.103125 2.639375 -7.20625 3.27875 -7.3125 3.9375 C-7.539375 4.618125 -7.76625 5.29875 -8 6 C-8.99 6.33 -9.98 6.66 -11 7 C-11 9.31 -11 11.62 -11 14 C-11.33 14 -11.66 14 -12 14 C-12.8981289 6.36590437 -12.8981289 6.36590437 -10.875 3.2890625 C-7.3980802 0.15621289 -4.54635204 -0.94715668 0 0 Z " fill="#C4EDFD" transform="translate(122,72)"/>
<path d="M0 0 C3.96 0.33 7.92 0.66 12 1 C12 1.33 12 1.66 12 2 C10.02 2.33 8.04 2.66 6 3 C6 3.99 6 4.98 6 6 C11.28 6 16.56 6 22 6 C22 6.33 22 6.66 22 7 C19.14557247 7.05437005 16.29219924 7.09384974 13.4375 7.125 C12.63763672 7.14175781 11.83777344 7.15851563 11.01367188 7.17578125 C5.93499665 7.21723982 1.81188094 6.64056075 -3 5 C-2.01 4.67 -1.02 4.34 0 4 C0 2.68 0 1.36 0 0 Z " fill="#403530" transform="translate(108,142)"/>
<path d="M0 0 C0.99 0.33 1.98 0.66 3 1 C3.04898438 1.62648437 3.09796875 2.25296875 3.1484375 2.8984375 C3.22320312 3.71570313 3.29796875 4.53296875 3.375 5.375 C3.44460937 6.18710938 3.51421875 6.99921875 3.5859375 7.8359375 C3.82892588 10.20334191 3.82892588 10.20334191 6 12 C7.31747324 12.69748583 8.64914193 13.36959957 10 14 C9 15 9 15 6.5625 15.1875 C4 15 4 15 2 13 C2 12.01 2 11.02 2 10 C0.68 10 -0.64 10 -2 10 C-2 8.35 -2 6.7 -2 5 C-1.34 4.67 -0.68 4.34 0 4 C0 2.68 0 1.36 0 0 Z " fill="#2E241D" transform="translate(60,142)"/>
<path d="M0 0 C2 2 2 2 3 5 C3.845625 5.78375 4.69125 6.5675 5.5625 7.375 C8 10 8 10 8.3125 12.8125 C8.1578125 13.8953125 8.1578125 13.8953125 8 15 C7.34 15 6.68 15 6 15 C5.67 15.99 5.34 16.98 5 18 C4.34 17.67 3.68 17.34 3 17 C2.26924352 14.6859378 1.59861742 12.35171131 1 10 C1.66 9.34 2.32 8.68 3 8 C2.505 7.4225 2.01 6.845 1.5 6.25 C0 4 0 4 0 0 Z " fill="#353433" transform="translate(178,120)"/>
<path d="M0 0 C1.258125 0.0825 2.51625 0.165 3.8125 0.25 C4.1425 2.56 4.4725 4.87 4.8125 7.25 C6.4625 7.58 8.1125 7.91 9.8125 8.25 C9.8125 9.24 9.8125 10.23 9.8125 11.25 C7.5025 10.26 5.1925 9.27 2.8125 8.25 C2.8125 5.94 2.8125 3.63 2.8125 1.25 C0.8325 1.25 -1.1475 1.25 -3.1875 1.25 C-2.8575 2.24 -2.5275 3.23 -2.1875 4.25 C-3.1775 4.745 -3.1775 4.745 -4.1875 5.25 C-4.5175 6.24 -4.8475 7.23 -5.1875 8.25 C-6.1775 8.25 -7.1675 8.25 -8.1875 8.25 C-7.23127074 2.89511616 -5.67879158 0 0 0 Z " fill="#B28A68" transform="translate(169.1875,121.75)"/>
<path d="M0 0 C2.39674267 0.11456128 4.79181218 0.24128719 7.1875 0.375 C8.19780273 0.42140625 8.19780273 0.42140625 9.22851562 0.46875 C13.19678975 0.70103922 16.40729879 1.28387476 20 3 C20 3.33 20 3.66 20 4 C17.4374282 4.02710123 14.87514635 4.04688771 12.3125 4.0625 C11.2306543 4.07506836 11.2306543 4.07506836 10.12695312 4.08789062 C6.28444618 4.10543632 2.73360474 3.93524221 -1 3 C-0.67 2.01 -0.34 1.02 0 0 Z " fill="#232329" transform="translate(107,183)"/>
<path d="M0 0 C5.38543155 -0.48761453 9.61058882 -0.79079255 14.125 2.5 C15.07375 3.325 16.0225 4.15 17 5 C12.78794988 7.10602506 6.40312272 4.11943798 2 3 C2 2.34 2 1.68 2 1 C1.34 0.67 0.68 0.34 0 0 Z " fill="#22313E" transform="translate(162,66)"/>
<path d="M0 0 C0.99 0 1.98 0 3 0 C2.41978222 3.2548802 1.47352859 4.93652408 -0.875 7.25 C-1.38804687 7.77078125 -1.90109375 8.2915625 -2.4296875 8.828125 C-4 10 -4 10 -7 10 C-6.38722388 7.03824877 -5.74627478 5.61941217 -4 3 C-3.01 3 -2.02 3 -1 3 C-0.67 2.01 -0.34 1.02 0 0 Z " fill="#232523" transform="translate(155,166)"/>
<path d="M0 0 C4.29 0 8.58 0 13 0 C10 4 10 4 7.73828125 4.390625 C6.93777344 4.34421875 6.13726562 4.2978125 5.3125 4.25 C4.10013672 4.19585937 4.10013672 4.19585937 2.86328125 4.140625 C2.24839844 4.09421875 1.63351563 4.0478125 1 4 C0.67 2.68 0.34 1.36 0 0 Z " fill="#281D1A" transform="translate(113,164)"/>
<path d="M0 0 C0.99 0.33 1.98 0.66 3 1 C3.70491267 3.32206525 4.37212429 5.65593068 5 8 C5.66 8.33 6.32 8.66 7 9 C6.67 9.99 6.34 10.98 6 12 C5.34 12 4.68 12 4 12 C4 11.34 4 10.68 4 10 C2.68 10 1.36 10 0 10 C0 6.7 0 3.4 0 0 Z " fill="#212020" transform="translate(175,118)"/>
<path d="M0 0 C2 2 2 2 2 5 C1.01 5 0.02 5 -1 5 C-1.33 6.65 -1.66 8.3 -2 10 C-2.66 10 -3.32 10 -4 10 C-4 12.97 -4 15.94 -4 19 C-4.33 19 -4.66 19 -5 19 C-5.51907013 11.96371602 -4.88567332 6.97675857 -1 1 C-0.67 0.67 -0.34 0.34 0 0 Z " fill="#303739" transform="translate(58,73)"/>
<path d="M0 0 C0.66 0.33 1.32 0.66 2 1 C1.9375 3.3125 1.9375 3.3125 1 6 C-3.42048711 8.51361032 -6.94351834 9.36998646 -12 9 C-12.33 9.66 -12.66 10.32 -13 11 C-13 10.01 -13 9.02 -13 8 C-7.555 7.01 -7.555 7.01 -2 6 C-2.33 5.01 -2.66 4.02 -3 3 C-2.01 2.01 -1.02 1.02 0 0 Z " fill="#EEFCFA" transform="translate(178,157)"/>
<path d="M0 0 C0.99 0.4021875 0.99 0.4021875 2 0.8125 C5.64939067 2.25705047 9.32245433 3.62871178 13 5 C9.98968256 5.93423645 9.13349732 6.04449911 6 5 C6.33 5.99 6.66 6.98 7 8 C4.625 7.375 4.625 7.375 2 6 C0.6875 2.875 0.6875 2.875 0 0 Z " fill="#352723" transform="translate(95,176)"/>
<path d="M0 0 C1.78821774 2.68232661 3.20142604 5.30288961 4.625 8.1875 C5.07101563 9.08855469 5.51703125 9.98960937 5.9765625 10.91796875 C6.31429687 11.60503906 6.65203125 12.29210937 7 13 C6.01 13 5.02 13 4 13 C3.67 12.34 3.34 11.68 3 11 C2.01 11.33 1.02 11.66 0 12 C0 11.34 0 10.68 0 10 C-1.32 9.67 -2.64 9.34 -4 9 C-2.35 9 -0.7 9 1 9 C0.67 6.03 0.34 3.06 0 0 Z " fill="#463831" transform="translate(75,150)"/>
<path d="M0 0 C0.66 0 1.32 0 2 0 C2.33 1.65 2.66 3.3 3 5 C3.99 5.33 4.98 5.66 6 6 C5.67 6.99 5.34 7.98 5 9 C5.825 9.45375 6.65 9.9075 7.5 10.375 C8.325 10.91125 9.15 11.4475 10 12 C10 12.66 10 13.32 10 14 C6.68110095 13.72342508 5.23599737 13.21633092 2.75 10.9375 C0.48907182 7.14237056 0.29718044 4.38341148 0 0 Z " fill="#44464B" transform="translate(56,146)"/>
<path d="M0 0 C1.32 0.33 2.64 0.66 4 1 C3.67 3.31 3.34 5.62 3 8 C0.36 8.33 -2.28 8.66 -5 9 C-4.360625 8.071875 -3.72125 7.14375 -3.0625 6.1875 C-0.91377907 3.15780057 -0.91377907 3.15780057 0 0 Z " fill="#1E2323" transform="translate(182,134)"/>
<path d="M0 0 C2 1.625 2 1.625 4 4 C4.25 7.25 4.25 7.25 4 10 C0.2047869 8.50902342 -1.61042731 6.24299151 -4 3 C-2.68 3 -1.36 3 0 3 C0 2.01 0 1.02 0 0 Z " fill="#342D27" transform="translate(88,130)"/>
<path d="M0 0 C1.8125 0.8125 1.8125 0.8125 2.8125 2.8125 C1.69875 2.93625 1.69875 2.93625 0.5625 3.0625 C-2.31873469 3.59743252 -2.31873469 3.59743252 -4.1875 5.875 C-6.1875 7.8125 -6.1875 7.8125 -8.9375 8.0625 C-9.68 7.98 -10.4225 7.8975 -11.1875 7.8125 C-3.31009444 -0.28372238 -3.31009444 -0.28372238 0 0 Z " fill="#BA9075" transform="translate(158.1875,134.1875)"/>
<path d="M0 0 C0.66 0.99 1.32 1.98 2 3 C1.07882446 6.93593186 -0.24656072 10.01710745 -3 13 C-3.66 13 -4.32 13 -5 13 C-4.39254603 8.14036821 -2.27241033 4.2594482 0 0 Z " fill="#A5CFD1" transform="translate(15,59)"/>
<path d="M0 0 C2 1 2 1 4 3 C3.48824219 3.38800781 2.97648437 3.77601563 2.44921875 4.17578125 C0.71982099 5.93660241 0.71982099 5.93660241 1.14453125 8.48046875 C1.47517578 9.82044922 1.47517578 9.82044922 1.8125 11.1875 C2.02519531 12.08855469 2.23789063 12.98960937 2.45703125 13.91796875 C2.63621094 14.60503906 2.81539063 15.29210937 3 16 C2.34 16.33 1.68 16.66 1 17 C-2.62415409 7.60176991 -2.62415409 7.60176991 -1 3 C-0.67 2.01 -0.34 1.02 0 0 Z " fill="#C4957A" transform="translate(75,136)"/>
<path d="M0 0 C-0.33 2.64 -0.66 5.28 -1 8 C0.32 8 1.64 8 3 8 C3 8.66 3 9.32 3 10 C1.35 9.67 -0.3 9.34 -2 9 C-2.33 6.69 -2.66 4.38 -3 2 C-7.455 2.495 -7.455 2.495 -12 3 C-12 2.34 -12 1.68 -12 1 C-10.56496445 0.63597631 -9.12683494 0.28413409 -7.6875 -0.0625 C-6.88699219 -0.25972656 -6.08648437 -0.45695312 -5.26171875 -0.66015625 C-3 -1 -3 -1 0 0 Z " fill="#443224" transform="translate(176,120)"/>
<path d="M0 0 C-3.06117568 2.62386487 -3.73173127 3 -8 3 C-8 3.66 -8 4.32 -8 5 C-10.64 5.99 -13.28 6.98 -16 8 C-16 7.34 -16 6.68 -16 6 C-10.95852413 1.58727962 -6.70844298 -0.85639698 0 0 Z " fill="#0D2C4A" transform="translate(84,63)"/>
<path d="M0 0 C0.33 1.32 0.66 2.64 1 4 C1.99 4 2.98 4 4 4 C4 5.32 4 6.64 4 8 C4.66 8 5.32 8 6 8 C6 8.99 6 9.98 6 11 C5.01 11.33 4.02 11.66 3 12 C0.01485372 7.89542386 -0.2954439 5.02254631 0 0 Z " fill="#292C30" transform="translate(50,132)"/>
<path d="M0 0 C1.67542976 0.28604898 3.34385343 0.61781233 5 1 C1.39299028 5.23431576 -3.14586161 7.4692099 -8 10 C-8 9.01 -8 8.02 -8 7 C-7.21625 6.938125 -6.4325 6.87625 -5.625 6.8125 C-4.75875 6.544375 -3.8925 6.27625 -3 6 C-1.68931667 3.55711372 -1.68931667 3.55711372 -1 1 C-0.67 0.67 -0.34 0.34 0 0 Z " fill="#362720" transform="translate(149,135)"/>
<path d="M0 0 C2 0.9375 2 0.9375 4 3 C4.54040159 6.05469107 4.61207008 8.95619202 4 12 C2.47265625 13.78125 2.47265625 13.78125 1 15 C0.67 14.01 0.34 13.02 0 12 C0.33 11.67 0.66 11.34 1 11 C1.17423601 7.16680771 0.87803368 3.73164314 0 0 Z " fill="#A7CED2" transform="translate(52,103)"/>
<path d="M0 0 C2.31 0.33 4.62 0.66 7 1 C7 1.66 7 2.32 7 3 C7.763125 2.938125 8.52625 2.87625 9.3125 2.8125 C12 3 12 3 13.8125 4.5 C14.204375 4.995 14.59625 5.49 15 6 C8.84777564 5.56826496 5.18082051 4.34594658 0 1 C0 0.67 0 0.34 0 0 Z " fill="#352620" transform="translate(93,140)"/>
<path d="M0 0 C2.475 0.99 2.475 0.99 5 2 C5.33 4.97 5.66 7.94 6 11 C0 3.6 0 3.6 0 0 Z " fill="#20232C" transform="translate(175,71)"/>
<path d="M0 0 C0.66 0.99 1.32 1.98 2 3 C1.01 3.33 0.02 3.66 -1 4 C-2.00642948 5.32848691 -3.00692179 6.66150329 -4 8 C-4.66 8 -5.32 8 -6 8 C-6 8.66 -6 9.32 -6 10 C-7.32 9.67 -8.64 9.34 -10 9 C-6.7 6.03 -3.4 3.06 0 0 Z " fill="#A2CED0" transform="translate(46,24)"/>
<path d="M0 0 C-1.03204102 3.21079428 -2.58748662 4.59940291 -5.375 6.3125 C-9.07375628 8.03433482 -9.45858043 8.20907496 -13 7 C-11.21190303 5.82786955 -9.41940875 4.66244474 -7.625 3.5 C-6.62726562 2.8503125 -5.62953125 2.200625 -4.6015625 1.53125 C-2 0 -2 0 0 0 Z " fill="#A0CDD2" transform="translate(60,16)"/>
<path d="M0 0 C2.125 0.375 2.125 0.375 4 1 C3.75 2.875 3.75 2.875 3 5 C0.9375 6.25 0.9375 6.25 -1 7 C-1.625 4.625 -1.625 4.625 -2 2 C-1.34 1.34 -0.68 0.68 0 0 Z " fill="#3D291C" transform="translate(130,158)"/>
<path d="M0 0 C1.17219543 0.78345715 2.33763668 1.57702836 3.5 2.375 C4.1496875 2.81585938 4.799375 3.25671875 5.46875 3.7109375 C6.22671875 4.34902344 6.22671875 4.34902344 7 5 C7 5.66 7 6.32 7 7 C7.66 7.33 8.32 7.66 9 8 C5.64404172 7.40072174 3.62198774 6.15377564 1 4 C0.01 4.66 -0.98 5.32 -2 6 C-2.66 5.34 -3.32 4.68 -4 4 C-2.68 2.68 -1.36 1.36 0 0 Z " fill="#BF947A" transform="translate(81,131)"/>
<path d="M0 0 C0.66 0.66 1.32 1.32 2 2 C0.23086176 2.22226864 -1.54044371 2.42733873 -3.3125 2.625 C-4.29863281 2.74101563 -5.28476563 2.85703125 -6.30078125 2.9765625 C-9 3 -9 3 -12 1 C-7.68024478 -1.22532845 -4.70081591 -1.06433568 0 0 Z " fill="#2F3740" transform="translate(157,58)"/>
<path d="M0 0 C2 3 2 3 2 6 C2.99 6.33 3.98 6.66 5 7 C5.33 7.66 5.66 8.32 6 9 C6.99 9.66 7.98 10.32 9 11 C8.01 12.485 8.01 12.485 7 14 C7 13.01 7 12.02 7 11 C5.824375 10.566875 5.824375 10.566875 4.625 10.125 C2 9 2 9 0 7 C-0.125 3.375 -0.125 3.375 0 0 Z " fill="#AA8362" transform="translate(56,132)"/>
<path d="M0 0 C0.66 0.33 1.32 0.66 2 1 C1.0625 3.4375 1.0625 3.4375 -1 6 C-3.98877701 6.7524935 -6.92545953 6.92909865 -10 7 C-6.98387254 3.79017628 -3.91966781 1.99546725 0 0 Z " fill="#343A3D" transform="translate(74,61)"/>
<path d="M0 0 C0.33 0 0.66 0 1 0 C0.67 3.63 0.34 7.26 0 11 C0.99 11.33 1.98 11.66 3 12 C2.34 12.66 1.68 13.32 1 14 C-0.32 14 -1.64 14 -3 14 C-2.68872484 12.41642541 -2.37592711 10.83315007 -2.0625 9.25 C-1.80146484 7.92742187 -1.80146484 7.92742187 -1.53515625 6.578125 C-1.07631512 4.36764947 -0.56663926 2.18487932 0 0 Z " fill="#8E7356" transform="translate(170,141)"/>
<path d="M0 0 C0.99 0.66 1.98 1.32 3 2 C2.01 2.33 1.02 2.66 0 3 C0 3.66 0 4.32 0 5 C-0.99 5.33 -1.98 5.66 -3 6 C-3.33 6.66 -3.66 7.32 -4 8 C-4.99 7.67 -5.98 7.34 -7 7 C-7 5 -7 5 -5.75 3.375 C-4 2 -4 2 0 2 C0 1.34 0 0.68 0 0 Z " fill="#182229" transform="translate(68,66)"/>
<path d="M0 0 C0.66 0.33 1.32 0.66 2 1 C0.77472971 5.05281712 -0.69880494 8.44360764 -3 12 C-3.33 10.68 -3.66 9.36 -4 8 C-3.34 8 -2.68 8 -2 8 C-2.04125 7.05125 -2.0825 6.1025 -2.125 5.125 C-2 2 -2 2 0 0 Z " fill="#A6D1D8" transform="translate(226,166)"/>
<path d="M0 0 C2 3 2 3 3 6 C2.01 6.495 2.01 6.495 1 7 C1 6.34 1 5.68 1 5 C0.01 5 -0.98 5 -2 5 C-2.33 6.32 -2.66 7.64 -3 9 C-3.99 8.34 -4.98 7.68 -6 7 C-4.02 4.69 -2.04 2.38 0 0 Z " fill="#3D3227" transform="translate(157,161)"/>
<path d="M0 0 C4.08378283 0.74250597 8.01939223 1.82923301 12 3 C12 3.66 12 4.32 12 5 C13.32 5.66 14.64 6.32 16 7 C12.05050296 6.37183502 8.80107972 5.1354471 5.1875 3.4375 C3.72376953 2.75494141 3.72376953 2.75494141 2.23046875 2.05859375 C1.49441406 1.70925781 0.75835937 1.35992187 0 1 C0 0.67 0 0.34 0 0 Z " fill="#1768BB" transform="translate(152,64)"/>
<path d="M0 0 C3.96 0 7.92 0 12 0 C12 0.33 12 0.66 12 1 C5.07 2.485 5.07 2.485 -2 4 C-1.34 2.68 -0.68 1.36 0 0 Z " fill="#0B2846" transform="translate(88,59)"/>
<path d="M0 0 C0.66 0 1.32 0 2 0 C1.649375 0.7425 1.29875 1.485 0.9375 2.25 C-0.05526066 5.16209794 -0.1541971 6.21069033 1 9 C1.66 9.66 2.32 10.32 3 11 C1.68 11 0.36 11 -1 11 C-2.61949011 8.42786866 -3.04408751 7.32330841 -2.625 4.25 C-2.41875 3.5075 -2.2125 2.765 -2 2 C-1.34 2 -0.68 2 0 2 C0 1.34 0 0.68 0 0 Z " fill="#2D2217" transform="translate(162,122)"/>
<path d="M0 0 C0.66 0 1.32 0 2 0 C3.42857143 8.57142857 3.42857143 8.57142857 1 12 C0.67 12 0.34 12 0 12 C0 8.04 0 4.08 0 0 Z " fill="#8DC5C7" transform="translate(1,102)"/>
<path d="M0 0 C1.65 0.33 3.3 0.66 5 1 C5 1.66 5 2.32 5 3 C5.99 3.33 6.98 3.66 8 4 C4.7169902 5.6415049 1.57454967 4.51888624 -2 4 C-1.34 2.68 -0.68 1.36 0 0 Z " fill="#1B222B" transform="translate(155,59)"/>
<path d="M0 0 C0.53625 0.268125 1.0725 0.53625 1.625 0.8125 C-2.25064767 4.42389896 -2.25064767 4.42389896 -4.375 5.8125 C-6.75 5.625 -6.75 5.625 -8.375 4.8125 C-2.95961538 -0.23365385 -2.95961538 -0.23365385 0 0 Z " fill="#1065B3" transform="translate(74.375,68.1875)"/>
<path d="M0 0 C3.0831351 1.19899698 6.06279492 2.47700477 9 4 C9 4.66 9 5.32 9 6 C9.99 6.33 10.98 6.66 12 7 C11.34 7.66 10.68 8.32 10 9 C8.33043913 7.69118353 6.66441696 6.37785174 5 5.0625 C4.071875 4.33160156 3.14375 3.60070313 2.1875 2.84765625 C1.465625 2.23792969 0.74375 1.62820312 0 1 C0 0.67 0 0.34 0 0 Z " fill="#9DCACF" transform="translate(172,59)"/>
<path d="M0 0 C-1.36983503 3.16115776 -1.9890638 3.9927092 -5 6 C-7.6875 6.125 -7.6875 6.125 -10 6 C-2.6 0 -2.6 0 0 0 Z " fill="#A0CCD2" transform="translate(154,181)"/>
<path d="M0 0 C0.66 0.33 1.32 0.66 2 1 C1.67 1.66 1.34 2.32 1 3 C1.66 3.33 2.32 3.66 3 4 C3 4.99 3 5.98 3 7 C-0.37503669 5.8141763 -2.64722731 4.72426311 -5 2 C-4.01 1.67 -3.02 1.34 -2 1 C-2 1.66 -2 2.32 -2 3 C-1.34 3 -0.68 3 0 3 C0 2.01 0 1.02 0 0 Z " fill="#434145" transform="translate(94,175)"/>
<path d="M0 0 C5.445 1.485 5.445 1.485 11 3 C11 3.66 11 4.32 11 5 C7.7 4.34 4.4 3.68 1 3 C0.67 2.01 0.34 1.02 0 0 Z " fill="#B98F73" transform="translate(101,145)"/>
<path d="M0 0 C1.98 0 3.96 0 6 0 C6 3.61029169 5.03907418 6.55806676 4 10 C3.67 10 3.34 10 3 10 C3 7.36 3 4.72 3 2 C1.68 2.33 0.36 2.66 -1 3 C-0.67 2.01 -0.34 1.02 0 0 Z " fill="#3B2E27" transform="translate(52,128)"/>
<path d="M0 0 C-4.455 2.97 -4.455 2.97 -9 6 C-9.66 5.67 -10.32 5.34 -11 5 C-11 4.34 -11 3.68 -11 3 C-10.01 3 -9.02 3 -8 3 C-8 2.34 -8 1.68 -8 1 C-3.375 -1.125 -3.375 -1.125 0 0 Z " fill="#9BC7CB" transform="translate(68,59)"/>
<path d="M0 0 C1.65 0 3.3 0 5 0 C5.33 1.32 5.66 2.64 6 4 C5.34 4 4.68 4 4 4 C4 5.65 4 7.3 4 9 C3.67 9 3.34 9 3 9 C2 6 1 3 0 0 Z " fill="#34373C" transform="translate(58,100)"/>
<path d="M0 0 C0 0.66 0 1.32 0 2 C-3.20380017 4.13586678 -4.01939967 4.23132175 -7.6875 4.125 C-8.89986328 4.09792969 -8.89986328 4.09792969 -10.13671875 4.0703125 C-11.05904297 4.03550781 -11.05904297 4.03550781 -12 4 C-4.23529412 0 -4.23529412 0 0 0 Z " fill="#97C7CF" transform="translate(140,189)"/>
<path d="M0 0 C2.2344598 4.03292745 2.54496743 7.44967434 3 12 C2.01 11.34 1.02 10.68 0 10 C-0.29296875 7.6171875 -0.29296875 7.6171875 -0.1875 4.875 C-0.16042969 3.96492187 -0.13335937 3.05484375 -0.10546875 2.1171875 C-0.07066406 1.41851562 -0.03585938 0.71984375 0 0 Z " fill="#352519" transform="translate(72,140)"/>
<path d="M0 0 C0.66 0 1.32 0 2 0 C2.33 0.99 2.66 1.98 3 3 C2.01 3.495 2.01 3.495 1 4 C0.67 4.99 0.34 5.98 0 7 C-0.99 7 -1.98 7 -3 7 C-2.38722388 4.03824877 -1.74627478 2.61941217 0 0 Z " fill="#A5815E" transform="translate(164,123)"/>
<path d="M0 0 C0.680625 0.639375 1.36125 1.27875 2.0625 1.9375 C5.46408839 4.3258493 7.90433701 4.67877153 12 5 C12 5.33 12 5.66 12 6 C10.37536158 6.05395478 8.75021459 6.09277195 7.125 6.125 C6.22007813 6.14820312 5.31515625 6.17140625 4.3828125 6.1953125 C2 6 2 6 0 4 C0 2.68 0 1.36 0 0 Z " fill="#338AD3" transform="translate(110,86)"/>
<path d="M0 0 C0.99 0 1.98 0 3 0 C2.34 1.32 1.68 2.64 1 4 C0.34 4 -0.32 4 -1 4 C-1 6.31 -1 8.62 -1 11 C-1.33 11 -1.66 11 -2 11 C-2.05399736 9.54207116 -2.09279177 8.08357288 -2.125 6.625 C-2.15980469 5.40683594 -2.15980469 5.40683594 -2.1953125 4.1640625 C-2 2 -2 2 0 0 Z " fill="#D3F4FD" transform="translate(112,75)"/>
<path d="M0 0 C1.32 0.33 2.64 0.66 4 1 C2.02 3.31 0.04 5.62 -2 8 C-2.33 7.01 -2.66 6.02 -3 5 C-1.5625 2.3125 -1.5625 2.3125 0 0 Z " fill="#96C9CA" transform="translate(54,65)"/>
<path d="M0 0 C-1.49097658 3.7952131 -3.75700849 5.61042731 -7 8 C-6.44414399 4.1090079 -4.34122117 0 0 0 Z " fill="#9ECBCE" transform="translate(205,200)"/>
<path d="M0 0 C0.99 0.33 1.98 0.66 3 1 C0.525 4.465 0.525 4.465 -2 8 C-2.66 7.34 -3.32 6.68 -4 6 C-3.34 4.68 -2.68 3.36 -2 2 C-1.34 2 -0.68 2 0 2 C0 1.34 0 0.68 0 0 Z " fill="#A5D2D5" transform="translate(216,184)"/>
<path d="M0 0 C3.24299151 2.38957269 5.50902342 4.2047869 7 8 C4.24542282 7.62005832 3.17979426 7.1926367 1.25 5.125 C0 3 0 3 0 0 Z " fill="#A5CDD2" transform="translate(206,38)"/>
<path d="M0 0 C-8.261959 3.62870159 -8.261959 3.62870159 -13 2 C-8.4983139 -0.50093672 -4.98364524 -1.40428987 0 0 Z " fill="#ADD5D8" transform="translate(102,2)"/>
<path d="M0 0 C1.9375 0.3125 1.9375 0.3125 4 1 C4.33 1.99 4.66 2.98 5 4 C3.35 4.33 1.7 4.66 0 5 C0 3.35 0 1.7 0 0 Z " fill="#281F1B" transform="translate(70,133)"/>
<path d="M0 0 C2.38672669 2.96283313 4.7353371 5.94270509 7 9 C5.35 9 3.7 9 2 9 C1.22678118 6.01758453 0.58803797 3.02419525 0 0 Z " fill="#102A4B" transform="translate(60,94)"/>
<path d="M0 0 C0.99 0.33 1.98 0.66 3 1 C-0.465 3.97 -0.465 3.97 -4 7 C-4 5.35 -4 3.7 -4 2 C-3.01 2.33 -2.02 2.66 -1 3 C-0.67 2.01 -0.34 1.02 0 0 Z " fill="#0E2D51" transform="translate(65,71)"/>
<path d="M0 0 C1.32 0.33 2.64 0.66 4 1 C4.33 2.65 4.66 4.3 5 6 C3.68 5.67 2.36 5.34 1 5 C0.67 3.35 0.34 1.7 0 0 Z " fill="#2D211F" transform="translate(95,176)"/>
<path d="M0 0 C2.475 0.495 2.475 0.495 5 1 C5 2.32 5 3.64 5 5 C3.35 4.67 1.7 4.34 0 4 C0 2.68 0 1.36 0 0 Z " fill="#2B201D" transform="translate(89,173)"/>
<path d="M0 0 C1.32 0.33 2.64 0.66 4 1 C4 1.66 4 2.32 4 3 C4.99 3.33 5.98 3.66 7 4 C3.7 4 0.4 4 -3 4 C-1.68 3.67 -0.36 3.34 1 3 C0.67 2.01 0.34 1.02 0 0 Z " fill="#38363A" transform="translate(167,156)"/>
<path d="M0 0 C0.98120464 3.05263664 0.98120464 4.94736336 0 8 C-1.65 8.33 -3.3 8.66 -5 9 C-4.360625 8.071875 -3.72125 7.14375 -3.0625 6.1875 C-0.91377907 3.15780057 -0.91377907 3.15780057 0 0 Z " fill="#2A2117" transform="translate(182,134)"/>
<path d="M0 0 C2.475 0.495 2.475 0.495 5 1 C5.33 2.65 5.66 4.3 6 6 C4.68 6.33 3.36 6.66 2 7 C2.33 5.35 2.66 3.7 3 2 C2.01 1.34 1.02 0.68 0 0 Z " fill="#C99578" transform="translate(130,157)"/>
<path d="M0 0 C0.66 0 1.32 0 2 0 C4.67927341 4.01891012 4.15601248 6.24161923 4 11 C3.67 11 3.34 11 3 11 C2.01 7.37 1.02 3.74 0 0 Z " fill="#43302A" transform="translate(161,136)"/>
<path d="M0 0 C1.98 0.99 1.98 0.99 4 2 C4 2.99 4 3.98 4 5 C2.68 5 1.36 5 0 5 C0 3.35 0 1.7 0 0 Z " fill="#251F1E" transform="translate(92,135)"/>
<path d="M0 0 C-3.6441774 2.4294516 -5.71241272 2.16179575 -10 2 C-6.80505194 -1.19494806 -4.22040044 -1.35655728 0 0 Z " fill="#1666B8" transform="translate(92,63)"/>
<path d="M0 0 C-0.33 0.66 -0.66 1.32 -1 2 C-3.64 2 -6.28 2 -9 2 C-9 1.34 -9 0.68 -9 0 C-5.62182575 -0.84454356 -3.32534757 -1.10844919 0 0 Z " fill="#2E2F2F" transform="translate(103,55)"/>
</svg>
