<?xml version="1.0" standalone="no"?>
<!DOCTYPE svg PUBLIC "-//W3C//DTD SVG 20010904//EN"
 "http://www.w3.org/TR/2001/REC-SVG-20010904/DTD/svg10.dtd">
<svg version="1.0" xmlns="http://www.w3.org/2000/svg"
 width="238.000000pt" height="238.000000pt" viewBox="0 0 238.000000 238.000000"
 preserveAspectRatio="xMidYMid meet">

<g transform="translate(0.000000,238.000000) scale(0.100000,-0.100000)"
fill="#000000" stroke="none">
<path d="M1302 1835 c-104 -23 -154 -64 -183 -150 -19 -57 -24 -62 -78 -68
-105 -12 -180 -77 -208 -178 -9 -34 -22 -62 -27 -64 -6 -1 -37 -7 -70 -13 -64
-12 -117 -46 -146 -94 -10 -17 -28 -69 -40 -117 -12 -48 -34 -105 -50 -130
-16 -23 -32 -62 -35 -86 -8 -49 9 -143 30 -171 9 -12 14 -43 15 -82 0 -77 26
-112 85 -112 41 0 85 36 85 70 0 20 5 20 229 20 l229 0 6 -25 c10 -41 41 -65
84 -65 56 0 82 31 82 99 0 35 7 64 19 85 15 23 41 122 41 153 0 2 11 3 25 3
20 0 25 -5 25 -23 0 -35 44 -71 85 -71 53 0 77 30 83 101 2 32 12 76 22 98 10
22 22 57 25 78 6 30 11 37 30 37 18 0 26 -8 35 -35 14 -41 57 -69 94 -59 43
10 67 46 73 110 3 33 14 77 24 99 41 89 37 175 -11 246 -18 26 -36 74 -46 119
-26 118 -57 167 -131 204 -70 35 -283 46 -401 21z m327 -56 c90 -20 121 -60
153 -193 10 -45 31 -98 46 -120 22 -33 27 -50 27 -100 -1 -114 -60 -176 -167
-176 -44 0 -47 2 -58 34 -6 19 -20 46 -30 59 -11 13 -26 57 -36 98 -9 41 -27
94 -40 118 l-24 44 94 -7 c112 -8 121 -2 110 70 -11 75 -43 103 -134 116 -90
12 -242 3 -281 -18 -16 -8 -36 -28 -44 -44 -13 -25 -22 -30 -51 -30 -32 0 -35
2 -29 23 21 69 71 113 144 128 56 11 271 10 320 -2z m-299 -219 c105 -17 142
-58 174 -196 10 -42 32 -98 49 -125 27 -44 29 -55 24 -107 -9 -110 -50 -152
-151 -159 l-61 -4 -32 51 c-20 32 -38 80 -48 127 -18 86 -27 106 -64 147 l-26
28 115 -3 115 -4 3 42 c4 53 -21 109 -57 128 -38 19 -155 29 -256 20 -76 -6
-91 -10 -120 -36 -19 -17 -35 -40 -37 -52 -2 -17 -11 -23 -40 -25 l-37 -3 14
47 c14 47 44 87 79 106 47 26 245 35 356 18z m-576 -616 c35 -36 34 -77 -3
-115 -36 -36 -70 -37 -110 -3 -24 20 -31 34 -31 60 0 76 89 112 144 58z m440
1 c36 -33 35 -78 -3 -116 -18 -17 -40 -29 -56 -29 -37 0 -85 50 -85 88 0 72
89 108 144 57z"/>
</g>
</svg>
