<?xml version="1.0" encoding="utf-8"?>
<!-- Generator: Adobe Illustrator 28.1.0, SVG Export Plug-In . SVG Version: 6.00 Build 0)  -->
<svg version="1.1"
	 id="svg2" xmlns:cc="http://creativecommons.org/ns#" xmlns:svg="http://www.w3.org/2000/svg" xmlns:dc="http://purl.org/dc/elements/1.1/" xmlns:rdf="http://www.w3.org/1999/02/22-rdf-syntax-ns#"
	 xmlns="http://www.w3.org/2000/svg" xmlns:xlink="http://www.w3.org/1999/xlink" x="0px" y="0px" viewBox="0 0 300 264"
	 style="enable-background:new 0 0 300 264;" xml:space="preserve">
<style type="text/css">
	.st0{fill-rule:evenodd;clip-rule:evenodd;fill:#F9BA17;}
	.st1{fill-rule:evenodd;clip-rule:evenodd;fill:#FF0000;}
	.st2{fill-rule:evenodd;clip-rule:evenodd;}
</style>
<path id="path2384" class="st0" d="M162.9,7.6l133.6,228.1c7.6,17.4,3,27.8-14.8,28.3l-262.4-0.3c-8.6,0.6-25.6-2.3-16.8-25.5
	L136.7,7.1C142.6-2.6,158.9-2.3,162.9,7.6z"/>
<path id="path3156" class="st1" d="M163.3,16.4L288.7,232c9.8,17.5,8.4,27.8-13.9,26.7l-246.5-0.3c-13.7,0.9-31.2,1-15.8-24.1
	L138.7,16C145.7,3.1,154.8,2.8,163.3,16.4z"/>
<path id="path3158" class="st0" d="M264.1,236.5c-0.3-0.2-229.1-3.3-229.4-3c0.4-0.4,116-194.2,115.7-194.3
	C150.5,39.4,264.3,236.7,264.1,236.5z"/>
<g id="g3318" transform="scale(3,3)">
	<path id="path3160" class="st2" d="M16,77v-2h18.6l-2.5-2.5c-0.7-0.5-0.4-1.2,0-1.9l4.7-6.2c0-2.9,1-6,0.7-8.7
		c-0.1-0.9,0.1-1.1,0.2-1.6c0.6-1.3,1.9-3.5,2.8-5.1c0.1-0.5,0.4-1.1,0.2-1.6c-0.4-0.2-0.4-0.7-1.3-0.3c-1.2,0.7-2.5,1.4-3,3.9
		c-0.9,3,0,3,0.6,3.2c0.3,0.3,0.3,0.6,0,0.9c-0.8,0.2-2.4,0.3-3.1-0.3c-0.8-1.8-0.7-4.5,0.5-6.6c0.6-1.2,6.2-6,11.8-5.1
		c-0.3-1.6-0.9-2.6-0.6-4.2c0.2-1.6,0.9-3.9,3.6-4c3.5,0.1,4.4,2.6,4.4,4c0,2.4-1.7,3.7-3.9,4.6c-1,0.6-0.5,1.4-0.2,2.1
		c1.7,1,1.3,2.6,1.4,3.7l0.5,7.5c0.8,2.4,0.5,4.7,1.9,6c1.7,1.5,5.3,1.8,7,3.4l3.4-2.9l1.7,1.8c0.9-0.1,1.9-0.4,2-0.1
		c0.1-2.5,1-4.7,5.1-5.3l3,0.2c4.5,5.7,7.5,11.4,10.1,17.2l-30.9,0l0-2c1.6-2,3.2-3.6,5.8-4.1c-0.5-0.4-0.2-1.5-0.3-1.4l-2.1-1.3
		l1.4-1.2l-9-5.4c-0.9-1.4-1.7-3.1-2.2-4.9c-0.4-2-0.3-3.6-0.4-5.4l-2.6,4.8l2.3,2.8l0.8,1.2l1.4,2.1l0.3,9.4l1.2,1.1
		c0.7,1.3,0.1,1.5-0.2,2.1l-5.9,0l0-10.2c-0.7-1.9-1.2-3.8-3.3-5.7L41.2,65l-4.6,7.3l0.4,2.8L54.2,75l0,2L16,77L16,77z"/>
	<path id="path3316" class="st2" d="M36.3,53.9C37,54.3,59.8,66,59.8,66l-0.6,1.1L35.7,55.1L36.3,53.9z"/>
</g>
</svg>
