<?xml version="1.0" encoding="UTF-8"?>
<svg version="1.1" xmlns="http://www.w3.org/2000/svg" width="238" height="238">
<path d="M0 0 C1.16402344 0.31324219 2.32804688 0.62648437 3.52734375 0.94921875 C20.71890506 5.9314238 35.20696008 14.74082524 49 26 C49.62132812 26.48339844 50.24265625 26.96679688 50.8828125 27.46484375 C59.48729878 34.36844321 65.97329018 43.85457321 72 53 C72.84498047 54.21236328 72.84498047 54.21236328 73.70703125 55.44921875 C78.10470306 62.24923047 80.73449494 69.35229017 83.3125 77 C83.65015381 77.99660645 83.98780762 78.99321289 84.33569336 80.02001953 C88.28677216 92.22008729 89.41053448 103.89396021 89.375 116.6875 C89.37478851 117.39243591 89.37457703 118.09737183 89.37435913 118.82366943 C89.3417602 129.72036265 88.5174139 139.60816154 85 150 C84.61457031 151.22074219 84.22914063 152.44148437 83.83203125 153.69921875 C77.99014371 171.18706981 68.70933347 185.74357601 56 199 C54.77023438 200.34191406 54.77023438 200.34191406 53.515625 201.7109375 C46.91858356 208.67881854 39.87057898 213.93758252 31.71923828 218.94238281 C30.25573896 219.84267805 28.81120628 220.77368744 27.37109375 221.7109375 C21.3153351 225.38521803 14.82713901 227.56860352 8.125 229.75 C7.22773193 230.04414795 6.33046387 230.3382959 5.40600586 230.64135742 C-6.19014901 234.24772712 -17.64315842 235.37136497 -29.75 235.3125 C-30.97501221 235.30686035 -32.20002441 235.3012207 -33.4621582 235.29541016 C-63.642735 234.89292277 -89.61503531 223.60126162 -111.74609375 203.04296875 C-113.32946045 201.60778542 -114.96732396 200.23157845 -116.640625 198.90234375 C-119.21028978 196.83044516 -121.09064108 194.68724589 -123 192 C-123 191.34 -123 190.68 -123 190 C-123.66 190 -124.32 190 -125 190 C-134.65699062 177.6144414 -141.86182339 162.04348907 -146 147 C-146.31839844 145.93910156 -146.63679687 144.87820312 -146.96484375 143.78515625 C-151.47805227 125.96110232 -151.00741824 103.65873631 -146 86 C-145.70996094 84.95126709 -145.70996094 84.95126709 -145.4140625 83.88134766 C-142.08245918 72.10505537 -137.08676336 61.58633014 -131 51 C-130.45730469 50.01644531 -129.91460937 49.03289063 -129.35546875 48.01953125 C-128.90816406 47.35308594 -128.46085937 46.68664063 -128 46 C-127.34 46 -126.68 46 -126 46 C-125.731875 45.41476563 -125.46375 44.82953125 -125.1875 44.2265625 C-121.09632711 36.55561334 -113.41145608 29.71990963 -107 24 C-106.34 24 -105.68 24 -105 24 C-105 23.34 -105 22.68 -105 22 C-75.33991432 -0.50075466 -36.35288003 -9.89910406 0 0 Z " fill="#FE916E" transform="translate(149,3)"/>
<path d="M0 0 C0.97853439 -0.0071553 1.95706879 -0.01431061 2.96525574 -0.02168274 C4.04267532 -0.02437164 5.12009491 -0.02706055 6.23016357 -0.02983093 C7.92789665 -0.03968773 7.92789665 -0.03968773 9.65992737 -0.04974365 C13.41869161 -0.06951132 17.17741584 -0.08114699 20.93621826 -0.09111023 C22.217705 -0.09518576 23.49919174 -0.09926128 24.81951141 -0.10346031 C30.90211466 -0.1221815 36.98469778 -0.13674377 43.06732392 -0.14507228 C50.08504917 -0.15484002 57.10245861 -0.18114609 64.1200726 -0.22157317 C70.20053365 -0.25539718 76.28086215 -0.26721943 82.36141205 -0.27127647 C84.9466033 -0.27615367 87.53179092 -0.28779965 90.11692047 -0.30631447 C93.73435203 -0.3306121 97.35095697 -0.32975747 100.96844482 -0.32279968 C102.03776749 -0.33560974 103.10709015 -0.3484198 104.20881653 -0.36161804 C110.23780391 -0.31932303 113.79851015 0.06944233 118.35809326 4.14717102 C120.84353473 7.87533323 120.68131806 10.81951305 120.69403076 15.13935852 C120.70401596 16.31379013 120.70401596 16.31379013 120.71420288 17.51194763 C120.72432353 19.16783806 120.72902008 20.82376923 120.72869873 22.47969055 C120.73306576 25.00625811 120.76937134 27.53106951 120.80731201 30.05732727 C120.81318167 31.6679984 120.81715007 33.2786778 120.81903076 34.88935852 C120.83340179 35.64159698 120.84777283 36.39383545 120.86257935 37.16886902 C120.83134943 40.77584741 120.48440974 42.94186773 118.57928467 46.0382843 C114.63105152 49.78689256 112.02800745 50.4012166 106.60809326 50.27217102 C105.13082764 50.24510071 105.13082764 50.24510071 103.62371826 50.21748352 C102.87606201 50.1942804 102.12840576 50.17107727 101.35809326 50.14717102 C101.37380371 51.28259338 101.38951416 52.41801575 101.40570068 53.58784485 C101.45997358 57.79773371 101.49443363 62.00759161 101.52288818 66.21772766 C101.53798086 68.04037169 101.55845721 69.86297938 101.58441162 71.6855011 C101.62077429 74.30432602 101.6378145 76.9226711 101.65106201 79.54170227 C101.66654587 80.35742203 101.68202972 81.17314178 101.69798279 82.01358032 C101.699675 87.69349863 101.699675 87.69349863 100.067276 89.86157227 C97.18220169 92.03164329 93.82044968 91.57761801 90.35809326 91.52217102 C89.63364014 91.53377258 88.90918701 91.54537415 88.16278076 91.55732727 C82.86439981 91.52800044 82.86439981 91.52800044 80.64891052 89.86157227 C78.38782574 86.85850848 78.99630552 83.15189941 79.06512451 79.54170227 C79.06814575 78.79771179 79.07116699 78.05372131 79.07427979 77.28718567 C79.08996169 74.5112061 79.13184587 71.73542446 79.17059326 68.95967102 C79.23246826 62.75154602 79.29434326 56.54342102 79.35809326 50.14717102 C62.85809326 50.14717102 46.35809326 50.14717102 29.35809326 50.14717102 C29.47676448 62.51809548 29.47676448 62.51809548 29.62835693 74.8886261 C29.63711886 76.43964521 29.64476349 77.9906712 29.65106201 79.54170227 C29.66640991 80.34684265 29.68175781 81.15198303 29.6975708 81.98152161 C29.7002559 87.6927271 29.7002559 87.6927271 28.067276 89.86157227 C25.18220169 92.03164329 21.82044968 91.57761801 18.35809326 91.52217102 C17.63364014 91.53377258 16.90918701 91.54537415 16.16278076 91.55732727 C10.86439981 91.52800044 10.86439981 91.52800044 8.64891052 89.86157227 C6.38814238 86.85892903 6.99660886 83.15124068 7.06512451 79.54170227 C7.06936935 78.70249741 7.0736142 77.86329254 7.07798767 76.99865723 C7.09477862 74.31866857 7.13243096 71.63943232 7.17059326 68.95967102 C7.18563959 67.14262459 7.19932809 65.32556637 7.21160889 63.50849915 C7.24468344 59.05443326 7.29646813 54.6009297 7.35809326 50.14717102 C6.52809814 50.17399963 5.69810303 50.20082825 4.84295654 50.22846985 C3.21462891 50.2597699 3.21462891 50.2597699 1.55340576 50.29170227 C0.47591064 50.31853088 -0.60158447 50.3453595 -1.71173096 50.3730011 C-4.64190674 50.14717102 -4.64190674 50.14717102 -7.76690674 47.83467102 C-11.1141466 43.03696055 -11.97075659 40.16941088 -12.01300049 34.40888977 C-12.02202896 33.65050308 -12.03105743 32.89211639 -12.0403595 32.11074829 C-12.05486029 30.50614873 -12.06374832 28.90149005 -12.06744385 27.29682922 C-12.07931604 24.85333782 -12.12847559 22.41239318 -12.17901611 19.96943665 C-12.18848385 18.40759996 -12.19571721 16.84574782 -12.20050049 15.28388977 C-12.22003281 14.55868637 -12.23956512 13.83348297 -12.25968933 13.08630371 C-12.20907415 7.33508595 -10.57794086 5.02829582 -6.64190674 1.14717102 C-4.22772367 -0.05992052 -2.69751947 0.01351186 0 0 Z " fill="#2F2B2E" transform="translate(64.64190673828125,71.85282897949219)"/>
<path d="M0 0 C1.23821754 0.00067978 1.23821754 0.00067978 2.50144958 0.00137329 C3.36645081 -0.00198532 4.23145203 -0.00534393 5.12266541 -0.00880432 C7.99706945 -0.01834417 10.87141544 -0.02025894 13.74583435 -0.02133179 C15.73501612 -0.02454223 17.72419765 -0.02790614 19.71337891 -0.03141785 C23.88899788 -0.0374167 28.06459613 -0.03925697 32.24021912 -0.03866577 C37.60180493 -0.0385641 42.96325846 -0.05221819 48.32481289 -0.06943798 C52.43479019 -0.08053367 56.54473527 -0.08258573 60.65472603 -0.08205605 C62.6319582 -0.08323977 64.6091911 -0.08768334 66.58640862 -0.09538841 C69.34724681 -0.10513953 72.10779464 -0.1023297 74.86863708 -0.09628296 C75.69209122 -0.10190247 76.51554535 -0.10752197 77.36395264 -0.11331177 C83.02142523 -0.08167841 83.02142523 -0.08167841 85.2497406 2.14663696 C85.92203204 7.25294995 85.11599204 10.19618277 82.00709343 14.31128883 C81.51957666 14.90349913 81.0320599 15.49570942 80.5297699 16.10586548 C80.01299746 16.73575064 79.49622501 17.3656358 78.9637928 18.01460838 C68.72146737 30.03886952 58.98776602 39.32708843 42.72140312 40.80033302 C32.84390306 41.35951441 22.98002959 40.87232687 13.11802673 40.25448608 C7.96406222 39.96717104 2.8061838 39.86420764 -2.35377502 39.73843384 C-9.84530195 39.52598457 -17.33085639 39.26070565 -24.81349182 38.83389282 C-25.5929567 38.79552307 -26.37242157 38.75715332 -27.17550659 38.71762085 C-32.51528989 38.38160647 -32.51528989 38.38160647 -34.7502594 36.14663696 C-35.45941175 32.7781633 -35.74198206 31.34097018 -34.7502594 28.14663696 C-32.49460388 25.59849959 -30.05128951 23.53499728 -27.41822815 21.38101196 C-24.99393245 19.35070868 -23.02338116 17.31529039 -21.0002594 14.89663696 C-18.1597788 11.52940057 -15.1802758 8.9055632 -11.7502594 6.14663696 C-10.06497252 4.4988009 -8.39328893 2.83661019 -6.7502594 1.14663696 C-4.93271049 -0.67091194 -2.42001437 0.01381067 0 0 Z " fill="#FC5555" transform="translate(93.75025939941406,77.85336303710938)"/>
<path d="M0 0 C1.77417046 -0.00810448 1.77417046 -0.00810448 3.58418274 -0.01637268 C6.81570272 -0.02671317 10.04655363 -0.01918588 13.27802968 -0.00266147 C16.66561719 0.01122837 20.0531749 0.00472461 23.44078064 0.00120544 C29.12759989 -0.00149322 34.81420765 0.01195037 40.50097656 0.03515625 C47.06989073 0.0617768 53.63845169 0.06350785 60.20740134 0.05176789 C66.53565162 0.04097923 72.86377451 0.04718483 79.19201469 0.06132317 C81.88131164 0.0670723 84.57051503 0.06700882 87.25981331 0.06225777 C91.01587419 0.05935069 94.77135599 0.07582926 98.52734375 0.09765625 C99.6407312 0.0931546 100.75411865 0.08865295 101.90124512 0.08401489 C102.92597427 0.09391953 103.95070343 0.10382416 105.00648499 0.11402893 C105.89375306 0.11645883 106.78102114 0.11888872 107.69517612 0.12139225 C111.98962709 0.77370176 114.57294401 2.78624545 117.38647461 6.00170898 C120.86125089 10.79450386 121.52955444 13.79945951 121.57006836 19.60717773 C121.57909683 20.40521317 121.58812531 21.2032486 121.59742737 22.02546692 C121.61193416 23.71583304 121.62081768 25.40625536 121.62451172 27.09667969 C121.63635374 29.66301468 121.68548333 32.22690107 121.73608398 34.79272461 C121.88489725 49.62995139 121.88489725 49.62995139 117.65576172 55.16894531 C112.48949639 59.89538112 108.06553725 60.57757157 101.19897461 60.50170898 C101.22515869 61.53054199 101.25134277 62.559375 101.27832031 63.61938477 C101.36916013 67.45461076 101.42634497 71.28974265 101.47363281 75.12573242 C101.4987006 76.78247088 101.53276451 78.43909957 101.57617188 80.09545898 C101.63717104 82.48375582 101.66525987 84.87058492 101.68725586 87.25952148 C101.71306229 87.99413605 101.73886871 88.72875061 101.76545715 89.48562622 C101.76758638 93.4337769 101.24462977 95.92660186 98.79345703 98.9543457 C94.59294107 103.07857489 91.09424263 102.77845274 85.44897461 102.87670898 C84.64975586 102.9140918 83.85053711 102.95147461 83.02709961 102.98999023 C78.83482561 103.05204692 76.07284189 102.86010971 72.74584961 100.16577148 C68.41556722 95.63624297 67.91794956 92.79237824 68.00366211 86.77124023 C68.00567627 86.10588257 68.00769043 85.4405249 68.00976562 84.75500488 C68.02021271 82.27466924 68.04813538 79.79443203 68.07397461 77.31420898 C68.11522461 71.76608398 68.15647461 66.21795898 68.19897461 60.50170898 C55.65897461 60.50170898 43.11897461 60.50170898 30.19897461 60.50170898 C30.43563606 71.37677116 30.43563606 71.37677116 30.73950195 82.25 C30.96949024 94.6653404 30.96949024 94.6653404 27.30053711 99.02905273 C22.62420193 102.75716378 19.32536102 102.74483086 13.51147461 102.81420898 C12.32521484 102.85771484 12.32521484 102.85771484 11.11499023 102.90209961 C5.31868749 102.96432251 1.91360038 101.93108946 -2.80102539 98.50170898 C-4.0118024 94.86937796 -3.92546703 91.55048912 -3.89868164 87.77124023 C-3.89726669 87.02081955 -3.89585175 86.27039886 -3.89439392 85.49723816 C-3.88880099 83.10285438 -3.87624983 80.70856445 -3.86352539 78.31420898 C-3.85850948 76.68986138 -3.85394673 75.0655123 -3.84985352 73.44116211 C-3.83883387 69.46130829 -3.82157412 65.48152455 -3.80102539 61.50170898 C-4.91034424 61.35677002 -6.01966309 61.21183105 -7.16259766 61.0625 C-11.65591465 60.36994487 -14.00973898 58.90027794 -17.80102539 56.50170898 C-17.80102539 55.84170898 -17.80102539 55.18170898 -17.80102539 54.50170898 C-18.46102539 54.50170898 -19.12102539 54.50170898 -19.80102539 54.50170898 C-23.45874497 47.18626983 -23.325854 39.80852837 -23.30200195 31.8112793 C-23.30102733 29.50630546 -23.34277782 27.20464329 -23.38696289 24.90014648 C-23.49884036 11.66131263 -23.49884036 11.66131263 -19.46313477 6.04467773 C-13.12205185 0.15812603 -8.51262604 -0.07405302 0 0 Z M-15.80102539 10.50170898 C-18.12549585 15.1506499 -17.11295565 22.05721894 -17.15112305 27.22167969 C-17.16763573 28.85789256 -17.19486396 30.49403469 -17.2331543 32.12988281 C-17.28825864 34.4976923 -17.30984943 36.86381116 -17.32446289 39.23217773 C-17.35846695 40.31694649 -17.35846695 40.31694649 -17.39315796 41.42362976 C-17.36935708 47.21712468 -15.54565955 50.10216942 -11.80102539 54.50170898 C-9.03650507 55.88396915 -6.75488909 55.59696285 -3.67602539 55.56420898 C-2.58032227 55.55518555 -1.48461914 55.54616211 -0.35571289 55.53686523 C0.48733398 55.52526367 1.33038086 55.51366211 2.19897461 55.50170898 C2.18326416 56.63713135 2.16755371 57.77255371 2.15136719 58.94238281 C2.09709429 63.15227167 2.06263424 67.36212957 2.03417969 71.57226562 C2.01908701 73.39490966 1.99861066 75.21751734 1.97265625 77.04003906 C1.93629358 79.65886399 1.91925337 82.27720906 1.90600586 84.89624023 C1.890522 85.71195999 1.87503815 86.52767975 1.85908508 87.36811829 C1.74445467 91.55740124 1.74445467 91.55740124 3.48979187 95.21611023 C6.37486618 97.38618125 9.73661819 96.93215597 13.19897461 96.87670898 C13.92342773 96.88831055 14.64788086 96.89991211 15.39428711 96.91186523 C19.41235527 96.95022702 19.41235527 96.95022702 22.90815735 95.21611023 C25.16924213 92.21304644 24.56076235 88.50643737 24.49194336 84.89624023 C24.48892212 84.15224976 24.48590088 83.40825928 24.48278809 82.64172363 C24.46710618 79.86574406 24.425222 77.08996242 24.38647461 74.31420898 C24.29366211 65.00202148 24.29366211 65.00202148 24.19897461 55.50170898 C40.69897461 55.50170898 57.19897461 55.50170898 74.19897461 55.50170898 C74.01147461 74.31420898 74.01147461 74.31420898 73.92871094 80.24316406 C73.91994901 81.79418317 73.91230438 83.34520917 73.90600586 84.89624023 C73.89065796 85.70138062 73.87531006 86.506521 73.85949707 87.33605957 C73.7411882 91.54196265 73.7411882 91.54196265 75.48979187 95.21611023 C78.37486618 97.38618125 81.73661819 96.93215597 85.19897461 96.87670898 C85.92342773 96.88831055 86.64788086 96.89991211 87.39428711 96.91186523 C91.41235527 96.95022702 91.41235527 96.95022702 94.90815735 95.21611023 C97.16892549 92.21346699 96.56045901 88.50577864 96.49194336 84.89624023 C96.48769852 84.05703537 96.48345367 83.21783051 96.4790802 82.35319519 C96.46228925 79.67320654 96.42463691 76.99397028 96.38647461 74.31420898 C96.37142828 72.49716255 96.35773978 70.68010434 96.34545898 68.86303711 C96.31238443 64.40897123 96.26059974 59.95546766 96.19897461 55.50170898 C96.95170654 55.52273682 97.70443848 55.54376465 98.47998047 55.56542969 C99.46877197 55.58178467 100.45756348 55.59813965 101.47631836 55.61499023 C102.94572876 55.64653198 102.94572876 55.64653198 104.44482422 55.67871094 C108.28747439 55.43175399 110.36974903 54.04075758 113.19897461 51.50170898 C115.68441608 47.77354678 115.52219941 44.82936695 115.53491211 40.50952148 C115.54156891 39.72656708 115.54822571 38.94361267 115.55508423 38.13693237 C115.56520488 36.48104194 115.56990143 34.82511078 115.56958008 33.16918945 C115.5739471 30.64262189 115.61025268 28.11781049 115.64819336 25.59155273 C115.65406302 23.98088161 115.65803141 22.37020221 115.65991211 20.75952148 C115.68146866 19.63116379 115.68146866 19.63116379 115.70346069 18.48001099 C115.67223078 14.8730326 115.32529109 12.70701227 113.42016602 9.6105957 C109.87659158 6.24618639 107.17862436 5.25411439 102.31655884 5.22755432 C101.33527512 5.21757919 100.35399139 5.20760406 99.3429718 5.19732666 C98.27274277 5.19666199 97.20251373 5.19599731 96.09985352 5.1953125 C94.40168236 5.18282722 94.40168236 5.18282722 92.66920471 5.17008972 C88.92128068 5.1459653 85.17353058 5.1372148 81.42553711 5.13061523 C78.82245836 5.12165129 76.21938015 5.11252949 73.61630249 5.10325623 C68.15719961 5.0858958 62.69814111 5.07903131 57.23901367 5.07617188 C50.93589652 5.07253689 44.63326638 5.04264213 38.33029807 5.00076729 C32.25941908 4.96185313 26.18877659 4.95057858 20.11777878 4.94944572 C17.5381646 4.94523662 14.95855025 4.93277493 12.37901688 4.91192818 C8.77120729 4.88509093 5.164743 4.88981774 1.55688477 4.90234375 C0.49070419 4.88750946 -0.57547638 4.87267517 -1.67396545 4.85739136 C-8.17459388 4.92170213 -11.3677814 5.62580767 -15.80102539 10.50170898 Z " fill="#FAF6F4" transform="translate(69.801025390625,66.498291015625)"/>
<path d="M0 0 C1.39120471 0.00015906 2.78241534 0.00585033 4.17358398 0.01586914 C4.90463852 0.01728409 5.63569305 0.01869904 6.38890076 0.02015686 C8.73253406 0.02577131 11.07607313 0.03832617 13.41967773 0.05102539 C15.00496282 0.05603853 16.59024939 0.06060176 18.17553711 0.06469727 C22.06945383 0.07574542 25.96329979 0.09301967 29.85717773 0.11352539 C28.90636565 1.23157331 27.95429903 2.34855442 27.00170898 3.46508789 C26.2066394 4.39828857 26.2066394 4.39828857 25.39550781 5.3503418 C23.32449249 7.72407178 21.11076221 9.91234986 18.85717773 12.11352539 C17.35580599 13.61215239 15.85593858 15.11228726 14.35717773 16.61352539 C12.04553906 18.92516406 9.73463662 21.23162101 7.38061523 23.50024414 C4.76897364 26.0913062 4.76897364 26.0913062 2.55249023 29.22680664 C-0.92533525 33.71951358 -4.1519665 37.48911311 -9.91430664 38.69213867 C-16.53622781 39.27499467 -23.59306987 39.38655069 -30.14282227 38.11352539 C-32.14282227 36.11352539 -32.14282227 36.11352539 -32.89282227 32.55102539 C-32.82940127 29.36267888 -32.29930761 28.29030156 -30.15454102 25.86743164 C-28.39934946 24.33064025 -26.61646993 22.82504252 -24.81079102 21.34790039 C-22.38649531 19.31759711 -20.41594402 17.28217882 -18.39282227 14.86352539 C-15.55234166 11.49628899 -12.57283866 8.87245162 -9.14282227 6.11352539 C-7.45753538 4.46568933 -5.7858518 2.80349862 -4.14282227 1.11352539 C-3.14282227 0.11352539 -3.14282227 0.11352539 0 0 Z " fill="#FEFAF9" transform="translate(91.142822265625,77.886474609375)"/>
<path d="M0 0 C2.95062314 0.72939932 3.94222678 1.09066428 6.13671875 3.28515625 C6.73648065 7.54088925 6.48440399 10.28339198 3.99829102 13.74194336 C3.0067673 14.95180273 1.98990557 16.14119089 0.953125 17.3125 C0.3983548 17.94759491 -0.15641541 18.58268982 -0.72799683 19.23703003 C-2.55029036 21.26859174 -4.41400033 23.2509108 -6.30078125 25.22265625 C-6.93422455 25.89179047 -7.56766785 26.56092468 -8.2203064 27.25033569 C-16.09469958 35.34256873 -22.88091457 40.73797923 -34.43293762 41.29414368 C-41.63669093 41.34072624 -48.77945767 40.55409167 -55.86328125 39.28515625 C-19.39812781 -3.42193504 -19.39812781 -3.42193504 0 0 Z " fill="#FEFCFC" transform="translate(172.86328125,76.71484375)"/>
<path d="M0 0 C1.49105003 -0.00422974 1.49105003 -0.00422974 3.01222229 -0.00854492 C4.0965152 -0.00652069 5.18080811 -0.00449646 6.29795837 -0.00241089 C7.44464493 -0.00416321 8.59133148 -0.00591553 9.77276611 -0.00772095 C13.56755583 -0.01212649 17.36229904 -0.00920619 21.15708923 -0.00582886 C23.78977467 -0.00650222 26.42246004 -0.00747252 29.05514526 -0.00872803 C34.57391363 -0.01054664 40.0926686 -0.00815122 45.61143494 -0.00338745 C51.99279987 0.00205727 58.37413287 0.00028975 64.75549704 -0.00521386 C70.89469518 -0.01029674 77.03387916 -0.00976126 83.17307854 -0.00683212 C85.78584739 -0.00616368 88.39861706 -0.0069884 91.01138496 -0.00931168 C94.65771287 -0.01184249 98.30397885 -0.00799158 101.95030212 -0.00241089 C103.57977783 -0.00544724 103.57977783 -0.00544724 105.24217224 -0.00854492 C106.23338577 -0.0057251 107.2245993 -0.00290527 108.24584961 0 C109.53916749 0.00056554 109.53916749 0.00056554 110.85861301 0.0011425 C113.05943298 0.12698364 113.05943298 0.12698364 116.05943298 1.12698364 C116.05943298 1.78698364 116.05943298 2.44698364 116.05943298 3.12698364 C118.03943298 3.62198364 118.03943298 3.62198364 120.05943298 4.12698364 C119.39943298 5.11698364 118.73943298 6.10698364 118.05943298 7.12698364 C117.30336258 6.80297577 116.54729218 6.4789679 115.76831055 6.1451416 C110.71101599 4.75681734 105.93908163 4.83201073 100.71739197 4.8364563 C99.58337952 4.82973907 98.44936707 4.82302185 97.2809906 4.81610107 C93.53912456 4.79713002 89.79743785 4.79319778 86.05552673 4.79104614 C83.45291063 4.78461939 80.85029525 4.77789112 78.24768066 4.77087402 C72.79632907 4.75810374 67.34502603 4.75510729 61.8936615 4.75637817 C55.59736828 4.75758109 49.301417 4.73644295 43.00521034 4.70489085 C36.93859939 4.67557592 30.87217412 4.66840222 24.80548286 4.66959763 C22.22784589 4.66723516 19.65020647 4.65837558 17.07261467 4.64293289 C13.47214539 4.62337551 9.87256248 4.62907067 6.27207947 4.6411438 C5.20544571 4.62990479 4.13881195 4.61866577 3.03985596 4.60708618 C-2.81691352 4.64916298 -2.81691352 4.64916298 -8.07885742 7.03234863 C-11.46863711 10.84623627 -11.15183727 14.30845649 -11.25697327 19.19729614 C-11.27775436 19.99352386 -11.29853546 20.78975159 -11.31994629 21.61010742 C-11.38540851 24.1573105 -11.44431117 26.7046179 -11.50306702 29.25198364 C-11.54625541 30.97725491 -11.58986981 32.70251557 -11.63392639 34.42776489 C-11.74108646 38.66073049 -11.84236325 42.89380117 -11.94056702 47.12698364 C-12.60056702 47.12698364 -13.26056702 47.12698364 -13.94056702 47.12698364 C-14.27056702 47.78698364 -14.60056702 48.44698364 -14.94056702 49.12698364 C-16.15936714 45.47058328 -16.10281492 42.09099028 -16.10853577 38.28323364 C-16.11186417 37.51773193 -16.11519257 36.75223022 -16.11862183 35.96353149 C-16.12368054 34.34630941 -16.12603048 32.72907691 -16.12586975 31.11184692 C-16.12805882 28.63624957 -16.14623235 26.16109607 -16.16517639 23.68557739 C-16.16811 22.11396433 -16.17009501 20.54234916 -16.17103577 18.97073364 C-16.17822128 18.23004639 -16.1854068 17.48935913 -16.19281006 16.72622681 C-16.17610548 12.97543351 -16.07551845 11.32941079 -13.94056702 8.12698364 C-13.28056702 8.12698364 -12.62056702 8.12698364 -11.94056702 8.12698364 C-11.94056702 7.13698364 -11.94056702 6.14698364 -11.94056702 5.12698364 C-11.28056702 4.79698364 -10.62056702 4.46698364 -9.94056702 4.12698364 C-9.61056702 3.13698364 -9.28056702 2.14698364 -8.94056702 1.12698364 C-6.00303399 -0.01130895 -3.12274631 0.00136491 0 0 Z " fill="#FCFBFB" transform="translate(64.94056701660156,67.87301635742188)"/>
<path d="M0 0 C0.86091311 -0.0015081 1.72182621 -0.0030162 2.60882759 -0.00457001 C3.59859596 -0.0158493 4.58836433 -0.0271286 5.60812569 -0.03874969 C6.69287178 -0.03065277 7.77761787 -0.02255585 8.89523506 -0.01421356 C10.61022697 -0.02472748 10.61022697 -0.02472748 12.35986519 -0.0354538 C16.15070866 -0.05310187 19.94080937 -0.04138458 23.73166084 -0.02788544 C26.36098563 -0.03057874 28.99030945 -0.03445981 31.61963081 -0.03948212 C37.13606027 -0.04676191 42.65227561 -0.03716451 48.16867256 -0.01811981 C54.54162031 0.00362831 60.91405577 -0.0033856 67.286991 -0.02542543 C73.42037158 -0.04578624 79.55352555 -0.04360282 85.68692589 -0.0318985 C88.2952513 -0.02922807 90.90358976 -0.03251201 93.51189995 -0.04181671 C97.15826019 -0.05196723 100.80363571 -0.03649915 104.44992256 -0.01421356 C105.53062019 -0.02231049 106.61131783 -0.03040741 107.72476387 -0.03874969 C115.04436658 0.04419114 115.04436658 0.04419114 118.94897652 2.4107132 C122.36036938 6.26331339 121.93229974 9.6545403 121.89962959 14.57367706 C121.89821465 15.36990479 121.8967997 16.16613251 121.89534187 16.98648834 C121.88973679 19.53381836 121.87718348 22.08106103 121.86447334 24.62836456 C121.859459 26.35362371 121.85489598 28.07888424 121.85080147 29.80414581 C121.83976572 34.03725247 121.82249771 38.2702937 121.80197334 42.50336456 C119.82197334 42.50336456 117.84197334 42.50336456 115.80197334 42.50336456 C115.81768379 41.48911407 115.83339424 40.47486359 115.84958076 39.42987823 C115.90387653 35.66726369 115.93832185 31.90468378 115.96676826 28.1417923 C115.98185578 26.51315233 116.00232841 24.884553 116.0282917 23.25605011 C116.06467783 20.91520921 116.08169954 18.57490538 116.09494209 16.23383331 C116.11042595 15.50560867 116.12590981 14.77738403 116.14186287 14.02709198 C116.16909389 10.24587528 116.16909389 10.24587528 114.77037239 6.81403351 C111.71000173 4.77626948 108.52386862 5.06422198 104.96701241 5.07099152 C104.16780876 5.06079987 103.36860512 5.05060822 102.54518318 5.04010773 C99.88591783 5.00979179 97.22701462 5.00066233 94.56759834 4.99164581 C92.69557736 4.97476533 90.82356747 4.95661066 88.95157051 4.93724823 C83.99209369 4.8895687 79.03266125 4.85994004 74.07303047 4.8338089 C69.15054614 4.80457055 64.22823869 4.75751343 59.30587959 4.71234894 C37.80471489 4.52357918 16.30390026 4.45324748 -5.19802666 4.50336456 C-2.85137629 0.65298652 -2.85137629 0.65298652 0 0 Z " fill="#242023" transform="translate(63.19802665710449,72.49663543701172)"/>
<path d="M0 0 C0.33 0 0.66 0 1 0 C1.07405887 4.66305038 1.12855763 9.32575984 1.16479492 13.98925781 C1.17989814 15.57623251 1.20038223 17.16316537 1.22631836 18.75 C1.26263595 21.02875073 1.27971023 23.30695058 1.29296875 25.5859375 C1.30845261 26.29744965 1.32393646 27.00896179 1.33988953 27.74203491 C1.34057617 29.74365234 1.34057617 29.74365234 1 33 C-2.54013225 35.36008817 -4.01121955 35.23463644 -8.19921875 35.1953125 C-9.40771484 35.18886719 -10.61621094 35.18242188 -11.86132812 35.17578125 C-13.7552832 35.15064453 -13.7552832 35.15064453 -15.6875 35.125 C-16.96173828 35.11597656 -18.23597656 35.10695312 -19.54882812 35.09765625 C-22.69940627 35.07405641 -25.84960983 35.04113194 -29 35 C-25.437378 30.63624324 -21.67834679 26.641776 -17.63671875 22.71484375 C-17.15631134 22.24704498 -16.67590393 21.77924622 -16.18093872 21.29727173 C-14.1761012 19.34651508 -12.17013099 17.39751602 -10.14526367 15.4675293 C-8.65161852 14.04061794 -7.17453063 12.59817108 -5.69921875 11.15234375 C-4.82096436 10.30663818 -3.94270996 9.46093262 -3.0378418 8.58959961 C-0.7255557 5.65124827 -0.28389603 3.68527286 0 0 Z " fill="#FA5555" transform="translate(179,81)"/>
<path d="M0 0 C2.79736328 -0.34057617 2.79736328 -0.34057617 6.3203125 -0.29296875 C7.57714844 -0.28330078 8.83398438 -0.27363281 10.12890625 -0.26367188 C12.10697266 -0.2259668 12.10697266 -0.2259668 14.125 -0.1875 C15.46482903 -0.17245483 16.80467404 -0.15876613 18.14453125 -0.14648438 C21.43008842 -0.11102872 24.71484582 -0.06160849 28 0 C27.04746129 1.11638593 26.09419504 2.23215112 25.140625 3.34765625 C24.60985352 3.96906494 24.07908203 4.59047363 23.53222656 5.23071289 C21.77193996 7.26334467 20.00717389 9.20788046 18 11 C17.34 11 16.68 11 16 11 C15.7525 11.57234375 15.505 12.1446875 15.25 12.734375 C13.80683801 15.35010611 12.11783778 17.14773456 10 19.25 C9.29875 19.95640625 8.5975 20.6628125 7.875 21.390625 C6 23 6 23 4 23 C3.71125 23.639375 3.4225 24.27875 3.125 24.9375 C2 27 2 27 0 28 C-0.40729228 30.32156597 -0.74438677 32.6568787 -1 35 C-1.33 35 -1.66 35 -2 35 C-2.04944705 30.49765627 -2.08574161 25.9954707 -2.10986328 21.49291992 C-2.11991935 19.96131639 -2.133566 18.42973205 -2.15087891 16.89819336 C-2.17514498 14.69640364 -2.18648688 12.49486781 -2.1953125 10.29296875 C-2.20563507 9.60849167 -2.21595764 8.92401459 -2.22659302 8.21879578 C-2.22745382 4.56938339 -2.08567666 3.12851498 0 0 Z " fill="#FB5555" transform="translate(60,78)"/>
<path d="M0 0 C3.63 0 7.26 0 11 0 C11 11.88 11 23.76 11 36 C7.37 36 3.74 36 0 36 C0 24.12 0 12.24 0 0 Z " fill="#D0CFD2" transform="translate(78,122)"/>
<path d="M0 0 C3.3 0 6.6 0 10 0 C10 11.55 10 23.1 10 35 C6.7 35 3.4 35 0 35 C0 23.45 0 11.9 0 0 Z " fill="#D5D6DA" transform="translate(150,122)"/>
<path d="M0 0 C1.14204391 -0.00073013 2.28408783 -0.00146027 3.46073914 -0.00221252 C7.22707991 0.0012646 10.99217663 0.04013504 14.75830078 0.0793457 C17.37288741 0.0886733 19.9874828 0.09578966 22.6020813 0.1007843 C28.77509807 0.11629961 34.94766993 0.15729593 41.12049115 0.20753175 C48.15066326 0.26349794 55.18085708 0.29092987 62.21119666 0.31600893 C76.66723127 0.36821439 91.12291605 0.45611111 105.57861328 0.56762695 C105.57861328 0.89762695 105.57861328 1.22762695 105.57861328 1.56762695 C104.68462924 1.57259217 104.68462924 1.57259217 103.77258492 1.5776577 C89.28453121 1.65880574 74.7965775 1.75087105 60.30867195 1.85515404 C53.3024833 1.90531962 46.29630658 1.95176195 39.29003906 1.98950195 C32.53376918 2.02590569 25.77764332 2.07260194 19.02148056 2.12569046 C16.43861 2.14428152 13.85571187 2.15937187 11.27280045 2.17097092 C7.6664326 2.18775288 4.06036174 2.21676822 0.45410156 2.2487793 C-0.62339355 2.25093948 -1.70088867 2.25309967 -2.81103516 2.25532532 C-3.78982635 2.2664888 -4.76861755 2.27765228 -5.77706909 2.28915405 C-6.63064939 2.29468481 -7.4842297 2.30021557 -8.36367607 2.30591393 C-10.64456699 2.38264704 -10.64456699 2.38264704 -12.42138672 4.56762695 C-11.7502182 4.56500854 -11.07904968 4.56239014 -10.38754272 4.55969238 C13.06733648 4.48258553 36.51564731 4.74308296 59.96844482 5.03118896 C65.01817283 5.09282767 70.06792533 5.1523916 75.11767578 5.2121582 C84.93801254 5.32867908 94.75832122 5.44740175 104.57861328 5.56762695 C104.57861328 5.89762695 104.57861328 6.22762695 104.57861328 6.56762695 C66.29861328 6.89762695 28.01861328 7.22762695 -11.42138672 7.56762695 C-12.78978034 10.3044142 -12.63773489 12.61027119 -12.73779297 15.66918945 C-12.7796875 16.8809082 -12.82158203 18.09262695 -12.86474609 19.34106445 C-12.9040625 20.61208008 -12.94337891 21.8830957 -12.98388672 23.19262695 C-13.04866211 25.11075195 -13.04866211 25.11075195 -13.11474609 27.06762695 C-13.22108558 30.23418043 -13.32311505 33.40081448 -13.42138672 36.56762695 C-15.65551685 33.21643176 -15.65986434 32.14985145 -15.61669922 28.2434082 C-15.61025391 27.21538086 -15.60380859 26.18735352 -15.59716797 25.12817383 C-15.57203125 23.52039063 -15.57203125 23.52039063 -15.54638672 21.88012695 C-15.53736328 20.79666992 -15.52833984 19.71321289 -15.51904297 18.59692383 C-15.49546011 15.92026985 -15.46254798 13.24405898 -15.42138672 10.56762695 C-16.08138672 10.56762695 -16.74138672 10.56762695 -17.42138672 10.56762695 C-17.79638672 8.38012695 -17.79638672 8.38012695 -17.42138672 5.56762695 C-12.27330551 -0.31759015 -7.50530541 -0.12580201 0 0 Z " fill="#532F34" transform="translate(71.42138671875,71.432373046875)"/>
<path d="M0 0 C-3.72965139 2.03435531 -5.66905042 3 -10 3 C-10 14.22 -10 25.44 -10 37 C-11.485 37.495 -11.485 37.495 -13 38 C-14.15521502 40.47130918 -14.15521502 40.47130918 -15 43 C-17.41039182 45.41039182 -23.4547315 44.28167258 -26.6875 44.3125 C-27.68201172 44.34150391 -28.67652344 44.37050781 -29.70117188 44.40039062 C-35.80414599 44.45317749 -39.39175528 44.13178646 -44 40 C-46.46105545 36.30841682 -46.25575793 33.53376446 -46.1953125 29.26953125 C-46.1924826 28.51911057 -46.18965271 27.76868988 -46.18673706 26.99552917 C-46.17555062 24.60102325 -46.15044928 22.20689269 -46.125 19.8125 C-46.11496819 18.18815645 -46.10584269 16.56380703 -46.09765625 14.93945312 C-46.07561637 10.959491 -46.0410974 6.97980912 -46 3 C-50.82398914 3.11795429 -55.64775958 3.24218018 -60.47143555 3.37231445 C-62.11364303 3.41572297 -63.75589739 3.45739358 -65.39819336 3.49731445 C-67.75388745 3.5548744 -70.10934428 3.61860892 -72.46484375 3.68359375 C-73.20339096 3.70030624 -73.94193817 3.71701874 -74.7028656 3.73423767 C-78.14300627 3.53548013 -78.14300627 3.53548013 -81 5 C-81.09774397 7.3056969 -81.13206721 9.61412309 -81.140625 11.921875 C-81.15896085 13.35418247 -81.17853188 14.78647456 -81.19921875 16.21875 C-81.22813887 18.48138157 -81.24999849 20.74303127 -81.25048828 23.00585938 C-81.25383372 25.18708807 -81.28845071 27.36604269 -81.328125 29.546875 C-81.3374707 30.85495117 -81.34681641 32.16302734 -81.35644531 33.51074219 C-82.14521204 37.78731811 -83.70353182 39.27193356 -87 42 C-87.66 41.67 -88.32 41.34 -89 41 C-88.18958252 40.1754834 -87.37916504 39.3509668 -86.54418945 38.50146484 C-83.56213465 34.90574953 -83.26711826 31.53617059 -83.29296875 26.9765625 C-83.27834595 26.31422607 -83.26372314 25.65188965 -83.24865723 24.96948242 C-83.20168671 22.52168736 -83.19701592 20.07322719 -83.1875 17.625 C-83.125625 12.13875 -83.06375 6.6525 -83 1 C-70.46 1 -57.92 1 -45 1 C-44.8125 17.625 -44.8125 17.625 -44.79223633 22.83837891 C-44.76576651 24.21781186 -44.73748401 25.59721173 -44.70703125 26.9765625 C-44.71101929 27.67998779 -44.71500732 28.38341309 -44.71911621 29.1081543 C-44.55648176 34.80135798 -42.89253567 37.13729078 -39 41 C-35.63078823 42.68460589 -31.8890138 42.31092974 -28.1875 42.375 C-27.37990234 42.41238281 -26.57230469 42.44976562 -25.74023438 42.48828125 C-21.2667486 42.55422944 -19.57757212 42.47194609 -15.98828125 39.5390625 C-15.33214844 38.70117188 -14.67601562 37.86328125 -14 37 C-13.67 36.67 -13.34 36.34 -13 36 C-12.84003834 33.40846893 -12.74061303 30.8404798 -12.68359375 28.24609375 C-12.6524221 27.08292381 -12.6524221 27.08292381 -12.62062073 25.89625549 C-12.55504198 23.41009692 -12.49620201 20.92382955 -12.4375 18.4375 C-12.39432267 16.75584796 -12.35070864 15.07420706 -12.30664062 13.39257812 C-12.19935221 9.26183129 -12.09810868 5.13097464 -12 1 C-10.37681021 0.63762737 -8.7513642 0.28534843 -7.125 -0.0625 C-6.22007812 -0.25972656 -5.31515625 -0.45695312 -4.3828125 -0.66015625 C-2 -1 -2 -1 0 0 Z " fill="#EC9F88" transform="translate(183,126)"/>
<path d="M0 0 C1.02205032 -0.00708481 2.04410065 -0.01416962 3.09712219 -0.02146912 C4.22286652 -0.0189917 5.34861084 -0.01651428 6.50846863 -0.01396179 C7.69066483 -0.01907272 8.87286102 -0.02418365 10.09088135 -0.02944946 C13.33897645 -0.04099252 16.58691383 -0.04341485 19.83502412 -0.04088616 C22.54615586 -0.03981784 25.25726396 -0.04469651 27.96839064 -0.04949158 C34.36620798 -0.0605974 40.76396662 -0.06101885 47.16178894 -0.05497742 C53.76013497 -0.04894229 60.35826752 -0.06123429 66.95657712 -0.08254749 C72.62120606 -0.10017151 78.28576712 -0.1061634 83.95042247 -0.10290974 C87.33371477 -0.10109723 90.71685497 -0.1037292 94.10012245 -0.11762428 C97.87572856 -0.12993931 101.65083939 -0.12322561 105.42643738 -0.11161804 C107.10594482 -0.12308365 107.10594482 -0.12308365 108.81938171 -0.13478088 C110.36514641 -0.12425941 110.36514641 -0.12425941 111.94213867 -0.11352539 C112.83460202 -0.11369313 113.72706537 -0.11386087 114.64657307 -0.1140337 C118.95068599 0.52727797 121.53084366 2.53989511 124.3490448 5.76069641 C127.85154346 10.59172905 128.46920624 13.58584344 128.46232605 19.43647766 C128.46661118 20.23925644 128.4708963 21.04203522 128.47531128 21.86914062 C128.48105304 23.56792763 128.48155597 25.26673922 128.47721863 26.9655304 C128.47406904 29.55328377 128.49748244 32.13988212 128.52287292 34.72749329 C128.52514711 36.38048664 128.52584886 38.03348306 128.52482605 39.68647766 C128.5340358 40.45542862 128.54324554 41.22437958 128.55273438 42.01663208 C128.51165173 46.83559011 127.70110588 50.02473706 125.1615448 54.26069641 C124.8315448 54.26069641 124.5015448 54.26069641 124.1615448 54.26069641 C124.39925598 52.78621033 124.39925598 52.78621033 124.64176941 51.28193665 C125.22843831 47.16077984 125.38269552 43.07848805 125.47795105 38.92085266 C125.5091227 37.77041725 125.5091227 37.77041725 125.54092407 36.59674072 C125.60575311 34.17230769 125.66499101 31.74777628 125.7240448 29.32319641 C125.76729359 27.6688898 125.81090979 26.01459274 125.85490417 24.36030579 C125.96136504 20.32720075 126.06281542 16.29399782 126.1615448 12.26069641 C125.1715448 12.26069641 124.1815448 12.26069641 123.1615448 12.26069641 C123.1615448 23.48069641 123.1615448 34.70069641 123.1615448 46.26069641 C122.8315448 46.26069641 122.5015448 46.26069641 122.1615448 46.26069641 C122.14172546 45.25168274 122.12190613 44.24266907 122.10148621 43.20307922 C122.02531144 39.45315445 121.93661264 35.7036117 121.84416199 31.95405579 C121.80592122 30.33238782 121.77105977 28.71063645 121.7396698 27.08882141 C121.69391223 24.75518524 121.63593664 22.42212079 121.5756073 20.08882141 C121.55828049 19.00422638 121.55828049 19.00422638 121.54060364 17.89772034 C121.43301302 14.21346433 121.18432591 11.39778149 119.1615448 8.26069641 C119.8215448 7.27069641 120.4815448 6.28069641 121.1615448 5.26069641 C120.1715448 4.93069641 119.1815448 4.60069641 118.1615448 4.26069641 C118.1615448 3.60069641 118.1615448 2.94069641 118.1615448 2.26069641 C76.9115448 2.26069641 35.6615448 2.26069641 -6.8384552 2.26069641 C-4.31745242 -0.26030637 -3.48837166 0.00803423 0 0 Z " fill="#F6EDE6" transform="translate(62.83845520019531,66.73930358886719)"/>
<path d="M0 0 C0.66 0 1.32 0 2 0 C1.67 1.32 1.34 2.64 1 4 C0.34 4 -0.32 4 -1 4 C-1 4.99 -1 5.98 -1 7 C-1.66 7 -2.32 7 -3 7 C-4.23180134 10.69540402 -4.12412112 14.10303378 -4.09765625 17.94921875 C-4.0962413 18.72183548 -4.09482635 19.49445221 -4.09336853 20.29048157 C-4.08777466 22.75619389 -4.07522333 25.22181515 -4.0625 27.6875 C-4.05748421 29.36002473 -4.05292144 31.03255088 -4.04882812 32.70507812 C-4.03780724 36.80342046 -4.02054684 40.90169479 -4 45 C-2.68 45 -1.36 45 0 45 C2.125 47.9375 2.125 47.9375 4 51 C4.66 51.33 5.32 51.66 6 52 C6 52.99 6 53.98 6 55 C6.99 55 7.98 55 9 55 C9 55.99 9 56.98 9 58 C10.32 58 11.64 58 13 58 C13.02505615 59.00901367 13.0501123 60.01802734 13.07592773 61.05761719 C13.17022409 64.80741696 13.27039021 68.55704108 13.37231445 72.30664062 C13.41557931 73.92834357 13.45726028 75.55008958 13.49731445 77.171875 C13.55522214 79.50534027 13.61885698 81.83859043 13.68359375 84.171875 C13.70030624 84.89493835 13.71701874 85.61800171 13.73423767 86.36297607 C13.83202649 89.69890556 13.9845665 92.80554016 15 96 C14.34 96 13.68 96 13 96 C11.78922299 92.36766898 11.87555836 89.04878013 11.90234375 85.26953125 C11.9037587 84.51911057 11.90517365 83.76868988 11.90663147 82.99552917 C11.9122244 80.6011454 11.92477556 78.20685547 11.9375 75.8125 C11.94251592 74.18815239 11.94707866 72.56380332 11.95117188 70.93945312 C11.96219152 66.95959931 11.97945127 62.97981556 12 59 C10.89068115 58.85506104 9.7813623 58.71012207 8.63842773 58.56079102 C4.14511074 57.86823588 1.79128641 56.39856895 -2 54 C-2 53.34 -2 52.68 -2 52 C-2.66 52 -3.32 52 -4 52 C-7.65771958 44.68456084 -7.5248286 37.30681938 -7.50097656 29.30957031 C-7.50000194 27.00459647 -7.54175243 24.70293431 -7.5859375 22.3984375 C-7.64828195 14.62054566 -7.63670072 7.97438325 -2 2 C-1.34 1.34 -0.68 0.68 0 0 Z " fill="#F4DCD2" transform="translate(54,69)"/>
<path d="M0 0 C3.96 0 7.92 0 12 0 C12 12.87 12 25.74 12 39 C10.02 39.495 10.02 39.495 8 40 C7 39 7 39 6.88647461 35.76538086 C6.88663369 34.33185874 6.89232593 32.89833088 6.90234375 31.46484375 C6.9037587 30.71159317 6.90517365 29.95834259 6.90663147 29.18226624 C6.91224624 26.7673044 6.92480117 24.35243399 6.9375 21.9375 C6.9425131 20.30403779 6.94707634 18.67057414 6.95117188 17.03710938 C6.96222046 13.02470415 6.97949494 9.01236759 7 5 C5.68 5 4.36 5 3 5 C3 4.01 3 3.02 3 2 C2.01 2 1.02 2 0 2 C0 1.34 0 0.68 0 0 Z " fill="#FEFCFA" transform="translate(60,122)"/>
<path d="M0 0 C4.62615185 4.71950469 6.14019802 10.42319807 8.125 16.5625 C8.47175781 17.58408203 8.81851563 18.60566406 9.17578125 19.65820312 C13.24000642 31.99881019 14.4059026 43.72614759 14.375 56.6875 C14.37617828 57.73942032 14.37617828 57.73942032 14.37738037 58.81259155 C14.34429853 83.48355221 14.34429853 83.48355221 8 93 C8.12375 91.865625 8.2475 90.73125 8.375 89.5625 C8.50841797 88.31533203 8.50841797 88.31533203 8.64453125 87.04296875 C8.9026447 84.83340415 9.19644043 82.62791609 9.51171875 80.42578125 C12.88644286 56.25473155 12.63666259 29.99864596 1.35546875 7.7578125 C-0.06292695 4.87196995 -0.27922036 3.16449746 0 0 Z " fill="#EFA890" transform="translate(224,63)"/>
<path d="M0 0 C1.1171875 1.734375 1.1171875 1.734375 2 4 C1.3203125 6.140625 1.3203125 6.140625 0.125 8.25 C-0.26429687 8.95640625 -0.65359375 9.6628125 -1.0546875 10.390625 C-1.36664063 10.92171875 -1.67859375 11.4528125 -2 12 C-2.66 12 -3.32 12 -4 12 C-4.1546875 13.7634375 -4.1546875 13.7634375 -4.3125 15.5625 C-4.82223017 19.76592702 -6.33212739 23.10829724 -8 27 C-8.46761011 29.66251469 -8.72155538 32.30836864 -9 35 C-9.495 35.495 -9.495 35.495 -10 36 C-11.06574216 42.44698953 -11.15104109 48.78920789 -11.125 55.3125 C-11.12886719 56.30056641 -11.13273438 57.28863281 -11.13671875 58.30664062 C-11.13542969 59.25345703 -11.13414063 60.20027344 -11.1328125 61.17578125 C-11.13168457 62.03083252 -11.13055664 62.88588379 -11.12939453 63.7668457 C-11.08740773 66.17247884 -11.08740773 66.17247884 -10 69 C-9.93029948 71.39490986 -9.91551997 73.79167691 -9.9375 76.1875 C-9.94652344 77.45980469 -9.95554687 78.73210937 -9.96484375 80.04296875 C-9.97644531 81.01878906 -9.98804688 81.99460937 -10 83 C-10.99 83.495 -10.99 83.495 -12 84 C-14.09365238 75.78597973 -14.34959827 67.82280669 -14.3125 59.375 C-14.31034485 58.7094812 -14.3081897 58.0439624 -14.30596924 57.35827637 C-14.20148904 37.26063433 -10.01103083 17.63004545 0 0 Z " fill="#F0AA93" transform="translate(14,61)"/>
<path d="M0 0 C-3.72965139 2.03435531 -5.66905042 3 -10 3 C-10 14.22 -10 25.44 -10 37 C-10.99 37.33 -11.98 37.66 -13 38 C-14.15521502 40.47130918 -14.15521502 40.47130918 -15 43 C-17.41039182 45.41039182 -23.4547315 44.28167258 -26.6875 44.3125 C-27.68201172 44.34150391 -28.67652344 44.37050781 -29.70117188 44.40039062 C-35.76317244 44.4528231 -39.45196733 44.16966056 -44 40 C-44.875 37.25 -44.875 37.25 -45 35 C-44.236875 35.78375 -43.47375 36.5675 -42.6875 37.375 C-37.71981348 42.22715893 -34.70325711 42.39043775 -28.125 42.4375 C-27.32191406 42.47037109 -26.51882812 42.50324219 -25.69140625 42.53710938 C-21.23968067 42.57744626 -19.55815827 42.45739983 -15.9921875 39.53515625 C-15.00605469 38.28025391 -15.00605469 38.28025391 -14 37 C-13.67 36.67 -13.34 36.34 -13 36 C-12.84003834 33.40846893 -12.74061303 30.8404798 -12.68359375 28.24609375 C-12.66281265 27.47064713 -12.64203156 26.6952005 -12.62062073 25.89625549 C-12.55504198 23.41009692 -12.49620201 20.92382955 -12.4375 18.4375 C-12.39432267 16.75584796 -12.35070864 15.07420706 -12.30664062 13.39257812 C-12.19935221 9.26183129 -12.09810868 5.13097464 -12 1 C-10.37681021 0.63762737 -8.7513642 0.28534843 -7.125 -0.0625 C-6.22007812 -0.25972656 -5.31515625 -0.45695312 -4.3828125 -0.66015625 C-2 -1 -2 -1 0 0 Z " fill="#EDA791" transform="translate(183,126)"/>
<path d="M0 0 C2.79736328 -0.34057617 2.79736328 -0.34057617 6.3203125 -0.29296875 C7.57714844 -0.28330078 8.83398438 -0.27363281 10.12890625 -0.26367188 C12.10697266 -0.2259668 12.10697266 -0.2259668 14.125 -0.1875 C15.46482903 -0.17245483 16.80467404 -0.15876613 18.14453125 -0.14648438 C21.43008842 -0.11102872 24.71484582 -0.06160849 28 0 C27.02433888 1.16959987 26.044375 2.33561177 25.0625 3.5 C24.51722656 4.1496875 23.97195312 4.799375 23.41015625 5.46875 C22.94480469 5.9740625 22.47945312 6.479375 22 7 C21.67 7 21.34 7 21 7 C21 5.35 21 3.7 21 2 C14.4 2.33 7.8 2.66 1 3 C1 9.27 1 15.54 1 22 C1.99 22.33 2.98 22.66 4 23 C2.25 26.875 2.25 26.875 0 28 C-0.40729228 30.32156597 -0.74438677 32.6568787 -1 35 C-1.33 35 -1.66 35 -2 35 C-2.04944705 30.49765627 -2.08574161 25.9954707 -2.10986328 21.49291992 C-2.11991935 19.96131639 -2.133566 18.42973205 -2.15087891 16.89819336 C-2.17514498 14.69640364 -2.18648688 12.49486781 -2.1953125 10.29296875 C-2.20563507 9.60849167 -2.21595764 8.92401459 -2.22659302 8.21879578 C-2.22745382 4.56938339 -2.08567666 3.12851498 0 0 Z " fill="#E45C5E" transform="translate(60,78)"/>
<path d="M0 0 C1.48493202 -0.00618599 1.48493202 -0.00618599 2.99986267 -0.01249695 C4.07951797 -0.00171112 5.15917328 0.00907471 6.27154541 0.02018738 C7.41329727 0.0197493 8.55504913 0.01931122 9.73139954 0.01885986 C13.50830131 0.02095121 17.28476016 0.04429941 21.06158447 0.0677948 C23.67903399 0.0733895 26.29648665 0.07766019 28.91394043 0.08065796 C35.10105313 0.08997903 41.28800663 0.11459352 47.47504926 0.14470643 C54.51972551 0.17824861 61.5644094 0.19473597 68.60914564 0.20979273 C83.09858234 0.2411431 97.58789368 0.29390474 112.07720947 0.36076355 C112.07720947 0.69076355 112.07720947 1.02076355 112.07720947 1.36076355 C111.4830637 1.36130832 110.88891792 1.36185308 110.27676773 1.36241436 C95.8213255 1.37738024 81.36615721 1.41981899 66.91089249 1.49285412 C59.92039753 1.5275107 52.9300999 1.55286048 45.93951416 1.55632019 C39.19605281 1.55968371 32.45316304 1.58895664 25.70983124 1.63419533 C23.13420246 1.64720801 20.55851439 1.65146478 17.98285675 1.64691734 C14.3812721 1.64203849 10.78115329 1.66798626 7.17974854 1.70133972 C6.10944397 1.69271408 5.0391394 1.68408844 3.93640137 1.67520142 C-1.89609292 1.60290876 -1.89609292 1.60290876 -6.42919922 4.90197754 C-6.92208435 5.71337692 -7.41496948 6.52477631 -7.92279053 7.36076355 C-8.91279053 7.36076355 -9.90279053 7.36076355 -10.92279053 7.36076355 C-8.73027522 2.06218489 -5.71608332 -0.01839941 0 0 Z " fill="#3B3C3B" transform="translate(64.92279052734375,71.63923645019531)"/>
<path d="M0 0 C0.99 0.33 1.98 0.66 3 1 C-7.27142444 12.35898702 -23.39123604 25.9837736 -39 28 C-38 25 -38 25 -36.07421875 23.83203125 C-35.28660156 23.49558594 -34.49898437 23.15914062 -33.6875 22.8125 C-32.90761719 22.46832031 -32.12773437 22.12414062 -31.32421875 21.76953125 C-29 21 -29 21 -25 21 C-25 20.01 -25 19.02 -25 18 C-21.535 17.505 -21.535 17.505 -18 17 C-17.814375 16.071875 -17.62875 15.14375 -17.4375 14.1875 C-16 11 -16 11 -12.625 9.1875 C-9 8 -9 8 -6.6875 7.5625 C-4.77233072 7.12642602 -4.77233072 7.12642602 -3.75 4.9375 C-3.5025 4.298125 -3.255 3.65875 -3 3 C-2.34 3 -1.68 3 -1 3 C-0.67 2.01 -0.34 1.02 0 0 Z " fill="#F1AF9A" transform="translate(201,202)"/>
<path d="M0 0 C0.33 0.99 0.66 1.98 1 3 C1.66 3 2.32 3 3 3 C3.01981934 3.64960693 3.03963867 4.29921387 3.06005859 4.96850586 C3.15627933 7.95852522 3.26555899 10.94793648 3.375 13.9375 C3.42140625 15.46987305 3.42140625 15.46987305 3.46875 17.03320312 C3.70785713 23.26991417 4.448593 28.95203532 6 35 C4.35 35.66 2.7 36.32 1 37 C-0.55977064 33.88045872 -0.12104126 30.57040616 -0.09765625 27.1484375 C-0.0962413 26.37440582 -0.09482635 25.60037415 -0.09336853 24.80288696 C-0.08776403 22.32688558 -0.07521083 19.85097412 -0.0625 17.375 C-0.05748558 15.69791797 -0.05292257 14.02083453 -0.04882812 12.34375 C-0.03779315 8.22913194 -0.02052554 4.11458122 0 0 Z " fill="#222326" transform="translate(53,79)"/>
<path d="M0 0 C4.65538533 2.18426535 7.76085447 4.23648445 10 9 C10.69395204 14.2185458 10.69601709 19.32367478 10.5625 24.5793457 C10.50007878 27.05937021 10.48053612 29.53684485 10.46875 32.01757812 C10.4504093 33.60680156 10.42965751 35.19599937 10.40625 36.78515625 C10.39775024 37.51968521 10.38925049 38.25421417 10.38049316 39.01100159 C10.21942246 44.85948067 9.38183025 49.94639815 5.375 54.375 C4.59125 55.24125 3.8075 56.1075 3 57 C2.01 56.67 1.02 56.34 0 56 C0.78375 55.2575 1.5675 54.515 2.375 53.75 C6.93840502 48.96928998 7.33402243 45.2855468 7.40625 38.796875 C7.41765015 38.00025452 7.42905029 37.20363403 7.4407959 36.38287354 C7.45965898 34.69849935 7.47274924 33.01405196 7.48046875 31.32958984 C7.49983512 28.77177608 7.56187498 26.21721266 7.625 23.66015625 C8.00727506 13.74318764 8.00727506 13.74318764 4.03125 4.953125 C3.04235109 3.94713547 2.03630036 2.95708806 1 2 C0.67 1.34 0.34 0.68 0 0 Z " fill="#F1967C" transform="translate(183,68)"/>
<path d="M0 0 C0.66 0 1.32 0 2 0 C2.02505615 0.98919434 2.0501123 1.97838867 2.07592773 2.99755859 C2.16997787 6.66159404 2.27020429 10.32543885 2.37231445 13.98925781 C2.41567241 15.57612657 2.45734687 17.16304224 2.49731445 18.75 C2.55499632 21.02878979 2.61869638 23.30734322 2.68359375 25.5859375 C2.70030624 26.29744965 2.71701874 27.00896179 2.73423767 27.74203491 C2.79721937 31.49660817 2.79721937 31.49660817 4 35 C4.66 35 5.32 35 6 35 C6 35.99 6 36.98 6 38 C6.66 38 7.32 38 8 38 C8 38.66 8 39.32 8 40 C14.6 40 21.2 40 28 40 C24.93191014 43.06808986 21.36031157 42.40823354 17.25 42.4375 C16.45078125 42.47037109 15.6515625 42.50324219 14.828125 42.53710938 C10.64074753 42.57498861 7.86722479 42.34810649 4.546875 39.66015625 C0.2139982 35.13455946 -0.28060422 32.28659172 -0.1953125 26.26953125 C-0.1924826 25.51911057 -0.18965271 24.76868988 -0.18673706 23.99552917 C-0.17555062 21.60102325 -0.15044928 19.20689269 -0.125 16.8125 C-0.11496819 15.18815645 -0.10584269 13.56380703 -0.09765625 11.93945312 C-0.07561637 7.959491 -0.0410974 3.97980912 0 0 Z " fill="#FEE7DB" transform="translate(138,127)"/>
<path d="M0 0 C1.65 0 3.3 0 5 0 C4.38511719 0.68835938 4.38511719 0.68835938 3.7578125 1.390625 C3.21898437 2.00421875 2.68015625 2.6178125 2.125 3.25 C1.59132813 3.85328125 1.05765625 4.4565625 0.5078125 5.078125 C-2.91746634 9.44402445 -3.29728452 13.08867981 -3.265625 18.546875 C-3.26753845 19.27690735 -3.2694519 20.0069397 -3.27142334 20.75909424 C-3.27278197 22.30229029 -3.26910802 23.8454979 -3.26074219 25.38867188 C-3.25009948 27.72813241 -3.26061597 30.06681423 -3.2734375 32.40625 C-3.27211464 33.91146 -3.26954965 35.41666953 -3.265625 36.921875 C-3.26967346 37.611745 -3.27372192 38.30161499 -3.27789307 39.01239014 C-3.23084412 43.99161159 -2.33842634 48.24307062 -1 53 C-0.34 53 0.32 53 1 53 C0.67 53.66 0.34 54.32 0 55 C-4.5586309 51.04918656 -5.81651415 47.31115077 -6.29052734 41.34057617 C-6.31696027 39.99154773 -6.33155037 38.642249 -6.3359375 37.29296875 C-6.3425943 36.56813797 -6.3492511 35.84330719 -6.35610962 35.09651184 C-6.36618786 33.56949379 -6.37092814 32.04243213 -6.37060547 30.51538086 C-6.37496855 28.20415979 -6.41130718 25.89486713 -6.44921875 23.58398438 C-6.50846898 15.54776465 -6.11567952 9.13330225 -2 2 C-1.34 2 -0.68 2 0 2 C0 1.34 0 0.68 0 0 Z " fill="#ED9B7E" transform="translate(51,68)"/>
<path d="M0 0 C1.21864746 -0.00531738 2.43729492 -0.01063477 3.69287109 -0.01611328 C11.39279374 0.04334961 18.70080498 0.79658693 26.25 2.3125 C24.25 4.3125 24.25 4.3125 21.1875 4.5 C18.25 4.3125 18.25 4.3125 17.25 3.3125 C14.65846893 3.15253834 12.0904798 3.05311303 9.49609375 2.99609375 C8.72064713 2.97531265 7.9452005 2.95453156 7.14625549 2.93312073 C4.66009692 2.86754198 2.17382955 2.80870201 -0.3125 2.75 C-1.99415204 2.70682267 -3.67579294 2.66320864 -5.35742188 2.61914062 C-9.48816871 2.51185221 -13.61902536 2.41060868 -17.75 2.3125 C-17.75 2.9725 -17.75 3.6325 -17.75 4.3125 C-25.67 4.8075 -25.67 4.8075 -33.75 5.3125 C-24.43584713 -0.89693525 -10.72322857 0.02314856 0 0 Z " fill="#ECB6A2" transform="translate(118.75,-0.3125)"/>
<path d="M0 0 C0.33 0 0.66 0 1 0 C1.07405887 4.66305038 1.12855763 9.32575984 1.16479492 13.98925781 C1.17989814 15.57623251 1.20038223 17.16316537 1.22631836 18.75 C1.26263595 21.02875073 1.27971023 23.30695058 1.29296875 25.5859375 C1.30845261 26.29744965 1.32393646 27.00896179 1.33988953 27.74203491 C1.34057617 29.74365234 1.34057617 29.74365234 1 33 C-2.54013225 35.36008817 -4.01121955 35.23463644 -8.19921875 35.1953125 C-9.40771484 35.18886719 -10.61621094 35.18242188 -11.86132812 35.17578125 C-13.7552832 35.15064453 -13.7552832 35.15064453 -15.6875 35.125 C-16.96173828 35.11597656 -18.23597656 35.10695312 -19.54882812 35.09765625 C-22.69940627 35.07405641 -25.84960983 35.04113194 -29 35 C-27.35 33.35 -25.7 31.7 -24 30 C-24 31.32 -24 32.64 -24 34 C-17.4 34 -10.8 34 -4 34 C-4 33.34 -4 32.68 -4 32 C-3.01 32 -2.02 32 -1 32 C-0.67 25.07 -0.34 18.14 0 11 C-4 12.5 -4 12.5 -5 15 C-6.32 14.67 -7.64 14.34 -9 14 C-8.43410156 13.49210937 -7.86820313 12.98421875 -7.28515625 12.4609375 C-2.58143124 8.17299363 -2.58143124 8.17299363 0 2.5 C0 1.675 0 0.85 0 0 Z " fill="#C95E61" transform="translate(179,81)"/>
<path d="M0 0 C2.55395487 -0.26711404 4.86274374 -0.34849029 7.4140625 -0.29296875 C8.50852188 -0.28660149 8.50852188 -0.28660149 9.62509155 -0.28010559 C11.95876759 -0.26329353 14.2915844 -0.22563868 16.625 -0.1875 C18.20571671 -0.17245634 19.78644693 -0.15876738 21.3671875 -0.14648438 C25.24512344 -0.11338201 29.12241598 -0.06158404 33 0 C29.5191826 4.1413833 25.98304674 8.13790851 22.125 11.9375 C21.34382813 12.70964844 20.56265625 13.48179688 19.7578125 14.27734375 C19.17773438 14.84582031 18.59765625 15.41429688 18 16 C18 13 18 13 19 11 C19.66 11 20.32 11 21 11 C21.33 9.68 21.66 8.36 22 7 C23.32 6.67 24.64 6.34 26 6 C26 4.68 26 3.36 26 2 C16.76 2.33 7.52 2.66 -2 3 C-1.34 2.01 -0.68 1.02 0 0 Z " fill="#DF6261" transform="translate(121,78)"/>
<path d="M0 0 C0 3.15081975 -0.27898465 4.41847698 -2 7 C-4.125 7.75 -4.125 7.75 -6 8 C-6 9.32 -6 10.64 -6 12 C3.24 11.67 12.48 11.34 22 11 C21.34 11.99 20.68 12.98 20 14 C17.44604513 14.26711404 15.13725626 14.34849029 12.5859375 14.29296875 C11.85629791 14.28872391 11.12665833 14.28447906 10.37490845 14.28010559 C8.04123241 14.26329353 5.7084156 14.22563868 3.375 14.1875 C1.79428329 14.17245634 0.21355307 14.15876738 -1.3671875 14.14648438 C-5.24512344 14.11338201 -9.12241598 14.06158404 -13 14 C-9.81968878 10.2341894 -6.64858175 6.51561011 -3.125 3.0625 C-2.23167969 2.18271484 -2.23167969 2.18271484 -1.3203125 1.28515625 C-0.66675781 0.64900391 -0.66675781 0.64900391 0 0 Z " fill="#EC5B59" transform="translate(97,102)"/>
<path d="M0 0 C0.66 0 1.32 0 2 0 C1.67 1.32 1.34 2.64 1 4 C0.34 4 -0.32 4 -1 4 C-1 4.99 -1 5.98 -1 7 C-1.66 7 -2.32 7 -3 7 C-4.27385127 10.8215538 -4.12353188 14.4068447 -4.09765625 18.38671875 C-4.0962413 19.20372757 -4.09482635 20.02073639 -4.09336853 20.86250305 C-4.08777294 23.47087268 -4.07522129 26.07915634 -4.0625 28.6875 C-4.05748443 30.45637897 -4.05292162 32.22525928 -4.04882812 33.99414062 C-4.03780496 38.32946019 -4.02054338 42.66471552 -4 47 C-5.47070312 45.96557617 -5.47070312 45.96557617 -7 44 C-7.32294224 41.43542552 -7.46801464 39.11787749 -7.46875 36.55078125 C-7.47636353 35.81933395 -7.48397705 35.08788666 -7.49182129 34.33427429 C-7.50262362 32.78514004 -7.50547481 31.23593296 -7.50097656 29.68676758 C-7.50001026 27.33743391 -7.54149366 24.99143492 -7.5859375 22.64257812 C-7.65013799 14.51763752 -7.49450123 8.44610913 -2 2 C-1.34 1.34 -0.68 0.68 0 0 Z " fill="#FEE7DB" transform="translate(54,69)"/>
<path d="M0 0 C3.20560799 3.05989853 4.92852004 5.05220751 5.2746582 9.6418457 C5.29463231 11.15305064 5.30255854 12.66444536 5.30078125 14.17578125 C5.30506638 14.97856003 5.3093515 15.78133881 5.31376648 16.60844421 C5.31950824 18.30723122 5.32001117 20.00604281 5.31567383 21.70483398 C5.31252424 24.29258736 5.33593764 26.87918571 5.36132812 29.46679688 C5.36360231 31.11979023 5.36430406 32.77278665 5.36328125 34.42578125 C5.37709587 35.57920769 5.37709587 35.57920769 5.39118958 36.75593567 C5.35010693 41.5748937 4.53956108 44.76404065 2 49 C1.67 49 1.34 49 1 49 C1.16153564 48.01193359 1.32307129 47.02386719 1.48950195 46.00585938 C2.06256685 41.97538507 2.16157316 37.97234353 2.16796875 33.90625 C2.17129715 33.15589478 2.17462555 32.40553955 2.17805481 31.63244629 C2.18308677 30.05591438 2.1854643 28.47937196 2.18530273 26.90283203 C2.18749391 24.50665643 2.20570188 22.11093846 2.22460938 19.71484375 C2.22754327 18.17448072 2.22952809 16.63411553 2.23046875 15.09375 C2.23765427 14.3862561 2.24483978 13.67876221 2.25224304 12.9498291 C2.23083303 8.2344395 1.45859216 4.43105629 0 0 Z " fill="#FEE7DA" transform="translate(186,72)"/>
<path d="M0 0 C0.66 0.33 1.32 0.66 2 1 C-2.76814854 6.53105231 -9.18188945 8.19111353 -16 10 C-16 10.66 -16 11.32 -16 12 C-17.63064764 13.05771739 -19.30280873 14.05273046 -21 15 C-21.99 15.66 -22.98 16.32 -24 17 C-26.1875 16.625 -26.1875 16.625 -28 16 C-19.45970077 9.28976489 -10.37920634 3.45973545 0 0 Z " fill="#F4B9A4" transform="translate(74,8)"/>
<path d="M0 0 C8.66145669 3.44112049 15.1956265 15.33588037 20 23 C20.33 23.99 20.66 24.98 21 26 C20.34 26.33 19.68 26.66 19 27 C17.99126984 25.73608512 16.99328178 24.46359117 16 23.1875 C15.443125 22.47980469 14.88625 21.77210937 14.3125 21.04296875 C13 19 13 19 13 16 C12.01 16 11.02 16 10 16 C7 10.25 7 10.25 7 8 C6.01 8 5.02 8 4 8 C3.34 6.35 2.68 4.7 2 3 C1.34 3 0.68 3 0 3 C0 2.01 0 1.02 0 0 Z " fill="#EFAA94" transform="translate(201,33)"/>
<path d="M0 0 C4.7376389 4.78032033 6.23712647 10.75263698 8.25 17 C8.61351562 18.08023438 8.97703125 19.16046875 9.3515625 20.2734375 C12.23163 29.04356785 12.23163 29.04356785 12 34 C11.67 32.68 11.34 31.36 11 30 C10.34 30 9.68 30 9 30 C8.83395264 29.45585449 8.66790527 28.91170898 8.49682617 28.35107422 C7.73248276 25.8573475 6.96006183 23.3661923 6.1875 20.875 C5.92646484 20.0190625 5.66542969 19.163125 5.39648438 18.28125 C3.93833586 13.60077329 2.24074212 9.37478224 0 5 C-0.1875 2.125 -0.1875 2.125 0 0 Z " fill="#F0AF99" transform="translate(224,63)"/>
<path d="M0 0 C0.99 0.33 1.98 0.66 3 1 C-7.97977197 12.37035675 -7.97977197 12.37035675 -13 15 C-14.32 15 -15.64 15 -17 15 C-16.9375 13.1875 -16.9375 13.1875 -16 11 C-12.92108163 9.43149441 -10.09107087 8.20641881 -6.6875 7.5625 C-4.77233072 7.12642602 -4.77233072 7.12642602 -3.75 4.9375 C-3.37875 3.9784375 -3.37875 3.9784375 -3 3 C-2.34 3 -1.68 3 -1 3 C-0.67 2.01 -0.34 1.02 0 0 Z " fill="#EFA083" transform="translate(201,202)"/>
<path d="M0 0 C0.33 0 0.66 0 1 0 C1.1489597 5.28348602 1.25750071 10.56573513 1.32958984 15.85083008 C1.35965704 17.64629421 1.4005234 19.44161274 1.45263672 21.23657227 C1.52590349 23.82604974 1.55955491 26.41357699 1.5859375 29.00390625 C1.61690521 29.79898087 1.64787292 30.59405548 1.67977905 31.41322327 C1.68312766 37.03081092 0.19639116 39.76072966 -3.70809937 43.78501892 C-4.13442657 44.18596268 -4.56075378 44.58690643 -5 45 C-5.99 44.67 -6.98 44.34 -8 44 C-7.21625 43.2575 -6.4325 42.515 -5.625 41.75 C-1.0978819 37.00730485 -0.68569 33.38616113 -0.5859375 26.953125 C-0.56657135 26.18192322 -0.5472052 25.41072144 -0.5272522 24.6161499 C-0.46762923 22.16087795 -0.42114086 19.70555867 -0.375 17.25 C-0.33680425 15.58201118 -0.29775159 13.91404174 -0.2578125 12.24609375 C-0.16194209 8.16422057 -0.07784765 4.08225507 0 0 Z " fill="#E99D86" transform="translate(191,80)"/>
<path d="M0 0 C0.33 0.99 0.66 1.98 1 3 C-0.66666667 4.66666667 -2.33333333 6.33333333 -4 8 C-4.7425 8.763125 -5.485 9.52625 -6.25 10.3125 C-10.04128224 14.01761674 -14.01716437 17.50308767 -18 21 C-18.66 20.67 -19.32 20.34 -20 20 C-13.4 13.4 -6.8 6.8 0 0 Z " fill="#FFDCDB" transform="translate(154,78)"/>
<path d="M0 0 C2.64 0.33 5.28 0.66 8 1 C0.49529853 6.00313432 -9.10820742 7.59856467 -18 8 C-18 7.34 -18 6.68 -18 6 C-16.845 5.896875 -15.69 5.79375 -14.5 5.6875 C-9.98745365 5.14149795 -6.21354578 3.67088884 -2 2 C-1.34 2 -0.68 2 0 2 C0 1.34 0 0.68 0 0 Z " fill="#EFB19B" transform="translate(154,229)"/>
<path d="M0 0 C5.05369645 -0.04948633 10.10725142 -0.08576045 15.16113281 -0.10986328 C16.87990781 -0.1199127 18.59866575 -0.13355445 20.31738281 -0.15087891 C22.78975641 -0.17517391 25.26190369 -0.18649368 27.734375 -0.1953125 C28.50118591 -0.20563507 29.26799683 -0.21595764 30.05804443 -0.22659302 C33.85956767 -0.22739012 36.77864518 -0.14509572 40 2 C37.26752652 3.36623674 35.01801098 3.128426 32 3 C31.67 2.67 31.34 2.34 31 2 C28.71011219 1.84111908 26.41556559 1.74861927 24.12109375 1.68359375 C23.4344313 1.66281265 22.74776886 1.64203156 22.04029846 1.62062073 C19.83947065 1.55505857 17.63852025 1.49620985 15.4375 1.4375 C13.94855486 1.39432108 12.45962227 1.350707 10.97070312 1.30664062 C7.31393447 1.1993707 3.65702682 1.09812228 0 1 C0 0.67 0 0.34 0 0 Z " fill="#EA987E" transform="translate(105,1)"/>
<path d="M0 0 C0.33 1.32 0.66 2.64 1 4 C-0.3125 5.75 -0.3125 5.75 -2 7 C-2.66 7 -3.32 7 -4 7 C-4 7.66 -4 8.32 -4 9 C-5.375 10.625 -5.375 10.625 -7 12 C-7.66 12 -8.32 12 -9 12 C-9.33 12.99 -9.66 13.98 -10 15 C-11.32 14.67 -12.64 14.34 -14 14 C-9.38 9.38 -4.76 4.76 0 0 Z " fill="#E96C6F" transform="translate(169,96)"/>
<path d="M0 0 C0.33 0 0.66 0 1 0 C1 7.59 1 15.18 1 23 C1.66 23 2.32 23 3 23 C2.67 21.68 2.34 20.36 2 19 C3.32 19.33 4.64 19.66 6 20 C4.25 23.875 4.25 23.875 2 25 C1.59270772 27.32156597 1.25561323 29.6568787 1 32 C0.67 32 0.34 32 0 32 C0 21.44 0 10.88 0 0 Z " fill="#B6595D" transform="translate(58,81)"/>
<path d="M0 0 C0.33 0 0.66 0 1 0 C1 1.98 1 3.96 1 6 C1.66 6.33 2.32 6.66 3 7 C-2.80234974 12.95504316 -2.80234974 12.95504316 -6.6015625 13.09765625 C-8.09816406 13.08025391 -8.09816406 13.08025391 -9.625 13.0625 C-10.62789062 13.05347656 -11.63078125 13.04445313 -12.6640625 13.03515625 C-13.43492187 13.02355469 -14.20578125 13.01195313 -15 13 C-15 12.67 -15 12.34 -15 12 C-11.7 11.67 -8.4 11.34 -5 11 C-4.67 9.35 -4.34 7.7 -4 6 C-2.68 6 -1.36 6 0 6 C0 4.02 0 2.04 0 0 Z " fill="#393235" transform="translate(181,109)"/>
<path d="M0 0 C0.33 0.66 0.66 1.32 1 2 C0.67 2.99 0.34 3.98 0 5 C9.24 5 18.48 5 28 5 C28 5.33 28 5.66 28 6 C17.11 6 6.22 6 -5 6 C-3.35 4.02 -1.7 2.04 0 0 Z " fill="#D86969" transform="translate(89,110)"/>
<path d="M0 0 C0.33 0 0.66 0 1 0 C1 5.28 1 10.56 1 16 C0.67 16 0.34 16 0 16 C0 14.35 0 12.7 0 11 C-3.12197478 12.3089572 -3.12197478 12.3089572 -5 15 C-6.32 14.67 -7.64 14.34 -9 14 C-8.15115234 13.23816406 -8.15115234 13.23816406 -7.28515625 12.4609375 C-2.58143124 8.17299363 -2.58143124 8.17299363 0 2.5 C0 1.675 0 0.85 0 0 Z " fill="#CF6C6F" transform="translate(179,81)"/>
<path d="M0 0 C0.66 0.33 1.32 0.66 2 1 C1.67 1.66 1.34 2.32 1 3 C0.34 3 -0.32 3 -1 3 C-1.226875 3.556875 -1.45375 4.11375 -1.6875 4.6875 C-3.76246643 8.34339324 -6.27863135 11.3951948 -10.3125 12.8125 C-10.869375 12.874375 -11.42625 12.93625 -12 13 C-12 12.34 -12 11.68 -12 11 C-10.57136645 9.77071067 -9.13679759 8.54718789 -7.6640625 7.37109375 C-5.27974042 5.40654669 -3.15166871 3.21314496 -1 1 C-0.67 0.67 -0.34 0.34 0 0 Z " fill="#FDE2E4" transform="translate(88,78)"/>
<path d="M0 0 C4.88263966 1.32570187 8.02168632 3.30963493 11.875 6.5625 C12.84179688 7.36816406 13.80859375 8.17382812 14.8046875 9.00390625 C15.52914062 9.66261719 16.25359375 10.32132813 17 11 C17 11.33 17 11.66 17 12 C15.35 12 13.7 12 12 12 C11.79375 11.21625 11.5875 10.4325 11.375 9.625 C10.22117533 6.7241713 10.22117533 6.7241713 7.125 5.875 C6.09375 5.58625 5.0625 5.2975 4 5 C1.625 3.5 1.625 3.5 0 2 C0 1.34 0 0.68 0 0 Z " fill="#EFAF9A" transform="translate(180,17)"/>
<path d="M0 0 C1.46953125 0.01450195 1.46953125 0.01450195 2.96875 0.02929688 C4.49242188 0.06700195 4.49242188 0.06700195 6.046875 0.10546875 C7.59375 0.12577148 7.59375 0.12577148 9.171875 0.14648438 C11.71407292 0.18179268 14.25520723 0.23110839 16.796875 0.29296875 C16.796875 0.62296875 16.796875 0.95296875 16.796875 1.29296875 C16.18166992 1.29707764 15.56646484 1.30118652 14.93261719 1.30541992 C12.13640269 1.33838171 9.34235996 1.40902451 6.546875 1.48046875 C5.57878906 1.48626953 4.61070313 1.49207031 3.61328125 1.49804688 C-2.18755114 1.52765542 -2.18755114 1.52765542 -6.6875 4.84375 C-7.18765625 5.65199219 -7.6878125 6.46023437 -8.203125 7.29296875 C-9.193125 7.29296875 -10.183125 7.29296875 -11.203125 7.29296875 C-8.93963158 1.82285965 -5.87132994 -0.10240692 0 0 Z " fill="#424242" transform="translate(65.203125,71.70703125)"/>
<path d="M0 0 C1.65 1.65 3.3 3.3 5 5 C4.67 5.66 4.34 6.32 4 7 C1.6875 7.3125 1.6875 7.3125 -1 7 C-2.8125 4.5 -2.8125 4.5 -4 2 C-2.68 1.34 -1.36 0.68 0 0 Z " fill="#F9F5EE" transform="translate(72,160)"/>
<path d="M0 0 C0.33 0.99 0.66 1.98 1 3 C-1.852292 7.51612901 -5.6459702 10.06940302 -10 13 C-10.66 12.67 -11.32 12.34 -12 12 C-10.71034824 10.62437146 -9.37310707 9.29233607 -8 8 C-7.34 8 -6.68 8 -6 8 C-5.7525 7.4225 -5.505 6.845 -5.25 6.25 C-3.83316683 3.6997003 -2.12372463 1.98214299 0 0 Z " fill="#EC666D" transform="translate(118,81)"/>
<path d="M0 0 C6.30214697 0.33169195 10.85216936 3.67323988 16 7 C13.3333581 8.33332095 11.83319697 7.67102033 9 7 C9 6.34 9 5.68 9 5 C8.2575 4.87625 7.515 4.7525 6.75 4.625 C4.19858515 4.04513299 2.2732427 3.26291261 0 2 C0 1.34 0 0.68 0 0 Z " fill="#F1B09C" transform="translate(164,9)"/>
<path d="M0 0 C6.42590164 0.9877064 12.14202052 2.13609892 18 5 C18 5.33 18 5.66 18 6 C11.69632197 5.41632611 6.01339937 3.95928381 0 2 C0 1.34 0 0.68 0 0 Z " fill="#EFB39E" transform="translate(146,3)"/>
<path d="M0 0 C0 4.85089963 -2.40896448 7.38147446 -5.6875 10.8125 C-6.450625 11.534375 -7.21375 12.25625 -8 13 C-8.99 12.67 -9.98 12.34 -11 12 C-9.54234835 10.37438849 -8.08385614 8.74953066 -6.625 7.125 C-5.81289063 6.22007813 -5.00078125 5.31515625 -4.1640625 4.3828125 C-2.80923795 2.89103817 -1.42494565 1.42494565 0 0 Z " fill="#EDAB92" transform="translate(35,34)"/>
<path d="M0 0 C4.38889325 0.66498383 7.9811485 2.18757677 12 4 C12 4.66 12 5.32 12 6 C12.99 6.33 13.98 6.66 15 7 C14.01 7.495 14.01 7.495 13 8 C10.21484375 6.85546875 10.21484375 6.85546875 6.9375 5.1875 C5.85339844 4.64480469 4.76929688 4.10210937 3.65234375 3.54296875 C1 2 1 2 0 0 Z " fill="#F2B9A4" transform="translate(56,220)"/>
<path d="M0 0 C0.99 0.66 1.98 1.32 3 2 C-0.3 5.3 -3.6 8.6 -7 12 C-7.33 10.68 -7.66 9.36 -8 8 C-6.68 7.67 -5.36 7.34 -4 7 C-4 6.01 -4 5.02 -4 4 C-2 1.8125 -2 1.8125 0 0 Z " fill="#E96E6E" transform="translate(73,89)"/>
<path d="M0 0 C0.66 0 1.32 0 2 0 C1.67 1.32 1.34 2.64 1 4 C0.34 4 -0.32 4 -1 4 C-1 4.99 -1 5.98 -1 7 C-1.66 7 -2.32 7 -3 7 C-3.66 8.65 -4.32 10.3 -5 12 C-5.75 10.375 -5.75 10.375 -6 8 C-4.24107963 4.96737867 -2.47809712 2.47809712 0 0 Z " fill="#FEEADC" transform="translate(54,69)"/>
<path d="M0 0 C0.671875 1.70703125 0.671875 1.70703125 1 4 C-0.109375 6.32421875 -0.109375 6.32421875 -1.75 8.6875 C-2.28109375 9.47511719 -2.8121875 10.26273438 -3.359375 11.07421875 C-5 13 -5 13 -8 14 C-6.43358249 9.69235185 -4.31663844 5.93828536 -2 2 C-1.34 2 -0.68 2 0 2 C0 1.34 0 0.68 0 0 Z " fill="#F2B49C" transform="translate(23,47)"/>
<path d="M0 0 C8.58 0 17.16 0 26 0 C25.01 1.485 25.01 1.485 24 3 C23.34 3 22.68 3 22 3 C22 2.34 22 1.68 22 1 C14.74 1 7.48 1 0 1 C0 0.67 0 0.34 0 0 Z " fill="#D9686F" transform="translate(62,78)"/>
<path d="M0 0 C0.99 0.33 1.98 0.66 3 1 C-0.3 4.3 -3.6 7.6 -7 11 C-7.33 9.68 -7.66 8.36 -8 7 C-7.01 7 -6.02 7 -5 7 C-4.34 5.68 -3.68 4.36 -3 3 C-2.34 3 -1.68 3 -1 3 C-0.67 2.01 -0.34 1.02 0 0 Z " fill="#EFAE96" transform="translate(201,202)"/>
<path d="M0 0 C0 0.66 0 1.32 0 2 C-1.63064764 3.05771739 -3.30280873 4.05273046 -5 5 C-5.99 5.66 -6.98 6.32 -8 7 C-10.1875 6.625 -10.1875 6.625 -12 6 C-10.56839732 4.99157547 -9.12948547 3.99352109 -7.6875 3 C-6.88699219 2.443125 -6.08648437 1.88625 -5.26171875 1.3125 C-3 0 -3 0 0 0 Z " fill="#F0AA93" transform="translate(58,18)"/>
<path d="M0 0 C0.99 0.33 1.98 0.66 3 1 C3 1.99 3 2.98 3 4 C3.99 4.33 4.98 4.66 6 5 C8 8 8 8 7.625 10.1875 C7.41875 10.785625 7.2125 11.38375 7 12 C5.82767315 10.3790787 4.6622923 8.75313167 3.5 7.125 C2.8503125 6.22007812 2.200625 5.31515625 1.53125 4.3828125 C0 2 0 2 0 0 Z " fill="#F1B19E" transform="translate(15,177)"/>
<path d="M0 0 C1.305239 3.91571701 0.32239848 5.03892997 -1.4375 8.6875 C-1.91058594 9.68136719 -2.38367188 10.67523438 -2.87109375 11.69921875 C-3.42990234 12.83810547 -3.42990234 12.83810547 -4 14 C-4.33 14 -4.66 14 -5 14 C-4.67 11.36 -4.34 8.72 -4 6 C-3.34 6 -2.68 6 -2 6 C-1.855625 5.195625 -1.71125 4.39125 -1.5625 3.5625 C-1 1 -1 1 0 0 Z " fill="#F1BBA3" transform="translate(231,157)"/>
<path d="M0 0 C1.32 0.33 2.64 0.66 4 1 C1.03 3.97 -1.94 6.94 -5 10 C-5 7 -5 7 -4 5 C-3.34 5 -2.68 5 -2 5 C-1.855625 4.360625 -1.71125 3.72125 -1.5625 3.0625 C-1 1 -1 1 0 0 Z " fill="#E76A70" transform="translate(144,84)"/>
<path d="M0 0 C0.99 0 1.98 0 3 0 C3.33 2.31 3.66 4.62 4 7 C4.66 7 5.32 7 6 7 C6 8.65 6 10.3 6 12 C3.25207517 8.59780735 0 4.51535412 0 0 Z " fill="#EEB198" transform="translate(9,165)"/>
<path d="M0 0 C0.99 0.33 1.98 0.66 3 1 C-3.15034169 8.48291572 -3.15034169 8.48291572 -7 11 C-7 9.35 -7 7.7 -7 6 C-6.01 6 -5.02 6 -4 6 C-1.60028446 4.06176821 -1.00203321 3.00609963 0 0 Z " fill="#EA6C71" transform="translate(127,101)"/>
<path d="M0 0 C-1.5830577 4.2742558 -4.50568404 6.26531794 -8 9 C-8 5 -8 5 -5.6875 2.25 C-3 0 -3 0 0 0 Z " fill="#F1A995" transform="translate(212,193)"/>
<path d="M0 0 C0 3.99904969 -1.72586967 5.80200422 -4 9 C-5.32 8.67 -6.64 8.34 -8 8 C-5.36 5.36 -2.72 2.72 0 0 Z " fill="#FFE3E0" transform="translate(125,107)"/>
<path d="M0 0 C0 3.16880694 -0.2058242 4.43689172 -2 7 C-4.625 7.75 -4.625 7.75 -7 8 C-5.61918777 3.8575633 -3.40174442 2.67796901 0 0 Z " fill="#EB7277" transform="translate(105,94)"/>
<path d="M0 0 C0.66 0.33 1.32 0.66 2 1 C1.55149342 2.81495662 1.09090429 4.62693134 0.625 6.4375 C0.24214844 7.95150391 0.24214844 7.95150391 -0.1484375 9.49609375 C-1 12 -1 12 -3 13 C-2.69240822 11.02006459 -2.3787932 9.04106401 -2.0625 7.0625 C-1.88847656 5.96035156 -1.71445313 4.85820313 -1.53515625 3.72265625 C-1 1 -1 1 0 0 Z " fill="#ECA58C" transform="translate(8,75)"/>
<path d="M0 0 C0 3.16880694 -0.2058242 4.43689172 -2 7 C-4.625 7.75 -4.625 7.75 -7 8 C-6.02133662 6.85373678 -5.04205413 5.70800212 -4.0625 4.5625 C-3.51722656 3.92441406 -2.97195312 3.28632812 -2.41015625 2.62890625 C-1.63204305 1.73008851 -0.84063472 0.84063472 0 0 Z " fill="#E86A70" transform="translate(97,102)"/>
<path d="M0 0 C6.625 -0.25 6.625 -0.25 10 2 C10 2.66 10 3.32 10 4 C6.7 3.01 3.4 2.02 0 1 C0 0.67 0 0.34 0 0 Z " fill="#F0B09D" transform="translate(71,228)"/>
<path d="M0 0 C0.66 0.33 1.32 0.66 2 1 C-1.07999946 4.67230705 -3.2482602 5.56802365 -8 6 C-7.67 5.34 -7.34 4.68 -7 4 C-6.01 4 -5.02 4 -4 4 C-3.67 3.01 -3.34 2.02 -3 1 C-2.01 0.67 -1.02 0.34 0 0 Z " fill="#EDA68E" transform="translate(74,8)"/>
<path d="M0 0 C2.97 0.33 5.94 0.66 9 1 C7 3 7 3 3.875 3.125 C2.451875 3.063125 2.451875 3.063125 1 3 C0.67 2.01 0.34 1.02 0 0 Z " fill="#F0B098" transform="translate(136,1)"/>
<path d="M0 0 C-2 3 -2 3 -5.125 3.6875 C-6.07375 3.790625 -7.0225 3.89375 -8 4 C-7 1 -7 1 -4.5625 -0.25 C-2 -1 -2 -1 0 0 Z " fill="#EEAB91" transform="translate(170,226)"/>
<path d="M0 0 C-5.14285714 4.42857143 -5.14285714 4.42857143 -9 5 C-6.81610567 0.16423399 -5.20641855 -0.13701101 0 0 Z " fill="#F2BBA5" transform="translate(177,223)"/>
<path d="M0 0 C1.65 0 3.3 0 5 0 C5.33 1.65 5.66 3.3 6 5 C2.83884224 3.63016497 2.0072908 3.0109362 0 0 Z " fill="#F4A791" transform="translate(38,206)"/>
<path d="M0 0 C0.66 0 1.32 0 2 0 C1.8125 1.8125 1.8125 1.8125 1 4 C-1.4375 5.8125 -1.4375 5.8125 -4 7 C-4.66 6.67 -5.32 6.34 -6 6 C-4.71034824 4.62437146 -3.37310707 3.29233607 -2 2 C-1.34 2 -0.68 2 0 2 C0 1.34 0 0.68 0 0 Z " fill="#EFB29D" transform="translate(44,25)"/>
<path d="M0 0 C0.33 0.99 0.66 1.98 1 3 C-0.3125 5.1875 -0.3125 5.1875 -2 7 C-2.66 7 -3.32 7 -4 7 C-3.43628586 3.73045798 -2.50037734 2.17424117 0 0 Z " fill="#FEE8E4" transform="translate(154,78)"/>
</svg>
