<?xml version="1.0" encoding="UTF-8"?>
<svg version="1.1" xmlns="http://www.w3.org/2000/svg" width="345" height="394">
<path d="M0 0 C0.84962311 0.00304138 1.69924622 0.00608276 2.57461548 0.00921631 C15.98831381 0.080001 28.73710735 0.96828143 41.75 4.4375 C42.57870605 4.64648926 43.40741211 4.85547852 44.26123047 5.07080078 C88.26933016 16.3322179 126.0785202 45.17212158 149.44384766 84.02124023 C157.31470965 97.50691389 163.24747602 111.56202226 167.5625 126.5625 C167.74546631 127.19309326 167.92843262 127.82368652 168.11694336 128.47338867 C172.02639291 143.08543124 173.30274373 157.62410654 173.1875 172.6875 C173.18293793 173.96193466 173.18293793 173.96193466 173.17828369 175.26211548 C173.107499 188.67581381 172.21921857 201.42460735 168.75 214.4375 C168.43651611 215.68055908 168.43651611 215.68055908 168.11669922 216.94873047 C156.85641859 260.95238894 128.01619929 298.77434645 89.16479492 322.1315918 C76.55470702 329.49431193 63.36667797 335.5253891 49.1875 339.125 C41.50592028 341.58829139 37.36098861 348.23000379 32.75 354.4375 C31.91192112 355.52320771 31.07084407 356.60660868 30.2265625 357.6875 C28.56407602 359.82166717 26.91662116 361.96608099 25.28125 364.12109375 C22.64312389 367.5908479 19.9499683 371.01577206 17.25 374.4375 C12.02824316 381.06214465 6.87845748 387.74046876 1.75 394.4375 C-1.70262396 393.28662535 -2.24094513 392.46545908 -4.33203125 389.59765625 C-4.92733643 388.79078369 -5.5226416 387.98391113 -6.13598633 387.15258789 C-6.77173584 386.27723389 -7.40748535 385.40187988 -8.0625 384.5 C-9.415271 382.6656366 -10.76946913 380.8323249 -12.125 379 C-12.81207031 378.06929688 -13.49914062 377.13859375 -14.20703125 376.1796875 C-17.83122158 371.31509551 -21.56421992 366.53619307 -25.31835938 361.77148438 C-27.96536113 358.40614006 -30.56600798 355.03260824 -33.03125 351.53125 C-33.46268311 350.93111084 -33.89411621 350.33097168 -34.33862305 349.71264648 C-35.46704771 348.13357227 -36.57252704 346.53816789 -37.67578125 344.94140625 C-41.17740267 341.53542851 -44.62752989 340.72525186 -49.25 339.4375 C-50.7453939 338.93643666 -52.23641624 338.4221277 -53.72265625 337.89453125 C-54.46870117 337.62979004 -55.21474609 337.36504883 -55.98339844 337.09228516 C-65.798991 333.54262118 -75.09340747 329.44545176 -84.25 324.4375 C-84.87326172 324.10024902 -85.49652344 323.76299805 -86.13867188 323.41552734 C-125.3486865 301.92346157 -153.74298187 264.02591945 -166.42797852 221.51831055 C-166.63737061 220.79039307 -166.8467627 220.06247559 -167.0625 219.3125 C-167.24546631 218.68190674 -167.42843262 218.05131348 -167.61694336 217.40161133 C-171.52639291 202.78956876 -172.80274373 188.25089346 -172.6875 173.1875 C-172.68445862 172.33787689 -172.68141724 171.48825378 -172.67828369 170.61288452 C-172.607499 157.19918619 -171.71921857 144.45039265 -168.25 131.4375 C-168.04101074 130.60879395 -167.83202148 129.78008789 -167.61669922 128.92626953 C-156.3552821 84.91816984 -127.51537842 47.1089798 -88.66625977 23.74365234 C-75.18058611 15.87279035 -61.12547774 9.94002398 -46.125 5.625 C-45.49440674 5.44203369 -44.86381348 5.25906738 -44.21411133 5.07055664 C-29.60206876 1.16110709 -15.06339346 -0.11524373 0 0 Z " fill="#FDC362" transform="translate(172.25,-0.4375)"/>
<path d="M0 0 C0.84962311 0.00304138 1.69924622 0.00608276 2.57461548 0.00921631 C15.98831381 0.080001 28.73710735 0.96828143 41.75 4.4375 C42.57870605 4.64648926 43.40741211 4.85547852 44.26123047 5.07080078 C88.26933016 16.3322179 126.0785202 45.17212158 149.44384766 84.02124023 C157.31470965 97.50691389 163.24747602 111.56202226 167.5625 126.5625 C167.74546631 127.19309326 167.92843262 127.82368652 168.11694336 128.47338867 C172.02639291 143.08543124 173.30274373 157.62410654 173.1875 172.6875 C173.18293793 173.96193466 173.18293793 173.96193466 173.17828369 175.26211548 C173.107499 188.67581381 172.21921857 201.42460735 168.75 214.4375 C168.43651611 215.68055908 168.43651611 215.68055908 168.11669922 216.94873047 C156.85641859 260.95238894 128.01619929 298.77434645 89.16479492 322.1315918 C76.55470702 329.49431193 63.36667797 335.5253891 49.1875 339.125 C41.50592028 341.58829139 37.36098861 348.23000379 32.75 354.4375 C31.91192112 355.52320771 31.07084407 356.60660868 30.2265625 357.6875 C28.56407602 359.82166717 26.91662116 361.96608099 25.28125 364.12109375 C22.64312389 367.5908479 19.9499683 371.01577206 17.25 374.4375 C12.02824316 381.06214465 6.87845748 387.74046876 1.75 394.4375 C-1.70262396 393.28662535 -2.24094513 392.46545908 -4.33203125 389.59765625 C-4.92733643 388.79078369 -5.5226416 387.98391113 -6.13598633 387.15258789 C-6.77173584 386.27723389 -7.40748535 385.40187988 -8.0625 384.5 C-9.415271 382.6656366 -10.76946913 380.8323249 -12.125 379 C-12.81207031 378.06929688 -13.49914062 377.13859375 -14.20703125 376.1796875 C-17.83122158 371.31509551 -21.56421992 366.53619307 -25.31835938 361.77148438 C-27.96536113 358.40614006 -30.56600798 355.03260824 -33.03125 351.53125 C-33.46268311 350.93111084 -33.89411621 350.33097168 -34.33862305 349.71264648 C-35.46704771 348.13357227 -36.57252704 346.53816789 -37.67578125 344.94140625 C-41.17740267 341.53542851 -44.62752989 340.72525186 -49.25 339.4375 C-50.7453939 338.93643666 -52.23641624 338.4221277 -53.72265625 337.89453125 C-54.46870117 337.62979004 -55.21474609 337.36504883 -55.98339844 337.09228516 C-65.798991 333.54262118 -75.09340747 329.44545176 -84.25 324.4375 C-84.87326172 324.10024902 -85.49652344 323.76299805 -86.13867188 323.41552734 C-125.3486865 301.92346157 -153.74298187 264.02591945 -166.42797852 221.51831055 C-166.63737061 220.79039307 -166.8467627 220.06247559 -167.0625 219.3125 C-167.24546631 218.68190674 -167.42843262 218.05131348 -167.61694336 217.40161133 C-171.52639291 202.78956876 -172.80274373 188.25089346 -172.6875 173.1875 C-172.68445862 172.33787689 -172.68141724 171.48825378 -172.67828369 170.61288452 C-172.607499 157.19918619 -171.71921857 144.45039265 -168.25 131.4375 C-168.04101074 130.60879395 -167.83202148 129.78008789 -167.61669922 128.92626953 C-156.3552821 84.91816984 -127.51537842 47.1089798 -88.66625977 23.74365234 C-75.18058611 15.87279035 -61.12547774 9.94002398 -46.125 5.625 C-45.49440674 5.44203369 -44.86381348 5.25906738 -44.21411133 5.07055664 C-29.60206876 1.16110709 -15.06339346 -0.11524373 0 0 Z M-35.25 20.4375 C-37.24488234 20.80020588 -39.2437811 21.14390699 -41.25 21.4375 C-41.25 22.0975 -41.25 22.7575 -41.25 23.4375 C-42.36375 23.540625 -43.4775 23.64375 -44.625 23.75 C-52.81731688 24.79213218 -60.0261917 27.55694182 -67.25 31.4375 C-68.32894531 31.96988281 -69.40789062 32.50226562 -70.51953125 33.05078125 C-79.97787896 37.7869107 -88.29050157 43.56241941 -96.57910156 50.11914062 C-98.10668234 51.32442061 -99.65773332 52.49980008 -101.2109375 53.671875 C-102.22027344 54.54585937 -102.22027344 54.54585937 -103.25 55.4375 C-103.25 56.0975 -103.25 56.7575 -103.25 57.4375 C-103.82492188 57.68886719 -104.39984375 57.94023438 -104.9921875 58.19921875 C-127.82814451 70.72343739 -142.03623779 106.92179054 -148.9375 129.9375 C-149.14761719 130.6696875 -149.35773438 131.401875 -149.57421875 132.15625 C-150.0850674 133.88073331 -150.65886318 135.58673704 -151.26171875 137.28125 C-159.26944673 162.85533779 -154.39686408 192.01629349 -148.25 217.4375 C-147.59 217.4375 -146.93 217.4375 -146.25 217.4375 C-146.0025 218.71625 -145.755 219.995 -145.5 221.3125 C-140.179343 244.69443482 -124.519704 264.52296017 -108.25 281.4375 C-107.198125 282.60152344 -107.198125 282.60152344 -106.125 283.7890625 C-99.91140975 290.44984295 -92.59238168 295.2754687 -85.02685547 300.25390625 C-83.60323019 301.20220734 -82.20516862 302.18883942 -80.81640625 303.1875 C-57.28228552 320.06967627 -26.24097953 325.64118613 2.0625 325.625 C3.82557495 325.6259668 3.82557495 325.6259668 5.62426758 325.62695312 C14.15385309 325.57518379 22.36307319 325.01092681 30.75 323.4375 C30.75 322.7775 30.75 322.1175 30.75 321.4375 C31.37003906 321.42332031 31.99007812 321.40914063 32.62890625 321.39453125 C45.08552475 320.72365078 56.67996997 315.94973717 67.75 310.4375 C68.86503906 309.89738281 69.98007813 309.35726563 71.12890625 308.80078125 C94.20656316 297.30081454 112.76646736 280.29262596 127.48632812 259.24365234 C128.63373147 257.60368134 129.80763324 255.98232979 130.984375 254.36328125 C138.63389581 243.49681079 144.29927774 231.35814185 147.86328125 218.5625 C148.58031835 216.035497 149.38432081 213.59802469 150.25 211.12109375 C156.83979261 191.46041777 155.72976368 169.29842758 153.9375 148.9375 C153.86764893 148.12031494 153.79779785 147.30312988 153.72583008 146.46118164 C152.89121026 138.40813849 150.41527401 130.97708426 147.48046875 123.46875 C146.70565301 121.31418218 146.14200598 119.15217252 145.5625 116.9375 C138.66655862 93.55594874 122.22317046 72.89919894 104.75 56.4375 C104.13769531 55.85613281 103.52539062 55.27476563 102.89453125 54.67578125 C91.90054118 44.76761736 71.82447506 28.4375 56.75 28.4375 C56.75 27.4475 56.75 26.4575 56.75 25.4375 C50.46042992 23.57921793 44.13807655 21.92356833 37.75 20.4375 C37.04133789 20.26395996 36.33267578 20.09041992 35.60253906 19.91162109 C12.97102936 14.47107877 -12.777706 13.77107786 -35.25 20.4375 Z " fill="#FEFDFC" transform="translate(172.25,-0.4375)"/>
<path d="M0 0 C8.46997289 5.52458758 12.85661397 15.52195547 17.74560547 24.05566406 C19.90091757 27.77553214 22.142042 31.44145765 24.390625 35.10546875 C24.84131348 35.84112061 25.29200195 36.57677246 25.75634766 37.3347168 C28.83016953 42.34325097 31.92484707 47.33876866 35.0222168 52.33276367 C43.78311815 66.45836511 52.30850589 80.7073586 60.73828125 95.03295898 C61.27195313 95.93860596 61.805625 96.84425293 62.35546875 97.77734375 C62.83234131 98.5878418 63.30921387 99.39833984 63.80053711 100.23339844 C64.84602842 101.96995691 65.95375339 103.66891134 67.078125 105.35546875 C68.00901602 112.75929969 67.59705943 118.37093397 63.078125 124.35546875 C58.46028682 129.43509075 54.67983558 133.09909793 47.66893291 133.48968983 C46.31647331 133.49610005 46.31647331 133.49610005 44.93669128 133.50263977 C43.89795364 133.50979507 42.859216 133.51695038 41.78900146 133.52432251 C40.65488831 133.52701141 39.52077515 133.52970032 38.35229492 133.5324707 C37.15351212 133.5390419 35.95472931 133.5456131 34.71961975 133.55238342 C30.7492842 133.57210778 26.77896189 133.58377989 22.80859375 133.59375 C21.43926791 133.59779933 20.06994227 133.60191631 18.70061684 133.60610008 C12.26722529 133.62513906 5.83384514 133.63937358 -0.59956914 133.64771205 C-8.01571009 133.65748423 -15.43155256 133.68380833 -22.84758836 133.72421294 C-28.58701158 133.75440577 -34.32634936 133.76918385 -40.06585044 133.77249306 C-43.49061231 133.77483967 -46.91505482 133.78374884 -50.33973122 133.80895424 C-54.16268392 133.83326841 -57.98485517 133.8323943 -61.80786133 133.82543945 C-63.49992203 133.84465454 -63.49992203 133.84465454 -65.22616577 133.86425781 C-72.90820055 133.81331932 -77.40995811 132.69116042 -83.1015625 127.28515625 C-83.94074219 126.26808594 -83.94074219 126.26808594 -84.796875 125.23046875 C-85.37179688 124.54726562 -85.94671875 123.8640625 -86.5390625 123.16015625 C-90.22648049 118.34776328 -89.71666678 112.19863496 -89.25585938 106.38195801 C-88.28828709 100.51110003 -84.63678178 95.60119477 -81.421875 90.73046875 C-80.37773438 89.06371094 -80.37773438 89.06371094 -79.3125 87.36328125 C-77.90729794 85.12536686 -76.4884826 82.89594235 -75.05615234 80.67529297 C-69.29851697 71.71941035 -63.827166 62.57795247 -58.296875 53.48046875 C-57.41008057 52.02278076 -57.41008057 52.02278076 -56.50537109 50.53564453 C-54.64389055 47.47577752 -52.78282675 44.41565739 -50.921875 41.35546875 C-49.67712191 39.30857029 -48.43233049 37.26169514 -47.1875 35.21484375 C-46.58188232 34.21880127 -45.97626465 33.22275879 -45.35229492 32.1965332 C-44.15877637 30.2357412 -42.96365361 28.27592468 -41.7668457 26.31713867 C-39.31725874 22.30698116 -36.87428976 18.29653512 -34.51171875 14.234375 C-30.37893123 7.2189881 -26.6298847 2.15482587 -19.609375 -2.01953125 C-12.7089144 -3.62428953 -6.34635221 -3.25084125 0 0 Z " fill="#FEA602" transform="translate(183.921875,94.64453125)"/>
<path d="M0 0 C1.10214844 0.03480469 1.10214844 0.03480469 2.2265625 0.0703125 C8.8562784 0.91607873 13.45994437 6.31229813 17.58886719 11.16943359 C21.65686381 16.44656831 24.81853211 22.35530036 28.00390625 28.19042969 C29.27454963 30.49876516 30.62766237 32.7508911 32 35 C33.45771402 37.42701871 34.91377585 39.85480646 36.359375 42.2890625 C38.96050255 46.65837225 41.61564695 50.97867268 44.375 55.25 C47.05331264 59.42675186 49.56277516 63.67946505 52 68 C54.92303525 73.17868846 57.99490017 78.22959526 61.21875 83.2265625 C80.63306943 113.45499845 80.63306943 113.45499845 79 128 C77.48049254 132.04377066 75.44745674 135.45393425 73 139 C72.401875 139.94875 71.80375 140.8975 71.1875 141.875 C65.4425411 147.45581722 58.71065843 150.11015737 50.7960968 150.14717102 C49.74342117 150.15432632 48.69074554 150.16148163 47.60617065 150.16885376 C46.45649811 150.17154266 45.30682556 150.17423157 44.12231445 150.17700195 C42.29969841 150.18685875 42.29969841 150.18685875 40.44026184 150.19691467 C36.41459912 150.21664334 32.38897623 150.22831378 28.36328125 150.23828125 C26.97418893 150.24233082 25.5850968 150.2464478 24.19600487 150.25063133 C17.66756854 150.26967398 11.13914344 150.28390597 4.61068469 150.2922433 C-2.90957556 150.30200737 -10.42954082 150.32830877 -17.9496972 150.36874419 C-23.77237809 150.39897108 -29.59497475 150.41371844 -35.41773254 150.41702431 C-38.89062313 150.41936765 -42.36319827 150.42823351 -45.83600426 150.45348549 C-49.71587787 150.48124229 -53.59536792 150.47691499 -57.4753418 150.4699707 C-58.61489319 150.48278076 -59.75444458 150.49559082 -60.92852783 150.50878906 C-69.19149213 150.45500403 -75.59569227 149.1017026 -81.8125 143.4375 C-82.534375 142.633125 -83.25625 141.82875 -84 141 C-84.7425 140.525625 -85.485 140.05125 -86.25 139.5625 C-88.744369 137.33538482 -88.71234909 135.23607274 -89 132 C-89.66 132 -90.32 132 -91 132 C-91.08174796 129.16607074 -91.14084985 126.33455181 -91.1875 123.5 C-91.21263672 122.70851563 -91.23777344 121.91703125 -91.26367188 121.1015625 C-91.37195611 112.29444456 -88.27286406 105.96390861 -83.6875 98.625 C-82.87493519 97.2995189 -82.06243512 95.9739981 -81.25 94.6484375 C-80.85941406 94.01647461 -80.46882813 93.38451172 -80.06640625 92.73339844 C-78.74649818 90.58794348 -77.4666352 88.41996151 -76.1875 86.25 C-72.64089807 80.32897814 -68.92333626 74.51366622 -65.2253418 68.68652344 C-64.47377808 67.50171387 -64.47377808 67.50171387 -63.70703125 66.29296875 C-62.99474365 65.17414307 -62.99474365 65.17414307 -62.26806641 64.03271484 C-61.22253236 62.35672015 -60.23400348 60.64530504 -59.26171875 58.92578125 C-58.84535156 58.29027344 -58.42898437 57.65476563 -58 57 C-57.34 57 -56.68 57 -56 57 C-55.82452637 55.88963379 -55.82452637 55.88963379 -55.64550781 54.75683594 C-55.00124197 52.00530422 -54.17072624 50.26257133 -52.671875 47.890625 C-52.20136719 47.13523438 -51.73085937 46.37984375 -51.24609375 45.6015625 C-50.75238281 44.82554687 -50.25867188 44.04953125 -49.75 43.25 C-46.39036538 37.90718484 -43.13647147 32.55531149 -40.1418457 26.99755859 C-38.66715643 24.41771945 -36.95364804 22.06962914 -35.18359375 19.6875 C-33.97965276 17.97099008 -32.9908385 16.22138178 -32 14.375 C-28.10616851 7.80415937 -22.68875225 3.13303818 -15.47265625 0.5703125 C-10.34828172 -0.61161275 -5.21486777 -0.32839218 0 0 Z M-24.43408203 15.93725586 C-27.21411696 19.59932556 -29.50238279 23.53090624 -31.8125 27.5 C-32.33529541 28.38437744 -32.85809082 29.26875488 -33.39672852 30.17993164 C-34.45036483 31.96232636 -35.50144258 33.7462363 -36.54980469 35.53173828 C-38.49571057 38.8437094 -40.4621835 42.14300681 -42.4375 45.4375 C-42.78876953 46.02442627 -43.14003906 46.61135254 -43.50195312 47.21606445 C-46.71924358 52.57273877 -50.01533008 57.87974273 -53.3125 63.1875 C-58.12031263 70.92898812 -62.89208176 78.69000513 -67.52368164 86.53857422 C-70.0568721 90.82291335 -72.65841501 95.02903747 -75.41796875 99.171875 C-81.31233402 108.165138 -85.41004525 114.8062481 -84.8125 125.8359375 C-83.39024356 131.3745323 -80.22299443 135.15455388 -75.9375 138.8125 C-75.26589844 139.39644531 -74.59429687 139.98039063 -73.90234375 140.58203125 C-70.66679705 142.99374265 -67.88020715 143.1275837 -63.9788208 143.14044189 C-62.94145782 143.14615204 -61.90409485 143.15186218 -60.83529663 143.15774536 C-59.12873398 143.15942215 -59.12873398 143.15942215 -57.38769531 143.16113281 C-56.18905853 143.16609772 -54.99042175 143.17106262 -53.75546265 143.17617798 C-50.46600271 143.18828771 -47.17660636 143.1957453 -43.88713169 143.20018864 C-41.83054137 143.20312155 -39.7739566 143.20722683 -37.71736908 143.21169281 C-31.27863124 143.22536661 -24.83990611 143.23503324 -18.40115476 143.2388947 C-10.9765681 143.24337216 -3.55216584 143.26090587 3.87236476 143.2898953 C9.61601535 143.31154045 15.35961417 143.32160053 21.1033051 143.32293582 C24.53137253 143.32398204 27.95926659 143.3298502 31.38729095 143.34775543 C35.21504164 143.36481286 39.0423439 143.36293594 42.87011719 143.35644531 C43.9997287 143.3656601 45.12934021 143.37487488 46.29318237 143.3843689 C53.7636815 143.3446944 58.91577212 142.72559673 64.6875 137.625 C70.48850299 131.04007768 72.49121349 127.07642227 72.40625 118.24951172 C71.71312908 112.70537746 69.01792047 108.66493193 66 104.0625 C65.40203613 103.10375977 64.80407227 102.14501953 64.18798828 101.15722656 C63.00528523 99.26528557 61.81179131 97.38003782 60.60644531 95.50244141 C58.64523069 92.44735783 56.75957353 89.35284387 54.875 86.25 C53.58337237 84.16664246 52.29170297 82.08331082 51 80 C45.27790545 70.6998617 39.60920889 61.36863985 34 52 C21.13869364 26.48148191 21.13869364 26.48148191 1.25 7.6875 C-9.62112224 5.38783953 -17.31103983 7.37558611 -24.43408203 15.93725586 Z " fill="#FAF8F1" transform="translate(179,85)"/>
<path d="M0 0 C8.46997289 5.52458758 12.85661397 15.52195547 17.74560547 24.05566406 C19.90091757 27.77553214 22.142042 31.44145765 24.390625 35.10546875 C24.84131348 35.84112061 25.29200195 36.57677246 25.75634766 37.3347168 C28.83016953 42.34325097 31.92484707 47.33876866 35.0222168 52.33276367 C43.78311815 66.45836511 52.30850589 80.7073586 60.73828125 95.03295898 C61.27195313 95.93860596 61.805625 96.84425293 62.35546875 97.77734375 C62.83234131 98.5878418 63.30921387 99.39833984 63.80053711 100.23339844 C64.84602842 101.96995691 65.95375339 103.66891134 67.078125 105.35546875 C68.00901602 112.75929969 67.59705943 118.37093397 63.078125 124.35546875 C58.46028682 129.43509075 54.67983558 133.09909793 47.66893291 133.48968983 C46.31647331 133.49610005 46.31647331 133.49610005 44.93669128 133.50263977 C43.89795364 133.50979507 42.859216 133.51695038 41.78900146 133.52432251 C40.65488831 133.52701141 39.52077515 133.52970032 38.35229492 133.5324707 C37.15351212 133.5390419 35.95472931 133.5456131 34.71961975 133.55238342 C30.7492842 133.57210778 26.77896189 133.58377989 22.80859375 133.59375 C21.43926791 133.59779933 20.06994227 133.60191631 18.70061684 133.60610008 C12.26722529 133.62513906 5.83384514 133.63937358 -0.59956914 133.64771205 C-8.01571009 133.65748423 -15.43155256 133.68380833 -22.84758836 133.72421294 C-28.58701158 133.75440577 -34.32634936 133.76918385 -40.06585044 133.77249306 C-43.49061231 133.77483967 -46.91505482 133.78374884 -50.33973122 133.80895424 C-54.16268392 133.83326841 -57.98485517 133.8323943 -61.80786133 133.82543945 C-63.49992203 133.84465454 -63.49992203 133.84465454 -65.22616577 133.86425781 C-72.90820055 133.81331932 -77.40995811 132.69116042 -83.1015625 127.28515625 C-83.94074219 126.26808594 -83.94074219 126.26808594 -84.796875 125.23046875 C-85.37179688 124.54726562 -85.94671875 123.8640625 -86.5390625 123.16015625 C-90.22648049 118.34776328 -89.71666678 112.19863496 -89.25585938 106.38195801 C-88.28828709 100.51110003 -84.63678178 95.60119477 -81.421875 90.73046875 C-80.37773438 89.06371094 -80.37773438 89.06371094 -79.3125 87.36328125 C-77.90729794 85.12536686 -76.4884826 82.89594235 -75.05615234 80.67529297 C-69.29851697 71.71941035 -63.827166 62.57795247 -58.296875 53.48046875 C-57.41008057 52.02278076 -57.41008057 52.02278076 -56.50537109 50.53564453 C-54.64389055 47.47577752 -52.78282675 44.41565739 -50.921875 41.35546875 C-49.67712191 39.30857029 -48.43233049 37.26169514 -47.1875 35.21484375 C-46.58188232 34.21880127 -45.97626465 33.22275879 -45.35229492 32.1965332 C-44.15877637 30.2357412 -42.96365361 28.27592468 -41.7668457 26.31713867 C-39.31725874 22.30698116 -36.87428976 18.29653512 -34.51171875 14.234375 C-30.37893123 7.2189881 -26.6298847 2.15482587 -19.609375 -2.01953125 C-12.7089144 -3.62428953 -6.34635221 -3.25084125 0 0 Z M-26.8984375 14.4921875 C-27.79823522 15.99910148 -28.68073814 17.5164588 -29.546875 19.04296875 C-30.25215332 20.23889648 -30.25215332 20.23889648 -30.97167969 21.45898438 C-33.94919589 26.54033728 -36.76613464 31.70243853 -39.5234375 36.90625 C-41.50610201 40.37868198 -43.82170886 43.57097375 -46.2109375 46.7734375 C-47.59166537 48.85713869 -48.67077568 50.80281359 -49.75390625 53.0390625 C-52.16454783 57.98087774 -55.05969458 62.57995364 -57.984375 67.23046875 C-59.14105037 69.08437009 -60.29729241 70.93854185 -61.453125 72.79296875 C-62.03191406 73.71980469 -62.61070313 74.64664063 -63.20703125 75.6015625 C-65.82040206 79.79843362 -68.40560355 84.0122752 -70.984375 88.23046875 C-71.64481812 89.30723877 -71.64481812 89.30723877 -72.31860352 90.40576172 C-74.29414878 93.63763924 -76.23585374 96.88132824 -78.10546875 100.17578125 C-79.30636946 102.27800313 -80.57891623 104.34103059 -81.921875 106.35546875 C-82.66241713 111.35843363 -82.47997187 115.29700917 -80.109375 119.79296875 C-79.3875 120.63859375 -78.665625 121.48421875 -77.921875 122.35546875 C-77.426875 122.95359375 -76.931875 123.55171875 -76.421875 124.16796875 C-73.3437358 126.60482895 -69.68405593 126.48649127 -65.89433289 126.51609802 C-64.88083771 126.52614365 -63.86734253 126.53618927 -62.82313538 126.54653931 C-61.71707443 126.5523703 -60.61101349 126.55820129 -59.47143555 126.56420898 C-57.7171524 126.57888466 -57.7171524 126.57888466 -55.9274292 126.59385681 C-52.05449562 126.62378898 -48.18159644 126.6451879 -44.30859375 126.6640625 C-43.31879025 126.66900848 -43.31879025 126.66900848 -42.30899072 126.67405438 C-36.0815841 126.70482657 -29.85417244 126.73152172 -23.62671185 126.74847317 C-15.673721 126.77037965 -7.72140513 126.81236736 0.23131591 126.88191074 C5.8306065 126.92920536 11.42971528 126.95341368 17.0291993 126.96067005 C20.37047967 126.96561751 23.71039479 126.98364881 27.05156898 127.02041435 C30.78141647 127.05925391 34.50950083 127.06037218 38.23950195 127.05249023 C39.3394902 127.07249084 40.43947845 127.09249146 41.57279968 127.11309814 C47.7063382 127.0549221 51.29971718 126.36903779 55.76776409 122.03408909 C58.85158519 118.08360126 59.88770694 114.44532302 59.7578125 109.48046875 C58.33148841 102.92265682 54.23003792 97.43252924 50.65673828 91.84228516 C48.4293045 88.33337075 46.28124219 84.77801628 44.12817383 81.22314453 C42.36061595 78.30594139 40.58311371 75.39496281 38.8046875 72.484375 C34.91921808 66.11051671 31.09301635 59.70180317 27.265625 53.29296875 C22.7074119 45.66621525 18.07333948 38.11981705 13.1875 30.69921875 C11.57378674 28.1411844 10.06450384 25.58799061 8.59375 22.94921875 C2.87904206 11.65905095 2.87904206 11.65905095 -6.921875 4.35546875 C-15.74898791 2.1915028 -22.20370108 7.33214113 -26.8984375 14.4921875 Z " fill="#2F2319" transform="translate(183.921875,94.64453125)"/>
<path d="M0 0 C0 0.33 0 0.66 0 1 C-3.96 1.33 -7.92 1.66 -12 2 C-12 2.66 -12 3.32 -12 4 C-11.34 4 -10.68 4 -10 4 C-10 4.66 -10 5.32 -10 6 C-10.99 6 -11.98 6 -13 6 C-13 6.66 -13 7.32 -13 8 C-13.721875 8.515625 -14.44375 9.03125 -15.1875 9.5625 C-18.37508275 12.32507172 -19.80787334 14.92269381 -21.734375 18.6171875 C-23.32509567 21.61206283 -25.13694542 24.43213757 -26.984375 27.2734375 C-28.16164908 29.13755725 -28.16164908 29.13755725 -29 32 C-29.66 32 -30.32 32 -31 32 C-31.66 33.65 -32.32 35.3 -33 37 C-33.66 37 -34.32 37 -35 37 C-35.0928125 38.9490625 -35.0928125 38.9490625 -35.1875 40.9375 C-35.59027886 44.52627354 -36.35909891 47.08444897 -38.171875 50.203125 C-38.62328857 50.98292725 -39.07470215 51.76272949 -39.53979492 52.56616211 C-42.0051314 56.67533103 -44.51864762 60.75151921 -47.0625 64.8125 C-54.04758298 76.02732185 -60.83965615 87.35247202 -67.60986328 98.69775391 C-68.14208496 99.58769043 -68.67430664 100.47762695 -69.22265625 101.39453125 C-69.70613525 102.2038208 -70.18961426 103.01311035 -70.68774414 103.84692383 C-71.75043552 105.59052853 -72.86734209 107.30101313 -74 109 C-74.74880815 114.05880853 -74.5526272 117.96842923 -72.125 122.5 C-68.76179974 126.47709125 -68.76179974 126.47709125 -64 128 C-62.31048995 128.09835716 -60.61768001 128.14592971 -58.925354 128.15821838 C-57.90174271 128.1680072 -56.87813141 128.17779602 -55.82350159 128.18788147 C-54.70644333 128.19363693 -53.58938507 128.1993924 -52.43847656 128.20532227 C-51.25771042 128.21522186 -50.07694427 128.22512146 -48.86039734 128.23532104 C-45.62727892 128.2614831 -42.3941656 128.28335577 -39.16100407 128.30332303 C-35.7803846 128.32521466 -32.39980962 128.35258778 -29.01922607 128.37937927 C-22.61971836 128.42926325 -16.22018589 128.47421798 -9.82062984 128.51740164 C-2.53406839 128.56681076 4.75244841 128.62171524 12.03896666 128.67708123 C27.02593614 128.79083532 42.0129477 128.89768863 57 129 C57 129.66 57 130.32 57 131 C16.74 131 -23.52 131 -65 131 C-65 131.99 -65 132.98 -65 134 C-25.07 134.33 14.86 134.66 56 135 C56.33 134.34 56.66 133.68 57 133 C58.32 133.66 59.64 134.32 61 135 C57.88858924 135.90970517 55.09531212 136.13182989 51.85856628 136.14717102 C50.81982864 136.15432632 49.781091 136.16148163 48.71087646 136.16885376 C47.57676331 136.17154266 46.44265015 136.17423157 45.27416992 136.17700195 C44.07538712 136.18357315 42.87660431 136.19014435 41.64149475 136.19691467 C37.6711592 136.21663903 33.70083689 136.22831114 29.73046875 136.23828125 C28.36114291 136.24233058 26.99181727 136.24644756 25.62249184 136.25063133 C19.18910029 136.26967031 12.75572014 136.28390483 6.32230586 136.2922433 C-1.09383509 136.30201548 -8.50967756 136.32833958 -15.92571336 136.36874419 C-21.66513658 136.39893702 -27.40447436 136.4137151 -33.14397544 136.41702431 C-36.56873731 136.41937092 -39.99317982 136.42828009 -43.41785622 136.45348549 C-47.24080892 136.47779966 -51.06298017 136.47692555 -54.88598633 136.4699707 C-56.57804703 136.48918579 -56.57804703 136.48918579 -58.30429077 136.50878906 C-65.98632555 136.45785057 -70.48808311 135.33569167 -76.1796875 129.9296875 C-77.01886719 128.91261719 -77.01886719 128.91261719 -77.875 127.875 C-78.44992188 127.19179687 -79.02484375 126.50859375 -79.6171875 125.8046875 C-83.30460549 120.99229453 -82.79479178 114.84316621 -82.33398438 109.02648926 C-81.36641209 103.15563128 -77.71490678 98.24572602 -74.5 93.375 C-73.45585938 91.70824219 -73.45585938 91.70824219 -72.390625 90.0078125 C-70.98542294 87.76989811 -69.5666076 85.5404736 -68.13427734 83.31982422 C-62.37664197 74.3639416 -56.905291 65.22248372 -51.375 56.125 C-50.48820557 54.66731201 -50.48820557 54.66731201 -49.58349609 53.18017578 C-47.72201555 50.12030877 -45.86095175 47.06018864 -44 44 C-42.75524691 41.95310154 -41.51045549 39.90622639 -40.265625 37.859375 C-39.66000732 36.86333252 -39.05438965 35.86729004 -38.43041992 34.84106445 C-37.23690137 32.88027245 -36.04177861 30.92045593 -34.8449707 28.96166992 C-32.39538374 24.95151241 -29.95241476 20.94106637 -27.58984375 16.87890625 C-23.45705623 9.86351935 -19.7080097 4.79935712 -12.6875 0.625 C-8.48188984 -0.35304887 -4.29687563 -0.15018206 0 0 Z " fill="#2B2827" transform="translate(177,92)"/>
<path d="M0 0 C3.375 1.25 3.375 1.25 6 4 C6.71548704 8.02035572 6.29508886 11.94573568 6 16 C5.9365907 17.52584916 5.87827462 19.05191585 5.82421875 20.578125 C5.75936717 22.17714714 5.69296517 23.77610717 5.625 25.375 C5.59462646 26.13570801 5.56425293 26.89641602 5.53295898 27.68017578 C5.2585743 32.79939395 4.70929223 37.55815396 1.6875 41.875 C-0.69549858 43.46366572 -2.19554171 43.42066874 -5 43 C-7.44809481 41.25913258 -7.97348355 40.10294623 -8.73046875 37.1640625 C-9.73551768 29.38137595 -10.24810095 21.66124012 -10.375 13.8125 C-10.40102295 12.90387207 -10.4270459 11.99524414 -10.45385742 11.05908203 C-10.47126914 4.65997648 -10.47126914 4.65997648 -8.15625 1.41796875 C-5.1618325 -0.55118624 -3.52778746 -0.56444599 0 0 Z " fill="#202122" transform="translate(175,131)"/>
<path d="M0 0 C0.99 0.33 1.98 0.66 3 1 C2.34 1 1.68 1 1 1 C1.33 2.32 1.66 3.64 2 5 C-1.8586901 7.87158333 -4.14940848 9.41576499 -9 9 C-9.33 9.33 -9.66 9.66 -10 10 C-11.53896196 10.09801202 -13.08241675 10.12631844 -14.62449646 10.12698364 C-16.12414948 10.13121338 -16.12414948 10.13121338 -17.65409851 10.13552856 C-18.76009903 10.13350433 -19.86609955 10.1314801 -21.00561523 10.12939453 C-22.16322357 10.13114685 -23.32083191 10.13289917 -24.51351929 10.13470459 C-28.36189244 10.13912631 -32.21022008 10.13618379 -36.05859375 10.1328125 C-38.72038328 10.13348549 -41.3821714 10.13445379 -44.04396057 10.13571167 C-49.63193256 10.13753334 -55.21989134 10.13512739 -60.80786133 10.13037109 C-67.27382098 10.12493113 -73.73974909 10.1266892 -80.20570797 10.1321975 C-85.74966529 10.13673187 -91.2936131 10.1373775 -96.83757168 10.13475883 C-100.15198407 10.1331975 -103.46637833 10.13338924 -106.78079033 10.13629532 C-110.47554559 10.13882332 -114.17023956 10.13497897 -117.86499023 10.12939453 C-118.96896652 10.13141876 -120.07294281 10.13344299 -121.21037292 10.13552856 C-122.21296143 10.13270874 -123.21554993 10.12988892 -124.2485199 10.12698364 C-125.56012667 10.1264181 -125.56012667 10.1264181 -126.89823055 10.12584114 C-129 10 -129 10 -131 9 C-131 8.01 -131 7.02 -131 6 C-90.74 6 -50.48 6 -9 6 C-9 5.34 -9 4.68 -9 4 C-7.88625 3.525625 -6.7725 3.05125 -5.625 2.5625 C-3.73289006 1.74693537 -1.84287291 0.92143645 0 0 Z " fill="#171715" transform="translate(243,217)"/>
<path d="M0 0 C6.14057935 7.30269834 14.54365846 17.80749766 14.875 27.6875 C14.23153085 33.02557506 11.59424509 36.22812943 8.0802002 40.13369751 C3.34551679 43.00245631 -1.16152577 42.54108077 -6.59570312 42.48583984 C-8.35502419 42.49153488 -8.35502419 42.49153488 -10.14988708 42.49734497 C-14.02727998 42.50475494 -17.90392367 42.48336029 -21.78125 42.4609375 C-24.47497717 42.45653879 -27.16869671 42.4575461 -29.86242676 42.4581604 C-35.50815136 42.45628892 -41.15366062 42.43894633 -46.79931641 42.41162109 C-53.32101183 42.38017185 -59.84247152 42.36962501 -66.36423731 42.3710922 C-73.31520291 42.37244462 -80.26607798 42.35855378 -87.21701622 42.34019899 C-89.21649724 42.3359423 -91.21598412 42.33482995 -93.21546936 42.33372116 C-96.94519865 42.32938851 -100.67463126 42.31188757 -104.40429688 42.29052734 C-105.50990463 42.29143372 -106.61551239 42.29234009 -107.75462341 42.29327393 C-108.77238358 42.28474396 -109.79014374 42.27621399 -110.83874512 42.26742554 C-111.71993767 42.26407385 -112.60113022 42.26072216 -113.50902557 42.25726891 C-117.01928007 41.89472832 -119.93853256 40.98641419 -122.546875 38.5625 C-126.42207654 33.52977073 -127.3956728 30.88889466 -127.359375 24.609375 C-126.78942695 20.47105658 -124.67951597 18.061144 -122 15 C-121.34 14.01 -120.68 13.02 -120 12 C-120.54723683 15.37462715 -121.0549 17.08235 -123 20 C-123.29991069 22.58885171 -123.50865225 25.09149082 -123.625 27.6875 C-123.66367188 28.38939453 -123.70234375 29.09128906 -123.7421875 29.81445312 C-123.8362334 31.54254655 -123.9191968 33.27123675 -124 35 C-123.01 35.33 -122.02 35.66 -121 36 C-121 36.66 -121 37.32 -121 38 C-117.90006418 38.90410485 -115.11167086 39.13499826 -111.88739014 39.15821838 C-110.33935196 39.17290161 -110.33935196 39.17290161 -108.76004028 39.18788147 C-107.63363129 39.19363693 -106.50722229 39.1993924 -105.34667969 39.20532227 C-104.15615997 39.21522186 -102.96564026 39.22512146 -101.73904419 39.23532104 C-98.47906703 39.26148406 -95.21909491 39.28335633 -91.95907497 39.30332303 C-88.5504285 39.3252139 -85.14182617 39.3525874 -81.73321533 39.37937927 C-75.28058347 39.42926427 -68.82792705 39.47421863 -62.37524724 39.51740164 C-55.02822768 39.56680988 -47.68125242 39.62171469 -40.33427572 39.67708123 C-25.22289178 39.7908369 -10.11146609 39.89768987 5 40 C5 39.34 5 38.68 5 38 C5.99 37.67 6.98 37.34 8 37 C8.33 36.01 8.66 35.02 9 34 C9.66 34 10.32 34 11 34 C10.88506243 32.10353002 10.75760358 30.20781668 10.625 28.3125 C10.52058594 26.72888672 10.52058594 26.72888672 10.4140625 25.11328125 C10.00844482 22.06349549 9.37473086 19.74451665 8 17 C7.34 16.67 6.68 16.34 6 16 C4.89070776 14.10040888 3.8597171 12.15455565 2.875 10.1875 C2.33617187 9.12917969 1.79734375 8.07085937 1.2421875 6.98046875 C0 4 0 4 0 0 Z " fill="#D29C2F" transform="translate(229,179)"/>
<path d="M0 0 C0.74686066 0.32342377 1.49372131 0.64684753 2.26321411 0.98007202 C7.46277252 2.39925291 12.42120545 2.3084009 17.78857422 2.31884766 C18.96963242 2.32889328 20.15069061 2.3389389 21.36753845 2.34928894 C24.59229527 2.37481693 27.81695662 2.39171094 31.04178381 2.40471697 C34.41707667 2.42038782 37.79228131 2.44716535 41.16751099 2.4727478 C47.55277678 2.5194658 53.9380593 2.55624357 60.32340825 2.58942068 C67.59553135 2.62769151 74.86756569 2.67708861 82.13961387 2.72740483 C97.09301024 2.83062082 112.04646051 2.91991468 127 3 C127 3.66 127 4.32 127 5 C110.90151259 5.0700663 94.80307461 5.12297645 78.70447159 5.15543652 C71.22968704 5.17090857 63.7549972 5.19200448 56.28027344 5.22631836 C49.76566179 5.25621045 43.25111874 5.27557254 36.73644042 5.28226548 C33.28661213 5.2861781 29.83698008 5.29538007 26.38721466 5.31719017 C22.53707691 5.3413343 18.68713153 5.34197011 14.83691406 5.34057617 C13.69180359 5.351362 12.54669312 5.36214783 11.36688232 5.3732605 C10.31802856 5.36913651 9.2691748 5.36501251 8.1885376 5.36076355 C7.27780613 5.36352893 6.36707466 5.36629431 5.42874527 5.36914349 C2.54885914 4.93143138 1.16060216 3.90496828 -1 2 C-0.67 1.34 -0.34 0.68 0 0 Z " fill="#342203" transform="translate(107,218)"/>
<path d="M0 0 C4.81826218 0.84530916 6.34029694 1.93125503 9.5625 5.625 C10.29840357 9.74605997 9.99452533 11.79695144 8.0625 15.5 C5.14620525 17.97885054 3.2900283 18.56945695 -0.46875 18.8359375 C-3.66332498 18.49366161 -5.29366798 16.89876123 -7.4375 14.625 C-9.00685594 11.48628812 -8.78951103 9.08644178 -8.4375 5.625 C-5.86890902 1.96670376 -4.41498801 0.80272509 0 0 Z " fill="#201E1E" transform="translate(172.4375,184.375)"/>
<path d="M0 0 C4.21022727 2.91477273 4.21022727 2.91477273 5.4375 4.6875 C5.625 7.375 5.625 7.375 5.4375 9.6875 C3.05185923 9.11165568 0.77067216 8.46522405 -1.5625 7.6875 C-1.5625 7.0275 -1.5625 6.3675 -1.5625 5.6875 C-3.74822573 5.55108161 -5.9364783 5.45487305 -8.125 5.375 C-9.34316406 5.31699219 -10.56132812 5.25898437 -11.81640625 5.19921875 C-17.37048878 5.92316069 -20.63520883 8.1904286 -24.0456543 12.60913086 C-25.49131908 14.80228298 -26.82070023 17.0325897 -28.125 19.3125 C-28.59679687 20.10922119 -29.06859375 20.90594238 -29.5546875 21.72680664 C-32.62683795 26.94808713 -35.57710068 32.23118852 -38.34375 37.62109375 C-39.54771063 39.66242443 -40.81139506 41.10437897 -42.5625 42.6875 C-43.7702558 39.06423261 -43.10561128 38.04603631 -41.5625 34.6875 C-40.9025 34.6875 -40.2425 34.6875 -39.5625 34.6875 C-38.9025 33.0375 -38.2425 31.3875 -37.5625 29.6875 C-36.9025 29.6875 -36.2425 29.6875 -35.5625 29.6875 C-35.500625 29.006875 -35.43875 28.32625 -35.375 27.625 C-34.48353426 24.40200846 -32.9659932 22.29875116 -30.9609375 19.65625 C-28.94699247 16.82097544 -27.37826747 13.78353689 -25.7734375 10.703125 C-24.55235583 8.67061487 -23.37959805 7.20655551 -21.5625 5.6875 C-20.9025 5.6875 -20.2425 5.6875 -19.5625 5.6875 C-19.5625 5.0275 -19.5625 4.3675 -19.5625 3.6875 C-18.5725 3.6875 -17.5825 3.6875 -16.5625 3.6875 C-16.5625 3.0275 -16.5625 2.3675 -16.5625 1.6875 C-17.2225 1.6875 -17.8825 1.6875 -18.5625 1.6875 C-18.5625 1.0275 -18.5625 0.3675 -18.5625 -0.3125 C-12.61271772 -2.29576076 -5.85829254 -2.1583183 0 0 Z " fill="#1E1916" transform="translate(183.5625,94.3125)"/>
<path d="M0 0 C0 0.33 0 0.66 0 1 C-5.94 1.495 -5.94 1.495 -12 2 C-12 2.66 -12 3.32 -12 4 C-11.34 4 -10.68 4 -10 4 C-10 4.66 -10 5.32 -10 6 C-10.99 6 -11.98 6 -13 6 C-13 6.66 -13 7.32 -13 8 C-14.0828125 8.7734375 -14.0828125 8.7734375 -15.1875 9.5625 C-18.37508275 12.32507172 -19.80787334 14.92269381 -21.734375 18.6171875 C-23.32509567 21.61206283 -25.13694542 24.43213757 -26.984375 27.2734375 C-28.16164908 29.13755725 -28.16164908 29.13755725 -29 32 C-29.66 32 -30.32 32 -31 32 C-31.99 34.475 -31.99 34.475 -33 37 C-33.66 37 -34.32 37 -35 37 C-35.33 38.32 -35.66 39.64 -36 41 C-36.66 40.01 -37.32 39.02 -38 38 C-38.33 38.99 -38.66 39.98 -39 41 C-39.66 41 -40.32 41 -41 41 C-39.72043301 37.61220827 -38.25721364 34.55439115 -36.390625 31.453125 C-35.88273438 30.6075 -35.37484375 29.761875 -34.8515625 28.890625 C-34.32304687 28.01921875 -33.79453125 27.1478125 -33.25 26.25 C-32.73695313 25.3940625 -32.22390625 24.538125 -31.6953125 23.65625 C-17.07009415 -0.59662465 -17.07009415 -0.59662465 0 0 Z " fill="#211E1C" transform="translate(177,92)"/>
<path d="M0 0 C1.31625194 2.63250388 0.74813658 3.80179056 0.0625 6.625 C-0.13214844 7.44226563 -0.32679688 8.25953125 -0.52734375 9.1015625 C-0.76130859 10.04128906 -0.76130859 10.04128906 -1 11 C-1.66 11 -2.32 11 -3 11 C-3.268125 11.9075 -3.53625 12.815 -3.8125 13.75 C-4.90131632 16.72991834 -5.86391101 18.68590359 -8 21 C-8.66 21 -9.32 21 -10 21 C-10.144375 21.61875 -10.28875 22.2375 -10.4375 22.875 C-11 25 -11 25 -12 27 C-12.99 27.33 -13.98 27.66 -15 28 C-15.87914855 29.96845043 -15.87914855 29.96845043 -16.4375 32.3125 C-17.63245276 36.30615792 -18.99879122 38.09560441 -22 41 C-22.33 42.19625 -22.66 43.3925 -23 44.625 C-23.33 45.73875 -23.66 46.8525 -24 48 C-24.64839844 48.30550781 -25.29679687 48.61101562 -25.96484375 48.92578125 C-28.18798436 49.83032036 -28.18798436 49.83032036 -28.94140625 52.12890625 C-29.14636719 52.93199219 -29.35132812 53.73507813 -29.5625 54.5625 C-30.19140625 57.00390625 -30.19140625 57.00390625 -31 59 C-32.485 59.495 -32.485 59.495 -34 60 C-34.0825 60.94875 -34.165 61.8975 -34.25 62.875 C-35 66 -35 66 -37.0625 67.375 C-38.0215625 67.684375 -38.0215625 67.684375 -39 68 C-39 68.66 -39 69.32 -39 70 C-39.66 70 -40.32 70 -41 70 C-41 70.99 -41 71.98 -41 73 C-42.485 73.495 -42.485 73.495 -44 74 C-42.52269317 69.95413531 -40.57385963 66.44688094 -38.33203125 62.7734375 C-37.9741301 62.18511139 -37.61622894 61.59678528 -37.2474823 60.9906311 C-36.49024336 59.74739502 -35.73119887 58.50525709 -34.97045898 57.26416016 C-33.83005359 55.40363792 -32.69478313 53.54006938 -31.56054688 51.67578125 C-27.60096385 45.17986325 -23.58467397 38.72687992 -19.45947266 32.33422852 C-18.07238236 30.11576577 -16.79817851 27.86803835 -15.5625 25.5625 C-12.99068479 20.81779802 -9.96054898 16.41899282 -6.9375 11.953125 C-4.3991605 8.08420431 -2.1506914 4.09458556 0 0 Z " fill="#E5A222" transform="translate(153,117)"/>
<path d="M0 0 C0.66 0.66 1.32 1.32 2 2 C-1.65529044 3.0544107 -5.30544219 4.09270815 -9 5 C-8.79431396 5.97900269 -8.79431396 5.97900269 -8.58447266 6.9777832 C-7.18328129 14.06966804 -6.59721665 20.97008853 -6.375 28.1875 C-6.33632812 29.23486328 -6.29765625 30.28222656 -6.2578125 31.36132812 C-6.16480563 33.90739113 -6.07896716 36.45346963 -6 39 C-4.02 39 -2.04 39 0 39 C0.66 32.4 1.32 25.8 2 19 C2.33 19 2.66 19 3 19 C3.33 13.72 3.66 8.44 4 3 C4.66 3.33 5.32 3.66 6 4 C6.1259269 11.13585747 5.96844248 18.24802175 5.625 25.375 C5.59414307 26.13538574 5.56328613 26.89577148 5.53149414 27.67919922 C5.26059431 32.79869906 4.70911507 37.55840705 1.6875 41.875 C-0.69549858 43.46366572 -2.19554171 43.42066874 -5 43 C-7.44809481 41.25913258 -7.97348355 40.10294623 -8.73046875 37.1640625 C-9.73551768 29.38137595 -10.24810095 21.66124012 -10.375 13.8125 C-10.40102295 12.90387207 -10.4270459 11.99524414 -10.45385742 11.05908203 C-10.47124839 4.66760188 -10.47124839 4.66760188 -8.171875 1.41015625 C-5.27264946 -0.47225458 -3.38937118 -0.44209189 0 0 Z " fill="#452D07" transform="translate(175,131)"/>
<path d="M0 0 C5.21072787 0.19210057 9.34782124 0.44723384 13.73046875 3.59375 C15.05401559 7.02691455 14.77407517 10.41452484 14.64453125 14.046875 C14.60070312 15.30628906 14.556875 16.56570312 14.51171875 17.86328125 C14.46015625 19.17683594 14.40859375 20.49039063 14.35546875 21.84375 C14.31164062 23.14183594 14.2678125 24.43992188 14.22265625 25.77734375 C13.70964702 39.7568453 13.70964702 39.7568453 12.73046875 44.59375 C9.30952633 46.87437828 8.04859653 46.81300007 4.04296875 46.71875 C3.04910156 46.70070312 2.05523437 46.68265625 1.03125 46.6640625 C-0.10763672 46.62925781 -0.10763672 46.62925781 -1.26953125 46.59375 C-0.93953125 45.27375 -0.60953125 43.95375 -0.26953125 42.59375 C0.39046875 43.25375 1.05046875 43.91375 1.73046875 44.59375 C4.55171076 44.95544769 6.09703788 45.02357809 8.48046875 43.40625 C12.47593961 37.61281725 11.33136084 27.64053478 11.62646484 20.83496094 C11.71907016 18.83938154 11.84180318 16.84525189 11.96875 14.8515625 C12.01386719 13.79710937 12.05898437 12.74265625 12.10546875 11.65625 C12.15445313 10.73972656 12.2034375 9.82320312 12.25390625 8.87890625 C11.93067933 6.35476421 11.93067933 6.35476421 9.40234375 4.80078125 C6.22365435 3.36479437 4.18230877 3.14351 0.73046875 3.59375 C-1.41944776 5.20085161 -2.17463995 6.11607864 -2.7019043 8.77026367 C-2.72808838 9.59244385 -2.75427246 10.41462402 -2.78125 11.26171875 C-2.81669922 12.15439453 -2.85214844 13.04707031 -2.88867188 13.96679688 C-2.91123047 14.89556641 -2.93378906 15.82433594 -2.95703125 16.78125 C-2.99119141 17.72162109 -3.02535156 18.66199219 -3.06054688 19.63085938 C-3.14301343 21.95170393 -3.21216528 24.27217148 -3.26953125 26.59375 C-3.59953125 26.59375 -3.92953125 26.59375 -4.26953125 26.59375 C-5.14222883 22.04023922 -5.46340779 17.66611278 -5.51953125 13.03125 C-5.5453125 11.75121094 -5.57109375 10.47117188 -5.59765625 9.15234375 C-5.19771311 4.81486521 -4.60639661 1.20511581 0 0 Z " fill="#ECA61F" transform="translate(168.26953125,128.40625)"/>
<path d="M0 0 C5.87274971 1.95758324 8.82039311 5.3469843 11.91015625 10.58984375 C12.68262695 11.89018555 12.68262695 11.89018555 13.47070312 13.21679688 C13.99599609 14.11462891 14.52128906 15.01246094 15.0625 15.9375 C15.59166016 16.83146484 16.12082031 17.72542969 16.66601562 18.64648438 C17.65385229 20.31601511 18.63925332 21.9869913 19.62133789 23.65991211 C20.61400378 25.34482491 21.63501544 27.01315301 22.67358398 28.67016602 C24 31 24 31 24 33 C21 32 21 32 19 29 C16.94996045 27.80767387 16.94996045 27.80767387 15 27 C15 26.34 15 25.68 15 25 C14.34 25 13.68 25 13 25 C12.67 23.02 12.34 21.04 12 19 C11.01 18.67 10.02 18.34 9 18 C9 17.34 9 16.68 9 16 C8.01 16 7.02 16 6 16 C5.938125 15.154375 5.87625 14.30875 5.8125 13.4375 C4.90834439 9.61222626 3.49183085 7.61174623 1.05859375 4.61328125 C0 3 0 3 0 0 Z " fill="#231E1C" transform="translate(207,136)"/>
<path d="M0 0 C0.598125 0.226875 1.19625 0.45375 1.8125 0.6875 C1.19375 0.914375 0.575 1.14125 -0.0625 1.375 C-2.84374625 3.09282857 -3.02147089 4.67598873 -4.1875 7.6875 C-5.06183401 9.13067783 -5.98024537 10.54793683 -6.9375 11.9375 C-7.73414063 13.11119141 -7.73414063 13.11119141 -8.546875 14.30859375 C-9.59312403 15.82565484 -10.6446704 17.33908565 -11.703125 18.84765625 C-14.5503903 22.97619094 -16.945226 27.10355896 -19.125 31.625 C-21.55772692 36.66422005 -24.4013027 41.07002013 -27.76953125 45.53125 C-29.15485391 47.63785636 -29.75639212 49.22402643 -30.1875 51.6875 C-30.8475 51.6875 -31.5075 51.6875 -32.1875 51.6875 C-32.435 52.38875 -32.6825 53.09 -32.9375 53.8125 C-34.34838026 57.05752459 -36.16645398 59.79066737 -38.1875 62.6875 C-39.1875 59.6875 -39.1875 59.6875 -37.9375 56.75 C-36.48191291 54.2027226 -35.12913861 51.88239582 -33.1875 49.6875 C-32.5275 49.6875 -31.8675 49.6875 -31.1875 49.6875 C-31.27 48.945 -31.3525 48.2025 -31.4375 47.4375 C-31.10989478 43.83384263 -29.77566265 43.12776764 -27.1875 40.6875 C-26.11974776 38.72283587 -25.12196535 36.71894641 -24.1875 34.6875 C-21.40972222 28.79861111 -21.40972222 28.79861111 -19.1875 27.6875 C-18.90003906 26.96820313 -18.61257812 26.24890625 -18.31640625 25.5078125 C-16.98148846 22.17282756 -15.16456458 19.51635215 -13.125 16.5625 C-10.19735657 12.35431321 -10.19735657 12.35431321 -8.1875 7.6875 C-7.5275 7.6875 -6.8675 7.6875 -6.1875 7.6875 C-6.084375 6.924375 -5.98125 6.16125 -5.875 5.375 C-4.96779776 1.82866396 -3.97999393 -0.56857056 0 0 Z " fill="#F0C57D" transform="translate(153.1875,90.3125)"/>
<path d="M0 0 C3 0 3 0 4.625 1.125 C6.47382935 3.64613093 6.65927797 5.93350175 7 9 C7.66 9 8.32 9 9 9 C9.33 9.66 9.66 10.32 10 11 C10.825 11.495 11.65 11.99 12.5 12.5 C15 14 15 14 16 16 C16.66 16.2475 17.32 16.495 18 16.75 C20 18 20 18 20.75 21.125 C20.87375 22.548125 20.87375 22.548125 21 24 C20.34 24.33 19.68 24.66 19 25 C19 26.32 19 27.64 19 29 C19.66 29 20.32 29 21 29 C21.33 29.99 21.66 30.98 22 32 C21.34 32.66 20.68 33.32 20 34 C19.39414063 32.9584375 18.78828125 31.916875 18.1640625 30.84375 C13.26072948 22.44592894 8.26915929 14.1216471 3.04931641 5.91601562 C0 1.10091801 0 1.10091801 0 0 Z " fill="#1F1C1A" transform="translate(213,152)"/>
<path d="M0 0 C0.45375 0.61875 0.9075 1.2375 1.375 1.875 C2.97108919 4.05919833 2.97108919 4.05919833 5 6 C5 6.99 5 7.98 5 9 C5.66 9 6.32 9 7 9 C9.1484375 13.98046875 9.1484375 13.98046875 10 16 C10.36609375 16.74507812 10.7321875 17.49015625 11.109375 18.2578125 C12.26089158 21.80327146 12.14038028 25.02369364 11.875 28.6875 C11.82496826 29.39575928 11.77493652 30.10401855 11.72338867 30.83374023 C10.92105889 39.96739582 7.98717536 47.79118874 1 54 C-2.42554145 55.92164521 -5.10274971 56.22270002 -9 56 C-6.73948912 54.26114548 -4.54235456 52.7370973 -2.0625 51.3125 C1.79773211 48.39763086 3.74265767 45.21470561 6 41 C6.79664063 39.59234375 6.79664063 39.59234375 7.609375 38.15625 C10.46255484 31.68049352 10.20952039 24.30367382 7.79296875 17.703125 C6.30092678 14.72659571 4.69318207 11.86602039 3 9 C2.19469707 7.42355852 1.4009965 5.84107196 0.625 4.25 C0.08875 3.1775 -0.4475 2.105 -1 1 C-0.67 0.67 -0.34 0.34 0 0 Z " fill="#F4C77B" transform="translate(248,178)"/>
<path d="M0 0 C2 2 2 2 2.125 5.125 C2.08375 6.07375 2.0425 7.0225 2 8 C1.34 8 0.68 8 0 8 C0 8.66 0 9.32 0 10 C-1.33333333 11.33333333 -2.66666667 12.66666667 -4 14 C-4.33 14.99 -4.66 15.98 -5 17 C-5.66 17 -6.32 17 -7 17 C-7.33 18.98 -7.66 20.96 -8 23 C-8.66 23 -9.32 23 -10 23 C-10 23.66 -10 24.32 -10 25 C-10.66 25 -11.32 25 -12 25 C-13.234375 22.9140625 -13.234375 22.9140625 -14 20 C-12.85935125 17.52058982 -11.77620972 15.58850947 -10.25 13.375 C-9.68925781 12.51648438 -9.68925781 12.51648438 -9.1171875 11.640625 C-8.09526462 10.08237381 -7.04861878 8.54041286 -6 7 C-5.34 6.01 -4.68 5.02 -4 4 C-3.01 4 -2.02 4 -1 4 C-0.67 2.68 -0.34 1.36 0 0 Z " fill="#28231E" transform="translate(139,129)"/>
<path d="M0 0 C-3.70143228 1.61937662 -7.36415296 3.13196686 -11.1875 4.4375 C-13.96001798 5.43987189 -15.03361823 6.03361823 -17.1875 8.1875 C-17.785625 8.785625 -18.38375 9.38375 -19 10 C-19.78375 9.979375 -20.5675 9.95875 -21.375 9.9375 C-25.34572434 10.03204106 -27.08354133 12.44809866 -30 15 C-31.65204456 15.70211894 -33.31923769 16.36971413 -35 17 C-36.010625 17.721875 -37.02125 18.44375 -38.0625 19.1875 C-41 21 -41 21 -43.18359375 20.61328125 C-43.78300781 20.41089844 -44.38242188 20.20851563 -45 20 C-37.70055402 14.33861867 -30.38077855 9.86720893 -22 6 C-21.02417969 5.53464844 -20.04835938 5.06929687 -19.04296875 4.58984375 C-4.99931146 -1.99972458 -4.99931146 -1.99972458 0 0 Z " fill="#F2C984" transform="translate(127,25)"/>
<path d="M0 0 C4.81826218 0.84530916 6.34029694 1.93125503 9.5625 5.625 C10.29840357 9.74605997 9.99452533 11.79695144 8.0625 15.5 C5.14620525 17.97885054 3.2900283 18.56945695 -0.46875 18.8359375 C-3.66332498 18.49366161 -5.29366798 16.89876123 -7.4375 14.625 C-9.00685594 11.48628812 -8.78951103 9.08644178 -8.4375 5.625 C-5.86890902 1.96670376 -4.41498801 0.80272509 0 0 Z M-6.4375 6.625 C-6.85496608 9.75135209 -6.85496608 9.75135209 -6.4375 12.625 C-5.4475 13.12 -5.4475 13.12 -4.4375 13.625 C-4.1075 14.615 -3.7775 15.605 -3.4375 16.625 C-0.24365246 16.84276233 1.96672845 16.91483481 4.875 15.5 C7.21026603 12.90525997 7.49186148 11.08628747 7.5625 7.625 C6.66014165 5.14394806 6.66014165 5.14394806 4.5625 3.625 C0.07102973 2.94151539 -3.00665071 3.59778004 -6.4375 6.625 Z " fill="#4A2B04" transform="translate(172.4375,184.375)"/>
<path d="M0 0 C3.96 0 7.92 0 12 0 C12 0.33 12 0.66 12 1 C11.33613281 1.09796875 10.67226562 1.1959375 9.98828125 1.296875 C9.10527344 1.44640625 8.22226563 1.5959375 7.3125 1.75 C6.00732422 1.95882812 6.00732422 1.95882812 4.67578125 2.171875 C-2.1588212 4.28710963 -5.01774333 9.74062843 -8.4375 15.5625 C-8.91832031 16.36373291 -9.39914063 17.16496582 -9.89453125 17.99047852 C-13.01569321 23.22422426 -15.99816102 28.51166125 -18.78125 33.93359375 C-19.98521063 35.97492443 -21.24889506 37.41687897 -23 39 C-24.2077558 35.37673261 -23.54311128 34.35853631 -22 31 C-21.34 31 -20.68 31 -20 31 C-19.34 29.35 -18.68 27.7 -18 26 C-17.34 26 -16.68 26 -16 26 C-15.938125 25.319375 -15.87625 24.63875 -15.8125 23.9375 C-14.92103426 20.71450846 -13.4034932 18.61125116 -11.3984375 15.96875 C-9.38449247 13.13347544 -7.81576747 10.09603689 -6.2109375 7.015625 C-4.98985583 4.98311487 -3.81709805 3.51905551 -2 2 C-1.34 2 -0.68 2 0 2 C0 1.34 0 0.68 0 0 Z " fill="#321D04" transform="translate(164,98)"/>
<path d="M0 0 C1.85915039 -0.00580078 1.85915039 -0.00580078 3.75585938 -0.01171875 C5.54540039 -0.00978516 5.54540039 -0.00978516 7.37109375 -0.0078125 C8.44157959 -0.00668457 9.51206543 -0.00555664 10.61499023 -0.00439453 C13.37437856 0.11674154 15.87705634 0.500103 18.5625 1.125 C18.5625 1.455 18.5625 1.785 18.5625 2.125 C17.53592285 2.13958252 16.5093457 2.15416504 15.45166016 2.16918945 C11.54851798 2.22829482 7.64588746 2.30548949 3.74316406 2.38745117 C2.07170066 2.42018426 0.40014033 2.44836606 -1.27148438 2.47143555 C-11.13490759 2.61106835 -20.63520028 3.19268221 -30.33236694 5.09284973 C-35.12218973 6.015762 -39.55576683 6.25263819 -44.4375 6.125 C-44.4375 5.795 -44.4375 5.465 -44.4375 5.125 C-43.64085937 5.00382812 -42.84421875 4.88265625 -42.0234375 4.7578125 C-35.6364789 3.79832118 -35.6364789 3.79832118 -29.4375 2.0625 C-20.18249873 -0.8296879 -9.59494683 -0.03060589 0 0 Z " fill="#EFCB8C" transform="translate(175.4375,15.875)"/>
<path d="M0 0 C6.14057935 7.30269834 14.54365846 17.80749766 14.875 27.6875 C14.23236511 33.16386688 11.23200296 37.53745213 7 41 C6.34 41 5.68 41 5 41 C5 40.01 5 39.02 5 38 C6.485 37.505 6.485 37.505 8 37 C8.33 36.01 8.66 35.02 9 34 C9.66 34 10.32 34 11 34 C10.88506243 32.10353002 10.75760358 30.20781668 10.625 28.3125 C10.55539063 27.25675781 10.48578125 26.20101562 10.4140625 25.11328125 C10.00844482 22.06349549 9.37473086 19.74451665 8 17 C7.34 16.67 6.68 16.34 6 16 C4.89070776 14.10040888 3.8597171 12.15455565 2.875 10.1875 C2.33617187 9.12917969 1.79734375 8.07085937 1.2421875 6.98046875 C0 4 0 4 0 0 Z " fill="#EDAA28" transform="translate(229,179)"/>
<path d="M0 0 C0 0.33 0 0.66 0 1 C-5.94 1.495 -5.94 1.495 -12 2 C-12 2.66 -12 3.32 -12 4 C-11.34 4 -10.68 4 -10 4 C-10 4.66 -10 5.32 -10 6 C-10.99 6 -11.98 6 -13 6 C-13 6.66 -13 7.32 -13 8 C-13.804375 8.639375 -14.60875 9.27875 -15.4375 9.9375 C-18.23720732 11.81035932 -18.23720732 11.81035932 -19 15 C-21.31 15.33 -23.62 15.66 -26 16 C-24.16279032 9.46769891 -19.37823171 4.43591349 -13.6875 1 C-9.03284259 -0.26227998 -4.78888273 -0.26016063 0 0 Z " fill="#302F2E" transform="translate(177,92)"/>
<path d="M0 0 C0.33 0 0.66 0 1 0 C1.44164734 7.47120084 1.71313568 12.94025413 -3 19 C-3.99 19.33 -4.98 19.66 -6 20 C-6.33 19.34 -6.66 18.68 -7 18 C-7.7425 18.515625 -8.485 19.03125 -9.25 19.5625 C-12 21 -12 21 -14.3125 20.6875 C-14.869375 20.460625 -15.42625 20.23375 -16 20 C-15.05125 19.2575 -14.1025 18.515 -13.125 17.75 C-8.00625908 13.42616944 -7.6479387 9.47938703 -7 3 C-6.67 3 -6.34 3 -6 3 C-5.97287934 4.43739513 -5.95354933 5.87493863 -5.9375 7.3125 C-5.92589844 8.11300781 -5.91429687 8.91351563 -5.90234375 9.73828125 C-6 12 -6 12 -7 15 C-6.34 15 -5.68 15 -5 15 C-4.87625 14.030625 -4.7525 13.06125 -4.625 12.0625 C-4.41875 11.051875 -4.2125 10.04125 -4 9 C-3.34 8.67 -2.68 8.34 -2 8 C-2 8.99 -2 9.98 -2 11 C-1.34 11 -0.68 11 0 11 C0 7.37 0 3.74 0 0 Z " fill="#3B2B0F" transform="translate(250,200)"/>
<path d="M0 0 C0 0.66 0 1.32 0 2 C0.99 2 1.98 2 3 2 C3 2.99 3 3.98 3 5 C3.66 5 4.32 5 5 5 C5.125 7.875 5.125 7.875 5 11 C4.34 11.66 3.68 12.32 3 13 C2.938125 11.9275 2.87625 10.855 2.8125 9.75 C2.30611356 5.95530535 2.30611356 5.95530535 -0.125 3.5625 C-3.75917665 1.58740399 -5.91874064 1.40636228 -10 2 C-12.58333333 3.41666667 -12.58333333 3.41666667 -14 6 C-14.57206406 9.43238437 -14.77845508 11.7690174 -12.87109375 14.78515625 C-11.65295598 16.25316844 -10.33211922 17.6345778 -9 19 C-10.32 19 -11.64 19 -13 19 C-13 18.34 -13 17.68 -13 17 C-13.99 16.67 -14.98 16.34 -16 16 C-17.88723993 12.22552015 -17.75654625 8.09047889 -17 4 C-12.84081631 -2.19852537 -6.54656398 -1.33038825 0 0 Z " fill="#EEA725" transform="translate(179,184)"/>
<path d="M0 0 C0.66 0 1.32 0 2 0 C2.32613281 0.63808594 2.65226563 1.27617188 2.98828125 1.93359375 C3.42527344 2.75988281 3.86226562 3.58617188 4.3125 4.4375 C4.74175781 5.26121094 5.17101562 6.08492188 5.61328125 6.93359375 C6.90020887 9.30647644 6.90020887 9.30647644 10 10 C10 11.65 10 13.3 10 15 C10.66 15 11.32 15 12 15 C12.30292969 15.64066406 12.60585937 16.28132813 12.91796875 16.94140625 C14.9567882 21.15078426 16.94210143 25.10558528 19.8125 28.8125 C22.00926787 32.01350461 22.57000672 33.23795566 22 37 C18.00500438 32.39038967 15.07075668 27.24075807 12 22 C10.5107285 19.51140011 9.01602648 17.02641635 7.51171875 14.546875 C5.88750953 11.81048117 4.34020783 9.04136739 2.8125 6.25 C2.28269531 5.28578125 1.75289062 4.3215625 1.20703125 3.328125 C0 1 0 1 0 0 Z " fill="#F0C47B" transform="translate(201,103)"/>
<path d="M0 0 C0.66 0.33 1.32 0.66 2 1 C1.54625 1.391875 1.0925 1.78375 0.625 2.1875 C-1.16065975 3.94575256 -1.16065975 3.94575256 -1.875 6.5 C-3.33411866 9.74248592 -4.84235501 10.45789431 -8 12 C-8.886875 12.309375 -9.77375 12.61875 -10.6875 12.9375 C-13.15537163 13.81292798 -13.15537163 13.81292798 -14.3125 16.125 C-14.539375 16.74375 -14.76625 17.3625 -15 18 C-15.66 18 -16.32 18 -17 18 C-17.2475 18.639375 -17.495 19.27875 -17.75 19.9375 C-19 22 -19 22 -21.125 22.75 C-22.053125 22.87375 -22.053125 22.87375 -23 23 C-21.46781315 19.36938333 -19.2816856 17.0136227 -16.5 14.25 C-15.7059375 13.45078125 -14.911875 12.6515625 -14.09375 11.828125 C-12 10 -12 10 -10 10 C-9.67 9.01 -9.34 8.02 -9 7 C-6.93359375 5.17578125 -6.93359375 5.17578125 -4.4375 3.3125 C-3.61121094 2.68988281 -2.78492187 2.06726562 -1.93359375 1.42578125 C-1.29550781 0.95527344 -0.65742187 0.48476563 0 0 Z " fill="#F3C471" transform="translate(79,47)"/>
<path d="M0 0 C2.4038996 2.76003287 4.35057564 5.53233196 6.0625 8.75 C9.13160298 14.48873542 12.7858657 19.85021282 16.42993164 25.23535156 C16.90422607 25.95045898 17.37852051 26.66556641 17.8671875 27.40234375 C18.51856689 28.36901978 18.51856689 28.36901978 19.18310547 29.35522461 C19.45268066 29.89800049 19.72225586 30.44077637 20 31 C19.67 31.66 19.34 32.32 19 33 C15.15521125 31.54163185 13.8177085 29.63541701 12 26 C11.66666667 24.66666667 11.33333333 23.33333333 11 22 C10.34 21.67 9.68 21.34 9 21 C8 19.22265625 8 19.22265625 7 17.0625 C5.81586997 14.51384512 5.01242841 13.01242841 3 11 C1.63236976 7.37980231 0.67204804 3.80827223 0 0 Z " fill="#E1A027" transform="translate(186,108)"/>
<path d="M0 0 C0.6875 1.75 0.6875 1.75 1 4 C0.525625 4.5465625 0.05125 5.093125 -0.4375 5.65625 C-2.5890988 8.8836482 -2.56309646 11.98945864 -2.6875 15.75 C-2.72166016 16.44738281 -2.75582031 17.14476562 -2.79101562 17.86328125 C-2.87308295 19.57497108 -2.93822919 21.2874576 -3 23 C-2.01 23.33 -1.02 23.66 0 24 C0 24.66 0 25.32 0 26 C4.05308333 27.10789535 8.07111374 27.33731267 12.25 27.5625 C12.99507812 27.60568359 13.74015625 27.64886719 14.5078125 27.69335938 C16.338349 27.79896725 18.16915176 27.89994201 20 28 C20 28.33 20 28.66 20 29 C16.9553906 29.18991128 13.92268634 29.32801567 10.875 29.4375 C10.0190625 29.49615234 9.163125 29.55480469 8.28125 29.61523438 C1.99210829 29.78455742 1.99210829 29.78455742 -0.92089844 27.48095703 C-5.17589796 22.57613541 -6.39133584 19.08063295 -6.36328125 12.609375 C-5.77592412 8.39050876 -3.70370851 6.23126139 -1 3 C-0.67 2.01 -0.34 1.02 0 0 Z " fill="#E3A42C" transform="translate(108,191)"/>
<path d="M0 0 C3.6695036 3.2893298 5.88370205 6.87442777 8.25 11.125 C8.61351562 11.75792969 8.97703125 12.39085937 9.3515625 13.04296875 C12 17.7324953 12 17.7324953 12 20 C9 19 9 19 7 16 C4.94996045 14.80767387 4.94996045 14.80767387 3 14 C3 13.34 3 12.68 3 12 C2.34 12 1.68 12 1 12 C0.87625 11.030625 0.7525 10.06125 0.625 9.0625 C0.41875 8.051875 0.2125 7.04125 0 6 C-0.66 5.67 -1.32 5.34 -2 5 C-1.01 4.67 -0.02 4.34 1 4 C0.67 2.68 0.34 1.36 0 0 Z " fill="#21201C" transform="translate(219,149)"/>
<path d="M0 0 C0.66 0.66 1.32 1.32 2 2 C1.25343232 3.37686662 0.50253972 4.75138835 -0.25 6.125 C-0.70246094 6.95386719 -1.15492187 7.78273437 -1.62109375 8.63671875 C-3 11 -3 11 -5.3125 13.9375 C-7.7205311 18.30763052 -7.80009655 22.11479509 -7 27 C-5.90893117 29.64772306 -4.64948321 31.62886788 -3 34 C-4.98 33.67 -6.96 33.34 -9 33 C-10.77920006 25.88319978 -10.2788609 19.83658271 -8 13 C-7.34 13 -6.68 13 -6 13 C-5.8453125 11.3603125 -5.8453125 11.3603125 -5.6875 9.6875 C-5 6 -5 6 -3.5625 4.0625 C-2 3 -2 3 0 3 C0 2.01 0 1.02 0 0 Z " fill="#3B2704" transform="translate(110,184)"/>
<path d="M0 0 C0.99 0 1.98 0 3 0 C1.95136063 2.97114488 0.81010166 5.27297886 -1 7.875 C-4.95808168 14.05950263 -5.34814222 20.27957286 -5.625 27.4375 C-5.66367188 28.26443359 -5.70234375 29.09136719 -5.7421875 29.94335938 C-5.83553092 31.96191073 -5.91880961 33.98092331 -6 36 C-5.34 36 -4.68 36 -4 36 C-3.67 37.32 -3.34 38.64 -3 40 C-3.66 40 -4.32 40 -5 40 C-8.14163783 35.28754325 -7.36868336 30.35534883 -7.375 24.8125 C-7.39949219 23.70068359 -7.42398438 22.58886719 -7.44921875 21.44335938 C-7.4789631 13.07032518 -6.01594923 6.27751224 0 0 Z " fill="#F4C984" transform="translate(94,181)"/>
<path d="M0 0 C1.32 0.33 2.64 0.66 4 1 C4 1.99 4 2.98 4 4 C3.01 4.495 3.01 4.495 2 5 C1.41342597 7.67477757 0.92231263 10.29905549 0.5 13 C0.07768737 15.70094451 -0.41342597 18.32522243 -1 21 C-1.66 21.33 -2.32 21.66 -3 22 C-4.1577506 18.52674819 -4.06866652 15.63932552 -4 12 C-3.01 12 -2.02 12 -1 12 C-1 11.34 -1 10.68 -1 10 C-1.99 10 -2.98 10 -4 10 C-2.99806563 6.20696275 -2.18975773 3.28463659 0 0 Z " fill="#1B1A11" transform="translate(100,193)"/>
<path d="M0 0 C-1.7342733 4.97357688 -4.43327957 9.31498953 -7.125 13.8125 C-7.59292969 14.60076172 -8.06085938 15.38902344 -8.54296875 16.20117188 C-9.69215397 18.13602454 -10.84457003 20.06887228 -12 22 C-12.66 21.01 -13.32 20.02 -14 19 C-13.25 16.375 -13.25 16.375 -12 14 C-11.34 13.67 -10.68 13.34 -10 13 C-10.103125 12.278125 -10.20625 11.55625 -10.3125 10.8125 C-9.87119097 6.84071874 -7.9325423 5.59154901 -5 3 C-4.443125 2.401875 -3.88625 1.80375 -3.3125 1.1875 C-2 0 -2 0 0 0 Z M-13 9 C-12.01 9.33 -11.02 9.66 -10 10 C-10.99 10.33 -11.98 10.66 -13 11 C-13 10.34 -13 9.68 -13 9 Z " fill="#322008" transform="translate(125,163)"/>
<path d="M0 0 C1.09441406 0.00773437 1.09441406 0.00773437 2.2109375 0.015625 C6.76428329 0.0806728 11.13206014 0.5150072 15.625 1.25 C15.955 2.24 16.285 3.23 16.625 4.25 C15.573125 4.085 14.52125 3.92 13.4375 3.75 C4.27924355 2.6438518 -3.88676949 2.40627298 -12.375 6.25 C-13.035 6.25 -13.695 6.25 -14.375 6.25 C-13.375 3.25 -13.375 3.25 -11.3359375 1.578125 C-7.5175056 -0.13462809 -4.09820076 -0.11463499 0 0 Z " fill="#F3C77E" transform="translate(170.375,82.75)"/>
<path d="M0 0 C0.33 0 0.66 0 1 0 C1.02887512 3.64581687 1.04675585 7.29160463 1.0625 10.9375 C1.07087891 11.97841797 1.07925781 13.01933594 1.08789062 14.09179688 C1.09111328 15.08115234 1.09433594 16.07050781 1.09765625 17.08984375 C1.10289307 18.00628662 1.10812988 18.92272949 1.11352539 19.86694336 C1 22 1 22 0 23 C-0.08783542 25.21855264 -0.10694609 27.43988496 -0.09765625 29.66015625 C-0.0962413 30.32462265 -0.09482635 30.98908905 -0.09336853 31.6736908 C-0.08775518 33.80333899 -0.07520054 35.93288339 -0.0625 38.0625 C-0.05748671 39.50325369 -0.05292351 40.94400903 -0.04882812 42.38476562 C-0.03778145 45.92321102 -0.02050792 49.46159539 0 53 C-0.33 53 -0.66 53 -1 53 C-2.28077156 46.22181195 -2.19087789 39.56573573 -2.1875 32.6875 C-2.1882251 32.01958435 -2.1889502 31.3516687 -2.18969727 30.66351318 C-2.18845415 20.32110972 -1.67681943 10.21063263 0 0 Z " fill="#F1D096" transform="translate(20,140)"/>
<path d="M0 0 C6.39950254 4.30264426 9.4911987 11.59315723 11 19 C11.19671808 22.86878887 11.18545363 26.29545742 10 30 C9.34 30 8.68 30 8 30 C8.15662109 28.9790625 8.15662109 28.9790625 8.31640625 27.9375 C9.10175151 18.56322006 5.66964695 12.93754447 0.87109375 5.2734375 C0.25363281 4.19320312 -0.36382812 3.11296875 -1 2 C-0.67 1.34 -0.34 0.68 0 0 Z " fill="#341F05" transform="translate(235,185)"/>
<path d="M0 0 C-1 2 -1 2 -3.109375 2.78125 C-3.98078125 3.0184375 -4.8521875 3.255625 -5.75 3.5 C-8.41179072 4.23318786 -10.92443228 4.96766516 -13.46484375 6.0546875 C-16.30844155 7.1150121 -18.79126355 7.40659737 -21.8125 7.625 C-22.78832031 7.69976562 -23.76414063 7.77453125 -24.76953125 7.8515625 C-25.87361328 7.92503906 -25.87361328 7.92503906 -27 8 C-27 8.66 -27 9.32 -27 10 C-28.98 10 -30.96 10 -33 10 C-33 9.34 -33 8.68 -33 8 C-21.55700366 5.09568621 -21.55700366 5.09568621 -16.125 4 C-13.28115912 3.39536356 -11.46996542 2.72978629 -8.8125 1.375 C-5.63242987 -0.17970095 -3.4939931 -0.24957094 0 0 Z " fill="#F0C478" transform="translate(230,313)"/>
<path d="M0 0 C1.32 0 2.64 0 4 0 C4 0.66 4 1.32 4 2 C4.598125 2.061875 5.19625 2.12375 5.8125 2.1875 C8.86915486 3.32282895 9.46634026 5.21152775 11 8 C11.66 8.33 12.32 8.66 13 9 C14.13350789 10.89683219 15.18502703 12.84327161 16.1875 14.8125 C17.01314453 16.39998047 17.01314453 16.39998047 17.85546875 18.01953125 C19.01199085 21.03122531 19.21992215 22.0877003 18 25 C17.64808594 24.40574219 17.29617187 23.81148437 16.93359375 23.19921875 C15.30120348 20.45867844 13.65235002 17.72855168 12 15 C11.4121875 14.01902344 10.824375 13.03804687 10.21875 12.02734375 C9.6309375 11.06957031 9.043125 10.11179687 8.4375 9.125 C7.89996094 8.24070312 7.36242187 7.35640625 6.80859375 6.4453125 C4.82570061 3.76433819 2.67741246 1.96801258 0 0 Z " fill="#3C2104" transform="translate(178,100)"/>
<path d="M0 0 C3.08539112 2.72412697 5.11188908 6.09188781 7.25 9.5625 C7.81460938 10.44711914 7.81460938 10.44711914 8.390625 11.34960938 C9.3260331 12.86105004 10.17093646 14.42771031 11 16 C10.67 16.66 10.34 17.32 10 18 C8.68381002 17.21448343 7.37214772 16.4213763 6.0625 15.625 C4.96615234 14.96371094 4.96615234 14.96371094 3.84765625 14.2890625 C2 13 2 13 1 11 C0.7724985 9.12943209 0.59037189 7.25314042 0.4375 5.375 C0.35371094 4.37210937 0.26992187 3.36921875 0.18359375 2.3359375 C0.12300781 1.56507812 0.06242188 0.79421875 0 0 Z " fill="#2C292B" transform="translate(202,121)"/>
<path d="M0 0 C0.99 0.33 1.98 0.66 3 1 C-4.55876473 6.73003133 -12.46993465 10.95620821 -21 15 C-21 12 -21 12 -18.3125 9.25 C-15.86026626 7.29869762 -15.38475847 6.97490706 -12.125 7.1875 C-11.42375 7.455625 -10.7225 7.72375 -10 8 C-9.67 7.34 -9.34 6.68 -9 6 C-7.58199897 4.88424222 -6.11620321 3.82835203 -4.625 2.8125 C-3.83351563 2.26207031 -3.04203125 1.71164062 -2.2265625 1.14453125 C-1.49179687 0.76683594 -0.75703125 0.38914062 0 0 Z " fill="#F4C176" transform="translate(260,295)"/>
<path d="M0 0 C2.14965431 3.22448147 2.22152284 3.79930965 1.9765625 7.44921875 C1.925 8.29677734 1.8734375 9.14433594 1.8203125 10.01757812 C1.75585938 10.89865234 1.69140625 11.77972656 1.625 12.6875 C1.56828125 13.58017578 1.5115625 14.47285156 1.453125 15.39257812 C1.31173702 17.59587413 1.16034022 19.79801539 1 22 C0.67 22 0.34 22 0 22 C-0.04898438 20.79601562 -0.09796875 19.59203125 -0.1484375 18.3515625 C-0.22346343 16.77601802 -0.29901133 15.20049834 -0.375 13.625 C-0.4059375 12.8309375 -0.436875 12.036875 -0.46875 11.21875 C-0.51816421 6.63332625 -0.51816421 6.63332625 -3 3 C-5.82957829 3.36276645 -8.29084291 4.09694764 -11 5 C-11 6.98 -11 8.96 -11 11 C-11.33 11 -11.66 11 -12 11 C-12.42780749 5.78074866 -12.42780749 5.78074866 -12 3 C-8.43969844 -0.45241363 -4.79536622 -0.54287165 0 0 Z " fill="#291B09" transform="translate(178,133)"/>
<path d="M0 0 C2.99381354 2.80466193 5.1993621 5.61184269 7.3125 9.125 C8.11107422 10.42824219 8.11107422 10.42824219 8.92578125 11.7578125 C9.28027344 12.49773437 9.63476562 13.23765625 10 14 C9.67 14.66 9.34 15.32 9 16 C7.824375 15.01 7.824375 15.01 6.625 14 C4.28487188 11.79798559 4.28487188 11.79798559 2 12 C2 11.01 2 10.02 2 9 C1.01 8.67 0.02 8.34 -1 8 C-1.6875 5.9375 -1.6875 5.9375 -2 4 C-1.34 4 -0.68 4 0 4 C0 2.68 0 1.36 0 0 Z " fill="#2A2522" transform="translate(189,100)"/>
<path d="M0 0 C3 1 3 1 4.1796875 2.671875 C5.22405287 5.63588339 5.19316459 8.11442868 5.125 11.25 C5.10695312 12.32765625 5.08890625 13.4053125 5.0703125 14.515625 C5.04710937 15.33546875 5.02390625 16.1553125 5 17 C4.34 17 3.68 17 3 17 C0.66725808 14.66725808 0.66725175 13.93229685 0.375 10.75 C0.30152344 9.95207031 0.22804687 9.15414062 0.15234375 8.33203125 C-0.02948075 5.5487177 -0.07149048 2.78812854 0 0 Z " fill="#1F1A1E" transform="translate(245,194)"/>
<path d="M0 0 C3.60748375 1.33610509 4.31694413 2.18162579 6.375 5.25 C5.52679688 5.0334375 4.67859375 4.816875 3.8046875 4.59375 C-4.95014333 2.51568026 -12.61702874 1.880372 -21.625 2.25 C-15.9967609 -2.92743354 -7.05859858 -1.45632796 0 0 Z " fill="#FCF4D5" transform="translate(183.625,85.75)"/>
<path d="M0 0 C1.65 0 3.3 0 5 0 C5.33 0.99 5.66 1.98 6 3 C9.00847418 4.22520264 9.00847418 4.22520264 12 5 C12 5.99 12 6.98 12 8 C12.62648438 8.20496094 13.25296875 8.40992188 13.8984375 8.62109375 C14.71570313 8.89050781 15.53296875 9.15992188 16.375 9.4375 C17.18710938 9.70433594 17.99921875 9.97117187 18.8359375 10.24609375 C21 11 21 11 23 12 C23 12.99 23 13.98 23 15 C24.32 15 25.64 15 27 15 C27 15.66 27 16.32 27 17 C21.43443475 15.49818081 17.13063431 12.76239763 12.375 9.625 C11.24964844 8.90183594 11.24964844 8.90183594 10.1015625 8.1640625 C6.35986071 5.72266842 3.00369883 3.35333573 0 0 Z " fill="#F0C780" transform="translate(76,291)"/>
<path d="M0 0 C3.10096781 0.34455198 4.79937138 0.84817294 7.3125 2.75 C9.30929204 5.41238939 9.36116409 6.74952319 9 10 C6.61435923 9.42415568 4.33317216 8.77772405 2 8 C2 7.34 2 6.68 2 6 C0.35 6 -1.3 6 -3 6 C-1.68 5.34 -0.36 4.68 1 4 C0.67 2.68 0.34 1.36 0 0 Z " fill="#1F1E1C" transform="translate(180,94)"/>
<path d="M0 0 C2.96926381 3.55391974 5.42318536 7.18517995 7.75 11.1875 C8.67039063 12.75564453 8.67039063 12.75564453 9.609375 14.35546875 C11 17 11 17 11 19 C10.34 19 9.68 19 9 19 C9 18.34 9 17.68 9 17 C8.360625 16.79375 7.72125 16.5875 7.0625 16.375 C5 15 5 15 4.25 11.875 C4.1675 10.92625 4.085 9.9775 4 9 C3.01 8.67 2.02 8.34 1 8 C0.67 5.36 0.34 2.72 0 0 Z " fill="#E09D28" transform="translate(206,141)"/>
<path d="M0 0 C0.33 0.66 0.66 1.32 1 2 C2.32 1.34 3.64 0.68 5 0 C4.67 1.65 4.34 3.3 4 5 C3.34 5 2.68 5 2 5 C1.67 5.99 1.34 6.98 1 8 C0.01 8.66 -0.98 9.32 -2 10 C-2.66 9.67 -3.32 9.34 -4 9 C-3.67 9.99 -3.34 10.98 -3 12 C-3.99 12 -4.98 12 -6 12 C-4.43358249 7.69235185 -2.31663844 3.93828536 0 0 Z " fill="#2F302A" transform="translate(111,172)"/>
<path d="M0 0 C3 0 3 0 4.625 1.125 C6.47382935 3.64613093 6.65927797 5.93350175 7 9 C7.66 9 8.32 9 9 9 C11.5393228 12.41831915 12.3636198 14.75776898 12 19 C8.89583535 15.28059551 6.2586358 11.38460345 3.75 7.25 C3.38648438 6.66089844 3.02296875 6.07179687 2.6484375 5.46484375 C0 1.13375235 0 1.13375235 0 0 Z " fill="#3B2506" transform="translate(213,152)"/>
<path d="M0 0 C0.45375 0.61875 0.9075 1.2375 1.375 1.875 C2.97108919 4.05919833 2.97108919 4.05919833 5 6 C5 6.99 5 7.98 5 9 C5.66 9 6.32 9 7 9 C7.73564733 10.70536426 8.46995679 12.41132671 9.1953125 14.12109375 C9.85991616 15.67291102 10.55144047 17.21316903 11.25 18.75 C12 21 12 21 11 24 C2.55353075 8.25512528 2.55353075 8.25512528 -1 1 C-0.67 0.67 -0.34 0.34 0 0 Z " fill="#F1C475" transform="translate(248,178)"/>
<path d="M0 0 C0.66 0.66 1.32 1.32 2 2 C-1.65720457 3.05496286 -5.30685628 4.07671407 -9 5 C-9 11.6 -9 18.2 -9 25 C-9.33 25 -9.66 25 -10 25 C-10.11632513 21.58362047 -10.18728897 18.16775103 -10.25 14.75 C-10.28351563 13.78191406 -10.31703125 12.81382812 -10.3515625 11.81640625 C-10.45033759 4.6552122 -10.45033759 4.6552122 -8.1796875 1.3515625 C-5.27170123 -0.45159744 -3.35869646 -0.43809084 0 0 Z " fill="#593503" transform="translate(175,131)"/>
<path d="M0 0 C3.21203935 2.49825283 6.17493137 5.0702992 9 8 C8.34 9.65 7.68 11.3 7 13 C2.80186938 9.25572134 0.92223883 6.1596937 -1 1 C-0.67 0.67 -0.34 0.34 0 0 Z " fill="#211D1D" transform="translate(193,111)"/>
<path d="M0 0 C0.66 0.33 1.32 0.66 2 1 C-0.67429085 5.89892218 -3.41166185 10.75652164 -6.25 15.5625 C-6.75015625 16.40941406 -7.2503125 17.25632813 -7.765625 18.12890625 C-8.17296875 18.74636719 -8.5803125 19.36382812 -9 20 C-9.33 20 -9.66 20 -10 20 C-10 18.35 -10 16.7 -10 15 C-9.34 15 -8.68 15 -8 15 C-7.67 13.02 -7.34 11.04 -7 9 C-6.34 9 -5.68 9 -5 9 C-4.814375 8.1028125 -4.814375 8.1028125 -4.625 7.1875 C-4 5 -4 5 -2 2 C-1.34 2 -0.68 2 0 2 C0 1.34 0 0.68 0 0 Z " fill="#3E2903" transform="translate(139,137)"/>
<path d="M0 0 C1.485 0.99 1.485 0.99 3 2 C3.66 1.34 4.32 0.68 5 0 C6.26237731 2.52475462 6.09856404 4.31200466 6.0625 7.125 C6.05347656 8.03507813 6.04445312 8.94515625 6.03515625 9.8828125 C6.02355469 10.58148438 6.01195312 11.28015625 6 12 C5.34 12 4.68 12 4 12 C-0.57142857 4.71428571 -0.57142857 4.71428571 0 0 Z " fill="#221612" transform="translate(197,121)"/>
<path d="M0 0 C0.99 0.33 1.98 0.66 3 1 C2.5155542 1.39872314 2.0311084 1.79744629 1.53198242 2.20825195 C-0.40604645 4.4748964 -0.4177165 5.71629823 -0.51171875 8.66796875 C-0.54716797 9.56064453 -0.58261719 10.45332031 -0.61914062 11.37304688 C-0.64169922 12.30181641 -0.66425781 13.23058594 -0.6875 14.1875 C-0.72166016 15.12787109 -0.75582031 16.06824219 -0.79101562 17.03710938 C-0.87348218 19.35795393 -0.94263403 21.67842148 -1 24 C-1.33 24 -1.66 24 -2 24 C-2.88326255 19.40561013 -3.19415755 14.98930544 -3.25 10.3125 C-3.27578125 9.00925781 -3.3015625 7.70601562 -3.328125 6.36328125 C-3 3 -3 3 -1.484375 1.04296875 C-0.99453125 0.69878906 -0.5046875 0.35460937 0 0 Z " fill="#E8A62A" transform="translate(166,131)"/>
<path d="M0 0 C3.08654738 3.71361118 5.77284307 7.58783443 8.3125 11.6875 C8.68439453 12.26822266 9.05628906 12.84894531 9.43945312 13.44726562 C10.35778792 14.92652 11.18708458 16.46029198 12 18 C11.67 18.66 11.34 19.32 11 20 C6.9247697 17.11193219 4.85670172 14.48413792 2.6875 10 C1.91986328 8.453125 1.91986328 8.453125 1.13671875 6.875 C0 4 0 4 0 0 Z " fill="#E5A12E" transform="translate(229,179)"/>
<path d="M0 0 C2.80942145 3.42612372 5.38659494 6.91719564 7.8125 10.625 C8.43769531 11.56601563 9.06289062 12.50703125 9.70703125 13.4765625 C10.13371094 14.30929688 10.56039062 15.14203125 11 16 C10.67 16.99 10.34 17.98 10 19 C9.67 18.34 9.34 17.68 9 17 C8.34 17 7.68 17 7 17 C6.74605469 16.48050781 6.49210938 15.96101562 6.23046875 15.42578125 C4.67426589 12.2725762 3.14010585 9.22016634 1.25 6.25 C0 4 0 4 0 0 Z " fill="#DC9D25" transform="translate(218,161)"/>
<path d="M0 0 C0.33 0.66 0.66 1.32 1 2 C0.08367618 4.41137848 -0.89649829 6.67589027 -2 9 C-2.48919922 10.09054688 -2.48919922 10.09054688 -2.98828125 11.203125 C-3.32214844 11.91984375 -3.65601562 12.6365625 -4 13.375 C-4.4640625 14.37660156 -4.4640625 14.37660156 -4.9375 15.3984375 C-6 17 -6 17 -9 18 C-7.60904805 11.04524026 -3.93477604 5.81799773 0 0 Z " fill="#FCF3D4" transform="translate(98,180)"/>
<path d="M0 0 C0.33 0.99 0.66 1.98 1 3 C0.01 3.33 -0.98 3.66 -2 4 C-2.95001288 6.06758629 -2.95001288 6.06758629 -3.5625 8.5 C-4.25390625 10.96875 -4.25390625 10.96875 -5 13 C-5.99 13.495 -5.99 13.495 -7 14 C-7.28875 14.969375 -7.5775 15.93875 -7.875 16.9375 C-9 20 -9 20 -11.125 21.375 C-11.74375 21.58125 -12.3625 21.7875 -13 22 C-11.01224205 17.09603289 -8.74490022 12.69508279 -5.9375 8.1875 C-4.89916016 6.50720703 -4.89916016 6.50720703 -3.83984375 4.79296875 C-2 2 -2 2 0 0 Z " fill="#EEC884" transform="translate(48,79)"/>
<path d="M0 0 C0.5 2 0.5 2 1 4 C1.2475 4.680625 1.495 5.36125 1.75 6.0625 C2 8 2 8 0.875 9.6875 C-1.38936287 11.27255401 -3.28324005 11.63287028 -6 12 C-4.68139111 7.38486888 -2.78644563 3.90102388 0 0 Z " fill="#252422" transform="translate(124,151)"/>
<path d="M0 0 C0.33 0 0.66 0 1 0 C1.05428973 2.22889496 1.09292338 4.45817471 1.125 6.6875 C1.14820313 7.92886719 1.17140625 9.17023438 1.1953125 10.44921875 C1.00896059 13.83709655 0.58000739 16.02229376 -1 19 C-1.66 19.33 -2.32 19.66 -3 20 C-3.7425 21.2375 -3.7425 21.2375 -4.5 22.5 C-6 25 -6 25 -8 26 C-6.97595782 23.90428577 -5.91906534 21.86082265 -4.74609375 19.84375 C-1.0684856 13.25698913 -0.14173993 7.49933091 0 0 Z " fill="#F5D090" transform="translate(258,201)"/>
<path d="M0 0 C4.65675984 1.57298949 8.29897649 4.09718953 12.25 6.9375 C12.88679688 7.38029297 13.52359375 7.82308594 14.1796875 8.27929688 C18.87760295 11.63280886 18.87760295 11.63280886 20 15 C16.88711043 13.50120132 13.95462591 11.78832621 11 10 C10.34 9.67 9.68 9.34 9 9 C9 8.01 9 7.02 9 6 C8.2575 5.7525 7.515 5.505 6.75 5.25 C3.79875938 3.90852699 2.15185026 2.39094474 0 0 Z " fill="#EFC37B" transform="translate(255,41)"/>
<path d="M0 0 C1.5625 1.6875 1.5625 1.6875 3 4 C2.6875 6.75 2.6875 6.75 2 9 C1.34 9 0.68 9 0 9 C0 9.66 0 10.32 0 11 C-0.66 11 -1.32 11 -2 11 C-3.25 8.875 -3.25 8.875 -4 6 C-2.125 2.6875 -2.125 2.6875 0 0 Z " fill="#292623" transform="translate(129,143)"/>
<path d="M0 0 C1.43088528 2.86177057 0.59991697 4.93375773 0 8 C-0.66 8 -1.32 8 -2 8 C-2 8.99 -2 9.98 -2 11 C-3.32 11 -4.64 11 -6 11 C-6 11.99 -6 12.98 -6 14 C-6.99 14.33 -7.98 14.66 -9 15 C-7.61219205 11.10993227 -5.7847773 8.03441292 -3.375 4.6875 C-2.74335938 3.80449219 -2.11171875 2.92148438 -1.4609375 2.01171875 C-0.97882813 1.34785156 -0.49671875 0.68398437 0 0 Z " fill="#FEF6DE" transform="translate(145,103)"/>
<path d="M0 0 C0.33 0.66 0.66 1.32 1 2 C-2.63 2 -6.26 2 -10 2 C-10.33 2.99 -10.66 3.98 -11 5 C-12.375 6.6875 -12.375 6.6875 -14 8 C-14.99 8 -15.98 8 -17 8 C-14.16620553 0.06537548 -7.32659771 -0.58612782 0 0 Z " fill="#CA932F" transform="translate(177,99)"/>
<path d="M0 0 C0.66 0.99 1.32 1.98 2 3 C0.69172988 7.30959569 -0.01644881 9.29092821 -3.6875 11.9375 C-4.450625 12.288125 -5.21375 12.63875 -6 13 C-5.51675181 7.84535266 -2.81389239 4.18449681 0 0 Z " fill="#FDF7DA" transform="translate(129,129)"/>
<path d="M0 0 C6.625 -0.25 6.625 -0.25 10 2 C10.6875 4.625 10.6875 4.625 11 7 C10.60167969 6.50886719 10.20335937 6.01773438 9.79296875 5.51171875 C7.4878245 3.56816575 6.2803281 3.683464 3.3125 3.8125 C2.10013672 3.85310547 2.10013672 3.85310547 0.86328125 3.89453125 C0.24839844 3.92933594 -0.36648437 3.96414062 -1 4 C-0.67 2.68 -0.34 1.36 0 0 Z " fill="#422909" transform="translate(169,185)"/>
<path d="M0 0 C1.890625 0.21484375 1.890625 0.21484375 4 1 C5.046875 3.06640625 5.046875 3.06640625 5.75 5.5625 C5.99234375 6.38878906 6.2346875 7.21507812 6.484375 8.06640625 C6.65453125 8.70449219 6.8246875 9.34257812 7 10 C7.66 10 8.32 10 9 10 C9.33 10.99 9.66 11.98 10 13 C9.34 13.66 8.68 14.32 8 15 C6.66407203 12.6889639 5.33115569 10.37628245 4 8.0625 C3.6184375 7.40314453 3.236875 6.74378906 2.84375 6.06445312 C0 1.11328125 0 1.11328125 0 0 Z " fill="#371B05" transform="translate(225,171)"/>
<path d="M0 0 C0.33 1.32 0.66 2.64 1 4 C0.34 4 -0.32 4 -1 4 C-0.938125 5.423125 -0.938125 5.423125 -0.875 6.875 C-1 10 -1 10 -3 12 C-3.99 12 -4.98 12 -6 12 C-6 12.99 -6 13.98 -6 15 C-6.66 15 -7.32 15 -8 15 C-6.62712658 11.30123909 -4.93644547 8.0485524 -2.875 4.6875 C-2.33617188 3.80449219 -1.79734375 2.92148438 -1.2421875 2.01171875 C-0.83226563 1.34785156 -0.42234375 0.68398437 0 0 Z " fill="#FDF2D4" transform="translate(116,150)"/>
<path d="M0 0 C4.6889493 0.55619669 8.19924267 1.88182673 12.375 4.0625 C13.43460938 4.61035156 14.49421875 5.15820312 15.5859375 5.72265625 C16.38257813 6.14417969 17.17921875 6.56570312 18 7 C18 7.33 18 7.66 18 8 C11.25 7.25 11.25 7.25 9 5 C7.845 4.505 6.69 4.01 5.5 3.5 C2 2 2 2 0 0 Z " fill="#EFC477" transform="translate(229,28)"/>
<path d="M0 0 C2.02558881 3.34939881 2.21738987 5.86962551 2.125 9.75 C2.10695312 10.73484375 2.08890625 11.7196875 2.0703125 12.734375 C2.04710937 13.48203125 2.02390625 14.2296875 2 15 C1.01 14.67 0.02 14.34 -1 14 C-1.027193 12.41676312 -1.04648306 10.83338938 -1.0625 9.25 C-1.07410156 8.36828125 -1.08570313 7.4865625 -1.09765625 6.578125 C-1.00826198 4.2181162 -0.66912821 2.25501476 0 0 Z " fill="#CD901E" transform="translate(165,156)"/>
<path d="M0 0 C2.94721162 2.74395564 5.19168608 5.38337216 7 9 C6.67 9.66 6.34 10.32 6 11 C4.02 10.01 2.04 9.02 0 8 C0 7.34 0 6.68 0 6 C-0.66 5.67 -1.32 5.34 -2 5 C-1.01 4.67 -0.02 4.34 1 4 C0.67 2.68 0.34 1.36 0 0 Z " fill="#34342E" transform="translate(219,149)"/>
<path d="M0 0 C2.06132142 -0.10864945 4.12431321 -0.18588321 6.1875 -0.25 C7.33605469 -0.29640625 8.48460937 -0.3428125 9.66796875 -0.390625 C13.65710294 0.07703434 15.21091307 1.16502316 18 4 C18.33 4.99 18.66 5.98 19 7 C18.01 7.33 17.02 7.66 16 8 C16 6.68 16 5.36 16 4 C15.21625 3.855625 14.4325 3.71125 13.625 3.5625 C11 3 11 3 9 2 C7.46331135 1.77532169 5.92031946 1.59203195 4.375 1.4375 C3.55773437 1.35371094 2.74046875 1.26992187 1.8984375 1.18359375 C1.27195313 1.12300781 0.64546875 1.06242187 0 1 C0 0.67 0 0.34 0 0 Z " fill="#ECA927" transform="translate(167,101)"/>
<path d="M0 0 C0 3.10551666 -0.5393715 4.35261084 -2 7 C-2.66 7 -3.32 7 -4 7 C-4.2475 7.639375 -4.495 8.27875 -4.75 8.9375 C-6 11 -6 11 -8.125 11.75 C-9.053125 11.87375 -9.053125 11.87375 -10 12 C-8.52278578 8.54798361 -6.56205999 6.35038064 -3.875 3.75 C-3.15054688 3.04359375 -2.42609375 2.3371875 -1.6796875 1.609375 C-1.12539062 1.07828125 -0.57109375 0.5471875 0 0 Z " fill="#F8C783" transform="translate(66,58)"/>
<path d="M0 0 C2.79872437 2.52788007 4.45773019 4.20411134 5 8 C4.34 8 3.68 8 3 8 C2.67 8.66 2.34 9.32 2 10 C1.01 9.67 0.02 9.34 -1 9 C-1.6875 6.9375 -1.6875 6.9375 -2 5 C-1.01 4.67 -0.02 4.34 1 4 C0.67 2.68 0.34 1.36 0 0 Z " fill="#2F2F29" transform="translate(233,172)"/>
<path d="M0 0 C1.67542976 0.28604898 3.34385343 0.61781233 5 1 C4.01 2.485 4.01 2.485 3 4 C2.34 4 1.68 4 1 4 C0.7525 4.639375 0.505 5.27875 0.25 5.9375 C-1 8 -1 8 -3.078125 8.62890625 C-4.02945313 8.81259766 -4.02945313 8.81259766 -5 9 C-4.3566152 7.686298 -3.71021785 6.37407102 -3.0625 5.0625 C-2.70285156 4.33160156 -2.34320313 3.60070312 -1.97265625 2.84765625 C-1 1 -1 1 0 0 Z " fill="#292522" transform="translate(117,163)"/>
<path d="M0 0 C0.33 0 0.66 0 1 0 C1.875 2.5 1.875 2.5 2 6 C0.29572101 8.92611592 -1.77274038 11.45640495 -4 14 C-4.33 13.34 -4.66 12.68 -5 12 C-4.26821134 9.92803369 -3.44100997 7.8891448 -2.5625 5.875 C-2.08941406 4.77929688 -1.61632813 3.68359375 -1.12890625 2.5546875 C-0.75636719 1.71164063 -0.38382813 0.86859375 0 0 Z " fill="#F4C67C" transform="translate(34,101)"/>
<path d="M0 0 C1.98 0.66 3.96 1.32 6 2 C6 2.66 6 3.32 6 4 C11.28 4 16.56 4 22 4 C22 4.33 22 4.66 22 5 C18.91684615 5.08733513 15.83401173 5.14050127 12.75 5.1875 C11.44095703 5.22520508 11.44095703 5.22520508 10.10546875 5.26367188 C3.58401668 5.33834499 3.58401668 5.33834499 0.390625 3.48828125 C-0.06828125 2.99714844 -0.5271875 2.50601563 -1 2 C-0.67 1.34 -0.34 0.68 0 0 Z " fill="#2B1B03" transform="translate(107,218)"/>
<path d="M0 0 C1.07174763 3.65188082 0.76411467 6.26432828 0 10 C-1.32 9.67 -2.64 9.34 -4 9 C-4.66 10.32 -5.32 11.64 -6 13 C-6 9.32965255 -4.9247108 7.9000569 -3 4.8125 C-2.443125 3.91144531 -1.88625 3.01039063 -1.3125 2.08203125 C-0.6628125 1.05142578 -0.6628125 1.05142578 0 0 Z " fill="#2E2D2A" transform="translate(104,184)"/>
<path d="M0 0 C0.33 0 0.66 0 1 0 C1 1.65 1 3.3 1 5 C0.195625 5.28875 -0.60875 5.5775 -1.4375 5.875 C-4.1326468 6.73262568 -4.1326468 6.73262568 -5 9 C-7.31 9 -9.62 9 -12 9 C-11.67 8.01 -11.34 7.02 -11 6 C-9.00390625 5.15625 -9.00390625 5.15625 -6.5625 4.5 C-2.54555147 3.43992311 -2.54555147 3.43992311 0 0 Z " fill="#E6A11D" transform="translate(181,197)"/>
<path d="M0 0 C2 2 2 2 2.125 5.125 C2.08375 6.07375 2.0425 7.0225 2 8 C1.34 8 0.68 8 0 8 C0 8.66 0 9.32 0 10 C-0.66 10 -1.32 10 -2 10 C-2.33 8.02 -2.66 6.04 -3 4 C-2.34 4 -1.68 4 -1 4 C-0.67 2.68 -0.34 1.36 0 0 Z " fill="#1E1A16" transform="translate(139,129)"/>
<path d="M0 0 C2 3 2 3 3 6 C2.34 6 1.68 6 1 6 C0.67 7.32 0.34 8.64 0 10 C-0.66 9.01 -1.32 8.02 -2 7 C-2.33 7.99 -2.66 8.98 -3 10 C-3.66 10 -4.32 10 -5 10 C-3.66511872 6.40608886 -2.03977277 3.24509304 0 0 Z " fill="#37322F" transform="translate(141,123)"/>
<path d="M0 0 C0.99 0.33 1.98 0.66 3 1 C3 1.66 3 2.32 3 3 C2.34 3 1.68 3 1 3 C0.34 4.65 -0.32 6.3 -1 8 C-1.66 8 -2.32 8 -3 8 C-3 8.66 -3 9.32 -3 10 C-3.99 10.33 -4.98 10.66 -6 11 C-4.54955729 6.89041233 -2.48889248 3.56741255 0 0 Z " fill="#2D2C27" transform="translate(148,112)"/>
<path d="M0 0 C3.68069887 1.53643852 5.98775204 3.78150945 8.75 6.625 C9.54921875 7.44226562 10.3484375 8.25953125 11.171875 9.1015625 C12.07679688 10.04128906 12.07679688 10.04128906 13 11 C12.01 11.495 12.01 11.495 11 12 C10.34 11.67 9.68 11.34 9 11 C9 10.34 9 9.68 9 9 C8.34 9 7.68 9 7 9 C7 8.34 7 7.68 7 7 C6.01 6.67 5.02 6.34 4 6 C3.67 5.34 3.34 4.68 3 4 C2.01 3.67 1.02 3.34 0 3 C0 2.01 0 1.02 0 0 Z " fill="#EFC480" transform="translate(275,56)"/>
<path d="M0 0 C0.66 0.99 1.32 1.98 2 3 C1.34 3.99 0.68 4.98 0 6 C0.99 6 1.98 6 3 6 C3 6.66 3 7.32 3 8 C2.01 8 1.02 8 0 8 C0.33 11.63 0.66 15.26 1 19 C-1 17 -1 17 -1.23046875 13.59375 C-1.22647854 12.22909733 -1.21172843 10.8644434 -1.1875 9.5 C-1.18685547 8.81035156 -1.18621094 8.12070313 -1.18554688 7.41015625 C-1.14055525 2.28111049 -1.14055525 2.28111049 0 0 Z " fill="#363638" transform="translate(96,197)"/>
<path d="M0 0 C0.66 0.33 1.32 0.66 2 1 C1.04855402 2.81612488 0.08863067 4.62781081 -0.875 6.4375 C-1.40867187 7.44683594 -1.94234375 8.45617187 -2.4921875 9.49609375 C-4 12 -4 12 -6 13 C-6 11.02 -6 9.04 -6 7 C-5.01 7 -4.02 7 -3 7 C-2.67 5.68 -2.34 4.36 -2 3 C-1.34 3 -0.68 3 0 3 C0 2.01 0 1.02 0 0 Z " fill="#EDC477" transform="translate(308,241)"/>
<path d="M0 0 C3.91703377 1.30567792 4.31757187 2.80094602 6.25 6.375 C7.06210938 7.84066406 7.06210938 7.84066406 7.890625 9.3359375 C9 12 9 12 8 15 C6.66121428 12.8782637 5.32884524 10.75294812 4 8.625 C3.6184375 8.02171875 3.236875 7.4184375 2.84375 6.796875 C0 2.2265625 0 2.2265625 0 0 Z " fill="#F0CA88" transform="translate(229,150)"/>
<path d="M0 0 C1 3 1 3 0 6 C-2.31 6.33 -4.62 6.66 -7 7 C-6.3125 4.625 -6.3125 4.625 -5 2 C-2.375 0.6875 -2.375 0.6875 0 0 Z " fill="#2A2929" transform="translate(158,101)"/>
<path d="M0 0 C2.61500768 2.36595933 4.38999603 4.86049226 6 8 C5.67 8.66 5.34 9.32 5 10 C3.02 8.68 1.04 7.36 -1 6 C-0.67 4.02 -0.34 2.04 0 0 Z " fill="#3A3B36" transform="translate(207,129)"/>
<path d="M0 0 C0.33 0 0.66 0 1 0 C1.33 2.31 1.66 4.62 2 7 C-1.465 8.485 -1.465 8.485 -5 10 C-3.66654496 6.40992874 -2.1056769 3.20429093 0 0 Z " fill="#DFA125" transform="translate(159,107)"/>
<path d="M0 0 C7 8.44827586 7 8.44827586 7 12 C6.34 12 5.68 12 5 12 C4.67 11.01 4.34 10.02 4 9 C3.01 8.67 2.02 8.34 1 8 C0.67 5.36 0.34 2.72 0 0 Z " fill="#FCEFC9" transform="translate(249,184)"/>
<path d="M0 0 C0.33 0 0.66 0 1 0 C1.05406122 1.93719378 1.09282025 3.87481921 1.125 5.8125 C1.14820313 6.89144531 1.17140625 7.97039062 1.1953125 9.08203125 C1 12 1 12 -1 15 C-1.33 14.34 -1.66 13.68 -2 13 C-2.66 13 -3.32 13 -4 13 C-3.67 11.35 -3.34 9.7 -3 8 C-2.67 8.99 -2.34 9.98 -2 11 C-1.34 11 -0.68 11 0 11 C0 7.37 0 3.74 0 0 Z " fill="#544F50" transform="translate(250,200)"/>
<path d="M0 0 C0.93423645 3.01031744 1.04449911 3.86650268 0 7 C-0.99 7.33 -1.98 7.66 -3 8 C-4.21869929 10.50447516 -4.21869929 10.50447516 -5 13 C-5.66 12.67 -6.32 12.34 -7 12 C-4.96248559 7.72121973 -2.68399924 3.88717131 0 0 Z " fill="#CE9525" transform="translate(141,137)"/>
<path d="M0 0 C2.61500768 2.36595933 4.38999603 4.86049226 6 8 C5.67 8.66 5.34 9.32 5 10 C0.125 6.375 0.125 6.375 -1 3 C-0.67 2.01 -0.34 1.02 0 0 Z " fill="#393434" transform="translate(193,106)"/>
<path d="M0 0 C0.97918775 3.07556958 1.1498998 3.68592423 -0.3125 6.75 C-0.869375 7.4925 -1.42625 8.235 -2 9 C-2.66 9 -3.32 9 -4 9 C-4 9.99 -4 10.98 -4 12 C-4.99 12.33 -5.98 12.66 -7 13 C-5.35821735 8.22390502 -2.73453298 4.20617096 0 0 Z " fill="#DA992C" transform="translate(116,178)"/>
<path d="M0 0 C0.8125 1.6875 0.8125 1.6875 1 4 C-1.3125 6.75 -1.3125 6.75 -4 9 C-4.66 9 -5.32 9 -6 9 C-4.68775452 5.06326356 -3.08089673 2.77280706 0 0 Z " fill="#F0C87A" transform="translate(55,70)"/>
<path d="M0 0 C0.99 0.33 1.98 0.66 3 1 C3 3.64 3 6.28 3 9 C2.01 9.495 2.01 9.495 1 10 C-0.1577506 6.52674819 -0.06866652 3.63932552 0 0 Z " fill="#18171C" transform="translate(96,205)"/>
<path d="M0 0 C2.4375 0.375 2.4375 0.375 5 1 C5.33 1.66 5.66 2.32 6 3 C4.68 3.33 3.36 3.66 2 4 C1.34 2.68 0.68 1.36 0 0 Z M1 4 C1.99 4.66 2.98 5.32 4 6 C4 6.66 4 7.32 4 8 C3.34 8 2.68 8 2 8 C2 7.34 2 6.68 2 6 C0.35 6 -1.3 6 -3 6 C-1.68 5.34 -0.36 4.68 1 4 Z " fill="#2E261B" transform="translate(180,94)"/>
<path d="M0 0 C0.99 0.33 1.98 0.66 3 1 C2.51917969 1.36738281 2.03835937 1.73476562 1.54296875 2.11328125 C-0.61204917 4.74840443 -0.50672346 6.82505636 -0.6875 10.1875 C-0.75324219 11.27417969 -0.81898438 12.36085937 -0.88671875 13.48046875 C-0.92410156 14.31191406 -0.96148437 15.14335937 -1 16 C-1.33 16 -1.66 16 -2 16 C-2.05384521 13.70858714 -2.09272087 11.41681812 -2.125 9.125 C-2.14820313 7.84882813 -2.17140625 6.57265625 -2.1953125 5.2578125 C-2 2 -2 2 0 0 Z " fill="#C18B22" transform="translate(166,131)"/>
<path d="M0 0 C0.66 0.33 1.32 0.66 2 1 C-1.44615385 6.78461538 -1.44615385 6.78461538 -4.25 7.875 C-4.8275 7.91625 -5.405 7.9575 -6 8 C-4.55746343 4.63408134 -2.66735273 2.48952921 0 0 Z " fill="#3B3533" transform="translate(160,95)"/>
<path d="M0 0 C0 0.66 0 1.32 0 2 C-1.65848177 3.01351664 -3.32665961 4.01120795 -5 5 C-6.36984198 6.29579647 -7.7151049 7.61992749 -9 9 C-9.66 8.67 -10.32 8.34 -11 8 C-3.21621622 0 -3.21621622 0 0 0 Z " fill="#FDEFCC" transform="translate(160,88)"/>
<path d="M0 0 C3.25524265 3.02272532 5.61820737 6.25718301 8 10 C6.35 9.67 4.7 9.34 3 9 C2.67 7.35 2.34 5.7 2 4 C1.34 4 0.68 4 0 4 C0 2.68 0 1.36 0 0 Z " fill="#EEC680" transform="translate(293,74)"/>
<path d="M0 0 C2 1.375 2 1.375 4 3 C4 3.66 4 4.32 4 5 C4.804375 5.28875 5.60875 5.5775 6.4375 5.875 C9 7 9 7 10 9 C7.03824877 8.38722388 5.61941217 7.74627478 3 6 C3 5.34 3 4.68 3 4 C2.01 3.67 1.02 3.34 0 3 C0 2.01 0 1.02 0 0 Z " fill="#F1CC88" transform="translate(93,224)"/>
<path d="M0 0 C2.74277578 3.19990508 4.6302836 6.00499382 6 10 C2.93756393 8.97918798 1.85342775 8.55949546 0 6 C-0.1875 2.8125 -0.1875 2.8125 0 0 Z " fill="#DB9923" transform="translate(235,189)"/>
<path d="M0 0 C1.32 0 2.64 0 4 0 C4.33 1.98 4.66 3.96 5 6 C3.33333333 6 1.66666667 6 0 6 C0 4.02 0 2.04 0 0 Z " fill="#1E1918" transform="translate(234,180)"/>
<path d="M0 0 C0.66 0.33 1.32 0.66 2 1 C-0.31 3.31 -2.62 5.62 -5 8 C-5.33 6.68 -5.66 5.36 -6 4 C-4.68 3.67 -3.36 3.34 -2 3 C-2 2.34 -2 1.68 -2 1 C-1.34 0.67 -0.68 0.34 0 0 Z " fill="#F2C37B" transform="translate(282,277)"/>
<path d="M0 0 C1.875 0.125 1.875 0.125 4 1 C5.76708665 4.78661425 6.1914033 7.04865524 5 11 C4.35165346 9.730447 3.70642185 8.45930294 3.0625 7.1875 C2.70285156 6.47980469 2.34320313 5.77210938 1.97265625 5.04296875 C1 3 1 3 0 0 Z " fill="#F3CA84" transform="translate(31,233)"/>
<path d="M0 0 C0.66 0.33 1.32 0.66 2 1 C1.04882866 2.1725131 0.08882991 3.33787015 -0.875 4.5 C-1.40867188 5.1496875 -1.94234375 5.799375 -2.4921875 6.46875 C-2.98976562 6.9740625 -3.48734375 7.479375 -4 8 C-4.66 8 -5.32 8 -6 8 C-6 7.01 -6 6.02 -6 5 C-5.01 4.67 -4.02 4.34 -3 4 C-2.67 3.01 -2.34 2.02 -2 1 C-1.34 0.67 -0.68 0.34 0 0 Z " fill="#E2A82C" transform="translate(240,212)"/>
<path d="M0 0 C0.33 0 0.66 0 1 0 C1.2475 1.0725 1.495 2.145 1.75 3.25 C2.99883146 6.99649437 4.02488658 8.52073882 7 11 C5.68 11 4.36 11 3 11 C3 10.34 3 9.68 3 9 C2.01 8.67 1.02 8.34 0 8 C0 5.36 0 2.72 0 0 Z " fill="#D99D22" transform="translate(163,192)"/>
<path d="M0 0 C0.33 1.32 0.66 2.64 1 4 C1.66 4 2.32 4 3 4 C3 4.99 3 5.98 3 7 C2.01 7.33 1.02 7.66 0 8 C-0.66 7.67 -1.32 7.34 -2 7 C-1.34 4.69 -0.68 2.38 0 0 Z " fill="#201615" transform="translate(126,150)"/>
<path d="M0 0 C0.33 0 0.66 0 1 0 C1.31563182 5.26053037 0.66590937 8.44573816 -2 13 C-3.18771723 9.57056481 -2.80226223 7.62215325 -1.5625 4.25 C-1.27503906 3.45078125 -0.98757812 2.6515625 -0.69140625 1.828125 C-0.46324219 1.22484375 -0.23507813 0.6215625 0 0 Z " fill="#F1C37F" transform="translate(28,115)"/>
<path d="M0 0 C0.66 0.33 1.32 0.66 2 1 C1.40072174 4.35595828 0.15377564 6.37801226 -2 9 C-2.66 8.67 -3.32 8.34 -4 8 C-3.34 6.35 -2.68 4.7 -2 3 C-1.34 3 -0.68 3 0 3 C0 2.01 0 1.02 0 0 Z " fill="#F6A813" transform="translate(112,187)"/>
<path d="M0 0 C1.485 0.99 1.485 0.99 3 2 C6.75698557 2.37569856 7.75366476 2.1642235 11 0 C10.34 1.32 9.68 2.64 9 4 C6.03 4 3.06 4 0 4 C0 2.68 0 1.36 0 0 Z " fill="#C88E21" transform="translate(167,171)"/>
<path d="M0 0 C4.42857143 5.14285714 4.42857143 5.14285714 5 9 C1.125 7.125 1.125 7.125 0 6 C-0.04080783 4.00041636 -0.04254356 1.99954746 0 0 Z " fill="#FDF7D8" transform="translate(235,161)"/>
<path d="M0 0 C0.66 0.33 1.32 0.66 2 1 C-1.625 6.875 -1.625 6.875 -5 8 C-4.1875 5.5625 -4.1875 5.5625 -3 3 C-2.01 2.67 -1.02 2.34 0 2 C0 1.34 0 0.68 0 0 Z " fill="#361F04" transform="translate(139,137)"/>
<path d="M0 0 C0.66 0 1.32 0 2 0 C1.29445932 3.66881155 -0.27735506 6.70450534 -2 10 C-2.33 10 -2.66 10 -3 10 C-3 8.35 -3 6.7 -3 5 C-2.34 5 -1.68 5 -1 5 C-0.67 3.35 -0.34 1.7 0 0 Z " fill="#3C2404" transform="translate(149,119)"/>
<path d="M0 0 C0.66 0.33 1.32 0.66 2 1 C1.19152271 2.16945792 0.37810888 3.33550461 -0.4375 4.5 C-0.88996094 5.1496875 -1.34242188 5.799375 -1.80859375 6.46875 C-2.20175781 6.9740625 -2.59492188 7.479375 -3 8 C-3.33 8 -3.66 8 -4 8 C-4.25 5.6875 -4.25 5.6875 -4 3 C-2 1.1875 -2 1.1875 0 0 Z " fill="#EEC476" transform="translate(299,256)"/>
<path d="M0 0 C1.875 0.125 1.875 0.125 4 1 C5.25 4.0625 5.25 4.0625 6 7 C3 6 3 6 1.3125 2.9375 C0.879375 1.968125 0.44625 0.99875 0 0 Z " fill="#302D29" transform="translate(225,162)"/>
<path d="M0 0 C1.32 0 2.64 0 4 0 C4 0.66 4 1.32 4 2 C5.32 2.33 6.64 2.66 8 3 C8 4.32 8 5.64 8 7 C6.66382648 6.02471263 5.3311249 5.04466681 4 4.0625 C3.2575 3.51722656 2.515 2.97195312 1.75 2.41015625 C1.1725 1.94480469 0.595 1.47945313 0 1 C0 0.67 0 0.34 0 0 Z " fill="#4D3308" transform="translate(178,100)"/>
<path d="M0 0 C0.66 0.33 1.32 0.66 2 1 C1.2884375 1.6496875 1.2884375 1.6496875 0.5625 2.3125 C-1.23686957 4.02309613 -1.23686957 4.02309613 -2 7 C-3.32 6.67 -4.64 6.34 -6 6 C-4 4 -2 2 0 0 Z " fill="#F2C783" transform="translate(79,47)"/>
<path d="M0 0 C-1.7015625 0.7115625 -1.7015625 0.7115625 -3.4375 1.4375 C-6.75740166 2.63622083 -6.75740166 2.63622083 -8 4 C-9.66617115 4.04063832 -11.33388095 4.042721 -13 4 C-8.93522219 0.68795882 -5.26054188 -1.94834884 0 0 Z " fill="#EFC274" transform="translate(127,25)"/>
<path d="M0 0 C0.66 0 1.32 0 2 0 C2 0.66 2 1.32 2 2 C2.99 2.33 3.98 2.66 5 3 C5 3.66 5 4.32 5 5 C5.66 5 6.32 5 7 5 C7.33 5.99 7.66 6.98 8 8 C4.20645982 6.50968064 2.3521464 4.27620391 0 1 C0 0.67 0 0.34 0 0 Z " fill="#D5A02F" transform="translate(103,212)"/>
<path d="M0 0 C0.99 0.33 1.98 0.66 3 1 C3.73046875 3.06640625 3.73046875 3.06640625 4.1875 5.5625 C4.34605469 6.38878906 4.50460938 7.21507812 4.66796875 8.06640625 C4.77753906 8.70449219 4.88710937 9.34257812 5 10 C4.34 10 3.68 10 3 10 C2.67 8.02 2.34 6.04 2 4 C1.34 4 0.68 4 0 4 C0 2.68 0 1.36 0 0 Z " fill="#FBEDC3" transform="translate(88,213)"/>
<path d="M0 0 C1.41687119 4.25061356 0.19320039 6.71851625 -1 11 C-1.33 11 -1.66 11 -2 11 C-2.25 3.375 -2.25 3.375 0 0 Z " fill="#FCA810" transform="translate(107,196)"/>
<path d="M0 0 C2.64 0 5.28 0 8 0 C8.66 1.98 9.32 3.96 10 6 C9.278125 5.360625 8.55625 4.72125 7.8125 4.0625 C5.01808816 2.01326465 3.38336726 1.38667054 0 1 C0 0.67 0 0.34 0 0 Z " fill="#321803" transform="translate(170,186)"/>
<path d="M0 0 C1.0326802 2.78823655 1.04509293 3.8677274 0.0625 6.75 C-0.288125 7.4925 -0.63875 8.235 -1 9 C-1.99 8.67 -2.98 8.34 -4 8 C-2.87548273 5.0280615 -1.77706209 2.66559313 0 0 Z " fill="#D39A24" transform="translate(124,165)"/>
<path d="M0 0 C1.32 0.66 2.64 1.32 4 2 C2.35 3.32 0.7 4.64 -1 6 C-1.66 5.67 -2.32 5.34 -3 5 C-2.01 3.35 -1.02 1.7 0 0 Z " fill="#FEF0D3" transform="translate(107,165)"/>
<path d="M0 0 C0.6875 1.75 0.6875 1.75 1 4 C-0.3125 6.25 -0.3125 6.25 -2 8 C-2.66 8 -3.32 8 -4 8 C-2.87548273 5.0280615 -1.77706209 2.66559313 0 0 Z " fill="#403B33" transform="translate(124,151)"/>
<path d="M0 0 C0.66 0 1.32 0 2 0 C1.25 2.875 1.25 2.875 0 6 C-1.98 6.99 -1.98 6.99 -4 8 C-2.68 5.36 -1.36 2.72 0 0 Z " fill="#FDF2D2" transform="translate(121,142)"/>
<path d="M0 0 C0.99 0.33 1.98 0.66 3 1 C3.33 2.98 3.66 4.96 4 7 C2.68 6.34 1.36 5.68 0 5 C0 3.35 0 1.7 0 0 Z " fill="#1E1E25" transform="translate(204,126)"/>
<path d="M0 0 C1.32 0.33 2.64 0.66 4 1 C4.33 3.31 4.66 5.62 5 8 C2.74754119 5.31158141 1.11786042 3.35358125 0 0 Z " fill="#3C2004" transform="translate(197,125)"/>
<path d="M0 0 C0.33 1.32 0.66 2.64 1 4 C0.01 4.33 -0.98 4.66 -2 5 C-2 5.99 -2 6.98 -2 8 C-2.99 8.33 -3.98 8.66 -5 9 C-3.7508258 5.54074837 -2.32472205 2.85306797 0 0 Z " fill="#FCECC0" transform="translate(141,109)"/>
<path d="M0 0 C0 3.10551666 -0.5393715 4.35261084 -2 7 C-3.32 6.67 -4.64 6.34 -6 6 C-4.02 4.02 -2.04 2.04 0 0 Z " fill="#F3CD8F" transform="translate(66,58)"/>
<path d="M0 0 C2.0625 0.4375 2.0625 0.4375 4 1 C2.71034824 2.37562854 1.37310707 3.70766393 0 5 C-0.66 5 -1.32 5 -2 5 C-1.125 1.125 -1.125 1.125 0 0 Z " fill="#F1C77E" transform="translate(272,285)"/>
<path d="M0 0 C0.99 0.33 1.98 0.66 3 1 C3 1.66 3 2.32 3 3 C3.66 3 4.32 3 5 3 C5.33 3.99 5.66 4.98 6 6 C5.34 6.66 4.68 7.32 4 8 C2.68 5.36 1.36 2.72 0 0 Z " fill="#432604" transform="translate(229,178)"/>
<path d="M0 0 C2.475 0.99 2.475 0.99 5 2 C5 2.99 5 3.98 5 5 C3.68 4.67 2.36 4.34 1 4 C0.67 2.68 0.34 1.36 0 0 Z " fill="#1B1C18" transform="translate(207,136)"/>
</svg>
