<svg version="1.1" id="Layer_1" xmlns="http://www.w3.org/2000/svg" xmlns:xlink="http://www.w3.org/1999/xlink" x="0px" y="0px"
	 width="100%" viewBox="0 0 240 240" enable-background="new 0 0 240 240" xml:space="preserve">
<path fill="#FDC363" opacity="1.000000" stroke="none" 
	d="
M113.000000,1.000000 
	C117.356903,1.000000 121.713799,1.000000 126.727112,1.359077 
	C128.186996,1.893515 128.982330,2.154900 129.795105,2.231779 
	C156.816910,4.787707 180.802139,14.389484 200.839966,33.011810 
	C230.587631,60.658039 243.609238,94.903503 238.915649,135.091721 
	C232.390884,190.959244 189.708054,232.710464 133.916031,239.234482 
	C131.573883,239.508362 129.303696,240.397491 127.000000,241.000000 
	C122.310745,241.000000 117.621490,241.000000 112.399139,240.616180 
	C110.805748,239.891418 109.766304,239.449585 108.681847,239.225555 
	C100.563301,237.548416 92.185631,236.685272 84.351463,234.142654 
	C30.159351,216.554337 -3.555789,163.922562 2.885967,107.561188 
	C9.284193,51.580677 53.040611,8.511693 109.304085,2.726139 
	C110.581711,2.594762 111.770027,1.594803 113.000000,1.000000 
M92.403389,81.296700 
	C91.598312,82.864883 90.793236,84.433060 89.835892,86.248154 
	C89.835892,86.248154 89.851768,86.537804 89.265694,86.924416 
	C85.209824,93.615997 81.153954,100.307587 76.906540,107.283569 
	C76.906540,107.283569 76.858780,107.623123 76.309364,108.061119 
	C73.966789,112.041641 71.624207,116.022163 69.028305,120.327858 
	C69.028305,120.327858 68.885712,120.714607 68.306793,121.097191 
	C66.849663,123.719864 65.392525,126.342529 63.995338,128.994705 
	C63.995338,128.994705 63.962585,128.936462 63.327030,129.156708 
	C61.197014,132.665848 58.644619,135.990631 57.017303,139.719162 
	C52.396782,150.305832 56.389088,162.011536 66.276535,167.484222 
	C66.579010,167.636749 66.881485,167.789276 67.612915,168.490479 
	C75.761612,172.838364 84.480774,170.521667 93.913368,170.832993 
	C115.278282,170.776154 136.643188,170.719299 158.908264,170.863358 
	C165.894058,171.521072 172.376846,170.468826 178.300995,166.248001 
	C187.083054,159.990967 189.675110,145.481003 183.164780,137.229446 
	C183.164780,137.229446 182.992935,137.005081 182.917053,136.315475 
	C181.986481,135.098618 181.055923,133.881744 180.080460,132.313583 
	C180.080460,132.313583 179.899460,132.009155 179.894669,131.291580 
	C179.687546,130.664337 179.592133,129.968903 179.256927,129.419846 
	C171.213760,116.245132 163.176544,103.066498 155.056213,89.939339 
	C153.250473,87.020187 151.135483,84.292320 149.172577,81.211739 
	C149.172577,81.211739 149.007629,81.004555 148.866272,80.308228 
	C145.779633,75.035393 142.997101,69.553177 139.541779,64.534157 
	C132.763504,54.688389 119.766068,51.749580 110.927521,57.767357 
	C110.619499,57.894363 110.311478,58.021370 109.326988,58.214806 
	C100.861824,63.639362 97.510857,72.739441 92.998001,81.003197 
	C92.998001,81.003197 92.979515,80.968719 92.403389,81.296700 
z"/>
<path fill="#FFFEFD" opacity="1.000000" stroke="none" 
	d="
M112.531342,1.000000 
	C111.770027,1.594803 110.581711,2.594762 109.304085,2.726139 
	C53.040611,8.511693 9.284193,51.580677 2.885967,107.561188 
	C-3.555789,163.922562 30.159351,216.554337 84.351463,234.142654 
	C92.185631,236.685272 100.563301,237.548416 108.681847,239.225555 
	C109.766304,239.449585 110.805748,239.891418 111.933022,240.616180 
	C75.034981,241.000000 38.069958,241.000000 1.052469,241.000000 
	C1.052469,161.110641 1.052469,81.221237 1.052469,1.000000 
	C38.020233,1.000000 75.041458,1.000000 112.531342,1.000000 
z"/>
<path fill="#FFFEFD" opacity="1.000000" stroke="none" 
	d="
M127.468658,241.000000 
	C129.303696,240.397491 131.573883,239.508362 133.916031,239.234482 
	C189.708054,232.710464 232.390884,190.959244 238.915649,135.091721 
	C243.609238,94.903503 230.587631,60.658039 200.839966,33.011810 
	C180.802139,14.389484 156.816910,4.787707 129.795105,2.231779 
	C128.982330,2.154900 128.186996,1.893515 127.191765,1.359077 
	C164.964447,1.000000 202.928879,1.000000 240.946655,1.000000 
	C240.946655,80.889565 240.946655,160.779175 240.946655,241.000000 
	C203.313080,241.000000 165.625198,241.000000 127.468658,241.000000 
z"/>
<path fill="#F4F2EC" opacity="1.000000" stroke="none" 
	d="
M179.899460,132.009155 
	C179.899460,132.009155 180.080460,132.313583 180.071198,132.898193 
	C181.038925,134.656891 182.015930,135.830994 182.992935,137.005081 
	C182.992935,137.005081 183.164780,137.229446 183.125549,137.818161 
	C183.136566,139.231537 183.013580,140.112991 183.262634,140.872452 
	C188.152924,155.783585 178.908676,168.759079 163.270874,169.070099 
	C161.506760,169.105179 159.761887,170.108246 158.008102,170.662445 
	C136.643188,170.719299 115.278282,170.776154 93.284454,170.415985 
	C91.760971,169.670959 90.879784,169.103455 89.969742,169.052612 
	C82.377487,168.628510 74.779922,168.299500 67.183960,167.941803 
	C66.881485,167.789276 66.579010,167.636749 66.066956,166.888916 
	C65.513680,164.059433 65.169983,161.825226 65.082108,159.788132 
	C69.533615,163.687042 74.300461,165.673294 80.460281,164.945297 
	C108.274727,165.028671 135.626648,165.094650 162.977432,164.948395 
	C165.989807,164.932281 168.995667,163.700516 172.356064,163.011383 
	C180.510132,158.194107 183.345810,147.721558 179.353333,141.481018 
	C174.240646,133.297394 169.035080,125.572876 164.245728,117.598396 
	C158.063828,107.305206 152.279236,96.773781 146.141159,86.453423 
	C145.371353,85.159081 143.493210,84.523926 142.160477,83.285889 
	C141.593002,81.617165 140.993652,80.245903 140.324554,78.507042 
	C138.185211,74.378204 136.552475,70.280075 133.961807,66.920685 
	C126.975700,57.861603 113.964928,58.086346 107.560501,67.567085 
	C102.080605,75.679207 97.407364,84.336243 92.198456,92.860199 
	C91.873665,93.347565 91.727768,93.726990 91.303795,94.342331 
	C82.257668,109.249168 73.874763,124.170570 64.563477,138.488220 
	C59.710880,145.949936 59.847298,152.379181 64.224854,159.445877 
	C62.260078,158.799408 60.073864,158.424850 59.235020,157.158066 
	C55.850277,152.046661 56.350906,146.491913 58.556236,141.062073 
	C60.220566,136.964233 62.150738,132.974380 63.962585,128.936462 
	C63.962585,128.936462 63.995338,128.994705 64.307892,128.914032 
	C66.042198,126.127121 67.463959,123.420860 68.885712,120.714607 
	C68.885712,120.714607 69.028305,120.327858 69.473557,120.092682 
	C72.232132,115.779388 74.545456,111.701256 76.858780,107.623123 
	C76.858780,107.623123 76.906540,107.283569 77.340683,107.080154 
	C82.641205,100.596306 88.918640,95.153740 89.851768,86.537804 
	C89.851768,86.537804 89.835892,86.248154 90.251129,86.041107 
	C91.437416,84.212280 92.208473,82.590500 92.979523,80.968719 
	C92.979515,80.968719 92.998001,81.003197 93.331291,80.943161 
	C94.604042,80.249939 95.852310,79.822807 96.434052,78.950951 
	C101.028893,72.064606 105.496620,65.093445 110.003448,58.148376 
	C110.311478,58.021370 110.619499,57.894363 111.651466,57.831017 
	C113.845772,57.689461 115.310226,57.384014 116.787544,57.297092 
	C122.049370,56.987499 127.964493,55.430912 131.964920,59.750561 
	C136.752380,64.920052 140.486832,71.056709 144.786148,76.691452 
	C145.997253,78.278748 147.589951,79.574875 149.007629,81.004555 
	C149.007629,81.004555 149.172577,81.211739 149.168549,81.743759 
	C149.371567,82.897881 149.480209,83.576431 149.800140,84.133720 
	C156.124527,95.150696 162.278397,106.272789 168.901291,117.108032 
	C172.108688,122.355415 176.205383,127.059242 179.899460,132.009155 
z"/>
<path fill="#FBF5E4" opacity="1.000000" stroke="none" 
	d="
M179.897064,131.650360 
	C176.205383,127.059242 172.108688,122.355415 168.901291,117.108032 
	C162.278397,106.272789 156.124527,95.150696 149.800140,84.133720 
	C149.480209,83.576431 149.371567,82.897881 149.163712,81.876083 
	C151.135483,84.292320 153.250473,87.020187 155.056213,89.939339 
	C163.176544,103.066498 171.213760,116.245132 179.256927,129.419846 
	C179.592133,129.968903 179.687546,130.664337 179.897064,131.650360 
z"/>
<path fill="#FBF5E4" opacity="1.000000" stroke="none" 
	d="
M158.458191,170.762909 
	C159.761887,170.108246 161.506760,169.105179 163.270874,169.070099 
	C178.908676,168.759079 188.152924,155.783585 183.262634,140.872452 
	C183.013580,140.112991 183.136566,139.231537 183.125977,137.959473 
	C189.675110,145.481003 187.083054,159.990967 178.300995,166.248001 
	C172.376846,170.468826 165.894058,171.521072 158.458191,170.762909 
z"/>
<path fill="#FBF5E4" opacity="1.000000" stroke="none" 
	d="
M148.936951,80.656387 
	C147.589951,79.574875 145.997253,78.278748 144.786148,76.691452 
	C140.486832,71.056709 136.752380,64.920052 131.964920,59.750561 
	C127.964493,55.430912 122.049370,56.987499 116.787544,57.297092 
	C115.310226,57.384014 113.845772,57.689461 111.902374,57.851151 
	C119.766068,51.749580 132.763504,54.688389 139.541779,64.534157 
	C142.997101,69.553177 145.779633,75.035393 148.936951,80.656387 
z"/>
<path fill="#FBF5E4" opacity="1.000000" stroke="none" 
	d="
M64.826279,159.591034 
	C65.169983,161.825226 65.513680,164.059433 65.917381,166.678955 
	C56.389088,162.011536 52.396782,150.305832 57.017303,139.719162 
	C58.644619,135.990631 61.197014,132.665848 63.644806,129.046585 
	C62.150738,132.974380 60.220566,136.964233 58.556236,141.062073 
	C56.350906,146.491913 55.850277,152.046661 59.235020,157.158066 
	C60.073864,158.424850 62.260078,158.799408 64.318283,159.486115 
	C64.809616,159.388138 64.826279,159.591034 64.826279,159.591034 
z"/>
<path fill="#FBF5E4" opacity="1.000000" stroke="none" 
	d="
M109.665222,58.181587 
	C105.496620,65.093445 101.028893,72.064606 96.434052,78.950951 
	C95.852310,79.822807 94.604042,80.249939 93.314896,80.932014 
	C97.510857,72.739441 100.861824,63.639362 109.665222,58.181587 
z"/>
<path fill="#FBF5E4" opacity="1.000000" stroke="none" 
	d="
M89.558731,86.731110 
	C88.918640,95.153740 82.641205,100.596306 77.436447,106.937958 
	C81.153954,100.307587 85.209824,93.615997 89.558731,86.731110 
z"/>
<path fill="#FBF5E4" opacity="1.000000" stroke="none" 
	d="
M67.398438,168.216125 
	C74.779922,168.299500 82.377487,168.628510 89.969742,169.052612 
	C90.879784,169.103455 91.760971,169.670959 92.822556,170.330795 
	C84.480774,170.521667 75.761612,172.838364 67.398438,168.216125 
z"/>
<path fill="#FBF5E4" opacity="1.000000" stroke="none" 
	d="
M76.584076,107.842117 
	C74.545456,111.701256 72.232132,115.779388 69.600220,119.930099 
	C71.624207,116.022163 73.966789,112.041641 76.584076,107.842117 
z"/>
<path fill="#FBF5E4" opacity="1.000000" stroke="none" 
	d="
M68.596252,120.905899 
	C67.463959,123.420860 66.042198,126.127121 64.277916,128.899292 
	C65.392525,126.342529 66.849663,123.719864 68.596252,120.905899 
z"/>
<path fill="#FBF5E4" opacity="1.000000" stroke="none" 
	d="
M182.954987,136.660278 
	C182.015930,135.830994 181.038925,134.656891 180.093643,133.073853 
	C181.055923,133.881744 181.986481,135.098618 182.954987,136.660278 
z"/>
<path fill="#FBF5E4" opacity="1.000000" stroke="none" 
	d="
M92.691452,81.132706 
	C92.208473,82.590500 91.437416,84.212280 90.327263,85.917648 
	C90.793236,84.433060 91.598312,82.864883 92.691452,81.132706 
z"/>
<path fill="#372911" opacity="1.000000" stroke="none" 
	d="
M91.581863,94.106422 
	C91.727768,93.726990 91.873665,93.347565 92.604477,92.906143 
	C94.404732,92.190292 96.079102,91.845207 96.760551,90.832191 
	C101.015068,84.507507 105.269943,78.162003 109.080994,71.566986 
	C111.951294,66.599960 115.813118,63.934361 121.534927,63.976669 
	C127.190056,64.018494 130.327347,67.536041 133.283218,71.839294 
	C135.137543,74.538879 137.989777,76.552986 140.394287,78.874649 
	C140.993652,80.245903 141.593002,81.617165 142.180603,83.673927 
	C146.729034,92.526237 151.148590,100.775604 155.882736,108.840302 
	C162.802444,120.628105 169.947861,132.283401 177.019104,144.394592 
	C178.510376,150.888763 177.887207,156.295517 171.760208,159.997543 
	C171.284409,160.020248 171.094208,160.031906 170.638229,160.079956 
	C169.928497,160.393936 169.484528,160.671570 168.708923,161.203278 
	C166.406021,161.633926 164.434982,161.961731 162.463516,161.964325 
	C134.976929,162.000534 107.490288,161.992264 79.568970,161.990372 
	C72.775360,162.896317 68.690437,159.726486 66.014252,154.403244 
	C63.504887,149.411850 64.169487,144.526199 67.093567,139.857132 
	C73.657104,129.376663 80.482491,119.044937 86.616570,108.318283 
	C89.065887,104.035172 89.972816,98.870041 91.581863,94.106422 
M91.339333,104.850883 
	C84.157890,116.646904 77.029633,128.475815 69.767250,140.221802 
	C67.086975,144.556808 65.466766,148.929108 68.000488,153.815109 
	C70.606392,158.840286 75.221474,159.552536 80.331070,159.538727 
	C107.464302,159.465439 134.597870,159.492996 161.731277,159.527634 
	C166.787033,159.534088 171.421707,158.831528 174.053299,153.754379 
	C176.505295,149.023758 175.080429,144.802795 172.521378,140.601715 
	C158.932312,118.293213 145.418686,95.938759 131.842606,73.622322 
	C125.761459,63.626091 116.431557,63.549541 110.329292,73.485703 
	C104.060074,83.693710 97.931511,93.988106 91.339333,104.850883 
z"/>
<path fill="#222123" opacity="1.000000" stroke="none" 
	d="
M80.003654,161.994843 
	C107.490288,161.992264 134.976929,162.000534 162.463516,161.964325 
	C164.434982,161.961731 166.406021,161.633926 168.979065,161.176392 
	C170.021912,160.611496 170.462952,160.327530 170.903992,160.043579 
	C171.094208,160.031906 171.284409,160.020248 171.749573,160.378662 
	C172.017883,161.510025 172.011215,162.271286 172.004547,163.032562 
	C168.995667,163.700516 165.989807,164.932281 162.977432,164.948395 
	C135.626648,165.094650 108.274727,165.028671 80.461258,164.586487 
	C80.000793,163.430405 80.002220,162.712616 80.003654,161.994843 
z"/>
<path fill="#22211F" opacity="1.000000" stroke="none" 
	d="
M79.568970,161.990372 
	C80.002220,162.712616 80.000793,163.430405 79.998398,164.506989 
	C74.300461,165.673294 69.533615,163.687042 65.082108,159.788132 
	C64.826279,159.591034 64.809616,159.388138 64.716187,159.347900 
	C59.847298,152.379181 59.710880,145.949936 64.563477,138.488220 
	C73.874763,124.170570 82.257668,109.249168 91.303795,94.342331 
	C89.972816,98.870041 89.065887,104.035172 86.616570,108.318283 
	C80.482491,119.044937 73.657104,129.376663 67.093567,139.857132 
	C64.169487,144.526199 63.504887,149.411850 66.014252,154.403244 
	C68.690437,159.726486 72.775360,162.896317 79.568970,161.990372 
z"/>
<path fill="#35312F" opacity="1.000000" stroke="none" 
	d="
M140.324554,78.507042 
	C137.989777,76.552986 135.137543,74.538879 133.283218,71.839294 
	C130.327347,67.536041 127.190056,64.018494 121.534927,63.976669 
	C115.813118,63.934361 111.951294,66.599960 109.080994,71.566986 
	C105.269943,78.162003 101.015068,84.507507 96.760551,90.832191 
	C96.079102,91.845207 94.404732,92.190292 92.783356,92.798203 
	C97.407364,84.336243 102.080605,75.679207 107.560501,67.567085 
	C113.964928,58.086346 126.975700,57.861603 133.961807,66.920685 
	C136.552475,70.280075 138.185211,74.378204 140.324554,78.507042 
z"/>
<path fill="#302D2B" opacity="1.000000" stroke="none" 
	d="
M176.997086,143.995163 
	C169.947861,132.283401 162.802444,120.628105 155.882736,108.840302 
	C151.148590,100.775604 146.729034,92.526237 142.148712,83.971390 
	C143.493210,84.523926 145.371353,85.159081 146.141159,86.453423 
	C152.279236,96.773781 158.063828,107.305206 164.245728,117.598396 
	C169.035080,125.572876 174.240646,133.297394 179.049530,141.621796 
	C178.224274,142.738770 177.610687,143.366959 176.997086,143.995163 
z"/>
<path fill="#332F2F" opacity="1.000000" stroke="none" 
	d="
M177.019104,144.394592 
	C177.610687,143.366959 178.224274,142.738770 179.141663,141.969788 
	C183.345810,147.721558 180.510132,158.194107 172.356064,163.011383 
	C172.011215,162.271286 172.017883,161.510025 172.035187,160.367630 
	C177.887207,156.295517 178.510376,150.888763 177.019104,144.394592 
z"/>
<path fill="#F8A407" opacity="1.000000" stroke="none" 
	d="
M91.540359,104.547791 
	C97.931511,93.988106 104.060074,83.693710 110.329292,73.485703 
	C116.431557,63.549541 125.761459,63.626091 131.842606,73.622322 
	C145.418686,95.938759 158.932312,118.293213 172.521378,140.601715 
	C175.080429,144.802795 176.505295,149.023758 174.053299,153.754379 
	C171.421707,158.831528 166.787033,159.534088 161.731277,159.527634 
	C134.597870,159.492996 107.464302,159.465439 80.331070,159.538727 
	C75.221474,159.552536 70.606392,158.840286 68.000488,153.815109 
	C65.466766,148.929108 67.086975,144.556808 69.767250,140.221802 
	C77.029633,128.475815 84.157890,116.646904 91.540359,104.547791 
M116.098373,115.339287 
	C116.127693,115.837883 116.167931,116.336105 116.184570,116.835129 
	C116.296661,120.196594 116.851685,123.670380 121.030807,123.635605 
	C125.154709,123.601273 125.689049,120.150162 125.898537,116.784615 
	C126.270927,110.802299 126.824593,104.830925 127.167877,98.847260 
	C127.455902,93.826736 125.219353,90.928375 121.203453,90.798332 
	C117.019279,90.662834 114.570549,93.676544 114.849899,99.005028 
	C115.120064,104.158340 115.646828,109.298203 116.098373,115.339287 
M120.652542,131.999710 
	C117.101379,132.535049 114.555786,134.584152 114.564423,138.107513 
	C114.569740,140.280594 115.710541,143.353973 117.362381,144.380478 
	C119.227066,145.539246 122.911446,145.843887 124.569374,144.711578 
	C126.443352,143.431732 127.815598,140.148956 127.836205,137.723846 
	C127.866379,134.173233 124.945511,132.398636 120.652542,131.999710 
z"/>
<path fill="#332F2F" opacity="1.000000" stroke="none" 
	d="
M170.638229,160.079956 
	C170.462952,160.327530 170.021912,160.611496 169.310730,160.922333 
	C169.484528,160.671570 169.928497,160.393936 170.638229,160.079956 
z"/>
<path fill="#312716" opacity="1.000000" stroke="none" 
	d="
M116.079636,114.891632 
	C115.646828,109.298203 115.120064,104.158340 114.849899,99.005028 
	C114.570549,93.676544 117.019279,90.662834 121.203453,90.798332 
	C125.219353,90.928375 127.455902,93.826736 127.167877,98.847260 
	C126.824593,104.830925 126.270927,110.802299 125.898537,116.784615 
	C125.689049,120.150162 125.154709,123.601273 121.030807,123.635605 
	C116.851685,123.670380 116.296661,120.196594 116.184570,116.835129 
	C116.167931,116.336105 116.127693,115.837883 116.079636,114.891632 
z"/>
<path fill="#4E3003" opacity="1.000000" stroke="none" 
	d="
M121.046631,131.992310 
	C124.945511,132.398636 127.866379,134.173233 127.836205,137.723846 
	C127.815598,140.148956 126.443352,143.431732 124.569374,144.711578 
	C122.911446,145.843887 119.227066,145.539246 117.362381,144.380478 
	C115.710541,143.353973 114.569740,140.280594 114.564423,138.107513 
	C114.555786,134.584152 117.101379,132.535049 121.046631,131.992310 
M119.404999,143.268539 
	C122.699921,145.023315 124.878410,143.163208 125.449577,140.413315 
	C125.802162,138.715775 124.600021,135.579559 123.232681,134.942795 
	C121.756157,134.255188 118.724136,135.127106 117.348434,136.386688 
	C114.751160,138.764694 116.143417,141.164536 119.404999,143.268539 
z"/>
<path fill="#221F1F" opacity="1.000000" stroke="none" 
	d="
M119.069275,143.089203 
	C116.143417,141.164536 114.751160,138.764694 117.348434,136.386688 
	C118.724136,135.127106 121.756157,134.255188 123.232681,134.942795 
	C124.600021,135.579559 125.802162,138.715775 125.449577,140.413315 
	C124.878410,143.163208 122.699921,145.023315 119.069275,143.089203 
z"/>
</svg>